<?xml version="1.0" encoding="UTF-8" standalone="no"?>
<!DOCTYPE svg  PUBLIC '-//W3C//DTD SVG 1.1//EN'  'http://www.w3.org/Graphics/SVG/1.1/DTD/svg11.dtd'>
<svg xmlns="http://www.w3.org/2000/svg">
<defs>
<font id="NeoSansW1G-BlackItalic" horiz-adv-x="632">
<font-face slope="-11" underline-position="11" font-weight="900" descent="-200" panose-1="2 11 9 4 3 5 4 9 2 4" units-per-em="1000" unicode-range="U+0020-2215" bbox="-128 -216 1289 1025" x-height="582" underline-thickness="90" font-family="NeoSansW1G" ascent="800" font-style="italic" cap-height="743"/>
<missing-glyph horiz-adv-x="1000"/>
<glyph glyph-name="IJ" horiz-adv-x="668" unicode="IJ" d="M730 727v-4l-127 -721q-19 -109 -72 -151.5t-139 -42.5q-45 0 -90 7q-17 3 -17 14q0 1 0.5 3t0.5 3l19 109q4 20 24 20h37q16 0 23 9t10 29l127 721q1 8 9 14t16 6h163q16 0 16 -16zM380 743q20 0 17 -19l-124 -704q-4 -20 -24 -20h-164q-9 0 -13.5 6t-2.5 14l124 704 q3 19 23 19h164z"/>
<glyph glyph-name="ij" horiz-adv-x="625" unicode="ij" d="M498 582h149q19 0 19 -15q0 -1 -0.5 -3t-0.5 -3l-103 -582q-19 -106 -65.5 -145.5t-135.5 -39.5q-42 0 -93 9q-20 3 -16 21l16 93q4 20 25 20h43q17 0 23 9.5t10 32.5l103 582q4 21 26 21zM528 775h157q19 0 19 -15q0 -1 -0.5 -2.5t-0.5 -2.5l-17 -98q-4 -20 -26 -20 h-157q-19 0 -19 15q0 1 0.5 2.5t0.5 2.5l17 98q4 20 26 20zM185 582h149q19 0 19 -15q0 -1 -0.5 -3t-0.5 -3l-95 -539q-4 -22 -26 -22h-149q-19 0 -19 16q0 1 0.5 3t0.5 3l95 539q4 21 26 21zM215 775h158q19 0 19 -14q0 -1 -0.5 -3t-0.5 -3l-17 -98q-4 -20 -26 -20h-158 q-20 0 -20 14q0 1 0.5 3t0.5 3l17 98q4 20 27 20z"/>
<glyph glyph-name="napostrophe" horiz-adv-x="787" unicode='&quot;n' d="M191 773h142q11 0 11 -9q0 -6 -3 -10l-140 -230q-10 -19 -22 -19h-109q-11 0 -11 9q0 4 3 10l105 230q8 19 24 19zM773 421q0 -31 -10 -87l-55 -312q-2 -9 -9 -15.5t-16 -6.5h-150q-18 0 -18 16q0 1 0.5 3t0.5 3l56 319q7 40 7 51q0 23 -10.5 31t-36.5 8q-45 0 -85 -22 l-68 -387q-4 -22 -27 -22h-143q-11 0 -17.5 6t-5.5 16l96 540q4 20 23 20h137q18 0 18 -14q0 -1 -0.5 -3t-0.5 -3l-5 -26q84 55 162 55q82 0 119.5 -42t37.5 -128z"/>
<glyph glyph-name=".notdef" horiz-adv-x="1000"/>
<glyph glyph-name=".null" horiz-adv-x="0"/>
<glyph glyph-name="nonmarkingreturn" horiz-adv-x="333"/>
<glyph glyph-name="space" horiz-adv-x="240" unicode=" "/>
<glyph glyph-name="exclam" horiz-adv-x="291" unicode="!" d="M267 163v-4l-24 -139q-4 -20 -24 -20h-146q-16 0 -16 16v4l24 139q4 20 24 20h146q16 0 16 -16zM378 757v-4l-112 -491q-6 -21 -24 -21h-106q-18 0 -18 18v3l62 491q1 8 8.5 14t16.5 6h156q17 0 17 -16z"/>
<glyph glyph-name="quotedbl" horiz-adv-x="504" unicode='&quot;' d="M381 765q0 -5 -3 -11l-122 -230q-10 -19 -22 -19h-123q-8 0 -8 7q0 4 3 12l98 230q8 19 23 19h144q10 0 10 -8zM619 765q0 -5 -3 -11l-122 -230q-10 -19 -22 -19h-123q-8 0 -8 7q0 4 3 12l98 230q8 19 23 19h144q10 0 10 -8z"/>
<glyph glyph-name="numbersign" horiz-adv-x="715" unicode="#" d="M477 443h-96l-39 -145h97zM763 549q0 -1 -0.5 -2t-0.5 -2l-27 -89q-5 -13 -20 -13h-78l-39 -145h79q6 0 11 -4t5 -9q0 -1 -0.5 -2t-0.5 -2l-27 -86q-6 -15 -20 -15h-78l-43 -161q-6 -19 -21 -19h-125q-14 0 -14 14v2q1 2 1 3l42 161h-96l-43 -161q-6 -19 -21 -19h-127 q-14 0 -14 14q0 1 0.5 2.5t0.5 2.5l43 161h-77q-15 0 -15 11q0 1 0.5 2t0.5 2l27 88q6 15 20 15h76l38 145h-77q-14 0 -14 11l1 2v2l26 89q3 14 21 14h74l43 163q6 19 22 19h127q13 0 13 -14q0 -3 -1 -5l-44 -163h97l44 163q6 19 22 19h125q13 0 13 -13q0 -4 -1 -6l-44 -163 h81q15 0 15 -12z"/>
<glyph glyph-name="dollar" horiz-adv-x="666" unicode="$" d="M694 711v-3l-22 -124q-3 -19 -21 -19h-2q-148 13 -225 13q-56 0 -56 -40q0 -19 44 -45l121 -72q100 -59 100 -166q0 -102 -66 -171.5t-169 -84.5l-17 -97q-4 -20 -24 -20h-129q-16 0 -16 16v4l16 93q-65 5 -119 22q-16 5 -16 17v3l21 123q4 20 23 20h2q154 -15 199 -15 q73 0 73 59q0 19 -39 45l-129 85q-43 28 -64.5 72.5t-21.5 92.5q0 91 55.5 150.5t147.5 75.5l17 88q4 20 24 20h129q16 0 16 -16v-4l-16 -84q107 -9 148 -21q16 -6 16 -17z"/>
<glyph glyph-name="percent" horiz-adv-x="867" unicode="%" d="M333 622q0 33 -28 33q-22 0 -33 -15t-19 -62l-12 -68q-5 -30 -5 -42q0 -36 29 -36q21 0 32 15.5t19 62.5l12 68q5 32 5 44zM764 279q0 33 -28 33q-22 0 -33 -15t-19 -62l-12 -68q-5 -30 -5 -42q0 -36 29 -36q21 0 32 15.5t19 62.5l12 68q5 32 5 44zM448 624q0 -25 -4 -46 l-12 -68q-17 -94 -61 -135t-122 -41q-61 0 -94 35t-33 97q0 23 4 44l12 68q17 97 62 136t123 39q61 0 93 -34.5t32 -94.5zM852 736q0 -6 -6 -13l-538 -701q-17 -22 -28 -22h-122q-11 0 -11 10q0 5 5 12l538 701q16 20 30 20h123q9 0 9 -7zM879 281q0 -25 -4 -46l-12 -68 q-17 -94 -61 -135t-122 -41q-61 0 -94 35t-33 97q0 23 4 44l12 68q17 97 62 136t123 39q61 0 93 -34.5t32 -94.5z"/>
<glyph glyph-name="ampersand" horiz-adv-x="746" unicode="&amp;" d="M439 140l-108 140q-59 -34 -59 -92q0 -28 21 -45.5t63 -17.5q47 0 83 15zM493 582q0 40 -55 40q-80 0 -80 -76q0 -30 28 -63l6 -7l27 16q47 29 59 45q15 19 15 45zM748 358l-2 -13q-18 -115 -92 -206l87 -113q3 -3 3 -10q0 -16 -16 -16h-171q-8 0 -16 9l-20 24 q-84 -42 -183 -42q-56 0 -99.5 8.5t-81.5 29t-58.5 60.5t-20.5 98q0 70 44 118t122 91l-7 10q-55 79 -55 145q0 57 22.5 98t62.5 62.5t85 31.5t98 10q105 0 163.5 -45t58.5 -108q0 -73 -38.5 -120t-113.5 -93l-40 -25l84 -110q24 47 31 93l2 13q4 20 23 20h113q15 0 15 -19 v-1z"/>
<glyph glyph-name="quotesingle" horiz-adv-x="233" unicode="&apos;" d="M381 765q0 -5 -3 -11l-122 -230q-10 -19 -22 -19h-123q-8 0 -8 7q0 4 3 12l98 230q8 19 23 19h144q10 0 10 -8z"/>
<glyph glyph-name="parenleft" horiz-adv-x="389" unicode="(" d="M488 735q0 -7 -8 -18q-207 -289 -207 -633q0 -139 41 -253q3 -6 3 -13q0 -13 -14 -13h-120q-26 0 -32 14q-70 146 -70 294q0 172 55.5 332.5t165.5 283.5q13 14 36 14h140q10 0 10 -8z"/>
<glyph glyph-name="parenright" horiz-adv-x="389" unicode=")" d="M405 428q0 -170 -54.5 -329.5t-161.5 -279.5q-11 -12 -16 -13q-4 -1 -9 -1h-157q-11 0 -11 9q0 6 7 17q109 152 160 302.5t51 329.5q0 140 -41 254q-2 8 -2 12q0 14 14 14h121q19 0 27 -14q72 -135 72 -301z"/>
<glyph glyph-name="asterisk" horiz-adv-x="485" unicode="*" d="M556 561q0 -12 -16 -17l-111 -32l70 -94q6 -8 6 -15q0 -8 -7 -12l-63 -46q-5 -3 -10 -3q-9 0 -16 10l-66 97l-66 -97q-7 -10 -16 -10q-5 0 -10 3l-64 46q-7 4 -7 12q0 7 6 15l70 94l-110 32q-17 6 -17 17q0 3 1 5l25 76q3 10 13 10q3 0 11 -2l111 -37l-3 115v1 q0 20 16 20h80q15 0 15 -21l-1 -115l109 37q8 2 11 2q10 0 13 -10l25 -76q1 -2 1 -5z"/>
<glyph glyph-name="plus" horiz-adv-x="666" unicode="+" d="M646 336q0 -16 -20 -16h-156v-155q0 -20 -16 -20h-110q-16 0 -16 20v155h-155q-20 0 -20 16v110q0 16 20 16h155v156q0 20 16 20h110q16 0 16 -20v-156h156q20 0 20 -16v-110z"/>
<glyph glyph-name="comma" horiz-adv-x="291" unicode="," d="M295 168q0 -4 -3 -9l-146 -238q-13 -20 -26 -20h-104q-16 0 -16 14q0 4 1 6l109 238q9 20 25 20h147q13 0 13 -11z"/>
<glyph glyph-name="hyphen" horiz-adv-x="282" unicode="-" d="M320 355v-3l-18 -102q-3 -19 -23 -19h-193q-17 0 -17 16v3l18 102q3 19 23 19h193q17 0 17 -16z"/>
<glyph glyph-name="period" horiz-adv-x="291" unicode="." d="M267 162v-3l-24 -139q-1 -8 -9 -14t-16 -6h-145q-17 0 -17 17v3l24 139q1 8 9 14t16 6h145q17 0 17 -17z"/>
<glyph glyph-name="slash" horiz-adv-x="425" unicode="/" d="M541 730q0 -1 -2 -7l-328 -701q-10 -22 -24 -22h-158q-15 0 -15 14q0 2 2 8l329 701q9 20 23 20h158q15 0 15 -13z"/>
<glyph glyph-name="zero" horiz-adv-x="666" unicode="0" d="M488 509q0 42 -14 57t-42 15q-37 0 -61 -32t-41 -129l-17 -97q-10 -54 -10 -90q0 -41 13.5 -56t42.5 -15q27 0 43 10t31.5 46t27.5 105l17 97q10 54 10 89zM691 516q0 -45 -9 -96l-17 -97q-31 -181 -111.5 -256.5t-225.5 -75.5q-110 0 -169 61t-59 176q0 44 9 95l17 97 q32 182 114.5 257.5t222.5 75.5q111 0 169.5 -61t58.5 -176z"/>
<glyph glyph-name="one" horiz-adv-x="666" unicode="1" d="M146 171h120l65 370l-125 -42q-8 -3 -12 -3q-10 0 -8 12l25 142q3 12 15 17l185 72q9 4 24 4h115q18 0 15 -19l-97 -553h119q8 0 13 -6t3 -14l-23 -131q-4 -20 -23 -20h-441q-8 0 -13 6t-4 14l23 131q4 20 24 20z"/>
<glyph glyph-name="two" horiz-adv-x="666" unicode="2" d="M697 588q0 -137 -140 -220l-91 -54q-70 -42 -110 -72t-50 -43.5t-13 -27.5h302q17 0 17 -17v-3l-23 -131q-4 -20 -24 -20h-466q-16 0 -16 16v4l18 106q28 160 163 250l97 64q89 59 110.5 77.5t21.5 42.5q0 32 -87 32q-46 0 -197 -12h-2q-14 0 -14 16v4l17 97q2 12 22 19 q111 37 227 37q120 0 179 -46t59 -119z"/>
<glyph glyph-name="three" horiz-adv-x="666" unicode="3" d="M695 589q0 -148 -125 -210q30 -17 49.5 -48.5t19.5 -71.5q0 -138 -87 -203t-228 -65q-60 0 -122 10t-96 24q-16 6 -16 17v3l17 98q3 19 22 19h2q153 -10 206 -10q55 0 78 24.5t23 79.5q0 23 -15 35t-53 12h-166q-16 0 -16 16v4l19 107q3 19 23 19h166q48 0 72 28.5 t24 77.5q0 21 -16 28.5t-54 7.5q-70 0 -213 -11h-2q-15 0 -15 15v4l17 98q2 12 24 20q100 36 218 36q109 0 176.5 -41t67.5 -123z"/>
<glyph glyph-name="four" horiz-adv-x="666" unicode="4" d="M441 498q0 4 -1 4h-1l-172 -184q-4 -4 -4 -8q0 -1 1 -1h144l33 187v2zM678 292v-3l-20 -114q-4 -20 -24 -20h-58l-23 -135q-4 -20 -24 -20h-164q-15 0 -15 16v4l23 135h-279q-16 0 -16 16v4l20 113q3 17 16 30l397 416q9 9 26 9h123q16 0 16 -16v-4l-73 -414h58 q17 0 17 -17z"/>
<glyph glyph-name="five" horiz-adv-x="666" unicode="5" d="M711 727v-3l-22 -124q-1 -8 -8.5 -13.5t-15.5 -5.5h-272l-29 -110h41q243 0 243 -192q0 -11 -2 -33l-1 -10q-24 -245 -328 -245q-110 0 -196 33q-17 6 -17 18v3l17 99q1 8 8 13.5t15 5.5h2q101 -11 165 -11q72 0 97 17.5t30 66.5l1 10q1 7 1 18q0 31 -19.5 42t-74.5 11 h-175q-15 0 -15 14q0 1 0.5 2t0.5 2l100 389q6 19 23 19h414q17 0 17 -16z"/>
<glyph glyph-name="six" horiz-adv-x="666" unicode="6" d="M466 290q0 30 -16.5 41.5t-50.5 11.5q-37 0 -71 -6l-11 -67q-6 -39 -6 -60q0 -39 14 -53.5t44 -14.5q36 0 59 24.5t30.5 55.5t7.5 68zM705 708l-1 -2v-3l-19 -105q-3 -21 -21 -21h-5q-92 14 -177 14q-63 0 -90 -23t-39 -92l-1 -6q50 10 98 10q100 0 157.5 -46.5 t57.5 -130.5q0 -148 -85 -230t-234 -82q-107 0 -170 59.5t-63 159.5q0 27 5 60l33 190q28 160 111.5 226.5t219.5 66.5q112 0 204 -26q19 -5 19 -19z"/>
<glyph glyph-name="seven" horiz-adv-x="666" unicode="7" d="M719 721v-4l-16 -92q-2 -12 -22 -45l-344 -560q-12 -20 -27 -20h-178q-17 0 -17 13q0 5 3 9l353 554v1q0 5 -8 5h-241q-17 0 -17 16v3l21 123q1 8 8.5 13.5t15.5 5.5h447q22 0 22 -22z"/>
<glyph glyph-name="eight" horiz-adv-x="666" unicode="8" d="M460 258q0 24 -15 40t-47 16h-22q-91 0 -91 -117q0 -58 66 -58h15q49 0 71.5 34t22.5 85zM511 550q0 55 -68 55h-10q-47 0 -71 -27.5t-24 -74.5q0 -51 63 -51h22q43 0 65.5 26.5t22.5 71.5zM707 581q0 -128 -107 -196q23 -20 38.5 -57.5t15.5 -74.5q0 -130 -89.5 -196 t-225.5 -66h-15q-111 0 -174.5 53.5t-63.5 132.5q0 62 31 117.5t83 90.5q-53 53 -53 119q0 69 24.5 118.5t69 77.5t98.5 40.5t120 12.5h12q110 0 173 -47t63 -125z"/>
<glyph glyph-name="nine" horiz-adv-x="666" unicode="9" d="M496 534q0 39 -14 53.5t-44 14.5q-36 0 -59 -24.5t-30.5 -55.5t-7.5 -68q0 -30 16.5 -41.5t50.5 -11.5q37 0 71 6l11 67q6 39 6 60zM694 534q0 -27 -5 -60l-33 -190q-28 -160 -111.5 -226.5t-219.5 -66.5q-112 0 -204 26q-19 5 -19 19v2q1 2 1 3l19 105q3 21 21 21h5 q92 -14 177 -14q63 0 90 23t39 92l1 6q-50 -10 -98 -10q-100 0 -157.5 46.5t-57.5 130.5q0 148 85 230t234 82q107 0 170 -59.5t63 -159.5z"/>
<glyph glyph-name="colon" horiz-adv-x="290" unicode=":" d="M267 162v-3l-24 -139q-1 -8 -9 -14t-16 -6h-145q-17 0 -17 17v3l24 139q1 8 9 14t16 6h145q17 0 17 -17zM332 533v-3l-24 -139q-1 -8 -9 -14t-16 -6h-145q-17 0 -17 17v3l24 139q1 8 9 14t16 6h145q17 0 17 -17z"/>
<glyph glyph-name="semicolon" horiz-adv-x="290" unicode=";" d="M265 166q0 -4 -3 -8l-145 -238q-11 -20 -24 -20h-108q-16 0 -16 13q0 3 2 7l109 238q9 20 24 20h147q14 0 14 -12zM332 533v-3l-24 -139q-1 -8 -9 -14t-16 -6h-146q-16 0 -16 16v4l24 139q4 20 24 20h146q17 0 17 -17z"/>
<glyph glyph-name="less" horiz-adv-x="666" unicode="&lt;" d="M608 148q0 -12 -12 -12h-168q-16 0 -26 10l-234 213q-18 16 -18 32q0 18 18 33l234 212q13 11 26 11h168q12 0 12 -12q0 -6 -6 -12l-257 -232l257 -231q6 -6 6 -12z"/>
<glyph glyph-name="equal" horiz-adv-x="666" unicode="=" d="M640 201q0 -16 -20 -16h-432q-20 0 -20 16v110q0 16 20 16h432q20 0 20 -16v-110zM640 471q0 -16 -20 -16h-432q-20 0 -20 16v110q0 16 20 16h432q20 0 20 -16v-110z"/>
<glyph glyph-name="greater" horiz-adv-x="666" unicode="&gt;" d="M644 391q0 -16 -18 -32l-234 -213q-10 -10 -26 -10h-168q-12 0 -12 12q0 6 6 12l258 231l-258 232q-6 6 -6 12q0 12 12 12h168q13 0 26 -11l234 -212q18 -15 18 -33z"/>
<glyph glyph-name="question" horiz-adv-x="492" unicode="?" d="M316 162v-3l-24 -139q-1 -8 -9 -14t-16 -6h-146q-16 0 -16 16v4l24 139q4 20 24 20h146q17 0 17 -17zM564 644q0 -91 -77 -180l-133 -153q-23 -27 -30 -51q-4 -14 -15 -14h-139q-4 0 -7.5 4t-3.5 8v1l6 35q10 61 49 113l105 138q17 23 17 38q0 19 -41 19t-133 -11h-3 q-13 0 -13 15v5l20 117q3 17 23 23q77 25 168 25q97 0 152 -34t55 -98z"/>
<glyph glyph-name="at" horiz-adv-x="778" unicode="@" d="M474 383q-28 4 -35 4q-34 0 -49 -14t-23 -54l-23 -110q0 -3 -0.5 -8t-1.5 -8q0 -1 -0.5 -4t-0.5 -5q0 -20 13 -27t45 -7q5 0 15 0.5t14 0.5zM789 395q0 -13 -2 -37q-18 -165 -128.5 -240.5t-280.5 -75.5q-75 0 -121 32t-46 97q0 12 1 19l3 18l21 115q32 173 225 173 q65 0 134 -16q24 -5 24 -26q0 -5 -1 -8l-59 -293q57 11 93.5 66.5t44.5 138.5q2 20 2 30q0 86 -53 142t-160 56q-263 0 -311 -242l-33 -165q-4 -24 -5 -35q-2 -20 -2 -30q0 -79 54.5 -118.5t174.5 -39.5q60 0 154 8h2q7 0 7 -8v-3l-5 -45q-2 -11 -11 -12q-97 -11 -154 -11 q-142 0 -228 57.5t-86 170.5q0 9 2 31q2 17 5 35l35 171q30 149 136.5 232t273.5 83q144 0 219 -77t75 -193z"/>
<glyph glyph-name="A" horiz-adv-x="692" unicode="A" d="M466 318l-4 254q0 14 -9 14q-6 0 -8 -3t-5 -11l-94 -254h120zM676 20q0 -8 -5.5 -14t-13.5 -6h-170q-7 0 -12 5.5t-5 13.5l-3 139h-178l-53 -139q-8 -19 -23 -19h-177q-14 0 -14 13q0 2 2 8l242 612q27 69 80 94t133 25q81 0 124.5 -25t46.5 -94l26 -612v-1z"/>
<glyph glyph-name="B" horiz-adv-x="682" unicode="B" d="M487 255q0 54 -78 54h-97l-26 -153h82q100 0 115 72l2 9q2 12 2 18zM532 536q0 26 -20.5 39t-70.5 13q-4 0 -40 -0.5t-39 -0.5l-26 -142h97q89 0 96 63l2 16q1 4 1 12zM734 581q0 -22 -4 -42l-3 -17q-9 -51 -39 -88t-63 -54q21 -14 39 -46.5t18 -73.5q0 -7 -2 -25l-2 -13 q-11 -69 -41 -115.5t-80 -71t-107.5 -34.5t-135.5 -10q-123 0 -192 12q-29 6 -41 16t-12 33q0 12 3 27l103 587q7 39 23 54.5t53 20.5q74 12 194 12q289 0 289 -172z"/>
<glyph glyph-name="C" horiz-adv-x="555" unicode="C" d="M643 717v-5l-23 -128q-3 -19 -21 -19h-3q-90 9 -139 9q-48 0 -80.5 -30.5t-48.5 -120.5l-19 -103q-6 -36 -6 -61q0 -52 22.5 -71t60.5 -19q49 0 141 9h3q15 0 15 -14v-5l-23 -128q-2 -15 -25 -22q-56 -18 -142 -18q-116 0 -188 64t-72 184q0 35 8 81l19 103 q33 181 123.5 255.5t240.5 74.5q85 0 138 -19q19 -7 19 -17z"/>
<glyph glyph-name="D" horiz-adv-x="697" unicode="D" d="M527 489q0 51 -24 70.5t-75 19.5q-7 0 -30.5 -0.5t-26.5 -0.5l-73 -413q7 -1 57 -1q63 0 97.5 33t49.5 120l19 110q6 36 6 62zM733 503q0 -38 -7 -76l-19 -110q-30 -170 -123.5 -248t-259.5 -78q-132 0 -226 17q-26 5 -26 27q0 7 1 12l115 650q4 19 12.5 27.5t26.5 11.5 q100 17 232 17q128 0 201 -65t73 -185z"/>
<glyph glyph-name="E" horiz-adv-x="586" unicode="E" d="M659 725v-4l-21 -122q-4 -20 -24 -20h-202q-27 0 -39.5 -11t-17.5 -39l-13 -73h246q17 0 17 -17v-3l-21 -118q-4 -20 -23 -20h-246l-15 -83q-2 -16 -2 -20q0 -17 9.5 -23.5t31.5 -6.5h202q17 0 17 -17v-3l-22 -122q-3 -17 -23 -20q-94 -12 -197 -12q-98 0 -161 41 t-63 132q0 21 5 51l55 314q10 59 31 101t47 65.5t64 36.5t72 17t82 4q106 0 195 -12q16 -1 16 -16z"/>
<glyph glyph-name="F" horiz-adv-x="591" unicode="F" d="M665 724v-4l-22 -122q-4 -20 -23 -20h-202q-27 0 -39.5 -11t-17.5 -39l-13 -72h246q17 0 17 -17v-3l-21 -118q-4 -20 -23 -20h-246l-49 -278q-4 -20 -24 -20h-163q-16 0 -16 16v4l89 508q10 59 32 101t48 66t64.5 37.5t72 17t79.5 3.5q98 0 194 -13q17 -2 17 -16z"/>
<glyph glyph-name="G" horiz-adv-x="657" unicode="G" d="M725 712l-1 -2v-3l-23 -126q-3 -16 -16 -16h-3q-171 9 -192 9q-77 0 -112.5 -31t-51.5 -119l-19 -106q-6 -37 -6 -63q0 -52 20.5 -71t54.5 -19q30 0 56 3l36 205q4 20 22 20h158q17 0 17 -17v-3l-59 -335q-2 -11 -7 -16t-18 -7q-120 -24 -236 -24q-45 0 -87 13.5 t-80 41.5t-61 78t-23 116q0 40 7 79l19 105q15 84 45.5 145.5t66 96t83 55t88.5 26.5t91 6q118 0 214 -27q17 -5 17 -14z"/>
<glyph glyph-name="H" horiz-adv-x="746" unicode="H" d="M809 727v-3l-124 -704q-4 -20 -24 -20h-163q-16 0 -16 16v4l47 272h-209l-47 -272q-4 -20 -24 -20h-163q-17 0 -17 17v3l124 704q1 8 8.5 13.5t15.5 5.5h163q17 0 17 -16v-3l-45 -256h209l45 256q3 19 23 19h163q17 0 17 -16z"/>
<glyph glyph-name="I" horiz-adv-x="334" unicode="I" d="M380 743q20 0 17 -19l-124 -704q-4 -20 -24 -20h-164q-9 0 -13.5 6t-2.5 14l124 704q3 19 23 19h164z"/>
<glyph glyph-name="J" horiz-adv-x="334" unicode="J" d="M396 727v-4l-127 -721q-19 -109 -72 -151.5t-139 -42.5q-45 0 -90 7q-17 3 -17 14q0 1 0.5 3t0.5 3l19 109q4 20 24 20h37q16 0 23 9t10 29l127 721q1 8 9 14t16 6h163q16 0 16 -16z"/>
<glyph glyph-name="K" horiz-adv-x="713" unicode="K" d="M818 734q0 -6 -6 -13l-282 -348l154 -352q2 -4 2 -7q0 -14 -16 -14h-196q-12 0 -18 17l-127 327l-56 -324q-4 -20 -24 -20h-163q-17 0 -17 17v3l124 704q1 8 8.5 13.5t15.5 5.5h163q17 0 17 -16v-3l-55 -312l242 315q12 16 25 16h197q12 0 12 -9z"/>
<glyph glyph-name="L" horiz-adv-x="522" unicode="L" d="M525 148v-3l-22 -122q-3 -17 -23 -20q-65 -12 -158 -12q-45 0 -83 8t-71 27t-51.5 53.5t-18.5 83.5q0 20 5 52l89 508q1 8 9 14t16 6h163q16 0 16 -16v-4l-89 -508q-2 -14 -2 -19q0 -17 9.5 -24t31.5 -7h162q17 0 17 -17z"/>
<glyph glyph-name="M" horiz-adv-x="841" unicode="M" d="M901 713q0 -2 -0.5 -4t-0.5 -3l-122 -694q-2 -12 -19 -12h-164q-11 0 -11 15v5l64 367v4l1 2q0 4 -2 4q-1 0 -3 -2h-1q-2 0 -12 -13l-103 -133q-15 -19 -32 -19h-69q-17 0 -26 19l-58 137l-5 9h-1q-2 2 -3 2q-5 0 -6 -10l-64 -367q-4 -20 -18 -20h-165q-14 0 -14 9v3 l122 694q3 15 16 26t28 11h104q33 0 46 -30l100 -253q5 -12 9 -12t14 12l190 253q22 30 56 30h118q13 0 22 -8.5t9 -21.5z"/>
<glyph glyph-name="N" horiz-adv-x="746" unicode="N" d="M808 727v-4l-120 -686q-3 -15 -16 -26t-28 -11h-124q-26 0 -37 27l-148 335q-3 8 -9 8q-5 0 -6 -9l-60 -341q-4 -20 -24 -20h-150q-17 0 -17 17v3l120 686q3 15 16 26t28 11h122q21 0 35 -29l152 -345q4 -9 7 -9q6 0 7 9l62 354q4 20 24 20h150q16 0 16 -16z"/>
<glyph glyph-name="O" horiz-adv-x="707" unicode="O" d="M537 485q0 89 -82 89q-52 0 -82 -35.5t-45 -115.5l-19 -103q-7 -42 -7 -62q0 -88 82 -88q53 0 82.5 35t44.5 115l19 103q7 42 7 62zM744 507q0 -44 -8 -84l-19 -103q-32 -175 -125 -252t-240 -77q-112 0 -184.5 63.5t-72.5 184.5q0 35 8 81l19 103q61 330 365 330 q112 0 184.5 -61.5t72.5 -184.5z"/>
<glyph glyph-name="P" horiz-adv-x="678" unicode="P" d="M537 527q0 56 -96 56q-4 0 -36 -0.5t-35 -0.5l-30 -170q5 -1 70 -1q61 0 94 30t33 86zM744 555q0 -153 -95.5 -233t-254.5 -80q-3 0 -84 3l-39 -225q-4 -20 -24 -20h-160q-18 0 -18 15v2v1l116 656q7 35 21 48t48 18q84 13 214 13q54 0 102 -11.5t87.5 -34.5t63 -62 t23.5 -90z"/>
<glyph glyph-name="Q" horiz-adv-x="707" unicode="Q" d="M537 485q0 89 -82 89q-52 0 -82 -35.5t-45 -115.5l-19 -103q-7 -42 -7 -62q0 -88 82 -88q53 0 82.5 35t44.5 115l19 103q7 42 7 62zM744 507q0 -44 -8 -84l-19 -103q-50 -275 -267 -320l-3 -17q-1 -3 -1 -8q0 -11 16 -11h83q22 0 22 -14v-2l-18 -102q-3 -16 -28 -23 q-62 -15 -127 -15q-143 0 -143 125q0 19 5 49l4 22q-76 22 -120.5 81.5t-44.5 153.5q0 35 8 81l19 103q61 330 365 330q112 0 184.5 -61.5t72.5 -184.5z"/>
<glyph glyph-name="R" horiz-adv-x="708" unicode="R" d="M537 529q0 28 -21 40.5t-68 12.5q-44 0 -78 -2l-28 -159q11 -1 35 -1h38q61 0 91.5 25.5t30.5 83.5zM742 558q0 -90 -41.5 -159t-122.5 -101l97 -272q1 -2 1 -7q0 -19 -20 -19h-176q-10 0 -16 20l-84 244q-43 0 -65 2l-43 -246q-4 -20 -24 -20h-162q-17 0 -17 17v3 l115 654q6 35 20.5 48t48.5 18q89 13 210 13q127 0 203 -48t76 -147z"/>
<glyph glyph-name="S" horiz-adv-x="606" unicode="S" d="M671 712v-3l-22 -125q-3 -19 -21 -19h-2q-173 13 -225 13q-57 0 -57 -42q0 -10 9 -19t35 -24l122 -72q100 -58 100 -167q0 -68 -27 -119.5t-73.5 -82.5t-103.5 -46t-123 -15q-109 0 -197 26q-17 6 -17 17v3l21 123q4 20 23 20h2q154 -15 200 -15q73 0 73 59q0 19 -39 45 l-129 85q-42 27 -64 71.5t-22 93.5q0 65 24 112t67 73t94.5 37.5t114.5 11.5q57 0 124.5 -8t97.5 -17q15 -6 15 -16z"/>
<glyph glyph-name="T" horiz-adv-x="594" unicode="T" d="M698 727v-3l-23 -128q-1 -8 -8.5 -13.5t-15.5 -5.5h-149l-98 -557q-4 -20 -24 -20h-163q-16 0 -16 16v4l98 557h-152q-17 0 -17 16v3l23 128q3 19 23 19h504q18 0 18 -16z"/>
<glyph glyph-name="U" horiz-adv-x="731" unicode="U" d="M773 743q22 0 22 -18q0 -1 -0.5 -3t-0.5 -4l-76 -436q-29 -167 -112.5 -229t-241.5 -62q-45 0 -88.5 13.5t-82 41t-62 75t-23.5 108.5q0 29 6 63l76 431q4 20 25 20h162q17 0 17 -13q0 -4 -1 -7l-77 -441q-5 -30 -5 -48q0 -40 19.5 -56t63.5 -16q54 0 81.5 26.5 t39.5 93.5l77 441q4 20 24 20h157z"/>
<glyph glyph-name="V" horiz-adv-x="716" unicode="V" d="M813 732q0 -3 -2 -9l-241 -612q-27 -69 -80 -94.5t-134 -25.5t-124 25.5t-46 94.5l-27 612v1q0 8 6 13.5t14 5.5h169q18 0 18 -19l7 -553q0 -14 9 -14t14 14l203 553q8 19 23 19h178q13 0 13 -11z"/>
<glyph glyph-name="W" horiz-adv-x="917" unicode="W" d="M1026 734v-2q-1 -1 -1 -2l-202 -645q-26 -85 -114 -85h-73q-69 0 -78 77l-30 252q-1 9 -6 9q-6 0 -11 -9l-118 -252q-20 -43 -46 -60t-68 -17h-58q-91 0 -91 79v6l26 645q0 13 18 13h166q12 0 12 -17v-2l-28 -443v-6q0 -7 4 -7t11 13l93 202q20 43 67 43h105 q24 0 36 -9.5t15 -33.5l23 -202q2 -13 5 -13q7 0 10 13l128 443q5 19 18 19h172q15 0 15 -9z"/>
<glyph glyph-name="X" horiz-adv-x="736" unicode="X" d="M818 733q0 -5 -3 -9l-264 -354l149 -350q1 -2 1 -6q0 -14 -15 -14h-191q-15 0 -22 18l-76 178l-127 -176q-15 -20 -28 -20h-187q-11 0 -11 10q0 6 4 10l268 368l-142 336q-1 2 -1 5q0 14 15 14h192q13 0 21 -19l73 -170l118 170q13 19 27 19h188q11 0 11 -10z"/>
<glyph glyph-name="Y" horiz-adv-x="684" unicode="Y" d="M790 733q0 -5 -3 -11l-208 -345q-43 -70 -86 -86l-47 -271q-4 -20 -24 -20h-163q-15 0 -15 16v4l47 271q-39 17 -56 86l-86 345q0 1 -0.5 2.5t-0.5 2.5q0 6 5 11t12 5h177q13 0 17 -19l49 -265q2 -10 8 -10q7 0 12 10l143 265q9 19 23 19h185q11 0 11 -10z"/>
<glyph glyph-name="Z" d="M696 731v-4l-22 -126q-4 -23 -45 -73l-272 -334q-6 -8 -6 -12q0 -7 11 -7h226q17 0 17 -16v-3l-24 -136q-4 -20 -24 -20h-476q-22 0 -22 19q0 1 0.5 3.5t0.5 3.5l18 105q4 21 27 49l299 369q6 7 6 13t-10 6h-214q-16 0 -16 16v4l24 136q3 19 23 19h461q18 0 18 -12z" unicode="Z"/>
<glyph glyph-name="bracketleft" horiz-adv-x="394" unicode="[" d="M489 728v-3l-20 -113q-3 -18 -23 -18h-90l-113 -639h91q16 0 16 -15v-3l-20 -113q-3 -18 -22 -18h-268q-14 0 -14 15v4l159 899q4 19 20 19h267q17 0 17 -15z"/>
<glyph glyph-name="backslash" horiz-adv-x="425" unicode="\" d="M408 19q0 -8 -6 -13.5t-14 -5.5h-137q-8 0 -14 6.5t-7 14.5l-83 702v2q0 7 6 12.5t14 5.5h137q8 0 14.5 -6t7.5 -14l82 -702v-2z"/>
<glyph glyph-name="bracketright" horiz-adv-x="394" unicode="]" d="M465 728v-4l-159 -899q-4 -19 -20 -19h-268q-16 0 -16 15v3l20 113q3 18 22 18h91l113 639h-90q-17 0 -17 15v3l20 113q3 18 23 18h267q14 0 14 -15z"/>
<glyph glyph-name="asciicircum" horiz-adv-x="666" unicode="^" d="M683 576q0 -10 -12 -10h-159q-19 0 -32 14l-71 77l-71 -77q-14 -14 -32 -14h-158q-12 0 -12 10q0 5 5 12l109 147q8 11 14.5 14.5t21.5 3.5h246q23 0 36 -18l110 -147q5 -7 5 -12z"/>
<glyph glyph-name="underscore" horiz-adv-x="561" unicode="_" d="M584 -47v-3l-10 -58q-3 -16 -23 -16h-584q-17 0 -17 13v3l10 58q3 16 23 16h584q17 0 17 -13z"/>
<glyph glyph-name="grave" horiz-adv-x="472" unicode="`" d="M425 642q0 -9 -11 -9h-119q-13 0 -22 11l-105 120q-3 5 -3 7q0 8 12 8h148q16 0 26 -15l71 -114q3 -4 3 -8z"/>
<glyph glyph-name="a" horiz-adv-x="612" unicode="a" d="M443 428q-34 4 -60 4q-43 0 -64 -21.5t-31 -80.5l-19 -107q-2 -9 -2 -25q0 -46 46 -46q41 0 86 27zM655 542q0 -5 -1 -8l-90 -514q-4 -20 -21 -20h-125q-18 0 -18 17v3l4 31q-78 -60 -154 -60q-75 0 -124.5 52t-49.5 143q0 24 6 58l17 101q23 135 102 190.5t204 55.5 q92 0 219 -25q12 -2 17 -4t9.5 -7t4.5 -13z"/>
<glyph glyph-name="b" horiz-adv-x="616" unicode="b" d="M449 374q0 58 -58 58q-29 0 -69 -4l-48 -274q47 -5 67 -5q40 0 59.5 25.5t29.5 77.5l14 78q5 28 5 44zM641 385q0 -25 -5 -55l-14 -78q-24 -134 -98 -197.5t-211 -63.5q-105 0 -219 25q-18 4 -25 9t-7 15q0 5 1 8l125 705q4 20 24 20h150q18 0 18 -17v-3l-30 -169 q49 7 73 7q106 0 162 -58t56 -148z"/>
<glyph glyph-name="c" horiz-adv-x="475" unicode="c" d="M534 559v-5l-20 -113q-3 -19 -23 -19h-2q-1 0 -42.5 3.5t-70.5 3.5q-35 0 -55.5 -21t-30.5 -80l-13 -75q-4 -23 -4 -43q0 -32 13.5 -44.5t40.5 -12.5q11 0 116 6h2q16 0 16 -15v-4l-20 -112q-3 -16 -24 -21q-70 -16 -140 -16q-94 0 -145.5 57t-51.5 148q0 24 5 57l13 75 q45 263 285 263q72 0 134 -16q17 -5 17 -16z"/>
<glyph glyph-name="d" horiz-adv-x="616" unicode="d" d="M445 428q-40 4 -67 4q-72 0 -90 -102l-14 -78q-4 -19 -4 -39q0 -64 58 -64q37 0 69 5zM694 756v-3l-125 -705q-2 -15 -9.5 -21t-30.5 -11q-123 -25 -229 -25q-102 0 -162 58.5t-60 151.5q0 21 5 51l14 78q25 138 97 199.5t209 61.5q23 0 70 -7l30 169q4 20 23 20h149 q8 0 13.5 -5t5.5 -12z"/>
<glyph glyph-name="e" horiz-adv-x="602" unicode="e" d="M443 383q0 59 -61 59q-71 0 -92 -99h148q5 23 5 40zM623 376q0 -25 -5 -57l-10 -60q-1 -10 -8.5 -16t-16.5 -6h-311q-3 -18 -3 -31q0 -35 20 -46t62 -11q116 0 192 8h4q15 0 15 -13v-4l-16 -90q-4 -22 -25 -28q-99 -31 -219 -31q-90 0 -155.5 55.5t-65.5 155.5q0 27 4 51 l11 66q45 272 314 272q104 0 158.5 -60.5t54.5 -154.5z"/>
<glyph glyph-name="f" horiz-adv-x="409" unicode="f" d="M426 789q32 0 82 -10q18 -3 18 -13q0 -1 -0.5 -3t-0.5 -3l-16 -92q-3 -20 -24 -20h-40q-21 0 -29.5 -7.5t-13.5 -35.5l-4 -23h74q18 0 18 -13q0 -5 -1 -8l-18 -100q-3 -21 -24 -21h-74l-77 -436q-20 -111 -70 -147.5t-147 -36.5q-32 0 -82 10q-20 4 -17 19l16 92 q3 20 23 20h34q27 0 36 7t14 36l76 436l-66 10q-20 2 -17 24l15 87q3 21 25 21h68l4 23q19 110 70 147t148 37z"/>
<glyph glyph-name="g" horiz-adv-x="605" unicode="g" d="M444 427q-47 5 -71 5q-41 0 -60.5 -23t-29.5 -79l-10 -57q-4 -21 -4 -42q0 -61 58 -61q23 0 73 5zM651 538l-95 -536q-20 -114 -88 -160t-208 -46q-108 0 -190 30q-15 5 -15 22v6l15 82q1 6 1.5 7.5t2.5 5.5t5 5.5t8 1.5q1 0 3 -0.5t3 -0.5q86 -12 193 -12q43 0 60 12 t23 47l3 17q-35 -7 -73 -7q-106 0 -164 57.5t-58 149.5q0 24 5 54l10 57q25 142 102 201.5t207 59.5q137 0 220 -23q18 -5 24.5 -9t6.5 -13q0 -1 -0.5 -3.5t-0.5 -4.5z"/>
<glyph glyph-name="h" d="M647 418q0 -20 -5 -50l-61 -347q-4 -21 -24 -21h-151q-18 0 -18 14q0 1 0.5 3.5t0.5 3.5l57 322q6 32 6 48q0 23 -14 31.5t-49 8.5q-38 0 -66 -7l-71 -402q-4 -22 -24 -22h-151q-19 0 -19 17q0 1 0.5 2.5t0.5 2.5l129 731q4 20 23 20h153q18 0 18 -14q0 -1 -0.5 -3 t-0.5 -3l-32 -178q48 16 111 16q88 0 137.5 -46.5t49.5 -126.5z" unicode="h"/>
<glyph glyph-name="i" horiz-adv-x="313" unicode="i" d="M185 582h149q19 0 19 -15q0 -1 -0.5 -3t-0.5 -3l-95 -539q-4 -22 -26 -22h-149q-19 0 -19 16q0 1 0.5 3t0.5 3l95 539q4 21 26 21zM215 775h158q19 0 19 -14q0 -1 -0.5 -3t-0.5 -3l-17 -98q-4 -20 -26 -20h-158q-20 0 -20 14q0 1 0.5 3t0.5 3l17 98q4 20 27 20z"/>
<glyph glyph-name="j" horiz-adv-x="312" unicode="j" d="M185 582h149q19 0 19 -15q0 -1 -0.5 -3t-0.5 -3l-103 -582q-19 -106 -65.5 -145.5t-135.5 -39.5q-42 0 -93 9q-17 3 -17 15q0 1 0.5 3t0.5 3l16 93q4 20 25 20h43q17 0 23 9.5t10 32.5l103 582q4 21 26 21zM215 775h157q19 0 19 -15q0 -1 -0.5 -2.5t-0.5 -2.5l-17 -98 q-4 -20 -26 -20h-157q-19 0 -19 15q0 1 0.5 2.5t0.5 2.5l17 98q4 20 26 20z"/>
<glyph glyph-name="k" horiz-adv-x="627" unicode="k" d="M503 582h186q12 0 12 -10q0 -6 -5 -11l-228 -259l128 -280q4 -8 0 -15t-13 -7h-180q-17 0 -25 22l-87 228l-40 -228q-2 -8 -9 -15t-15 -7h-150q-19 0 -19 17q0 1 0.5 2.5t0.5 2.5l129 731q4 20 25 20h150q18 0 18 -14q0 -1 -0.5 -3t-0.5 -3l-72 -405l166 216q14 18 29 18 z"/>
<glyph glyph-name="l" horiz-adv-x="304" unicode="l" d="M364 773q20 0 17 -20l-129 -731q-4 -22 -24 -22h-151q-19 0 -19 16q0 1 0.5 3t0.5 3l129 731q4 20 25 20h151z"/>
<glyph glyph-name="m" horiz-adv-x="902" unicode="m" d="M917 427q0 -26 -11 -90l-55 -315q-2 -9 -9 -15.5t-16 -6.5h-150q-17 0 -17 18v4l60 341q3 17 3 29q0 17 -9 25.5t-33 8.5q-30 0 -63 -11q-1 -22 -6 -52l-60 -341q-2 -9 -8.5 -15.5t-15.5 -6.5h-151q-17 0 -17 18v4l60 341q4 20 4 30q0 33 -36 33q-27 0 -67 -18l-68 -386 q-2 -9 -8.5 -15.5t-15.5 -6.5h-151q-18 0 -18 19v3l96 540q4 20 23 20h135q17 0 17 -17v-3l-3 -27q54 56 148 56q73 0 114 -53q43 30 75 41.5t73 11.5q84 0 132 -47.5t48 -116.5z"/>
<glyph glyph-name="n" d="M646 421q0 -31 -10 -87l-55 -312q-2 -9 -9 -15.5t-16 -6.5h-150q-18 0 -18 16q0 1 0.5 3t0.5 3l56 319q7 40 7 51q0 23 -10.5 31t-36.5 8q-45 0 -85 -22l-68 -387q-4 -22 -27 -22h-143q-11 0 -17.5 6t-5.5 16l96 540q4 20 23 20h137q18 0 18 -14q0 -1 -0.5 -3t-0.5 -3 l-5 -26q84 55 162 55q82 0 119.5 -42t37.5 -128z" unicode="n"/>
<glyph glyph-name="o" horiz-adv-x="605" unicode="o" d="M435 371q0 32 -13 45.5t-43 13.5q-38 0 -60 -25.5t-32 -84.5l-10 -58q-5 -33 -5 -50q0 -34 14 -47.5t44 -13.5q38 0 58.5 24t31.5 87l10 58q5 33 5 51zM626 380q0 -30 -5 -60l-10 -58q-24 -143 -100.5 -207t-209.5 -64q-106 0 -163 56.5t-57 153.5q0 35 5 61l10 58 q25 144 103 207.5t208 63.5q103 0 161 -57t58 -154z"/>
<glyph glyph-name="p" horiz-adv-x="616" unicode="p" d="M449 375q0 28 -14 42.5t-48 14.5q-40 0 -65 -4l-48 -275q40 -4 67 -4q71 0 89 103l14 78q5 28 5 45zM642 391q0 -28 -6 -61l-14 -78q-24 -132 -97 -196.5t-209 -64.5q-37 0 -70 5l-29 -167q-4 -21 -24 -21h-150q-19 0 -19 16q0 1 0.5 2.5t0.5 2.5l124 705q2 13 11 20.5 t31 13.5q92 23 187 23q55 0 100 -10t83 -31.5t59.5 -62t21.5 -96.5z"/>
<glyph glyph-name="q" horiz-adv-x="616" unicode="q" d="M445 428q-38 4 -67 4q-71 0 -90 -102l-14 -78q-4 -28 -4 -38q0 -65 58 -65q19 0 69 5zM626 566q30 -7 30 -24q0 -1 -0.5 -3.5t-0.5 -4.5l-124 -705q-4 -21 -23 -21h-149q-20 0 -20 16q0 1 0.5 2.5t0.5 2.5l29 168q-42 -6 -63 -6q-101 0 -164.5 52t-63.5 151q0 32 5 58 l14 78q25 139 101 200t208 61q106 0 220 -25z"/>
<glyph glyph-name="r" horiz-adv-x="417" unicode="r" d="M438 433q-73 0 -119 -23l-68 -388q-4 -22 -24 -22h-150q-19 0 -19 17q0 1 0.5 2.5t0.5 2.5l95 540q4 20 24 20h140q18 0 16 -20l-3 -24q52 52 135 52h11q18 0 18 -14q0 -1 -0.5 -3t-0.5 -3l-21 -117q-4 -20 -21 -20h-14z"/>
<glyph glyph-name="s" horiz-adv-x="516" unicode="s" d="M559 544l-19 -106q-4 -20 -19 -20h-4q-116 16 -169 16q-41 0 -41 -19q0 -10 6.5 -16.5t29.5 -20.5l63 -37q60 -36 82.5 -72.5t22.5 -80.5q0 -70 -37.5 -115.5t-93.5 -63.5t-130 -18q-107 0 -186 24q-18 6 -15 22l18 103q3 22 21 22q1 0 3 -0.5t4 -0.5q116 -16 170 -16 q52 0 52 34q0 14 -24 28l-81 48q-100 59 -100 149q0 187 249 187q95 0 182 -25q18 -6 16 -22z"/>
<glyph glyph-name="t" horiz-adv-x="432" unicode="t" d="M406 582h72q21 0 21 -14q0 -1 -0.5 -3t-0.5 -3l-18 -102q-4 -20 -23 -20h-76l-48 -269q-3 -13 -3 -21q0 -17 24 -17h46q21 0 18 -19l-16 -94q-3 -16 -25 -20q-72 -9 -91 -9q-149 0 -149 130q0 20 5 52l47 267l-64 15q-18 5 -18 16q0 1 0.5 3t0.5 3l15 84q4 21 25 21h66 l14 81q3 17 25 21l153 26h4q18 0 15 -19z"/>
<glyph glyph-name="u" d="M510 582h143q23 0 23 -17v-5l-96 -540q-4 -20 -23 -20h-137q-18 0 -18 15q0 1 0.5 2.5t0.5 2.5l5 26q-84 -55 -160 -55q-82 0 -119.5 48t-37.5 129q0 35 8 80l55 312q4 22 25 22h150q18 0 18 -15q0 -1 -0.5 -3.5t-0.5 -3.5l-56 -319q-7 -35 -7 -50q0 -25 10.5 -32.5 t36.5 -7.5q45 0 85 22l68 387q4 22 27 22z" unicode="u"/>
<glyph glyph-name="v" horiz-adv-x="620" unicode="v" d="M702 568q0 -2 -2 -8l-206 -454q-33 -71 -76 -93t-105 -22q-30 0 -51 3.5t-43.5 14.5t-36 35t-17.5 62l-45 454v2q0 8 6 14t14 6h161q18 0 18 -21l11 -365q0 -18 8 -18q11 0 17 18l139 365q7 21 26 21h167q15 0 15 -14z"/>
<glyph glyph-name="w" horiz-adv-x="871" unicode="w" d="M946 570q0 -4 -1 -6l-171 -475q-32 -89 -101 -89h-75q-34 0 -58 23t-28 63l-22 183q-1 7 -5 7q-6 0 -9 -7l-86 -183q-40 -86 -100 -86h-77q-37 0 -59.5 21.5t-23.5 67.5l-5 475q0 7 6 12.5t13 5.5h157q14 0 14 -16v-1l-10 -343q0 -8 5 -8q6 0 10 8l94 205q19 41 64 41h80 q26 0 35.5 -10t12.5 -31l22 -205q1 -8 7 -8q5 0 8 8l112 343q6 17 20 17h159q12 0 12 -12z"/>
<glyph glyph-name="x" horiz-adv-x="647" unicode="x" d="M698 571q0 -6 -4 -10l-213 -274l132 -265q2 -6 2 -8q0 -14 -15 -14h-172q-12 0 -23 22l-70 141l-108 -142q-16 -21 -29 -21h-151q-10 0 -10 11q0 6 4 10l223 287l-125 253q-2 6 -2 8q0 13 14 13h169q14 0 25 -21l63 -128l96 128q15 21 29 21h155q10 0 10 -11z"/>
<glyph glyph-name="y" horiz-adv-x="623" unicode="y" d="M705 567q0 -3 -2 -7l-275 -594q-40 -88 -96 -128.5t-167 -40.5q-85 0 -132 18q-19 8 -19 16v3l17 97q2 8 9.5 14.5t16.5 6.5h1q4 0 58 -4t77 -4q45 0 61 38l14 33h-13q-36 0 -55.5 16t-23.5 53l-58 476v3q0 19 25 19h161q14 0 16 -20l18 -344q1 -17 8 -17h8l143 362 q7 19 25 19h165q7 0 12.5 -4.5t5.5 -10.5z"/>
<glyph glyph-name="z" horiz-adv-x="541" unicode="z" d="M591 560v-5l-16 -91q-4 -22 -25 -46l-216 -247q-5 -7 -5 -10q0 -5 8 -5h168q15 0 15 -13v-3l-21 -120q-4 -20 -24 -20h-401q-10 0 -16 6.5t-6 15.5v5l15 84q4 24 22 44l227 259q6 6 6 10q0 5 -8 5h-168q-14 0 -14 13v3l21 117q4 20 24 20h393q21 0 21 -22z"/>
<glyph glyph-name="braceleft" horiz-adv-x="417" unicode="{" d="M530 727v-3l-20 -113q-3 -18 -23 -18h-52q-24 0 -33.5 -11t-15.5 -44l-21 -116q-19 -109 -114 -150q66 -33 66 -111q0 -11 -4 -39l-21 -116q-3 -18 -3 -29q0 -14 7 -20t25 -6h52q17 0 17 -15v-3l-20 -113q-3 -18 -23 -18h-62q-109 0 -151.5 27t-42.5 97q0 39 8 80l21 116 q2 14 2 19q0 47 -41 75l20 112q60 34 71 94l21 116q21 119 73 161.5t185 42.5h62q17 0 17 -15z"/>
<glyph glyph-name="bar" horiz-adv-x="304" unicode="|" d="M317 -172q0 -8 -6.5 -15t-14.5 -7h-151q-8 0 -15 7t-7 15v895q0 8 7 14t15 6h151q8 0 14.5 -6t6.5 -14v-895z"/>
<glyph glyph-name="braceright" horiz-adv-x="417" unicode="}" d="M432 328l-20 -112q-60 -34 -71 -94l-21 -116q-21 -119 -73 -161.5t-185 -42.5h-62q-17 0 -17 15v3l20 113q3 18 23 18h52q24 0 33.5 11t15.5 44l21 116q19 109 114 150q-66 33 -66 111q0 11 4 39l21 116q3 18 3 29q0 14 -7 20t-25 6h-52q-17 0 -17 15v3l20 113 q3 18 23 18h62q109 0 151.5 -27t42.5 -97q0 -39 -8 -80l-21 -116q-2 -14 -2 -19q0 -47 41 -75z"/>
<glyph glyph-name="asciitilde" horiz-adv-x="666" unicode="~" d="M673 485q0 -86 -41.5 -124t-123.5 -38q-49 0 -94 27l-60 35q-25 14 -46 14q-25 0 -25 -29v-19q0 -21 -20 -21h-108q-22 0 -22 21v19q0 89 43 127.5t123 38.5q50 0 84 -20l70 -40q28 -16 47 -16q23 0 23 26v23q0 21 21 21h107q22 0 22 -21v-24z"/>
<glyph glyph-name="uni00A0" horiz-adv-x="240" unicode=" "/>
<glyph glyph-name="exclamdown" horiz-adv-x="291" unicode="¡" d="M276 323v-3l-62 -491q-1 -8 -9 -14t-16 -6h-156q-18 0 -18 16q0 3 1 4l112 491q4 21 24 21h106q8 0 13 -5.5t5 -12.5zM337 566v-4l-24 -139q-4 -20 -24 -20h-146q-17 0 -17 16q0 3 1 4l24 139q4 20 24 20h146q16 0 16 -16z"/>
<glyph glyph-name="cent" horiz-adv-x="666" unicode="¢" d="M628 559v-5l-20 -113q-1 -8 -8 -13.5t-15 -5.5h-2q-79 7 -113 7q-36 0 -55.5 -20.5t-30.5 -80.5l-13 -75q-5 -32 -5 -48q0 -30 13 -41t42 -11q46 0 116 6h2q16 0 16 -16v-3l-20 -112q-3 -16 -24 -21q-39 -9 -76 -13l-12 -67q-4 -20 -23 -20h-121q-17 0 -17 17v3l14 80 q-48 24 -75 73t-27 115q0 33 5 58l13 75q36 205 185 252l13 72q4 20 23 20h121q17 0 17 -17v-3l-11 -65q38 -4 71 -12q17 -5 17 -16z"/>
<glyph glyph-name="sterling" horiz-adv-x="666" unicode="£" d="M722 715q0 -4 -1 -7l-23 -128q-3 -18 -20 -18h-3q-110 11 -165 11q-43 0 -60.5 -13.5t-25.5 -56.5l-9 -50h152q17 0 17 -16v-3l-21 -119q-4 -20 -23 -20h-153l-13 -74q-5 -33 -27 -63h256q17 0 17 -16v-3l-21 -119q-4 -20 -24 -20h-457q-16 0 -16 18v4l16 90q2 13 14 25 q13 13 28 38t18 46l13 74h-49q-15 0 -15 16v4l21 119q3 19 23 19h48l8 48q23 141 94.5 193.5t219.5 52.5q77 0 164 -18q17 -4 17 -14z"/>
<glyph glyph-name="currency" horiz-adv-x="666" unicode="¤" d="M477 375q0 31 -21.5 53t-53.5 22t-54 -22t-22 -53q0 -32 22.5 -54.5t53.5 -22.5t53 22.5t22 54.5zM662 552q0 -8 -7 -15l-86 -86q19 -40 19 -80q0 -45 -21 -85l84 -85q7 -7 7 -15q0 -6 -5 -11l-65 -66q-5 -5 -11 -5q-8 0 -15 7l-87 87q-35 -16 -76 -16q-44 0 -81 19 l-86 -86q-8 -8 -16 -8q-5 0 -10 5l-65 66q-5 5 -5 12q0 8 7 15l86 85q-20 38 -20 81q0 39 17 76l-87 87q-7 7 -7 15q0 6 5 11l66 65q5 5 11 5q8 0 15 -7l84 -84q41 21 86 21q44 0 81 -19l85 86q7 7 15 7q6 0 11 -5l66 -66q5 -5 5 -11z"/>
<glyph glyph-name="yen" horiz-adv-x="666" unicode="¥" d="M787 732q0 -2 -4 -10l-146 -221h80q17 0 17 -16v-3l-15 -86q-3 -19 -23 -19h-141l-61 -95h185q16 0 16 -15v-4l-15 -86q-3 -19 -22 -19h-186l-24 -138q-4 -20 -21 -20h-168q-15 0 -15 16v4l24 138h-185q-17 0 -17 16v3l15 86q1 8 8.5 13.5t15.5 5.5h185l-27 95h-142 q-16 0 -16 15v4l15 86q3 19 23 19h81l-69 221q-1 2 -1 5q0 16 18 16h176q13 0 17 -18l57 -245l143 245q11 18 23 18h186q13 0 13 -11z"/>
<glyph glyph-name="brokenbar" horiz-adv-x="304" unicode="¦" d="M317 -189q0 -8 -6 -15t-14 -7h-152q-8 0 -15 7t-7 15v344q0 8 7 14t15 6h152q8 0 14 -6t6 -14v-344zM317 364q0 -8 -6 -15t-14 -7h-152q-8 0 -15 7t-7 15v344q0 8 7 14t15 6h152q8 0 14 -6t6 -14v-344z"/>
<glyph glyph-name="section" horiz-adv-x="607" unicode="§" d="M444 245q0 20 -10.5 33.5t-35.5 28.5l-84 51q-28 16 -44 34q-21 -35 -21 -63q0 -35 38 -59l85 -52q38 -22 53 -39q19 27 19 66zM672 711v-3l-22 -125q-4 -17 -19 -17h-1q-168 11 -228 11q-59 0 -59 -39q0 -10 9.5 -19.5t36.5 -25.5l122 -72q100 -58 100 -166 q0 -86 -58 -153q18 -31 18 -79q0 -239 -304 -239q-131 0 -219 26q-17 6 -17 17v3l22 125q3 19 23 19h2q165 -15 200 -15h2q75 0 75 57q0 20 -41 46l-128 80q-93 58 -93 162q0 44 15 89.5t43 73.5q-15 33 -15 80q0 62 23.5 104.5t66.5 63.5t90 29.5t107 8.5q58 0 130 -8 t102 -17q17 -6 17 -17z"/>
<glyph glyph-name="dieresis" horiz-adv-x="472" unicode="¨" d="M333 758v-3l-17 -98q-1 -8 -9.5 -14t-16.5 -6h-116q-8 0 -13.5 5t-5.5 12v3l17 98q1 8 9.5 14t17.5 6h116q18 0 18 -17zM567 758v-3l-17 -98q-1 -8 -9.5 -14t-17.5 -6h-116q-18 0 -18 17v3l17 98q1 8 9.5 14t16.5 6h116q8 0 13.5 -5t5.5 -12z"/>
<glyph glyph-name="copyright" horiz-adv-x="750" unicode="©" d="M546 183q0 -9 -13 -13q-36 -10 -78 -10q-177 0 -177 191v52q0 191 177 191q46 0 78 -10q13 -4 13 -12v-77q0 -11 -11 -11h-2q-40 5 -78 5q-57 0 -57 -86v-52q0 -51 15.5 -68.5t41.5 -17.5q38 0 78 5h2q11 0 11 -11v-76zM724 374q0 116 -83 199.5t-199 83.5t-198 -83 t-82 -200q0 -116 82 -198t198 -82t199 82t83 198zM780 374q0 -139 -99 -237t-239 -98t-237.5 97.5t-97.5 237.5t98 239.5t237 99.5t238.5 -99.5t99.5 -239.5z"/>
<glyph glyph-name="ordfeminine" horiz-adv-x="379" unicode="ª" d="M315 531h-21q-56 0 -56 -49q0 -24 39 -24q4 0 25 3zM454 641q0 -15 -3 -31l-37 -205q-2 -13 -9 -15q-70 -18 -143 -18q-68 0 -105.5 28t-37.5 73q0 40 15.5 66.5t45 38t57.5 15.5t68 4h21l2 13q1 5 1 13q0 14 -8 19.5t-26 5.5q-59 0 -106 -5h-2q-10 0 -10 11v3l11 62 q1 10 17 16q15 6 52 12t54 6q62 0 102.5 -27.5t40.5 -84.5z"/>
<glyph glyph-name="guillemotleft" horiz-adv-x="747" unicode="«" d="M477 512q0 -6 -7 -13l-215 -212l132 -205q3 -4 3 -9q0 -13 -14 -13h-130q-20 0 -27 11l-125 192q-14 22 -14 32q0 15 8 23l192 191q11 11 31 11h155q11 0 11 -8zM807 512q0 -6 -7 -13l-215 -212l132 -205q3 -4 3 -9q0 -13 -14 -13h-130q-20 0 -27 11l-125 192 q-14 22 -14 32q0 15 8 23l192 191q11 11 31 11h155q11 0 11 -8z"/>
<glyph glyph-name="logicalnot" horiz-adv-x="666" unicode="¬" d="M616 193q0 -20 -18 -20h-107q-17 0 -17 20v263h-310q-20 0 -20 16v109q0 16 20 16h432q20 0 20 -16v-388z"/>
<glyph glyph-name="uni00AD" horiz-adv-x="282" unicode="­" d="M320 355v-3l-18 -102q-3 -19 -23 -19h-193q-17 0 -17 16v3l18 102q3 19 23 19h193q17 0 17 -16z"/>
<glyph glyph-name="registered" horiz-adv-x="598" unicode="®" d="M428 541v9q0 33 -45 33h-39v-75h39q45 0 45 33zM530 330q0 -9 -9 -9h-82q-6 0 -10 8l-58 112h-24v-110q0 -10 -10 -10h-74q-10 0 -10 10v290q0 18 5.5 25t22.5 9q38 5 94 5q71 0 107 -25t36 -85v-9q0 -58 -55 -85l65 -120q2 -4 2 -6zM617 484q0 94 -67.5 161.5 t-162.5 67.5q-94 0 -161 -67t-67 -162t67 -162t161 -67q95 0 162.5 67.5t67.5 161.5zM671 484q0 -117 -83.5 -200t-200.5 -83t-200 82.5t-83 200.5q0 117 83 200t200 83t200.5 -83t83.5 -200z"/>
<glyph glyph-name="macron" horiz-adv-x="472" unicode="¯" d="M542 771q18 0 18 -13q0 -1 -0.5 -3t-0.5 -3l-16 -88q-4 -20 -23 -20h-339q-18 0 -18 14q0 1 0.5 3t0.5 3l16 88q3 19 23 19h339z"/>
<glyph glyph-name="degree" horiz-adv-x="368" unicode="°" d="M351 594q0 27 -19.5 47t-46.5 20t-46.5 -20t-19.5 -47t19.5 -46t46.5 -19t46.5 19t19.5 46zM443 594q0 -65 -46.5 -111.5t-111.5 -46.5t-112 46.5t-47 111.5t47 112t112 47t111.5 -47t46.5 -112z"/>
<glyph glyph-name="plusminus" horiz-adv-x="666" unicode="±" d="M594 -9q0 -16 -20 -16h-438q-20 0 -20 16v86q0 16 20 16h438q20 0 20 -16v-86zM594 336q0 -16 -20 -16h-149v-147q0 -20 -16 -20h-110q-16 0 -16 20v147h-147q-20 0 -20 16v110q0 16 20 16h147v149q0 20 16 20h110q16 0 16 -20v-149h149q20 0 20 -16v-110z"/>
<glyph glyph-name="twosuperior" horiz-adv-x="371" unicode="²" d="M348 957q131 0 131 -87q0 -82 -79 -128l-69 -41q-4 -2 -13 -7.5t-12.5 -7.5t-11 -6.5t-10.5 -7t-8 -6.5t-7.5 -7.5t-4.5 -8t-3 -8.5h159q15 0 13 -16l-13 -71q-2 -16 -18 -16h-253q-16 0 -14 16l10 57q16 87 92 138l62 41q52 34 57 41q3 5 3 13q0 15 -44 15q-4 0 -91 -6 q-1 0 -5 -0.5t-6 -0.5q-9 0 -13.5 3.5t-3.5 12.5l9 53q1 9 16 15q62 20 127 20z"/>
<glyph glyph-name="threesuperior" horiz-adv-x="365" unicode="³" d="M218 790h85q50 0 50 44q0 23 -43 23q-40 0 -103 -5h-1q-14 0 -12 14l11 58q1 9 16 14q63 18 119 18q133 0 133 -89q0 -41 -18.5 -74t-45.5 -46q34 -29 34 -72q0 -74 -47.5 -108t-124.5 -34q-35 0 -73 7t-53 15q-9 5 -8 12l10 56q3 14 17 14h1q60 -5 103 -5q32 0 44 9.5 t12 34.5q0 24 -37 24h-85q-6 0 -9.5 4.5t-2.5 10.5l10 60q4 15 18 15z"/>
<glyph glyph-name="acute" horiz-adv-x="472" unicode="´" d="M587 773q0 -5 -6 -9l-147 -120q-14 -11 -26 -11h-129q-8 0 -8 6q0 5 6 11l111 114q15 15 30 15h158q11 0 11 -6z"/>
<glyph glyph-name="mu" d="M579 20q-4 -20 -23 -20h-139q-8 0 -13 6t-4 14l4 23q-76 -50 -159 -52l-29 -163q-4 -20 -23 -20h-152q-21 0 -17 20l129 732q4 22 24 22h150q22 0 18 -22l-60 -339q-4 -28 -4 -34q0 -20 9.5 -28.5t32.5 -8.5q45 0 91 22l68 388q4 22 24 22h150q9 0 14.5 -6.5t3.5 -15.5z " unicode="µ"/>
<glyph glyph-name="paragraph" horiz-adv-x="674" unicode="¶" d="M750 730q0 -1 -0.5 -3t-0.5 -3l-159 -900q-4 -19 -20 -19h-52q-14 0 -14 15v4l147 834h-64l-147 -834q-4 -19 -20 -19h-52q-14 0 -14 15v4l72 410h-92q-95 0 -153.5 47t-58.5 131q0 24 4 45l11 63q18 105 98.5 164t188.5 59h312q14 0 14 -13z"/>
<glyph glyph-name="periodcentered" horiz-adv-x="291" unicode="·" d="M318 450v-3l-25 -139q-4 -20 -24 -20h-145q-18 0 -18 17v3l25 139q4 20 24 20h145q18 0 18 -17z"/>
<glyph glyph-name="cedilla" horiz-adv-x="451" unicode="¸" d="M345 -42q0 -4 -6 -9l-147 -120q-14 -11 -27 -11h-128q-8 0 -8 6q0 5 6 11l111 114q15 15 31 15h158q10 0 10 -6z"/>
<glyph glyph-name="onesuperior" horiz-adv-x="290" unicode="¹" d="M197 911l96 38q6 3 14 3h62q16 0 14 -16l-68 -381q-2 -16 -18 -16h-88q-16 0 -14 16l49 275l-55 -21q-6 -3 -12 -0.5t-5 10.5l14 78q1 9 11 14z"/>
<glyph glyph-name="ordmasculine" horiz-adv-x="404" unicode="º" d="M350 611q0 37 -33 37q-22 0 -35 -15.5t-20 -54.5l-6 -31q-3 -18 -3 -31q0 -39 34 -39q21 0 33.5 15.5t19.5 54.5l6 31q4 26 4 33zM476 619q0 -22 -4 -41l-6 -31q-18 -92 -65 -133t-132 -41q-65 0 -103.5 36t-38.5 98q0 21 4 40l6 31q19 99 66 137t133 38q63 0 101.5 -36 t38.5 -98z"/>
<glyph glyph-name="guillemotright" horiz-adv-x="747" unicode="»" d="M440 285q0 -15 -8 -23l-192 -191q-11 -11 -31 -11h-155q-11 0 -11 8q0 6 7 13l215 212l-132 205q-3 4 -3 9q0 13 14 13h130q20 0 27 -11l125 -192q14 -22 14 -32zM770 285q0 -15 -8 -23l-192 -191q-11 -11 -31 -11h-155q-11 0 -11 8q0 6 7 13l215 212l-132 205q-3 4 -3 9 q0 13 14 13h130q20 0 27 -11l125 -192q14 -22 14 -32z"/>
<glyph glyph-name="onequarter" horiz-adv-x="820" unicode="¼" d="M651 177l15 89l-82 -89h67zM795 100q-2 -16 -19 -16h-27l-12 -68q-2 -16 -17 -16h-89q-16 0 -14 16l12 68h-146q-15 0 -13 16l11 61q2 11 10 19l216 226q9 7 17 7h68q17 0 13 -16l-39 -220h27q16 0 13 -15zM816 736q0 -7 -5 -13l-541 -705q-13 -18 -25 -18h-123 q-10 0 -10 9q0 6 5 13l541 704q13 17 27 17h122q9 0 9 -7zM174 706l96 38q6 3 14 3h62q16 0 14 -16l-68 -381q-2 -16 -18 -16h-88q-16 0 -14 16l49 275l-55 -21q-6 -3 -12 -0.5t-5 10.5l14 78q1 9 11 14z"/>
<glyph glyph-name="onehalf" horiz-adv-x="896" unicode="½" d="M889 306q-10 -64 -77 -103l-69 -41q-4 -2 -13 -7.5t-12.5 -7.5t-11 -6.5t-10.5 -7t-8 -6.5t-7.5 -7.5t-4.5 -8t-3 -8.5h159q15 0 13 -16l-13 -71q-2 -16 -18 -16h-253q-16 0 -14 16l10 57q16 87 92 138l62 41q52 33 56 40q4 5 4 14q0 15 -44 15q-4 0 -91 -6q-1 0 -5 -0.5 t-6 -0.5q-9 0 -13.5 3.5t-3.5 12.5l9 53q1 9 16 15q62 20 127 20q132 0 132 -85q0 -13 -3 -27zM816 736q0 -7 -5 -13l-541 -705q-13 -18 -25 -18h-123q-10 0 -10 9q0 6 5 13l541 704q13 17 27 17h122q9 0 9 -7zM174 706l96 38q6 3 14 3h62q16 0 14 -16l-68 -381 q-2 -16 -18 -16h-88q-16 0 -14 16l49 275l-55 -21q-6 -3 -12 -0.5t-5 10.5l14 78q1 9 11 14z"/>
<glyph glyph-name="threequarters" horiz-adv-x="901" unicode="¾" d="M194 585h85q50 0 50 44q0 23 -43 23q-40 0 -103 -5h-1q-14 0 -12 14l11 58q1 9 16 14q63 18 119 18q133 0 133 -89q0 -41 -18.5 -74t-45.5 -46q34 -29 34 -72q0 -74 -47.5 -108t-124.5 -34q-35 0 -73 7t-53 15q-9 5 -8 12l10 56q3 14 17 14h1q60 -5 103 -5q32 0 44 9.5 t12 34.5q0 24 -37 24h-85q-6 0 -9.5 4.5t-2.5 10.5l10 60q4 15 18 15zM732 177l15 89l-82 -89h67zM876 100q-2 -16 -19 -16h-27l-12 -68q-2 -16 -17 -16h-89q-16 0 -14 16l12 68h-146q-15 0 -13 16l11 61q2 11 10 19l216 226q9 7 17 7h68q17 0 13 -16l-39 -220h27 q16 0 13 -15zM897 736q0 -7 -5 -13l-541 -705q-13 -18 -25 -18h-123q-10 0 -10 9q0 6 5 13l541 704q13 17 27 17h122q9 0 9 -7z"/>
<glyph glyph-name="questiondown" horiz-adv-x="492" unicode="¿" d="M453 -24v-5l-20 -117q-4 -17 -23 -23q-78 -25 -168 -25q-97 0 -152 34t-55 98q0 91 77 180l133 153q21 25 30 51q3 14 15 14h139q4 0 7.5 -4t3.5 -8v-1l-6 -35q-12 -64 -49 -113l-105 -138q-17 -23 -17 -38q0 -11 8.5 -15t32.5 -4q41 0 133 11h2q14 0 14 -15zM494 566v-4 l-24 -139q-4 -20 -24 -20h-146q-18 0 -18 17q0 2 1 3l24 139q1 8 9 14t16 6h146q16 0 16 -16z"/>
<glyph glyph-name="Agrave" horiz-adv-x="692" unicode="À" d="M613 804q0 -9 -11 -9h-119q-13 0 -22 11l-105 120q-3 5 -3 7q0 8 12 8h148q16 0 26 -15l71 -114q3 -4 3 -8zM466 318l-4 254q0 14 -9 14q-6 0 -8 -3t-5 -11l-94 -254h120zM676 20q0 -8 -5.5 -14t-13.5 -6h-170q-7 0 -12 5.5t-5 13.5l-3 139h-178l-53 -139q-8 -19 -23 -19 h-177q-14 0 -14 13q0 2 2 8l242 612q27 69 80 94t133 25q81 0 124.5 -25t46.5 -94l26 -612v-1z"/>
<glyph glyph-name="Aacute" horiz-adv-x="692" unicode="Á" d="M709 935q0 -5 -6 -9l-147 -120q-14 -11 -26 -11h-129q-8 0 -8 6q0 5 6 11l111 114q15 15 30 15h158q11 0 11 -6zM466 318l-4 254q0 14 -9 14q-6 0 -8 -3t-5 -11l-94 -254h120zM676 20q0 -8 -5.5 -14t-13.5 -6h-170q-7 0 -12 5.5t-5 13.5l-3 139h-178l-53 -139 q-8 -19 -23 -19h-177q-14 0 -14 13q0 2 2 8l242 612q27 69 80 94t133 25q81 0 124.5 -25t46.5 -94l26 -612v-1z"/>
<glyph glyph-name="Acircumflex" horiz-adv-x="692" unicode="Â" d="M695 804q0 -9 -10 -9h-120q-14 0 -22 11l-46 59l-66 -59q-12 -11 -26 -11h-128q-8 0 -8 6q0 5 6 11l106 114q15 15 30 15h190q17 0 26 -15l66 -114q2 -3 2 -8zM466 318l-4 254q0 14 -9 14q-6 0 -8 -3t-5 -11l-94 -254h120zM676 20q0 -8 -5.5 -14t-13.5 -6h-170 q-7 0 -12 5.5t-5 13.5l-3 139h-178l-53 -139q-8 -19 -23 -19h-177q-14 0 -14 13q0 2 2 8l242 612q27 69 80 94t133 25q81 0 124.5 -25t46.5 -94l26 -612v-1z"/>
<glyph glyph-name="Atilde" horiz-adv-x="692" unicode="Ã" d="M714 937v-4l-3 -18q-12 -69 -47 -98t-99 -29q-48 0 -79 21l-36 24q-22 15 -36 15q-19 0 -23 -20l-3 -17q-3 -17 -19 -17h-84q-14 0 -14 13v4l3 17q22 127 150 127q46 0 75 -20l37 -24q26 -16 36 -16q18 0 22 21l3 17q3 17 20 17h83q14 0 14 -13zM466 318l-4 254 q0 14 -9 14q-6 0 -8 -3t-5 -11l-94 -254h120zM676 20q0 -8 -5.5 -14t-13.5 -6h-170q-7 0 -12 5.5t-5 13.5l-3 139h-178l-53 -139q-8 -19 -23 -19h-177q-14 0 -14 13q0 2 2 8l242 612q27 69 80 94t133 25q81 0 124.5 -25t46.5 -94l26 -612v-1z"/>
<glyph glyph-name="Adieresis" horiz-adv-x="692" unicode="Ä" d="M485 919v-3l-17 -98q-1 -8 -9.5 -14t-16.5 -6h-116q-8 0 -13.5 5t-5.5 12v3l17 98q1 8 9.5 14t17.5 6h116q18 0 18 -17zM719 919v-3l-17 -98q-1 -8 -9.5 -14t-17.5 -6h-116q-18 0 -18 17v3l17 98q1 8 9.5 14t16.5 6h116q8 0 13.5 -5t5.5 -12zM466 318l-4 254q0 14 -9 14 q-6 0 -8 -3t-5 -11l-94 -254h120zM676 20q0 -8 -5.5 -14t-13.5 -6h-170q-7 0 -12 5.5t-5 13.5l-3 139h-178l-53 -139q-8 -19 -23 -19h-177q-14 0 -14 13q0 2 2 8l242 612q27 69 80 94t133 25q81 0 124.5 -25t46.5 -94l26 -612v-1z"/>
<glyph glyph-name="Aring" horiz-adv-x="692" unicode="Å" d="M539 904q0 16 -12.5 28.5t-28.5 12.5q-17 0 -28.5 -12t-11.5 -29t12 -30t28 -13t28.5 13t12.5 30zM619 903q0 -50 -36 -86t-86 -36t-84.5 35.5t-34.5 86.5t34.5 86.5t84.5 35.5t86 -36t36 -86zM466 318l-4 254q0 14 -9 14q-6 0 -8 -3t-5 -11l-94 -254h120zM676 20 q0 -8 -5.5 -14t-13.5 -6h-170q-7 0 -12 5.5t-5 13.5l-3 139h-178l-53 -139q-8 -19 -23 -19h-177q-14 0 -14 13q0 2 2 8l242 612q27 69 80 94t133 25q81 0 124.5 -25t46.5 -94l26 -612v-1z"/>
<glyph glyph-name="AE" horiz-adv-x="944" unicode="Æ" d="M541 576h-85q-12 0 -19 -18l-90 -240h148zM1017 728v-5l-22 -129q-4 -20 -24 -20h-228l-21 -118h224q17 0 17 -17v-3l-21 -118q-4 -20 -23 -20h-224l-15 -83q-2 -14 -2 -19q0 -31 42 -31h179q17 0 17 -17v-3l-22 -122q-3 -17 -23 -20q-94 -12 -178 -12q-48 0 -83 6 t-68 23t-50.5 51.5t-17.5 85.5h-184l-53 -138q-8 -19 -23 -19h-178q-14 0 -14 13q0 2 2 8l241 607q27 68 79 91.5t134 23.5h523q16 0 16 -15z"/>
<glyph glyph-name="Ccedilla" horiz-adv-x="555" unicode="Ç" d="M433 -42q0 -4 -6 -9l-147 -120q-14 -11 -27 -11h-128q-8 0 -8 6q0 5 6 11l111 114q15 15 31 15h158q10 0 10 -6zM643 717v-5l-23 -128q-3 -19 -21 -19h-3q-90 9 -139 9q-48 0 -80.5 -30.5t-48.5 -120.5l-19 -103q-6 -36 -6 -61q0 -52 22.5 -71t60.5 -19q49 0 141 9h3 q16 0 16 -14v-2q-1 -2 -1 -3l-23 -128q-2 -15 -25 -22q-56 -18 -142 -18q-116 0 -188 64t-72 184q0 35 8 81l19 103q33 181 123.5 255.5t240.5 74.5q85 0 138 -19q19 -7 19 -17z"/>
<glyph glyph-name="Egrave" horiz-adv-x="586" unicode="È" d="M546 804q0 -9 -11 -9h-119q-13 0 -22 11l-105 120q-3 5 -3 7q0 8 12 8h148q16 0 26 -15l71 -114q3 -4 3 -8zM659 725v-4l-21 -122q-4 -20 -24 -20h-202q-27 0 -39.5 -11t-17.5 -39l-13 -73h246q17 0 17 -17v-3l-21 -118q-4 -20 -23 -20h-246l-15 -83q-2 -16 -2 -20 q0 -17 9.5 -23.5t31.5 -6.5h202q17 0 17 -17v-3l-22 -122q-3 -17 -23 -20q-94 -12 -197 -12q-98 0 -161 41t-63 132q0 21 5 51l55 314q10 59 31 101t47 65.5t64 36.5t72 17t82 4q106 0 195 -12q16 -1 16 -16z"/>
<glyph glyph-name="Eacute" horiz-adv-x="586" unicode="É" d="M670 935q0 -5 -6 -9l-147 -120q-14 -11 -26 -11h-129q-8 0 -8 6q0 5 6 11l111 114q15 15 30 15h158q11 0 11 -6zM659 725v-4l-21 -122q-4 -20 -24 -20h-202q-27 0 -39.5 -11t-17.5 -39l-13 -73h246q17 0 17 -17v-3l-21 -118q-4 -20 -23 -20h-246l-15 -83q-2 -16 -2 -20 q0 -17 9.5 -23.5t31.5 -6.5h202q17 0 17 -17v-3l-22 -122q-3 -17 -23 -20q-94 -12 -197 -12q-98 0 -161 41t-63 132q0 21 5 51l55 314q10 59 31 101t47 65.5t64 36.5t72 17t82 4q106 0 195 -12q16 -1 16 -16z"/>
<glyph glyph-name="Ecircumflex" horiz-adv-x="586" unicode="Ê" d="M657 804q0 -9 -10 -9h-120q-14 0 -22 11l-46 59l-66 -59q-12 -11 -26 -11h-128q-8 0 -8 6q0 5 6 11l106 114q15 15 30 15h190q17 0 26 -15l66 -114q2 -3 2 -8zM659 725v-4l-21 -122q-4 -20 -24 -20h-202q-27 0 -39.5 -11t-17.5 -39l-13 -73h246q17 0 17 -17v-3l-21 -118 q-4 -20 -23 -20h-246l-15 -83q-2 -16 -2 -20q0 -17 9.5 -23.5t31.5 -6.5h202q17 0 17 -17v-3l-22 -122q-3 -17 -23 -20q-94 -12 -197 -12q-98 0 -161 41t-63 132q0 21 5 51l55 314q10 59 31 101t47 65.5t64 36.5t72 17t82 4q106 0 195 -12q16 -1 16 -16z"/>
<glyph glyph-name="Edieresis" horiz-adv-x="586" unicode="Ë" d="M421 919v-3l-17 -98q-1 -8 -9.5 -14t-16.5 -6h-116q-8 0 -13.5 5t-5.5 12v3l17 98q1 8 9.5 14t17.5 6h116q18 0 18 -17zM655 919v-3l-17 -98q-1 -8 -9.5 -14t-17.5 -6h-116q-18 0 -18 17v3l17 98q1 8 9.5 14t16.5 6h116q8 0 13.5 -5t5.5 -12zM659 725v-4l-21 -122 q-4 -20 -24 -20h-202q-27 0 -39.5 -11t-17.5 -39l-13 -73h246q17 0 17 -17v-3l-21 -118q-4 -20 -23 -20h-246l-15 -83q-2 -16 -2 -20q0 -17 9.5 -23.5t31.5 -6.5h202q17 0 17 -17v-3l-22 -122q-3 -17 -23 -20q-94 -12 -197 -12q-98 0 -161 41t-63 132q0 21 5 51l55 314 q10 59 31 101t47 65.5t64 36.5t72 17t82 4q106 0 195 -12q16 -1 16 -16z"/>
<glyph glyph-name="Igrave" horiz-adv-x="334" unicode="Ì" d="M419 804q0 -9 -11 -9h-119q-13 0 -22 11l-105 120q-3 5 -3 7q0 8 12 8h148q16 0 26 -15l71 -114q3 -4 3 -8zM397 727v-3l-124 -704q-4 -20 -24 -20h-164q-16 0 -16 16v4l124 704q3 19 23 19h164q17 0 17 -16z"/>
<glyph glyph-name="Iacute" horiz-adv-x="334" unicode="Í" d="M517 935q0 -5 -6 -9l-147 -120q-14 -11 -26 -11h-129q-8 0 -8 6q0 5 6 11l111 114q15 15 30 15h158q11 0 11 -6zM397 727v-3l-124 -704q-4 -20 -24 -20h-164q-16 0 -16 16v4l124 704q3 19 23 19h164q17 0 17 -16z"/>
<glyph glyph-name="Icircumflex" horiz-adv-x="334" unicode="Î" d="M521 804q0 -9 -10 -9h-120q-14 0 -22 11l-46 59l-66 -59q-12 -11 -26 -11h-128q-8 0 -8 6q0 5 6 11l106 114q15 15 30 15h190q17 0 26 -15l66 -114q2 -3 2 -8zM397 727v-3l-124 -704q-4 -20 -24 -20h-164q-16 0 -16 16v4l124 704q3 19 23 19h164q17 0 17 -16z"/>
<glyph glyph-name="Idieresis" horiz-adv-x="334" unicode="Ï" d="M291 919v-3l-17 -98q-1 -8 -9.5 -14t-16.5 -6h-116q-8 0 -13.5 5t-5.5 12v3l17 98q1 8 9.5 14t17.5 6h116q18 0 18 -17zM525 919v-3l-17 -98q-1 -8 -9.5 -14t-17.5 -6h-116q-18 0 -18 17v3l17 98q1 8 9.5 14t16.5 6h116q8 0 13.5 -5t5.5 -12zM397 727v-3l-124 -704 q-4 -20 -24 -20h-164q-16 0 -16 16v4l124 704q3 19 23 19h164q17 0 17 -16z"/>
<glyph glyph-name="Eth" horiz-adv-x="697" unicode="Ð" d="M527 489q0 51 -24 70.5t-75 19.5q-7 0 -30.5 -0.5t-26.5 -0.5l-22 -122h53q16 0 16 -15v-4l-21 -119q-4 -20 -22 -20h-53l-24 -133q7 -1 57 -1q63 0 97.5 33t49.5 120l19 110q6 36 6 62zM733 503q0 -38 -7 -76l-19 -110q-29 -170 -123 -248t-260 -78q-132 0 -226 17 q-26 5 -26 27q0 7 1 12l44 251h-50q-17 0 -17 17v3l21 119q3 19 23 19h51l43 241q6 33 39 39q100 17 232 17q128 0 201 -65t73 -185z"/>
<glyph glyph-name="Ntilde" horiz-adv-x="746" unicode="Ñ" d="M742 937v-4l-3 -18q-12 -69 -47 -98t-99 -29q-48 0 -79 21l-36 24q-22 15 -36 15q-19 0 -23 -20l-3 -17q-3 -17 -19 -17h-84q-17 0 -14 17l3 17q22 127 150 127q46 0 75 -20l37 -24q26 -16 36 -16q18 0 22 21l3 17q3 17 20 17h83q14 0 14 -13zM808 727v-4l-120 -686 q-3 -15 -16 -26t-28 -11h-124q-26 0 -37 27l-148 335q-3 8 -9 8q-5 0 -6 -9l-60 -341q-4 -20 -24 -20h-150q-17 0 -17 17v3l120 686q3 15 16 26t28 11h122q21 0 35 -29l152 -345q4 -9 7 -9q6 0 7 9l62 354q4 20 24 20h150q16 0 16 -16z"/>
<glyph glyph-name="Ograve" horiz-adv-x="707" unicode="Ò" d="M590 804q0 -9 -11 -9h-119q-13 0 -22 11l-105 120q-3 5 -3 7q0 8 12 8h148q16 0 26 -15l71 -114q3 -4 3 -8zM537 485q0 89 -82 89q-52 0 -82 -35.5t-45 -115.5l-19 -103q-7 -42 -7 -62q0 -88 82 -88q53 0 82.5 35t44.5 115l19 103q7 42 7 62zM744 507q0 -44 -8 -84 l-19 -103q-32 -175 -125 -252t-240 -77q-112 0 -184.5 63.5t-72.5 184.5q0 35 8 81l19 103q61 330 365 330q112 0 184.5 -61.5t72.5 -184.5z"/>
<glyph glyph-name="Oacute" horiz-adv-x="707" unicode="Ó" d="M707 935q0 -5 -6 -9l-147 -120q-14 -11 -26 -11h-129q-8 0 -8 6q0 5 6 11l111 114q15 15 30 15h158q11 0 11 -6zM537 485q0 89 -82 89q-52 0 -82 -35.5t-45 -115.5l-19 -103q-7 -42 -7 -62q0 -88 82 -88q53 0 82.5 35t44.5 115l19 103q7 42 7 62zM744 507q0 -44 -8 -84 l-19 -103q-32 -175 -125 -252t-240 -77q-112 0 -184.5 63.5t-72.5 184.5q0 35 8 81l19 103q61 330 365 330q112 0 184.5 -61.5t72.5 -184.5z"/>
<glyph glyph-name="Ocircumflex" horiz-adv-x="707" unicode="Ô" d="M706 804q0 -9 -10 -9h-120q-14 0 -22 11l-46 59l-66 -59q-12 -11 -26 -11h-128q-8 0 -8 6q0 5 6 11l106 114q15 15 30 15h190q17 0 26 -15l66 -114q2 -3 2 -8zM537 485q0 89 -82 89q-52 0 -82 -35.5t-45 -115.5l-19 -103q-7 -42 -7 -62q0 -88 82 -88q53 0 82.5 35 t44.5 115l19 103q7 42 7 62zM744 507q0 -44 -8 -84l-19 -103q-32 -175 -125 -252t-240 -77q-112 0 -184.5 63.5t-72.5 184.5q0 35 8 81l19 103q61 330 365 330q112 0 184.5 -61.5t72.5 -184.5z"/>
<glyph glyph-name="Otilde" horiz-adv-x="707" unicode="Õ" d="M737 938v-4l-3 -18q-12 -69 -47 -98t-99 -29q-48 0 -79 21l-36 24q-22 15 -36 15q-19 0 -23 -20l-3 -17q-3 -17 -19 -17h-84q-14 0 -14 13v4l3 17q22 127 150 127q46 0 75 -20l37 -24q26 -16 36 -16q18 0 22 21l3 17q3 17 20 17h83q14 0 14 -13zM537 485q0 89 -82 89 q-52 0 -82 -35.5t-45 -115.5l-19 -103q-7 -42 -7 -62q0 -88 82 -88q53 0 82.5 35t44.5 115l19 103q7 42 7 62zM744 507q0 -44 -8 -84l-19 -103q-32 -175 -125 -252t-240 -77q-112 0 -184.5 63.5t-72.5 184.5q0 35 8 81l19 103q61 330 365 330q112 0 184.5 -61.5t72.5 -184.5 z"/>
<glyph glyph-name="Odieresis" horiz-adv-x="707" unicode="Ö" d="M475 919v-3l-17 -98q-1 -8 -9.5 -14t-16.5 -6h-116q-8 0 -13.5 5t-5.5 12v3l17 98q1 8 9.5 14t17.5 6h116q18 0 18 -17zM709 919v-3l-17 -98q-1 -8 -9.5 -14t-17.5 -6h-116q-18 0 -18 17v3l17 98q1 8 9.5 14t16.5 6h116q8 0 13.5 -5t5.5 -12zM537 485q0 89 -82 89 q-52 0 -82 -35.5t-45 -115.5l-19 -103q-7 -42 -7 -62q0 -88 82 -88q53 0 82.5 35t44.5 115l19 103q7 42 7 62zM744 507q0 -44 -8 -84l-19 -103q-32 -175 -125 -252t-240 -77q-112 0 -184.5 63.5t-72.5 184.5q0 35 8 81l19 103q61 330 365 330q112 0 184.5 -61.5t72.5 -184.5 z"/>
<glyph glyph-name="multiply" horiz-adv-x="666" unicode="×" d="M618 516q0 -8 -8 -16l-110 -110l109 -110q8 -8 8 -15q0 -5 -5 -10l-77 -78q-5 -5 -10 -5q-8 0 -16 8l-110 110l-110 -110q-8 -8 -15 -8q-5 0 -10 5l-78 78q-5 5 -5 10q0 7 8 15l110 110l-110 110q-8 8 -8 16q0 5 5 10l78 78q5 5 10 5q7 0 15 -8l110 -111l110 111 q8 8 16 8q5 0 10 -5l78 -78q5 -5 5 -10z"/>
<glyph glyph-name="Oslash" horiz-adv-x="707" unicode="Ø" d="M527 407l-198 -222q19 -15 55 -15q53 0 82.5 35t44.5 115zM510 559q-18 15 -55 15q-52 0 -82 -35.5t-45 -115.5l-16 -86zM826 745q0 -2 -4 -8l-101 -113q23 -49 23 -117q0 -44 -8 -84l-19 -103q-32 -175 -125 -252t-240 -77q-93 0 -158 43l-28 -31q-10 -12 -24 -12h-118 q-9 0 -9 8q0 6 5 11l99 111q-24 53 -24 118q0 35 8 81l19 103q61 330 365 330q95 0 159 -42l29 32q9 10 22 10h118q11 0 11 -8z"/>
<glyph glyph-name="Ugrave" horiz-adv-x="731" unicode="Ù" d="M615 803q0 -9 -11 -9h-119q-13 0 -22 11l-105 120q-3 5 -3 7q0 8 12 8h148q16 0 26 -15l71 -114q3 -4 3 -8zM795 726v-3l-77 -441q-29 -167 -112.5 -229t-241.5 -62q-45 0 -88.5 13.5t-82 41t-62 75t-23.5 108.5q0 29 6 63l76 431q1 8 9 14t16 6h162q16 0 16 -16v-4 l-77 -441q-5 -30 -5 -48q0 -40 19.5 -56t63.5 -16q54 0 81.5 26.5t39.5 93.5l77 441q4 20 24 20h162q17 0 17 -17z"/>
<glyph glyph-name="Uacute" horiz-adv-x="731" unicode="Ú" d="M724 935q0 -5 -6 -9l-147 -120q-14 -11 -26 -11h-129q-8 0 -8 6q0 5 6 11l111 114q15 15 30 15h158q11 0 11 -6zM795 726v-3l-77 -441q-29 -167 -112.5 -229t-241.5 -62q-45 0 -88.5 13.5t-82 41t-62 75t-23.5 108.5q0 29 6 63l76 431q1 8 9 14t16 6h162q16 0 16 -16v-4 l-77 -441q-5 -30 -5 -48q0 -40 19.5 -56t63.5 -16q54 0 81.5 26.5t39.5 93.5l77 441q4 20 24 20h162q17 0 17 -17z"/>
<glyph glyph-name="Ucircumflex" horiz-adv-x="731" unicode="Û" d="M715 804q0 -9 -10 -9h-120q-14 0 -22 11l-46 59l-66 -59q-12 -11 -26 -11h-128q-8 0 -8 6q0 5 6 11l106 114q15 15 30 15h190q17 0 26 -15l66 -114q2 -3 2 -8zM795 726v-3l-77 -441q-29 -167 -112.5 -229t-241.5 -62q-45 0 -88.5 13.5t-82 41t-62 75t-23.5 108.5 q0 29 6 63l76 431q1 8 9 14t16 6h162q16 0 16 -16v-4l-77 -441q-5 -30 -5 -48q0 -40 19.5 -56t63.5 -16q54 0 81.5 26.5t39.5 93.5l77 441q4 20 24 20h162q17 0 17 -17z"/>
<glyph glyph-name="Udieresis" horiz-adv-x="731" unicode="Ü" d="M491 919v-3l-17 -98q-1 -8 -9.5 -14t-16.5 -6h-116q-8 0 -13.5 5t-5.5 12v3l17 98q1 8 9.5 14t17.5 6h116q18 0 18 -17zM725 919v-3l-17 -98q-1 -8 -9.5 -14t-17.5 -6h-116q-18 0 -18 17v3l17 98q1 8 9.5 14t16.5 6h116q8 0 13.5 -5t5.5 -12zM795 726v-3l-77 -441 q-29 -167 -112.5 -229t-241.5 -62q-45 0 -88.5 13.5t-82 41t-62 75t-23.5 108.5q0 29 6 63l76 431q1 8 9 14t16 6h162q16 0 16 -16v-4l-77 -441q-5 -30 -5 -48q0 -40 19.5 -56t63.5 -16q54 0 81.5 26.5t39.5 93.5l77 441q4 20 24 20h162q17 0 17 -17z"/>
<glyph glyph-name="Yacute" horiz-adv-x="684" unicode="Ý" d="M704 934q0 -4 -6 -9l-147 -120q-14 -11 -26 -11h-129q-8 0 -8 6q0 5 6 11l111 114q15 15 30 15h158q11 0 11 -6zM790 733q0 -5 -3 -11l-208 -345q-43 -70 -86 -86l-47 -271q-4 -20 -24 -20h-163q-15 0 -15 16v4l47 271q-39 17 -56 86l-86 345q0 1 -0.5 2.5t-0.5 2.5 q0 6 5 11t12 5h177q13 0 17 -19l49 -265q2 -10 8 -10q7 0 12 10l143 265q9 19 23 19h185q11 0 11 -10z"/>
<glyph glyph-name="Thorn" horiz-adv-x="678" unicode="Þ" d="M521 441q0 58 -98 58h-70l-30 -172h70q128 0 128 114zM726 473q0 -158 -93 -237t-252 -79q-11 0 -42 0.5t-46 0.5l-24 -138q-4 -20 -20 -20h-162q-18 0 -18 17v3l124 704q3 19 22 19h162q16 0 16 -15v-4l-10 -55q6 0 30.5 0.5t35.5 0.5q120 0 198.5 -49t78.5 -148z"/>
<glyph glyph-name="germandbls" horiz-adv-x="680" unicode="ß" d="M723 590q0 -61 -30 -113t-84 -78q65 -41 65 -122q0 -133 -79 -209.5t-215 -76.5q-36 0 -66 6q-16 4 -16 17v3l21 119q3 14 14 14h37q61 0 85.5 28.5t24.5 90.5q0 31 -18.5 43.5t-59.5 12.5h-27q-16 0 -16 16v4l17 96q3 20 23 20h27q55 0 77 25.5t22 81.5q0 48 -71 48 q-55 0 -80.5 -22.5t-35.5 -77.5l-87 -495q-2 -8 -8.5 -14.5t-14.5 -6.5h-154q-16 0 -16 17v4l87 495q25 146 106 205.5t232 59.5q119 0 179.5 -56.5t60.5 -134.5z"/>
<glyph glyph-name="agrave" horiz-adv-x="612" unicode="à" d="M534 642q0 -9 -11 -9h-119q-13 0 -22 11l-105 120q-3 5 -3 7q0 8 12 8h148q16 0 26 -15l71 -114q3 -4 3 -8zM443 428q-34 4 -60 4q-43 0 -64 -21.5t-31 -80.5l-19 -107q-2 -9 -2 -25q0 -46 46 -46q41 0 86 27zM655 542q0 -5 -1 -8l-90 -514q-4 -20 -21 -20h-125 q-18 0 -18 17v3l4 31q-78 -60 -154 -60q-75 0 -124.5 52t-49.5 143q0 24 6 58l17 101q23 135 102 190.5t204 55.5q92 0 219 -25q12 -2 17 -4t9.5 -7t4.5 -13z"/>
<glyph glyph-name="aacute" horiz-adv-x="612" unicode="á" d="M649 773q0 -5 -6 -9l-147 -120q-14 -11 -26 -11h-129q-8 0 -8 6q0 5 6 11l111 114q15 15 30 15h158q11 0 11 -6zM443 428q-34 4 -60 4q-43 0 -64 -21.5t-31 -80.5l-19 -107q-2 -9 -2 -25q0 -46 46 -46q41 0 86 27zM655 542q0 -5 -1 -8l-90 -514q-4 -20 -21 -20h-125 q-18 0 -18 17v3l4 31q-78 -60 -154 -60q-75 0 -124.5 52t-49.5 143q0 24 6 58l17 101q23 135 102 190.5t204 55.5q92 0 219 -25q12 -2 17 -4t9.5 -7t4.5 -13z"/>
<glyph glyph-name="acircumflex" horiz-adv-x="612" unicode="â" d="M636 642q0 -9 -10 -9h-120q-14 0 -22 11l-46 59l-66 -59q-12 -11 -26 -11h-128q-8 0 -8 6q0 5 6 11l106 114q15 15 30 15h190q17 0 26 -15l66 -114q2 -3 2 -8zM443 428q-34 4 -60 4q-43 0 -64 -21.5t-31 -80.5l-19 -107q-2 -9 -2 -25q0 -46 46 -46q41 0 86 27zM655 542 q0 -5 -1 -8l-90 -514q-4 -20 -21 -20h-125q-18 0 -18 17v3l4 31q-78 -60 -154 -60q-75 0 -124.5 52t-49.5 143q0 24 6 58l17 101q23 135 102 190.5t204 55.5q92 0 219 -25q12 -2 17 -4t9.5 -7t4.5 -13z"/>
<glyph glyph-name="atilde" horiz-adv-x="612" unicode="ã" d="M649 775v-4l-3 -18q-12 -69 -47 -98t-99 -29q-48 0 -79 21l-36 24q-22 15 -36 15q-19 0 -23 -20l-3 -17q-3 -17 -19 -17h-84q-14 0 -14 13v4l3 17q22 127 150 127q46 0 75 -20l37 -24q26 -16 36 -16q18 0 22 21l3 17q3 17 20 17h83q14 0 14 -13zM443 428q-34 4 -60 4 q-43 0 -64 -21.5t-31 -80.5l-19 -107q-2 -9 -2 -25q0 -46 46 -46q41 0 86 27zM655 542q0 -5 -1 -8l-90 -514q-4 -20 -21 -20h-125q-18 0 -18 17v3l4 31q-78 -60 -154 -60q-75 0 -124.5 52t-49.5 143q0 24 6 58l17 101q23 135 102 190.5t204 55.5q92 0 219 -25q12 -2 17 -4 t9.5 -7t4.5 -13z"/>
<glyph glyph-name="adieresis" horiz-adv-x="612" unicode="ä" d="M394 759v-3l-17 -98q-1 -8 -9.5 -14t-16.5 -6h-116q-8 0 -13.5 5t-5.5 12v3l17 98q1 8 9.5 14t17.5 6h116q18 0 18 -17zM628 759v-3l-17 -98q-1 -8 -9.5 -14t-17.5 -6h-116q-18 0 -18 17v3l17 98q1 8 9.5 14t16.5 6h116q8 0 13.5 -5t5.5 -12zM443 428q-34 4 -60 4 q-43 0 -64 -21.5t-31 -80.5l-19 -107q-2 -9 -2 -25q0 -46 46 -46q41 0 86 27zM655 542q0 -5 -1 -8l-90 -514q-4 -20 -21 -20h-125q-18 0 -18 17v3l4 31q-78 -60 -154 -60q-75 0 -124.5 52t-49.5 143q0 24 6 58l17 101q23 135 102 190.5t204 55.5q92 0 219 -25q12 -2 17 -4 t9.5 -7t4.5 -13z"/>
<glyph glyph-name="aring" horiz-adv-x="612" unicode="å" d="M484 753q0 17 -12 29t-29 12t-28.5 -12t-11.5 -29t12 -30t28 -13t28.5 13t12.5 30zM564 752q0 -50 -36 -86t-86 -36t-84.5 35.5t-34.5 86.5t34.5 86.5t84.5 35.5t86 -36t36 -86zM443 428q-34 4 -60 4q-43 0 -64 -21.5t-31 -80.5l-19 -107q-2 -9 -2 -25q0 -46 46 -46 q41 0 86 27zM655 542q0 -5 -1 -8l-90 -514q-4 -20 -21 -20h-125q-18 0 -18 17v3l4 31q-78 -60 -154 -60q-75 0 -124.5 52t-49.5 143q0 24 6 58l17 101q23 135 102 190.5t204 55.5q92 0 219 -25q12 -2 17 -4t9.5 -7t4.5 -13z"/>
<glyph glyph-name="ae" horiz-adv-x="897" unicode="æ" d="M381 242h-44q-43 0 -64 -18t-21 -60q0 -23 15 -31t49 -8q28 0 45 3zM738 383q0 59 -61 59q-71 0 -92 -99h148q5 23 5 40zM918 376q0 -25 -5 -57l-10 -60q-1 -10 -8.5 -16t-16.5 -6h-311q-3 -18 -3 -31q0 -35 20 -46t62 -11q116 0 192 8h4q15 0 15 -13v-4l-16 -90 q-4 -22 -25 -28q-99 -31 -219 -31q-71 0 -124 36q-108 -36 -181 -36q-108 0 -166 43t-58 116q0 50 17 87t43 57.5t66 32.5t76.5 15.5t84.5 3.5h39l5 28q2 12 2 17q0 41 -54 41q-104 0 -172 -7h-1h-1q-16 0 -16 16v4l18 97q3 17 23 24q82 25 177 25q107 0 163 -54 q68 54 167 54q104 0 158.5 -60.5t54.5 -154.5z"/>
<glyph glyph-name="ccedilla" horiz-adv-x="475" unicode="ç" d="M346 -42q0 -4 -6 -9l-147 -120q-14 -11 -27 -11h-128q-8 0 -8 6q0 5 6 11l111 114q15 15 31 15h158q10 0 10 -6zM535 559q0 -3 -1 -5l-20 -113q-3 -19 -23 -19h-2q-1 0 -42.5 3.5t-70.5 3.5q-35 0 -55 -21t-31 -80l-13 -75q-4 -23 -4 -43q0 -32 13.5 -44.5t40.5 -12.5 q11 0 116 6h2q17 0 17 -15v-2l-1 -2l-20 -112q-3 -16 -24 -21q-70 -16 -140 -16q-94 0 -145.5 57t-51.5 148q0 24 5 57l13 75q45 263 285 263q75 0 134 -16q18 -5 18 -16z"/>
<glyph glyph-name="egrave" horiz-adv-x="602" unicode="è" d="M496 642q0 -9 -11 -9h-119q-13 0 -22 11l-105 120q-3 5 -3 7q0 8 12 8h148q16 0 26 -15l71 -114q3 -4 3 -8zM443 383q0 59 -61 59q-71 0 -92 -99h148q5 23 5 40zM623 376q0 -25 -5 -57l-10 -60q-1 -10 -8.5 -16t-16.5 -6h-311q-3 -18 -3 -31q0 -35 20 -46t62 -11 q116 0 192 8h4q15 0 15 -13v-4l-16 -90q-4 -22 -25 -28q-99 -31 -219 -31q-90 0 -155.5 55.5t-65.5 155.5q0 27 4 51l11 66q45 272 314 272q104 0 158.5 -60.5t54.5 -154.5z"/>
<glyph glyph-name="eacute" horiz-adv-x="602" unicode="é" d="M641 773q0 -5 -6 -9l-147 -120q-14 -11 -26 -11h-129q-8 0 -8 6q0 5 6 11l111 114q15 15 30 15h158q11 0 11 -6zM443 383q0 59 -61 59q-71 0 -92 -99h148q5 23 5 40zM623 376q0 -25 -5 -57l-10 -60q-1 -10 -8.5 -16t-16.5 -6h-311q-3 -18 -3 -31q0 -35 20 -46t62 -11 q116 0 192 8h4q15 0 15 -13v-4l-16 -90q-4 -22 -25 -28q-99 -31 -219 -31q-90 0 -155.5 55.5t-65.5 155.5q0 27 4 51l11 66q45 272 314 272q104 0 158.5 -60.5t54.5 -154.5z"/>
<glyph glyph-name="ecircumflex" horiz-adv-x="602" unicode="ê" d="M629 642q0 -9 -10 -9h-120q-14 0 -22 11l-46 59l-66 -59q-12 -11 -26 -11h-128q-8 0 -8 6q0 5 6 11l106 114q15 15 30 15h190q17 0 26 -15l66 -114q2 -3 2 -8zM443 383q0 59 -61 59q-71 0 -92 -99h148q5 23 5 40zM623 376q0 -25 -5 -57l-10 -60q-1 -10 -8.5 -16t-16.5 -6 h-311q-3 -18 -3 -31q0 -35 20 -46t62 -11q116 0 192 8h4q15 0 15 -13v-4l-16 -90q-4 -22 -25 -28q-99 -31 -219 -31q-90 0 -155.5 55.5t-65.5 155.5q0 27 4 51l11 66q45 272 314 272q104 0 158.5 -60.5t54.5 -154.5z"/>
<glyph glyph-name="edieresis" horiz-adv-x="602" unicode="ë" d="M396 758v-3l-17 -98q-1 -8 -9.5 -14t-16.5 -6h-116q-8 0 -13.5 5t-5.5 12v3l17 98q1 8 9.5 14t17.5 6h116q18 0 18 -17zM630 758v-3l-17 -98q-1 -8 -9.5 -14t-17.5 -6h-116q-18 0 -18 17v3l17 98q1 8 9.5 14t16.5 6h116q8 0 13.5 -5t5.5 -12zM443 383q0 59 -61 59 q-71 0 -92 -99h148q5 23 5 40zM623 376q0 -25 -5 -57l-10 -60q-1 -10 -8.5 -16t-16.5 -6h-311q-3 -18 -3 -31q0 -35 20 -46t62 -11q116 0 192 8h4q15 0 15 -13v-4l-16 -90q-4 -22 -25 -28q-99 -31 -219 -31q-90 0 -155.5 55.5t-65.5 155.5q0 27 4 51l11 66q45 272 314 272 q104 0 158.5 -60.5t54.5 -154.5z"/>
<glyph glyph-name="igrave" horiz-adv-x="313" unicode="ì" d="M369 642q0 -9 -11 -9h-119q-13 0 -22 11l-105 120q-3 5 -3 7q0 8 12 8h148q16 0 26 -15l71 -114q3 -4 3 -8zM352 564v-3l-95 -539q-1 -8 -9.5 -15t-16.5 -7h-149q-7 0 -12.5 5.5t-5.5 13.5v3l95 539q1 8 9.5 14.5t16.5 6.5h149q8 0 13 -5t5 -13z"/>
<glyph glyph-name="iacute" horiz-adv-x="313" unicode="í" d="M479 773q0 -5 -6 -9l-147 -120q-14 -11 -26 -11h-129q-8 0 -8 6q0 5 6 11l111 114q15 15 30 15h158q11 0 11 -6zM352 564v-3l-95 -539q-1 -8 -9.5 -15t-16.5 -7h-149q-7 0 -12.5 5.5t-5.5 13.5v3l95 539q1 8 9.5 14.5t16.5 6.5h149q8 0 13 -5t5 -13z"/>
<glyph glyph-name="icircumflex" horiz-adv-x="313" unicode="î" d="M482 642q0 -9 -10 -9h-120q-14 0 -22 11l-46 59l-66 -59q-12 -11 -26 -11h-128q-8 0 -8 6q0 5 6 11l106 114q15 15 30 15h190q17 0 26 -15l66 -114q2 -3 2 -8zM352 564v-3l-95 -539q-1 -8 -9.5 -15t-16.5 -7h-149q-7 0 -12.5 5.5t-5.5 13.5v3l95 539q1 8 9.5 14.5 t16.5 6.5h149q8 0 13 -5t5 -13z"/>
<glyph glyph-name="idieresis" horiz-adv-x="313" unicode="ï" d="M253 758v-3l-17 -98q-1 -8 -9.5 -14t-16.5 -6h-116q-8 0 -13.5 5t-5.5 12v3l17 98q1 8 9.5 14t17.5 6h116q18 0 18 -17zM487 758v-3l-17 -98q-1 -8 -9.5 -14t-17.5 -6h-116q-18 0 -18 17v3l17 98q1 8 9.5 14t16.5 6h116q8 0 13.5 -5t5.5 -12zM352 564v-3l-95 -539 q-1 -8 -9.5 -15t-16.5 -7h-149q-7 0 -12.5 5.5t-5.5 13.5v3l95 539q1 8 9.5 14.5t16.5 6.5h149q8 0 13 -5t5 -13z"/>
<glyph glyph-name="eth" horiz-adv-x="605" unicode="ð" d="M430 342q0 33 -14 46.5t-43 13.5q-38 0 -58.5 -24t-32.5 -91l-4 -21q-6 -31 -6 -53q0 -33 14 -47.5t43 -14.5q39 0 59 25.5t32 89.5l4 21q6 33 6 55zM626 392q0 -54 -10 -105l-4 -21q-28 -144 -102.5 -209.5t-209.5 -65.5q-102 0 -161 57t-59 154q0 30 6 64l4 21 q29 154 102.5 214t204.5 60q20 0 34 -7q-30 37 -91 69l-76 -51q-9 -6 -14 -6q-6 0 -10 6l-20 28q-2 4 -2 6q0 9 13 18l42 28q-28 10 -43 15q-14 4 -14 13q0 1 2 7l42 78q6 11 17 11q5 0 8 -1q58 -15 112 -39l82 55q8 5 14 5t11 -5l21 -28q2 -2 2 -6q0 -9 -12 -16l-54 -37 q165 -98 165 -312z"/>
<glyph glyph-name="ntilde" d="M660 775v-4l-3 -18q-12 -69 -47 -98t-99 -29q-48 0 -79 21l-36 24q-22 15 -36 15q-19 0 -23 -20l-3 -17q-3 -17 -19 -17h-84q-14 0 -14 13v4l3 17q22 127 150 127q46 0 75 -20l37 -24q26 -16 36 -16q18 0 22 21l3 17q3 17 20 17h83q14 0 14 -13zM644 414q0 -35 -8 -80 l-55 -312q-2 -9 -9 -15.5t-16 -6.5h-150q-17 0 -17 18v4l56 319q7 40 7 51q0 23 -10.5 31t-36.5 8q-45 0 -85 -22l-68 -387q-4 -22 -27 -22h-143q-23 0 -23 18v4l96 540q4 20 23 20h137q17 0 17 -17v-3l-5 -26q84 55 160 55q82 0 119.5 -48t37.5 -129z" unicode="ñ"/>
<glyph glyph-name="ograve" horiz-adv-x="605" unicode="ò" d="M516 642q0 -9 -11 -9h-119q-13 0 -22 11l-105 120q-3 5 -3 7q0 8 12 8h148q16 0 26 -15l71 -114q3 -4 3 -8zM435 371q0 32 -13 45.5t-43 13.5q-38 0 -60 -25.5t-32 -84.5l-10 -58q-5 -33 -5 -50q0 -34 14 -47.5t44 -13.5q38 0 58.5 24t31.5 87l10 58q5 33 5 51zM626 380 q0 -30 -5 -60l-10 -58q-24 -143 -100.5 -207t-209.5 -64q-106 0 -163 56.5t-57 153.5q0 35 5 61l10 58q25 144 103 207.5t208 63.5q103 0 161 -57t58 -154z"/>
<glyph glyph-name="oacute" horiz-adv-x="605" unicode="ó" d="M626 773q0 -5 -6 -9l-147 -120q-14 -11 -26 -11h-129q-8 0 -8 6q0 5 6 11l111 114q15 15 30 15h158q11 0 11 -6zM435 371q0 32 -13 45.5t-43 13.5q-38 0 -60 -25.5t-32 -84.5l-10 -58q-5 -33 -5 -50q0 -34 14 -47.5t44 -13.5q38 0 58.5 24t31.5 87l10 58q5 33 5 51z M626 380q0 -30 -5 -60l-10 -58q-24 -143 -100.5 -207t-209.5 -64q-106 0 -163 56.5t-57 153.5q0 35 5 61l10 58q25 144 103 207.5t208 63.5q103 0 161 -57t58 -154z"/>
<glyph glyph-name="ocircumflex" horiz-adv-x="605" unicode="ô" d="M628 642q0 -9 -10 -9h-120q-14 0 -22 11l-46 59l-66 -59q-12 -11 -26 -11h-128q-8 0 -8 6q0 5 6 11l106 114q15 15 30 15h190q17 0 26 -15l66 -114q2 -3 2 -8zM435 371q0 32 -13 45.5t-43 13.5q-38 0 -60 -25.5t-32 -84.5l-10 -58q-5 -33 -5 -50q0 -34 14 -47.5t44 -13.5 q38 0 58.5 24t31.5 87l10 58q5 33 5 51zM626 380q0 -30 -5 -60l-10 -58q-24 -143 -100.5 -207t-209.5 -64q-106 0 -163 56.5t-57 153.5q0 35 5 61l10 58q25 144 103 207.5t208 63.5q103 0 161 -57t58 -154z"/>
<glyph glyph-name="otilde" horiz-adv-x="605" unicode="õ" d="M648 775v-4l-3 -18q-12 -69 -47 -98t-99 -29q-48 0 -79 21l-36 24q-22 15 -36 15q-19 0 -23 -20l-3 -17q-3 -17 -19 -17h-84q-14 0 -14 13v4l3 17q22 127 150 127q46 0 75 -20l37 -24q26 -16 36 -16q18 0 22 21l3 17q3 17 20 17h83q14 0 14 -13zM435 371q0 32 -13 45.5 t-43 13.5q-38 0 -60 -25.5t-32 -84.5l-10 -58q-5 -33 -5 -50q0 -34 14 -47.5t44 -13.5q38 0 58.5 24t31.5 87l10 58q5 33 5 51zM626 380q0 -30 -5 -60l-10 -58q-24 -143 -100.5 -207t-209.5 -64q-106 0 -163 56.5t-57 153.5q0 35 5 61l10 58q25 144 103 207.5t208 63.5 q103 0 161 -57t58 -154z"/>
<glyph glyph-name="odieresis" horiz-adv-x="605" unicode="ö" d="M398 758v-3l-17 -98q-1 -8 -9.5 -14t-16.5 -6h-116q-8 0 -13.5 5t-5.5 12v3l17 98q1 8 9.5 14t17.5 6h116q18 0 18 -17zM632 758v-3l-17 -98q-1 -8 -9.5 -14t-17.5 -6h-116q-18 0 -18 17v3l17 98q1 8 9.5 14t16.5 6h116q8 0 13.5 -5t5.5 -12zM435 371q0 32 -13 45.5 t-43 13.5q-38 0 -60 -25.5t-32 -84.5l-10 -58q-5 -33 -5 -50q0 -34 14 -47.5t44 -13.5q38 0 58.5 24t31.5 87l10 58q5 33 5 51zM626 380q0 -30 -5 -60l-10 -58q-24 -143 -100.5 -207t-209.5 -64q-106 0 -163 56.5t-57 153.5q0 35 5 61l10 58q25 144 103 207.5t208 63.5 q103 0 161 -57t58 -154z"/>
<glyph glyph-name="divide" horiz-adv-x="666" unicode="÷" d="M497 81q0 -8 -6.5 -14t-14.5 -6h-146q-8 0 -14 6t-6 14v122q0 8 6 14t14 6h146q8 0 14.5 -6t6.5 -14v-122zM640 336q0 -16 -20 -16h-432q-20 0 -20 16v110q0 16 20 16h432q20 0 20 -16v-110zM497 562q0 -8 -6.5 -14t-14.5 -6h-146q-8 0 -14 6t-6 14v122q0 8 6 14t14 6 h146q8 0 14.5 -6t6.5 -14v-122z"/>
<glyph glyph-name="oslash" horiz-adv-x="605" unicode="ø" d="M432 329l-149 -162q13 -16 47 -16q38 0 58.5 24t31.5 87l10 58zM424 414q-13 16 -45 16q-38 0 -60 -25.5t-32 -84.5l-10 -58q-1 -2 -1 -5.5t-1 -5.5zM684 610q0 -3 -5 -10l-87 -95q34 -53 34 -125q0 -34 -5 -60l-10 -58q-24 -142 -100.5 -206.5t-209.5 -64.5 q-86 0 -142 39l-51 -55q-10 -10 -18 -10h-58q-9 0 -9 6q0 5 5 10l87 94q-34 50 -34 126q0 35 5 61l10 58q25 144 103 207.5t208 63.5q85 0 142 -41l51 56q9 10 18 10h58q8 0 8 -6z"/>
<glyph glyph-name="ugrave" d="M527 642q0 -9 -11 -9h-119q-13 0 -22 11l-105 120q-3 5 -3 7q0 8 12 8h148q16 0 26 -15l71 -114q3 -4 3 -8zM676 564v-4l-96 -540q-4 -20 -23 -20h-137q-17 0 -17 17v3l5 26q-84 -55 -160 -55q-82 0 -119.5 48t-37.5 129q0 35 8 80l55 312q2 9 9 15.5t16 6.5h150 q17 0 17 -18v-4l-56 -319q-7 -35 -7 -50q0 -25 10.5 -32.5t36.5 -7.5q45 0 85 22l68 387q4 22 27 22h143q23 0 23 -18z" unicode="ù"/>
<glyph glyph-name="uacute" d="M653 773q0 -5 -6 -9l-147 -120q-14 -11 -26 -11h-129q-8 0 -8 6q0 5 6 11l111 114q15 15 30 15h158q11 0 11 -6zM676 564v-4l-96 -540q-4 -20 -23 -20h-137q-17 0 -17 17v3l5 26q-84 -55 -160 -55q-82 0 -119.5 48t-37.5 129q0 35 8 80l55 312q2 9 9 15.5t16 6.5h150 q17 0 17 -18v-4l-56 -319q-7 -35 -7 -50q0 -25 10.5 -32.5t36.5 -7.5q45 0 85 22l68 387q4 22 27 22h143q23 0 23 -18z" unicode="ú"/>
<glyph glyph-name="ucircumflex" d="M641 642q0 -9 -10 -9h-120q-14 0 -22 11l-46 59l-66 -59q-12 -11 -26 -11h-128q-8 0 -8 6q0 5 6 11l106 114q15 15 30 15h190q17 0 26 -15l66 -114q2 -3 2 -8zM676 564v-4l-96 -540q-4 -20 -23 -20h-137q-17 0 -17 17v3l5 26q-84 -55 -160 -55q-82 0 -119.5 48t-37.5 129 q0 35 8 80l55 312q2 9 9 15.5t16 6.5h150q17 0 17 -18v-4l-56 -319q-7 -35 -7 -50q0 -25 10.5 -32.5t36.5 -7.5q45 0 85 22l68 387q4 22 27 22h143q23 0 23 -18z" unicode="û"/>
<glyph glyph-name="udieresis" d="M414 758v-3l-17 -98q-1 -8 -9.5 -14t-16.5 -6h-116q-8 0 -13.5 5t-5.5 12v3l17 98q1 8 9.5 14t17.5 6h116q18 0 18 -17zM648 758v-3l-17 -98q-1 -8 -9.5 -14t-17.5 -6h-116q-18 0 -18 17v3l17 98q1 8 9.5 14t16.5 6h116q8 0 13.5 -5t5.5 -12zM676 564v-4l-96 -540 q-4 -20 -23 -20h-137q-17 0 -17 17v3l5 26q-84 -55 -160 -55q-82 0 -119.5 48t-37.5 129q0 35 8 80l55 312q2 9 9 15.5t16 6.5h150q17 0 17 -18v-4l-56 -319q-7 -35 -7 -50q0 -25 10.5 -32.5t36.5 -7.5q45 0 85 22l68 387q4 22 27 22h143q23 0 23 -18z" unicode="ü"/>
<glyph glyph-name="yacute" horiz-adv-x="623" unicode="ý" d="M655 773q0 -5 -6 -9l-147 -120q-14 -11 -26 -11h-129q-8 0 -8 6q0 5 6 11l111 114q15 15 30 15h158q11 0 11 -6zM705 567q0 -3 -2 -7l-275 -594q-40 -88 -96 -128.5t-167 -40.5q-85 0 -132 18q-19 8 -19 16v3l17 97q2 8 9.5 14.5t16.5 6.5h1q4 0 58 -4t77 -4q45 0 61 38 l14 33h-13q-36 0 -55.5 16t-23.5 53l-58 476v3q0 19 25 19h161q14 0 16 -20l18 -344q1 -17 8 -17h8l143 362q7 19 25 19h165q7 0 12.5 -4.5t5.5 -10.5z"/>
<glyph glyph-name="thorn" horiz-adv-x="616" unicode="þ" d="M448 371q0 32 -13.5 46.5t-44.5 14.5q-39 0 -68 -4l-48 -275q38 -4 67 -4q40 0 60 26t29 77l14 77q4 21 4 42zM641 385q0 -19 -6 -59l-13 -73q-24 -134 -91 -198t-205 -64q-46 0 -80 8l-30 -170q-4 -21 -22 -21h-150q-8 0 -14 5.5t-6 12.5v3l163 924q4 20 21 20h153 q18 0 18 -17v-3l-29 -165q33 3 68 3q102 0 162.5 -53t60.5 -153z"/>
<glyph glyph-name="ydieresis" horiz-adv-x="623" unicode="ÿ" d="M414 758v-3l-17 -98q-1 -8 -9.5 -14t-16.5 -6h-116q-8 0 -13.5 5t-5.5 12v3l17 98q1 8 9.5 14t17.5 6h116q18 0 18 -17zM648 758v-3l-17 -98q-1 -8 -9.5 -14t-17.5 -6h-116q-18 0 -18 17v3l17 98q1 8 9.5 14t16.5 6h116q8 0 13.5 -5t5.5 -12zM705 567q0 -3 -2 -7 l-275 -594q-40 -88 -96 -128.5t-167 -40.5q-85 0 -132 18q-19 8 -19 16v3l17 97q2 8 9.5 14.5t16.5 6.5h1q4 0 58 -4t77 -4q45 0 61 38l14 33h-13q-36 0 -55.5 16t-23.5 53l-58 476v3q0 19 25 19h161q14 0 16 -20l18 -344q1 -17 8 -17h8l143 362q7 19 25 19h165 q7 0 12.5 -4.5t5.5 -10.5z"/>
<glyph glyph-name="Amacron" horiz-adv-x="692" unicode="Ā" d="M680 932q18 0 18 -13q0 -1 -0.5 -3t-0.5 -3l-16 -88q-4 -20 -23 -20h-339q-18 0 -18 14q0 1 0.5 3t0.5 3l16 88q3 19 23 19h339zM466 318l-4 254q0 14 -9 14q-6 0 -8 -3t-5 -11l-94 -254h120zM676 20q0 -8 -5.5 -14t-13.5 -6h-170q-7 0 -12 5.5t-5 13.5l-3 139h-178 l-53 -139q-8 -19 -23 -19h-177q-14 0 -14 13q0 2 2 8l242 612q27 69 80 94t133 25q81 0 124.5 -25t46.5 -94l26 -612v-1z"/>
<glyph glyph-name="amacron" horiz-adv-x="612" unicode="ā" d="M625 771q21 0 17 -19l-16 -88q-4 -20 -23 -20h-339q-18 0 -18 14q0 1 0.5 3t0.5 3l16 88q3 19 23 19h339zM443 428q-34 4 -60 4q-43 0 -64 -21.5t-31 -80.5l-19 -107q-2 -9 -2 -25q0 -46 46 -46q41 0 86 27zM655 542q0 -5 -1 -8l-90 -514q-4 -20 -21 -20h-125 q-18 0 -18 17v3l4 31q-78 -60 -154 -60q-75 0 -124.5 52t-49.5 143q0 24 6 58l17 101q23 135 102 190.5t204 55.5q92 0 219 -25q12 -2 17 -4t9.5 -7t4.5 -13z"/>
<glyph glyph-name="Abreve" horiz-adv-x="692" unicode="Ă" d="M588 940h106q12 0 12 -7q0 -4 -1 -6q-29 -79 -84.5 -111t-136.5 -32q-69 0 -121.5 39t-63.5 104q-2 13 9 13h109q4 0 6 -0.5t3.5 -1.5t2.5 -3t1.5 -3.5t0.5 -4.5q3 -25 22.5 -35.5t42.5 -10.5q52 0 74 46q6 13 18 13zM466 318l-4 254q0 14 -9 14q-6 0 -8 -3t-5 -11 l-94 -254h120zM676 20q0 -8 -5.5 -14t-13.5 -6h-170q-7 0 -12 5.5t-5 13.5l-3 139h-178l-53 -139q-8 -19 -23 -19h-177q-14 0 -14 13q0 2 2 8l242 612q27 69 80 94t133 25q81 0 124.5 -25t46.5 -94l26 -612v-1z"/>
<glyph glyph-name="abreve" horiz-adv-x="612" unicode="ă" d="M531 779h106q15 0 11 -13q-29 -79 -84.5 -111t-136.5 -32q-69 0 -121.5 39t-63.5 104q-2 13 9 13h109q4 0 6 -0.5t3.5 -1.5t2.5 -3t1.5 -3.5t0.5 -4.5q3 -25 22.5 -35.5t42.5 -10.5q52 0 74 46q6 13 18 13zM443 428q-34 4 -60 4q-43 0 -64 -21.5t-31 -80.5l-19 -107 q-2 -9 -2 -25q0 -46 46 -46q41 0 86 27zM655 542q0 -5 -1 -8l-90 -514q-4 -20 -21 -20h-125q-18 0 -18 17v3l4 31q-78 -60 -154 -60q-75 0 -124.5 52t-49.5 143q0 24 6 58l17 101q23 135 102 190.5t204 55.5q92 0 219 -25q12 -2 17 -4t9.5 -7t4.5 -13z"/>
<glyph glyph-name="Aogonek" horiz-adv-x="692" unicode="Ą" d="M466 318l-4 254q0 14 -9 14q-6 0 -8 -3t-5 -11l-94 -254h120zM676 20q0 -15 -11 -19l-82 -31q-19 -7 -25.5 -15t-6.5 -22q0 -12 8.5 -16t28.5 -4q14 0 40 4.5t31 4.5q7 0 7 -6q0 -1 -3 -16l-12 -65q-2 -11 -14 -17q-49 -22 -115 -22q-54 0 -90 21t-36 67q0 79 74 119 l-3 155h-178l-53 -139q-8 -19 -23 -19h-177q-14 0 -14 13q0 2 2 8l242 612q27 69 80 94t133 25q81 0 124.5 -25t46.5 -94l26 -612v-1z"/>
<glyph glyph-name="aogonek" horiz-adv-x="612" unicode="ą" d="M443 428q-34 4 -60 4q-43 0 -64 -21.5t-31 -80.5l-19 -107q-2 -9 -2 -25q0 -46 46 -46q41 0 86 27zM655 542q0 -5 -1 -8l-90 -514q-3 -15 -16 -20l-57 -20q-59 -20 -59 -47q0 -12 8.5 -16t28.5 -4q14 0 40 4.5t31 4.5q7 0 7 -6q0 -1 -3 -16l-12 -65q-3 -14 -14 -17 q-66 -19 -128 -19q-48 0 -80.5 20t-32.5 65q0 37 19.5 61t70.5 54l33 19l4 33q-78 -60 -154 -60q-75 0 -124.5 52t-49.5 143q0 24 6 58l17 101q23 135 102 190.5t204 55.5q92 0 219 -25q12 -2 17 -4t9.5 -7t4.5 -13z"/>
<glyph glyph-name="Cacute" horiz-adv-x="555" unicode="Ć" d="M673 935q0 -5 -6 -9l-147 -120q-14 -11 -26 -11h-129q-8 0 -8 6q0 5 6 11l111 114q15 15 30 15h158q11 0 11 -6zM643 717v-5l-23 -128q-3 -19 -21 -19h-3q-90 9 -139 9q-48 0 -80.5 -30.5t-48.5 -120.5l-19 -103q-6 -36 -6 -61q0 -52 22.5 -71t60.5 -19q49 0 141 9h3 q15 0 15 -14v-5l-23 -128q-2 -15 -25 -22q-56 -18 -142 -18q-116 0 -188 64t-72 184q0 35 8 81l19 103q33 181 123.5 255.5t240.5 74.5q85 0 138 -19q19 -7 19 -17z"/>
<glyph glyph-name="cacute" horiz-adv-x="475" unicode="ć" d="M586 773q0 -5 -6 -9l-147 -120q-14 -11 -26 -11h-129q-8 0 -8 6q0 5 6 11l111 114q15 15 30 15h158q11 0 11 -6zM534 559v-5l-20 -113q-3 -19 -23 -19h-2q-1 0 -42.5 3.5t-70.5 3.5q-35 0 -55.5 -21t-30.5 -80l-13 -75q-4 -23 -4 -43q0 -32 13.5 -44.5t40.5 -12.5 q11 0 116 6h2q16 0 16 -15v-4l-20 -112q-3 -16 -24 -21q-70 -16 -140 -16q-94 0 -145.5 57t-51.5 148q0 24 5 57l13 75q45 263 285 263q72 0 134 -16q17 -5 17 -16z"/>
<glyph glyph-name="Ccircumflex" horiz-adv-x="555" unicode="Ĉ" d="M664 804q0 -9 -10 -9h-120q-14 0 -22 11l-46 59l-66 -59q-12 -11 -26 -11h-128q-8 0 -8 6q0 5 6 11l106 114q15 15 30 15h190q17 0 26 -15l66 -114q2 -3 2 -8zM643 717v-5l-23 -128q-3 -19 -21 -19h-3q-90 9 -139 9q-48 0 -80.5 -30.5t-48.5 -120.5l-19 -103 q-6 -36 -6 -61q0 -52 22.5 -71t60.5 -19q49 0 141 9h3q15 0 15 -14v-5l-23 -128q-2 -15 -25 -22q-56 -18 -142 -18q-116 0 -188 64t-72 184q0 35 8 81l19 103q33 181 123.5 255.5t240.5 74.5q85 0 138 -19q19 -7 19 -17z"/>
<glyph glyph-name="ccircumflex" horiz-adv-x="475" unicode="ĉ" d="M573 642q0 -9 -10 -9h-120q-14 0 -22 11l-46 59l-66 -59q-12 -11 -26 -11h-128q-8 0 -8 6q0 5 6 11l106 114q15 15 30 15h190q17 0 26 -15l66 -114q2 -3 2 -8zM534 559v-5l-20 -113q-3 -19 -23 -19h-2q-1 0 -42.5 3.5t-70.5 3.5q-35 0 -55.5 -21t-30.5 -80l-13 -75 q-4 -23 -4 -43q0 -32 13.5 -44.5t40.5 -12.5q11 0 116 6h2q16 0 16 -15v-4l-20 -112q-3 -16 -24 -21q-70 -16 -140 -16q-94 0 -145.5 57t-51.5 148q0 24 5 57l13 75q45 263 285 263q72 0 134 -16q17 -5 17 -16z"/>
<glyph glyph-name="Cdotaccent" horiz-adv-x="555" unicode="Ċ" d="M581 955q18 0 18 -14q0 -1 -0.5 -3t-0.5 -3l-19 -109q-4 -20 -25 -20h-146q-17 0 -17 13q0 1 0.5 3.5t0.5 3.5l19 109q4 20 24 20h146zM643 717v-5l-23 -128q-3 -19 -21 -19h-3q-90 9 -139 9q-48 0 -80.5 -30.5t-48.5 -120.5l-19 -103q-6 -36 -6 -61q0 -52 22.5 -71 t60.5 -19q49 0 141 9h3q15 0 15 -14v-5l-23 -128q-2 -15 -25 -22q-56 -18 -142 -18q-116 0 -188 64t-72 184q0 35 8 81l19 103q33 181 123.5 255.5t240.5 74.5q85 0 138 -19q19 -7 19 -17z"/>
<glyph glyph-name="cdotaccent" horiz-adv-x="475" unicode="ċ" d="M494 782q18 0 18 -14q0 -1 -0.5 -3t-0.5 -3l-19 -109q-4 -20 -25 -20h-146q-17 0 -17 13q0 1 0.5 3.5t0.5 3.5l19 109q4 20 24 20h146zM534 559v-5l-20 -113q-3 -19 -23 -19h-2q-1 0 -42.5 3.5t-70.5 3.5q-35 0 -55.5 -21t-30.5 -80l-13 -75q-4 -23 -4 -43 q0 -32 13.5 -44.5t40.5 -12.5q11 0 116 6h2q16 0 16 -15v-4l-20 -112q-3 -16 -24 -21q-70 -16 -140 -16q-94 0 -145.5 57t-51.5 148q0 24 5 57l13 75q45 263 285 263q72 0 134 -16q17 -5 17 -16z"/>
<glyph glyph-name="Ccaron" horiz-adv-x="555" unicode="Č" d="M266 932q0 9 10 9h120q14 0 22 -11l46 -59l66 59q12 11 26 11h128q8 0 8 -6q0 -5 -6 -11l-106 -114q-15 -15 -30 -15h-190q-17 0 -26 15l-66 114q-2 3 -2 8zM643 717v-5l-23 -128q-3 -19 -21 -19h-3q-90 9 -139 9q-48 0 -80.5 -30.5t-48.5 -120.5l-19 -103q-6 -36 -6 -61 q0 -52 22.5 -71t60.5 -19q49 0 141 9h3q15 0 15 -14v-5l-23 -128q-2 -15 -25 -22q-56 -18 -142 -18q-116 0 -188 64t-72 184q0 35 8 81l19 103q33 181 123.5 255.5t240.5 74.5q85 0 138 -19q19 -7 19 -17z"/>
<glyph glyph-name="ccaron" horiz-adv-x="475" unicode="č" d="M176 770q0 9 10 9h120q14 0 22 -11l46 -59l66 59q12 11 26 11h128q8 0 8 -6q0 -5 -6 -11l-106 -114q-15 -15 -30 -15h-190q-17 0 -26 15l-66 114q-2 3 -2 8zM534 559v-5l-20 -113q-3 -19 -23 -19h-2q-1 0 -42.5 3.5t-70.5 3.5q-35 0 -55.5 -21t-30.5 -80l-13 -75 q-4 -23 -4 -43q0 -32 13.5 -44.5t40.5 -12.5q11 0 116 6h2q16 0 16 -15v-4l-20 -112q-3 -16 -24 -21q-70 -16 -140 -16q-94 0 -145.5 57t-51.5 148q0 24 5 57l13 75q45 263 285 263q72 0 134 -16q17 -5 17 -16z"/>
<glyph glyph-name="Dcaron" horiz-adv-x="697" unicode="Ď" d="M291 932q0 9 10 9h120q14 0 22 -11l46 -59l66 59q12 11 26 11h128q8 0 8 -6q0 -5 -6 -11l-106 -114q-15 -15 -30 -15h-190q-17 0 -26 15l-66 114q-2 3 -2 8zM527 489q0 51 -24 70.5t-75 19.5q-7 0 -30.5 -0.5t-26.5 -0.5l-73 -413q7 -1 57 -1q63 0 97.5 33t49.5 120 l19 110q6 36 6 62zM733 503q0 -38 -7 -76l-19 -110q-30 -170 -123.5 -248t-259.5 -78q-132 0 -226 17q-26 5 -26 27q0 7 1 12l115 650q4 19 12.5 27.5t26.5 11.5q100 17 232 17q128 0 201 -65t73 -185z"/>
<glyph glyph-name="dcaron" horiz-adv-x="857" unicode="ď" d="M847 773h142q11 0 11 -9q0 -6 -3 -10l-140 -230q-10 -19 -22 -19h-109q-11 0 -11 9q0 4 3 10l105 230q8 19 24 19zM445 428q-40 4 -67 4q-72 0 -90 -102l-14 -78q-4 -19 -4 -39q0 -64 58 -64q37 0 69 5zM694 756v-3l-125 -705q-2 -15 -9.5 -21t-30.5 -11 q-123 -25 -229 -25q-102 0 -162 58.5t-60 151.5q0 21 5 51l14 78q25 138 97 199.5t209 61.5q23 0 70 -7l30 169q4 20 23 20h149q8 0 13.5 -5t5.5 -12z"/>
<glyph glyph-name="Dcroat" horiz-adv-x="697" unicode="Đ" d="M527 489q0 51 -24 70.5t-75 19.5q-7 0 -30.5 -0.5t-26.5 -0.5l-22 -122h53q16 0 16 -15v-4l-21 -119q-4 -20 -22 -20h-53l-24 -133q7 -1 57 -1q63 0 97.5 33t49.5 120l19 110q6 36 6 62zM733 503q0 -38 -7 -76l-19 -110q-29 -170 -123 -248t-260 -78q-132 0 -226 17 q-26 5 -26 27q0 7 1 12l44 251h-50q-8 0 -13 6t-4 14l21 119q3 19 23 19h51l43 241q6 33 39 39q100 17 232 17q128 0 201 -65t73 -185z"/>
<glyph glyph-name="dcroat" horiz-adv-x="616" unicode="đ" d="M445 428q-40 4 -67 4q-72 0 -90 -102l-14 -78q-4 -19 -4 -39q0 -64 58 -64q37 0 69 5zM382 721h115l6 32q4 20 23 20h149q8 0 13.5 -5t5.5 -12v-3l-6 -32h35q19 0 16 -19l-8 -49q-4 -20 -22 -20h-37l-103 -585q-2 -15 -9.5 -21t-30.5 -11q-123 -25 -229 -25 q-102 0 -162 58.5t-60 151.5q0 21 5 51l14 78q25 138 97 199.5t209 61.5q23 0 70 -7l8 49h-113q-18 0 -18 14q0 1 0.5 3t0.5 3l8 49q3 19 23 19z"/>
<glyph glyph-name="Emacron" horiz-adv-x="586" unicode="Ē" d="M641 932q21 0 17 -19l-16 -88q-4 -20 -23 -20h-339q-18 0 -18 14q0 1 0.5 3t0.5 3l16 88q3 19 23 19h339zM659 725v-4l-21 -122q-4 -20 -24 -20h-202q-27 0 -39.5 -11t-17.5 -39l-13 -73h246q17 0 17 -17v-3l-21 -118q-4 -20 -23 -20h-246l-15 -83q-2 -16 -2 -20 q0 -17 9.5 -23.5t31.5 -6.5h202q17 0 17 -17v-3l-22 -122q-3 -17 -23 -20q-94 -12 -197 -12q-98 0 -161 41t-63 132q0 21 5 51l55 314q10 59 31 101t47 65.5t64 36.5t72 17t82 4q106 0 195 -12q16 -1 16 -16z"/>
<glyph glyph-name="emacron" horiz-adv-x="602" unicode="ē" d="M606 771q18 0 18 -13q0 -1 -0.5 -3t-0.5 -3l-16 -88q-4 -20 -23 -20h-339q-18 0 -18 14q0 1 0.5 3t0.5 3l16 88q3 19 23 19h339zM443 383q0 59 -61 59q-71 0 -92 -99h148q5 23 5 40zM623 376q0 -25 -5 -57l-10 -60q-1 -10 -8.5 -16t-16.5 -6h-311q-3 -18 -3 -31 q0 -35 20 -46t62 -11q116 0 192 8h4q15 0 15 -13v-4l-16 -90q-4 -22 -25 -28q-99 -31 -219 -31q-90 0 -155.5 55.5t-65.5 155.5q0 27 4 51l11 66q45 272 314 272q104 0 158.5 -60.5t54.5 -154.5z"/>
<glyph glyph-name="Ebreve" horiz-adv-x="586" unicode="Ĕ" d="M572 951h106q12 0 12 -7q0 -4 -1 -6q-29 -79 -84.5 -111t-136.5 -32q-69 0 -121.5 39t-63.5 104q-2 13 9 13h109q4 0 6 -0.5t3.5 -1.5t2.5 -3t1.5 -3.5t0.5 -4.5q3 -25 22.5 -35.5t42.5 -10.5q52 0 74 46q6 13 18 13zM659 725v-4l-21 -122q-4 -20 -24 -20h-202 q-27 0 -39.5 -11t-17.5 -39l-13 -73h246q17 0 17 -17v-3l-21 -118q-4 -20 -23 -20h-246l-15 -83q-2 -16 -2 -20q0 -17 9.5 -23.5t31.5 -6.5h202q17 0 17 -17v-3l-22 -122q-3 -17 -23 -20q-94 -12 -197 -12q-98 0 -161 41t-63 132q0 21 5 51l55 314q10 59 31 101t47 65.5 t64 36.5t72 17t82 4q106 0 195 -12q16 -1 16 -16z"/>
<glyph glyph-name="ebreve" horiz-adv-x="602" unicode="ĕ" d="M519 779h106q12 0 12 -7q0 -4 -1 -6q-29 -79 -84.5 -111t-136.5 -32q-69 0 -121.5 39t-63.5 104q-2 13 9 13h109q4 0 6 -0.5t3.5 -1.5t2.5 -3t1.5 -3.5t0.5 -4.5q3 -25 22.5 -35.5t42.5 -10.5q52 0 74 46q6 13 18 13zM443 383q0 59 -61 59q-71 0 -92 -99h148q5 23 5 40z M623 376q0 -25 -5 -57l-10 -60q-1 -10 -8.5 -16t-16.5 -6h-311q-3 -18 -3 -31q0 -35 20 -46t62 -11q116 0 192 8h4q15 0 15 -13v-4l-16 -90q-4 -22 -25 -28q-99 -31 -219 -31q-90 0 -155.5 55.5t-65.5 155.5q0 27 4 51l11 66q45 272 314 272q104 0 158.5 -60.5t54.5 -154.5z "/>
<glyph glyph-name="Edotaccent" horiz-adv-x="586" unicode="Ė" d="M552 943q18 0 18 -14q0 -1 -0.5 -3t-0.5 -3l-19 -109q-4 -20 -25 -20h-146q-17 0 -17 13q0 1 0.5 3.5t0.5 3.5l19 109q4 20 24 20h146zM659 725v-4l-21 -122q-4 -20 -24 -20h-202q-27 0 -39.5 -11t-17.5 -39l-13 -73h246q17 0 17 -17v-3l-21 -118q-4 -20 -23 -20h-246 l-15 -83q-2 -16 -2 -20q0 -17 9.5 -23.5t31.5 -6.5h202q17 0 17 -17v-3l-22 -122q-3 -17 -23 -20q-94 -12 -197 -12q-98 0 -161 41t-63 132q0 21 5 51l55 314q10 59 31 101t47 65.5t64 36.5t72 17t82 4q106 0 195 -12q16 -1 16 -16z"/>
<glyph glyph-name="edotaccent" horiz-adv-x="602" unicode="ė" d="M516 782q18 0 18 -14q0 -1 -0.5 -3t-0.5 -3l-19 -109q-4 -20 -25 -20h-146q-17 0 -17 13q0 1 0.5 3.5t0.5 3.5l19 109q4 20 24 20h146zM443 383q0 59 -61 59q-71 0 -92 -99h148q5 23 5 40zM623 376q0 -25 -5 -57l-10 -60q-1 -10 -8.5 -16t-16.5 -6h-311q-3 -18 -3 -31 q0 -35 20 -46t62 -11q116 0 192 8h4q15 0 15 -13v-4l-16 -90q-4 -22 -25 -28q-99 -31 -219 -31q-90 0 -155.5 55.5t-65.5 155.5q0 27 4 51l11 66q45 272 314 272q104 0 158.5 -60.5t54.5 -154.5z"/>
<glyph glyph-name="Eogonek" horiz-adv-x="586" unicode="Ę" d="M659 725v-4l-21 -122q-4 -20 -24 -20h-202q-27 0 -39.5 -11t-17.5 -39l-13 -73h246q17 0 17 -17v-3l-21 -118q-4 -20 -23 -20h-246l-15 -83q-2 -16 -2 -20q0 -17 9.5 -23.5t31.5 -6.5h202q17 0 17 -17v-3l-22 -122q-3 -17 -23 -20q-4 0 -15 -1.5t-18 -2.5l-48 -29 q-11 -7 -15 -9.5t-9 -7t-6.5 -9t-1.5 -11.5q0 -12 8.5 -16t28.5 -4q14 0 40 4.5t31 4.5q7 0 7 -6q0 -1 -3 -16l-12 -65q-3 -14 -14 -17q-66 -19 -128 -19q-48 0 -80.5 20t-32.5 65q0 35 16 59.5t55 47.5q-98 0 -161 41t-63 132q0 21 5 51l55 314q10 59 31 101t47 65.5 t64 36.5t72 17t82 4q106 0 195 -12q16 -1 16 -16z"/>
<glyph glyph-name="eogonek" horiz-adv-x="602" unicode="ę" d="M443 383q0 59 -61 59q-71 0 -92 -99h148q5 23 5 40zM623 376q0 -25 -5 -57l-10 -60q-1 -10 -8.5 -16t-16.5 -6h-311q-3 -18 -3 -31q0 -35 20 -46t62 -11q112 0 192 8h4q16 0 16 -12q0 -1 -0.5 -2.5t-0.5 -2.5l-16 -90q-3 -17 -23 -28l-88 -52q-19 -11 -25.5 -17.5 t-6.5 -19.5q0 -12 8.5 -16t28.5 -4q14 0 38 4.5t27 4.5q9 0 11 -5t-1 -17l-12 -65q-1 -6 -2.5 -8.5t-5.5 -5.5t-13 -5q-59 -17 -121 -17q-48 0 -80.5 20t-32.5 65q0 35 16 59.5t55 47.5h-17q-90 0 -155.5 55.5t-65.5 155.5q0 27 4 51l11 66q45 272 314 272 q104 0 158.5 -60.5t54.5 -154.5z"/>
<glyph glyph-name="Ecaron" horiz-adv-x="586" unicode="Ě" d="M275 932q0 9 10 9h120q14 0 22 -11l46 -59l66 59q12 11 26 11h128q8 0 8 -6q0 -5 -6 -11l-106 -114q-15 -15 -30 -15h-190q-17 0 -26 15l-66 114q-2 3 -2 8zM659 725v-4l-21 -122q-4 -20 -24 -20h-202q-27 0 -39.5 -11t-17.5 -39l-13 -73h246q17 0 17 -17v-3l-21 -118 q-4 -20 -23 -20h-246l-15 -83q-2 -16 -2 -20q0 -17 9.5 -23.5t31.5 -6.5h202q17 0 17 -17v-3l-22 -122q-3 -17 -23 -20q-94 -12 -197 -12q-98 0 -161 41t-63 132q0 21 5 51l55 314q10 59 31 101t47 65.5t64 36.5t72 17t82 4q106 0 195 -12q16 -1 16 -16z"/>
<glyph glyph-name="ecaron" horiz-adv-x="602" unicode="ě" d="M226 770q0 9 10 9h120q14 0 22 -11l46 -59l66 59q12 11 26 11h128q8 0 8 -6q0 -5 -6 -11l-106 -114q-15 -15 -30 -15h-190q-17 0 -26 15l-66 114q-2 3 -2 8zM443 383q0 59 -61 59q-71 0 -92 -99h148q5 23 5 40zM623 376q0 -25 -5 -57l-10 -60q-1 -10 -8.5 -16t-16.5 -6 h-311q-3 -18 -3 -31q0 -35 20 -46t62 -11q116 0 192 8h4q15 0 15 -13v-4l-16 -90q-4 -22 -25 -28q-99 -31 -219 -31q-90 0 -155.5 55.5t-65.5 155.5q0 27 4 51l11 66q45 272 314 272q104 0 158.5 -60.5t54.5 -154.5z"/>
<glyph glyph-name="Gcircumflex" horiz-adv-x="657" unicode="Ĝ" d="M716 804q0 -9 -10 -9h-120q-14 0 -22 11l-46 59l-66 -59q-12 -11 -26 -11h-128q-8 0 -8 6q0 5 6 11l106 114q15 15 30 15h190q17 0 26 -15l66 -114q2 -3 2 -8zM725 712l-1 -2v-3l-23 -126q-3 -16 -16 -16h-3q-171 9 -192 9q-77 0 -112.5 -31t-51.5 -119l-19 -106 q-6 -37 -6 -63q0 -52 20.5 -71t54.5 -19q30 0 56 3l36 205q4 20 22 20h158q17 0 17 -17v-3l-59 -335q-2 -11 -7 -16t-18 -7q-120 -24 -236 -24q-45 0 -87 13.5t-80 41.5t-61 78t-23 116q0 40 7 79l19 105q15 84 45.5 145.5t66 96t83 55t88.5 26.5t91 6q118 0 214 -27 q17 -5 17 -14z"/>
<glyph glyph-name="gcircumflex" horiz-adv-x="605" unicode="ĝ" d="M637 642q0 -9 -10 -9h-120q-14 0 -22 11l-46 59l-66 -59q-12 -11 -26 -11h-128q-8 0 -8 6q0 5 6 11l106 114q15 15 30 15h190q17 0 26 -15l66 -114q2 -3 2 -8zM444 427q-47 5 -71 5q-41 0 -60.5 -23t-29.5 -79l-10 -57q-4 -21 -4 -42q0 -61 58 -61q23 0 73 5zM651 538 l-95 -536q-20 -114 -88 -160t-208 -46q-108 0 -190 30q-15 5 -15 22v6l15 82q1 6 1.5 7.5t2.5 5.5t5 5.5t8 1.5q1 0 3 -0.5t3 -0.5q86 -12 193 -12q43 0 60 12t23 47l3 17q-35 -7 -73 -7q-106 0 -164 57.5t-58 149.5q0 24 5 54l10 57q25 142 102 201.5t207 59.5 q137 0 220 -23q18 -5 24.5 -9t6.5 -13q0 -1 -0.5 -3.5t-0.5 -4.5z"/>
<glyph glyph-name="Gbreve" horiz-adv-x="657" unicode="Ğ" d="M598 940h106q15 0 11 -13q-29 -79 -84.5 -111t-136.5 -32q-69 0 -121.5 39t-63.5 104q-2 13 9 13h109q4 0 6 -0.5t3.5 -1.5t2.5 -3t1.5 -3.5t0.5 -4.5q3 -25 22.5 -35.5t42.5 -10.5q52 0 74 46q6 13 18 13zM725 712l-1 -2v-3l-23 -126q-3 -16 -16 -16h-3q-171 9 -192 9 q-77 0 -112.5 -31t-51.5 -119l-19 -106q-6 -37 -6 -63q0 -52 20.5 -71t54.5 -19q30 0 56 3l36 205q4 20 22 20h158q17 0 17 -17v-3l-59 -335q-2 -11 -7 -16t-18 -7q-120 -24 -236 -24q-45 0 -87 13.5t-80 41.5t-61 78t-23 116q0 40 7 79l19 105q15 84 45.5 145.5t66 96 t83 55t88.5 26.5t91 6q118 0 214 -27q17 -5 17 -14z"/>
<glyph glyph-name="gbreve" horiz-adv-x="605" unicode="ğ" d="M525 779h106q15 0 11 -13q-29 -79 -84.5 -111t-136.5 -32q-69 0 -121.5 39t-63.5 104q-2 13 9 13h109q4 0 6 -0.5t3.5 -1.5t2.5 -3t1.5 -3.5t0.5 -4.5q3 -25 22.5 -35.5t42.5 -10.5q52 0 74 46q6 13 18 13zM444 427q-47 5 -71 5q-41 0 -60.5 -23t-29.5 -79l-10 -57 q-4 -21 -4 -42q0 -61 58 -61q23 0 73 5zM651 538l-95 -536q-20 -114 -88 -160t-208 -46q-108 0 -190 30q-15 5 -15 22v6l15 82q1 6 1.5 7.5t2.5 5.5t5 5.5t8 1.5q1 0 3 -0.5t3 -0.5q86 -12 193 -12q43 0 60 12t23 47l3 17q-35 -7 -73 -7q-106 0 -164 57.5t-58 149.5 q0 24 5 54l10 57q25 142 102 201.5t207 59.5q137 0 220 -23q18 -5 24.5 -9t6.5 -13q0 -1 -0.5 -3.5t-0.5 -4.5z"/>
<glyph glyph-name="Gdotaccent" horiz-adv-x="657" unicode="Ġ" d="M616 954q18 0 18 -14q0 -1 -0.5 -3t-0.5 -3l-19 -109q-4 -20 -25 -20h-146q-17 0 -17 13q0 1 0.5 3.5t0.5 3.5l19 109q4 20 24 20h146zM725 712l-1 -2v-3l-23 -126q-3 -16 -16 -16h-3q-171 9 -192 9q-77 0 -112.5 -31t-51.5 -119l-19 -106q-6 -37 -6 -63q0 -52 20.5 -71 t54.5 -19q30 0 56 3l36 205q4 20 22 20h158q17 0 17 -17v-3l-59 -335q-2 -11 -7 -16t-18 -7q-120 -24 -236 -24q-45 0 -87 13.5t-80 41.5t-61 78t-23 116q0 40 7 79l19 105q15 84 45.5 145.5t66 96t83 55t88.5 26.5t91 6q118 0 214 -27q17 -5 17 -14z"/>
<glyph glyph-name="gdotaccent" horiz-adv-x="605" unicode="ġ" d="M537 782q18 0 18 -14q0 -1 -0.5 -3t-0.5 -3l-19 -109q-4 -20 -25 -20h-146q-17 0 -17 13q0 1 0.5 3.5t0.5 3.5l19 109q4 20 24 20h146zM444 427q-47 5 -71 5q-41 0 -60.5 -23t-29.5 -79l-10 -57q-4 -21 -4 -42q0 -61 58 -61q23 0 73 5zM651 538l-95 -536 q-20 -114 -88 -160t-208 -46q-108 0 -190 30q-15 5 -15 22v6l15 82q1 6 1.5 7.5t2.5 5.5t5 5.5t8 1.5q1 0 3 -0.5t3 -0.5q86 -12 193 -12q43 0 60 12t23 47l3 17q-35 -7 -73 -7q-106 0 -164 57.5t-58 149.5q0 24 5 54l10 57q25 142 102 201.5t207 59.5q137 0 220 -23 q18 -5 24.5 -9t6.5 -13q0 -1 -0.5 -3.5t-0.5 -4.5z"/>
<glyph glyph-name="Gcommaaccent" horiz-adv-x="657" unicode="Ģ" d="M286 -52h146q12 0 12 -9q0 -5 -4 -10l-76 -108q-12 -20 -25 -20h-112q-13 0 -13 9q0 3 2 11l46 108q8 19 24 19zM725 712l-1 -2v-3l-23 -126q-3 -16 -16 -16h-3q-171 9 -192 9q-77 0 -112.5 -31t-51.5 -119l-19 -106q-6 -37 -6 -63q0 -52 20.5 -71t54.5 -19q30 0 56 3 l36 205q4 20 22 20h158q17 0 17 -17v-3l-59 -335q-2 -11 -7 -16t-18 -7q-120 -24 -236 -24q-45 0 -87 13.5t-80 41.5t-61 78t-23 116q0 40 7 79l19 105q15 84 45.5 145.5t66 96t83 55t88.5 26.5t91 6q118 0 214 -27q17 -5 17 -14z"/>
<glyph glyph-name="gcommaaccent" horiz-adv-x="605" unicode="ģ" d="M395 760q12 20 25 20h112q14 0 14 -9q0 -5 -3 -11l-46 -108q-9 -19 -24 -19h-146q-12 0 -12 9q0 5 4 10zM444 427q-47 5 -71 5q-41 0 -60.5 -23t-29.5 -79l-10 -57q-4 -21 -4 -42q0 -61 58 -61q23 0 73 5zM651 538l-95 -536q-20 -114 -88 -160t-208 -46q-108 0 -190 30 q-15 5 -15 22v6l15 82q1 6 1.5 7.5t2.5 5.5t5 5.5t8 1.5q1 0 3 -0.5t3 -0.5q86 -12 193 -12q43 0 60 12t23 47l3 17q-35 -7 -73 -7q-106 0 -164 57.5t-58 149.5q0 24 5 54l10 57q25 142 102 201.5t207 59.5q137 0 220 -23q18 -5 24.5 -9t6.5 -13q0 -1 -0.5 -3.5t-0.5 -4.5z "/>
<glyph glyph-name="Hcircumflex" horiz-adv-x="746" unicode="Ĥ" d="M725 804q0 -9 -10 -9h-120q-14 0 -22 11l-46 59l-66 -59q-12 -11 -26 -11h-128q-8 0 -8 6q0 5 6 11l106 114q15 15 30 15h190q17 0 26 -15l66 -114q2 -3 2 -8zM809 727v-3l-124 -704q-4 -20 -24 -20h-163q-16 0 -16 16v4l47 272h-209l-47 -272q-4 -20 -24 -20h-163 q-17 0 -17 17v3l124 704q1 8 8.5 13.5t15.5 5.5h163q17 0 17 -16v-3l-45 -256h209l45 256q3 19 23 19h163q17 0 17 -16z"/>
<glyph glyph-name="hcircumflex" d="M678 804q0 -9 -10 -9h-120q-14 0 -22 11l-46 59l-66 -59q-12 -11 -26 -11h-128q-8 0 -8 6q0 5 6 11l106 114q15 15 30 15h190q17 0 26 -15l66 -114q2 -3 2 -8zM647 418q0 -20 -5 -50l-61 -347q-4 -21 -24 -21h-151q-18 0 -18 14q0 1 0.5 3.5t0.5 3.5l57 322q6 32 6 48 q0 23 -14 31.5t-49 8.5q-38 0 -66 -7l-71 -402q-4 -22 -24 -22h-151q-19 0 -19 17q0 1 0.5 2.5t0.5 2.5l129 731q4 20 23 20h153q18 0 18 -14q0 -1 -0.5 -3t-0.5 -3l-32 -178q48 16 111 16q88 0 137.5 -46.5t49.5 -126.5z" unicode="ĥ"/>
<glyph glyph-name="Hbar" horiz-adv-x="746" unicode="Ħ" d="M352 468h209l15 85h-209zM135 661h47l11 63q1 8 8.5 13.5t15.5 5.5h163q17 0 17 -16v-3l-11 -63h209l11 63q3 19 23 19h163q17 0 17 -16v-3l-11 -63h44q8 0 13 -5.5t4 -13.5l-12 -69q-4 -20 -24 -20h-44l-94 -533q-4 -20 -24 -20h-163q-16 0 -16 16v4l47 272h-209 l-47 -272q-4 -20 -24 -20h-163q-17 0 -17 17v3l94 533h-47q-8 0 -12.5 6t-2.5 14l12 69q3 19 22 19z"/>
<glyph glyph-name="hbar" d="M464 633h-105l-10 -58q72 16 111 16q88 0 137.5 -46.5t49.5 -126.5q0 -20 -5 -50l-61 -347q-3 -21 -24 -21h-151q-18 0 -18 15q0 1 0.5 3t0.5 3l61 345q3 14 3 24q0 23 -14.5 32t-49.5 9q-38 0 -66 -7l-71 -402q-4 -22 -24 -22h-151q-19 0 -19 17q0 1 0.5 2.5t0.5 2.5 l108 611h-44q-18 0 -18 14q0 1 0.5 3t0.5 3l8 49q3 19 23 19h45l6 32q4 20 23 20h153q21 0 17 -20l-6 -32h103q19 0 16 -19l-8 -49q-4 -20 -22 -20z" unicode="ħ"/>
<glyph glyph-name="Itilde" horiz-adv-x="334" unicode="Ĩ" d="M442 951h83q17 0 14 -17l-3 -18q-12 -69 -47 -98t-99 -29q-48 0 -84 24l-31 21q-22 15 -36 15q-19 0 -23 -20l-3 -17q-3 -17 -19 -17h-84q-17 0 -14 17l3 17q22 127 150 127q46 0 80 -23l32 -21q26 -16 36 -16q18 0 22 21l3 17q3 17 20 17zM380 743q20 0 17 -19 l-124 -704q-4 -20 -24 -20h-164q-9 0 -13.5 6t-2.5 14l124 704q3 19 23 19h164z"/>
<glyph glyph-name="itilde" horiz-adv-x="313" unicode="ĩ" d="M404 789h83q17 0 14 -17l-3 -18q-12 -69 -47 -98t-99 -29q-48 0 -84 24l-31 21q-22 15 -36 15q-19 0 -23 -20l-3 -17q-3 -17 -19 -17h-84q-17 0 -14 17l3 17q22 127 150 127q46 0 80 -23l32 -21q26 -16 36 -16q18 0 22 21l3 17q3 17 20 17zM352 564v-3l-95 -539 q-1 -8 -9.5 -15t-16.5 -7h-149q-7 0 -12.5 5.5t-5.5 13.5v3l95 539q1 8 9.5 14.5t16.5 6.5h149q8 0 13 -5t5 -13z"/>
<glyph glyph-name="Imacron" horiz-adv-x="334" unicode="Ī" d="M497 932q18 0 18 -13q0 -1 -0.5 -3t-0.5 -3l-16 -88q-4 -20 -23 -20h-339q-18 0 -18 14q0 1 0.5 3t0.5 3l16 88q3 19 23 19h339zM380 743q20 0 17 -19l-124 -704q-4 -20 -24 -20h-164q-9 0 -13.5 6t-2.5 14l124 704q3 19 23 19h164z"/>
<glyph glyph-name="imacron" horiz-adv-x="313" unicode="ī" d="M453 771q18 0 18 -13q0 -1 -0.5 -3t-0.5 -3l-16 -88q-4 -20 -23 -20h-339q-18 0 -18 14q0 1 0.5 3t0.5 3l16 88q3 19 23 19h339zM352 564v-3l-95 -539q-1 -8 -9.5 -15t-16.5 -7h-149q-7 0 -12.5 5.5t-5.5 13.5v3l95 539q1 8 9.5 14.5t16.5 6.5h149q8 0 13 -5t5 -13z"/>
<glyph glyph-name="Ibreve" horiz-adv-x="334" unicode="Ĭ" d="M409 949h106q12 0 12 -7q0 -4 -1 -6q-29 -79 -84.5 -111t-136.5 -32q-69 0 -121.5 39t-63.5 104q-2 13 9 13h109q4 0 6 -0.5t3.5 -1.5t2.5 -3t1.5 -3.5t0.5 -4.5q3 -25 22.5 -35.5t42.5 -10.5q52 0 74 46q6 13 18 13zM380 743q20 0 17 -19l-124 -704q-4 -20 -24 -20h-164 q-9 0 -13.5 6t-2.5 14l124 704q3 19 23 19h164z"/>
<glyph glyph-name="ibreve" horiz-adv-x="313" unicode="ĭ" d="M366 779h106q12 0 12 -7q0 -4 -1 -6q-29 -79 -84.5 -111t-136.5 -32q-69 0 -121.5 39t-63.5 104q-2 13 9 13h109q4 0 6 -0.5t3.5 -1.5t2.5 -3t1.5 -3.5t0.5 -4.5q3 -25 22.5 -35.5t42.5 -10.5q52 0 74 46q6 13 18 13zM352 564v-3l-95 -539q-1 -8 -9.5 -15t-16.5 -7h-149 q-7 0 -12.5 5.5t-5.5 13.5v3l95 539q1 8 9.5 14.5t16.5 6.5h149q8 0 13 -5t5 -13z"/>
<glyph glyph-name="Iogonek" horiz-adv-x="334" unicode="Į" d="M272 20q-2 -12 -12 -17l-64 -27q-28 -12 -37.5 -19.5t-9.5 -21.5q0 -22 35 -22q12 0 42 4.5t35 4.5q11 0 11 -9q0 -7 -4 -29l-9 -50q-1 -9 -13 -15q-50 -20 -122 -20q-135 0 -135 85q0 39 19.5 66.5t56.5 52.5l127 721q3 19 24 19h164q16 0 16 -15v-4z"/>
<glyph glyph-name="iogonek" horiz-adv-x="313" unicode="į" d="M60 3l98 558q1 8 9.5 14.5t16.5 6.5h149q8 0 13.5 -6.5t4.5 -14.5l-95 -542q-3 -13 -12 -18l-54 -25q-27 -12 -37 -19.5t-10 -19.5q0 -24 41 -24q17 0 44.5 3.5t30.5 3.5q9 0 9 -5q0 -1 -1 -5.5t-2.5 -12.5t-2.5 -15l-9 -48q-1 -9 -13 -15q-50 -20 -122 -20 q-28 0 -48 2.5t-42 10.5t-33.5 26.5t-11.5 46.5q0 40 19.5 66.5t57.5 51.5zM373 657q-1 -8 -9 -14t-16 -6h-158q-20 0 -20 15v5l18 98q1 8 9.5 14t16.5 6h158q20 0 20 -15q0 -2 -5 -27z"/>
<glyph glyph-name="Idotaccent" horiz-adv-x="334" unicode="İ" d="M406 943q18 0 18 -14q0 -1 -0.5 -3t-0.5 -3l-19 -109q-4 -20 -25 -20h-146q-17 0 -17 13q0 1 0.5 3.5t0.5 3.5l19 109q4 20 24 20h146zM380 743q20 0 17 -19l-124 -704q-4 -20 -24 -20h-164q-9 0 -13.5 6t-2.5 14l124 704q3 19 23 19h164z"/>
<glyph glyph-name="dotlessi" horiz-adv-x="313" unicode="ı" d="M352 564v-3l-95 -539q-1 -8 -9.5 -15t-16.5 -7h-149q-7 0 -12.5 5.5t-5.5 13.5v3l95 539q1 8 9.5 14.5t16.5 6.5h149q8 0 13 -5t5 -13z"/>
<glyph glyph-name="Jcircumflex" horiz-adv-x="334" unicode="Ĵ" d="M517 804q0 -9 -10 -9h-120q-14 0 -22 11l-46 59l-66 -59q-12 -11 -26 -11h-128q-8 0 -8 6q0 5 6 11l106 114q15 15 30 15h190q17 0 26 -15l66 -114q2 -3 2 -8zM396 727v-4l-127 -721q-19 -109 -72 -151.5t-139 -42.5q-45 0 -90 7q-17 3 -17 14q0 1 0.5 3t0.5 3l19 109 q4 20 24 20h37q16 0 23 9t10 29l127 721q1 8 9 14t16 6h163q16 0 16 -16z"/>
<glyph glyph-name="jcircumflex" horiz-adv-x="312" unicode="ĵ" d="M480 642q0 -9 -10 -9h-120q-14 0 -22 11l-46 59l-66 -59q-12 -11 -26 -11h-128q-8 0 -8 6q0 5 6 11l106 114q15 15 30 15h190q17 0 26 -15l66 -114q2 -3 2 -8zM352 564v-3l-103 -582q-19 -106 -65.5 -145.5t-135.5 -39.5q-42 0 -93 9q-16 3 -16 17v4l16 93q4 20 25 20h43 q17 0 23 9.5t10 32.5l103 582q1 8 9.5 14.5t16.5 6.5h149q8 0 13 -5t5 -13z"/>
<glyph glyph-name="Kcommaaccent" horiz-adv-x="713" unicode="Ķ" d="M294 -52h146q12 0 12 -9q0 -5 -4 -10l-76 -108q-12 -20 -25 -20h-112q-13 0 -13 9q0 3 2 11l46 108q8 19 24 19zM818 734q0 -6 -6 -13l-282 -348l154 -352q2 -4 2 -7q0 -14 -16 -14h-196q-12 0 -18 17l-127 327l-56 -324q-4 -20 -24 -20h-163q-17 0 -17 17v3l124 704 q1 8 8.5 13.5t15.5 5.5h163q17 0 17 -16v-3l-55 -312l242 315q12 16 25 16h197q12 0 12 -9z"/>
<glyph glyph-name="kcommaaccent" horiz-adv-x="627" unicode="ķ" d="M242 -52h146q12 0 12 -9q0 -5 -4 -10l-76 -108q-12 -20 -25 -20h-112q-13 0 -13 9q0 3 2 11l46 108q8 19 24 19zM503 582h186q12 0 12 -10q0 -6 -5 -11l-228 -259l128 -280q4 -8 0 -15t-13 -7h-180q-17 0 -25 22l-87 228l-40 -228q-2 -8 -9 -15t-15 -7h-150q-19 0 -19 17 q0 1 0.5 2.5t0.5 2.5l129 731q4 20 25 20h150q18 0 18 -14q0 -1 -0.5 -3t-0.5 -3l-72 -405l166 216q14 18 29 18z"/>
<glyph glyph-name="kgreenlandic" horiz-adv-x="627" unicode="ĸ" d="M689 582q12 0 12 -10q0 -6 -5 -11l-228 -259l126 -275q3 -8 3 -12q0 -15 -16 -15h-178q-17 0 -25 22l-87 228l-40 -228q-4 -22 -24 -22h-150q-19 0 -19 16q0 1 0.5 3t0.5 3l95 540q4 20 25 20h150q18 0 18 -13q0 -4 -1 -7l-38 -214l166 216q14 18 29 18h186z"/>
<glyph glyph-name="Lacute" horiz-adv-x="522" unicode="Ĺ" d="M592 935q0 -5 -6 -9l-147 -120q-14 -11 -26 -11h-129q-8 0 -8 6q0 5 6 11l111 114q15 15 30 15h158q11 0 11 -6zM525 148v-3l-22 -122q-3 -17 -23 -20q-65 -12 -158 -12q-45 0 -83 8t-71 27t-51.5 53.5t-18.5 83.5q0 20 5 52l89 508q1 8 9 14t16 6h163q16 0 16 -16v-4 l-89 -508q-2 -14 -2 -19q0 -17 9.5 -24t31.5 -7h162q17 0 17 -17z"/>
<glyph glyph-name="lacute" horiz-adv-x="304" unicode="ĺ" d="M504 935q0 -5 -6 -9l-147 -120q-14 -11 -26 -11h-129q-8 0 -8 6q0 5 6 11l111 114q15 15 30 15h158q11 0 11 -6zM364 773q20 0 17 -20l-129 -731q-4 -22 -24 -22h-151q-19 0 -19 16q0 1 0.5 3t0.5 3l129 731q4 20 25 20h151z"/>
<glyph glyph-name="Lcommaaccent" horiz-adv-x="522" unicode="Ļ" d="M218 -52h146q12 0 12 -9q0 -5 -4 -10l-76 -108q-12 -20 -25 -20h-112q-13 0 -13 9q0 3 2 11l46 108q8 19 24 19zM525 148v-3l-22 -122q-3 -17 -23 -20q-65 -12 -158 -12q-45 0 -83 8t-71 27t-51.5 53.5t-18.5 83.5q0 20 5 52l89 508q1 8 9 14t16 6h163q16 0 16 -16v-4 l-89 -508q-2 -14 -2 -19q0 -17 9.5 -24t31.5 -7h162q17 0 17 -17z"/>
<glyph glyph-name="lcommaaccent" horiz-adv-x="304" unicode="ļ" d="M68 -52h146q12 0 12 -9q0 -5 -4 -10l-76 -108q-12 -20 -25 -20h-112q-13 0 -13 9q0 3 2 11l46 108q8 19 24 19zM364 773q20 0 17 -20l-129 -731q-4 -22 -24 -22h-151q-19 0 -19 16q0 1 0.5 3t0.5 3l129 731q4 20 25 20h151z"/>
<glyph glyph-name="Lcaron" horiz-adv-x="522" unicode="Ľ" d="M575 773h142q11 0 11 -9q0 -6 -3 -10l-140 -230q-10 -19 -22 -19h-109q-11 0 -11 9q0 4 3 10l105 230q8 19 24 19zM525 148v-3l-22 -122q-3 -17 -23 -20q-65 -12 -158 -12q-45 0 -83 8t-71 27t-51.5 53.5t-18.5 83.5q0 20 5 52l89 508q1 8 9 14t16 6h163q16 0 16 -16v-4 l-89 -508q-2 -14 -2 -19q0 -17 9.5 -24t31.5 -7h162q17 0 17 -17z"/>
<glyph glyph-name="lcaron" horiz-adv-x="549" unicode="ľ" d="M539 773h142q11 0 11 -9q0 -6 -3 -10l-140 -230q-10 -19 -22 -19h-109q-11 0 -11 9q0 4 3 10l105 230q8 19 24 19zM381 757v-4l-129 -731q-2 -8 -9 -15t-15 -7h-151q-7 0 -12.5 5.5t-5.5 13.5v3l129 731q1 8 9 14t16 6h151q17 0 17 -16z"/>
<glyph glyph-name="Ldot" horiz-adv-x="522" unicode="Ŀ" d="M591 439q18 0 18 -14q0 -1 -0.5 -3t-0.5 -3l-19 -109q-4 -20 -25 -20h-146q-17 0 -17 13q0 1 0.5 3.5t0.5 3.5l19 109q4 20 24 20h146zM525 148v-3l-22 -122q-3 -17 -23 -20q-65 -12 -158 -12q-45 0 -83 8t-71 27t-51.5 53.5t-18.5 83.5q0 20 5 52l89 508q1 8 9 14t16 6 h163q16 0 16 -16v-4l-89 -508q-2 -14 -2 -19q0 -17 9.5 -24t31.5 -7h162q17 0 17 -17z"/>
<glyph glyph-name="ldot" horiz-adv-x="498" unicode="ŀ" d="M364 773q20 0 17 -20l-129 -731q-4 -22 -24 -22h-151q-19 0 -19 16q0 1 0.5 3t0.5 3l129 731q4 20 25 20h151zM543 439q18 0 18 -15q0 -1 -0.5 -2.5t-0.5 -2.5l-19 -109q-2 -12 -7.5 -16t-17.5 -4h-146q-17 0 -17 13q0 1 0.5 3t0.5 4l19 109q4 20 24 20h146z"/>
<glyph glyph-name="Lslash" horiz-adv-x="522" unicode="Ł" d="M525 148v-3l-22 -122q-3 -17 -23 -20q-65 -12 -158 -12q-45 0 -83 8t-71 27t-51.5 53.5t-18.5 83.5q0 17 3 36l-39 -30q-2 -2 -6 -2q-6 0 -6 9v3l28 159q2 13 10 19l46 36l58 330q1 8 9 14t16 6h163q16 0 16 -16v-4l-25 -144l69 54q7 5 10 5q5 0 5 -6v-3l-29 -164 q-1 -12 -10 -18l-79 -62l-30 -170q-2 -14 -2 -19q0 -17 9.5 -24t31.5 -7h162q17 0 17 -17z"/>
<glyph glyph-name="lslash" horiz-adv-x="304" unicode="ł" d="M425 632v-3l-29 -164q-1 -11 -10 -18l-69 -55l-65 -370q-2 -8 -9.5 -15t-15.5 -7h-150q-7 0 -12.5 5.5t-5.5 13.5v3l34 195l-60 -48q-3 -3 -6 -3q-6 0 -6 8v3l28 161q2 13 10 19l68 54l61 342q1 8 9 14t16 6h150q18 0 18 -17v-3l-29 -166l58 46q7 5 10 5q5 0 5 -6z"/>
<glyph glyph-name="Nacute" horiz-adv-x="746" unicode="Ń" d="M717 935q0 -5 -6 -9l-147 -120q-14 -11 -26 -11h-129q-8 0 -8 6q0 5 6 11l111 114q15 15 30 15h158q11 0 11 -6zM808 727v-4l-120 -686q-3 -15 -16 -26t-28 -11h-124q-26 0 -37 27l-148 335q-3 8 -9 8q-5 0 -6 -9l-60 -341q-4 -20 -24 -20h-150q-17 0 -17 17v3l120 686 q3 15 16 26t28 11h122q21 0 35 -29l152 -345q4 -9 7 -9q6 0 7 9l62 354q4 20 24 20h150q16 0 16 -16z"/>
<glyph glyph-name="nacute" d="M612 773q0 -5 -6 -9l-147 -120q-14 -11 -26 -11h-129q-8 0 -8 6q0 5 6 11l111 114q15 15 30 15h158q11 0 11 -6zM618 421q0 -31 -10 -87l-55 -312q-2 -9 -9 -15.5t-16 -6.5h-150q-18 0 -18 16q0 1 0.5 3t0.5 3l56 319q7 40 7 51q0 23 -10.5 31t-36.5 8q-45 0 -85 -22 l-68 -387q-4 -22 -27 -22h-143q-11 0 -17.5 6t-5.5 16l96 540q4 20 23 20h137q18 0 18 -14q0 -1 -0.5 -3t-0.5 -3l-5 -26q84 55 162 55q82 0 119.5 -42t37.5 -128z" unicode="ń"/>
<glyph glyph-name="Ncommaaccent" horiz-adv-x="746" unicode="Ņ" d="M308 -52h146q12 0 12 -9q0 -5 -4 -10l-76 -108q-12 -20 -25 -20h-112q-13 0 -13 9q0 3 2 11l46 108q8 19 24 19zM808 727v-4l-120 -686q-3 -15 -16 -26t-28 -11h-124q-26 0 -37 27l-148 335q-3 8 -9 8q-5 0 -6 -9l-60 -341q-4 -20 -24 -20h-150q-17 0 -17 17v3l120 686 q3 15 16 26t28 11h122q21 0 35 -29l152 -345q4 -9 7 -9q6 0 7 9l62 354q4 20 24 20h150q16 0 16 -16z"/>
<glyph glyph-name="ncommaaccent" d="M238 -52h146q12 0 12 -9q0 -5 -4 -10l-76 -108q-12 -20 -25 -20h-112q-13 0 -13 9q0 3 2 11l46 108q8 19 24 19zM618 421q0 -31 -10 -87l-55 -312q-2 -9 -9 -15.5t-16 -6.5h-150q-18 0 -18 16q0 1 0.5 3t0.5 3l56 319q7 40 7 51q0 23 -10.5 31t-36.5 8q-45 0 -85 -22 l-68 -387q-4 -22 -27 -22h-143q-11 0 -17.5 6t-5.5 16l96 540q4 20 23 20h137q18 0 18 -14q0 -1 -0.5 -3t-0.5 -3l-5 -26q84 55 162 55q82 0 119.5 -42t37.5 -128z" unicode="ņ"/>
<glyph glyph-name="Ncaron" horiz-adv-x="746" unicode="Ň" d="M318 932q0 9 10 9h120q14 0 22 -11l46 -59l66 59q12 11 26 11h128q8 0 8 -6q0 -5 -6 -11l-106 -114q-15 -15 -30 -15h-190q-17 0 -26 15l-66 114q-2 3 -2 8zM808 727v-4l-120 -686q-3 -15 -16 -26t-28 -11h-124q-26 0 -37 27l-148 335q-3 8 -9 8q-5 0 -6 -9l-60 -341 q-4 -20 -24 -20h-150q-17 0 -17 17v3l120 686q3 15 16 26t28 11h122q21 0 35 -29l152 -345q4 -9 7 -9q6 0 7 9l62 354q4 20 24 20h150q16 0 16 -16z"/>
<glyph glyph-name="ncaron" d="M221 770q0 9 10 9h120q14 0 22 -11l46 -59l66 59q12 11 26 11h128q8 0 8 -6q0 -5 -6 -11l-106 -114q-15 -15 -30 -15h-190q-17 0 -26 15l-66 114q-2 3 -2 8zM618 421q0 -31 -10 -87l-55 -312q-2 -9 -9 -15.5t-16 -6.5h-150q-18 0 -18 16q0 1 0.5 3t0.5 3l56 319 q7 40 7 51q0 23 -10.5 31t-36.5 8q-45 0 -85 -22l-68 -387q-4 -22 -27 -22h-143q-11 0 -17.5 6t-5.5 16l96 540q4 20 23 20h137q18 0 18 -14q0 -1 -0.5 -3t-0.5 -3l-5 -26q84 55 162 55q82 0 119.5 -42t37.5 -128z" unicode="ň"/>
<glyph glyph-name="Eng" horiz-adv-x="746" unicode="Ŋ" d="M792 743q19 0 16 -20l-127 -721q-19 -109 -72 -151.5t-139 -42.5q-45 0 -90 7q-13 2 -15.5 6t-0.5 14l19 109q3 20 24 20h37q16 0 23 9t10 29l5 27l-147 333q-3 8 -9 8q-5 0 -6 -9l-60 -341q-4 -20 -24 -20h-150q-8 0 -13 5.5t-4 14.5l120 686q7 37 44 37h122 q14 0 21 -6.5t14 -22.5l152 -345q4 -9 7 -9q6 0 7 9l62 354q4 20 24 20h150z"/>
<glyph glyph-name="eng" d="M644 414q0 -35 -8 -80l-62 -355q-19 -106 -65.5 -145.5t-135.5 -39.5q-42 0 -93 9q-19 4 -16 21l16 93q2 11 7 15.5t18 4.5h43q17 0 23 9.5t10 32.5l64 362q7 40 7 51q0 23 -10.5 31t-36.5 8q-45 0 -85 -22l-68 -387q-4 -22 -27 -22h-143q-11 0 -18 5.5t-5 16.5l96 540 q4 20 23 20h137q8 0 13 -5.5t4 -14.5l-5 -26q84 55 160 55q82 0 119.5 -48t37.5 -129z" unicode="ŋ"/>
<glyph glyph-name="Omacron" horiz-adv-x="707" unicode="Ō" d="M694 932q21 0 17 -19l-16 -88q-4 -20 -23 -20h-339q-18 0 -18 14q0 1 0.5 3t0.5 3l16 88q3 19 23 19h339zM537 485q0 89 -82 89q-52 0 -82 -35.5t-45 -115.5l-19 -103q-7 -42 -7 -62q0 -88 82 -88q53 0 82.5 35t44.5 115l19 103q7 42 7 62zM744 507q0 -44 -8 -84 l-19 -103q-32 -175 -125 -252t-240 -77q-112 0 -184.5 63.5t-72.5 184.5q0 35 8 81l19 103q61 330 365 330q112 0 184.5 -61.5t72.5 -184.5z"/>
<glyph glyph-name="omacron" horiz-adv-x="605" unicode="ō" d="M613 771q18 0 18 -13q0 -1 -0.5 -3t-0.5 -3l-16 -88q-4 -20 -23 -20h-339q-18 0 -18 14q0 1 0.5 3t0.5 3l16 88q3 19 23 19h339zM435 371q0 32 -13 45.5t-43 13.5q-38 0 -60 -25.5t-32 -84.5l-10 -58q-5 -33 -5 -50q0 -34 14 -47.5t44 -13.5q38 0 58.5 24t31.5 87l10 58 q5 33 5 51zM626 380q0 -30 -5 -60l-10 -58q-24 -143 -100.5 -207t-209.5 -64q-106 0 -163 56.5t-57 153.5q0 35 5 61l10 58q25 144 103 207.5t208 63.5q103 0 161 -57t58 -154z"/>
<glyph glyph-name="Obreve" horiz-adv-x="707" unicode="Ŏ" d="M610 950h106q15 0 11 -13q-29 -79 -84.5 -111t-136.5 -32q-69 0 -121.5 39t-63.5 104q-2 13 9 13h109q4 0 6 -0.5t3.5 -1.5t2.5 -3t1.5 -3.5t0.5 -4.5q3 -25 22.5 -35.5t42.5 -10.5q52 0 74 46q6 13 18 13zM537 485q0 89 -82 89q-52 0 -82 -35.5t-45 -115.5l-19 -103 q-7 -42 -7 -62q0 -88 82 -88q53 0 82.5 35t44.5 115l19 103q7 42 7 62zM744 507q0 -44 -8 -84l-19 -103q-32 -175 -125 -252t-240 -77q-112 0 -184.5 63.5t-72.5 184.5q0 35 8 81l19 103q61 330 365 330q112 0 184.5 -61.5t72.5 -184.5z"/>
<glyph glyph-name="obreve" horiz-adv-x="605" unicode="ŏ" d="M527 789h106q12 0 12 -7q0 -4 -1 -6q-29 -79 -84.5 -111t-136.5 -32q-69 0 -121.5 39t-63.5 104q-2 13 9 13h109q4 0 6 -0.5t3.5 -1.5t2.5 -3t1.5 -3.5t0.5 -4.5q3 -25 22.5 -35.5t42.5 -10.5q52 0 74 46q6 13 18 13zM435 371q0 32 -13 45.5t-43 13.5q-38 0 -60 -25.5 t-32 -84.5l-10 -58q-5 -33 -5 -50q0 -34 14 -47.5t44 -13.5q38 0 58.5 24t31.5 87l10 58q5 33 5 51zM626 380q0 -30 -5 -60l-10 -58q-24 -143 -100.5 -207t-209.5 -64q-106 0 -163 56.5t-57 153.5q0 35 5 61l10 58q25 144 103 207.5t208 63.5q103 0 161 -57t58 -154z"/>
<glyph glyph-name="Ohungarumlaut" horiz-adv-x="707" unicode="Ő" d="M858 941q11 0 11 -7q0 -6 -6 -10l-145 -118q-14 -11 -33 -11h-119q-6 0 -8 3.5t-1 7.5t4 7l110 113q15 15 30 15h157zM602 941q9 0 10.5 -6t-5.5 -11l-145 -118q-14 -11 -33 -11h-119q-6 0 -8 3.5t-1 7.5t4 7l110 113q15 15 30 15h157zM537 485q0 89 -82 89 q-52 0 -82 -35.5t-45 -115.5l-19 -103q-7 -42 -7 -62q0 -88 82 -88q53 0 82.5 35t44.5 115l19 103q7 42 7 62zM744 507q0 -44 -8 -84l-19 -103q-32 -175 -125 -252t-240 -77q-112 0 -184.5 63.5t-72.5 184.5q0 35 8 81l19 103q61 330 365 330q112 0 184.5 -61.5t72.5 -184.5 z"/>
<glyph glyph-name="ohungarumlaut" horiz-adv-x="605" unicode="ő" d="M773 779q11 0 11 -7q0 -6 -6 -10l-145 -118q-14 -11 -33 -11h-119q-6 0 -8 3.5t-1 7.5t4 7l110 113q15 15 30 15h157zM517 779q9 0 10.5 -6t-5.5 -11l-145 -118q-14 -11 -33 -11h-119q-6 0 -8 3.5t-1 7.5t4 7l110 113q15 15 30 15h157zM435 371q0 32 -13 45.5t-43 13.5 q-38 0 -60 -25.5t-32 -84.5l-10 -58q-5 -33 -5 -50q0 -34 14 -47.5t44 -13.5q38 0 58.5 24t31.5 87l10 58q5 33 5 51zM626 380q0 -30 -5 -60l-10 -58q-24 -143 -100.5 -207t-209.5 -64q-106 0 -163 56.5t-57 153.5q0 35 5 61l10 58q25 144 103 207.5t208 63.5q103 0 161 -57 t58 -154z"/>
<glyph glyph-name="OE" horiz-adv-x="985" unicode="Œ" d="M537 485q0 89 -82 89q-52 0 -82 -35.5t-45 -115.5l-19 -103q-7 -42 -7 -62q0 -88 82 -88q53 0 82.5 35t44.5 115l19 103q7 42 7 62zM1058 725v-4l-21 -122q-4 -20 -24 -20h-202q-27 0 -39.5 -11t-17.5 -39l-13 -73h246q17 0 17 -17v-3l-21 -118q-4 -20 -23 -20h-246 l-15 -83q-2 -16 -2 -20q0 -17 9.5 -23.5t31.5 -6.5h202q17 0 17 -17v-3l-22 -122q-3 -17 -23 -20q-94 -12 -197 -12q-111 0 -169 47q-77 -47 -194 -47q-112 0 -184.5 63t-72.5 185q0 35 8 81l19 103q61 330 365 330q103 0 166 -50q34 30 80 40t114 10q106 0 195 -12 q16 -1 16 -16z"/>
<glyph glyph-name="oe" horiz-adv-x="938" unicode="œ" d="M435 371q0 32 -13 45.5t-43 13.5q-38 0 -60 -25.5t-32 -84.5l-10 -58q-5 -33 -5 -50q0 -34 14 -47.5t44 -13.5q38 0 58.5 24t31.5 87l10 58q5 33 5 51zM779 383q0 59 -61 59q-71 0 -92 -99h148q5 23 5 40zM959 376q0 -25 -5 -57l-10 -60q-1 -10 -8.5 -16t-16.5 -6h-311 q-3 -18 -3 -31q0 -35 20 -46t62 -11q116 0 192 8h4q15 0 15 -13v-4l-16 -90q-4 -22 -25 -28q-99 -31 -219 -31q-87 0 -148 49q-71 -49 -189 -49q-106 0 -163 56.5t-57 153.5q0 35 5 61l10 58q25 144 103 207.5t208 63.5q105 0 162 -57q58 57 177 57q104 0 158.5 -60.5 t54.5 -154.5z"/>
<glyph glyph-name="Racute" horiz-adv-x="708" unicode="Ŕ" d="M693 935q0 -5 -6 -9l-147 -120q-14 -11 -26 -11h-129q-8 0 -8 6q0 5 6 11l111 114q15 15 30 15h158q11 0 11 -6zM537 529q0 28 -21 40.5t-68 12.5q-44 0 -78 -2l-28 -159q11 -1 35 -1h38q61 0 91.5 25.5t30.5 83.5zM742 558q0 -90 -41.5 -159t-122.5 -101l97 -272 q1 -2 1 -7q0 -19 -20 -19h-176q-10 0 -16 20l-84 244q-43 0 -65 2l-43 -246q-4 -20 -24 -20h-162q-17 0 -17 17v3l115 654q6 35 20.5 48t48.5 18q89 13 210 13q127 0 203 -48t76 -147z"/>
<glyph glyph-name="racute" horiz-adv-x="417" unicode="ŕ" d="M545 773q0 -5 -6 -9l-147 -120q-14 -11 -26 -11h-129q-8 0 -8 6q0 5 6 11l111 114q15 15 30 15h158q11 0 11 -6zM438 433q-73 0 -119 -23l-68 -388q-4 -22 -24 -22h-150q-19 0 -19 17q0 1 0.5 2.5t0.5 2.5l95 540q4 20 24 20h140q18 0 16 -20l-3 -24q52 52 135 52h11 q18 0 18 -14q0 -1 -0.5 -3t-0.5 -3l-21 -117q-4 -20 -21 -20h-14z"/>
<glyph glyph-name="Rcommaaccent" horiz-adv-x="708" unicode="Ŗ" d="M297 -52h146q12 0 12 -9q0 -5 -4 -10l-76 -108q-12 -20 -25 -20h-112q-13 0 -13 9q0 3 2 11l46 108q8 19 24 19zM537 529q0 28 -21 40.5t-68 12.5q-44 0 -78 -2l-28 -159q11 -1 35 -1h38q61 0 91.5 25.5t30.5 83.5zM742 558q0 -90 -41.5 -159t-122.5 -101l97 -272 q1 -2 1 -7q0 -19 -20 -19h-176q-10 0 -16 20l-84 244q-43 0 -65 2l-43 -246q-4 -20 -24 -20h-162q-17 0 -17 17v3l115 654q6 35 20.5 48t48.5 18q89 13 210 13q127 0 203 -48t76 -147z"/>
<glyph glyph-name="rcommaaccent" horiz-adv-x="417" unicode="ŗ" d="M166 -52h146q12 0 12 -9q0 -5 -4 -10l-76 -108q-12 -20 -25 -20h-112q-13 0 -13 9q0 3 2 11l46 108q8 19 24 19zM438 433q-73 0 -119 -23l-68 -388q-4 -22 -24 -22h-150q-19 0 -19 17q0 1 0.5 2.5t0.5 2.5l95 540q4 20 24 20h140q18 0 16 -20l-3 -24q52 52 135 52h11 q18 0 18 -14q0 -1 -0.5 -3t-0.5 -3l-21 -117q-4 -20 -21 -20h-14z"/>
<glyph glyph-name="Rcaron" horiz-adv-x="708" unicode="Ř" d="M280 932q0 9 10 9h120q14 0 22 -11l46 -59l66 59q12 11 26 11h128q8 0 8 -6q0 -5 -6 -11l-106 -114q-15 -15 -30 -15h-190q-17 0 -26 15l-66 114q-2 3 -2 8zM537 529q0 28 -21 40.5t-68 12.5q-44 0 -78 -2l-28 -159q11 -1 35 -1h38q61 0 91.5 25.5t30.5 83.5zM742 558 q0 -90 -41.5 -159t-122.5 -101l97 -272q1 -2 1 -7q0 -19 -20 -19h-176q-10 0 -16 20l-84 244q-43 0 -65 2l-43 -246q-4 -20 -24 -20h-162q-17 0 -17 17v3l115 654q6 35 20.5 48t48.5 18q89 13 210 13q127 0 203 -48t76 -147z"/>
<glyph glyph-name="rcaron" horiz-adv-x="417" unicode="ř" d="M129 770q0 9 10 9h120q14 0 22 -11l46 -59l66 59q12 11 26 11h128q8 0 8 -6q0 -5 -6 -11l-106 -114q-15 -15 -30 -15h-190q-17 0 -26 15l-66 114q-2 3 -2 8zM438 433q-73 0 -119 -23l-68 -388q-4 -22 -24 -22h-150q-19 0 -19 17q0 1 0.5 2.5t0.5 2.5l95 540q4 20 24 20 h140q18 0 16 -20l-3 -24q52 52 135 52h11q18 0 18 -14q0 -1 -0.5 -3t-0.5 -3l-21 -117q-4 -20 -21 -20h-14z"/>
<glyph glyph-name="Sacute" horiz-adv-x="606" unicode="Ś" d="M632 935q0 -5 -6 -9l-147 -120q-14 -11 -26 -11h-129q-8 0 -8 6q0 5 6 11l111 114q15 15 30 15h158q11 0 11 -6zM671 712v-3l-22 -125q-3 -19 -21 -19h-2q-173 13 -225 13q-57 0 -57 -42q0 -10 9 -19t35 -24l122 -72q100 -58 100 -167q0 -68 -27 -119.5t-73.5 -82.5 t-103.5 -46t-123 -15q-109 0 -197 26q-17 6 -17 17v3l21 123q4 20 23 20h2q154 -15 200 -15q73 0 73 59q0 19 -39 45l-129 85q-42 27 -64 71.5t-22 93.5q0 65 24 112t67 73t94.5 37.5t114.5 11.5q57 0 124.5 -8t97.5 -17q15 -6 15 -16z"/>
<glyph glyph-name="sacute" horiz-adv-x="516" unicode="ś" d="M554 773q0 -5 -6 -9l-147 -120q-14 -11 -26 -11h-129q-8 0 -8 6q0 5 6 11l111 114q15 15 30 15h158q11 0 11 -6zM559 544l-19 -106q-4 -20 -19 -20h-4q-116 16 -169 16q-41 0 -41 -19q0 -10 6.5 -16.5t29.5 -20.5l63 -37q60 -36 82.5 -72.5t22.5 -80.5 q0 -70 -37.5 -115.5t-93.5 -63.5t-130 -18q-107 0 -186 24q-18 6 -15 22l18 103q3 22 21 22q1 0 3 -0.5t4 -0.5q116 -16 170 -16q52 0 52 34q0 14 -24 28l-81 48q-100 59 -100 149q0 187 249 187q95 0 182 -25q18 -6 16 -22z"/>
<glyph glyph-name="Scircumflex" horiz-adv-x="606" unicode="Ŝ" d="M672 804q0 -9 -10 -9h-120q-14 0 -22 11l-46 59l-66 -59q-12 -11 -26 -11h-128q-8 0 -8 6q0 5 6 11l106 114q15 15 30 15h190q17 0 26 -15l66 -114q2 -3 2 -8zM671 712v-3l-22 -125q-3 -19 -21 -19h-2q-173 13 -225 13q-57 0 -57 -42q0 -10 9 -19t35 -24l122 -72 q100 -58 100 -167q0 -68 -27 -119.5t-73.5 -82.5t-103.5 -46t-123 -15q-109 0 -197 26q-17 6 -17 17v3l21 123q4 20 23 20h2q154 -15 200 -15q73 0 73 59q0 19 -39 45l-129 85q-42 27 -64 71.5t-22 93.5q0 65 24 112t67 73t94.5 37.5t114.5 11.5q57 0 124.5 -8t97.5 -17 q15 -6 15 -16z"/>
<glyph glyph-name="scircumflex" horiz-adv-x="516" unicode="ŝ" d="M568 642q0 -9 -10 -9h-120q-14 0 -22 11l-46 59l-66 -59q-12 -11 -26 -11h-128q-8 0 -8 6q0 5 6 11l106 114q15 15 30 15h190q17 0 26 -15l66 -114q2 -3 2 -8zM559 544l-19 -106q-4 -20 -19 -20h-4q-116 16 -169 16q-41 0 -41 -19q0 -10 6.5 -16.5t29.5 -20.5l63 -37 q60 -36 82.5 -72.5t22.5 -80.5q0 -70 -37.5 -115.5t-93.5 -63.5t-130 -18q-107 0 -186 24q-18 6 -15 22l18 103q3 22 21 22q1 0 3 -0.5t4 -0.5q116 -16 170 -16q52 0 52 34q0 14 -24 28l-81 48q-100 59 -100 149q0 187 249 187q95 0 182 -25q18 -6 16 -22z"/>
<glyph glyph-name="Scedilla" horiz-adv-x="606" unicode="Ş" d="M415 -58q0 -4 -6 -9l-147 -120q-14 -11 -27 -11h-128q-8 0 -8 6q0 5 6 11l111 114q15 15 31 15h158q10 0 10 -6zM671 712v-3l-22 -125q-3 -19 -21 -19h-2q-173 13 -225 13q-57 0 -57 -42q0 -10 9 -19t35 -24l122 -72q100 -58 100 -167q0 -68 -27 -119.5t-73.5 -82.5 t-103.5 -46t-123 -15q-109 0 -197 26q-17 6 -17 17v3l21 123q4 20 23 20h2q154 -15 200 -15q73 0 73 59q0 19 -39 45l-129 85q-42 27 -64 71.5t-22 93.5q0 65 24 112t67 73t94.5 37.5t114.5 11.5q57 0 124.5 -8t97.5 -17q15 -6 15 -16z"/>
<glyph glyph-name="scedilla" horiz-adv-x="516" unicode="ş" d="M358 -57q0 -5 -6 -9l-147 -120q-14 -11 -27 -11h-128q-8 0 -8 6q0 5 6 11l111 114q15 15 31 15h158q10 0 10 -6zM559 544l-19 -106q-4 -20 -19 -20h-4q-116 16 -169 16q-41 0 -41 -19q0 -10 6.5 -16.5t29.5 -20.5l63 -37q60 -36 82.5 -72.5t22.5 -80.5 q0 -70 -37.5 -115.5t-93.5 -63.5t-130 -18q-107 0 -186 24q-18 6 -15 22l18 103q3 22 21 22q1 0 3 -0.5t4 -0.5q116 -16 170 -16q52 0 52 34q0 14 -24 28l-81 48q-100 59 -100 149q0 187 249 187q95 0 182 -25q18 -6 16 -22z"/>
<glyph glyph-name="Scaron" horiz-adv-x="606" unicode="Š" d="M672 935q0 -5 -6 -11l-109 -114q-15 -15 -30 -15h-190q-17 0 -26 15l-69 114q-3 4 -3 8q0 9 11 9h127q14 0 22 -11l46 -57l66 57q12 11 26 11h127q8 0 8 -6zM671 712v-3l-22 -125q-3 -19 -21 -19h-2q-173 13 -225 13q-57 0 -57 -42q0 -10 9 -19t35 -24l122 -72 q100 -58 100 -167q0 -68 -27 -119.5t-73.5 -82.5t-103.5 -46t-123 -15q-109 0 -197 26q-17 6 -17 17v3l21 123q4 20 23 20h2q154 -15 200 -15q73 0 73 59q0 19 -39 45l-129 85q-42 27 -64 71.5t-22 93.5q0 65 24 112t67 73t94.5 37.5t114.5 11.5q57 0 124.5 -8t97.5 -17 q15 -6 15 -16z"/>
<glyph glyph-name="scaron" horiz-adv-x="516" unicode="š" d="M614 773q0 -5 -6 -11l-109 -114q-15 -15 -30 -15h-190q-17 0 -26 15l-69 114q-3 4 -3 8q0 9 11 9h127q14 0 22 -11l46 -57l66 57q12 11 26 11h127q8 0 8 -6zM559 548v-4l-19 -106q-4 -20 -20 -20h-3q-116 16 -169 16q-41 0 -41 -24q0 -10 18 -21l105 -63q81 -48 81 -128 q0 -109 -72.5 -158t-188.5 -49q-107 0 -186 24q-15 5 -15 18v4l18 103q3 21 24 21h4q116 -16 170 -16q52 0 52 34q0 14 -24 28l-111 66q-32 19 -51 55t-19 76q0 187 249 187q95 0 182 -25q16 -5 16 -18z"/>
<glyph glyph-name="uni0162" horiz-adv-x="594" unicode="Ţ" d="M220 -52h146q12 0 12 -9q0 -5 -4 -10l-76 -108q-12 -20 -25 -20h-112q-13 0 -13 9q0 3 2 11l46 108q8 19 24 19zM698 727v-3l-23 -128q-1 -8 -8.5 -13.5t-15.5 -5.5h-149l-98 -557q-4 -20 -24 -20h-163q-16 0 -16 16v4l98 557h-152q-17 0 -17 16v3l23 128q3 19 23 19h504 q18 0 18 -16z"/>
<glyph glyph-name="uni0163" horiz-adv-x="432" unicode="ţ" d="M165 -52h146q12 0 12 -9q0 -5 -4 -10l-76 -108q-12 -20 -25 -20h-112q-13 0 -13 9q0 3 2 11l46 108q8 19 24 19zM406 582h72q21 0 21 -14q0 -1 -0.5 -3t-0.5 -3l-18 -102q-4 -20 -23 -20h-76l-48 -269q-3 -13 -3 -21q0 -17 24 -17h46q21 0 18 -19l-16 -94q-3 -16 -25 -20 q-72 -9 -91 -9q-149 0 -149 130q0 20 5 52l47 267l-64 15q-18 5 -18 16q0 1 0.5 3t0.5 3l15 84q4 21 25 21h66l14 81q3 17 25 21l153 26h4q18 0 15 -19z"/>
<glyph glyph-name="Tcaron" horiz-adv-x="594" unicode="Ť" d="M239 932q0 9 10 9h120q14 0 22 -11l46 -59l66 59q12 11 26 11h128q8 0 8 -6q0 -5 -6 -11l-106 -114q-15 -15 -30 -15h-190q-17 0 -26 15l-66 114q-2 3 -2 8zM698 727v-3l-23 -128q-1 -8 -8.5 -13.5t-15.5 -5.5h-149l-98 -557q-4 -20 -24 -20h-163q-16 0 -16 16v4l98 557 h-152q-17 0 -17 16v3l23 128q3 19 23 19h504q18 0 18 -16z"/>
<glyph glyph-name="tcaron" horiz-adv-x="678" unicode="ť" d="M667 773h142q11 0 11 -9q0 -6 -3 -10l-140 -230q-10 -19 -22 -19h-109q-11 0 -11 9q0 4 3 10l105 230q8 19 24 19zM406 582h72q21 0 21 -14q0 -1 -0.5 -3t-0.5 -3l-18 -102q-4 -20 -23 -20h-76l-48 -269q-3 -13 -3 -21q0 -17 24 -17h46q21 0 18 -19l-16 -94 q-3 -16 -25 -20q-72 -9 -91 -9q-149 0 -149 130q0 20 5 52l47 267l-64 15q-18 5 -18 16q0 1 0.5 3t0.5 3l15 84q4 21 25 21h66l14 81q3 17 25 21l153 26h4q18 0 15 -19z"/>
<glyph glyph-name="Tbar" horiz-adv-x="594" unicode="Ŧ" d="M126 463h153l20 114h-152q-21 0 -17 19l23 128q3 19 23 19h504q19 0 19 -14l-1 -2v-3l-23 -128q-4 -19 -24 -19h-149l-20 -114h148q8 0 13.5 -5.5t4.5 -13.5l-23 -128q-1 -8 -8.5 -13.5t-15.5 -5.5h-149l-48 -277q-4 -20 -24 -20h-163q-19 0 -16 20l48 277h-152 q-8 0 -13 5.5t-4 13.5l23 128q3 19 23 19z"/>
<glyph glyph-name="tbar" horiz-adv-x="432" unicode="ŧ" d="M153 240l-64 15q-20 6 -17 22l15 84q2 8 9 14.5t16 6.5h67l10 58l-64 15q-18 5 -18 16q0 1 0.5 3t0.5 3l14 84q2 8 9 14.5t16 6.5h67l14 81q3 17 25 21l153 26h3l2 1q8 0 12 -6t2 -14l-19 -109h76q17 0 17 -14q0 -1 -0.5 -3t-0.5 -3l-18 -102q-4 -20 -23 -20h-76l-11 -58 h76q8 0 13 -6t3 -14l-18 -102q-4 -20 -23 -20h-76l-12 -69q-3 -13 -3 -21q0 -17 24 -17h46q21 0 18 -19l-16 -94q-3 -16 -25 -20q-54 -9 -91 -9q-149 0 -149 130q0 20 5 52l12 67h-1z"/>
<glyph glyph-name="Utilde" horiz-adv-x="731" unicode="Ũ" d="M633 951h83q17 0 14 -17l-3 -18q-12 -69 -47 -98t-99 -29q-48 0 -84 24l-31 21q-22 15 -36 15q-19 0 -23 -20l-3 -17q-3 -17 -19 -17h-84q-17 0 -14 17l3 17q22 127 150 127q46 0 80 -23l32 -21q26 -16 36 -16q18 0 22 21l3 17q3 17 20 17zM773 743q22 0 22 -18 q0 -1 -0.5 -3t-0.5 -4l-76 -436q-29 -167 -112.5 -229t-241.5 -62q-45 0 -88.5 13.5t-82 41t-62 75t-23.5 108.5q0 29 6 63l76 431q4 20 25 20h162q17 0 17 -13q0 -4 -1 -7l-77 -441q-5 -30 -5 -48q0 -40 19.5 -56t63.5 -16q54 0 81.5 26.5t39.5 93.5l77 441q4 20 24 20h157 z"/>
<glyph glyph-name="utilde" d="M567 789h83q17 0 14 -17l-3 -18q-12 -69 -47 -98t-99 -29q-48 0 -84 24l-31 21q-22 15 -36 15q-19 0 -23 -20l-3 -17q-3 -17 -19 -17h-84q-17 0 -14 17l3 17q22 127 150 127q46 0 80 -23l32 -21q26 -16 36 -16q18 0 22 21l3 17q3 17 20 17zM510 582h143q23 0 23 -17v-5 l-96 -540q-4 -20 -23 -20h-137q-18 0 -18 15q0 1 0.5 2.5t0.5 2.5l5 26q-84 -55 -160 -55q-82 0 -119.5 48t-37.5 129q0 35 8 80l55 312q4 22 25 22h150q18 0 18 -15q0 -1 -0.5 -3.5t-0.5 -3.5l-56 -319q-7 -35 -7 -50q0 -25 10.5 -32.5t36.5 -7.5q45 0 85 22l68 387 q4 22 27 22z" unicode="ũ"/>
<glyph glyph-name="Umacron" horiz-adv-x="731" unicode="Ū" d="M689 932q21 0 17 -19l-16 -88q-4 -20 -23 -20h-339q-18 0 -18 14q0 1 0.5 3t0.5 3l16 88q3 19 23 19h339zM773 743q22 0 22 -18q0 -1 -0.5 -3t-0.5 -4l-76 -436q-29 -167 -112.5 -229t-241.5 -62q-45 0 -88.5 13.5t-82 41t-62 75t-23.5 108.5q0 29 6 63l76 431 q4 20 25 20h162q17 0 17 -13q0 -4 -1 -7l-77 -441q-5 -30 -5 -48q0 -40 19.5 -56t63.5 -16q54 0 81.5 26.5t39.5 93.5l77 441q4 20 24 20h157z"/>
<glyph glyph-name="umacron" d="M618 771q21 0 17 -19l-16 -88q-4 -20 -23 -20h-339q-18 0 -18 14q0 1 0.5 3t0.5 3l16 88q3 19 23 19h339zM510 582h143q23 0 23 -17v-5l-96 -540q-4 -20 -23 -20h-137q-18 0 -18 15q0 1 0.5 2.5t0.5 2.5l5 26q-84 -55 -160 -55q-82 0 -119.5 48t-37.5 129q0 35 8 80 l55 312q4 22 25 22h150q18 0 18 -15q0 -1 -0.5 -3.5t-0.5 -3.5l-56 -319q-7 -35 -7 -50q0 -25 10.5 -32.5t36.5 -7.5q45 0 85 22l68 387q4 22 27 22z" unicode="ū"/>
<glyph glyph-name="Ubreve" horiz-adv-x="731" unicode="Ŭ" d="M606 950h106q15 0 11 -13q-29 -79 -84.5 -111t-136.5 -32q-69 0 -121.5 39t-63.5 104q-2 13 9 13h109q4 0 6 -0.5t3.5 -1.5t2.5 -3t1.5 -3.5t0.5 -4.5q3 -25 22.5 -35.5t42.5 -10.5q52 0 74 46q6 13 18 13zM773 743q22 0 22 -18q0 -1 -0.5 -3t-0.5 -4l-76 -436 q-29 -167 -112.5 -229t-241.5 -62q-45 0 -88.5 13.5t-82 41t-62 75t-23.5 108.5q0 29 6 63l76 431q4 20 25 20h162q17 0 17 -13q0 -4 -1 -7l-77 -441q-5 -30 -5 -48q0 -40 19.5 -56t63.5 -16q54 0 81.5 26.5t39.5 93.5l77 441q4 20 24 20h157z"/>
<glyph glyph-name="ubreve" d="M531 779h106q15 0 11 -13q-29 -79 -84.5 -111t-136.5 -32q-69 0 -121.5 39t-63.5 104q-2 13 9 13h109q4 0 6 -0.5t3.5 -1.5t2.5 -3t1.5 -3.5t0.5 -4.5q3 -25 22.5 -35.5t42.5 -10.5q52 0 74 46q6 13 18 13zM510 582h143q23 0 23 -17v-5l-96 -540q-4 -20 -23 -20h-137 q-18 0 -18 15q0 1 0.5 2.5t0.5 2.5l5 26q-84 -55 -160 -55q-82 0 -119.5 48t-37.5 129q0 35 8 80l55 312q4 22 25 22h150q18 0 18 -15q0 -1 -0.5 -3.5t-0.5 -3.5l-56 -319q-7 -35 -7 -50q0 -25 10.5 -32.5t36.5 -7.5q45 0 85 22l68 387q4 22 27 22z" unicode="ŭ"/>
<glyph glyph-name="Uring" horiz-adv-x="731" unicode="Ů" d="M547 884q0 16 -12.5 28.5t-28.5 12.5q-17 0 -28.5 -12t-11.5 -29t12 -30t28 -13t28.5 13t12.5 30zM627 883q0 -50 -36 -86t-86 -36t-84.5 35.5t-34.5 86.5t34.5 86.5t84.5 35.5t86 -36t36 -86zM773 743q22 0 22 -18q0 -1 -0.5 -3t-0.5 -4l-76 -436q-29 -167 -112.5 -229 t-241.5 -62q-45 0 -88.5 13.5t-82 41t-62 75t-23.5 108.5q0 29 6 63l76 431q4 20 25 20h162q17 0 17 -13q0 -4 -1 -7l-77 -441q-5 -30 -5 -48q0 -40 19.5 -56t63.5 -16q54 0 81.5 26.5t39.5 93.5l77 441q4 20 24 20h157z"/>
<glyph glyph-name="uring" d="M466 726q0 16 -12 28.5t-29 12.5t-28.5 -12t-11.5 -29t12 -30t28 -13t28.5 13t12.5 30zM546 725q0 -50 -36 -86t-86 -36t-84.5 35.5t-34.5 86.5t34.5 86.5t84.5 35.5t86 -36t36 -86zM510 582h143q23 0 23 -17v-5l-96 -540q-4 -20 -23 -20h-137q-18 0 -18 15q0 1 0.5 2.5 t0.5 2.5l5 26q-84 -55 -160 -55q-82 0 -119.5 48t-37.5 129q0 35 8 80l55 312q4 22 25 22h150q18 0 18 -15q0 -1 -0.5 -3.5t-0.5 -3.5l-56 -319q-7 -35 -7 -50q0 -25 10.5 -32.5t36.5 -7.5q45 0 85 22l68 387q4 22 27 22z" unicode="ů"/>
<glyph glyph-name="Uhungarumlaut" horiz-adv-x="731" unicode="Ű" d="M835 941q11 0 11 -7q0 -6 -6 -10l-145 -118q-14 -11 -33 -11h-119q-6 0 -8 3.5t-1 7.5t4 7l110 113q15 15 30 15h157zM579 941q9 0 10.5 -6t-5.5 -11l-145 -118q-14 -11 -33 -11h-119q-6 0 -8 3.5t-1 7.5t4 7l110 113q15 15 30 15h157zM773 743q22 0 22 -18q0 -1 -0.5 -3 t-0.5 -4l-76 -436q-29 -167 -112.5 -229t-241.5 -62q-45 0 -88.5 13.5t-82 41t-62 75t-23.5 108.5q0 29 6 63l76 431q4 20 25 20h162q17 0 17 -13q0 -4 -1 -7l-77 -441q-5 -30 -5 -48q0 -40 19.5 -56t63.5 -16q54 0 81.5 26.5t39.5 93.5l77 441q4 20 24 20h157z"/>
<glyph glyph-name="uhungarumlaut" d="M771 779q11 0 11 -7q0 -6 -6 -10l-145 -118q-14 -11 -33 -11h-119q-6 0 -8 3.5t-1 7.5t4 7l110 113q15 15 30 15h157zM515 779q9 0 10.5 -6t-5.5 -11l-145 -118q-14 -11 -33 -11h-119q-6 0 -8 3.5t-1 7.5t4 7l110 113q15 15 30 15h157zM510 582h143q23 0 23 -17v-5 l-96 -540q-4 -20 -23 -20h-137q-18 0 -18 15q0 1 0.5 2.5t0.5 2.5l5 26q-84 -55 -160 -55q-82 0 -119.5 48t-37.5 129q0 35 8 80l55 312q4 22 25 22h150q18 0 18 -15q0 -1 -0.5 -3.5t-0.5 -3.5l-56 -319q-7 -35 -7 -50q0 -25 10.5 -32.5t36.5 -7.5q45 0 85 22l68 387 q4 22 27 22z" unicode="ű"/>
<glyph glyph-name="Uogonek" horiz-adv-x="731" unicode="Ų" d="M778 743q18 0 18 -14q0 -1 -0.5 -3t-0.5 -3l-77 -441q-19 -105 -56 -164.5t-97 -95.5l-87 -52q-32 -20 -32 -39q0 -18 29 -18q15 0 29.5 1.5t26 4t13.5 2.5h5q10 0 10 -11q0 -6 -1 -10l-12 -65q-3 -14 -14 -17q-66 -19 -128 -19q-48 0 -80.5 20t-32.5 65q0 35 16 59.5 t55 47.5q-45 0 -88 14t-81 41t-61.5 74.5t-23.5 108.5q0 29 6 63l76 431q4 20 25 20h162q17 0 17 -13q0 -1 -0.5 -3t-0.5 -4l-77 -441q-5 -30 -5 -48q0 -40 19.5 -56t63.5 -16q54 0 81.5 26.5t39.5 93.5l77 441q3 20 24 20h162z"/>
<glyph glyph-name="uogonek" d="M510 582h143q24 0 24 -16q0 -1 -0.5 -3t-0.5 -3l-96 -540q-3 -14 -20 -20l-81 -30q-18 -7 -25 -15t-7 -22q0 -20 37 -20q11 0 60 7q3 1 8 1q9 0 9 -8q0 -3 -2 -13l-12 -65q-3 -14 -14 -17q-66 -19 -128 -19q-48 0 -80.5 20t-32.5 65q0 38 20.5 64.5t71.5 53.5l17 9l7 35 q-84 -55 -160 -55q-82 0 -119.5 48t-37.5 129q0 35 8 80l55 312q2 9 9 15.5t16 6.5h150q18 0 18 -16q0 -1 -0.5 -3t-0.5 -3l-56 -319q-7 -35 -7 -50q0 -25 10.5 -32.5t36.5 -7.5q45 0 85 22l68 387q4 22 27 22z" unicode="ų"/>
<glyph glyph-name="Wcircumflex" horiz-adv-x="917" unicode="Ŵ" d="M810 804q0 -9 -10 -9h-120q-14 0 -22 11l-46 59l-66 -59q-12 -11 -26 -11h-128q-8 0 -8 6q0 5 6 11l106 114q15 15 30 15h190q17 0 26 -15l66 -114q2 -3 2 -8zM1026 734v-2q-1 -1 -1 -2l-202 -645q-26 -85 -114 -85h-73q-69 0 -78 77l-30 252q-1 9 -6 9q-6 0 -11 -9 l-118 -252q-20 -43 -46 -60t-68 -17h-58q-91 0 -91 79v6l26 645q0 13 18 13h166q12 0 12 -17v-2l-28 -443v-6q0 -7 4 -7t11 13l93 202q20 43 67 43h105q24 0 36 -9.5t15 -33.5l23 -202q2 -13 5 -13q7 0 10 13l128 443q5 19 18 19h172q15 0 15 -9z"/>
<glyph glyph-name="wcircumflex" horiz-adv-x="871" unicode="ŵ" d="M752 642q0 -9 -10 -9h-120q-14 0 -22 11l-46 59l-66 -59q-12 -11 -26 -11h-128q-8 0 -8 6q0 5 6 11l106 114q15 15 30 15h190q17 0 26 -15l66 -114q2 -3 2 -8zM946 570q0 -4 -1 -6l-171 -475q-32 -89 -101 -89h-75q-34 0 -58 23t-28 63l-22 183q-1 7 -5 7q-6 0 -9 -7 l-86 -183q-40 -86 -100 -86h-77q-37 0 -59.5 21.5t-23.5 67.5l-5 475q0 7 6 12.5t13 5.5h157q14 0 14 -16v-1l-10 -343q0 -8 5 -8q6 0 10 8l94 205q19 41 64 41h80q26 0 35.5 -10t12.5 -31l22 -205q1 -8 7 -8q5 0 8 8l112 343q6 17 20 17h159q12 0 12 -12z"/>
<glyph glyph-name="Ycircumflex" horiz-adv-x="684" unicode="Ŷ" d="M686 804q0 -9 -10 -9h-120q-14 0 -22 11l-46 59l-66 -59q-12 -11 -26 -11h-128q-8 0 -8 6q0 5 6 11l106 114q15 15 30 15h190q17 0 26 -15l66 -114q2 -3 2 -8zM790 733q0 -5 -3 -11l-208 -345q-43 -70 -86 -86l-47 -271q-4 -20 -24 -20h-163q-15 0 -15 16v4l47 271 q-39 17 -56 86l-86 345q0 1 -0.5 2.5t-0.5 2.5q0 6 5 11t12 5h177q13 0 17 -19l49 -265q2 -10 8 -10q7 0 12 10l143 265q9 19 23 19h185q11 0 11 -10z"/>
<glyph glyph-name="ycircumflex" horiz-adv-x="623" unicode="ŷ" d="M630 642q0 -9 -10 -9h-120q-14 0 -22 11l-46 59l-66 -59q-12 -11 -26 -11h-128q-8 0 -8 6q0 5 6 11l106 114q15 15 30 15h190q17 0 26 -15l66 -114q2 -3 2 -8zM705 567q0 -3 -2 -7l-275 -594q-40 -88 -96 -128.5t-167 -40.5q-85 0 -132 18q-19 8 -19 16v3l17 97 q2 8 9.5 14.5t16.5 6.5h1q4 0 58 -4t77 -4q45 0 61 38l14 33h-13q-36 0 -55.5 16t-23.5 53l-58 476v3q0 19 25 19h161q14 0 16 -20l18 -344q1 -17 8 -17h8l143 362q7 19 25 19h165q7 0 12.5 -4.5t5.5 -10.5z"/>
<glyph glyph-name="Ydieresis" horiz-adv-x="684" unicode="Ÿ" d="M473 917v-3l-17 -98q-1 -8 -9.5 -14t-16.5 -6h-116q-8 0 -13.5 5t-5.5 12v3l17 98q1 8 9.5 14t17.5 6h116q18 0 18 -17zM707 917v-3l-17 -98q-1 -8 -9.5 -14t-17.5 -6h-116q-18 0 -18 17v3l17 98q1 8 9.5 14t16.5 6h116q8 0 13.5 -5t5.5 -12zM790 733q0 -5 -3 -11 l-208 -345q-43 -70 -86 -86l-47 -271q-4 -20 -24 -20h-163q-15 0 -15 16v4l47 271q-39 17 -56 86l-86 345q0 1 -0.5 2.5t-0.5 2.5q0 6 5 11t12 5h177q13 0 17 -19l49 -265q2 -10 8 -10q7 0 12 10l143 265q9 19 23 19h185q11 0 11 -10z"/>
<glyph glyph-name="Zacute" d="M677 935q0 -5 -6 -9l-147 -120q-14 -11 -26 -11h-129q-8 0 -8 6q0 5 6 11l111 114q15 15 30 15h158q11 0 11 -6zM696 731v-4l-22 -126q-4 -23 -45 -73l-272 -334q-6 -8 -6 -12q0 -7 11 -7h226q17 0 17 -16v-3l-24 -136q-4 -20 -24 -20h-476q-22 0 -22 19q0 1 0.5 3.5 t0.5 3.5l18 105q4 21 27 49l299 369q6 7 6 13t-10 6h-214q-16 0 -16 16v4l24 136q3 19 23 19h461q18 0 18 -12z" unicode="Ź"/>
<glyph glyph-name="zacute" horiz-adv-x="541" unicode="ź" d="M604 773q0 -5 -6 -9l-147 -120q-14 -11 -26 -11h-129q-8 0 -8 6q0 5 6 11l111 114q15 15 30 15h158q11 0 11 -6zM591 560v-5l-16 -91q-4 -22 -25 -46l-216 -247q-5 -7 -5 -10q0 -5 8 -5h168q15 0 15 -13v-3l-21 -120q-4 -20 -24 -20h-401q-10 0 -16 6.5t-6 15.5v5l15 84 q4 24 22 44l227 259q6 6 6 10q0 5 -8 5h-168q-14 0 -14 13v3l21 117q4 20 24 20h393q21 0 21 -22z"/>
<glyph glyph-name="Zdotaccent" d="M549 944q18 0 18 -14q0 -1 -0.5 -3t-0.5 -3l-19 -109q-4 -20 -25 -20h-146q-17 0 -17 13q0 1 0.5 3.5t0.5 3.5l19 109q4 20 24 20h146zM696 731v-4l-22 -126q-4 -23 -45 -73l-272 -334q-6 -8 -6 -12q0 -7 11 -7h226q17 0 17 -16v-3l-24 -136q-4 -20 -24 -20h-476 q-22 0 -22 19q0 1 0.5 3.5t0.5 3.5l18 105q4 21 27 49l299 369q6 7 6 13t-10 6h-214q-16 0 -16 16v4l24 136q3 19 23 19h461q18 0 18 -12z" unicode="Ż"/>
<glyph glyph-name="zdotaccent" horiz-adv-x="541" unicode="ż" d="M481 782q18 0 18 -14q0 -1 -0.5 -3t-0.5 -3l-19 -109q-4 -20 -25 -20h-146q-17 0 -17 13q0 1 0.5 3.5t0.5 3.5l19 109q4 20 24 20h146zM591 560v-5l-16 -91q-4 -22 -25 -46l-216 -247q-5 -7 -5 -10q0 -5 8 -5h168q15 0 15 -13v-3l-21 -120q-4 -20 -24 -20h-401 q-10 0 -16 6.5t-6 15.5v5l15 84q4 24 22 44l227 259q6 6 6 10q0 5 -8 5h-168q-14 0 -14 13v3l21 117q4 20 24 20h393q21 0 21 -22z"/>
<glyph glyph-name="Zcaron" d="M702 935q0 -5 -6 -11l-109 -114q-15 -15 -30 -15h-190q-17 0 -26 15l-69 114q-3 4 -3 8q0 9 11 9h127q14 0 22 -11l46 -57l66 57q12 11 26 11h127q8 0 8 -6zM696 731v-4l-22 -126q-4 -23 -45 -73l-272 -334q-6 -8 -6 -12q0 -7 11 -7h226q17 0 17 -16v-3l-24 -136 q-4 -20 -24 -20h-476q-22 0 -22 19q0 1 0.5 3.5t0.5 3.5l18 105q4 21 27 49l299 369q6 7 6 13t-10 6h-214q-16 0 -16 16v4l24 136q3 19 23 19h461q18 0 18 -12z" unicode="Ž"/>
<glyph glyph-name="zcaron" horiz-adv-x="541" unicode="ž" d="M631 773q0 -5 -6 -11l-109 -114q-15 -15 -30 -15h-190q-17 0 -26 15l-69 114q-3 4 -3 8q0 9 11 9h127q14 0 22 -11l46 -57l66 57q12 11 26 11h127q8 0 8 -6zM591 560v-5l-16 -91q-4 -22 -25 -46l-216 -247q-5 -7 -5 -10q0 -5 8 -5h168q15 0 15 -13v-3l-21 -120 q-4 -20 -24 -20h-401q-10 0 -16 6.5t-6 15.5v5l15 84q4 24 22 44l227 259q6 6 6 10q0 5 -8 5h-168q-14 0 -14 13v3l21 117q4 20 24 20h393q21 0 21 -22z"/>
<glyph glyph-name="florin" horiz-adv-x="666" unicode="ƒ" d="M708 768q0 -1 -0.5 -3t-0.5 -3l-21 -92q-5 -20 -26 -20h-68q-37 0 -49.5 -8t-17.5 -33l-32 -144h130q17 0 17 -15q0 -1 -0.5 -2.5t-0.5 -2.5l-23 -103q-6 -21 -26 -21h-130l-71 -313q-42 -183 -248 -183q-60 0 -110 10q-18 4 -18 15l1 2v3l20 92q1 8 9 13.5t17 5.5h69 q36 0 48.5 8.5t17.5 33.5l71 313h-125q-17 0 -17 16q0 1 0.5 2.5t0.5 2.5l23 103q5 20 26 20h126l32 144q40 183 247 183q61 0 111 -10q18 -4 18 -14z"/>
<glyph glyph-name="Scommaaccent" horiz-adv-x="606" unicode="Ș" d="M239 -52h146q12 0 12 -9q0 -5 -4 -10l-76 -108q-12 -20 -25 -20h-112q-13 0 -13 9q0 3 2 11l46 108q8 19 24 19zM671 712v-3l-22 -125q-3 -19 -21 -19h-2q-173 13 -225 13q-57 0 -57 -42q0 -10 9 -19t35 -24l122 -72q100 -58 100 -167q0 -68 -27 -119.5t-73.5 -82.5 t-103.5 -46t-123 -15q-109 0 -197 26q-17 6 -17 17v3l21 123q4 20 23 20h2q154 -15 200 -15q73 0 73 59q0 19 -39 45l-129 85q-42 27 -64 71.5t-22 93.5q0 65 24 112t67 73t94.5 37.5t114.5 11.5q57 0 124.5 -8t97.5 -17q15 -6 15 -16z"/>
<glyph glyph-name="scommaaccent" horiz-adv-x="516" unicode="ș" d="M185 -52h146q12 0 12 -9q0 -5 -4 -10l-76 -108q-12 -20 -25 -20h-112q-13 0 -13 9q0 3 2 11l46 108q8 19 24 19zM559 544l-19 -106q-4 -20 -19 -20h-4q-116 16 -169 16q-41 0 -41 -19q0 -10 6.5 -16.5t29.5 -20.5l63 -37q60 -36 82.5 -72.5t22.5 -80.5 q0 -70 -37.5 -115.5t-93.5 -63.5t-130 -18q-107 0 -186 24q-18 6 -15 22l18 103q3 22 21 22q1 0 3 -0.5t4 -0.5q116 -16 170 -16q52 0 52 34q0 14 -24 28l-81 48q-100 59 -100 149q0 187 249 187q95 0 182 -25q18 -6 16 -22z"/>
<glyph glyph-name="uni021A" horiz-adv-x="594" unicode="Ț" d="M220 -52h146q12 0 12 -9q0 -5 -4 -10l-76 -108q-12 -20 -25 -20h-112q-13 0 -13 9q0 3 2 11l46 108q8 19 24 19zM698 727v-3l-23 -128q-1 -8 -8.5 -13.5t-15.5 -5.5h-149l-98 -557q-4 -20 -24 -20h-163q-16 0 -16 16v4l98 557h-152q-17 0 -17 16v3l23 128q3 19 23 19h504 q18 0 18 -16z"/>
<glyph glyph-name="uni021B" horiz-adv-x="432" unicode="ț" d="M165 -52h146q12 0 12 -9q0 -5 -4 -10l-76 -108q-12 -20 -25 -20h-112q-13 0 -13 9q0 3 2 11l46 108q8 19 24 19zM406 582h72q21 0 21 -14q0 -1 -0.5 -3t-0.5 -3l-18 -102q-4 -20 -23 -20h-76l-48 -269q-3 -13 -3 -21q0 -17 24 -17h46q21 0 18 -19l-16 -94q-3 -16 -25 -20 q-72 -9 -91 -9q-149 0 -149 130q0 20 5 52l47 267l-64 15q-18 5 -18 16q0 1 0.5 3t0.5 3l15 84q4 21 25 21h66l14 81q3 17 25 21l153 26h4q18 0 15 -19z"/>
<glyph glyph-name="dotlessj" horiz-adv-x="312" unicode="ȷ" d="M352 564v-3l-103 -582q-19 -106 -65.5 -145.5t-135.5 -39.5q-42 0 -93 9q-16 3 -16 17v4l16 93q4 20 25 20h43q17 0 23 9.5t10 32.5l103 582q1 8 9.5 14.5t16.5 6.5h149q8 0 13 -5t5 -13z"/>
<glyph glyph-name="circumflex" horiz-adv-x="472" unicode="ˆ" d="M562 642q0 -9 -10 -9h-120q-14 0 -22 11l-46 59l-66 -59q-12 -11 -26 -11h-128q-8 0 -8 6q0 5 6 11l106 114q15 15 30 15h190q17 0 26 -15l66 -114q2 -3 2 -8z"/>
<glyph glyph-name="caron" horiz-adv-x="472" unicode="ˇ" d="M159 770q0 9 10 9h120q14 0 22 -11l46 -59l66 59q12 11 26 11h128q8 0 8 -6q0 -5 -6 -11l-106 -114q-15 -15 -30 -15h-190q-17 0 -26 15l-66 114q-2 3 -2 8z"/>
<glyph glyph-name="uni02C9" horiz-adv-x="472" unicode="ˉ" d="M542 771q18 0 18 -13q0 -1 -0.5 -3t-0.5 -3l-16 -88q-4 -20 -23 -20h-339q-18 0 -18 14q0 1 0.5 3t0.5 3l16 88q3 19 23 19h339z"/>
<glyph glyph-name="breve" horiz-adv-x="472" unicode="˘" d="M458 779h106q12 0 12 -7q0 -4 -1 -6q-29 -79 -84.5 -111t-136.5 -32q-69 0 -121.5 39t-63.5 104q0 1 -0.5 3t-0.5 3q0 7 10 7h109q4 0 6 -0.5t3.5 -1.5t2.5 -3t1.5 -3.5t0.5 -4.5q3 -25 22.5 -35.5t42.5 -10.5q52 0 74 46q6 13 18 13z"/>
<glyph glyph-name="dotaccent" horiz-adv-x="472" unicode="˙" d="M447 782q18 0 18 -14q0 -1 -0.5 -3t-0.5 -3l-19 -109q-4 -20 -25 -20h-146q-17 0 -17 13q0 1 0.5 3.5t0.5 3.5l19 109q4 20 24 20h146z"/>
<glyph glyph-name="ring" horiz-adv-x="472" unicode="˚" d="M418 716q0 16 -12 28.5t-29 12.5t-28.5 -12t-11.5 -29t12 -30t28 -13t28.5 13t12.5 30zM498 715q0 -50 -36 -86t-86 -36t-84.5 35.5t-34.5 86.5t34.5 86.5t84.5 35.5t86 -36t36 -86z"/>
<glyph glyph-name="ogonek" horiz-adv-x="451" unicode="˛" d="M221 -67q0 -20 34 -20q15 0 40 4.5t27 4.5q15 0 11 -22l-11 -59q-2 -13 -6 -17.5t-19 -8.5q-56 -16 -118 -16q-48 0 -80.5 20t-32.5 65q0 38 20.5 64.5t71.5 53.5l53 28q14 7 30 7h90q10 0 10 -8q0 -6 -5 -9l-83 -50q-11 -7 -15 -9.5t-9 -7t-6.5 -9t-1.5 -11.5z"/>
<glyph glyph-name="tilde" horiz-adv-x="498" unicode="˜" d="M495 789h83q17 0 14 -17l-3 -18q-12 -69 -47 -98t-99 -29q-48 0 -84 24l-31 21q-22 15 -36 15q-19 0 -23 -20l-3 -17q-3 -17 -19 -17h-84q-17 0 -14 17l3 17q22 127 150 127q46 0 80 -23l32 -21q26 -16 36 -16q18 0 22 21l3 17q3 17 20 17z"/>
<glyph glyph-name="hungarumlaut" horiz-adv-x="472" unicode="˝" d="M641 779q11 0 11 -7q0 -6 -6 -10l-145 -118q-14 -11 -33 -11h-119q-6 0 -8 3.5t-1 7.5t4 7l110 113q15 15 30 15h157zM385 779q11 0 11 -7q0 -6 -6 -10l-145 -118q-14 -11 -33 -11h-119q-9 0 -9 8q0 6 4 10l110 113q15 15 30 15h157z"/>
<glyph glyph-name="uni0400" horiz-adv-x="586" unicode="Ѐ" d="M546 804q0 -9 -11 -9h-119q-13 0 -22 11l-105 120q-3 5 -3 7q0 8 12 8h148q16 0 26 -15l71 -114q3 -4 3 -8zM659 725v-4l-21 -122q-4 -20 -24 -20h-202q-27 0 -39.5 -11t-17.5 -39l-13 -73h246q17 0 17 -17v-3l-21 -118q-4 -20 -23 -20h-246l-15 -83q-2 -16 -2 -20 q0 -17 9.5 -23.5t31.5 -6.5h202q17 0 17 -17v-3l-22 -122q-3 -17 -23 -20q-94 -12 -197 -12q-98 0 -161 41t-63 132q0 21 5 51l55 314q10 59 31 101t47 65.5t64 36.5t72 17t82 4q106 0 195 -12q16 -1 16 -16z"/>
<glyph glyph-name="afii10023" horiz-adv-x="585" unicode="Ё" d="M404 818q-1 -8 -9.5 -14t-16.5 -6h-116q-8 0 -14 6t-5 14l17 98q1 8 9.5 14t17.5 6h116q8 0 13.5 -6t4.5 -14zM638 818q-1 -8 -9.5 -14t-17.5 -6h-116q-8 0 -13.5 6t-4.5 14l17 98q1 8 9.5 14t16.5 6h116q8 0 14 -6t5 -14zM536 23q-4 -17 -24 -20q-94 -12 -199 -12 q-47 0 -83 6.5t-70 23t-52 50.5t-18 84q0 27 6 60l56 314q10 56 32 97.5t49.5 65t65 38t71.5 19t77 4.5q106 0 195 -12q20 -3 17 -20l-22 -122q-4 -20 -23 -20h-202q-27 0 -39.5 -10.5t-17.5 -39.5l-13 -73h246q8 0 13 -6t3 -14l-20 -118q-4 -20 -24 -20h-246l-15 -83 q-2 -14 -2 -18q0 -18 9.5 -25t32.5 -7h202q8 0 13 -6t3 -14z"/>
<glyph glyph-name="afii10051" horiz-adv-x="841" unicode="Ђ" d="M675 596q-1 -8 -8.5 -13.5t-16.5 -5.5h-149l-22 -128q73 38 175 38q186 0 186 -156q0 -27 -7 -69l-46 -260q-19 -109 -72 -151.5t-139 -42.5q-47 0 -90 7q-20 3 -17 20l20 109q4 20 23 20h37q16 0 23 9t11 29l46 260q2 14 2 20q0 26 -16.5 36t-51.5 10q-64 0 -110 -22 l-50 -286q-4 -20 -22 -20h-163q-8 0 -13.5 6t-4.5 14l98 557h-152q-19 0 -16 19l22 128q1 8 8.5 13.5t15.5 5.5h504q8 0 13 -5.5t4 -13.5z"/>
<glyph glyph-name="afii10052" horiz-adv-x="558" unicode="Ѓ" d="M687 926l-147 -120q-16 -11 -26 -11h-129q-4 0 -6.5 2t-1.5 5q0 6 6 10l111 114q15 15 30 15h158q10 0 10 -6q0 -4 -5 -9zM350 528l-90 -508q-4 -20 -22 -20h-163q-8 0 -13.5 6t-4.5 14l90 508q10 56 32 97.5t49.5 65t65 38t71.5 19t77 4.5q106 0 195 -12q17 -3 17 -14 q0 -4 -1 -6l-21 -122q-4 -20 -24 -20h-202q-27 0 -39.5 -10.5t-16.5 -39.5z"/>
<glyph glyph-name="afii10053" horiz-adv-x="628" unicode="Є" d="M568 32q-2 -15 -26 -22q-54 -18 -156 -18q-130 0 -207.5 71t-77.5 209q0 45 9 99l11 63q16 94 54.5 158.5t94 98.5t115.5 48t135 14q102 0 150 -18q19 -6 19 -16q0 -1 -0.5 -3t-0.5 -3l-22 -128q-4 -19 -22 -19h-3q-90 9 -132 9q-37 0 -63.5 -5.5t-56.5 -30t-47 -68.5 h249q8 0 13 -6t3 -14l-21 -118q-4 -20 -23 -20h-254q-2 -22 -2 -30q0 -36 11 -60t31.5 -35t40 -14.5t47.5 -3.5q41 0 136 9h3q18 0 15 -19z"/>
<glyph glyph-name="afii10054" horiz-adv-x="607" unicode="Ѕ" d="M671 712v-3l-22 -125q-3 -19 -21 -19h-2q-173 13 -225 13q-57 0 -57 -42q0 -10 9 -19t35 -24l122 -72q100 -58 100 -167q0 -68 -27 -119.5t-73.5 -82.5t-103.5 -46t-123 -15q-109 0 -197 26q-17 6 -17 17v3l21 123q4 20 23 20h2q154 -15 200 -15q73 0 73 59q0 19 -39 45 l-129 85q-42 27 -64 71.5t-22 93.5q0 65 24 112t67 73t94.5 37.5t114.5 11.5q57 0 124.5 -8t97.5 -17q15 -6 15 -16z"/>
<glyph glyph-name="afii10055" horiz-adv-x="334" unicode="І" d="M272 20q-4 -20 -22 -20h-164q-8 0 -13.5 6t-4.5 14l124 704q1 8 8.5 13.5t15.5 5.5h164q19 0 16 -19z"/>
<glyph glyph-name="afii10056" horiz-adv-x="334" unicode="Ї" d="M273 818q-1 -8 -9.5 -14t-16.5 -6h-115q-8 0 -14 6t-5 14l17 98q1 8 9.5 14t17.5 6h115q8 0 13.5 -6t4.5 -14zM507 818q-1 -8 -9.5 -14t-17.5 -6h-116q-8 0 -13.5 6t-4.5 14l17 98q1 8 9.5 14t16.5 6h116q9 0 14.5 -6t4.5 -14zM271 20q-4 -20 -22 -20h-164q-8 0 -13.5 6 t-4.5 14l124 704q1 8 8.5 13.5t15.5 5.5h164q19 0 16 -19z"/>
<glyph glyph-name="afii10057" horiz-adv-x="334" unicode="Ј" d="M267 2q-19 -109 -72 -151.5t-139 -42.5q-45 0 -88 7q-17 3 -17 15q0 1 0.5 2.5t0.5 2.5l20 109q4 20 22 20h35q16 0 23 9t11 29l127 721q1 8 9 14t16 6h163q8 0 13 -6t3 -14z"/>
<glyph glyph-name="afii10058" horiz-adv-x="1111" unicode="Љ" d="M833 318h-82l-29 -162h82q103 0 116 72l3 18q1 5 1 15q0 57 -91 57zM596 576h-149q-6 0 -8 -3t-5 -11l-202 -543q-8 -19 -22 -19h-173q-16 0 -16 14q0 2 1 4t1 3l240 602q28 69 81 94.5t133 25.5h333q19 0 16 -19l-43 -242q10 0 27.5 0.5t24.5 0.5q290 0 290 -181 q0 -20 -5 -50l-5 -30q-41 -231 -367 -231q-121 0 -190 12q-29 5 -41 15.5t-12 33.5q0 10 3 27z"/>
<glyph glyph-name="afii10059" horiz-adv-x="1097" unicode="Њ" d="M737 318l-29 -162h82q103 0 116 72l3 18q1 5 1 15q0 57 -91 57h-82zM765 482q24 1 56 1q290 0 290 -181q0 -20 -5 -50l-5 -30q-41 -231 -367 -231q-140 0 -235 9q-21 2 -18 20l48 272h-209l-48 -272q-4 -20 -22 -20h-163q-9 0 -14.5 6t-4.5 14l124 704q1 8 8.5 13.5 t16.5 5.5h163q19 0 16 -19l-45 -256h209l45 256q1 8 8.5 13.5t15.5 5.5h163q19 0 16 -19z"/>
<glyph glyph-name="afii10060" horiz-adv-x="841" unicode="Ћ" d="M675 596q-1 -8 -8.5 -13.5t-16.5 -5.5h-149l-22 -128q73 38 175 38q186 0 186 -156q0 -27 -7 -69l-43 -243q-4 -20 -24 -20h-164q-8 0 -13 6t-3 14l43 243q2 14 2 20q0 26 -16.5 36t-51.5 10q-64 0 -110 -22l-50 -286q-4 -20 -22 -20h-163q-8 0 -13.5 6t-4.5 14l98 557 h-152q-19 0 -16 19l22 128q1 8 8.5 13.5t15.5 5.5h504q8 0 13 -5.5t4 -13.5z"/>
<glyph glyph-name="afii10061" horiz-adv-x="713" unicode="Ќ" d="M746 933q0 -3 -5 -8l-148 -120q-14 -11 -25 -11h-129q-4 0 -6.5 2t-1.5 5q0 5 6 10l111 114q15 15 30 15h158q5 0 8 -2t2 -5zM690 11q-2 -11 -13 -11h-210q-12 0 -20 17l-119 319l-56 -316q-4 -20 -22 -20h-163q-9 0 -14.5 6t-4.5 14l124 704q1 8 8.5 13.5t16.5 5.5h163 q19 0 16 -19l-56 -317l249 320q11 16 25 16h192q12 0 12 -9q0 -5 -6 -13l-279 -344l156 -356q3 -4 1 -10z"/>
<glyph glyph-name="uni040D" horiz-adv-x="746" unicode="Ѝ" d="M607 804q0 -9 -11 -9h-119q-13 0 -22 11l-105 120q-3 5 -3 7q0 8 12 8h148q16 0 26 -15l71 -114q3 -4 3 -8zM71 37l121 686q4 20 24 20h150q8 0 13 -6t3 -14l-62 -354q-2 -9 3 -9q3 0 11 9l263 345q23 29 46 29h132q13 0 22 -8.5t9 -21.5q0 -1 -0.5 -3.5t-0.5 -3.5 l-121 -686q-4 -20 -23 -20h-150q-8 0 -13.5 6t-4.5 14l60 341q1 9 -3 9q-5 0 -12 -8l-256 -335q-20 -27 -45 -27h-134q-14 0 -23.5 9t-9.5 22q0 1 0.5 3t0.5 3z"/>
<glyph glyph-name="afii10062" horiz-adv-x="639" unicode="Ў" d="M698 946q0 -2 -3 -7q-80 -143 -231 -143q-150 0 -181 143q0 2 -0.5 4t-0.5 3q2 6 10 6h118q4 0 6 -0.5t3.5 -1.5t2.5 -3t1.5 -3.5t0.5 -4.5q6 -46 57 -46q52 0 73 46q5 13 18 13h118q5 0 7 -1.5t1 -4.5zM560 743h169q18 0 18 -12q0 -3 -4 -13l-260 -558 q-40 -86 -102 -127.5t-174 -41.5q-87 0 -132 18q-6 3 -8 3.5t-6 3t-5.5 5.5t-0.5 7l19 103q4 21 24 21h2q3 0 58 -4t78 -4t34 5.5t20 26.5l14 35h-19q-38 0 -55.5 15.5t-25.5 71.5l-56 421v5q0 19 25 19h169q14 0 16 -20l24 -309q1 -17 9 -17h8l136 327q9 19 25 19z"/>
<glyph glyph-name="afii10145" horiz-adv-x="746" unicode="Џ" d="M473 2l-18 -103q-4 -20 -24 -20h-164q-8 0 -13 6t-3 14l18 103q-97 10 -134.5 50t-37.5 103q0 32 9 79l86 489q1 8 9 14t16 6h163q8 0 13 -6t3 -14l-86 -489q-2 -12 -2 -15q0 -35 50 -35h95q28 0 44.5 10t21.5 40l86 489q4 20 24 20h163q8 0 13 -6t3 -14l-86 -489 q-7 -36 -14 -61.5t-24.5 -58t-42.5 -53t-68 -37.5t-100 -22z"/>
<glyph glyph-name="afii10017" horiz-adv-x="692" unicode="А" d="M465 318l-4 254q0 14 -9 14q-6 0 -8 -3t-5 -11l-94 -254h120zM675 20q0 -20 -18 -20h-170q-7 0 -12.5 5.5t-5.5 13.5l-3 139h-178l-53 -139q-8 -19 -22 -19h-177q-15 0 -15 13q0 2 2 8l242 612q27 69 80 94t133 25q81 0 124.5 -25t46.5 -94l26 -612v-1z"/>
<glyph glyph-name="afii10018" horiz-adv-x="689" unicode="Б" d="M403 318h-82l-29 -162h82q103 0 116 72l3 18q1 5 1 15q0 57 -91 57zM216 743h485q8 0 13 -6t3 -14l-21 -118q-4 -20 -23 -20h-301l-19 -103q10 0 27.5 0.5t24.5 0.5q290 0 290 -181q0 -20 -5 -50l-5 -30q-41 -231 -367 -231q-121 0 -190 12q-29 5 -41 15.5t-12 33.5 q0 10 3 27l114 645q1 8 8.5 13.5t15.5 5.5z"/>
<glyph glyph-name="afii10019" horiz-adv-x="689" unicode="В" d="M494 255q0 54 -78 54h-97l-26 -153h82q100 0 115 72l2 9q2 12 2 18zM539 536q0 26 -20.5 39t-70.5 13q-4 0 -40 -0.5t-39 -0.5l-26 -142h97q89 0 96 63l2 16q1 4 1 12zM741 581q0 -22 -4 -42l-3 -17q-9 -51 -39 -88t-63 -54q21 -14 39 -46.5t18 -73.5q0 -7 -2 -25l-2 -13 q-11 -69 -41 -115.5t-80 -71t-107.5 -34.5t-135.5 -10q-123 0 -192 12q-29 6 -41 16t-12 33q0 12 3 27l103 587q7 39 23 54.5t53 20.5q74 12 194 12q289 0 289 -172z"/>
<glyph glyph-name="afii10020" horiz-adv-x="557" unicode="Г" d="M350 528l-90 -508q-4 -20 -22 -20h-163q-8 0 -13.5 6t-4.5 14l90 508q10 56 32 97.5t49.5 65t65 38t71.5 19t77 4.5q106 0 195 -12q17 -3 17 -14q0 -4 -1 -6l-21 -122q-4 -20 -24 -20h-202q-27 0 -39.5 -10.5t-16.5 -39.5z"/>
<glyph glyph-name="afii10021" horiz-adv-x="786" unicode="Д" d="M480 572l-156 -412h189l-11 412v2q0 12 -8 12q-6 0 -8 -2.5t-6 -11.5zM68 160h50l192 473q29 69 81 94t132 25t124 -25t47 -94l26 -473h54q8 0 13 -6t3 -14l-42 -241q-4 -20 -24 -20h-138q-8 0 -13 6t-3 14l19 101h-390l-19 -101q-4 -20 -24 -20h-138q-8 0 -13 6t-3 14 l42 241q4 20 24 20z"/>
<glyph glyph-name="afii10022" horiz-adv-x="585" unicode="Е" d="M659 725v-4l-21 -122q-4 -20 -24 -20h-202q-27 0 -39.5 -11t-17.5 -39l-13 -73h246q17 0 17 -17v-3l-21 -118q-4 -20 -23 -20h-246l-15 -83q-2 -16 -2 -20q0 -17 9.5 -23.5t31.5 -6.5h202q17 0 17 -17v-3l-22 -122q-3 -17 -23 -20q-94 -12 -197 -12q-98 0 -161 41 t-63 132q0 21 5 51l55 314q10 59 31 101t47 65.5t64 36.5t72 17t82 4q106 0 195 -12q16 -1 16 -16z"/>
<glyph glyph-name="afii10024" horiz-adv-x="1094" unicode="Ж" d="M1071 11q-2 -11 -13 -11h-210q-12 0 -20 17l-119 319l-56 -316q-4 -20 -22 -20h-163q-8 0 -14 6t-5 14l56 316l-233 -319q-11 -17 -22 -17h-210q-13 0 -13 10q0 4 5 11l282 356l-157 344q-4 5 -2 11q2 11 16 11h192q12 0 19 -16l135 -320l56 317q1 8 8.5 13.5t16.5 5.5 h163q19 0 16 -19l-56 -317l249 320q11 16 25 16h192q12 0 12 -9q0 -5 -6 -13l-279 -344l156 -356q3 -4 1 -10z"/>
<glyph glyph-name="afii10025" horiz-adv-x="594" unicode="З" d="M653 589q0 -148 -125 -210q30 -17 49.5 -48.5t19.5 -71.5q0 -138 -87 -203t-228 -65q-60 0 -122 10t-96 24q-16 6 -16 17v3l17 98q3 19 22 19h2q152 -10 206 -10q55 0 78 24.5t23 79.5q0 23 -15 35t-53 12h-166q-16 0 -16 16v4l19 107q3 19 23 19h166q48 0 72 28.5 t24 77.5q0 21 -16 28.5t-54 7.5q-70 0 -213 -11h-2q-15 0 -15 15v4l17 98q2 12 24 20q100 36 218 36q109 0 176.5 -41t67.5 -123z"/>
<glyph glyph-name="afii10026" horiz-adv-x="746" unicode="И" d="M71 37l121 686q4 20 24 20h150q8 0 13 -6t3 -14l-62 -354q-2 -9 3 -9q3 0 11 9l263 345q23 29 46 29h132q13 0 22 -8.5t9 -21.5q0 -1 -0.5 -3.5t-0.5 -3.5l-121 -686q-4 -20 -23 -20h-150q-8 0 -13.5 6t-4.5 14l60 341q1 9 -3 9q-5 0 -12 -8l-256 -335q-20 -27 -45 -27 h-134q-14 0 -23.5 9t-9.5 22q0 1 0.5 3t0.5 3z"/>
<glyph glyph-name="afii10027" horiz-adv-x="746" unicode="Й" d="M750 941q0 -3 -3 -7q-80 -143 -231 -143q-150 0 -181 143q0 2 -0.5 4t-0.5 3q2 6 10 6h118q14 0 14 -13q6 -46 57 -46q52 0 73 46q6 13 18 13h118q5 0 7 -1.5t1 -4.5zM71 37l121 686q4 20 24 20h150q8 0 13 -6t3 -14l-62 -354q-2 -9 3 -9q3 0 11 9l263 345q23 29 46 29 h132q13 0 22 -8.5t9 -21.5q0 -1 -0.5 -3.5t-0.5 -3.5l-121 -686q-4 -20 -23 -20h-150q-8 0 -13.5 6t-4.5 14l60 341q1 9 -3 9q-5 0 -12 -8l-256 -335q-20 -27 -45 -27h-134q-14 0 -23.5 9t-9.5 22q0 1 0.5 3t0.5 3z"/>
<glyph glyph-name="afii10028" horiz-adv-x="704" unicode="К" d="M690 11q-2 -11 -13 -11h-210q-12 0 -20 17l-119 319l-56 -316q-4 -20 -22 -20h-163q-9 0 -14.5 6t-4.5 14l124 704q1 8 8.5 13.5t16.5 5.5h163q19 0 16 -19l-56 -317l249 320q11 16 25 16h192q12 0 12 -9q0 -5 -6 -13l-279 -344l156 -356q3 -4 1 -10z"/>
<glyph glyph-name="afii10029" horiz-adv-x="692" unicode="Л" d="M466 19l-9 553v2q0 12 -8 12q-6 0 -8 -2.5t-6 -11.5l-203 -553q-8 -19 -22 -19h-173q-16 0 -16 14q0 2 1 4t1 3l242 612q28 69 80.5 94t132.5 25q81 0 124.5 -25t46.5 -94l26 -612v-5q-2 -16 -17 -16h-174q-7 0 -12.5 5.5t-5.5 13.5z"/>
<glyph glyph-name="afii10030" horiz-adv-x="841" unicode="М" d="M778 12q-2 -12 -18 -12h-164q-6 0 -10 6t-3 14l65 367q1 10 -1 10t-4 -2h-1q-1 0 -11 -13l-104 -133q-15 -19 -32 -19h-69q-17 0 -26 19l-57 137q-5 9 -6 9h-1l-2 2q-5 0 -6 -10l-65 -367q-4 -20 -16 -20h-165q-5 0 -8 0.5t-5.5 3.5t-1.5 8l122 694q3 15 16 26t28 11h111 q34 0 45 -30l101 -253q3 -12 8 -12t15 12l189 253q24 30 57 30h111q13 0 22 -8.5t9 -21.5q0 -1 -0.5 -3.5t-0.5 -3.5z"/>
<glyph glyph-name="afii10031" horiz-adv-x="746" unicode="Н" d="M684 20q-4 -20 -22 -20h-163q-8 0 -13.5 6t-4.5 14l48 272h-209l-48 -272q-4 -20 -22 -20h-163q-9 0 -14.5 6t-4.5 14l124 704q1 8 8.5 13.5t16.5 5.5h163q19 0 16 -19l-45 -256h209l45 256q1 8 8.5 13.5t15.5 5.5h163q19 0 16 -19z"/>
<glyph glyph-name="afii10032" horiz-adv-x="708" unicode="О" d="M537 485q0 89 -82 89q-52 0 -82 -35.5t-45 -115.5l-19 -103q-7 -42 -7 -62q0 -88 82 -88q53 0 82.5 35t44.5 115l19 103q7 42 7 62zM744 507q0 -44 -8 -84l-19 -103q-32 -175 -125 -252t-240 -77q-112 0 -184.5 63.5t-72.5 184.5q0 35 8 81l19 103q61 330 365 330 q112 0 184.5 -61.5t72.5 -184.5z"/>
<glyph glyph-name="afii10033" horiz-adv-x="746" unicode="П" d="M770 509l-86 -489q-4 -20 -22 -20h-163q-8 0 -13.5 6t-4.5 14l86 489q2 12 2 15q0 35 -50 35h-95q-28 0 -44.5 -10t-21.5 -40l-86 -489q-4 -20 -22 -20h-163q-9 0 -14.5 6t-4.5 14l86 489q7 39 15 66.5t29 62t51.5 55t83.5 35.5t124 15h94q129 0 178 -42t49 -114 q0 -36 -8 -78z"/>
<glyph glyph-name="afii10034" horiz-adv-x="677" unicode="Р" d="M536 527q0 56 -96 56q-4 0 -36 -0.5t-35 -0.5l-30 -170q5 -1 70 -1q61 0 94 30t33 86zM743 555q0 -153 -95.5 -233t-254.5 -80q-3 0 -84 3l-39 -225q-4 -20 -23 -20h-160q-19 0 -19 15v2v1l116 656q7 35 21 48t48 18q85 13 214 13q276 0 276 -198z"/>
<glyph glyph-name="afii10035" horiz-adv-x="555" unicode="С" d="M643 717v-5l-23 -128q-3 -19 -21 -19h-3q-90 9 -139 9q-48 0 -80.5 -30.5t-48.5 -120.5l-19 -103q-6 -36 -6 -61q0 -52 22.5 -71t60.5 -19q49 0 141 9h3q15 0 15 -14v-5l-23 -128q-2 -15 -25 -22q-54 -18 -142 -18q-116 0 -188 64t-72 184q0 35 8 81l19 103 q33 181 123.5 255.5t240.5 74.5q85 0 138 -19q19 -7 19 -17z"/>
<glyph glyph-name="afii10036" horiz-adv-x="594" unicode="Т" d="M675 596q-1 -8 -8.5 -13.5t-16.5 -5.5h-149l-98 -557q-4 -20 -22 -20h-163q-8 0 -13.5 6t-4.5 14l98 557h-152q-19 0 -16 19l22 128q1 8 8.5 13.5t15.5 5.5h504q8 0 13 -5.5t4 -13.5z"/>
<glyph glyph-name="afii10037" horiz-adv-x="639" unicode="У" d="M560 743h169q18 0 18 -12q0 -3 -4 -13l-260 -558q-40 -86 -102 -127.5t-174 -41.5q-87 0 -132 18q-6 3 -8 3.5t-6 3t-5.5 5.5t-0.5 7l19 103q4 21 24 21h2q3 0 58 -4t78 -4t34 5.5t20 26.5l14 35h-19q-38 0 -55.5 15.5t-25.5 71.5l-56 421v5q0 19 25 19h169q14 0 16 -20 l24 -309q1 -17 9 -17h8l136 327q9 19 25 19z"/>
<glyph glyph-name="afii10038" horiz-adv-x="1022" unicode="Ф" d="M393 302q62 0 70 1l30 170q-4 0 -35.5 0.5t-34.5 0.5q-106 0 -121 -81q-3 -14 -3 -25q0 -66 94 -66zM857 385q2 8 2 26q0 63 -94 63q-4 0 -36 -0.5t-35 -0.5l-30 -170q5 -1 71 -1q109 0 122 83zM1057 370q-10 -57 -36 -100t-59.5 -68.5t-76.5 -41.5t-81.5 -21.5 t-80.5 -5.5q-8 0 -89 3l-20 -116q-4 -20 -22 -20h-160q-9 0 -14.5 5t-4.5 13l20 118q-81 -3 -87 -3q-252 0 -252 214q0 23 7 61q42 236 355 236q44 0 67 -1l16 91q3 18 24 18h160q8 0 13 -6t4 -14l-16 -90q46 2 68 2q53 0 99.5 -11.5t86.5 -35t63 -66t23 -98.5q0 -25 -7 -63 z"/>
<glyph glyph-name="afii10039" horiz-adv-x="729" unicode="Х" d="M806 733q0 -5 -3 -9l-264 -354l149 -350q1 -2 1 -6q0 -14 -14 -14h-191q-16 0 -23 18l-76 178l-127 -176q-15 -20 -27 -20h-187q-12 0 -12 10q0 6 4 10l268 368l-142 336q-1 2 -1 5q0 14 15 14h192q13 0 21 -19l73 -170l118 170q13 19 27 19h188q11 0 11 -10z"/>
<glyph glyph-name="afii10040" horiz-adv-x="774" unicode="Ц" d="M790 153l-44 -254q-4 -20 -24 -20h-154q-8 0 -13 6t-3 14l22 124q-61 -23 -153 -23h-94q-68 0 -115 12.5t-71 35.5t-33.5 49t-9.5 60q0 27 8 77l86 489q1 8 9 14t16 6h163q8 0 13 -6t3 -14l-86 -489q-2 -12 -2 -15q0 -35 50 -35h95q28 0 44.5 10t21.5 40l86 489 q4 20 24 20h163q8 0 13 -6t3 -14l-86 -489q-5 -25 -14 -62h66q19 0 16 -19z"/>
<glyph glyph-name="afii10041" horiz-adv-x="731" unicode="Ч" d="M466 20l43 244q-84 -45 -183 -45q-112 0 -157.5 43.5t-45.5 120.5q0 40 7 76l47 263q1 8 9 14.5t16 6.5h164q8 0 13 -6.5t3 -14.5l-47 -263q-2 -9 -2 -24q0 -22 11.5 -33.5t26 -13.5t42.5 -2q57 0 123 32l54 305q4 20 24 20h163q8 0 13 -6t3 -14l-124 -703 q-4 -20 -22 -20h-163q-8 0 -13.5 6t-4.5 14z"/>
<glyph glyph-name="afii10042" horiz-adv-x="1019" unicode="Ш" d="M358 184h82l95 539q4 20 24 20h163q8 0 13 -6t3 -14l-95 -539h83q28 0 44.5 10t21.5 40l86 489q4 20 24 20h163q8 0 13 -6t3 -14l-86 -489q-7 -40 -15 -67t-28.5 -61.5t-50.5 -55t-83 -35.5t-124 -15h-367q-68 0 -115 12.5t-71 35.5t-33.5 49t-9.5 60q0 27 8 77l86 489 q1 8 9 14t16 6h163q8 0 13 -6t3 -14l-86 -489q-2 -12 -2 -15q0 -35 50 -35z"/>
<glyph glyph-name="afii10043" horiz-adv-x="1047" unicode="Щ" d="M1063 153l-44 -254q-4 -20 -24 -20h-164q-8 0 -13 6t-3 14l21 121q-58 -20 -142 -20h-367q-68 0 -115 12.5t-71 35.5t-33.5 49t-9.5 60q0 27 8 77l86 489q1 8 9 14t16 6h163q8 0 13 -6t3 -14l-86 -489q-2 -12 -2 -15q0 -35 50 -35h82l95 539q4 20 24 20h163q8 0 13 -6 t3 -14l-95 -539h83q28 0 44.5 10t21.5 40l86 489q4 20 24 20h163q8 0 13 -6t3 -14l-86 -489q-5 -25 -14 -62h66q19 0 16 -19z"/>
<glyph glyph-name="afii10044" horiz-adv-x="698" unicode="Ъ" d="M419 318h-82l-29 -162h82q103 0 116 72q4 23 4 33q0 57 -91 57zM139 743h257q19 0 16 -19l-43 -242q10 0 27.5 0.5t24.5 0.5q58 0 107 -10t91.5 -31.5t66.5 -61.5t24 -95q0 -20 -10 -80q-10 -56 -36.5 -96.5t-60 -62.5t-82 -35t-90.5 -16.5t-97 -3.5q-121 0 -190 12 q-29 5 -41 15.5t-12 33.5q0 10 3 27l88 498h-73q-8 0 -12 6t-3 14l22 126q1 8 8 14t15 6z"/>
<glyph glyph-name="afii10045" horiz-adv-x="973" unicode="Ы" d="M321 318l-29 -162h82q103 0 116 72q4 23 4 33q0 57 -91 57h-82zM684 209q-10 -56 -36.5 -96.5t-60 -63.5t-82 -36.5t-91 -17.5t-96.5 -4q-121 0 -190 12q-29 5 -41 15.5t-12 33.5q0 10 3 27l114 645q1 8 8.5 13.5t15.5 5.5h164q19 0 16 -19l-43 -242q10 0 27.5 0.5 t24.5 0.5q58 0 107 -9.5t91.5 -30.5t66.5 -60t24 -94q0 -23 -10 -80zM911 20q-4 -20 -22 -20h-164q-8 0 -13.5 6t-4.5 14l124 704q1 8 8.5 13.5t15.5 5.5h164q19 0 16 -19z"/>
<glyph glyph-name="afii10046" horiz-adv-x="681" unicode="Ь" d="M403 318h-82l-29 -162h82q103 0 116 72q4 23 4 33q0 57 -91 57zM684 209q-10 -56 -36.5 -96.5t-60 -63.5t-82 -36.5t-91 -17.5t-96.5 -4q-121 0 -190 12q-29 5 -41 15.5t-12 33.5q0 10 3 27l114 645q1 8 8.5 13.5t15.5 5.5h164q19 0 16 -19l-43 -242q10 0 27.5 0.5 t24.5 0.5q58 0 107 -9.5t91.5 -30.5t66.5 -60t24 -94q0 -23 -10 -80z"/>
<glyph glyph-name="afii10047" horiz-adv-x="618" unicode="Э" d="M60 32l23 128q3 19 21 19h3q90 -9 132 -9q31 0 54 4.5t49 18t46 44t31 76.5h-254q-8 0 -13 6t-4 14l21 118q4 20 24 20h249q-2 44 -23.5 68.5t-46 30t-61.5 5.5q-41 0 -136 -9h-3q-18 0 -14 19l22 128q2 10 7 14t19 8q56 18 156 18q128 0 207 -69t79 -207q0 -43 -9 -93 l-11 -63q-58 -329 -400 -329q-100 0 -150 18q-12 4 -15.5 8.5t-2.5 13.5z"/>
<glyph glyph-name="afii10048" horiz-adv-x="997" unicode="Ю" d="M826 485q0 89 -82 89q-52 0 -82 -35.5t-45 -115.5l-19 -103q-7 -42 -7 -62q0 -88 82 -88q53 0 82.5 35t44.5 115l19 103q7 42 7 62zM1033 507q0 -44 -8 -84l-19 -103q-32 -175 -125 -252t-240 -77q-112 0 -184.5 63.5t-72.5 184.5q0 13 2 43h-68l-46 -262q-4 -20 -22 -20 h-164q-8 0 -13.5 6t-4.5 14l124 704q1 8 8.5 13.5t15.5 5.5h164q19 0 16 -19l-48 -274h68q68 303 360 303q112 0 184.5 -61.5t72.5 -184.5z"/>
<glyph glyph-name="afii10049" horiz-adv-x="693" unicode="Я" d="M338 511q-5 -29 -5 -35q0 -56 93 -56q68 0 73 1l28 159q-3 0 -38 1t-39 1q-100 0 -112 -71zM27 26l193 272q-39 18 -64.5 60t-25.5 100q0 26 7 63q23 129 112.5 180.5t241.5 51.5q125 0 209 -13q27 -5 38 -13.5t11 -28.5q0 -10 -3 -24l-115 -654q-4 -20 -23 -20h-162 q-8 0 -13.5 6t-4.5 14l43 245q-5 0 -26 -0.5t-26 -0.5l-8 -4l-167 -240q-1 -2 -3.5 -6t-4 -5.5l-4 -4t-5 -3.5t-5.5 -1h-184q-16 0 -16 13q0 6 5 13z"/>
<glyph glyph-name="afii10065" horiz-adv-x="575" unicode="а" d="M364 144l17 97h-49q-38 0 -56.5 -13.5t-23.5 -44.5l-2 -10q-1 -4 -1 -11q0 -33 44 -33q35 0 71 15zM528 20q-4 -20 -22 -20h-139q-8 0 -13.5 6t-4.5 14l4 21q-77 -50 -152 -50q-59 0 -101.5 37t-42.5 109q0 23 4 43l3 12q15 86 84 119.5t202 33.5h43l5 29q2 12 2 16 q0 42 -57 42q-109 0 -176 -7h-3q-18 0 -15 20l17 97q3 17 24 24q84 24 188 24q217 0 217 -162q0 -21 -5 -54z"/>
<glyph glyph-name="afii10066" horiz-adv-x="605" unicode="б" d="M421 262q8 45 8 66q0 66 -55 66q-37 0 -59 -25.5t-32 -84.5q-10 -56 -10 -73q0 -33 14.5 -46.5t43.5 -13.5q39 0 59 25t31 86zM612 252q-26 -132 -101 -196.5t-208 -64.5q-106 0 -163 55.5t-57 156.5q0 38 13 114q10 58 18 94t22 80t32.5 71.5t46.5 55t67 44.5t91 28 l53 11q95 19 111 59q5 13 20 13h114q13 0 13 -9q0 -66 -49 -116.5t-140 -68.5l-70 -14q-42 -8 -75 -24q35 9 70 9q113 0 159.5 -45t46.5 -131q0 -54 -14 -122z"/>
<glyph glyph-name="afii10067" horiz-adv-x="616" unicode="в" d="M431 179q2 11 2 18q0 42 -68 42h-79l-20 -114h66q89 0 99 54zM467 398q3 15 3 21q0 38 -82 38h-64l-19 -106h79q75 0 83 47zM617 174q-9 -55 -36.5 -92t-72 -55.5t-94 -26t-116.5 -7.5q-134 0 -190 10q-25 4 -35 12t-10 27q0 4 2 20l81 459q6 31 19 42.5t44 16.5 q74 10 193 10q123 0 190 -30.5t67 -104.5q0 -21 -4 -46q-7 -36 -30.5 -66t-55.5 -45q51 -32 51 -93q0 -14 -3 -31z"/>
<glyph glyph-name="afii10068" horiz-adv-x="422" unicode="г" d="M388 582h100q17 0 17 -16v-5l-22 -128q-4 -20 -25 -20h-87q-31 0 -43 -12t-18 -42l-60 -337q-2 -9 -8.5 -15.5t-15.5 -6.5h-150q-9 0 -14.5 7t-3.5 15l60 336q10 57 25 94.5t44.5 69t78.5 46t122 14.5z"/>
<glyph glyph-name="afii10069" horiz-adv-x="698" unicode="д" d="M429 459q-6 0 -11 -11l-112 -291h140l-10 291q2 11 -7 11zM62 157h48l136 339q22 55 69.5 74t134.5 19q88 0 129 -19t43 -74l16 -339h52q8 0 13 -6t4 -14l-42 -238q-4 -20 -24 -20h-135q-8 0 -13 6t-3 14l19 101h-318l-19 -101q-4 -20 -24 -20h-135q-18 0 -14 20l40 238 q4 20 23 20z"/>
<glyph glyph-name="afii10070" horiz-adv-x="602" unicode="е" d="M445 383q0 59 -61 59q-71 0 -92 -99h148q5 23 5 40zM625 376q0 -25 -5 -57l-10 -60q-1 -10 -8.5 -16t-16.5 -6h-311q-3 -18 -3 -31q0 -35 20 -46t62 -11q75 0 192 8h4q19 0 15 -17l-16 -90q-4 -22 -25 -28q-99 -31 -219 -31q-90 0 -155.5 55.5t-65.5 155.5q0 27 15 117 q45 272 314 272q104 0 158.5 -60.5t54.5 -154.5z"/>
<glyph glyph-name="afii10072" horiz-adv-x="952" unicode="ж" d="M479 562q1 8 9 14t16 6h150q8 0 13 -6t4 -14l-40 -227l177 229q14 18 32 18h173q12 0 12 -10q0 -6 -5 -11l-218 -259l127 -280q3 -7 -0.5 -14.5t-12.5 -7.5h-185q-19 0 -29 22l-86 228l-41 -228q-2 -9 -8 -15.5t-14 -6.5h-150q-8 0 -14.5 7t-5.5 15l41 228l-168 -228 q-15 -22 -33 -22h-185q-12 0 -12 12q0 6 3 10l227 280l-128 259q-2 6 -1 9q2 12 16 12h173q19 0 26 -18l97 -229z"/>
<glyph glyph-name="afii10073" horiz-adv-x="520" unicode="з" d="M475 292q48 -31 48 -97q0 -17 -5 -43q-16 -86 -81 -122t-189 -36q-125 0 -197 29q-16 6 -15 15l16 92q3 16 20 15q121 -9 177 -9q42 0 58.5 13t16.5 46q0 37 -59 37h-140q-16 0 -14 15l16 90q2 15 20 15h140q76 0 76 66q0 30 -59 30q-54 0 -180 -9q-10 -1 -13 3t-1 12 l16 92q1 8 19 15q83 29 209 29q214 0 214 -140q0 -13 -6 -49q-13 -70 -87 -109z"/>
<glyph glyph-name="afii10074" horiz-adv-x="630" unicode="и" d="M60 29l94 537q4 16 19 16h147q7 0 11 -4.5t3 -11.5l-42 -242q-1 -7 2 -7q5 0 10 7l192 235q20 23 38 23h112q13 0 20.5 -9t5.5 -20l-95 -537q-2 -16 -19 -16h-146q-8 0 -12.5 4.5t-3.5 11.5l41 232q1 7 -4 7q-4 0 -9 -7l-186 -227q-17 -21 -38 -21h-113q-13 0 -21 8.5 t-6 20.5z"/>
<glyph glyph-name="afii10075" horiz-adv-x="630" unicode="й" d="M662 773q-2 -4 -3 -7q-81 -143 -232 -143t-180 143q-2 5 -1 7q2 6 10 6h118q4 0 6 -0.5t3.5 -1.5t2.5 -3t1.5 -3.5t0.5 -4.5q5 -46 56 -46q52 0 74 46q5 13 18 13h118q5 0 7 -1.5t1 -4.5zM60 29l94 537q4 16 19 16h147q7 0 11 -4.5t3 -11.5l-42 -242q-1 -7 2 -7q5 0 10 7 l192 235q20 23 38 23h112q13 0 20.5 -9t5.5 -20l-95 -537q-2 -16 -19 -16h-146q-8 0 -12.5 4.5t-3.5 11.5l41 232q1 7 -4 7q-4 0 -9 -7l-186 -227q-17 -21 -38 -21h-113q-13 0 -21 8.5t-6 20.5z"/>
<glyph glyph-name="afii10076" horiz-adv-x="627" unicode="к" d="M605 14q-2 -14 -14 -14h-185q-19 0 -29 22l-86 228l-41 -228q-2 -9 -8 -15.5t-14 -6.5h-150q-8 0 -14.5 7t-5.5 15l96 540q1 8 9 14t16 6h150q8 0 13 -6t4 -14l-40 -227l177 229q13 18 32 18h173q12 0 12 -10q0 -6 -5 -11l-218 -259l127 -280q1 -1 1 -8z"/>
<glyph glyph-name="afii10077" horiz-adv-x="616" unicode="л" d="M385 459q-6 0 -11 -11l-160 -421q-7 -17 -12.5 -22t-16.5 -5h-155q-15 0 -15 14q0 6 3 14l186 468q22 55 69.5 74t134.5 19q88 0 129 -19t43 -74l20 -468q2 -28 -18 -28h-155q-11 0 -16.5 5.5t-6.5 21.5l-12 421q2 11 -7 11z"/>
<glyph glyph-name="afii10078" horiz-adv-x="744" unicode="м" d="M787 560l-95 -538q-4 -22 -22 -22h-140q-9 0 -15 7t-5 15l44 246q1 9 -4 9t-7 -4l-88 -107q-13 -15 -28 -15h-58q-15 0 -21 15l-51 107q-2 4 -7 4t-6 -9l-44 -246q-4 -22 -22 -22h-140q-9 0 -15.5 7t-4.5 15l95 538q4 22 28 22h118q29 0 39 -24l88 -198q4 -9 7 -9 q5 0 12 9l158 198q19 24 47 24h116q22 0 22 -16q0 -1 -0.5 -3t-0.5 -3z"/>
<glyph glyph-name="afii10079" horiz-adv-x="631" unicode="н" d="M674 560l-95 -538q-4 -22 -22 -22h-150q-9 0 -15 7t-5 15l35 197h-137l-35 -197q-4 -22 -22 -22h-150q-9 0 -15.5 7t-4.5 15l95 538q2 8 9.5 15t16.5 7h150q9 0 13.5 -6.5t2.5 -15.5l-32 -184h137l32 184q2 8 9.5 15t16.5 7h150q9 0 13.5 -6.5t2.5 -15.5z"/>
<glyph glyph-name="afii10080" horiz-adv-x="605" unicode="о" d="M436 371q0 32 -13 45.5t-43 13.5q-38 0 -60 -25.5t-32 -84.5l-10 -58q-5 -33 -5 -50q0 -34 14 -47.5t44 -13.5q38 0 58.5 24t31.5 87l10 58q5 33 5 51zM627 380q0 -30 -5 -60l-10 -58q-24 -143 -100.5 -207t-209.5 -64q-106 0 -163 56.5t-57 153.5q0 35 5 61l10 58 q25 144 103 207.5t208 63.5q103 0 161 -57t58 -154z"/>
<glyph glyph-name="afii10081" horiz-adv-x="631" unicode="п" d="M388 582h59q112 0 156.5 -35t44.5 -107q0 -28 -9 -82l-60 -336q-4 -22 -22 -22h-150q-9 0 -15 7t-5 15l60 337q2 16 2 21q0 18 -10 25.5t-35 7.5h-33q-31 0 -43 -12t-18 -42l-60 -337q-2 -9 -8.5 -15.5t-15.5 -6.5h-150q-9 0 -14.5 7t-3.5 15l60 336q10 57 25 94.5 t44.5 69t78.5 46t122 14.5z"/>
<glyph glyph-name="afii10082" horiz-adv-x="616" unicode="р" d="M449 375q0 28 -14 42.5t-48 14.5q-40 0 -65 -4l-48 -275q40 -4 67 -4q71 0 89 103l14 78q5 28 5 45zM642 391q0 -28 -6 -61l-14 -78q-24 -132 -97 -196.5t-209 -64.5q-37 0 -70 5l-29 -167q-4 -21 -24 -21h-150q-19 0 -19 16q0 1 0.5 2.5t0.5 2.5l124 705q2 13 11 20.5 t31 13.5q92 23 187 23q55 0 100 -10t83 -31.5t59.5 -62t21.5 -96.5z"/>
<glyph glyph-name="afii10083" horiz-adv-x="474" unicode="с" d="M534 559v-5l-20 -113q-3 -19 -23 -19h-2q-1 0 -42.5 3.5t-70.5 3.5q-35 0 -55.5 -21t-30.5 -80l-13 -75q-4 -23 -4 -43q0 -32 13.5 -44.5t40.5 -12.5q11 0 116 6h2q16 0 16 -15v-4l-20 -112q-3 -16 -24 -21q-70 -16 -140 -16q-94 0 -145.5 57t-51.5 148q0 24 5 57l13 75 q45 263 285 263q72 0 134 -16q17 -5 17 -16z"/>
<glyph glyph-name="afii10084" horiz-adv-x="570" unicode="т" d="M601 415h-147l-70 -393q-4 -22 -22 -22h-150q-9 0 -15 7t-5 15l70 393h-147q-8 0 -13.5 5.5t-5.5 12.5q0 1 0.5 2t0.5 2l22 125q1 9 8.5 14.5t16.5 5.5h486q9 0 14.5 -5.5t4.5 -14.5l-22 -125q-2 -9 -10 -15.5t-16 -6.5z"/>
<glyph glyph-name="afii10085" horiz-adv-x="621" unicode="у" d="M705 567q0 -3 -2 -7l-275 -594q-40 -88 -96 -128.5t-167 -40.5q-85 0 -132 18q-19 8 -19 16v3l17 97q2 8 9.5 14.5t16.5 6.5h1q4 0 58 -4t77 -4q45 0 61 38l14 33h-13q-36 0 -55.5 16t-23.5 53l-58 476v3q0 19 25 19h161q14 0 16 -20l18 -344q1 -17 8 -17h8l143 362 q7 19 25 19h165q7 0 12.5 -4.5t5.5 -10.5z"/>
<glyph glyph-name="afii10086" horiz-adv-x="930" unicode="ф" d="M292 330l-7 -35t-8 -44.5t-3 -37.5q0 -64 57 -64q17 0 69 5l48 274q-25 4 -67 4q-72 0 -89 -102zM748 252q18 104 18 118q0 62 -57 62q-44 0 -69 -4l-48 -274q48 -5 67 -5q72 0 89 103zM940 232q-42 -241 -309 -241q-27 0 -67 6l-30 -168q-2 -8 -8.5 -14.5t-14.5 -6.5 h-150q-19 0 -19 15v6l30 168q-44 -6 -69 -6q-110 0 -166.5 58t-56.5 156q0 32 20 144q42 242 309 242q35 0 66 -3l29 165q1 8 9.5 14t16.5 6h151q16 0 16 -20l-29 -165q35 3 69 3q106 0 164.5 -58t58.5 -159q0 -31 -20 -142z"/>
<glyph glyph-name="afii10087" horiz-adv-x="647" unicode="х" d="M692 571q0 -6 -4 -10l-213 -274l132 -265q2 -6 2 -8q0 -14 -14 -14h-172q-13 0 -24 22l-70 141l-108 -142q-16 -21 -28 -21h-151q-11 0 -11 11q0 6 4 10l223 287l-125 253q-2 6 -2 8q0 13 14 13h169q14 0 25 -21l63 -128l96 128q15 21 29 21h155q10 0 10 -11z"/>
<glyph glyph-name="afii10088" horiz-adv-x="659" unicode="ц" d="M346 0h-59q-112 0 -157 35.5t-45 107.5q0 27 9 81l59 336q2 9 8.5 15.5t15.5 6.5h150q9 0 14.5 -7t3.5 -15l-59 -337q-2 -8 -2 -22q0 -17 10 -24.5t34 -7.5h33q31 0 43.5 12t18.5 42l59 337q2 8 9.5 15t16.5 7h150q9 0 13.5 -6.5t2.5 -15.5l-59 -336q-6 -40 -16 -69h50 q8 0 13.5 -6.5t4.5 -14.5l-41 -233q-2 -8 -10 -15t-16 -7h-149q-8 0 -13.5 7t-4.5 15l19 110q-47 -11 -106 -11z"/>
<glyph glyph-name="afii10089" horiz-adv-x="605" unicode="ч" d="M128 561q1 8 9 14.5t16 6.5h151q8 0 13 -6.5t3 -14.5l-28 -164q-4 -19 -4 -35q0 -21 8.5 -29t27.5 -8q46 0 97 25l37 211q2 8 9 14.5t15 6.5h149q8 0 13.5 -6.5t3.5 -14.5l-95 -541q-4 -20 -22 -20h-150q-8 0 -13.5 6t-4.5 14l35 199q-74 -43 -160 -43q-146 0 -146 148 q0 34 6 67z"/>
<glyph glyph-name="afii10090" horiz-adv-x="900" unicode="ш" d="M575 169h55q31 0 43.5 12t18.5 42l59 337q2 8 9.5 15t16.5 7h150q9 0 13.5 -6.5t2.5 -15.5l-59 -336q-10 -58 -25 -95t-44 -68.5t-78 -46t-122 -14.5h-328q-112 0 -157 35.5t-45 107.5q0 27 9 81l59 336q2 9 8.5 15.5t15.5 6.5h150q9 0 14.5 -7t3.5 -15l-59 -337 q-2 -8 -2 -22q0 -17 10 -24.5t34 -7.5h55l69 391q2 8 9.5 15t16.5 7h150q9 0 13.5 -6.5t2.5 -15.5z"/>
<glyph glyph-name="afii10091" horiz-adv-x="919" unicode="щ" d="M891 -99q-1 -8 -9.5 -15t-16.5 -7h-149q-8 0 -14 7t-4 15l19 109q-41 -10 -102 -10h-328q-112 0 -157 35.5t-45 107.5q0 27 9 81l59 336q2 9 8.5 15.5t15.5 6.5h150q9 0 14.5 -7t3.5 -15l-59 -337q-2 -8 -2 -22q0 -17 10 -24.5t34 -7.5h55l69 391q2 8 9.5 15t16.5 7h150 q9 0 13.5 -6.5t2.5 -15.5l-69 -391h55q31 0 43.5 12t18.5 42l59 337q2 8 9.5 15t16.5 7h150q9 0 13.5 -6.5t2.5 -15.5l-59 -336q-6 -40 -16 -69h46q8 0 13.5 -6.5t4.5 -14.5z"/>
<glyph glyph-name="afii10092" horiz-adv-x="617" unicode="ъ" d="M362 239h-66l-20 -114h66q89 0 99 54q2 10 2 17q0 43 -81 43zM142 438h-45q-21 0 -17 20l18 103q4 21 24 21h216q8 0 13.5 -6.5t4.5 -14.5l-33 -191q21 1 52 1q122 0 190 -34t68 -116q0 -21 -7 -57q-9 -55 -36 -90t-72.5 -52t-92.5 -23t-117 -6q-132 0 -190 9 q-25 5 -35 13t-10 27q0 4 2 20z"/>
<glyph glyph-name="afii10093" horiz-adv-x="898" unicode="ы" d="M846 22q-2 -8 -9 -15t-15 -7h-149q-8 0 -14.5 7t-5.5 15l95 539q1 8 9.5 14.5t16.5 6.5h149q8 0 13.5 -6.5t4.5 -14.5zM352 239h-66l-20 -114h66q89 0 99 54q2 10 2 17q0 43 -81 43zM65 62l88 499q1 8 9.5 14.5t16.5 6.5h149q8 0 13.5 -6.5t4.5 -14.5l-33 -191q21 1 52 1 q122 0 190 -34t68 -116q0 -21 -7 -57q-9 -55 -36 -90t-72.5 -52t-92.5 -23t-117 -6q-132 0 -190 9q-25 5 -35 13t-10 27q0 4 2 20z"/>
<glyph glyph-name="afii10094" horiz-adv-x="606" unicode="ь" d="M352 239h-66l-20 -114h66q89 0 99 54q2 10 2 17q0 43 -81 43zM65 62l88 499q1 8 9.5 14.5t16.5 6.5h149q8 0 13.5 -6.5t4.5 -14.5l-33 -191q21 1 52 1q122 0 190 -34t68 -116q0 -21 -7 -57q-9 -55 -36 -90t-72.5 -52t-92.5 -23t-117 -6q-132 0 -190 9q-25 5 -35 13 t-10 27q0 4 2 20z"/>
<glyph glyph-name="afii10095" horiz-adv-x="541" unicode="э" d="M347 225h-185q-18 0 -18 13q0 1 0.5 3.5t0.5 3.5l15 85q4 21 24 21h186q0 3 0.5 8t0.5 7q0 37 -21.5 50t-67.5 13q-52 0 -131 -7q-19 0 -19 13q0 1 0.5 3t0.5 3l20 113q3 16 24 21q66 16 155 16q234 0 234 -197q0 -38 -7 -76l-13 -75q-23 -127 -97.5 -189.5t-222.5 -62.5 q-85 0 -149 16q-18 5 -18 16q0 1 0.5 2.5t0.5 2.5l20 112q1 8 8 13.5t15 5.5q70 -6 130 -6q49 0 75 14.5t39 57.5z"/>
<glyph glyph-name="afii10096" horiz-adv-x="910" unicode="ю" d="M742 371q0 32 -13 45.5t-43 13.5q-38 0 -60 -25.5t-32 -84.5l-10 -58q-5 -33 -5 -50q0 -34 14 -47.5t44 -13.5q38 0 58.5 24t31.5 87l10 58q5 33 5 51zM388 201v8h-104l-33 -187q-2 -8 -9 -15t-15 -7h-149q-8 0 -14.5 7t-5.5 15l95 539q1 8 9.5 14.5t16.5 6.5h149 q8 0 13.5 -6.5t4.5 -14.5l-34 -194h101q58 224 301 224q103 0 161 -57t58 -154q0 -30 -5 -60l-10 -58q-24 -143 -100.5 -207t-209.5 -64q-106 0 -163 56.5t-57 153.5z"/>
<glyph glyph-name="afii10097" horiz-adv-x="620" unicode="я" d="M293 400q-4 -25 -4 -29q0 -42 75 -42q64 0 69 1l22 124q-1 0 -28.5 1t-41.5 1q-48 0 -67 -13t-25 -43zM364 207l-141 -189q-1 -1 -3 -4t-3 -4t-3.5 -3t-4 -3t-5 -2t-7 -1.5t-8.5 -0.5h-158q-13 0 -13 13q0 8 5 14l152 201q-33 14 -54 51t-21 86q0 24 4 49 q17 100 93.5 138t211.5 38q134 0 209 -11q23 -3 32.5 -10t9.5 -24q0 -5 -2 -17l-91 -512q-2 -16 -19 -16h-156q-7 0 -11.5 4.5t-3.5 11.5l34 191h-47z"/>
<glyph glyph-name="uni0450" horiz-adv-x="602" unicode="ѐ" d="M496 642q0 -9 -11 -9h-119q-13 0 -22 11l-105 120q-3 5 -3 7q0 8 12 8h148q16 0 26 -15l71 -114q3 -4 3 -8zM443 383q0 59 -61 59q-71 0 -92 -99h148q5 23 5 40zM623 376q0 -25 -5 -57l-10 -60q-1 -10 -8.5 -16t-16.5 -6h-311q-3 -18 -3 -31q0 -35 20 -46t62 -11 q116 0 192 8h4q15 0 15 -13v-4l-16 -90q-4 -22 -25 -28q-99 -31 -219 -31q-90 0 -155.5 55.5t-65.5 155.5q0 27 4 51l11 66q45 272 314 272q104 0 158.5 -60.5t54.5 -154.5z"/>
<glyph glyph-name="afii10071" horiz-adv-x="602" unicode="ё" d="M443 383q0 59 -61 59q-71 0 -92 -99h148q5 23 5 40zM379 657q-1 -8 -9 -14t-16 -6h-116q-9 0 -15 6t-5 14l18 98q1 8 9.5 14t16.5 6h116q8 0 14 -6t5 -14zM613 657q-1 -8 -9.5 -14t-16.5 -6h-116q-9 0 -14.5 6t-4.5 14l18 98q1 8 9 14t16 6h116q9 0 15 -6t5 -14zM607 259 q-1 -10 -8.5 -16t-16.5 -6h-311v-2q-2 -18 -2 -24q0 -62 82 -62q113 0 191 8h4q18 0 15 -17l-16 -90q-4 -22 -25 -28q-99 -31 -222 -31q-97 0 -158.5 48t-61.5 149q0 30 6 65l12 66q23 130 106 201t208 71q108 0 161.5 -53t53.5 -148q0 -27 -7 -71z"/>
<glyph glyph-name="afii10099" d="M470 631h-113l-14 -79q61 38 155 38q150 0 150 -150q0 -39 -7 -75l-68 -386q-18 -102 -69 -143.5t-132 -41.5q-41 0 -92 9q-19 3 -17 21l17 93q4 20 24 20h43q17 0 23.5 9.5t10.5 32.5l68 386q2 16 2 22q0 44 -54 44q-35 0 -79 -22l-69 -387q-4 -22 -22 -22h-150 q-9 0 -15 7t-5 15l108 609h-45q-8 0 -12.5 6t-3.5 14l8 42q4 20 22 20h45l7 40q4 20 24 20h152q8 0 13 -6t3 -14l-7 -40h113q8 0 13 -6t4 -14l-8 -42q-4 -20 -23 -20z" unicode="ђ"/>
<glyph glyph-name="afii10100" horiz-adv-x="422" unicode="ѓ" d="M595 772q-3 -6 -6 -8l-147 -120q-14 -11 -26 -11h-129q-8 0 -8 7q2 6 6 10l111 114q15 15 31 15h158q10 0 10 -7zM388 582h100q17 0 17 -16v-5l-22 -128q-4 -20 -25 -20h-87q-31 0 -43 -12t-18 -42l-60 -337q-2 -9 -8.5 -15.5t-15.5 -6.5h-150q-9 0 -14.5 7t-3.5 15 l60 336q10 57 25 94.5t44.5 69t78.5 46t122 14.5z"/>
<glyph glyph-name="afii10101" horiz-adv-x="541" unicode="є" d="M458 225h-186v-8q0 -38 21 -51t68 -13q62 0 132 6h2q18 0 15 -19l-20 -112q-3 -16 -23 -21q-72 -16 -155 -16q-124 0 -179.5 47.5t-55.5 139.5q0 37 7 75l13 75q23 129 99 196t222 67q87 0 149 -16q19 -5 16 -21l-20 -113q-1 -8 -7.5 -13.5t-14.5 -5.5h-2q-79 7 -129 7 q-51 0 -77 -16t-39 -62h186q22 0 18 -21l-15 -85q-4 -20 -25 -20z"/>
<glyph glyph-name="afii10102" horiz-adv-x="517" unicode="ѕ" d="M559 544l-19 -106q-4 -20 -19 -20h-4q-116 16 -169 16q-41 0 -41 -19q0 -10 6.5 -16.5t29.5 -20.5l63 -37q60 -36 82.5 -72.5t22.5 -80.5q0 -70 -37.5 -115.5t-93.5 -63.5t-130 -18q-107 0 -186 24q-18 6 -15 22l18 103q3 22 21 22q1 0 3 -0.5t4 -0.5q116 -16 170 -16 q52 0 52 34q0 14 -24 28l-81 48q-100 59 -100 149q0 187 249 187q95 0 182 -25q18 -6 16 -22z"/>
<glyph glyph-name="afii10103" horiz-adv-x="313" unicode="і" d="M256 22q-2 -8 -9 -15t-15 -7h-149q-8 0 -14.5 7t-5.5 15l95 539q1 8 9.5 14.5t16.5 6.5h149q8 0 13.5 -6.5t4.5 -14.5zM373 657q-1 -8 -9 -14t-16 -6h-158q-9 0 -15 6t-5 14l18 98q1 8 9.5 14t16.5 6h158q8 0 14 -6t5 -14z"/>
<glyph glyph-name="afii10104" horiz-adv-x="313" unicode="ї" d="M234 657q-1 -8 -9 -14t-16 -6h-115q-9 0 -15 6t-5 14l18 98q1 8 9.5 14t16.5 6h115q9 0 14.5 -6t4.5 -14zM468 657q-1 -8 -9.5 -14t-16.5 -6h-116q-8 0 -14 6t-5 14l18 98q1 8 9 14t16 6h116q9 0 15 -6t5 -14zM255 22q-2 -8 -9 -15t-15 -7h-149q-8 0 -14.5 7t-5.5 15 l95 539q1 8 9.5 14.5t16.5 6.5h149q8 0 13.5 -6.5t4.5 -14.5z"/>
<glyph glyph-name="afii10105" horiz-adv-x="312" unicode="ј" d="M247 -21q-18 -102 -69.5 -143.5t-132.5 -41.5q-39 0 -89 9q-19 3 -17 21l17 93q4 20 24 20h40q17 0 23.5 9.5t10.5 32.5l102 582q1 8 9.5 14.5t16.5 6.5h149q8 0 13.5 -6.5t4.5 -14.5zM370 657q-1 -8 -9 -14t-16 -6h-157q-8 0 -14 6t-5 14l18 98q1 8 9 14t16 6h157 q9 0 14.5 -6t4.5 -14z"/>
<glyph glyph-name="afii10106" horiz-adv-x="944" unicode="љ" d="M690 239h-66l-20 -114h66q89 0 99 54l1 6q1 4 1 11q0 43 -81 43zM469 434h-68q-12 0 -17 -12l-162 -400q-9 -22 -30 -22h-145q-23 0 -23 17q0 5 3 13l196 461q23 55 57.5 73t103.5 18h282q22 0 18 -21l-33 -191q21 1 52 1q60 0 103.5 -6t80.5 -20.5t55.5 -43t18.5 -70.5 q0 -21 -4 -41l-3 -16q-9 -55 -36.5 -92t-71.5 -55.5t-93.5 -26t-116.5 -7.5q-132 0 -190 9q-25 5 -35 13t-10 27q0 4 2 20z"/>
<glyph glyph-name="afii10107" horiz-adv-x="938" unicode="њ" d="M684 239h-66l-20 -114h66q89 0 99 54l1 6q1 4 1 11q0 43 -81 43zM387 22l35 197h-137l-35 -197q-4 -22 -22 -22h-150q-9 0 -15.5 7t-4.5 15l95 538q2 8 9.5 15t16.5 7h150q9 0 13.5 -6.5t2.5 -15.5l-32 -184h137l32 184q2 8 9.5 15t16.5 7h150q9 0 13.5 -6.5t2.5 -15.5 l-33 -190q21 1 56 1q60 0 103.5 -6t80.5 -20.5t55.5 -43t18.5 -70.5q0 -21 -4 -41l-3 -16q-9 -55 -36.5 -92t-71.5 -55.5t-93.5 -26t-116.5 -7.5q-156 0 -223 7q-23 2 -20 22z"/>
<glyph glyph-name="afii10108" d="M580 20q-4 -20 -22 -20h-152q-8 0 -13.5 6t-4.5 14l61 345q2 16 2 22q0 44 -54 44q-35 0 -79 -22l-69 -387q-4 -22 -22 -22h-150q-9 0 -15 7t-5 15l106 599h-35q-8 0 -12.5 6t-2.5 14l7 42q4 20 22 20h35l9 50q4 20 24 20h152q8 0 13 -6t3 -14l-9 -50h112q8 0 13 -6 t4 -14l-7 -42q-4 -20 -24 -20h-112l-12 -69q61 38 155 38q150 0 150 -150q0 -39 -7 -75z" unicode="ћ"/>
<glyph glyph-name="afii10109" horiz-adv-x="627" unicode="ќ" d="M667 772q-3 -6 -6 -8l-147 -120q-14 -11 -26 -11h-129q-8 0 -8 7q2 6 6 10l111 114q15 15 31 15h158q10 0 10 -7zM605 14q-2 -14 -14 -14h-185q-19 0 -29 22l-86 228l-41 -228q-2 -9 -8 -15.5t-14 -6.5h-150q-8 0 -14.5 7t-5.5 15l96 540q1 8 9 14t16 6h150q8 0 13 -6 t4 -14l-40 -227l177 229q13 18 32 18h173q12 0 12 -10q0 -6 -5 -11l-218 -259l127 -280q1 -1 1 -8z"/>
<glyph glyph-name="uni045D" horiz-adv-x="630" unicode="ѝ" d="M520 642q0 -9 -11 -9h-119q-13 0 -22 11l-105 120q-3 5 -3 7q0 8 12 8h148q16 0 26 -15l71 -114q3 -4 3 -8zM60 29l94 537q4 16 19 16h147q7 0 11 -4.5t3 -11.5l-42 -242q-1 -7 2 -7q5 0 10 7l192 235q20 23 38 23h112q13 0 20.5 -9t5.5 -20l-95 -537q-2 -16 -19 -16 h-146q-8 0 -12.5 4.5t-3.5 11.5l41 232q1 7 -4 7q-4 0 -9 -7l-186 -227q-17 -21 -38 -21h-113q-13 0 -21 8.5t-6 20.5z"/>
<glyph glyph-name="afii10110" horiz-adv-x="621" unicode="ў" d="M663 773q-2 -4 -3 -7q-81 -143 -232 -143t-180 143q-2 5 -1 7q1 6 10 6h118q4 0 6 -0.5t3.5 -1.5t2.5 -3t1.5 -3.5t0.5 -4.5q5 -46 56 -46q52 0 74 46q5 13 18 13h118q5 0 7 -1.5t1 -4.5zM522 582h163q18 0 18 -13q0 -3 -2 -9l-274 -594q-40 -88 -96 -128.5t-167 -40.5 q-87 0 -132 18q-6 3 -8 3.5t-6 3t-5.5 5.5t-0.5 7l17 97q2 8 9.5 14.5t16.5 6.5h1q3 0 58 -4t78 -4q44 0 60 38l14 33h-13q-39 0 -57 18t-26 86l-54 441q-1 12 6.5 17t18.5 5h163q17 0 17 -20l18 -344q1 -17 8 -17h8l143 362q7 19 24 19z"/>
<glyph glyph-name="afii10193" horiz-adv-x="631" unicode="џ" d="M394 -99q-2 -8 -10 -15t-16 -7h-149q-8 0 -13.5 7t-4.5 15l18 103q-73 10 -103.5 44t-30.5 93q0 29 9 83l59 336q2 9 8.5 15.5t15.5 6.5h150q9 0 14.5 -7t3.5 -15l-59 -337q-2 -8 -2 -22q0 -17 10 -24.5t34 -7.5h33q31 0 43.5 12t18.5 42l59 337q2 8 9.5 15t16.5 7h150 q9 0 13.5 -6.5t2.5 -15.5l-59 -336q-18 -102 -60.5 -154.5t-142.5 -65.5z"/>
<glyph glyph-name="afii10050" horiz-adv-x="580" unicode="Ґ" d="M350 528l-90 -508q-4 -20 -22 -20h-163q-8 0 -13.5 6t-4.5 14l90 508q10 56 32 97.5t49.5 65t65 38t71.5 19t77 4.5q32 0 47 -1l9 53q4 21 25 21h129q17 0 17 -15q0 -1 -0.5 -3t-0.5 -3l-36 -206q-4 -20 -24 -20h-202q-27 0 -39.5 -10.5t-16.5 -39.5z"/>
<glyph glyph-name="afii10098" horiz-adv-x="422" unicode="ґ" d="M118 359q19 110 68.5 163.5t168.5 59.5l9 49q4 21 24 21h113q18 0 18 -15q0 -1 -0.5 -3t-0.5 -3l-35 -197q-4 -20 -25 -20h-87q-31 0 -43 -12t-18 -42l-60 -338q-2 -9 -8.5 -15.5t-15.5 -6.5h-150q-9 0 -14.5 7t-3.5 15z"/>
<glyph glyph-name="uni04B0" horiz-adv-x="682" unicode="Ұ" d="M612 123h-149l-18 -103q-4 -20 -22 -20h-163q-8 0 -13 6t-4 14l18 103h-149q-21 0 -17 20l22 128q4 21 25 21h146q-36 16 -53 85l-86 345q-1 3 -1 8q2 13 17 13h181q12 0 16 -19l49 -265q3 -10 9 -10t11 10l143 265q11 19 24 19h181q11 0 11 -11q0 -2 -0.5 -3.5 t-1.5 -3.5t-1 -3l-208 -345q-41 -68 -84 -85h147q17 0 17 -16v-5l-22 -128q-4 -20 -25 -20z"/>
<glyph glyph-name="uni04B1" horiz-adv-x="620" unicode="ұ" d="M377 -170q-2 -8 -9 -15t-15 -7h-151q-8 0 -14 7t-4 15l8 49h-128q-21 0 -17 20l13 74q4 21 24 21h128l3 15q-44 26 -51 97l-45 454v5q3 17 20 17h164q8 0 13.5 -6t4.5 -15l11 -365q0 -18 9 -18q10 0 16 18l139 365q9 21 26 21h164q15 0 15 -14q0 -2 -2 -8l-206 -454 q-33 -73 -85 -97l-3 -15h130q22 0 18 -21l-13 -74q-4 -20 -25 -20h-130z"/>
<glyph glyph-name="Wgrave" horiz-adv-x="917" unicode="Ẁ" d="M674 804q0 -9 -11 -9h-119q-13 0 -22 11l-105 120q-3 5 -3 7q0 8 12 8h148q16 0 26 -15l71 -114q3 -4 3 -8zM1026 734v-2q-1 -1 -1 -2l-202 -645q-26 -85 -114 -85h-73q-69 0 -78 77l-30 252q-1 9 -6 9q-6 0 -11 -9l-118 -252q-20 -43 -46 -60t-68 -17h-58q-91 0 -91 79 v6l26 645q0 13 18 13h166q12 0 12 -17v-2l-28 -443v-6q0 -7 4 -7t11 13l93 202q20 43 67 43h105q24 0 36 -9.5t15 -33.5l23 -202q2 -13 5 -13q7 0 10 13l128 443q5 19 18 19h172q15 0 15 -9z"/>
<glyph glyph-name="wgrave" horiz-adv-x="871" unicode="ẁ" d="M623 642q0 -9 -11 -9h-119q-13 0 -22 11l-105 120q-3 5 -3 7q0 8 12 8h148q16 0 26 -15l71 -114q3 -4 3 -8zM946 570q0 -4 -1 -6l-171 -475q-32 -89 -101 -89h-75q-34 0 -58 23t-28 63l-22 183q-1 7 -5 7q-6 0 -9 -7l-86 -183q-40 -86 -100 -86h-77q-37 0 -59.5 21.5 t-23.5 67.5l-5 475q0 7 6 12.5t13 5.5h157q14 0 14 -16v-1l-10 -343q0 -8 5 -8q6 0 10 8l94 205q19 41 64 41h80q26 0 35.5 -10t12.5 -31l22 -205q1 -8 7 -8q5 0 8 8l112 343q6 17 20 17h159q12 0 12 -12z"/>
<glyph glyph-name="Wacute" horiz-adv-x="917" unicode="Ẃ" d="M809 935q0 -5 -6 -9l-147 -120q-14 -11 -26 -11h-129q-8 0 -8 6q0 5 6 11l111 114q15 15 30 15h158q11 0 11 -6zM1026 734v-2q-1 -1 -1 -2l-202 -645q-26 -85 -114 -85h-73q-69 0 -78 77l-30 252q-1 9 -6 9q-6 0 -11 -9l-118 -252q-20 -43 -46 -60t-68 -17h-58 q-91 0 -91 79v6l26 645q0 13 18 13h166q12 0 12 -17v-2l-28 -443v-6q0 -7 4 -7t11 13l93 202q20 43 67 43h105q24 0 36 -9.5t15 -33.5l23 -202q2 -13 5 -13q7 0 10 13l128 443q5 19 18 19h172q15 0 15 -9z"/>
<glyph glyph-name="wacute" horiz-adv-x="871" unicode="ẃ" d="M760 773q0 -5 -6 -9l-147 -120q-14 -11 -26 -11h-129q-8 0 -8 6q0 5 6 11l111 114q15 15 30 15h158q11 0 11 -6zM946 570q0 -4 -1 -6l-171 -475q-32 -89 -101 -89h-75q-34 0 -58 23t-28 63l-22 183q-1 7 -5 7q-6 0 -9 -7l-86 -183q-40 -86 -100 -86h-77q-37 0 -59.5 21.5 t-23.5 67.5l-5 475q0 7 6 12.5t13 5.5h157q14 0 14 -16v-1l-10 -343q0 -8 5 -8q6 0 10 8l94 205q19 41 64 41h80q26 0 35.5 -10t12.5 -31l22 -205q1 -8 7 -8q5 0 8 8l112 343q6 17 20 17h159q12 0 12 -12z"/>
<glyph glyph-name="Wdieresis" horiz-adv-x="917" unicode="Ẅ" d="M580 926v-3l-17 -98q-1 -8 -9.5 -14t-16.5 -6h-116q-8 0 -13.5 5t-5.5 12v3l17 98q1 8 9.5 14t17.5 6h116q18 0 18 -17zM814 926v-3l-17 -98q-1 -8 -9.5 -14t-17.5 -6h-116q-18 0 -18 17v3l17 98q1 8 9.5 14t16.5 6h116q8 0 13.5 -5t5.5 -12zM1026 734v-2q-1 -1 -1 -2 l-202 -645q-26 -85 -114 -85h-73q-69 0 -78 77l-30 252q-1 9 -6 9q-6 0 -11 -9l-118 -252q-20 -43 -46 -60t-68 -17h-58q-91 0 -91 79v6l26 645q0 13 18 13h166q12 0 12 -17v-2l-28 -443v-6q0 -7 4 -7t11 13l93 202q20 43 67 43h105q24 0 36 -9.5t15 -33.5l23 -202 q2 -13 5 -13q7 0 10 13l128 443q5 19 18 19h172q15 0 15 -9z"/>
<glyph glyph-name="wdieresis" horiz-adv-x="871" unicode="ẅ" d="M534 758v-3l-17 -98q-1 -8 -9.5 -14t-16.5 -6h-116q-8 0 -13.5 5t-5.5 12v3l17 98q1 8 9.5 14t17.5 6h116q18 0 18 -17zM768 758v-3l-17 -98q-1 -8 -9.5 -14t-17.5 -6h-116q-18 0 -18 17v3l17 98q1 8 9.5 14t16.5 6h116q8 0 13.5 -5t5.5 -12zM946 570q0 -4 -1 -6 l-171 -475q-32 -89 -101 -89h-75q-34 0 -58 23t-28 63l-22 183q-1 7 -5 7q-6 0 -9 -7l-86 -183q-40 -86 -100 -86h-77q-37 0 -59.5 21.5t-23.5 67.5l-5 475q0 7 6 12.5t13 5.5h157q14 0 14 -16v-1l-10 -343q0 -8 5 -8q6 0 10 8l94 205q19 41 64 41h80q26 0 35.5 -10 t12.5 -31l22 -205q1 -8 7 -8q5 0 8 8l112 343q6 17 20 17h159q12 0 12 -12z"/>
<glyph glyph-name="Ygrave" horiz-adv-x="684" unicode="Ỳ" d="M563 804q0 -9 -11 -9h-119q-13 0 -22 11l-105 120q-3 5 -3 7q0 8 12 8h148q16 0 26 -15l71 -114q3 -4 3 -8zM790 733q0 -5 -3 -11l-208 -345q-43 -70 -86 -86l-47 -271q-4 -20 -24 -20h-163q-15 0 -15 16v4l47 271q-39 17 -56 86l-86 345q0 1 -0.5 2.5t-0.5 2.5q0 6 5 11 t12 5h177q13 0 17 -19l49 -265q2 -10 8 -10q7 0 12 10l143 265q9 19 23 19h185q11 0 11 -10z"/>
<glyph glyph-name="ygrave" horiz-adv-x="623" unicode="ỳ" d="M502 642q0 -9 -11 -9h-119q-13 0 -22 11l-105 120q-3 5 -3 7q0 8 12 8h148q16 0 26 -15l71 -114q3 -4 3 -8zM705 567q0 -3 -2 -7l-275 -594q-40 -88 -96 -128.5t-167 -40.5q-85 0 -132 18q-19 8 -19 16v3l17 97q2 8 9.5 14.5t16.5 6.5h1q4 0 58 -4t77 -4q45 0 61 38 l14 33h-13q-36 0 -55.5 16t-23.5 53l-58 476v3q0 19 25 19h161q14 0 16 -20l18 -344q1 -17 8 -17h8l143 362q7 19 25 19h165q7 0 12.5 -4.5t5.5 -10.5z"/>
<glyph glyph-name="endash" horiz-adv-x="309" unicode="–" d="M367 249q-3 -19 -23 -19h-300q-19 0 -16 19l16 90q4 20 23 20h300q8 0 13 -6t3 -14z"/>
<glyph glyph-name="emdash" horiz-adv-x="599" unicode="—" d="M657 249q-3 -19 -23 -19h-590q-19 0 -16 19l16 90q4 20 23 20h590q8 0 13 -6t3 -14z"/>
<glyph glyph-name="quoteleft" horiz-adv-x="277" unicode="‘" d="M391 766q0 -4 -3 -12l-99 -230q-8 -19 -23 -19h-144q-10 0 -10 8q0 5 3 11l123 230q10 19 22 19h123q8 0 8 -7z"/>
<glyph glyph-name="quoteright" horiz-adv-x="277" unicode="’" d="M390 765q0 -5 -3 -11l-123 -230q-10 -19 -22 -19h-123q-8 0 -8 7q0 4 3 12l99 230q8 19 23 19h144q10 0 10 -8z"/>
<glyph glyph-name="quotesinglbase" horiz-adv-x="277" unicode="‚" d="M304 168q0 -4 -3 -9l-146 -238q-13 -20 -26 -20h-104q-16 0 -16 14q0 4 1 6l109 238q9 20 25 20h147q13 0 13 -11z"/>
<glyph glyph-name="quotedblleft" horiz-adv-x="515" unicode="“" d="M390 766q0 -4 -3 -12l-98 -230q-8 -19 -23 -19h-144q-10 0 -10 8q0 5 3 11l122 230q10 19 22 19h123q8 0 8 -7zM629 766q0 -4 -3 -12l-99 -230q-8 -19 -23 -19h-144q-10 0 -10 8q0 5 3 11l122 230q10 19 22 19h124q8 0 8 -7z"/>
<glyph glyph-name="quotedblright" horiz-adv-x="515" unicode="”" d="M389 765q0 -5 -3 -11l-122 -230q-10 -19 -22 -19h-123q-8 0 -8 7q0 4 3 12l99 230q8 19 23 19h143q10 0 10 -8zM628 765q0 -5 -3 -11l-123 -230q-10 -19 -22 -19h-123q-8 0 -8 7q0 4 3 12l99 230q8 19 23 19h144q10 0 10 -8z"/>
<glyph glyph-name="quotedblbase" horiz-adv-x="515" unicode="„" d="M295 168q0 -4 -3 -9l-146 -238q-13 -20 -26 -20h-104q-16 0 -16 14q0 4 1 6l109 238q9 20 25 20h147q13 0 13 -11zM540 168q0 -4 -3 -9l-146 -238q-13 -20 -26 -20h-104q-16 0 -16 14q0 4 1 6l109 238q9 20 25 20h147q13 0 13 -11z"/>
<glyph glyph-name="bullet" horiz-adv-x="418" unicode="•" d="M440 367q0 -70 -50 -120t-121 -50t-120.5 49.5t-49.5 120.5t50 121t120 50q71 0 121 -50t50 -121z"/>
<glyph glyph-name="guilsinglleft" horiz-adv-x="425" unicode="‹" d="M477 512q0 -6 -7 -13l-215 -212l132 -205q3 -4 3 -9q0 -13 -14 -13h-130q-20 0 -27 11l-125 192q-14 22 -14 32q0 15 8 23l192 191q11 11 31 11h155q11 0 11 -8z"/>
<glyph glyph-name="guilsinglright" horiz-adv-x="425" unicode="›" d="M440 285q0 -15 -8 -23l-192 -191q-11 -11 -31 -11h-155q-11 0 -11 8q0 6 7 13l215 212l-132 205q-3 4 -3 9q0 13 14 13h130q20 0 27 -11l125 -192q14 -22 14 -32z"/>
<glyph glyph-name="fraction" horiz-adv-x="316" unicode="⁄" d="M576 736q0 -7 -5 -13l-541 -705q-13 -18 -25 -18h-123q-10 0 -10 9q0 6 5 13l541 704q13 17 27 17h122q9 0 9 -7z"/>
<glyph glyph-name="zero.superior" horiz-adv-x="392" unicode="⁰" d="M354 719l9 53q5 33 5 46q0 36 -25 36q-36 0 -50 -82l-9 -53q-5 -32 -5 -46q0 -36 25 -36q18 0 30 16.5t20 65.5zM473 707q-17 -93 -60.5 -133t-116.5 -40q-66 0 -101 36t-35 104q0 28 6 61l9 53q16 91 62 130t120 39q131 0 131 -130q0 -31 -6 -67z"/>
<glyph glyph-name="four.superior" horiz-adv-x="366" unicode="⁴" d="M312 716l15 89l-82 -89h67zM456 639q-2 -16 -19 -16h-27l-12 -68q-2 -16 -17 -16h-89q-16 0 -14 16l12 68h-146q-15 0 -13 16l11 61q2 11 10 19l216 226q9 7 17 7h68q6 0 10 -4.5t3 -11.5l-39 -220h27q16 0 13 -15z"/>
<glyph glyph-name="five.superior" horiz-adv-x="365" unicode="⁵" d="M303 854l-14 -50h17q139 0 139 -95q0 -83 -49 -129t-138 -46q-61 0 -108 18q-14 6 -12 17l9 53q4 16 21 16q46 -6 88 -6q38 0 51.5 12.5t13.5 41.5q0 25 -48 25h-95q-14 0 -12 14l55 213q3 14 18 14h224q16 0 14 -16l-12 -67q-3 -15 -19 -15h-143z"/>
<glyph glyph-name="six.superior" horiz-adv-x="385" unicode="⁶" d="M281 720l-5 -30q-4 -28 -4 -33q0 -17 7 -23.5t22 -6.5q46 0 46 72q0 24 -31 24q-20 0 -35 -3zM296 804q28 4 52 4q62 0 90.5 -21t28.5 -76q0 -78 -45.5 -128t-137.5 -50q-59 0 -94 30t-35 88q0 11 4 39l20 111q27 155 183 155q64 0 112 -14q13 -4 13 -13q0 -1 -0.5 -2.5 t-0.5 -2.5l-10 -57q-3 -16 -21 -16q-56 7 -94 7q-34 0 -46 -10t-19 -44z"/>
<glyph glyph-name="seven.superior" horiz-adv-x="360" unicode="⁷" d="M460 856l-191 -303q-9 -14 -20 -14h-92q-14 0 -14 11q0 1 3 10q182 280 191 294h-132q-17 0 -14 15l12 67q2 16 19 16h243q20 0 17 -20l-9 -49q-1 -9 -13 -27z"/>
<glyph glyph-name="eight.superior" horiz-adv-x="384" unicode="⁸" d="M345 866h-6q-22 0 -33.5 -13.5t-11.5 -34.5q0 -25 29 -25h12q20 0 30.5 12.5t10.5 32.5q0 28 -31 28zM320 709h-12q-21 0 -32 -17t-11 -39q0 -30 31 -30h6q22 0 34 17t12 40q0 29 -28 29zM355 956h6q134 0 134 -104q0 -27 -15.5 -56.5t-40.5 -43.5q27 -29 27 -66 q0 -74 -48.5 -113.5t-131.5 -39.5h-6q-66 0 -100 31t-34 82q0 68 59 106q-26 23 -26 65q0 69 45.5 104t130.5 35z"/>
<glyph glyph-name="nine.superior" horiz-adv-x="385" unicode="⁹" d="M360 769l6 31q4 19 4 34q0 16 -7 22t-22 6q-17 0 -27.5 -10.5t-15.5 -39.5q-3 -18 -3 -22q0 -14 7.5 -18.5t24.5 -4.5t33 2zM464 688q-15 -82 -60.5 -118.5t-123.5 -36.5q-63 0 -111 14q-14 4 -14 14q0 1 0.5 2.5t0.5 2.5l10 56q3 17 21 17q48 -8 95 -8q33 0 45.5 11 t17.5 44q-33 -5 -50 -5q-56 0 -86.5 25.5t-30.5 73.5q0 81 45.5 128.5t134.5 47.5q64 0 97 -30.5t33 -86.5q0 -11 -4 -39z"/>
<glyph glyph-name="n.superior" horiz-adv-x="356" unicode="ⁿ" d="M384 361q-2 -18 -19 -18h-82q-19 0 -15 18l33 189q1 5 1 13q0 18 -22 18q-17 0 -35 -8l-38 -212q-4 -18 -20 -18h-82q-15 0 -15 12q0 1 0.5 3t0.5 3l52 292q2 16 18 16h76q16 0 14 -16v-1q37 22 80 22q89 0 89 -93q0 -18 -3 -36z"/>
<glyph glyph-name="zero.inferior" horiz-adv-x="392" unicode="₀" d="M251 -20l9 53q5 33 5 46q0 36 -25 36q-36 0 -50 -82l-9 -53q-5 -32 -5 -46q0 -36 25 -36q18 0 30 16.5t20 65.5zM370 -32q-17 -93 -60.5 -133t-116.5 -40q-66 0 -101 36t-35 104q0 28 6 61l9 53q16 91 62 130t120 39q131 0 131 -130q0 -31 -6 -67z"/>
<glyph glyph-name="one.inferior" horiz-adv-x="290" unicode="₁" d="M94 172l96 38q6 3 14 3h62q16 0 14 -16l-68 -381q-2 -16 -18 -16h-88q-16 0 -14 16l49 275l-55 -21q-6 -3 -12 -0.5t-5 10.5l14 78q1 9 11 14z"/>
<glyph glyph-name="two.inferior" horiz-adv-x="371" unicode="₂" d="M245 218q131 0 131 -87q0 -82 -79 -128l-69 -41q-4 -2 -13 -7.5t-12.5 -7.5t-11 -6.5t-10.5 -7t-8 -6.5t-7.5 -7.5t-4.5 -8t-3 -8.5h159q15 0 13 -16l-13 -71q-2 -16 -18 -16h-253q-16 0 -14 16l10 57q16 87 92 138l62 41q52 34 57 41q3 5 3 13q0 15 -44 15q-4 0 -91 -6 q-1 0 -5 -0.5t-6 -0.5q-9 0 -13.5 3.5t-3.5 12.5l9 53q1 9 16 15q62 20 127 20z"/>
<glyph glyph-name="three.inferior" horiz-adv-x="365" unicode="₃" d="M115 51h85q50 0 50 44q0 23 -43 23q-41 0 -103 -5h-1q-14 0 -12 14l11 58q1 9 16 14q63 18 119 18q133 0 133 -89q0 -41 -18.5 -74t-45.5 -46q34 -29 34 -72q0 -74 -47.5 -108t-124.5 -34q-35 0 -73 7t-53 15q-9 5 -8 12l10 56q4 14 17 14h1q60 -5 103 -5q31 0 43.5 9.5 t12.5 34.5q0 24 -37 24h-85q-6 0 -9.5 4.5t-2.5 10.5l10 60q4 15 18 15z"/>
<glyph glyph-name="four.inferior" horiz-adv-x="366" unicode="₄" d="M209 -23l15 89l-82 -89h67zM353 -100q-2 -16 -19 -16h-27l-12 -68q-2 -16 -17 -16h-89q-16 0 -14 16l12 68h-146q-15 0 -13 16l11 61q2 11 10 19l216 226q9 7 17 7h68q6 0 10 -4.5t3 -11.5l-39 -220h27q16 0 13 -15z"/>
<glyph glyph-name="five.inferior" horiz-adv-x="365" unicode="₅" d="M200 115l-14 -50h17q139 0 139 -95q0 -83 -49 -129t-138 -46q-61 0 -108 18q-14 6 -12 17l9 53q4 16 21 16q46 -6 88 -6q38 0 51.5 12.5t13.5 41.5q0 25 -48 25h-95q-14 0 -12 14l55 213q4 14 18 14h224q16 0 14 -16l-12 -67q-3 -15 -19 -15h-143z"/>
<glyph glyph-name="six.inferior" horiz-adv-x="385" unicode="₆" d="M178 -19l-5 -30q-4 -28 -4 -33q0 -17 7 -23.5t22 -6.5q46 0 46 72q0 24 -31 24q-20 0 -35 -3zM193 65q28 4 52 4q62 0 90.5 -21t28.5 -76q0 -78 -45.5 -128t-137.5 -50q-59 0 -94 30t-35 88q0 11 4 39l20 111q27 155 183 155q64 0 112 -14q13 -4 13 -13q0 -1 -0.5 -2.5 t-0.5 -2.5l-10 -57q-3 -16 -21 -16q-56 7 -94 7q-34 0 -46 -10t-19 -44z"/>
<glyph glyph-name="seven.inferior" horiz-adv-x="360" unicode="₇" d="M357 117l-191 -303q-9 -14 -20 -14h-92q-14 0 -14 11q0 1 3 10q182 280 191 294h-132q-17 0 -14 15l12 67q2 16 19 16h243q20 0 17 -20l-9 -49q-1 -9 -13 -27z"/>
<glyph glyph-name="eight.inferior" horiz-adv-x="384" unicode="₈" d="M242 127h-6q-22 0 -33.5 -13.5t-11.5 -34.5q0 -25 29 -25h12q20 0 30.5 12.5t10.5 32.5q0 28 -31 28zM217 -30h-12q-21 0 -32 -17t-11 -39q0 -30 31 -30h6q22 0 34 17t12 40q0 29 -28 29zM252 217h6q134 0 134 -104q0 -27 -15.5 -56.5t-40.5 -43.5q27 -29 27 -66 q0 -74 -48.5 -113.5t-131.5 -39.5h-6q-66 0 -100 31t-34 82q0 68 59 106q-26 23 -26 65q0 69 45.5 104t130.5 35z"/>
<glyph glyph-name="nine.inferior" horiz-adv-x="385" unicode="₉" d="M257 30l6 31q4 19 4 34q0 16 -7 22t-22 6q-17 0 -27.5 -10.5t-15.5 -39.5q-3 -18 -3 -22q0 -14 7.5 -18.5t24.5 -4.5t33 2zM361 -51q-15 -82 -60.5 -118.5t-123.5 -36.5q-63 0 -111 14q-14 4 -14 14q0 1 0.5 2.5t0.5 2.5l10 56q3 17 21 17q48 -8 95 -8q33 0 45.5 11 t17.5 44q-32 -5 -50 -5q-56 0 -86.5 25.5t-30.5 73.5q0 81 45.5 128.5t134.5 47.5q64 0 97 -30.5t33 -86.5q0 -11 -4 -39z"/>
<glyph glyph-name="Euro" horiz-adv-x="666" unicode="€" d="M707 719q0 -1 -0.5 -3t-0.5 -3l-22 -121q-3 -19 -21 -19h-2h-1q-70 7 -129 7q-49 0 -77 -19t-46 -74h192q10 0 10 -7q0 -3 -1 -5l-25 -62q-5 -12 -18 -12h-180l-10 -56h163q11 0 11 -9q0 -3 -2 -9l-23 -53q-7 -15 -19 -15h-139v-4v-8q0 -50 22.5 -67t68.5 -17q49 0 131 8 h3q16 0 16 -14v-2q-1 -2 -1 -3l-22 -121q-2 -15 -25 -22q-56 -18 -139 -18q-116 0 -188.5 64.5t-72.5 181.5q0 3 0.5 10.5t0.5 11.5h-40q-17 0 -17 17v3l8 46q4 20 24 20h36l7 56h-33q-17 0 -17 17v3l8 46q4 20 24 20h35q63 266 346 266q65 0 146 -18q19 -4 19 -16z"/>
<glyph glyph-name="uni20B4" horiz-adv-x="607" unicode="₴" d="M82 249h-26q-19 0 -16 16l7 38q3 16 22 16h47q29 44 90 82h-123q-19 0 -16 16l7 38q3 16 22 16h250l45 22q62 30 62 59q0 26 -45 26q-47 0 -229 -13h-2q-17 0 -15 19l23 125q1 13 21 19q33 9 103.5 17t127.5 8q125 0 179.5 -45t54.5 -131q0 -58 -34 -106h35q9 0 13.5 -4 t3.5 -12l-7 -38q-3 -16 -23 -16h-79q-26 -24 -70 -47l-66 -35h201q9 0 13.5 -4t3.5 -12l-7 -38q-3 -16 -23 -16h-315q-23 -19 -23 -47q0 -37 55 -37q73 0 205 15h2q19 0 16 -20l-22 -123q-3 -14 -25 -20q-95 -26 -206 -26q-128 0 -187 55.5t-59 146.5q0 27 9 56z"/>
<glyph glyph-name="afii61352" horiz-adv-x="1251" unicode="№" d="M687 37q-3 -15 -15 -26t-27 -11h-134q-28 0 -39 27l-138 335q-2 8 -8 8t-7 -9l-60 -341q-4 -20 -22 -20h-150q-9 0 -14.5 6t-4.5 14l121 686q3 15 16 26t28 11h132q24 0 34 -29l143 -345q3 -9 7 -9q5 0 7 9l62 354q4 20 24 20h150q8 0 13 -6t3 -14zM1113 422l9 49 q3 21 3 36q0 56 -46 56q-62 0 -77 -92l-9 -49q-4 -28 -4 -36q0 -57 49 -57q58 0 75 93zM1274 422q-19 -110 -86.5 -169t-173.5 -59q-91 0 -139 43.5t-48 125.5q0 27 6 59l9 49q19 111 87 169.5t174 58.5q90 0 138 -43.5t48 -125.5q0 -28 -6 -59zM1205 61q-4 -20 -23 -20 h-382q-8 0 -13 6t-4 14l12 69q4 20 24 20h382q8 0 13 -6t3 -14z"/>
<glyph glyph-name="uni2215" horiz-adv-x="316" unicode="∕" d="M576 736q0 -7 -5 -13l-541 -705q-13 -18 -25 -18h-123q-10 0 -10 9q0 6 5 13l541 704q13 17 27 17h122q9 0 9 -7z"/>
</font>
</defs>
</svg>
