<?xml version="1.0" encoding="UTF-8" standalone="no"?>
<!DOCTYPE svg  PUBLIC '-//W3C//DTD SVG 1.1//EN'  'http://www.w3.org/Graphics/SVG/1.1/DTD/svg11.dtd'>
<svg xmlns="http://www.w3.org/2000/svg">
<defs>
<font id="NeoSansW1G-Light" horiz-adv-x="580">
<font-face underline-position="-35" font-weight="300" descent="-200" panose-1="2 11 3 4 3 5 4 4 2 4" units-per-em="1000" unicode-range="U+0020-2215" bbox="-87 -216 1090 980" x-height="537" underline-thickness="42" font-family="NeoSansW1G" ascent="800" cap-height="743"/>
<missing-glyph horiz-adv-x="1000"/>
<glyph glyph-name="IJ" horiz-adv-x="448" unicode="IJ" d="M358 -60q0 -72 -32 -103.5t-112 -31.5h-14q-20 0 -20 14v10q0 15 20 15h14q62 0 81 18.5t19 77.5v784q0 8 5 13.5t12 5.5h10q7 0 12 -5.5t5 -13.5v-784zM134 19q0 -8 -5 -13.5t-12 -5.5h-10q-7 0 -12 5.5t-5 13.5v705q0 8 5 13.5t12 5.5h10q7 0 12 -5.5t5 -13.5v-705z "/>
<glyph glyph-name="ij" horiz-adv-x="408" unicode="ij" d="M328 -86q0 -62 -25 -85.5t-78 -23.5q-19 0 -42 3q-17 2 -17 14v9q0 12 21 12h38q34 0 46.5 13.5t12.5 57.5v604q0 19 16 19h11q17 0 17 -19v-604zM328 655q0 -8 -5.5 -13.5t-13.5 -5.5h-6q-8 0 -13.5 5.5t-5.5 13.5v74q0 7 6 13t13 6h6q7 0 13 -6t6 -13v-74zM124 19 q0 -7 -6 -13t-13 -6h-6q-7 0 -13 6t-6 13v499q0 8 6 13.5t13 5.5h6q7 0 13 -5.5t6 -13.5v-499zM124 655q0 -8 -5.5 -13.5t-13.5 -5.5h-6q-8 0 -13.5 5.5t-5.5 13.5v74q0 7 6 13t13 6h6q7 0 13 -6t6 -13v-74z"/>
<glyph glyph-name="napostrophe" horiz-adv-x="641" unicode='&quot;n' d="M571 19q0 -8 -5.5 -13.5t-13.5 -5.5h-7q-7 0 -12.5 5.5t-5.5 13.5v332q0 152 -135 152q-73 0 -158 -41v-443q0 -7 -6 -13t-13 -6h-6q-7 0 -13 6t-6 13v498q0 20 18 20h8q18 0 18 -20v-16q85 41 161 41q78 0 127 -46.5t49 -144.5v-332zM131 732q0 -5 -1 -8l-48 -172 q-5 -19 -19 -19h-15q-9 0 -9 10q0 6 1 9l41 172q4 19 20 19h19q11 0 11 -11z"/>
<glyph glyph-name=".notdef" horiz-adv-x="1000"/>
<glyph glyph-name=".null" horiz-adv-x="0"/>
<glyph glyph-name="nonmarkingreturn" horiz-adv-x="333"/>
<glyph glyph-name="space" horiz-adv-x="215" unicode=" "/>
<glyph glyph-name="exclam" horiz-adv-x="204" unicode="!" d="M124 13q0 -8 -5.5 -13.5t-13.5 -5.5h-6q-8 0 -13.5 5.5t-5.5 13.5v74q0 7 6 13t13 6h6q7 0 13 -6t6 -13v-74zM124 192q0 -8 -6 -13.5t-13 -5.5h-6q-7 0 -13 5.5t-6 13.5v532q0 8 6 13.5t13 5.5h6q7 0 13 -5.5t6 -13.5v-532z"/>
<glyph glyph-name="quotedbl" horiz-adv-x="295" unicode='&quot;' d="M131 732q0 -5 -1 -8l-48 -172q-5 -19 -19 -19h-15q-9 0 -9 10q0 6 1 9l41 172q4 19 20 19h19q11 0 11 -11zM256 732q0 -5 -1 -8l-48 -172q-5 -19 -19 -19h-15q-9 0 -9 10q0 6 1 9l41 172q4 19 20 19h19q11 0 11 -11z"/>
<glyph glyph-name="numbersign" horiz-adv-x="636" unicode="#" d="M419 480h-180l-20 -226h180zM586 497q0 -7 -6 -12t-14 -5h-104l-20 -226h104q17 0 17 -17v-3q0 -17 -20 -17h-105l-17 -198q-2 -19 -18 -19h-9q-16 0 -16 17v2l17 198h-180l-17 -198q-2 -19 -18 -19h-10q-7 0 -11.5 5t-4.5 12v2l17 198h-103q-18 0 -18 17v3q0 17 21 17 h104l20 226h-104q-18 0 -18 17v4q0 7 6.5 12t14.5 5h104l18 206q1 8 6.5 13.5t12.5 5.5h10q15 0 15 -17v-2l-18 -206h180l18 206q2 19 19 19h9q15 0 15 -17v-2l-18 -206h104q17 0 17 -17v-4z"/>
<glyph glyph-name="dollar" d="M500 184q0 -171 -188 -188v-105q0 -19 -16 -19h-10q-16 0 -16 19v103h-2q-45 0 -155 11q-18 2 -18 16v13q0 13 19 13h4q17 -1 47 -4.5t54 -5t49 -1.5q105 0 145.5 39t40.5 109q0 49 -25.5 78t-109.5 81l-100 62q-81 50 -110 89t-29 92q0 145 190 160v87q0 19 16 19h10 q16 0 16 -19v-85h2q42 0 149 -10q17 -2 17 -15v-13q0 -14 -19 -14q-7 0 -63 5t-85 5q-98 0 -142.5 -28.5t-44.5 -91.5q0 -43 24.5 -72t96.5 -73l98 -60q93 -56 124 -98t31 -99z" unicode="$"/>
<glyph glyph-name="percent" horiz-adv-x="757" unicode="%" d="M274 489v104q0 117 -87 117q-88 0 -88 -117v-104q0 -117 88 -117q87 0 87 117zM658 150v104q0 117 -87 117q-88 0 -88 -117v-104q0 -117 88 -117q87 0 87 117zM313 489q0 -77 -33 -116.5t-93 -39.5t-93.5 39.5t-33.5 116.5v104q0 77 33.5 116t93.5 39t93 -39t33 -116 v-104zM617 738q0 -5 -6 -14l-420 -711q-11 -19 -21 -19h-27q-7 0 -7 5t6 14l420 711q11 19 21 19h26q8 0 8 -5zM697 150q0 -77 -33 -116.5t-93 -39.5t-93.5 39.5t-33.5 116.5v104q0 77 33.5 116t93.5 39t93 -39t33 -116v-104z"/>
<glyph glyph-name="ampersand" horiz-adv-x="637" unicode="&amp;" d="M452 105l-124 133q-80 86 -99 108q-78 -50 -105 -84t-27 -89v-6q0 -68 52 -100.5t127 -32.5q110 0 176 71zM410 589v6q0 113 -137 113q-70 0 -107.5 -24.5t-37.5 -88.5v-6q0 -34 19.5 -70t91.5 -118l37 22q79 47 106.5 82.5t27.5 83.5zM599 7q0 -7 -8 -7h-32q-10 0 -16 7 l-63 67q-77 -80 -204 -80q-41 0 -78 8.5t-72 27t-55.5 53.5t-20.5 84v6q0 61 33 105.5t119 99.5q-76 88 -98 130.5t-22 80.5v6q0 80 52 116.5t139 36.5q77 0 130 -37t53 -116v-6q0 -57 -35.5 -102.5t-121.5 -97.5l-33 -20q15 -16 47.5 -51t46.5 -50l119 -128q51 79 51 208 v11q0 19 15 19h14q16 0 16 -19v-11q0 -146 -66 -240l88 -95q2 -4 2 -6z"/>
<glyph glyph-name="quotesingle" horiz-adv-x="170" unicode="&apos;" d="M131 732q0 -5 -1 -8l-48 -172q-5 -19 -19 -19h-15q-9 0 -9 10q0 6 1 9l41 172q4 19 20 19h19q11 0 11 -11z"/>
<glyph glyph-name="parenleft" horiz-adv-x="265" unicode="(" d="M245 -190q0 -5 -8 -5h-30q-11 0 -17 7q-65 79 -97.5 202.5t-32.5 232.5v54q0 109 32.5 232.5t97.5 202.5q6 7 17 7h30q8 0 8 -5q0 -4 -5 -9q-64 -69 -99.5 -194t-35.5 -234v-54q0 -109 35.5 -234t99.5 -194q5 -5 5 -9z"/>
<glyph glyph-name="parenright" horiz-adv-x="265" unicode=")" d="M205 247q0 -109 -32.5 -232.5t-97.5 -202.5q-6 -7 -17 -7h-30q-8 0 -8 5q0 4 5 9q64 69 99.5 194t35.5 234v54q0 109 -35.5 234t-99.5 194q-5 5 -5 9q0 5 8 5h30q11 0 17 -7q65 -79 97.5 -202.5t32.5 -232.5v-54z"/>
<glyph glyph-name="asterisk" horiz-adv-x="417" unicode="*" d="M383 615q0 -13 -14 -16l-130 -42l80 -111q5 -7 5 -12q0 -6 -6 -11l-7 -5q-5 -3 -8 -3q-7 0 -14 9l-81 111l-80 -111q-6 -8 -14 -8q-5 0 -8 2l-8 5q-6 3 -6 10q0 6 5 13l81 111l-130 42q-14 3 -14 16q0 3 1 4l3 8q3 9 14 9q4 0 7 -1l131 -42v137q0 18 14 18h9q14 0 14 -18 v-137l131 42q3 1 7 1q11 0 14 -9l3 -8q1 -1 1 -4z"/>
<glyph glyph-name="plus" d="M513 386q0 -16 -20 -16h-182v-181q0 -20 -16 -20h-10q-16 0 -16 20v181h-181q-20 0 -20 16v10q0 16 20 16h181v182q0 20 16 20h10q16 0 16 -20v-182h182q20 0 20 -16v-10z" unicode="+"/>
<glyph glyph-name="comma" horiz-adv-x="168" unicode="," d="M130 95q0 -2 -2 -8l-63 -168q-7 -19 -19 -19h-12q-10 0 -10 10q0 3 2 9l53 168q5 19 20 19h19q12 0 12 -11z"/>
<glyph glyph-name="hyphen" horiz-adv-x="344" unicode="-" d="M292 273q0 -16 -19 -16h-202q-19 0 -19 16v8q0 8 5.5 13t13.5 5h202q8 0 13.5 -5t5.5 -13v-8z"/>
<glyph glyph-name="period" horiz-adv-x="168" unicode="." d="M106 13q0 -8 -5.5 -13.5t-13.5 -5.5h-6q-8 0 -13.5 5.5t-5.5 13.5v74q0 7 6 13t13 6h6q7 0 13 -6t6 -13v-74z"/>
<glyph glyph-name="slash" horiz-adv-x="312" unicode="/" d="M298 736q0 -5 -1 -7l-235 -716q-6 -19 -16 -19h-22q-10 0 -10 12q0 5 1 7l235 716q6 19 16 19h21q11 0 11 -12z"/>
<glyph glyph-name="zero" d="M476 273v197q0 118 -47.5 178t-138.5 60t-138.5 -60t-47.5 -178v-197q0 -118 47.5 -178.5t138.5 -60.5t138.5 60.5t47.5 178.5zM520 273q0 -141 -60.5 -210t-169.5 -69t-169.5 69t-60.5 210v197q0 140 60.5 209t169.5 69t169.5 -69t60.5 -209v-197z" unicode="0"/>
<glyph glyph-name="one" d="M85 41h171v659l-172 -22h-5q-15 0 -15 13v5q0 16 20 20l193 27h5q18 0 18 -20v-682h171q20 0 20 -15v-11q0 -15 -20 -15h-386q-20 0 -20 15v11q0 15 20 15z" unicode="1"/>
<glyph glyph-name="two" d="M500 573q0 -57 -29 -98.5t-106 -93.5l-102 -69q-47 -32 -75.5 -59t-42 -56t-17 -53t-3.5 -63v-40h346q20 0 20 -15v-11q0 -15 -20 -15h-371q-9 0 -14.5 6t-5.5 14v61q0 83 30.5 142.5t124.5 122.5l102 69q68 46 91.5 78t23.5 80q0 69 -43 101t-141 32q-76 0 -153 -15 q-1 0 -3 -1h-2q-16 0 -16 16v11q0 12 19 16q70 15 155 15q232 0 232 -175z" unicode="2"/>
<glyph glyph-name="three" d="M496 206q0 -212 -248 -212q-75 0 -146 15q-18 4 -18 18v6q0 16 16 16h4q78 -13 144 -13q104 0 152.5 40t48.5 130v20q0 50 -35.5 96.5t-106.5 46.5h-187q-8 0 -13.5 5t-5.5 13v7q0 18 19 18h187q41 0 70.5 14t44 37t21 45t6.5 45v12q0 81 -47.5 111t-153.5 30 q-54 0 -144 -15h-4q-16 0 -16 16v8q0 14 18 18q84 15 146 15q124 0 186 -40t62 -143v-12q0 -120 -104 -165q53 -24 78.5 -70.5t25.5 -91.5v-20z" unicode="3"/>
<glyph glyph-name="four" d="M379 258v436q0 8 -6 8q-4 0 -10 -8l-273 -401q-10 -16 -10 -23q0 -12 22 -12h277zM542 233q0 -17 -19 -17h-100v-197q0 -19 -16 -19h-12q-16 0 -16 19v197h-277q-30 0 -47 15.5t-17 38.5q0 21 14 42l280 411q16 25 51 25q40 0 40 -48v-442h100q19 0 19 -16v-9z" unicode="4"/>
<glyph glyph-name="five" d="M503 215q0 -106 -69 -163.5t-184 -57.5q-77 0 -154 18q-19 3 -19 19v11q0 13 13 13q5 0 8 -1q77 -18 152 -18q101 0 155 45t54 134v25q0 86 -56 120.5t-185 34.5h-106q-20 0 -20 20v2l23 309q2 17 20 17h326q20 0 20 -16v-11q0 -14 -20 -14h-303l-18 -266h78 q158 0 221.5 -48t63.5 -148v-25z" unicode="5"/>
<glyph glyph-name="six" d="M472 251v5q0 44 -15.5 75.5t-42 48t-56.5 24t-65 7.5q-93 0 -185 -24v-134q0 -118 42.5 -168.5t134.5 -50.5q93 0 140 51t47 166zM516 251q0 -129 -55.5 -193t-175.5 -64q-112 0 -166.5 64t-54.5 195v235q0 137 61 198.5t184 61.5q74 0 159 -19q22 -4 22 -18v-10 q0 -14 -16 -14q-5 0 -8 1q-87 18 -157 18q-105 0 -153 -49.5t-48 -168.5v-62q102 26 185 26q44 0 81.5 -10t70.5 -31t52 -61t19 -94v-5z" unicode="6"/>
<glyph glyph-name="seven" d="M517 708q0 -12 -5 -22l-320 -676q-4 -10 -18 -10h-15q-15 0 -15 15q0 6 3 12l316 659q1 2 1 6q0 8 -8 8h-374q-20 0 -20 16v8q0 8 6 13.5t14 5.5h396q17 0 28 -9.5t11 -25.5z" unicode="7"/>
<glyph glyph-name="eight" d="M477 197v30q0 20 -7 42t-22.5 45.5t-46 39t-70.5 15.5h-82q-40 0 -70.5 -15.5t-46 -39t-22.5 -45.5t-7 -42v-30q0 -79 48.5 -120t138.5 -41t138.5 41t48.5 120zM477 544v22q0 140 -187 140t-187 -140v-22q0 -52 34.5 -92t111.5 -40h82q77 0 111.5 40t34.5 92zM524 197 q0 -100 -64 -151.5t-170 -51.5t-170 51.5t-64 151.5v30q0 46 27 93t77 69q-48 17 -76 59.5t-28 95.5v22q0 91 63 136.5t171 45.5t171 -45.5t63 -136.5v-22q0 -53 -28 -95.5t-76 -59.5q50 -22 77 -69t27 -93v-30z" unicode="8"/>
<glyph glyph-name="nine" d="M472 355v134q0 118 -42.5 168.5t-134.5 50.5q-93 0 -140 -51t-47 -166v-5q0 -44 15.5 -75.5t42 -48t56.5 -24t65 -7.5q93 0 185 24zM516 254q0 -137 -61 -198.5t-184 -61.5q-74 0 -159 19q-22 4 -22 18v10q0 14 16 14q5 0 8 -1q87 -18 157 -18q105 0 153 49.5t48 168.5 v62q-102 -26 -185 -26q-44 0 -81.5 10t-70.5 31t-52 61t-19 94v5q0 129 55.5 193t175.5 64q112 0 166.5 -64t54.5 -195v-235z" unicode="9"/>
<glyph glyph-name="colon" horiz-adv-x="178" unicode=":" d="M111 13q0 -8 -5.5 -13.5t-13.5 -5.5h-6q-8 0 -13.5 5.5t-5.5 13.5v74q0 7 5.5 13t13.5 6h6q8 0 13.5 -6t5.5 -13v-74zM111 449q0 -8 -5.5 -13.5t-13.5 -5.5h-6q-8 0 -13.5 5.5t-5.5 13.5v74q0 7 5.5 13t13.5 6h6q8 0 13.5 -6t5.5 -13v-74z"/>
<glyph glyph-name="semicolon" horiz-adv-x="178" unicode=";" d="M118 95q0 -2 -2 -8l-63 -168q-7 -19 -19 -19h-12q-10 0 -10 10q0 3 2 9l53 168q5 19 20 19h19q12 0 12 -11zM111 449q0 -8 -5.5 -13.5t-13.5 -5.5h-6q-8 0 -13.5 5.5t-5.5 13.5v74q0 7 5.5 13t13.5 6h6q8 0 13.5 -6t5.5 -13v-74z"/>
<glyph glyph-name="less" d="M431 159q0 -6 -5 -11l-7 -7q-4 -4 -10 -4q-7 0 -16 7l-266 218q-15 12 -15 29t15 29l266 218q9 7 16 7q6 0 10 -4l7 -7q5 -5 5 -11q0 -9 -8 -15l-265 -217l265 -217q8 -6 8 -15z" unicode="&lt;"/>
<glyph glyph-name="equal" d="M493 286q0 -16 -20 -16h-365q-20 0 -20 16v10q0 16 20 16h365q20 0 20 -16v-10zM493 486q0 -16 -20 -16h-365q-20 0 -20 16v10q0 16 20 16h365q20 0 20 -16v-10z" unicode="="/>
<glyph glyph-name="greater" d="M482 391q0 -17 -15 -29l-266 -218q-9 -7 -16 -7q-6 0 -10 4l-7 7q-5 5 -5 11q0 9 8 15l265 217l-265 217q-8 6 -8 15q0 6 5 11l7 7q4 4 10 4q7 0 16 -7l266 -218q15 -12 15 -29z" unicode="&gt;"/>
<glyph glyph-name="question" horiz-adv-x="424" unicode="?" d="M163 13q0 -8 -5.5 -13.5t-13.5 -5.5h-6q-8 0 -13.5 5.5t-5.5 13.5v74q0 7 5.5 13t13.5 6h6q8 0 13.5 -6t5.5 -13v-74zM364 595q0 -46 -22.5 -85t-87.5 -104l-30 -30q-38 -38 -49 -60.5t-11 -63.5v-60q0 -8 -5.5 -13.5t-13.5 -5.5h-6q-8 0 -13.5 5.5t-5.5 13.5v60 q0 49 15 80.5t59 75.5l28 28q58 58 76 89.5t18 69.5v8q0 56 -35.5 81t-109.5 25q-39 0 -121 -7h-2q-13 0 -13 12v8q0 17 17 19q57 7 119 7q83 0 138 -34.5t55 -110.5v-8z"/>
<glyph glyph-name="at" horiz-adv-x="758" unicode="@" d="M479 431q-61 9 -94 9q-107 0 -117 -109l-11 -117q-1 -6 -1 -17q0 -92 99 -92h34q42 0 61 3zM708 373q0 -103 -18.5 -161t-62.5 -90q-78 -57 -272 -57q-70 0 -105.5 36t-35.5 95q0 12 1 18l11 118q6 66 46.5 106.5t114.5 40.5q59 0 123 -14q14 -3 14 -13v-2l-31 -339 q35 4 62 14t45 22t30.5 32.5t19.5 38t10.5 47t4 51t0.5 57.5q0 103 -68 169.5t-187 66.5q-127 0 -209 -75.5t-93 -188.5l-14 -142q-1 -10 -1 -29q0 -101 65 -168t190 -67q56 0 126 5h1h3q15 0 15 -12q0 -4 -1 -7q-3 -13 -20 -16q-62 -8 -128 -8q-138 0 -216 79t-78 194 q0 19 1 29l14 143q12 131 105.5 216.5t242.5 85.5q138 0 216.5 -81t78.5 -194z"/>
<glyph glyph-name="A" horiz-adv-x="619" unicode="A" d="M442 325l-109 363q-6 20 -23 20q-18 0 -23 -19l-110 -364h265zM579 22q1 -3 1 -10q0 -15 -15 -15h-12q-12 0 -16 13l-84 271h-288l-82 -271q-4 -13 -16 -13h-13q-15 0 -15 16q0 6 1 9l205 677q15 49 65 49t64 -48z"/>
<glyph glyph-name="B" d="M484 203v17q0 149 -179 149h-181v-330q86 -6 125 -6q50 0 88 6.5t73.5 23.5t54.5 52.5t19 87.5zM480 556v11q0 35 -13 61.5t-34 41.5t-52.5 24t-62 12t-69.5 3q-26 0 -75 -2t-50 -2v-293h181q175 0 175 144zM528 203q0 -210 -279 -210q-78 0 -150 8q-19 1 -19 19v703 q0 17 19 19q82 6 150 6q275 0 275 -181v-11q0 -124 -119 -166q123 -37 123 -170v-17z" unicode="B"/>
<glyph glyph-name="C" horiz-adv-x="537" unicode="C" d="M497 21q0 -15 -19 -17q-87 -10 -173 -10q-50 0 -91.5 15.5t-77.5 49.5t-56 97t-20 149v132q0 86 20 149t56 97t77.5 49.5t91.5 15.5q86 0 173 -10q19 -2 19 -17v-12q0 -14 -19 -12q-81 9 -173 9q-91 0 -146 -64.5t-55 -204.5v-132q0 -140 55 -204.5t146 -64.5q92 0 173 9 q19 2 19 -12v-12z"/>
<glyph glyph-name="D" horiz-adv-x="613" unicode="D" d="M509 309v124q0 276 -248 276q-49 0 -137 -6v-666q59 -4 137 -4q248 0 248 276zM553 309q0 -164 -78 -239.5t-214 -75.5q-118 0 -164 8q-17 4 -17 19v700q0 15 17 19q46 8 164 8q292 0 292 -315v-124z"/>
<glyph glyph-name="E" horiz-adv-x="533" unicode="E" d="M478 17q0 -17 -19 -17h-258q-60 0 -90.5 25.5t-30.5 86.5v519q0 61 30.5 86.5t90.5 25.5h258q19 0 19 -17v-8q0 -16 -19 -16h-258q-40 0 -58.5 -14t-18.5 -57v-220h335q19 0 19 -16v-10q0 -17 -19 -17h-335v-256q0 -43 18.5 -57t58.5 -14h258q19 0 19 -16v-8z"/>
<glyph glyph-name="F" horiz-adv-x="518" unicode="F" d="M478 385q0 -17 -19 -17h-335v-349q0 -8 -5 -13.5t-12 -5.5h-10q-7 0 -12 5.5t-5 13.5v612q0 61 30.5 86.5t90.5 25.5h258q19 0 19 -17v-8q0 -16 -19 -16h-258q-40 0 -58.5 -14t-18.5 -57v-220h335q19 0 19 -16v-10z"/>
<glyph glyph-name="G" horiz-adv-x="588" unicode="G" d="M508 712q0 -18 -21 -15q-101 10 -176 10q-32 0 -60 -7.5t-56 -26.5t-47.5 -49t-31.5 -79t-12 -112v-124q0 -138 54.5 -205.5t152.5 -67.5q80 0 152 9v318q0 19 17 19h10q17 0 17 -19v-337q0 -17 -17 -19q-104 -13 -179 -13q-113 0 -182 78.5t-69 236.5v124q0 72 15 128.5 t39.5 91t58 56.5t67 30.5t71.5 8.5q94 0 180 -10q17 -2 17 -16v-10z"/>
<glyph glyph-name="H" horiz-adv-x="647" unicode="H" d="M567 19q0 -19 -17 -19h-9q-17 0 -17 19v358h-400v-358q0 -8 -5 -13.5t-12 -5.5h-10q-7 0 -12 5.5t-5 13.5v705q0 8 5 13.5t12 5.5h10q7 0 12 -5.5t5 -13.5v-306h400v306q0 19 17 19h9q17 0 17 -19v-705z"/>
<glyph glyph-name="I" horiz-adv-x="224" unicode="I" d="M134 19q0 -8 -5 -13.5t-12 -5.5h-10q-7 0 -12 5.5t-5 13.5v705q0 8 5 13.5t12 5.5h10q7 0 12 -5.5t5 -13.5v-705z"/>
<glyph glyph-name="J" horiz-adv-x="224" unicode="J" d="M134 -60q0 -72 -32 -103.5t-112 -31.5h-14q-20 0 -20 14v10q0 15 20 15h14q62 0 81 18.5t19 77.5v784q0 8 5 13.5t12 5.5h10q7 0 12 -5.5t5 -13.5v-784z"/>
<glyph glyph-name="K" horiz-adv-x="542" unicode="K" d="M506 730q0 -10 -8 -18l-336 -326l343 -356q7 -7 7 -16q0 -16 -19 -16q-15 0 -23 8l-346 360v-347q0 -8 -5 -13.5t-12 -5.5h-10q-7 0 -12 5.5t-5 13.5v705q0 8 6 13.5t13 5.5h6q7 0 13 -5.5t6 -13.5v-320l340 332q12 11 23 11q8 0 13.5 -5.5t5.5 -11.5z"/>
<glyph glyph-name="L" horiz-adv-x="483" unicode="L" d="M448 17q0 -17 -19 -17h-228q-60 0 -90.5 25.5t-30.5 86.5v612q0 8 5 13.5t12 5.5h10q7 0 12 -5.5t5 -13.5v-612q0 -43 18.5 -57t58.5 -14h228q19 0 19 -16v-8z"/>
<glyph glyph-name="M" horiz-adv-x="730" unicode="M" d="M650 19q0 -8 -5 -13.5t-12 -5.5h-10q-7 0 -12 5.5t-5 13.5v680q0 7 -7 7q-5 0 -10 -9l-173 -365q-17 -36 -51 -36t-51 36l-173 365q-5 9 -10 9q-7 0 -7 -7v-680q0 -8 -5 -13.5t-12 -5.5h-10q-7 0 -12 5.5t-5 13.5v680q0 49 51 49q31 0 46 -31l175 -367q6 -13 13 -13 t13 13l175 367q15 31 46 31q51 0 51 -49v-680z"/>
<glyph glyph-name="N" horiz-adv-x="651" unicode="N" d="M571 45q0 -23 -13 -37t-32 -14q-25 0 -34 7q-11 9 -18 23l-337 675q-3 7 -8 7t-5 -7v-680q0 -8 -5 -13.5t-12 -5.5h-10q-7 0 -12 5.5t-5 13.5v680q0 22 13.5 35.5t35.5 13.5q33 0 48 -31l336 -674q3 -7 8 -7t5 9v679q0 19 16 19h12q17 0 17 -19v-679z"/>
<glyph glyph-name="O" horiz-adv-x="632" unicode="O" d="M528 309v124q0 273 -212 273t-212 -273v-124q0 -273 212 -273t212 273zM572 309q0 -160 -69 -237.5t-187 -77.5t-187 77.5t-69 237.5v124q0 160 69 237.5t187 77.5t187 -77.5t69 -237.5v-124z"/>
<glyph glyph-name="P" horiz-adv-x="540" unicode="P" d="M461 528v17q0 90 -56 127t-172 37q-65 0 -109 -3v-349q62 -4 109 -4q118 0 173 40.5t55 134.5zM505 528q0 -114 -69.5 -164t-202.5 -50q-53 0 -109 4v-299q0 -8 -5 -13.5t-12 -5.5h-10q-7 0 -12 5.5t-5 13.5v705q0 7 5 12.5t12 6.5q87 5 136 5q272 0 272 -203v-17z"/>
<glyph glyph-name="Q" horiz-adv-x="632" unicode="Q" d="M528 309v124q0 273 -212 273t-212 -273v-124q0 -273 212 -273t212 273zM572 309q0 -153 -63 -230.5t-172 -83.5v-67q0 -56 15 -70t78 -14h21q20 0 20 -16v-7q0 -16 -20 -16h-21q-75 0 -106 23t-31 100v67q-108 7 -170.5 84.5t-62.5 229.5v124q0 160 69 237.5t187 77.5 t187 -77.5t69 -237.5v-124z"/>
<glyph glyph-name="R" horiz-adv-x="598" unicode="R" d="M481 539v5q0 90 -55.5 126t-172.5 36q-89 0 -129 -4v-324q13 0 63.5 -0.5t65.5 -0.5q121 0 174.5 34.5t53.5 127.5zM548 29q5 -8 5 -15q0 -14 -16 -14h-13q-8 0 -15 9l-213 326h-16h-27l-129 1v-317q0 -8 -5 -13.5t-12 -5.5h-10q-7 0 -12 5.5t-5 13.5v706q0 7 5 12.5 t12 6.5q70 4 156 4q140 0 206 -46.5t66 -157.5v-5q0 -89 -44 -136.5t-135 -62.5z"/>
<glyph glyph-name="S" horiz-adv-x="530" unicode="S" d="M475 185q0 -191 -232 -191q-84 0 -146 10q-27 4 -27 21v4q0 17 19 17h4q80 -10 150 -10q105 0 145.5 39.5t40.5 109.5q0 19 -3 33t-13 28.5t-18.5 24t-31.5 26t-37.5 26t-50.5 31.5l-63 39q-82 50 -119.5 92t-37.5 108q0 44 19.5 75.5t54 48.5t74 24t86.5 7q74 0 139 -9 q27 -3 27 -20v-5q0 -17 -21 -17q-1 0 -4.5 0.5t-5.5 0.5q-72 8 -136 8q-188 0 -188 -113q0 -50 30.5 -83t104.5 -78l64 -39q98 -59 137 -101t39 -107z"/>
<glyph glyph-name="T" horiz-adv-x="571" unicode="T" d="M541 717q0 -15 -19 -15h-214v-683q0 -8 -5 -13.5t-12 -5.5h-10q-7 0 -12 5.5t-5 13.5v683h-215q-19 0 -19 15v9q0 17 19 17h473q19 0 19 -17v-9z"/>
<glyph glyph-name="U" horiz-adv-x="633" unicode="U" d="M553 264q0 -130 -58.5 -200t-177.5 -70q-120 0 -178.5 70t-58.5 200v460q0 8 5 13.5t12 5.5h10q7 0 12 -5.5t5 -13.5v-460q0 -113 45.5 -171t147.5 -58t147 58t45 171v460q0 8 5 13.5t12 5.5h10q7 0 12 -5.5t5 -13.5v-460z"/>
<glyph glyph-name="V" horiz-adv-x="630" unicode="V" d="M585 718l-205 -675q-14 -49 -65 -49t-65 49l-205 675q-1 2 -1 7q0 18 17 18h11q12 0 16 -14l204 -673q6 -20 23 -20t23 20l204 673q4 14 16 14h11q17 0 17 -18q0 -5 -1 -7z"/>
<glyph glyph-name="W" horiz-adv-x="788" unicode="W" d="M743 720l-123 -679q-9 -47 -48 -47q-35 0 -48 45l-122 387q-4 12 -8 12t-8 -12l-122 -387q-13 -45 -48 -45q-39 0 -48 47l-123 679q-2 9 2.5 16t13.5 7h10q15 0 18 -16l121 -677q3 -15 6 -15q4 0 8 15l125 389q12 39 45 39t45 -39l125 -389q4 -15 8 -15q3 0 6 15l121 677 q3 16 18 16h10q9 0 13.5 -7t2.5 -16z"/>
<glyph glyph-name="X" horiz-adv-x="602" unicode="X" d="M557 29q4 -5 4 -13q0 -16 -16 -16h-8q-9 0 -16 9l-220 333l-220 -333q-7 -9 -16 -9h-9q-16 0 -16 16q0 8 4 13l231 351l-220 333q-5 8 -5 15q0 15 15 15h11q9 0 16 -9l208 -316l209 316q7 9 16 9h9q16 0 16 -16q0 -9 -4 -14l-220 -334z"/>
<glyph glyph-name="Y" horiz-adv-x="551" unicode="Y" d="M502 716l-158 -349q-22 -48 -47 -58v-290q0 -8 -5 -13.5t-12 -5.5h-10q-7 0 -12 5.5t-5 13.5v290q-25 10 -47 58l-158 349q-3 8 -3 13q0 14 17 14h10q10 0 16 -12l157 -350q10 -22 15.5 -28.5t14.5 -6.5t14.5 6.5t15.5 28.5l157 350q6 12 16 12h10q17 0 17 -14 q0 -5 -3 -13z"/>
<glyph glyph-name="Z" horiz-adv-x="595" unicode="Z" d="M535 16q0 -16 -21 -16h-392q-54 0 -54 43q0 19 11 36l379 610q2 3 2 7q0 6 -8 6h-362q-21 0 -21 15v10q0 16 21 16h362q29 0 41 -8q17 -10 17 -32q0 -15 -11 -34l-382 -617q-2 -4 -2 -7q0 -4 7 -4h392q21 0 21 -15v-10z"/>
<glyph glyph-name="bracketleft" horiz-adv-x="298" unicode="[" d="M278 -179q0 -16 -19 -16h-152q-7 0 -12 5.5t-5 13.5v900q0 8 5 13.5t12 5.5h152q19 0 19 -17v-8q0 -16 -19 -16h-125v-856h125q19 0 19 -17v-8z"/>
<glyph glyph-name="backslash" horiz-adv-x="325" unicode="\" d="M305 6q0 -12 -10 -12h-22q-10 0 -16 19l-235 716q-1 2 -1 7q0 12 11 12h21q10 0 16 -19l235 -716q1 -2 1 -7z"/>
<glyph glyph-name="bracketright" horiz-adv-x="298" unicode="]" d="M208 -176q0 -8 -5 -13.5t-12 -5.5h-152q-19 0 -19 16v8q0 17 19 17h125v856h-125q-19 0 -19 16v8q0 17 19 17h152q7 0 12 -5.5t5 -13.5v-900z"/>
<glyph glyph-name="asciicircum" d="M462 569q0 -9 -11 -9h-18q-4 0 -6.5 0.5t-5 3l-4 4t-5 6t-5.5 6.5l-117 139l-117 -139q-2 -2 -5.5 -6.5t-5 -6l-4 -4t-5 -3t-6.5 -0.5h-18q-11 0 -11 9q0 4 5 11l117 150q14 18 27 18h46q13 0 27 -18l117 -150q5 -7 5 -11z" unicode="^"/>
<glyph glyph-name="underscore" horiz-adv-x="465" unicode="_" d="M495 -82q0 -16 -20 -16h-485q-20 0 -20 16v10q0 16 20 16h485q20 0 20 -16v-10z"/>
<glyph glyph-name="grave" horiz-adv-x="330" unicode="`" d="M212 625q0 -7 -9 -7h-22q-8 0 -22 17l-107 128q-4 4 -4 8q0 7 11 7h26q11 0 23 -15l100 -128q4 -4 4 -10z"/>
<glyph glyph-name="a" horiz-adv-x="488" unicode="a" d="M374 84v199h-77q-113 0 -158 -25.5t-45 -89.5v-13q0 -122 109 -122q76 0 171 51zM418 20q0 -8 -6 -14t-14 -6h-5q-8 0 -14 6t-6 14v25q-93 -51 -170 -51q-65 0 -109 37.5t-44 123.5v13q0 79 57 116.5t190 37.5h77v36q0 80 -27.5 112.5t-98.5 32.5q-57 0 -142 -9h-5 q-18 0 -18 15v6q0 15 23 18q76 9 142 9q95 0 132.5 -47.5t37.5 -136.5v-338z"/>
<glyph glyph-name="b" horiz-adv-x="504" unicode="b" d="M405 237v66q0 101 -35.5 150.5t-116.5 49.5q-77 0 -139 -13v-444q78 -13 139 -13q81 0 116.5 51.5t35.5 152.5zM449 237q0 -113 -48 -178t-148 -65q-75 0 -168 19q-15 4 -15 19v692q0 8 5 13.5t12 5.5h10q7 0 12 -5.5t5 -13.5v-197q67 15 139 15q196 0 196 -239v-66z"/>
<glyph glyph-name="c" horiz-adv-x="437" unicode="c" d="M393 21q0 -15 -19 -18q-76 -9 -121 -9q-101 0 -149.5 67.5t-48.5 174.5v67q0 108 48 173.5t150 65.5q45 0 121 -9q19 -3 19 -18v-7q0 -18 -21 -14q-70 9 -119 9q-154 0 -154 -200v-67q0 -203 154 -203q49 0 119 9q21 4 21 -14v-7z"/>
<glyph glyph-name="d" horiz-adv-x="504" unicode="d" d="M390 46v444q-62 13 -139 13q-81 0 -116.5 -49.5t-35.5 -150.5v-66q0 -101 35.5 -152.5t116.5 -51.5q61 0 139 13zM434 32q0 -15 -15 -19q-93 -19 -168 -19q-100 0 -148 65t-48 178v66q0 239 196 239q72 0 139 -15v197q0 8 5 13.5t12 5.5h10q7 0 12 -5.5t5 -13.5v-692z "/>
<glyph glyph-name="e" horiz-adv-x="511" unicode="e" d="M412 298v6q0 98 -36.5 148.5t-118.5 50.5q-80 0 -119 -53.5t-39 -146.5v-5h313zM456 277q0 -8 -5.5 -13.5t-13.5 -5.5h-338v-21q0 -116 48 -160t133 -44q65 0 148 17q21 4 21 -13v-7q0 -15 -19 -19q-82 -17 -150 -17q-225 0 -225 243v66q0 107 53 173t149 66 q100 0 149.5 -63.5t49.5 -174.5v-27z"/>
<glyph glyph-name="f" horiz-adv-x="377" unicode="f" d="M342 722q0 -13 -21 -13h-50q-36 0 -52.5 -17.5t-16.5 -61.5v-93h119q19 0 19 -16v-9q0 -16 -19 -16h-119v-477q0 -8 -5.5 -13.5t-12.5 -5.5h-7q-8 0 -13.5 5.5t-5.5 13.5v477h-99q-19 0 -19 16v9q0 16 19 16h99v93q0 118 113 118q33 0 52 -3t19 -16v-7z"/>
<glyph glyph-name="g" horiz-adv-x="534" unicode="g" d="M435 -43v7q0 41 -25 60t-101 39l-138 36q-73 -48 -73 -133v-9q0 -57 38.5 -87.5t130.5 -30.5q95 0 131.5 29t36.5 89zM430 362v8q0 60 -36.5 94.5t-127.5 34.5q-94 0 -128 -35.5t-34 -93.5v-8q0 -22 6.5 -41.5t22.5 -39.5t50 -32t83 -12q92 0 128 33.5t36 91.5zM489 510 q0 -16 -19 -16h-52q55 -44 55 -124v-8q0 -163 -207 -163q-65 0 -122 23q-34 -15 -34 -43q0 -23 29 -31l180 -47q87 -23 123.5 -50t36.5 -87v-7q0 -155 -212 -155t-212 155v9q0 48 23 87.5t52 56.5l-7 2q-53 16 -53 67q0 45 42 64q-52 43 -52 119v8q0 167 206 167h204 q19 0 19 -16v-11z"/>
<glyph glyph-name="h" horiz-adv-x="505" unicode="h" d="M440 13q0 -19 -17 -19h-10q-16 0 -16 19v337q0 76 -35 114.5t-113 38.5q-73 0 -135 -18v-472q0 -8 -5 -13.5t-12 -5.5h-10q-7 0 -12 5.5t-5 13.5v711q0 8 5 13.5t12 5.5h10q7 0 12 -5.5t5 -13.5v-200q70 18 135 18q191 0 191 -192v-337z"/>
<glyph glyph-name="i" horiz-adv-x="204" unicode="i" d="M124 13q0 -7 -6 -13t-13 -6h-6q-7 0 -13 6t-6 13v505q0 8 6 13.5t13 5.5h6q7 0 13 -5.5t6 -13.5v-505zM124 655q0 -8 -5.5 -13.5t-13.5 -5.5h-6q-8 0 -13.5 5.5t-5.5 13.5v74q0 7 6 13t13 6h6q7 0 13 -6t6 -13v-74z"/>
<glyph glyph-name="j" horiz-adv-x="204" unicode="j" d="M124 -86q0 -62 -25 -85.5t-78 -23.5q-20 0 -42 3q-17 2 -17 14v9q0 12 21 12h38q34 0 46.5 13.5t12.5 57.5v604q0 19 16 19h11q17 0 17 -19v-604zM124 655q0 -8 -5.5 -13.5t-13.5 -5.5h-6q-8 0 -13.5 5.5t-5.5 13.5v74q0 7 6 13t13 6h6q7 0 13 -6t6 -13v-74z"/>
<glyph glyph-name="k" horiz-adv-x="444" unicode="k" d="M398 25q6 -7 6 -15q0 -16 -18 -16t-30 12l-242 259v-252q0 -7 -6 -13t-13 -6h-6q-7 0 -13 6t-6 13v711q0 8 6 13.5t13 5.5h6q7 0 13 -5.5t6 -13.5v-421l246 230q10 9 24 9q20 0 20 -18q0 -9 -7 -15l-245 -224z"/>
<glyph glyph-name="l" horiz-adv-x="204" unicode="l" d="M124 13q0 -8 -5 -13.5t-12 -5.5h-10q-7 0 -12 5.5t-5 13.5v711q0 8 5 13.5t12 5.5h10q7 0 12 -5.5t5 -13.5v-711z"/>
<glyph glyph-name="m" horiz-adv-x="746" unicode="m" d="M676 19q0 -19 -17 -19h-10q-17 0 -17 19v358q0 68 -29.5 97t-87.5 29q-65 0 -135 -34q15 -38 15 -88v-362q0 -19 -15 -19h-15q-14 0 -14 19v362q0 122 -94 122q-55 0 -143 -42v-442q0 -19 -15 -19h-14q-15 0 -15 19v498q0 20 18 20h8q18 0 18 -20v-18q88 43 152 43 q61 0 95 -41q85 41 161 41q68 0 111 -40.5t43 -124.5v-358z"/>
<glyph glyph-name="n" horiz-adv-x="521" unicode="n" d="M451 19q0 -8 -5.5 -13.5t-13.5 -5.5h-7q-7 0 -12.5 5.5t-5.5 13.5v332q0 152 -135 152q-73 0 -158 -41v-443q0 -7 -6 -13t-13 -6h-6q-7 0 -13 6t-6 13v498q0 20 18 20h8q18 0 18 -20v-16q85 41 161 41q78 0 127 -46.5t49 -144.5v-332z"/>
<glyph glyph-name="o" horiz-adv-x="522" unicode="o" d="M423 233v70q0 200 -162 200t-162 -200v-70q0 -200 162 -200t162 200zM467 233q0 -115 -52.5 -177t-153.5 -62t-153.5 62t-52.5 177v70q0 115 52.5 177t153.5 62t153.5 -62t52.5 -177v-70z"/>
<glyph glyph-name="p" horiz-adv-x="504" unicode="p" d="M405 233v66q0 101 -35.5 152.5t-116.5 51.5q-61 0 -139 -13v-444q62 -13 139 -13q81 0 116.5 49.5t35.5 150.5zM449 233q0 -239 -196 -239q-72 0 -139 15v-185q0 -8 -5 -13.5t-12 -5.5h-10q-7 0 -12 5.5t-5 13.5v680q0 15 15 19q93 19 168 19q100 0 148 -65t48 -178v-66z "/>
<glyph glyph-name="q" horiz-adv-x="504" unicode="q" d="M390 46v444q-78 13 -139 13q-81 0 -116.5 -51.5t-35.5 -152.5v-66q0 -101 35.5 -150.5t116.5 -49.5q77 0 139 13zM434 -176q0 -8 -5 -13.5t-12 -5.5h-10q-7 0 -12 5.5t-5 13.5v185q-67 -15 -139 -15q-196 0 -196 239v66q0 113 48 178t148 65q75 0 168 -19q15 -4 15 -19 v-680z"/>
<glyph glyph-name="r" horiz-adv-x="309" unicode="r" d="M280 519q0 -16 -27 -16q-66 0 -139 -46v-438q0 -7 -6 -13t-13 -6h-6q-7 0 -13 6t-6 13v498q0 20 18 20h8q18 0 18 -20v-21q71 46 139 46q27 0 27 -15v-8z"/>
<glyph glyph-name="s" horiz-adv-x="440" unicode="s" d="M390 133q0 -139 -173 -139q-73 0 -145 14l-12 3t-7 4.5t-3 8.5v11q0 18 22 14q96 -16 147 -16q60 0 93.5 21.5t33.5 78.5q0 31 -21.5 52.5t-84.5 56.5l-64 35q-64 35 -92.5 65t-28.5 77q0 65 43 94t110 29q66 0 143 -9q8 -1 12 -2.5t6.5 -5t2.5 -9.5v-8q0 -17 -13 -17 q-1 0 -3.5 0.5t-4.5 0.5q-95 11 -139 11q-55 0 -84 -17.5t-29 -66.5q0 -31 23 -53t74 -51l67 -37q69 -38 98 -68.5t29 -76.5z"/>
<glyph glyph-name="t" horiz-adv-x="380" unicode="t" d="M340 13q0 -14 -17 -16q-23 -3 -52 -3q-57 0 -85 23.5t-28 84.5v394h-99q-19 0 -19 16v10q0 15 19 15h99v103q0 19 17 19h11q16 0 16 -19v-103h119q19 0 19 -15v-10q0 -16 -19 -16h-119v-394q0 -42 16 -55.5t53 -13.5h48q21 0 21 -14v-6z"/>
<glyph glyph-name="u" horiz-adv-x="521" unicode="u" d="M70 518q0 8 5.5 13.5t13.5 5.5h7q7 0 12.5 -5.5t5.5 -13.5v-332q0 -152 135 -152q69 0 158 41v443q0 8 5.5 13.5t13.5 5.5h6q8 0 13.5 -5.5t5.5 -13.5v-498q0 -20 -18 -20h-8q-18 0 -18 20v16q-85 -41 -161 -41q-78 0 -127 46.5t-49 144.5v332z"/>
<glyph glyph-name="v" horiz-adv-x="480" unicode="v" d="M440 512l-131 -455q-10 -37 -26.5 -50t-41.5 -13q-52 0 -70 63l-131 455q-1 3 -1 8q0 17 16 17h10q13 0 18 -18l128 -451q11 -36 30 -36q17 0 28 36l128 451q5 18 18 18h12q14 0 14 -15q0 -7 -1 -10z"/>
<glyph glyph-name="w" horiz-adv-x="752" unicode="w" d="M702 513l-110 -465q-7 -29 -18 -41.5t-34 -12.5q-22 0 -32.5 13t-18.5 44l-106 380q-3 9 -7 9t-7 -9l-106 -380q-8 -31 -18.5 -44t-32.5 -13q-23 0 -34 12.5t-18 41.5l-110 465q-1 3 -1 8q0 16 19 16h6q12 0 16 -14l108 -465q4 -17 6.5 -21t7.5 -4q6 0 13 24l108 386 q10 36 43 36t43 -36l108 -386q7 -24 13 -24q8 0 14 25l108 465q4 14 16 14h6q20 0 20 -14q0 -2 -2 -10z"/>
<glyph glyph-name="x" horiz-adv-x="493" unicode="x" d="M455 14q0 -14 -14 -14h-8q-13 0 -19 8l-166 232l-163 -232q-6 -8 -11 -8h-17q-14 0 -14 12q0 7 5 14l176 249l-170 238q-4 6 -4 11q0 13 18 13h6q14 0 19 -8l158 -220l153 218q7 10 19 10h9q15 0 15 -12q0 -7 -7 -17l-165 -235l177 -248q3 -5 3 -11z"/>
<glyph glyph-name="y" horiz-adv-x="486" unicode="y" d="M446 512l-164 -568q-23 -80 -57.5 -109.5t-104.5 -29.5q-26 0 -62 6q-20 3 -20 14v11q0 17 21 14q45 -6 65 -6q54 0 77.5 21.5t41.5 87.5l13 47h-14q-25 0 -38 11t-23 45l-135 457q-1 3 -1 9q0 15 17 15h9q12 0 16 -14l135 -460q6 -22 23 -22h23l137 483q4 13 18 13h9 q16 0 16 -15q0 -2 -2 -10z"/>
<glyph glyph-name="z" horiz-adv-x="446" unicode="z" d="M406 16q0 -16 -20 -16h-286q-60 0 -60 41q0 22 18 45l293 391q4 5 4 10q0 9 -14 9h-263q-20 0 -20 15v10q0 16 20 16h262q58 0 58 -43q0 -23 -16 -45l-290 -389q-5 -8 -5 -12q0 -7 9 -7h290q20 0 20 -15v-10z"/>
<glyph glyph-name="braceleft" horiz-adv-x="300" unicode="{" d="M280 -178q0 -17 -19 -17h-46q-70 0 -96.5 23.5t-26.5 86.5v204q0 55 -11.5 82t-50.5 55v36q39 28 50.5 55t11.5 82v204q0 62 27 86t96 24h46q19 0 19 -17v-8q0 -16 -19 -16h-46q-50 0 -64.5 -12.5t-14.5 -56.5v-204q0 -56 -13.5 -91t-50.5 -65q36 -29 50 -64t14 -90v-204 q0 -44 14.5 -56.5t64.5 -12.5h46q19 0 19 -16v-8z"/>
<glyph glyph-name="bar" horiz-adv-x="224" unicode="|" d="M134 -176q0 -8 -5 -13.5t-12 -5.5h-10q-7 0 -12 5.5t-5 13.5v900q0 8 5 13.5t12 5.5h10q7 0 12 -5.5t5 -13.5v-900z"/>
<glyph glyph-name="braceright" horiz-adv-x="300" unicode="}" d="M270 256q-39 -28 -50.5 -55t-11.5 -82v-204q0 -63 -26.5 -86.5t-96.5 -23.5h-46q-19 0 -19 17v8q0 16 19 16h46q50 0 64.5 12.5t14.5 56.5v204q0 55 14 90t50 64q-37 30 -50.5 65t-13.5 91v204q0 44 -14.5 56.5t-64.5 12.5h-46q-19 0 -19 16v8q0 17 19 17h46q69 0 96 -24 t27 -86v-204q0 -55 11.5 -82t50.5 -55v-36z"/>
<glyph glyph-name="asciitilde" d="M476 459q0 -104 -90 -104q-43 0 -77 32l-57 55q-37 35 -59 35q-50 0 -50 -68v-30q0 -19 -11 -19h-15q-13 0 -13 19v30q0 52 24 79t65 27q44 0 80 -34l57 -55q33 -31 55 -31q27 0 39.5 14t12.5 50v31q0 18 11 18h15q13 0 13 -18v-31z" unicode="~"/>
<glyph glyph-name="uni00A0" horiz-adv-x="215" unicode=" "/>
<glyph glyph-name="exclamdown" horiz-adv-x="204" unicode="¡" d="M124 -188q0 -8 -6 -13.5t-13 -5.5h-6q-7 0 -13 5.5t-6 13.5v532q0 8 6 13.5t13 5.5h6q7 0 13 -5.5t6 -13.5v-532zM124 449q0 -7 -6 -13t-13 -6h-6q-7 0 -13 6t-6 13v74q0 8 5.5 13.5t13.5 5.5h6q8 0 13.5 -5.5t5.5 -13.5v-74z"/>
<glyph glyph-name="cent" d="M432 21q0 -15 -19 -18q-67 -8 -100 -9v-101q0 -19 -16 -19h-10q-16 0 -16 19v102q-90 7 -133.5 73.5t-43.5 167.5v67q0 101 43.5 166t133.5 72v102q0 19 16 19h10q16 0 16 -19v-101q33 -1 100 -9q19 -3 19 -18v-7q0 -14 -16 -14h-5q-71 9 -119 9q-154 0 -154 -200v-67 q0 -203 154 -203q48 0 119 9h5q16 0 16 -14v-7z" unicode="¢"/>
<glyph glyph-name="sterling" d="M510 16q0 -16 -20 -16h-372q-20 0 -20 20q0 7 3 11q41 69 41 138v200h-53q-18 0 -18 17v9q0 17 20 17h51v74q0 130 45 196t154 66q74 0 148 -9q19 -3 19 -16v-8q0 -15 -15 -15h-6q-70 8 -146 8q-90 0 -121.5 -54.5t-31.5 -167.5v-74h245q18 0 18 -17v-9q0 -17 -20 -17 h-243v-200q0 -72 -32 -128h334q20 0 20 -14v-11z" unicode="£"/>
<glyph glyph-name="currency" d="M437 374q0 61 -43.5 104t-104.5 43q-62 0 -105 -43t-43 -104q0 -62 43.5 -105t104.5 -43t104.5 43t43.5 105zM525 161q0 -7 -5 -12l-7 -7q-5 -5 -11 -5q-8 0 -15 7l-81 82q-52 -41 -117 -41q-66 0 -116 40l-80 -80q-7 -7 -15 -7q-6 0 -11 5l-7 7q-5 5 -5 11q0 8 7 15 l79 79q-42 53 -42 119q0 65 41 117l-78 78q-7 7 -7 15q0 7 5 12l7 7q4 4 10 4q9 0 16 -7l78 -78q52 41 117 41q66 0 119 -42l80 80q7 7 15 7q6 0 11 -5l7 -7q5 -5 5 -11q0 -8 -7 -15l-80 -80q40 -50 40 -116q0 -65 -41 -117l81 -81q7 -7 7 -15z" unicode="¤"/>
<glyph glyph-name="yen" d="M535 254q0 -16 -20 -16h-203v-219q0 -8 -5 -13.5t-12 -5.5h-10q-7 0 -12 5.5t-5 13.5v219h-205q-18 0 -18 16v9q0 16 20 16h203v30l-61 121h-144q-18 0 -18 16v9q0 16 20 16h121l-123 245q-4 7 -4 13q0 14 18 14h12q10 0 16 -12l186 -370l185 370q6 12 16 12h11 q18 0 18 -14q0 -6 -4 -13l-123 -245h123q18 0 18 -16v-9q0 -16 -20 -16h-142l-61 -121v-30h205q18 0 18 -16v-9z" unicode="¥"/>
<glyph glyph-name="brokenbar" horiz-adv-x="224" unicode="¦" d="M134 -192q0 -8 -5 -13.5t-12 -5.5h-10q-7 0 -12 5.5t-5 13.5v348q0 8 5 13.5t12 5.5h10q7 0 12 -5.5t5 -13.5v-348zM134 361q0 -8 -5 -13.5t-12 -5.5h-10q-7 0 -12 5.5t-5 13.5v348q0 8 5 13.5t12 5.5h10q7 0 12 -5.5t5 -13.5v-348z"/>
<glyph glyph-name="section" horiz-adv-x="521" unicode="§" d="M425 181q0 50 -26.5 81.5t-108.5 81.5l-100 61q-39 24 -69 47q-25 -28 -25 -76q0 -43 25 -72t97 -73l98 -60q63 -39 93 -67q16 32 16 77zM469 -29q0 -39 -9.5 -69.5t-33.5 -58.5t-72 -43.5t-117 -15.5q-89 0 -153 8q-18 2 -18 19v6q0 17 19 17h2q104 -8 150 -8 q107 0 147.5 36.5t40.5 108.5q0 50 -26.5 81.5t-108.5 81.5l-100 61q-82 50 -110 87t-28 94q0 69 35 107q-35 39 -35 103q0 84 54 123t176 39q96 0 152 -7q17 -1 17 -21v-3q0 -19 -18 -19h-3q-6 0 -34.5 2.5t-59.5 4t-54 1.5q-98 0 -142 -28.5t-44 -91.5q0 -43 25 -72 t97 -73l98 -60q92 -56 122.5 -99t30.5 -101q0 -69 -29 -111q29 -39 29 -99z"/>
<glyph glyph-name="dieresis" horiz-adv-x="330" unicode="¨" d="M112 661q0 -8 -5.5 -13.5t-13.5 -5.5h-6q-8 0 -13.5 5.5t-5.5 13.5v74q0 7 6 13t13 6h6q7 0 13 -6t6 -13v-74zM262 661q0 -8 -5.5 -13.5t-13.5 -5.5h-6q-8 0 -13.5 5.5t-5.5 13.5v74q0 7 6 13t13 6h6q7 0 13 -6t6 -13v-74z"/>
<glyph glyph-name="copyright" horiz-adv-x="730" unicode="©" d="M465 183q0 -13 -16 -16q-45 -6 -97 -6q-62 0 -102.5 42.5t-40.5 137.5v72q0 95 40.5 137.5t102.5 42.5q52 0 97 -6q16 -3 16 -15v-8q0 -12 -14 -12h-4q-50 5 -95 5q-47 0 -76 -34t-29 -110v-72q0 -76 29 -110t76 -34q45 0 95 5h2q16 0 16 -14v-5zM646 374 q0 117 -82.5 200t-199.5 83t-199.5 -83t-82.5 -200t82.5 -199t199.5 -82t199.5 82t82.5 199zM685 374q0 -133 -94 -226t-227 -93t-226 93t-93 226t93.5 227.5t225.5 94.5q133 0 227 -94.5t94 -227.5z"/>
<glyph glyph-name="ordfeminine" horiz-adv-x="268" unicode="ª" d="M197 478v117h-36q-58 0 -79.5 -12.5t-21.5 -43.5v-7q0 -32 15.5 -46t62.5 -14q23 0 59 6zM230 469q0 -14 -11 -16q-39 -11 -81 -11q-60 0 -85 21.5t-25 68.5v7q0 45 30.5 66t101.5 21h37v14q0 41 -13 57t-48 16q-34 0 -74 -5h-2q-15 0 -15 13v3q0 12 16 14q37 5 75 5 q94 0 94 -103v-171z"/>
<glyph glyph-name="guillemotleft" horiz-adv-x="535" unicode="«" d="M252 92q0 -6 -5 -11l-7 -7q-4 -4 -10 -4q-7 0 -16 7l-178 163q-14 12 -14 29q0 15 14 29l178 163q9 7 16 7q6 0 10 -4l7 -7q5 -5 5 -11q0 -9 -8 -15l-177 -162l177 -162q8 -6 8 -15zM482 92q0 -6 -5 -11l-7 -7q-4 -4 -10 -4q-7 0 -16 7l-178 163q-14 12 -14 29 q0 15 14 29l178 163q9 7 16 7q6 0 10 -4l7 -7q5 -5 5 -11q0 -9 -8 -15l-177 -162l177 -162q8 -6 8 -15z"/>
<glyph glyph-name="logicalnot" d="M493 290q0 -20 -16 -20h-10q-16 0 -16 20v180h-343q-20 0 -20 16v10q0 16 20 16h369q16 0 16 -18v-204z" unicode="¬"/>
<glyph glyph-name="uni00AD" horiz-adv-x="344" unicode="­" d="M292 273q0 -16 -19 -16h-202q-19 0 -19 16v8q0 8 5.5 13t13.5 5h202q8 0 13.5 -5t5.5 -13v-8z"/>
<glyph glyph-name="registered" horiz-adv-x="616" unicode="®" d="M381 560v2q0 35 -21.5 49.5t-70.5 14.5q-35 0 -49 -1v-128q7 0 25.5 -0.5t23.5 -0.5q51 0 71.5 14t20.5 50zM427 330q0 -13 -14 -13h-5q-8 0 -13 7l-91 139q-3 0 -7.5 0.5t-7.5 0.5h-49v-131q0 -6 -4.5 -11t-10.5 -5h-4q-6 0 -10.5 5t-4.5 11v308q0 14 14 16q30 2 69 2 q63 0 94.5 -22t31.5 -75v-2q0 -75 -73 -92l82 -127q3 -4 3 -11zM536 484q0 94 -67 161t-161 67t-160.5 -66.5t-66.5 -161.5q0 -94 66.5 -160.5t160.5 -66.5q95 0 161.5 66.5t66.5 160.5zM571 484q0 -109 -77 -185.5t-186 -76.5t-186 76.5t-77 185.5t77 186t186 77t186 -77 t77 -186z"/>
<glyph glyph-name="macron" horiz-adv-x="330" unicode="¯" d="M318 704q0 -16 -20 -16h-266q-20 0 -20 16v11q0 15 20 15h266q20 0 20 -15v-11z"/>
<glyph glyph-name="degree" horiz-adv-x="331" unicode="°" d="M263 613q0 40 -28.5 69t-68.5 29t-68.5 -29t-28.5 -69t28.5 -68.5t68.5 -28.5t68.5 28.5t28.5 68.5zM301 613q0 -55 -39.5 -95t-95.5 -40t-96 40t-40 95t40 95t96 40t95.5 -40t39.5 -95z"/>
<glyph glyph-name="plusminus" d="M513 16q0 -16 -20 -16h-405q-20 0 -20 16v10q0 16 20 16h405q20 0 20 -16v-10zM513 386q0 -16 -20 -16h-182v-181q0 -20 -16 -20h-10q-16 0 -16 20v181h-181q-20 0 -20 16v10q0 16 20 16h181v182q0 20 16 20h10q16 0 16 -20v-182h182q20 0 20 -16v-10z" unicode="±"/>
<glyph glyph-name="twosuperior" horiz-adv-x="319" unicode="²" d="M67 917q-20 -2 -20 12v3q0 17 19 19q39 6 81 6q133 0 133 -93q0 -33 -16 -61t-60 -57l-55 -37q-44 -30 -57 -54.5t-13 -62.5v-14h178q18 0 18 -16v-6q0 -16 -18 -16h-200q-8 0 -13 6t-5 13v33q0 45 17.5 78.5t69.5 69.5l55 38q34 23 46 40t12 46q0 58 -92 58 q-33 0 -80 -5z"/>
<glyph glyph-name="threesuperior" horiz-adv-x="319" unicode="³" d="M237 658v11q0 70 -68 70h-101q-18 0 -18 17v4q0 17 18 17h101q68 0 68 68v7q0 40 -23.5 55t-76.5 15q-23 0 -77 -6q-19 -2 -19 12v4q0 16 16 18q39 7 80 7q71 0 106 -22.5t35 -82.5v-7q0 -59 -47 -89q47 -26 47 -87v-11q0 -65 -36 -93t-105 -28q-42 0 -80 7q-16 2 -16 18 v4q0 14 19 12q54 -6 77 -6q51 0 75.5 20t24.5 66z"/>
<glyph glyph-name="acute" horiz-adv-x="330" unicode="´" d="M282 771q0 -4 -4 -8l-107 -128q-14 -17 -22 -17h-22q-9 0 -9 7q0 6 4 10l100 128q12 15 23 15h26q11 0 11 -7z"/>
<glyph glyph-name="mu" horiz-adv-x="521" unicode="µ" d="M451 20q0 -20 -18 -20h-8q-18 0 -18 20v16q-85 -41 -161 -41q-86 0 -132 52v-223q0 -8 -5 -13.5t-12 -5.5h-10q-7 0 -12 5.5t-5 13.5v694q0 8 5.5 13.5t13.5 5.5h7q7 0 12.5 -5.5t5.5 -13.5v-332q0 -80 36.5 -116t96.5 -36h2q69 0 158 41v443q0 8 5.5 13.5t13.5 5.5h6 q8 0 13.5 -5.5t5.5 -13.5v-498z"/>
<glyph glyph-name="paragraph" horiz-adv-x="599" unicode="¶" d="M529 -176q0 -8 -5 -13.5t-12 -5.5h-10q-7 0 -12 5.5t-5 13.5v878h-56v-878q0 -8 -5 -13.5t-12 -5.5h-10q-7 0 -12 5.5t-5 13.5v451h-109q-106 0 -168.5 58.5t-62.5 164.5v22q0 106 62.5 164.5t168.5 58.5h237q16 0 16 -19v-900z"/>
<glyph glyph-name="periodcentered" horiz-adv-x="168" unicode="·" d="M106 360q0 -8 -5.5 -13.5t-13.5 -5.5h-6q-8 0 -13.5 5.5t-5.5 13.5v74q0 8 6 13.5t13 5.5h6q7 0 13 -5.5t6 -13.5v-74z"/>
<glyph glyph-name="cedilla" horiz-adv-x="330" unicode="¸" d="M195 -62q0 -4 -4 -8l-91 -108q-14 -17 -22 -17h-22q-9 0 -9 7q0 6 4 10l84 108q12 15 23 15h26q11 0 11 -7z"/>
<glyph glyph-name="onesuperior" horiz-adv-x="210" unicode="¹" d="M92 558v357l-55 -8h-5q-15 0 -15 19q0 15 18 19l76 11q1 0 3 0.5t3 0.5q15 0 15 -20v-379q0 -18 -16 -18h-8q-16 0 -16 18z"/>
<glyph glyph-name="ordmasculine" horiz-adv-x="287" unicode="º" d="M224 574v37q0 102 -80 102q-81 0 -81 -102v-37q0 -102 81 -102q80 0 80 102zM257 574q0 -63 -28.5 -97.5t-84.5 -34.5t-85 34.5t-29 97.5v37q0 63 29 97.5t85 34.5t84.5 -34.5t28.5 -97.5v-37z"/>
<glyph glyph-name="guillemotright" horiz-adv-x="535" unicode="»" d="M283 269q0 -17 -14 -29l-178 -163q-9 -7 -16 -7q-6 0 -10 4l-7 7q-5 5 -5 11q0 9 8 15l177 162l-177 162q-8 6 -8 15q0 6 5 11l7 7q4 4 10 4q7 0 16 -7l178 -163q14 -14 14 -29zM513 269q0 -17 -14 -29l-178 -163q-9 -7 -16 -7q-6 0 -10 4l-7 7q-5 5 -5 11q0 9 8 15 l177 162l-177 162q-8 6 -8 15q0 6 5 11l7 7q4 4 10 4q7 0 16 -7l178 -163q14 -14 14 -29z"/>
<glyph glyph-name="onequarter" horiz-adv-x="632" unicode="¼" d="M522 0h-8q-16 0 -16 18v99h-141q-19 0 -30.5 10t-11.5 26q0 14 11 30l147 215q12 19 36 19q29 0 29 -33v-230h46q18 0 18 -16v-4q0 -17 -18 -17h-46v-99q0 -18 -16 -18zM363 154h135v207q0 8 -5 1l-134 -201q-4 -7 4 -7zM105 350v357l-55 -8h-5q-15 0 -15 19q0 15 18 19 l76 11q1 0 3 0.5t3 0.5q15 0 15 -20v-379q0 -18 -16 -18h-8q-16 0 -16 18zM518 738q0 -5 -6 -14l-412 -705q-11 -19 -21 -19h-27q-8 0 -8 6t5 13l412 705q11 19 21 19h28q8 0 8 -5z"/>
<glyph glyph-name="onehalf" horiz-adv-x="663" unicode="½" d="M420 377q-20 -2 -20 12v3q0 17 19 19q39 6 81 6q133 0 133 -93q0 -33 -16 -61t-60 -57l-55 -37q-44 -30 -57 -54.5t-13 -62.5v-14h178q18 0 18 -16v-6q0 -16 -18 -16h-200q-8 0 -13 6t-5 13v33q0 45 17.5 78.5t69.5 69.5l55 38q34 23 46 40t12 46q0 58 -92 58 q-33 0 -80 -5zM105 350v357l-55 -8h-5q-15 0 -15 19q0 15 18 19l76 11q1 0 3 0.5t3 0.5q15 0 15 -20v-379q0 -18 -16 -18h-8q-16 0 -16 18zM518 738q0 -5 -6 -14l-412 -705q-11 -19 -21 -19h-27q-8 0 -8 6t5 13l412 705q11 19 21 19h28q8 0 8 -5z"/>
<glyph glyph-name="threequarters" horiz-adv-x="713" unicode="¾" d="M226 450v11q0 70 -68 70h-101q-18 0 -18 17v4q0 17 18 17h101q68 0 68 68v7q0 40 -23.5 55t-76.5 15q-23 0 -77 -6q-19 -2 -19 12v4q0 16 16 18q39 7 80 7q71 0 106 -22.5t35 -82.5v-7q0 -59 -47 -89q47 -26 47 -87v-11q0 -65 -36 -93t-105 -28q-42 0 -80 7q-16 2 -16 18 v4q0 14 19 12q54 -6 77 -6q51 0 75.5 20t24.5 66zM603 0h-8q-16 0 -16 18v99h-141q-19 0 -30.5 10t-11.5 26q0 14 11 30l147 215q12 19 36 19q29 0 29 -33v-230h46q18 0 18 -16v-4q0 -17 -18 -17h-46v-99q0 -18 -16 -18zM444 154h135v207q0 8 -5 1l-134 -201q-4 -7 4 -7z M599 738q0 -5 -6 -14l-412 -705q-11 -19 -21 -19h-27q-8 0 -8 6t5 13l412 705q11 19 21 19h28q8 0 8 -5z"/>
<glyph glyph-name="questiondown" horiz-adv-x="424" unicode="¿" d="M389 -186q0 -17 -17 -19q-57 -7 -119 -7q-83 0 -138 34.5t-55 110.5v8q0 46 22.5 85t87.5 104l30 30q38 38 49 60.5t11 63.5v60q0 8 5.5 13.5t13.5 5.5h6q8 0 13.5 -5.5t5.5 -13.5v-60q0 -49 -15 -80.5t-59 -75.5l-28 -28q-58 -58 -76 -89.5t-18 -69.5v-8q0 -56 35.5 -81 t109.5 -25q39 0 121 7h2q13 0 13 -12v-8zM305 449q0 -7 -5.5 -13t-13.5 -6h-6q-8 0 -13.5 6t-5.5 13v74q0 8 5.5 13.5t13.5 5.5h6q8 0 13.5 -5.5t5.5 -13.5v-74z"/>
<glyph glyph-name="Agrave" horiz-adv-x="619" unicode="À" d="M367 801q0 -7 -9 -7h-22q-8 0 -22 17l-107 128q-4 4 -4 8q0 7 11 7h26q11 0 23 -15l100 -128q4 -4 4 -10zM442 325l-109 363q-6 20 -23 20q-18 0 -23 -19l-110 -364h265zM579 22q1 -3 1 -10q0 -15 -15 -15h-12q-12 0 -16 13l-84 271h-288l-82 -271q-4 -13 -16 -13h-13 q-15 0 -15 16q0 6 1 9l205 677q15 49 65 49t64 -48z"/>
<glyph glyph-name="Aacute" horiz-adv-x="619" unicode="Á" d="M415 946q0 -4 -4 -8l-107 -128q-14 -17 -22 -17h-22q-9 0 -9 7q0 6 4 10l100 128q12 15 23 15h26q11 0 11 -7zM442 325l-109 363q-6 20 -23 20q-18 0 -23 -19l-110 -364h265zM579 22q1 -3 1 -10q0 -15 -15 -15h-12q-12 0 -16 13l-84 271h-288l-82 -271q-4 -13 -16 -13 h-13q-15 0 -15 16q0 6 1 9l205 677q15 49 65 49t64 -48z"/>
<glyph glyph-name="Acircumflex" horiz-adv-x="619" unicode="Â" d="M456 801q0 -7 -9 -7h-22q-8 0 -22 17l-94 113l-94 -113q-14 -17 -22 -17h-22q-9 0 -9 7q0 6 4 10l100 128q12 15 23 15h40q11 0 23 -15l100 -128q4 -4 4 -10zM442 325l-109 363q-6 20 -23 20q-18 0 -23 -19l-110 -364h265zM579 22q1 -3 1 -10q0 -15 -15 -15h-12 q-12 0 -16 13l-84 271h-288l-82 -271q-4 -13 -16 -13h-13q-15 0 -15 16q0 6 1 9l205 677q15 49 65 49t64 -48z"/>
<glyph glyph-name="Atilde" horiz-adv-x="619" unicode="Ã" d="M469 879q0 -45 -20.5 -68t-57.5 -23q-40 0 -67 26l-48 47q-28 28 -48 28q-41 0 -41 -53v-26q0 -16 -10 -16h-17q-11 0 -11 16v26q0 45 21 68t58 23q39 0 66 -26l48 -47q28 -28 49 -28q40 0 40 53v26q0 16 10 16h17q11 0 11 -16v-26zM442 325l-109 363q-6 20 -23 20 q-18 0 -23 -19l-110 -364h265zM579 22q1 -3 1 -10q0 -15 -15 -15h-12q-12 0 -16 13l-84 271h-288l-82 -271q-4 -13 -16 -13h-13q-15 0 -15 16q0 6 1 9l205 677q15 49 65 49t64 -48z"/>
<glyph glyph-name="Adieresis" horiz-adv-x="619" unicode="Ä" d="M256 833q0 -8 -5.5 -13.5t-13.5 -5.5h-6q-8 0 -13.5 5.5t-5.5 13.5v74q0 7 6 13t13 6h6q7 0 13 -6t6 -13v-74zM406 833q0 -8 -5.5 -13.5t-13.5 -5.5h-6q-8 0 -13.5 5.5t-5.5 13.5v74q0 7 6 13t13 6h6q7 0 13 -6t6 -13v-74zM442 325l-109 363q-6 20 -23 20q-18 0 -23 -19 l-110 -364h265zM579 22q1 -3 1 -10q0 -15 -15 -15h-12q-12 0 -16 13l-84 271h-288l-82 -271q-4 -13 -16 -13h-13q-15 0 -15 16q0 6 1 9l205 677q15 49 65 49t64 -48z"/>
<glyph glyph-name="Aring" horiz-adv-x="619" unicode="Å" d="M367 887q0 24 -17 41t-41 17t-40.5 -17t-16.5 -41t16.5 -41t40.5 -17t41 17t17 41zM402 887q0 -38 -27.5 -65.5t-65.5 -27.5t-65.5 27.5t-27.5 65.5t27.5 65.5t65.5 27.5t65.5 -27.5t27.5 -65.5zM442 325l-109 363q-6 20 -23 20q-18 0 -23 -19l-110 -364h265zM579 22 q1 -3 1 -10q0 -15 -15 -15h-12q-12 0 -16 13l-84 271h-288l-82 -271q-4 -13 -16 -13h-13q-15 0 -15 16q0 6 1 9l205 677q15 49 65 49t64 -48z"/>
<glyph glyph-name="AE" horiz-adv-x="879" unicode="Æ" d="M424 325v377h-123q-18 0 -23 -19l-110 -358h256zM822 17q0 -17 -19 -17h-296q-43 0 -63 19.5t-20 61.5v200h-268l-82 -271q-4 -13 -16 -13h-13q-15 0 -15 16q0 6 1 9l205 672q15 49 65 49h502q19 0 19 -17v-8q0 -16 -19 -16h-335v-291h335q19 0 19 -16v-10q0 -17 -19 -17 h-335v-287q0 -22 7.5 -31t31.5 -9h296q19 0 19 -16v-8z"/>
<glyph glyph-name="Ccedilla" horiz-adv-x="537" unicode="Ç" d="M342 -62q0 -4 -4 -8l-91 -108q-14 -17 -22 -17h-22q-9 0 -9 7q0 6 4 10l84 108q12 15 23 15h26q11 0 11 -7zM497 21q0 -15 -19 -17q-87 -10 -173 -10q-50 0 -91.5 15.5t-77.5 49.5t-56 97t-20 149v132q0 86 20 149t56 97t77.5 49.5t91.5 15.5q86 0 173 -10q19 -2 19 -17 v-12q0 -14 -19 -12q-81 9 -173 9q-91 0 -146 -64.5t-55 -204.5v-132q0 -140 55 -204.5t146 -64.5q92 0 173 9q19 2 19 -12v-12z"/>
<glyph glyph-name="Egrave" horiz-adv-x="533" unicode="È" d="M335 801q0 -7 -9 -7h-22q-8 0 -22 17l-107 128q-4 4 -4 8q0 7 11 7h26q11 0 23 -15l100 -128q4 -4 4 -10zM478 17q0 -17 -19 -17h-258q-60 0 -90.5 25.5t-30.5 86.5v519q0 61 30.5 86.5t90.5 25.5h258q19 0 19 -17v-8q0 -16 -19 -16h-258q-40 0 -58.5 -14t-18.5 -57v-220 h335q19 0 19 -16v-10q0 -17 -19 -17h-335v-256q0 -43 18.5 -57t58.5 -14h258q19 0 19 -16v-8z"/>
<glyph glyph-name="Eacute" horiz-adv-x="533" unicode="É" d="M405 947q0 -4 -4 -8l-107 -128q-14 -17 -22 -17h-22q-9 0 -9 7q0 6 4 10l100 128q12 15 23 15h26q11 0 11 -7zM478 17q0 -17 -19 -17h-258q-60 0 -90.5 25.5t-30.5 86.5v519q0 61 30.5 86.5t90.5 25.5h258q19 0 19 -17v-8q0 -16 -19 -16h-258q-40 0 -58.5 -14t-18.5 -57 v-220h335q19 0 19 -16v-10q0 -17 -19 -17h-335v-256q0 -43 18.5 -57t58.5 -14h258q19 0 19 -16v-8z"/>
<glyph glyph-name="Ecircumflex" horiz-adv-x="533" unicode="Ê" d="M425 801q0 -7 -9 -7h-22q-8 0 -22 17l-94 113l-94 -113q-14 -17 -22 -17h-22q-9 0 -9 7q0 6 4 10l100 128q12 15 23 15h40q11 0 23 -15l100 -128q4 -4 4 -10zM478 17q0 -17 -19 -17h-258q-60 0 -90.5 25.5t-30.5 86.5v519q0 61 30.5 86.5t90.5 25.5h258q19 0 19 -17v-8 q0 -16 -19 -16h-258q-40 0 -58.5 -14t-18.5 -57v-220h335q19 0 19 -16v-10q0 -17 -19 -17h-335v-256q0 -43 18.5 -57t58.5 -14h258q19 0 19 -16v-8z"/>
<glyph glyph-name="Edieresis" horiz-adv-x="533" unicode="Ë" d="M231 833q0 -8 -5.5 -13.5t-13.5 -5.5h-6q-8 0 -13.5 5.5t-5.5 13.5v74q0 7 5.5 13t13.5 6h6q8 0 13.5 -6t5.5 -13v-74zM381 833q0 -8 -5.5 -13.5t-13.5 -5.5h-6q-8 0 -13.5 5.5t-5.5 13.5v74q0 7 5.5 13t13.5 6h6q8 0 13.5 -6t5.5 -13v-74zM478 17q0 -17 -19 -17h-258 q-60 0 -90.5 25.5t-30.5 86.5v519q0 61 30.5 86.5t90.5 25.5h258q19 0 19 -17v-8q0 -16 -19 -16h-258q-40 0 -58.5 -14t-18.5 -57v-220h335q19 0 19 -16v-10q0 -17 -19 -17h-335v-256q0 -43 18.5 -57t58.5 -14h258q19 0 19 -16v-8z"/>
<glyph glyph-name="Igrave" horiz-adv-x="224" unicode="Ì" d="M176 801q0 -7 -9 -7h-22q-8 0 -22 17l-107 128q-4 4 -4 8q0 7 11 7h26q11 0 23 -15l100 -128q4 -4 4 -10zM134 19q0 -8 -5 -13.5t-12 -5.5h-10q-7 0 -12 5.5t-5 13.5v705q0 8 5 13.5t12 5.5h10q7 0 12 -5.5t5 -13.5v-705z"/>
<glyph glyph-name="Iacute" horiz-adv-x="224" unicode="Í" d="M214 947q0 -4 -4 -8l-107 -128q-14 -17 -22 -17h-22q-9 0 -9 7q0 6 4 10l100 128q12 15 23 15h26q11 0 11 -7zM134 19q0 -8 -5 -13.5t-12 -5.5h-10q-7 0 -12 5.5t-5 13.5v705q0 8 5 13.5t12 5.5h10q7 0 12 -5.5t5 -13.5v-705z"/>
<glyph glyph-name="Icircumflex" horiz-adv-x="224" unicode="Î" d="M259 801q0 -7 -9 -7h-22q-8 0 -22 17l-94 113l-94 -113q-14 -17 -22 -17h-22q-9 0 -9 7q0 6 4 10l100 128q12 15 23 15h40q11 0 23 -15l100 -128q4 -4 4 -10zM134 19q0 -8 -5 -13.5t-12 -5.5h-10q-7 0 -12 5.5t-5 13.5v705q0 8 5 13.5t12 5.5h10q7 0 12 -5.5t5 -13.5 v-705z"/>
<glyph glyph-name="Idieresis" horiz-adv-x="224" unicode="Ï" d="M59 833q0 -8 -5.5 -13.5t-13.5 -5.5h-6q-8 0 -13.5 5.5t-5.5 13.5v74q0 7 5.5 13t13.5 6h6q8 0 13.5 -6t5.5 -13v-74zM209 833q0 -8 -5.5 -13.5t-13.5 -5.5h-6q-8 0 -13.5 5.5t-5.5 13.5v74q0 7 5.5 13t13.5 6h6q8 0 13.5 -6t5.5 -13v-74zM134 19q0 -8 -5 -13.5t-12 -5.5 h-10q-7 0 -12 5.5t-5 13.5v705q0 8 5 13.5t12 5.5h10q7 0 12 -5.5t5 -13.5v-705z"/>
<glyph glyph-name="Eth" horiz-adv-x="613" unicode="Ð" d="M509 309v124q0 276 -248 276q-49 0 -137 -6v-292h85q19 0 19 -16v-10q0 -17 -19 -17h-85v-331q59 -4 137 -4q248 0 248 276zM553 309q0 -164 -78 -239.5t-214 -75.5q-118 0 -164 8q-17 4 -17 19v347h-71q-19 0 -19 17v10q0 16 19 16h71v310q0 15 17 19q46 8 164 8 q292 0 292 -315v-124z"/>
<glyph glyph-name="Ntilde" horiz-adv-x="651" unicode="Ñ" d="M485 879q0 -45 -20.5 -68t-57.5 -23q-40 0 -67 26l-48 47q-28 28 -48 28q-41 0 -41 -53v-26q0 -16 -10 -16h-17q-11 0 -11 16v26q0 45 21 68t58 23q39 0 66 -26l48 -47q28 -28 49 -28q40 0 40 53v26q0 16 10 16h17q11 0 11 -16v-26zM571 45q0 -23 -13 -37t-32 -14 q-25 0 -34 7q-11 9 -18 23l-337 675q-3 7 -8 7t-5 -7v-680q0 -8 -5 -13.5t-12 -5.5h-10q-7 0 -12 5.5t-5 13.5v680q0 22 13.5 35.5t35.5 13.5q33 0 48 -31l336 -674q3 -7 8 -7t5 9v679q0 19 16 19h12q17 0 17 -19v-679z"/>
<glyph glyph-name="Ograve" horiz-adv-x="632" unicode="Ò" d="M370 801q0 -7 -9 -7h-22q-8 0 -22 17l-107 128q-4 4 -4 8q0 7 11 7h26q11 0 23 -15l100 -128q4 -4 4 -10zM528 309v124q0 273 -212 273t-212 -273v-124q0 -273 212 -273t212 273zM572 309q0 -160 -69 -237.5t-187 -77.5t-187 77.5t-69 237.5v124q0 160 69 237.5t187 77.5 t187 -77.5t69 -237.5v-124z"/>
<glyph glyph-name="Oacute" horiz-adv-x="632" unicode="Ó" d="M417 947q0 -4 -4 -8l-107 -128q-14 -17 -22 -17h-22q-9 0 -9 7q0 6 4 10l100 128q12 15 23 15h26q11 0 11 -7zM528 309v124q0 273 -212 273t-212 -273v-124q0 -273 212 -273t212 273zM572 309q0 -160 -69 -237.5t-187 -77.5t-187 77.5t-69 237.5v124q0 160 69 237.5 t187 77.5t187 -77.5t69 -237.5v-124z"/>
<glyph glyph-name="Ocircumflex" horiz-adv-x="632" unicode="Ô" d="M463 801q0 -7 -9 -7h-22q-8 0 -22 17l-94 113l-94 -113q-14 -17 -22 -17h-22q-9 0 -9 7q0 6 4 10l100 128q12 15 23 15h40q11 0 23 -15l100 -128q4 -4 4 -10zM528 309v124q0 273 -212 273t-212 -273v-124q0 -273 212 -273t212 273zM572 309q0 -160 -69 -237.5t-187 -77.5 t-187 77.5t-69 237.5v124q0 160 69 237.5t187 77.5t187 -77.5t69 -237.5v-124z"/>
<glyph glyph-name="Otilde" horiz-adv-x="632" unicode="Õ" d="M476 879q0 -45 -20.5 -68t-57.5 -23q-40 0 -67 26l-48 47q-28 28 -48 28q-41 0 -41 -53v-26q0 -16 -10 -16h-17q-11 0 -11 16v26q0 45 21 68t58 23q39 0 66 -26l48 -47q28 -28 49 -28q40 0 40 53v26q0 16 10 16h17q11 0 11 -16v-26zM528 309v124q0 273 -212 273 t-212 -273v-124q0 -273 212 -273t212 273zM572 309q0 -160 -69 -237.5t-187 -77.5t-187 77.5t-69 237.5v124q0 160 69 237.5t187 77.5t187 -77.5t69 -237.5v-124z"/>
<glyph glyph-name="Odieresis" horiz-adv-x="632" unicode="Ö" d="M263 833q0 -8 -5.5 -13.5t-13.5 -5.5h-6q-8 0 -13.5 5.5t-5.5 13.5v74q0 7 5.5 13t13.5 6h6q8 0 13.5 -6t5.5 -13v-74zM413 833q0 -8 -5.5 -13.5t-13.5 -5.5h-6q-8 0 -13.5 5.5t-5.5 13.5v74q0 7 5.5 13t13.5 6h6q8 0 13.5 -6t5.5 -13v-74zM528 309v124q0 273 -212 273 t-212 -273v-124q0 -273 212 -273t212 273zM572 309q0 -160 -69 -237.5t-187 -77.5t-187 77.5t-69 237.5v124q0 160 69 237.5t187 77.5t187 -77.5t69 -237.5v-124z"/>
<glyph glyph-name="multiply" d="M470 548q0 -7 -8 -15l-143 -142l143 -143q8 -8 8 -15q0 -6 -5 -11l-7 -7q-5 -5 -11 -5q-7 0 -15 8l-142 143l-142 -142q-8 -8 -15 -8q-6 0 -11 5l-7 7q-5 5 -5 11q0 7 8 15l142 142l-142 142q-8 8 -8 15q0 5 5 10l7 7q5 5 11 5q7 0 15 -8l142 -142l142 143q8 8 15 8 q6 0 11 -5l7 -7q5 -5 5 -11z" unicode="×"/>
<glyph glyph-name="Oslash" horiz-adv-x="632" unicode="Ø" d="M528 309v124q0 99 -28 161l-347 -483q54 -75 163 -75q212 0 212 273zM481 629q-53 77 -165 77q-212 0 -212 -273v-124q0 -101 29 -164zM596 732q0 -4 -3 -8l-65 -90q44 -77 44 -201v-124q0 -160 -69 -237.5t-187 -77.5q-122 0 -189 80l-44 -61q-14 -19 -26 -19h-10 q-11 0 -11 11q0 3 3 8l66 92q-45 76 -45 204v124q0 160 69 237.5t187 77.5q125 0 191 -82l42 58q14 19 26 19h10q11 0 11 -11z"/>
<glyph glyph-name="Ugrave" horiz-adv-x="633" unicode="Ù" d="M368 801q0 -7 -9 -7h-22q-8 0 -22 17l-107 128q-4 4 -4 8q0 7 11 7h26q11 0 23 -15l100 -128q4 -4 4 -10zM553 264q0 -130 -58.5 -200t-177.5 -70q-120 0 -178.5 70t-58.5 200v460q0 8 5 13.5t12 5.5h10q7 0 12 -5.5t5 -13.5v-460q0 -113 45.5 -171t147.5 -58t147 58 t45 171v460q0 8 5 13.5t12 5.5h10q7 0 12 -5.5t5 -13.5v-460z"/>
<glyph glyph-name="Uacute" horiz-adv-x="633" unicode="Ú" d="M428 947q0 -4 -4 -8l-107 -128q-14 -17 -22 -17h-22q-9 0 -9 7q0 6 4 10l100 128q12 15 23 15h26q11 0 11 -7zM553 264q0 -130 -58.5 -200t-177.5 -70q-120 0 -178.5 70t-58.5 200v460q0 8 5 13.5t12 5.5h10q7 0 12 -5.5t5 -13.5v-460q0 -113 45.5 -171t147.5 -58t147 58 t45 171v460q0 8 5 13.5t12 5.5h10q7 0 12 -5.5t5 -13.5v-460z"/>
<glyph glyph-name="Ucircumflex" horiz-adv-x="633" unicode="Û" d="M463 801q0 -7 -9 -7h-22q-8 0 -22 17l-94 113l-94 -113q-14 -17 -22 -17h-22q-9 0 -9 7q0 6 4 10l100 128q12 15 23 15h40q11 0 23 -15l100 -128q4 -4 4 -10zM553 264q0 -130 -58.5 -200t-177.5 -70q-120 0 -178.5 70t-58.5 200v460q0 8 5 13.5t12 5.5h10q7 0 12 -5.5 t5 -13.5v-460q0 -113 45.5 -171t147.5 -58t147 58t45 171v460q0 8 5 13.5t12 5.5h10q7 0 12 -5.5t5 -13.5v-460z"/>
<glyph glyph-name="Udieresis" horiz-adv-x="633" unicode="Ü" d="M263 833q0 -8 -5.5 -13.5t-13.5 -5.5h-6q-8 0 -13.5 5.5t-5.5 13.5v74q0 7 5.5 13t13.5 6h6q8 0 13.5 -6t5.5 -13v-74zM413 833q0 -8 -5.5 -13.5t-13.5 -5.5h-6q-8 0 -13.5 5.5t-5.5 13.5v74q0 7 5.5 13t13.5 6h6q8 0 13.5 -6t5.5 -13v-74zM553 264q0 -130 -58.5 -200 t-177.5 -70q-120 0 -178.5 70t-58.5 200v460q0 8 5 13.5t12 5.5h10q7 0 12 -5.5t5 -13.5v-460q0 -113 45.5 -171t147.5 -58t147 58t45 171v460q0 8 5 13.5t12 5.5h10q7 0 12 -5.5t5 -13.5v-460z"/>
<glyph glyph-name="Yacute" horiz-adv-x="551" unicode="Ý" d="M391 947q0 -4 -4 -8l-107 -128q-14 -17 -22 -17h-22q-9 0 -9 7q0 6 4 10l100 128q12 15 23 15h26q11 0 11 -7zM502 716l-158 -349q-22 -48 -47 -58v-290q0 -8 -5 -13.5t-12 -5.5h-10q-7 0 -12 5.5t-5 13.5v290q-25 10 -47 58l-158 349q-3 8 -3 13q0 14 17 14h10 q10 0 16 -12l157 -350q10 -22 15.5 -28.5t14.5 -6.5t14.5 6.5t15.5 28.5l157 350q6 12 16 12h10q17 0 17 -14q0 -5 -3 -13z"/>
<glyph glyph-name="Thorn" horiz-adv-x="540" unicode="Þ" d="M461 432v17q0 90 -56 127t-172 37q-65 0 -109 -3v-349q62 -4 109 -4q118 0 173 40.5t55 134.5zM505 432q0 -114 -69.5 -164t-202.5 -50q-53 0 -109 4v-203q0 -8 -5 -13.5t-12 -5.5h-10q-7 0 -12 5.5t-5 13.5v705q0 8 5 13.5t12 5.5h10q7 0 12 -5.5t5 -13.5v-75 q51 3 109 3q272 0 272 -203v-17z"/>
<glyph glyph-name="germandbls" horiz-adv-x="543" unicode="ß" d="M488 209q0 -111 -65 -163t-168 -52q-7 0 -19 1.5t-21 1.5q-20 0 -20 18v8q0 12 17 12h3q11 0 22 -1t18 -1q189 0 189 176v8q0 67 -49 110t-134 43h-41q-20 0 -20 16v9q0 16 20 16h41q82 0 123.5 42t41.5 104v7q0 145 -151 145q-70 0 -113 -45t-43 -150v-494 q0 -20 -17 -20h-12q-15 0 -15 20v493q0 116 54.5 175.5t145.5 59.5q88 0 141.5 -48t53.5 -136v-7q0 -58 -34.5 -102.5t-83.5 -63.5q60 -18 98 -64.5t38 -109.5v-8z"/>
<glyph glyph-name="agrave" horiz-adv-x="488" unicode="à" d="M292 625q0 -7 -9 -7h-22q-8 0 -22 17l-107 128q-4 4 -4 8q0 7 11 7h26q11 0 23 -15l100 -128q4 -4 4 -10zM374 84v199h-77q-113 0 -158 -25.5t-45 -89.5v-13q0 -122 109 -122q76 0 171 51zM418 20q0 -8 -6 -14t-14 -6h-5q-8 0 -14 6t-6 14v25q-93 -51 -170 -51 q-65 0 -109 37.5t-44 123.5v13q0 79 57 116.5t190 37.5h77v36q0 80 -27.5 112.5t-98.5 32.5q-57 0 -142 -9h-5q-18 0 -18 15v6q0 15 23 18q76 9 142 9q95 0 132.5 -47.5t37.5 -136.5v-338z"/>
<glyph glyph-name="aacute" horiz-adv-x="488" unicode="á" d="M362 771q0 -4 -4 -8l-107 -128q-14 -17 -22 -17h-22q-9 0 -9 7q0 6 4 10l100 128q12 15 23 15h26q11 0 11 -7zM374 84v199h-77q-113 0 -158 -25.5t-45 -89.5v-13q0 -122 109 -122q76 0 171 51zM418 20q0 -8 -6 -14t-14 -6h-5q-8 0 -14 6t-6 14v25q-93 -51 -170 -51 q-65 0 -109 37.5t-44 123.5v13q0 79 57 116.5t190 37.5h77v36q0 80 -27.5 112.5t-98.5 32.5q-57 0 -142 -9h-5q-18 0 -18 15v6q0 15 23 18q76 9 142 9q95 0 132.5 -47.5t37.5 -136.5v-338z"/>
<glyph glyph-name="acircumflex" horiz-adv-x="488" unicode="â" d="M391 625q0 -7 -9 -7h-22q-8 0 -22 17l-94 113l-94 -113q-14 -17 -22 -17h-22q-9 0 -9 7q0 6 4 10l100 128q12 15 23 15h40q11 0 23 -15l100 -128q4 -4 4 -10zM374 84v199h-77q-113 0 -158 -25.5t-45 -89.5v-13q0 -122 109 -122q76 0 171 51zM418 20q0 -8 -6 -14t-14 -6 h-5q-8 0 -14 6t-6 14v25q-93 -51 -170 -51q-65 0 -109 37.5t-44 123.5v13q0 79 57 116.5t190 37.5h77v36q0 80 -27.5 112.5t-98.5 32.5q-57 0 -142 -9h-5q-18 0 -18 15v6q0 15 23 18q76 9 142 9q95 0 132.5 -47.5t37.5 -136.5v-338z"/>
<glyph glyph-name="atilde" horiz-adv-x="488" unicode="ã" d="M404 719q0 -45 -20.5 -68t-57.5 -23q-40 0 -67 26l-48 47q-28 28 -48 28q-41 0 -41 -53v-26q0 -16 -10 -16h-17q-11 0 -11 16v26q0 45 21 68t58 23q39 0 66 -26l48 -47q28 -28 49 -28q40 0 40 53v26q0 16 10 16h17q11 0 11 -16v-26zM374 84v199h-77q-113 0 -158 -25.5 t-45 -89.5v-13q0 -122 109 -122q76 0 171 51zM418 20q0 -8 -6 -14t-14 -6h-5q-8 0 -14 6t-6 14v25q-93 -51 -170 -51q-65 0 -109 37.5t-44 123.5v13q0 79 57 116.5t190 37.5h77v36q0 80 -27.5 112.5t-98.5 32.5q-57 0 -142 -9h-5q-18 0 -18 15v6q0 15 23 18q76 9 142 9 q95 0 132.5 -47.5t37.5 -136.5v-338z"/>
<glyph glyph-name="adieresis" horiz-adv-x="488" unicode="ä" d="M191 661q0 -8 -5.5 -13.5t-13.5 -5.5h-6q-8 0 -13.5 5.5t-5.5 13.5v74q0 7 5.5 13t13.5 6h6q8 0 13.5 -6t5.5 -13v-74zM341 661q0 -8 -5.5 -13.5t-13.5 -5.5h-6q-8 0 -13.5 5.5t-5.5 13.5v74q0 7 5.5 13t13.5 6h6q8 0 13.5 -6t5.5 -13v-74zM374 84v199h-77 q-113 0 -158 -25.5t-45 -89.5v-13q0 -122 109 -122q76 0 171 51zM418 20q0 -8 -6 -14t-14 -6h-5q-8 0 -14 6t-6 14v25q-93 -51 -170 -51q-65 0 -109 37.5t-44 123.5v13q0 79 57 116.5t190 37.5h77v36q0 80 -27.5 112.5t-98.5 32.5q-57 0 -142 -9h-5q-18 0 -18 15v6 q0 15 23 18q76 9 142 9q95 0 132.5 -47.5t37.5 -136.5v-338z"/>
<glyph glyph-name="aring" horiz-adv-x="488" unicode="å" d="M302 698q0 24 -17 41t-41 17t-40.5 -17t-16.5 -41t16.5 -41t40.5 -17t41 17t17 41zM337 698q0 -38 -27.5 -65.5t-65.5 -27.5t-65.5 27.5t-27.5 65.5t27.5 65.5t65.5 27.5t65.5 -27.5t27.5 -65.5zM374 84v199h-77q-113 0 -158 -25.5t-45 -89.5v-13q0 -122 109 -122 q76 0 171 51zM418 20q0 -8 -6 -14t-14 -6h-5q-8 0 -14 6t-6 14v25q-93 -51 -170 -51q-65 0 -109 37.5t-44 123.5v13q0 79 57 116.5t190 37.5h77v36q0 80 -27.5 112.5t-98.5 32.5q-57 0 -142 -9h-5q-18 0 -18 15v6q0 15 23 18q76 9 142 9q95 0 132.5 -47.5t37.5 -136.5v-338z "/>
<glyph glyph-name="ae" horiz-adv-x="830" unicode="æ" d="M374 204v78h-77q-113 0 -158 -25t-45 -89v-13q0 -122 109 -122q89 0 130 39.5t41 131.5zM731 298v6q0 98 -36.5 148.5t-118.5 50.5q-80 0 -119 -53t-39 -146v-6h313zM775 277q0 -8 -5.5 -13.5t-13.5 -5.5h-338v-54q0 -64 10.5 -91.5t32.5 -44.5q46 -35 138 -35 q65 0 148 17q1 0 3 0.5t3 0.5q15 0 15 -14v-7q0 -15 -19 -19q-82 -17 -150 -17q-158 0 -205 90q-19 -27 -37 -43.5t-58.5 -31.5t-95.5 -15q-65 0 -109 37.5t-44 123.5v13q0 79 57 116.5t190 37.5h77v36q0 80 -27.5 112.5t-98.5 32.5q-57 0 -142 -9h-4q-19 0 -19 15v6 q0 15 23 18q76 9 142 9q129 0 158 -97q53 97 170 97q100 0 149.5 -63.5t49.5 -174.5v-27z"/>
<glyph glyph-name="ccedilla" horiz-adv-x="437" unicode="ç" d="M292 -62q0 -4 -4 -8l-91 -108q-14 -17 -22 -17h-22q-9 0 -9 7q0 6 4 10l84 108q12 15 23 15h26q11 0 11 -7zM393 21q0 -15 -19 -18q-76 -9 -121 -9q-101 0 -149.5 67.5t-48.5 174.5v67q0 108 48 173.5t150 65.5q45 0 121 -9q19 -3 19 -18v-7q0 -18 -21 -14q-70 9 -119 9 q-154 0 -154 -200v-67q0 -203 154 -203q49 0 119 9q21 4 21 -14v-7z"/>
<glyph glyph-name="egrave" horiz-adv-x="511" unicode="è" d="M302 625q0 -7 -9 -7h-22q-8 0 -22 17l-107 128q-4 4 -4 8q0 7 11 7h26q11 0 23 -15l100 -128q4 -4 4 -10zM412 298v6q0 98 -36.5 148.5t-118.5 50.5q-80 0 -119 -53.5t-39 -146.5v-5h313zM456 277q0 -8 -5.5 -13.5t-13.5 -5.5h-338v-21q0 -116 48 -160t133 -44 q65 0 148 17q21 4 21 -13v-7q0 -15 -19 -19q-82 -17 -150 -17q-225 0 -225 243v66q0 107 53 173t149 66q100 0 149.5 -63.5t49.5 -174.5v-27z"/>
<glyph glyph-name="eacute" horiz-adv-x="511" unicode="é" d="M373 771q0 -4 -4 -8l-107 -128q-14 -17 -22 -17h-22q-9 0 -9 7q0 6 4 10l100 128q12 15 23 15h26q11 0 11 -7zM412 298v6q0 98 -36.5 148.5t-118.5 50.5q-80 0 -119 -53.5t-39 -146.5v-5h313zM456 277q0 -8 -5.5 -13.5t-13.5 -5.5h-338v-21q0 -116 48 -160t133 -44 q65 0 148 17q21 4 21 -13v-7q0 -15 -19 -19q-82 -17 -150 -17q-225 0 -225 243v66q0 107 53 173t149 66q100 0 149.5 -63.5t49.5 -174.5v-27z"/>
<glyph glyph-name="ecircumflex" horiz-adv-x="511" unicode="ê" d="M402 625q0 -7 -9 -7h-22q-8 0 -22 17l-94 113l-94 -113q-14 -17 -22 -17h-22q-9 0 -9 7q0 6 4 10l100 128q12 15 23 15h40q11 0 23 -15l100 -128q4 -4 4 -10zM412 298v6q0 98 -36.5 148.5t-118.5 50.5q-80 0 -119 -53.5t-39 -146.5v-5h313zM456 277q0 -8 -5.5 -13.5 t-13.5 -5.5h-338v-21q0 -116 48 -160t133 -44q65 0 148 17q21 4 21 -13v-7q0 -15 -19 -19q-82 -17 -150 -17q-225 0 -225 243v66q0 107 53 173t149 66q100 0 149.5 -63.5t49.5 -174.5v-27z"/>
<glyph glyph-name="edieresis" horiz-adv-x="511" unicode="ë" d="M202 661q0 -8 -5.5 -13.5t-13.5 -5.5h-6q-8 0 -13.5 5.5t-5.5 13.5v74q0 7 6 13t13 6h6q7 0 13 -6t6 -13v-74zM352 661q0 -8 -5.5 -13.5t-13.5 -5.5h-6q-8 0 -13.5 5.5t-5.5 13.5v74q0 7 6 13t13 6h6q7 0 13 -6t6 -13v-74zM412 298v6q0 98 -36.5 148.5t-118.5 50.5 q-80 0 -119 -53.5t-39 -146.5v-5h313zM456 277q0 -8 -5.5 -13.5t-13.5 -5.5h-338v-21q0 -116 48 -160t133 -44q65 0 148 17q21 4 21 -13v-7q0 -15 -19 -19q-82 -17 -150 -17q-225 0 -225 243v66q0 107 53 173t149 66q100 0 149.5 -63.5t49.5 -174.5v-27z"/>
<glyph glyph-name="igrave" horiz-adv-x="204" unicode="ì" d="M161 625q0 -7 -9 -7h-22q-8 0 -22 17l-107 128q-4 4 -4 8q0 7 11 7h26q11 0 23 -15l100 -128q4 -4 4 -10zM124 19q0 -7 -6 -13t-13 -6h-6q-7 0 -13 6t-6 13v499q0 8 6 13.5t13 5.5h6q7 0 13 -5.5t6 -13.5v-499z"/>
<glyph glyph-name="iacute" horiz-adv-x="204" unicode="í" d="M207 771q0 -4 -4 -8l-107 -128q-14 -17 -22 -17h-22q-9 0 -9 7q0 6 4 10l100 128q12 15 23 15h26q11 0 11 -7zM124 19q0 -7 -6 -13t-13 -6h-6q-7 0 -13 6t-6 13v499q0 8 6 13.5t13 5.5h6q7 0 13 -5.5t6 -13.5v-499z"/>
<glyph glyph-name="icircumflex" horiz-adv-x="204" unicode="î" d="M249 625q0 -7 -9 -7h-22q-8 0 -22 17l-94 113l-94 -113q-14 -17 -22 -17h-22q-9 0 -9 7q0 6 4 10l100 128q12 15 23 15h40q11 0 23 -15l100 -128q4 -4 4 -10zM124 19q0 -7 -6 -13t-13 -6h-6q-7 0 -13 6t-6 13v499q0 8 6 13.5t13 5.5h6q7 0 13 -5.5t6 -13.5v-499z"/>
<glyph glyph-name="idieresis" horiz-adv-x="204" unicode="ï" d="M49 661q0 -8 -5.5 -13.5t-13.5 -5.5h-6q-8 0 -13.5 5.5t-5.5 13.5v74q0 7 5.5 13t13.5 6h6q8 0 13.5 -6t5.5 -13v-74zM199 661q0 -8 -5.5 -13.5t-13.5 -5.5h-6q-8 0 -13.5 5.5t-5.5 13.5v74q0 7 5.5 13t13.5 6h6q8 0 13.5 -6t5.5 -13v-74zM124 19q0 -7 -6 -13t-13 -6h-6 q-7 0 -13 6t-6 13v499q0 8 6 13.5t13 5.5h6q7 0 13 -5.5t6 -13.5v-499z"/>
<glyph glyph-name="eth" horiz-adv-x="522" unicode="ð" d="M423 233v70q0 200 -162 200t-162 -200v-70q0 -200 162 -200t162 200zM467 233q0 -115 -52.5 -177t-153.5 -62t-153.5 62t-52.5 177v70q0 115 52.5 177t153.5 62q98 0 150 -58q-32 117 -167 177l-97 -73q-15 -12 -24 0l-5 6q-9 12 7 24l77 60q-49 17 -107 29q-20 4 -15 20 l3 10q4 14 22 10q80 -18 136 -40l102 78q5 4 12 4q8 0 13 -5l6 -6q10 -10 -6 -22l-87 -66q52 -26 88 -60t55 -65.5t29 -75t12 -74t2 -77.5v-35v-70z"/>
<glyph glyph-name="ntilde" horiz-adv-x="521" unicode="ñ" d="M420 704q0 -45 -20.5 -68t-57.5 -23q-40 0 -67 26l-48 47q-28 28 -48 28q-41 0 -41 -53v-26q0 -16 -10 -16h-17q-11 0 -11 16v26q0 45 21 68t58 23q39 0 66 -26l48 -47q28 -28 49 -28q40 0 40 53v26q0 16 10 16h17q11 0 11 -16v-26zM451 19q0 -8 -5.5 -13.5t-13.5 -5.5 h-7q-7 0 -12.5 5.5t-5.5 13.5v332q0 152 -135 152q-73 0 -158 -41v-443q0 -7 -6 -13t-13 -6h-6q-7 0 -13 6t-6 13v498q0 20 18 20h8q18 0 18 -20v-16q85 41 161 41q78 0 127 -46.5t49 -144.5v-332z"/>
<glyph glyph-name="ograve" horiz-adv-x="522" unicode="ò" d="M321 625q0 -7 -9 -7h-22q-8 0 -22 17l-107 128q-4 4 -4 8q0 7 11 7h26q11 0 23 -15l100 -128q4 -4 4 -10zM423 233v70q0 200 -162 200t-162 -200v-70q0 -200 162 -200t162 200zM467 233q0 -115 -52.5 -177t-153.5 -62t-153.5 62t-52.5 177v70q0 115 52.5 177t153.5 62 t153.5 -62t52.5 -177v-70z"/>
<glyph glyph-name="oacute" horiz-adv-x="522" unicode="ó" d="M378 771q0 -4 -4 -8l-107 -128q-14 -17 -22 -17h-22q-9 0 -9 7q0 6 4 10l100 128q12 15 23 15h26q11 0 11 -7zM423 233v70q0 200 -162 200t-162 -200v-70q0 -200 162 -200t162 200zM467 233q0 -115 -52.5 -177t-153.5 -62t-153.5 62t-52.5 177v70q0 115 52.5 177 t153.5 62t153.5 -62t52.5 -177v-70z"/>
<glyph glyph-name="ocircumflex" horiz-adv-x="522" unicode="ô" d="M408 625q0 -7 -9 -7h-22q-8 0 -22 17l-94 113l-94 -113q-14 -17 -22 -17h-22q-9 0 -9 7q0 6 4 10l100 128q12 15 23 15h40q11 0 23 -15l100 -128q4 -4 4 -10zM423 233v70q0 200 -162 200t-162 -200v-70q0 -200 162 -200t162 200zM467 233q0 -115 -52.5 -177t-153.5 -62 t-153.5 62t-52.5 177v70q0 115 52.5 177t153.5 62t153.5 -62t52.5 -177v-70z"/>
<glyph glyph-name="otilde" horiz-adv-x="522" unicode="õ" d="M421 703q0 -45 -20.5 -68t-57.5 -23q-40 0 -67 26l-48 47q-28 28 -48 28q-41 0 -41 -53v-26q0 -16 -10 -16h-17q-11 0 -11 16v26q0 45 21 68t58 23q39 0 66 -26l48 -47q28 -28 49 -28q40 0 40 53v26q0 16 10 16h17q11 0 11 -16v-26zM423 233v70q0 200 -162 200t-162 -200 v-70q0 -200 162 -200t162 200zM467 233q0 -115 -52.5 -177t-153.5 -62t-153.5 62t-52.5 177v70q0 115 52.5 177t153.5 62t153.5 -62t52.5 -177v-70z"/>
<glyph glyph-name="odieresis" horiz-adv-x="522" unicode="ö" d="M208 661q0 -8 -5.5 -13.5t-13.5 -5.5h-6q-8 0 -13.5 5.5t-5.5 13.5v74q0 7 6 13t13 6h6q7 0 13 -6t6 -13v-74zM358 661q0 -8 -5.5 -13.5t-13.5 -5.5h-6q-8 0 -13.5 5.5t-5.5 13.5v74q0 7 6 13t13 6h6q7 0 13 -6t6 -13v-74zM423 233v70q0 200 -162 200t-162 -200v-70 q0 -200 162 -200t162 200zM467 233q0 -115 -52.5 -177t-153.5 -62t-153.5 62t-52.5 177v70q0 115 52.5 177t153.5 62t153.5 -62t52.5 -177v-70z"/>
<glyph glyph-name="divide" d="M312 197q0 -8 -5.5 -13.5t-13.5 -5.5h-6q-8 0 -13.5 5.5t-5.5 13.5v74q0 7 6 13t13 6h6q7 0 13 -6t6 -13v-74zM493 386q0 -16 -20 -16h-365q-20 0 -20 16v10q0 16 20 16h365q20 0 20 -16v-10zM312 511q0 -8 -5.5 -13.5t-13.5 -5.5h-6q-8 0 -13.5 5.5t-5.5 13.5v74 q0 7 6 13t13 6h6q7 0 13 -6t6 -13v-74z" unicode="÷"/>
<glyph glyph-name="oslash" horiz-adv-x="522" unicode="ø" d="M423 233v70q0 74 -22 121l-257 -347q41 -44 117 -44q162 0 162 200zM379 458q-40 45 -118 45q-162 0 -162 -200v-70q0 -77 23 -123zM497 560q0 -7 -4 -11l-65 -87q39 -60 39 -159v-70q0 -115 -52.5 -177t-153.5 -62q-90 0 -142 49l-50 -68q-8 -10 -16 -10h-20q-8 0 -8 8 q0 6 4 11l66 89q-40 62 -40 160v70q0 115 52.5 177t153.5 62q90 0 143 -51l49 67q8 10 16 10h20q8 0 8 -8z"/>
<glyph glyph-name="ugrave" horiz-adv-x="521" unicode="ù" d="M305 625q0 -7 -9 -7h-22q-8 0 -22 17l-107 128q-4 4 -4 8q0 7 11 7h26q11 0 23 -15l100 -128q4 -4 4 -10zM70 518q0 8 5.5 13.5t13.5 5.5h7q7 0 12.5 -5.5t5.5 -13.5v-332q0 -152 135 -152q69 0 158 41v443q0 8 5.5 13.5t13.5 5.5h6q8 0 13.5 -5.5t5.5 -13.5v-498 q0 -20 -18 -20h-8q-18 0 -18 20v16q-85 -41 -161 -41q-78 0 -127 46.5t-49 144.5v332z"/>
<glyph glyph-name="uacute" horiz-adv-x="521" unicode="ú" d="M385 771q0 -4 -4 -8l-107 -128q-14 -17 -22 -17h-22q-9 0 -9 7q0 6 4 10l100 128q12 15 23 15h26q11 0 11 -7zM70 518q0 8 5.5 13.5t13.5 5.5h7q7 0 12.5 -5.5t5.5 -13.5v-332q0 -152 135 -152q69 0 158 41v443q0 8 5.5 13.5t13.5 5.5h6q8 0 13.5 -5.5t5.5 -13.5v-498 q0 -20 -18 -20h-8q-18 0 -18 20v16q-85 -41 -161 -41q-78 0 -127 46.5t-49 144.5v332z"/>
<glyph glyph-name="ucircumflex" horiz-adv-x="521" unicode="û" d="M407 625q0 -7 -9 -7h-22q-8 0 -22 17l-94 113l-94 -113q-14 -17 -22 -17h-22q-9 0 -9 7q0 6 4 10l100 128q12 15 23 15h40q11 0 23 -15l100 -128q4 -4 4 -10zM70 518q0 8 5.5 13.5t13.5 5.5h7q7 0 12.5 -5.5t5.5 -13.5v-332q0 -152 135 -152q69 0 158 41v443 q0 8 5.5 13.5t13.5 5.5h6q8 0 13.5 -5.5t5.5 -13.5v-498q0 -20 -18 -20h-8q-18 0 -18 20v16q-85 -41 -161 -41q-78 0 -127 46.5t-49 144.5v332z"/>
<glyph glyph-name="udieresis" horiz-adv-x="521" unicode="ü" d="M207 661q0 -8 -5.5 -13.5t-13.5 -5.5h-6q-8 0 -13.5 5.5t-5.5 13.5v74q0 7 5.5 13t13.5 6h6q8 0 13.5 -6t5.5 -13v-74zM357 661q0 -8 -5.5 -13.5t-13.5 -5.5h-6q-8 0 -13.5 5.5t-5.5 13.5v74q0 7 5.5 13t13.5 6h6q8 0 13.5 -6t5.5 -13v-74zM70 518q0 8 5.5 13.5t13.5 5.5 h7q7 0 12.5 -5.5t5.5 -13.5v-332q0 -152 135 -152q69 0 158 41v443q0 8 5.5 13.5t13.5 5.5h6q8 0 13.5 -5.5t5.5 -13.5v-498q0 -20 -18 -20h-8q-18 0 -18 20v16q-85 -41 -161 -41q-78 0 -127 46.5t-49 144.5v332z"/>
<glyph glyph-name="yacute" horiz-adv-x="486" unicode="ý" d="M369 771q0 -4 -4 -8l-107 -128q-14 -17 -22 -17h-22q-9 0 -9 7q0 6 4 10l100 128q12 15 23 15h26q11 0 11 -7zM446 512l-164 -568q-23 -80 -57.5 -109.5t-104.5 -29.5q-26 0 -62 6q-20 3 -20 14v11q0 17 21 14q45 -6 65 -6q54 0 77.5 21.5t41.5 87.5l13 47h-14 q-25 0 -38 11t-23 45l-135 457q-1 3 -1 9q0 15 17 15h9q12 0 16 -14l135 -460q6 -22 23 -22h23l137 483q4 13 18 13h9q16 0 16 -15q0 -2 -2 -10z"/>
<glyph glyph-name="thorn" horiz-adv-x="504" unicode="þ" d="M405 233v66q0 101 -35.5 152.5t-116.5 51.5q-61 0 -139 -13v-444q62 -13 139 -13q81 0 116.5 49.5t35.5 150.5zM449 233q0 -239 -196 -239q-72 0 -139 15v-185q0 -8 -5 -13.5t-12 -5.5h-10q-7 0 -12 5.5t-5 13.5v900q0 8 5 13.5t12 5.5h10q7 0 12 -5.5t5 -13.5v-195 q78 13 139 13q100 0 148 -65t48 -178v-66z"/>
<glyph glyph-name="ydieresis" horiz-adv-x="486" unicode="ÿ" d="M190 668q0 -8 -5.5 -13.5t-13.5 -5.5h-6q-8 0 -13.5 5.5t-5.5 13.5v74q0 8 6 13.5t13 5.5h6q7 0 13 -5.5t6 -13.5v-74zM340 668q0 -8 -5.5 -13.5t-13.5 -5.5h-6q-8 0 -13.5 5.5t-5.5 13.5v74q0 8 6 13.5t13 5.5h6q7 0 13 -5.5t6 -13.5v-74zM446 512l-164 -568 q-23 -80 -57.5 -109.5t-104.5 -29.5q-26 0 -62 6q-20 3 -20 14v11q0 17 21 14q45 -6 65 -6q54 0 77.5 21.5t41.5 87.5l13 47h-14q-25 0 -38 11t-23 45l-135 457q-1 3 -1 9q0 15 17 15h9q12 0 16 -14l135 -460q6 -22 23 -22h23l137 483q4 13 18 13h9q16 0 16 -15q0 -2 -2 -10 z"/>
<glyph glyph-name="Amacron" horiz-adv-x="619" unicode="Ā" d="M460 856q0 -16 -20 -16h-266q-20 0 -20 16v11q0 15 20 15h266q20 0 20 -15v-11zM442 325l-109 363q-6 20 -23 20q-18 0 -23 -19l-110 -364h265zM579 22q1 -3 1 -10q0 -15 -15 -15h-12q-12 0 -16 13l-84 271h-288l-82 -271q-4 -13 -16 -13h-13q-15 0 -15 16q0 6 1 9 l205 677q15 49 65 49t64 -48z"/>
<glyph glyph-name="amacron" horiz-adv-x="488" unicode="ā" d="M397 702q0 -16 -20 -16h-266q-20 0 -20 16v11q0 15 20 15h266q20 0 20 -15v-11zM374 84v199h-77q-113 0 -158 -25.5t-45 -89.5v-13q0 -122 109 -122q76 0 171 51zM418 20q0 -8 -6 -14t-14 -6h-5q-8 0 -14 6t-6 14v25q-93 -51 -170 -51q-65 0 -109 37.5t-44 123.5v13 q0 79 57 116.5t190 37.5h77v36q0 80 -27.5 112.5t-98.5 32.5q-57 0 -142 -9h-4q-19 0 -19 15v6q0 15 23 18q76 9 142 9q95 0 132.5 -47.5t37.5 -136.5v-338z"/>
<glyph glyph-name="Abreve" horiz-adv-x="619" unicode="Ă" d="M307 793q-64 0 -103 39.5t-39 110.5q0 10 10 10h22q8 0 8 -10q0 -61 29 -86t73 -25t73 25t29 86q0 10 8 10h22q10 0 10 -10q0 -71 -39 -110.5t-103 -39.5zM442 325l-109 363q-6 20 -23 20q-18 0 -23 -19l-110 -364h265zM579 22q1 -3 1 -10q0 -15 -15 -15h-12 q-12 0 -16 13l-84 271h-288l-82 -271q-4 -13 -16 -13h-13q-15 0 -15 16q0 6 1 9l205 677q15 49 65 49t64 -48z"/>
<glyph glyph-name="abreve" horiz-adv-x="488" unicode="ă" d="M244 618q-64 0 -103 39.5t-39 110.5q0 10 10 10h22q8 0 8 -10q0 -61 29 -86t73 -25t73 25t29 86q0 10 8 10h22q10 0 10 -10q0 -71 -39 -110.5t-103 -39.5zM374 84v199h-77q-113 0 -158 -25.5t-45 -89.5v-13q0 -122 109 -122q76 0 171 51zM418 20q0 -8 -6 -14t-14 -6h-5 q-8 0 -14 6t-6 14v25q-93 -51 -170 -51q-65 0 -109 37.5t-44 123.5v13q0 79 57 116.5t190 37.5h77v36q0 80 -27.5 112.5t-98.5 32.5q-57 0 -142 -9h-4q-19 0 -19 15v6q0 15 23 18q76 9 142 9q95 0 132.5 -47.5t37.5 -136.5v-338z"/>
<glyph glyph-name="Aogonek" horiz-adv-x="619" unicode="Ą" d="M442 328l-109 363q-6 20 -23 20q-18 0 -23 -19l-110 -364h265zM574 2l-52 -26q-53 -27 -73.5 -44t-20.5 -42q0 -45 66 -45q31 0 75 12q2 1 7 1q7 0 7 -6v-19q0 -8 -11 -11q-42 -14 -79 -14q-106 0 -106 82q0 38 24.5 60t75.5 47l48 23l-82 264h-288l-82 -271 q-4 -13 -16 -13h-13q-15 0 -15 16q0 6 1 9l205 677q15 49 65 49t64 -48l205 -678q2 -8 2 -11q0 -8 -7 -12z"/>
<glyph glyph-name="aogonek" horiz-adv-x="488" unicode="ą" d="M374 84v199h-77q-113 0 -158 -25.5t-45 -89.5v-13q0 -122 109 -122q76 0 171 51zM373 25v20q-93 -51 -170 -51q-65 0 -109 37.5t-44 123.5v13q0 79 57 116.5t190 37.5h77v36q0 80 -27.5 112.5t-98.5 32.5q-57 0 -142 -9h-4q-19 0 -19 15v6q0 15 23 18q76 9 142 9 q95 0 132.5 -47.5t37.5 -136.5v-332q0 -16 -17 -26l-54 -31q-49 -28 -63.5 -42t-14.5 -39q0 -46 57 -46q25 0 76 12q6 2 9 2q4 0 4 -7v-19q0 -8 -11 -11q-42 -14 -79 -14q-97 0 -97 83q0 26 11.5 45t25 28t47.5 29z"/>
<glyph glyph-name="Cacute" horiz-adv-x="537" unicode="Ć" d="M420 946q0 -4 -4 -8l-107 -128q-14 -17 -22 -17h-22q-9 0 -9 7q0 6 4 10l100 128q12 15 23 15h26q11 0 11 -7zM497 21q0 -15 -19 -17q-87 -10 -173 -10q-50 0 -91.5 15.5t-77.5 49.5t-56 97t-20 149v132q0 86 20 149t56 97t77.5 49.5t91.5 15.5q86 0 173 -10 q19 -2 19 -17v-12q0 -14 -19 -12q-81 9 -173 9q-91 0 -146 -64.5t-55 -204.5v-132q0 -140 55 -204.5t146 -64.5q92 0 173 9q19 2 19 -12v-12z"/>
<glyph glyph-name="cacute" horiz-adv-x="437" unicode="ć" d="M358 771q0 -4 -4 -8l-107 -128q-14 -17 -22 -17h-22q-9 0 -9 7q0 6 4 10l100 128q12 15 23 15h26q11 0 11 -7zM393 21q0 -15 -19 -18q-76 -9 -121 -9q-101 0 -149.5 67.5t-48.5 174.5v67q0 108 48 173.5t150 65.5q45 0 121 -9q19 -3 19 -18v-7q0 -18 -21 -14 q-70 9 -119 9q-154 0 -154 -200v-67q0 -203 154 -203q49 0 119 9q21 4 21 -14v-7z"/>
<glyph glyph-name="Ccircumflex" horiz-adv-x="537" unicode="Ĉ" d="M436 801q0 -7 -9 -7h-22q-8 0 -22 17l-94 113l-94 -113q-14 -17 -22 -17h-22q-9 0 -9 7q0 6 4 10l100 128q12 15 23 15h40q11 0 23 -15l100 -128q4 -4 4 -10zM497 21q0 -15 -19 -17q-87 -10 -173 -10q-50 0 -91.5 15.5t-77.5 49.5t-56 97t-20 149v132q0 86 20 149t56 97 t77.5 49.5t91.5 15.5q86 0 173 -10q19 -2 19 -17v-12q0 -14 -19 -12q-81 9 -173 9q-91 0 -146 -64.5t-55 -204.5v-132q0 -140 55 -204.5t146 -64.5q92 0 173 9q19 2 19 -12v-12z"/>
<glyph glyph-name="ccircumflex" horiz-adv-x="437" unicode="ĉ" d="M384 625q0 -7 -9 -7h-22q-8 0 -22 17l-94 113l-94 -113q-14 -17 -22 -17h-22q-9 0 -9 7q0 6 4 10l100 128q12 15 23 15h40q11 0 23 -15l100 -128q4 -4 4 -10zM393 21q0 -15 -19 -18q-76 -9 -121 -9q-101 0 -149.5 67.5t-48.5 174.5v67q0 108 48 173.5t150 65.5 q45 0 121 -9q19 -3 19 -18v-7q0 -18 -21 -14q-70 9 -119 9q-154 0 -154 -200v-67q0 -203 154 -203q49 0 119 9q21 4 21 -14v-7z"/>
<glyph glyph-name="Cdotaccent" horiz-adv-x="537" unicode="Ċ" d="M327 833q0 -8 -5.5 -13.5t-13.5 -5.5h-6q-8 0 -13.5 5.5t-5.5 13.5v74q0 7 5.5 13t13.5 6h6q8 0 13.5 -6t5.5 -13v-74zM497 21q0 -15 -19 -17q-87 -10 -173 -10q-50 0 -91.5 15.5t-77.5 49.5t-56 97t-20 149v132q0 86 20 149t56 97t77.5 49.5t91.5 15.5q86 0 173 -10 q19 -2 19 -17v-12q0 -14 -19 -12q-81 9 -173 9q-91 0 -146 -64.5t-55 -204.5v-132q0 -140 55 -204.5t146 -64.5q92 0 173 9q19 2 19 -12v-12z"/>
<glyph glyph-name="cdotaccent" horiz-adv-x="437" unicode="ċ" d="M274 660q0 -8 -5.5 -13.5t-13.5 -5.5h-6q-8 0 -13.5 5.5t-5.5 13.5v74q0 8 6 13.5t13 5.5h6q7 0 13 -5.5t6 -13.5v-74zM393 21q0 -15 -19 -18q-76 -9 -121 -9q-101 0 -149.5 67.5t-48.5 174.5v67q0 108 48 173.5t150 65.5q45 0 121 -9q19 -3 19 -18v-7q0 -18 -21 -14 q-70 9 -119 9q-154 0 -154 -200v-67q0 -203 154 -203q49 0 119 9q21 4 21 -14v-7z"/>
<glyph glyph-name="Ccaron" horiz-adv-x="537" unicode="Č" d="M450 946q0 -6 -4 -10l-100 -128q-12 -15 -23 -15h-40q-11 0 -23 15l-100 128q-4 4 -4 10q0 7 9 7h22q8 0 22 -17l94 -113l94 113q14 17 22 17h22q9 0 9 -7zM497 21q0 -15 -19 -17q-87 -10 -173 -10q-50 0 -91.5 15.5t-77.5 49.5t-56 97t-20 149v132q0 86 20 149t56 97 t77.5 49.5t91.5 15.5q86 0 173 -10q19 -2 19 -17v-12q0 -14 -19 -12q-81 9 -173 9q-91 0 -146 -64.5t-55 -204.5v-132q0 -140 55 -204.5t146 -64.5q92 0 173 9q19 2 19 -12v-12z"/>
<glyph glyph-name="ccaron" horiz-adv-x="437" unicode="č" d="M388 771q0 -6 -4 -10l-100 -128q-12 -15 -23 -15h-40q-11 0 -23 15l-100 128q-4 4 -4 10q0 7 9 7h22q8 0 22 -17l94 -113l94 113q14 17 22 17h22q9 0 9 -7zM393 21q0 -15 -19 -18q-76 -9 -121 -9q-101 0 -149.5 67.5t-48.5 174.5v67q0 108 48 173.5t150 65.5q45 0 121 -9 q19 -3 19 -18v-7q0 -18 -21 -14q-70 9 -119 9q-154 0 -154 -200v-67q0 -203 154 -203q49 0 119 9q21 4 21 -14v-7z"/>
<glyph glyph-name="Dcaron" horiz-adv-x="613" unicode="Ď" d="M454 946q0 -6 -4 -10l-100 -128q-12 -15 -23 -15h-40q-11 0 -23 15l-100 128q-4 4 -4 10q0 7 9 7h22q8 0 22 -17l94 -113l94 113q14 17 22 17h22q9 0 9 -7zM509 309v124q0 276 -248 276q-49 0 -137 -6v-666q59 -4 137 -4q248 0 248 276zM553 309q0 -164 -78 -239.5 t-214 -75.5q-118 0 -164 8q-17 4 -17 19v700q0 15 17 19q46 8 164 8q292 0 292 -315v-124z"/>
<glyph glyph-name="dcaron" horiz-adv-x="616" unicode="ď" d="M523 533q-10 0 -10 10q0 3 2 9l61 172q7 19 20 19h19q12 0 12 -10q0 -3 -2 -9l-68 -172q-7 -19 -19 -19h-15zM390 46v444q-62 13 -139 13q-81 0 -116.5 -49.5t-35.5 -150.5v-66q0 -101 35.5 -152.5t116.5 -51.5q61 0 139 13zM434 32q0 -15 -15 -19q-93 -19 -168 -19 q-100 0 -148 65t-48 178v66q0 239 196 239q72 0 139 -15v197q0 8 5 13.5t12 5.5h10q7 0 12 -5.5t5 -13.5v-692z"/>
<glyph glyph-name="Dcroat" horiz-adv-x="613" unicode="Đ" d="M509 309v124q0 276 -248 276q-49 0 -137 -6v-292h85q19 0 19 -16v-10q0 -17 -19 -17h-85v-331q59 -4 137 -4q248 0 248 276zM553 309q0 -164 -78 -239.5t-214 -75.5q-118 0 -164 8q-17 4 -17 19v347h-71q-19 0 -19 17v10q0 16 19 16h71v310q0 15 17 19q46 8 164 8 q292 0 292 -315v-124z"/>
<glyph glyph-name="dcroat" horiz-adv-x="504" unicode="đ" d="M390 46v444q-62 13 -139 13q-81 0 -116.5 -49.5t-35.5 -150.5v-66q0 -101 35.5 -152.5t116.5 -51.5q61 0 139 13zM434 32q0 -15 -15 -19q-93 -19 -168 -19q-100 0 -148 65t-48 178v66q0 239 196 239q72 0 139 -15v91h-159q-19 0 -19 15v10q0 15 19 15h159v66q0 8 5 13.5 t12 5.5h10q7 0 12 -5.5t5 -13.5v-66h57q19 0 19 -15v-10q0 -15 -19 -15h-57v-586z"/>
<glyph glyph-name="Emacron" horiz-adv-x="533" unicode="Ē" d="M437 856q0 -16 -20 -16h-266q-20 0 -20 16v11q0 15 20 15h266q20 0 20 -15v-11zM478 17q0 -17 -19 -17h-258q-60 0 -90.5 25.5t-30.5 86.5v519q0 61 30.5 86.5t90.5 25.5h258q19 0 19 -17v-8q0 -16 -19 -16h-258q-40 0 -58.5 -14t-18.5 -57v-220h335q19 0 19 -16v-10 q0 -17 -19 -17h-335v-256q0 -43 18.5 -57t58.5 -14h258q19 0 19 -16v-8z"/>
<glyph glyph-name="emacron" horiz-adv-x="511" unicode="ē" d="M413 701q0 -16 -20 -16h-266q-20 0 -20 16v11q0 15 20 15h266q20 0 20 -15v-11zM412 298v6q0 98 -36.5 148.5t-118.5 50.5q-80 0 -119 -53.5t-39 -146.5v-5h313zM456 277q0 -8 -5.5 -13.5t-13.5 -5.5h-338v-21q0 -116 48 -160t133 -44q65 0 148 17q21 4 21 -13v-7 q0 -15 -19 -19q-82 -17 -150 -17q-225 0 -225 243v66q0 107 53 173t149 66q100 0 149.5 -63.5t49.5 -174.5v-27z"/>
<glyph glyph-name="Ebreve" horiz-adv-x="533" unicode="Ĕ" d="M296 795q-64 0 -103 39.5t-39 110.5q0 10 10 10h22q8 0 8 -10q0 -61 29 -86t73 -25t73 25t29 86q0 10 8 10h22q10 0 10 -10q0 -71 -39 -110.5t-103 -39.5zM478 17q0 -17 -19 -17h-258q-60 0 -90.5 25.5t-30.5 86.5v519q0 61 30.5 86.5t90.5 25.5h258q19 0 19 -17v-8 q0 -16 -19 -16h-258q-40 0 -58.5 -14t-18.5 -57v-220h335q19 0 19 -16v-10q0 -17 -19 -17h-335v-256q0 -43 18.5 -57t58.5 -14h258q19 0 19 -16v-8z"/>
<glyph glyph-name="ebreve" horiz-adv-x="511" unicode="ĕ" d="M259 618q-64 0 -103 39.5t-39 110.5q0 10 10 10h22q8 0 8 -10q0 -61 29 -86t73 -25t73 25t29 86q0 10 8 10h22q10 0 10 -10q0 -71 -39 -110.5t-103 -39.5zM412 298v6q0 98 -36.5 148.5t-118.5 50.5q-80 0 -119 -53.5t-39 -146.5v-5h313zM456 277q0 -8 -5.5 -13.5 t-13.5 -5.5h-338v-21q0 -116 48 -160t133 -44q65 0 148 17q21 4 21 -13v-7q0 -15 -19 -19q-82 -17 -150 -17q-225 0 -225 243v66q0 107 53 173t149 66q100 0 149.5 -63.5t49.5 -174.5v-27z"/>
<glyph glyph-name="Edotaccent" horiz-adv-x="533" unicode="Ė" d="M302 833q0 -8 -5.5 -13.5t-13.5 -5.5h-6q-8 0 -13.5 5.5t-5.5 13.5v74q0 7 6 13t13 6h6q7 0 13 -6t6 -13v-74zM478 17q0 -17 -19 -17h-258q-60 0 -90.5 25.5t-30.5 86.5v519q0 61 30.5 86.5t90.5 25.5h258q19 0 19 -17v-8q0 -16 -19 -16h-258q-40 0 -58.5 -14t-18.5 -57 v-220h335q19 0 19 -16v-10q0 -17 -19 -17h-335v-256q0 -43 18.5 -57t58.5 -14h258q19 0 19 -16v-8z"/>
<glyph glyph-name="edotaccent" horiz-adv-x="511" unicode="ė" d="M278 660q0 -8 -5.5 -13.5t-13.5 -5.5h-6q-8 0 -13.5 5.5t-5.5 13.5v74q0 8 6 13.5t13 5.5h6q7 0 13 -5.5t6 -13.5v-74zM412 298v6q0 98 -36.5 148.5t-118.5 50.5q-80 0 -119 -53.5t-39 -146.5v-5h313zM456 277q0 -8 -5.5 -13.5t-13.5 -5.5h-338v-21q0 -116 48 -160 t133 -44q65 0 148 17q21 4 21 -13v-7q0 -15 -19 -19q-82 -17 -150 -17q-225 0 -225 243v66q0 107 53 173t149 66q100 0 149.5 -63.5t49.5 -174.5v-27z"/>
<glyph glyph-name="Eogonek" horiz-adv-x="533" unicode="Ę" d="M478 17q0 -17 -19 -17h-23l-55 -31q-49 -28 -63.5 -41t-14.5 -34q0 -52 87 -52q25 0 76 12q6 2 8 2q5 0 5 -7v-19q0 -8 -11 -11q-42 -14 -79 -14q-70 0 -98.5 26t-28.5 62q0 24 11.5 41.5t25 26.5t47.5 29l17 10h-162q-60 0 -90.5 25.5t-30.5 86.5v519q0 61 30.5 86.5 t90.5 25.5h258q19 0 19 -17v-8q0 -16 -19 -16h-258q-40 0 -58.5 -14t-18.5 -57v-220h335q19 0 19 -16v-10q0 -17 -19 -17h-335v-256q0 -43 18.5 -57t58.5 -14h258q19 0 19 -16v-8z"/>
<glyph glyph-name="eogonek" horiz-adv-x="511" unicode="ę" d="M412 298v6q0 98 -36.5 148.5t-118.5 50.5q-80 0 -119 -53.5t-39 -146.5v-5h313zM442 16l-82 -46q-48 -27 -63.5 -41.5t-15.5 -35.5q0 -52 79 -52q28 0 76 12q7 2 10 1t3 -8v-14q0 -9 -11 -13q-46 -14 -79 -14q-63 0 -90 25.5t-27 62.5q0 17 5 30t18.5 25t25.5 20t37 22 l13 7q-31 -3 -61 -3q-225 0 -225 243v66q0 107 53 173t149 66q100 0 149.5 -63.5t49.5 -174.5v-27q0 -8 -5.5 -13.5t-13.5 -5.5h-338v-21q0 -117 47 -160.5t134 -43.5q65 0 148 17q4 1 9 1q12 0 12 -16v-3q0 -12 -7 -16z"/>
<glyph glyph-name="Ecaron" horiz-adv-x="533" unicode="Ě" d="M438 947q0 -6 -4 -10l-100 -128q-12 -15 -23 -15h-40q-11 0 -23 15l-100 128q-4 4 -4 10q0 7 9 7h22q8 0 22 -17l94 -113l94 113q14 17 22 17h22q9 0 9 -7zM478 17q0 -17 -19 -17h-258q-60 0 -90.5 25.5t-30.5 86.5v519q0 61 30.5 86.5t90.5 25.5h258q19 0 19 -17v-8 q0 -16 -19 -16h-258q-40 0 -58.5 -14t-18.5 -57v-220h335q19 0 19 -16v-10q0 -17 -19 -17h-335v-256q0 -43 18.5 -57t58.5 -14h258q19 0 19 -16v-8z"/>
<glyph glyph-name="ecaron" horiz-adv-x="511" unicode="ě" d="M403 771q0 -6 -4 -10l-100 -128q-12 -15 -23 -15h-40q-11 0 -23 15l-100 128q-4 4 -4 10q0 7 9 7h22q8 0 22 -17l94 -113l94 113q14 17 22 17h22q9 0 9 -7zM412 298v6q0 98 -36.5 148.5t-118.5 50.5q-80 0 -119 -53.5t-39 -146.5v-5h313zM456 277q0 -8 -5.5 -13.5 t-13.5 -5.5h-338v-21q0 -116 48 -160t133 -44q65 0 148 17q21 4 21 -13v-7q0 -15 -19 -19q-82 -17 -150 -17q-225 0 -225 243v66q0 107 53 173t149 66q100 0 149.5 -63.5t49.5 -174.5v-27z"/>
<glyph glyph-name="Gcircumflex" horiz-adv-x="588" unicode="Ĝ" d="M456 801q0 -7 -9 -7h-22q-8 0 -22 17l-94 113l-94 -113q-14 -17 -22 -17h-22q-9 0 -9 7q0 6 4 10l100 128q12 15 23 15h40q11 0 23 -15l100 -128q4 -4 4 -10zM508 712q0 -18 -21 -15q-101 10 -176 10q-32 0 -60 -7.5t-56 -26.5t-47.5 -49t-31.5 -79t-12 -112v-124 q0 -138 54.5 -205.5t152.5 -67.5q80 0 152 9v318q0 19 17 19h10q17 0 17 -19v-337q0 -17 -17 -19q-104 -13 -179 -13q-113 0 -182 78.5t-69 236.5v124q0 72 15 128.5t39.5 91t58 56.5t67 30.5t71.5 8.5q94 0 180 -10q17 -2 17 -16v-10z"/>
<glyph glyph-name="gcircumflex" horiz-adv-x="534" unicode="ĝ" d="M416 625q0 -7 -9 -7h-22q-8 0 -22 17l-94 113l-94 -113q-14 -17 -22 -17h-22q-9 0 -9 7q0 6 4 10l100 128q12 15 23 15h40q11 0 23 -15l100 -128q4 -4 4 -10zM435 -43v9q0 42 -23 59.5t-103 37.5l-138 36q-73 -48 -73 -133v-9q0 -57 38.5 -87.5t130.5 -30.5 q95 0 131.5 29t36.5 89zM430 362v8q0 60 -36.5 94.5t-127.5 34.5q-94 0 -128 -35.5t-34 -93.5v-8q0 -22 6.5 -41.5t22.5 -39.5t50 -32t83 -12q92 0 128 33.5t36 91.5zM489 510q0 -16 -19 -16h-52q55 -44 55 -124v-8q0 -163 -207 -163q-65 0 -122 23q-34 -15 -34 -43 q0 -23 29 -31l180 -47q87 -23 123.5 -50.5t36.5 -84.5v-9q0 -155 -212 -155t-212 155v9q0 48 23 87.5t52 56.5l-7 2q-53 16 -53 67q0 45 42 64q-52 43 -52 119v8q0 167 206 167h204q19 0 19 -16v-11z"/>
<glyph glyph-name="Gbreve" horiz-adv-x="588" unicode="Ğ" d="M318 794q-64 0 -103 39.5t-39 110.5q0 10 10 10h22q8 0 8 -10q0 -61 29 -86t73 -25t73 25t29 86q0 10 8 10h22q10 0 10 -10q0 -71 -39 -110.5t-103 -39.5zM508 712q0 -18 -21 -15q-101 10 -176 10q-32 0 -60 -7.5t-56 -26.5t-47.5 -49t-31.5 -79t-12 -112v-124 q0 -138 54.5 -205.5t152.5 -67.5q80 0 152 9v318q0 19 17 19h10q17 0 17 -19v-337q0 -17 -17 -19q-104 -13 -179 -13q-113 0 -182 78.5t-69 236.5v124q0 72 15 128.5t39.5 91t58 56.5t67 30.5t71.5 8.5q94 0 180 -10q17 -2 17 -16v-10z"/>
<glyph glyph-name="gbreve" horiz-adv-x="534" unicode="ğ" d="M267 618q-64 0 -103 39.5t-39 110.5q0 10 10 10h22q8 0 8 -10q0 -61 29 -86t73 -25t73 25t29 86q0 10 8 10h22q10 0 10 -10q0 -71 -39 -110.5t-103 -39.5zM435 -43v9q0 42 -23 59.5t-103 37.5l-138 36q-73 -48 -73 -133v-9q0 -57 38.5 -87.5t130.5 -30.5q95 0 131.5 29 t36.5 89zM430 362v8q0 60 -36.5 94.5t-127.5 34.5q-94 0 -128 -35.5t-34 -93.5v-8q0 -22 6.5 -41.5t22.5 -39.5t50 -32t83 -12q92 0 128 33.5t36 91.5zM489 510q0 -16 -19 -16h-52q55 -44 55 -124v-8q0 -163 -207 -163q-65 0 -122 23q-34 -15 -34 -43q0 -23 29 -31l180 -47 q87 -23 123.5 -50.5t36.5 -84.5v-9q0 -155 -212 -155t-212 155v9q0 48 23 87.5t52 56.5l-7 2q-53 16 -53 67q0 45 42 64q-52 43 -52 119v8q0 167 206 167h204q19 0 19 -16v-11z"/>
<glyph glyph-name="Gdotaccent" horiz-adv-x="588" unicode="Ġ" d="M337 833q0 -8 -5.5 -13.5t-13.5 -5.5h-6q-8 0 -13.5 5.5t-5.5 13.5v74q0 7 5.5 13t13.5 6h6q8 0 13.5 -6t5.5 -13v-74zM508 712q0 -18 -21 -15q-101 10 -176 10q-32 0 -60 -7.5t-56 -26.5t-47.5 -49t-31.5 -79t-12 -112v-124q0 -138 54.5 -205.5t152.5 -67.5q80 0 152 9 v318q0 19 17 19h10q17 0 17 -19v-337q0 -17 -17 -19q-104 -13 -179 -13q-113 0 -182 78.5t-69 236.5v124q0 72 15 128.5t39.5 91t58 56.5t67 30.5t71.5 8.5q94 0 180 -10q17 -2 17 -16v-10z"/>
<glyph glyph-name="gdotaccent" horiz-adv-x="534" unicode="ġ" d="M292 660q0 -8 -5.5 -13.5t-13.5 -5.5h-6q-8 0 -13.5 5.5t-5.5 13.5v74q0 8 6 13.5t13 5.5h6q7 0 13 -5.5t6 -13.5v-74zM435 -43v9q0 42 -23 59.5t-103 37.5l-138 36q-73 -48 -73 -133v-9q0 -57 38.5 -87.5t130.5 -30.5q95 0 131.5 29t36.5 89zM430 362v8q0 60 -36.5 94.5 t-127.5 34.5q-94 0 -128 -35.5t-34 -93.5v-8q0 -22 6.5 -41.5t22.5 -39.5t50 -32t83 -12q92 0 128 33.5t36 91.5zM489 510q0 -16 -19 -16h-52q55 -44 55 -124v-8q0 -163 -207 -163q-65 0 -122 23q-34 -15 -34 -43q0 -23 29 -31l180 -47q87 -23 123.5 -50.5t36.5 -84.5v-9 q0 -155 -212 -155t-212 155v9q0 48 23 87.5t52 56.5l-7 2q-53 16 -53 67q0 45 42 64q-52 43 -52 119v8q0 167 206 167h204q19 0 19 -16v-11z"/>
<glyph glyph-name="Gcommaaccent" horiz-adv-x="588" unicode="Ģ" d="M308 -55h24q12 0 12 -10q0 -6 -2 -9l-56 -102q-10 -19 -24 -19h-9q-9 0 -9 9q0 5 1 7l43 105q7 19 20 19zM508 712q0 -18 -21 -15q-101 10 -176 10q-32 0 -60 -7.5t-56 -26.5t-47.5 -49t-31.5 -79t-12 -112v-124q0 -138 54.5 -205.5t152.5 -67.5q80 0 152 9v318 q0 19 17 19h10q17 0 17 -19v-337q0 -17 -17 -19q-104 -13 -179 -13q-113 0 -182 78.5t-69 236.5v124q0 72 15 128.5t39.5 91t58 56.5t67 30.5t71.5 8.5q94 0 180 -10q17 -2 17 -16v-10z"/>
<glyph glyph-name="gcommaaccent" horiz-adv-x="534" unicode="ģ" d="M263 618h-24q-12 0 -12 10q0 6 2 9l57 109q10 19 24 19h9q9 0 9 -9q0 -5 -1 -7l-44 -112q-7 -19 -20 -19zM435 -43v9q0 42 -23 59.5t-103 37.5l-138 36q-73 -48 -73 -133v-9q0 -57 38.5 -87.5t130.5 -30.5q95 0 131.5 29t36.5 89zM430 362v8q0 60 -36.5 94.5t-127.5 34.5 q-94 0 -128 -35.5t-34 -93.5v-8q0 -22 6.5 -41.5t22.5 -39.5t50 -32t83 -12q92 0 128 33.5t36 91.5zM489 510q0 -16 -19 -16h-52q55 -44 55 -124v-8q0 -163 -207 -163q-65 0 -122 23q-34 -15 -34 -43q0 -23 29 -31l180 -47q87 -23 123.5 -50.5t36.5 -84.5v-9 q0 -155 -212 -155t-212 155v9q0 48 23 87.5t52 56.5l-7 2q-53 16 -53 67q0 45 42 64q-52 43 -52 119v8q0 167 206 167h204q19 0 19 -16v-11z"/>
<glyph glyph-name="Hcircumflex" horiz-adv-x="647" unicode="Ĥ" d="M467 801q0 -7 -9 -7h-22q-8 0 -22 17l-94 113l-94 -113q-14 -17 -22 -17h-22q-9 0 -9 7q0 6 4 10l100 128q12 15 23 15h40q11 0 23 -15l100 -128q4 -4 4 -10zM567 19q0 -19 -17 -19h-9q-17 0 -17 19v358h-400v-358q0 -8 -5 -13.5t-12 -5.5h-10q-7 0 -12 5.5t-5 13.5v705 q0 8 5 13.5t12 5.5h10q7 0 12 -5.5t5 -13.5v-306h400v306q0 19 17 19h9q17 0 17 -19v-705z"/>
<glyph glyph-name="hcircumflex" horiz-adv-x="505" unicode="ĥ" d="M414 801q0 -7 -9 -7h-22q-8 0 -22 17l-94 113l-94 -113q-14 -17 -22 -17h-22q-9 0 -9 7q0 6 4 10l100 128q12 15 23 15h40q11 0 23 -15l100 -128q4 -4 4 -10zM440 13q0 -19 -17 -19h-10q-16 0 -16 19v337q0 76 -35 114.5t-113 38.5q-73 0 -135 -18v-472q0 -8 -5 -13.5 t-12 -5.5h-10q-7 0 -12 5.5t-5 13.5v711q0 8 5 13.5t12 5.5h10q7 0 12 -5.5t5 -13.5v-200q70 18 135 18q191 0 191 -192v-337z"/>
<glyph glyph-name="Hbar" horiz-adv-x="647" unicode="Ħ" d="M124 418h400v138h-400v-138zM19 599h61v125q0 8 5 13.5t12 5.5h10q7 0 12 -5.5t5 -13.5v-125h400v125q0 19 17 19h9q17 0 17 -19v-125h60q19 0 19 -16v-10q0 -17 -19 -17h-60v-537q0 -19 -17 -19h-9q-17 0 -17 19v358h-400v-358q0 -8 -5 -13.5t-12 -5.5h-10q-7 0 -12 5.5 t-5 13.5v537h-61q-19 0 -19 17v10q0 16 19 16z"/>
<glyph glyph-name="hbar" horiz-adv-x="505" unicode="ħ" d="M273 618h-159v-94q70 18 135 18q191 0 191 -192v-331q0 -19 -17 -19h-10q-16 0 -16 19v331q0 76 -35 114.5t-113 38.5q-73 0 -135 -18v-466q0 -8 -5 -13.5t-12 -5.5h-10q-7 0 -12 5.5t-5 13.5v599h-57q-19 0 -19 15v10q0 15 19 15h57v66q0 8 5 13.5t12 5.5h10 q7 0 12 -5.5t5 -13.5v-66h159q19 0 19 -15v-10q0 -15 -19 -15z"/>
<glyph glyph-name="Itilde" horiz-adv-x="224" unicode="Ĩ" d="M271 879q0 -45 -20.5 -68t-57.5 -23q-40 0 -67 26l-48 47q-28 28 -48 28q-41 0 -41 -53v-26q0 -16 -10 -16h-17q-11 0 -11 16v26q0 45 21 68t58 23q39 0 66 -26l48 -47q28 -28 49 -28q40 0 40 53v26q0 16 10 16h17q11 0 11 -16v-26zM134 19q0 -8 -5 -13.5t-12 -5.5h-10 q-7 0 -12 5.5t-5 13.5v705q0 8 5 13.5t12 5.5h10q7 0 12 -5.5t5 -13.5v-705z"/>
<glyph glyph-name="itilde" horiz-adv-x="204" unicode="ĩ" d="M263 704q0 -45 -20.5 -68t-57.5 -23q-40 0 -67 26l-48 47q-28 28 -48 28q-41 0 -41 -53v-26q0 -16 -10 -16h-17q-11 0 -11 16v26q0 45 21 68t58 23q39 0 66 -26l48 -47q28 -28 49 -28q40 0 40 53v26q0 16 10 16h17q11 0 11 -16v-26zM124 19q0 -7 -6 -13t-13 -6h-6 q-7 0 -13 6t-6 13v499q0 8 6 13.5t13 5.5h6q7 0 13 -5.5t6 -13.5v-499z"/>
<glyph glyph-name="Imacron" horiz-adv-x="224" unicode="Ī" d="M265 856q0 -16 -20 -16h-266q-20 0 -20 16v11q0 15 20 15h266q20 0 20 -15v-11zM134 19q0 -8 -5 -13.5t-12 -5.5h-10q-7 0 -12 5.5t-5 13.5v705q0 8 5 13.5t12 5.5h10q7 0 12 -5.5t5 -13.5v-705z"/>
<glyph glyph-name="imacron" horiz-adv-x="204" unicode="ī" d="M255 702q0 -16 -20 -16h-266q-20 0 -20 16v11q0 15 20 15h266q20 0 20 -15v-11zM124 19q0 -7 -6 -13t-13 -6h-6q-7 0 -13 6t-6 13v499q0 8 6 13.5t13 5.5h6q7 0 13 -5.5t6 -13.5v-499z"/>
<glyph glyph-name="Ibreve" horiz-adv-x="224" unicode="Ĭ" d="M112 794q-64 0 -103 39.5t-39 110.5q0 10 10 10h22q8 0 8 -10q0 -61 29 -86t73 -25t73 25t29 86q0 10 8 10h22q10 0 10 -10q0 -71 -39 -110.5t-103 -39.5zM134 19q0 -8 -5 -13.5t-12 -5.5h-10q-7 0 -12 5.5t-5 13.5v705q0 8 5 13.5t12 5.5h10q7 0 12 -5.5t5 -13.5v-705z "/>
<glyph glyph-name="ibreve" horiz-adv-x="204" unicode="ĭ" d="M102 618q-64 0 -103 39.5t-39 110.5q0 10 10 10h22q8 0 8 -10q0 -61 29 -86t73 -25t73 25t29 86q0 10 8 10h22q10 0 10 -10q0 -71 -39 -110.5t-103 -39.5zM124 19q0 -7 -6 -13t-13 -6h-6q-7 0 -13 6t-6 13v499q0 8 6 13.5t13 5.5h6q7 0 13 -5.5t6 -13.5v-499z"/>
<glyph glyph-name="Iogonek" horiz-adv-x="224" unicode="Į" d="M90 20v704q0 8 5 13.5t12 5.5h10q7 0 12 -5.5t5 -13.5v-708q0 -11 -8 -16l-21 -12q-44 -25 -60 -44t-16 -42q0 -32 19 -47t62 -15q40 0 84 13q6 2 8 2q5 0 5 -7v-18q0 -8 -11 -11q-42 -14 -86 -14q-64 0 -92 28t-28 68q0 34 20 58.5t64 50.5z"/>
<glyph glyph-name="iogonek" horiz-adv-x="204" unicode="į" d="M124 655q0 -8 -5.5 -13.5t-13.5 -5.5h-6q-8 0 -13.5 5.5t-5.5 13.5v74q0 7 6 13t13 6h6q7 0 13 -6t6 -13v-74zM80 20v498q0 8 5 13.5t12 5.5h10q7 0 12 -5.5t5 -13.5v-502q0 -11 -8 -16l-21 -12q-44 -25 -60 -44t-16 -42q0 -32 19 -47t62 -15q40 0 84 13q6 2 8 2 q5 0 5 -7v-18q0 -8 -11 -11q-42 -14 -86 -14q-64 0 -92 28t-28 68q0 33 19.5 57t64.5 52z"/>
<glyph glyph-name="Idotaccent" horiz-adv-x="224" unicode="İ" d="M134 813q0 -8 -5.5 -13.5t-13.5 -5.5h-6q-8 0 -13.5 5.5t-5.5 13.5v74q0 7 6 13t13 6h6q7 0 13 -6t6 -13v-74zM134 19q0 -8 -5 -13.5t-12 -5.5h-10q-7 0 -12 5.5t-5 13.5v705q0 8 5 13.5t12 5.5h10q7 0 12 -5.5t5 -13.5v-705z"/>
<glyph glyph-name="dotlessi" horiz-adv-x="204" unicode="ı" d="M124 19q0 -7 -6 -13t-13 -6h-6q-7 0 -13 6t-6 13v499q0 8 6 13.5t13 5.5h6q7 0 13 -5.5t6 -13.5v-499z"/>
<glyph glyph-name="Jcircumflex" horiz-adv-x="224" unicode="Ĵ" d="M259 801q0 -7 -9 -7h-22q-8 0 -22 17l-94 113l-94 -113q-14 -17 -22 -17h-22q-9 0 -9 7q0 6 4 10l100 128q12 15 23 15h40q11 0 23 -15l100 -128q4 -4 4 -10zM134 -60q0 -72 -32 -103.5t-112 -31.5h-14q-20 0 -20 14v10q0 15 20 15h14q62 0 81 18.5t19 77.5v784 q0 8 5 13.5t12 5.5h10q7 0 12 -5.5t5 -13.5v-784z"/>
<glyph glyph-name="jcircumflex" horiz-adv-x="204" unicode="ĵ" d="M248 625q0 -7 -9 -7h-22q-8 0 -22 17l-94 113l-94 -113q-14 -17 -22 -17h-22q-9 0 -9 7q0 6 4 10l100 128q12 15 23 15h40q11 0 23 -15l100 -128q4 -4 4 -10zM124 -86q0 -62 -25 -85.5t-78 -23.5q-20 0 -42 3q-17 2 -17 14v9q0 12 21 12h38q34 0 46.5 13.5t12.5 57.5v604 q0 19 16 19h11q17 0 17 -19v-604z"/>
<glyph glyph-name="Kcommaaccent" horiz-adv-x="542" unicode="Ķ" d="M285 -55h24q12 0 12 -10q0 -6 -2 -9l-56 -102q-9 -19 -24 -19h-9q-9 0 -9 9q0 5 1 7l43 105q7 19 20 19zM506 730q0 -10 -8 -18l-336 -326l343 -356q7 -7 7 -16q0 -16 -19 -16q-15 0 -23 8l-346 360v-347q0 -8 -5 -13.5t-12 -5.5h-10q-7 0 -12 5.5t-5 13.5v705 q0 8 6 13.5t13 5.5h6q7 0 13 -5.5t6 -13.5v-320l340 332q12 11 23 11q8 0 13.5 -5.5t5.5 -11.5z"/>
<glyph glyph-name="kcommaaccent" horiz-adv-x="444" unicode="ķ" d="M224 -55h24q12 0 12 -10q0 -6 -2 -9l-56 -102q-10 -19 -24 -19h-9q-9 0 -9 9q0 5 1 7l43 105q7 19 20 19zM398 25q6 -7 6 -15q0 -16 -18 -16t-30 12l-242 259v-252q0 -7 -6 -13t-13 -6h-6q-7 0 -13 6t-6 13v711q0 8 6 13.5t13 5.5h6q7 0 13 -5.5t6 -13.5v-421l246 230 q10 9 24 9q20 0 20 -18q0 -9 -7 -15l-245 -224z"/>
<glyph glyph-name="kgreenlandic" horiz-adv-x="444" unicode="ĸ" d="M405 10q0 -16 -19 -16q-18 0 -30 12l-242 259v-246q0 -7 -6 -13t-13 -6h-6q-7 0 -13 6t-6 13v499q0 8 6 13.5t13 5.5h6q7 0 13 -5.5t6 -13.5v-215l246 230q10 9 24 9q9 0 14.5 -5.5t5.5 -12.5q0 -9 -7 -15l-245 -224l246 -260q7 -9 7 -15z"/>
<glyph glyph-name="Lacute" horiz-adv-x="483" unicode="Ĺ" d="M359 946q0 -4 -4 -8l-107 -128q-14 -17 -22 -17h-22q-9 0 -9 7q0 6 4 10l100 128q12 15 23 15h26q11 0 11 -7zM448 17q0 -17 -19 -17h-228q-60 0 -90.5 25.5t-30.5 86.5v612q0 8 5 13.5t12 5.5h10q7 0 12 -5.5t5 -13.5v-612q0 -43 18.5 -57t58.5 -14h228q19 0 19 -16v-8z "/>
<glyph glyph-name="lacute" horiz-adv-x="204" unicode="ĺ" d="M219 946q0 -4 -4 -8l-107 -128q-14 -17 -22 -17h-22q-9 0 -9 7q0 6 4 10l100 128q12 15 23 15h26q11 0 11 -7zM124 13q0 -8 -5 -13.5t-12 -5.5h-10q-7 0 -12 5.5t-5 13.5v711q0 8 5 13.5t12 5.5h10q7 0 12 -5.5t5 -13.5v-711z"/>
<glyph glyph-name="Lcommaaccent" horiz-adv-x="483" unicode="Ļ" d="M255 -55h24q12 0 12 -10q0 -6 -2 -9l-56 -102q-9 -19 -24 -19h-9q-9 0 -9 9q0 5 1 7l43 105q7 19 20 19zM448 17q0 -17 -19 -17h-228q-60 0 -90.5 25.5t-30.5 86.5v612q0 8 5 13.5t12 5.5h10q7 0 12 -5.5t5 -13.5v-612q0 -43 18.5 -57t58.5 -14h228q19 0 19 -16v-8z"/>
<glyph glyph-name="lcommaaccent" horiz-adv-x="204" unicode="ļ" d="M95 -55h24q12 0 12 -10q0 -6 -2 -9l-56 -102q-9 -19 -24 -19h-9q-9 0 -9 9q0 5 1 7l43 105q7 19 20 19zM124 13q0 -8 -5 -13.5t-12 -5.5h-10q-7 0 -12 5.5t-5 13.5v711q0 8 5 13.5t12 5.5h10q7 0 12 -5.5t5 -13.5v-711z"/>
<glyph glyph-name="Lcaron" horiz-adv-x="483" unicode="Ľ" d="M232 533q-10 0 -10 10q0 3 2 9l61 172q7 19 20 19h19q18 0 10 -19l-68 -172q-7 -19 -19 -19h-15zM448 17q0 -17 -19 -17h-228q-60 0 -90.5 25.5t-30.5 86.5v612q0 8 5 13.5t12 5.5h10q7 0 12 -5.5t5 -13.5v-612q0 -43 18.5 -57t58.5 -14h228q19 0 19 -16v-8z"/>
<glyph glyph-name="lcaron" horiz-adv-x="307" unicode="ľ" d="M214 533q-10 0 -10 10q0 3 2 9l61 172q7 19 20 19h19q12 0 12 -10q0 -3 -2 -9l-68 -172q-7 -19 -19 -19h-15zM124 19q0 -8 -5 -13.5t-12 -5.5h-10q-7 0 -12 5.5t-5 13.5v705q0 8 5 13.5t12 5.5h10q7 0 12 -5.5t5 -13.5v-705z"/>
<glyph glyph-name="Ldot" horiz-adv-x="483" unicode="Ŀ" d="M316 371q0 -8 -5.5 -13.5t-13.5 -5.5h-6q-8 0 -13.5 5.5t-5.5 13.5v74q0 7 6 13t13 6h6q7 0 13 -6t6 -13v-74zM448 17q0 -17 -19 -17h-228q-60 0 -90.5 25.5t-30.5 86.5v612q0 8 5 13.5t12 5.5h10q7 0 12 -5.5t5 -13.5v-612q0 -43 18.5 -57t58.5 -14h228q19 0 19 -16v-8z "/>
<glyph glyph-name="ldot" horiz-adv-x="298" unicode="ŀ" d="M266 346q0 -8 -5.5 -13.5t-13.5 -5.5h-6q-8 0 -13.5 5.5t-5.5 13.5v74q0 8 6 13.5t13 5.5h6q7 0 13 -5.5t6 -13.5v-74zM124 19q0 -8 -5 -13.5t-12 -5.5h-10q-7 0 -12 5.5t-5 13.5v705q0 8 5 13.5t12 5.5h10q7 0 12 -5.5t5 -13.5v-705z"/>
<glyph glyph-name="Lslash" horiz-adv-x="539" unicode="Ł" d="M489 17q0 -17 -19 -17h-228q-60 0 -90.5 25.5t-30.5 86.5v214l-72 -104q-4 -5 -8.5 -6.5t-7.5 0.5t-3 5v29q0 14 8 25l83 120v329q0 8 5 13.5t12 5.5h10q7 0 12 -5.5t5 -13.5v-266l72 104q4 5 8.5 6.5t7.5 -0.5t3 -5v-29q0 -14 -8 -25l-83 -120v-277q0 -43 18.5 -57 t58.5 -14h228q19 0 19 -16v-8z"/>
<glyph glyph-name="lslash" horiz-adv-x="286" unicode="ł" d="M256 530q0 -7 -7 -18l-84 -123v-376q0 -8 -5 -13.5t-12 -5.5h-10q-7 0 -12 5.5t-5 13.5v313l-72 -104q-4 -5 -8.5 -7.5t-7.5 -1t-3 7.5v35q0 8 6 16l85 123v329q0 8 5 13.5t12 5.5h10q7 0 12 -5.5t5 -13.5v-266l72 104q6 8 10.5 10t6.5 -0.5t2 -6.5v-35z"/>
<glyph glyph-name="Nacute" horiz-adv-x="651" unicode="Ń" d="M443 946q0 -4 -4 -8l-107 -128q-14 -17 -22 -17h-22q-9 0 -9 7q0 6 4 10l100 128q12 15 23 15h26q11 0 11 -7zM571 45q0 -23 -13 -37t-32 -14q-25 0 -34 7q-11 9 -18 23l-337 675q-3 7 -8 7t-5 -7v-680q0 -8 -5 -13.5t-12 -5.5h-10q-7 0 -12 5.5t-5 13.5v680 q0 22 13.5 35.5t35.5 13.5q33 0 48 -31l336 -674q3 -7 8 -7t5 9v679q0 19 16 19h12q17 0 17 -19v-679z"/>
<glyph glyph-name="nacute" horiz-adv-x="521" unicode="ń" d="M378 771q0 -4 -4 -8l-107 -128q-14 -17 -22 -17h-22q-9 0 -9 7q0 6 4 10l100 128q12 15 23 15h26q11 0 11 -7zM451 19q0 -8 -5.5 -13.5t-13.5 -5.5h-7q-7 0 -12.5 5.5t-5.5 13.5v332q0 152 -135 152q-73 0 -158 -41v-443q0 -7 -6 -13t-13 -6h-6q-7 0 -13 6t-6 13v498 q0 20 18 20h8q18 0 18 -20v-16q85 41 161 41q78 0 127 -46.5t49 -144.5v-332z"/>
<glyph glyph-name="Ncommaaccent" horiz-adv-x="651" unicode="Ņ" d="M323 -55h24q12 0 12 -10q0 -6 -2 -9l-56 -102q-9 -19 -24 -19h-9q-9 0 -9 9q0 5 1 7l43 105q7 19 20 19zM571 45q0 -23 -13 -37t-32 -14q-25 0 -34 7q-11 9 -18 23l-337 675q-3 7 -8 7t-5 -7v-680q0 -8 -5 -13.5t-12 -5.5h-10q-7 0 -12 5.5t-5 13.5v680q0 22 13.5 35.5 t35.5 13.5q33 0 48 -31l336 -674q3 -7 8 -7t5 9v679q0 19 16 19h12q17 0 17 -19v-679z"/>
<glyph glyph-name="ncommaaccent" horiz-adv-x="521" unicode="ņ" d="M249 -55h24q12 0 12 -10q0 -6 -2 -9l-56 -102q-9 -19 -24 -19h-9q-9 0 -9 9q0 5 1 7l43 105q7 19 20 19zM451 19q0 -8 -5.5 -13.5t-13.5 -5.5h-7q-7 0 -12.5 5.5t-5.5 13.5v332q0 152 -135 152q-73 0 -158 -41v-443q0 -7 -6 -13t-13 -6h-6q-7 0 -13 6t-6 13v498 q0 20 18 20h8q18 0 18 -20v-16q85 41 161 41q78 0 127 -46.5t49 -144.5v-332z"/>
<glyph glyph-name="Ncaron" horiz-adv-x="651" unicode="Ň" d="M473 946q0 -6 -4 -10l-100 -128q-12 -15 -23 -15h-40q-11 0 -23 15l-100 128q-4 4 -4 10q0 7 9 7h22q8 0 22 -17l94 -113l94 113q14 17 22 17h22q9 0 9 -7zM571 45q0 -23 -13 -37t-32 -14q-25 0 -34 7q-11 9 -18 23l-337 675q-3 7 -8 7t-5 -7v-680q0 -8 -5 -13.5 t-12 -5.5h-10q-7 0 -12 5.5t-5 13.5v680q0 22 13.5 35.5t35.5 13.5q33 0 48 -31l336 -674q3 -7 8 -7t5 9v679q0 19 16 19h12q17 0 17 -19v-679z"/>
<glyph glyph-name="ncaron" horiz-adv-x="521" unicode="ň" d="M408 771q0 -6 -4 -10l-100 -128q-12 -15 -23 -15h-40q-11 0 -23 15l-100 128q-4 4 -4 10q0 7 9 7h22q8 0 22 -17l94 -113l94 113q14 17 22 17h22q9 0 9 -7zM451 19q0 -8 -5.5 -13.5t-13.5 -5.5h-7q-7 0 -12.5 5.5t-5.5 13.5v332q0 152 -135 152q-73 0 -158 -41v-443 q0 -7 -6 -13t-13 -6h-6q-7 0 -13 6t-6 13v498q0 20 18 20h8q18 0 18 -20v-16q85 41 161 41q78 0 127 -46.5t49 -144.5v-332z"/>
<glyph glyph-name="Eng" horiz-adv-x="651" unicode="Ŋ" d="M571 -61q0 -72 -32 -103.5t-112 -31.5h-14q-20 0 -20 14v10q0 15 20 15h14q62 0 81 18.5t19 77.5v55q-5 -1 -13 -1q-25 0 -40 31l-337 675q-3 7 -8 7t-5 -7v-680q0 -8 -5 -13.5t-12 -5.5h-10q-7 0 -12 5.5t-5 13.5v680q0 22 13.5 35.5t35.5 13.5q33 0 48 -31l336 -674 q3 -7 8 -7t5 9v679q0 19 16 19h12q17 0 17 -19v-785z"/>
<glyph glyph-name="eng" horiz-adv-x="521" unicode="ŋ" d="M451 -86q0 -62 -25 -85.5t-78 -23.5q-20 0 -42 3q-17 2 -17 14v9q0 12 21 12h38q34 0 46.5 13.5t12.5 57.5v437q0 152 -135 152q-73 0 -158 -41v-443q0 -7 -6 -13t-13 -6h-6q-7 0 -13 6t-6 13v498q0 20 18 20h8q18 0 18 -20v-16q85 41 161 41q78 0 127 -46.5t49 -144.5 v-437z"/>
<glyph glyph-name="Omacron" horiz-adv-x="632" unicode="Ō" d="M469 856q0 -16 -20 -16h-266q-20 0 -20 16v11q0 15 20 15h266q20 0 20 -15v-11zM528 309v124q0 273 -212 273t-212 -273v-124q0 -273 212 -273t212 273zM572 309q0 -160 -69 -237.5t-187 -77.5t-187 77.5t-69 237.5v124q0 160 69 237.5t187 77.5t187 -77.5t69 -237.5 v-124z"/>
<glyph glyph-name="omacron" horiz-adv-x="522" unicode="ō" d="M414 701q0 -16 -20 -16h-266q-20 0 -20 16v11q0 15 20 15h266q20 0 20 -15v-11zM423 233v70q0 200 -162 200t-162 -200v-70q0 -200 162 -200t162 200zM467 233q0 -115 -52.5 -177t-153.5 -62t-153.5 62t-52.5 177v70q0 115 52.5 177t153.5 62t153.5 -62t52.5 -177v-70z "/>
<glyph glyph-name="Obreve" horiz-adv-x="632" unicode="Ŏ" d="M317 794q-64 0 -103 39.5t-39 110.5q0 10 10 10h22q8 0 8 -10q0 -61 29 -86t73 -25t73 25t29 86q0 10 8 10h22q10 0 10 -10q0 -71 -39 -110.5t-103 -39.5zM528 309v124q0 273 -212 273t-212 -273v-124q0 -273 212 -273t212 273zM572 309q0 -160 -69 -237.5t-187 -77.5 t-187 77.5t-69 237.5v124q0 160 69 237.5t187 77.5t187 -77.5t69 -237.5v-124z"/>
<glyph glyph-name="obreve" horiz-adv-x="522" unicode="ŏ" d="M263 618q-64 0 -103 39.5t-39 110.5q0 10 10 10h22q8 0 8 -10q0 -61 29 -86t73 -25t73 25t29 86q0 10 8 10h22q10 0 10 -10q0 -71 -39 -110.5t-103 -39.5zM423 233v70q0 200 -162 200t-162 -200v-70q0 -200 162 -200t162 200zM467 233q0 -115 -52.5 -177t-153.5 -62 t-153.5 62t-52.5 177v70q0 115 52.5 177t153.5 62t153.5 -62t52.5 -177v-70z"/>
<glyph glyph-name="Ohungarumlaut" horiz-adv-x="632" unicode="Ő" d="M363 947q0 -4 -4 -8l-107 -128q-14 -17 -22 -17h-22q-9 0 -9 7q0 6 4 10l100 128q12 15 23 15h26q11 0 11 -7zM503 947q0 -4 -4 -8l-107 -128q-14 -17 -22 -17h-22q-9 0 -9 7q0 6 4 10l100 128q12 15 23 15h26q11 0 11 -7zM528 309v124q0 273 -212 273t-212 -273v-124 q0 -273 212 -273t212 273zM572 309q0 -160 -69 -237.5t-187 -77.5t-187 77.5t-69 237.5v124q0 160 69 237.5t187 77.5t187 -77.5t69 -237.5v-124z"/>
<glyph glyph-name="ohungarumlaut" horiz-adv-x="522" unicode="ő" d="M308 771q0 -4 -4 -8l-107 -128q-14 -17 -22 -17h-22q-9 0 -9 7q0 6 4 10l100 128q12 15 23 15h26q11 0 11 -7zM448 771q0 -4 -4 -8l-107 -128q-14 -17 -22 -17h-22q-9 0 -9 7q0 6 4 10l100 128q12 15 23 15h26q11 0 11 -7zM423 233v70q0 200 -162 200t-162 -200v-70 q0 -200 162 -200t162 200zM467 233q0 -115 -52.5 -177t-153.5 -62t-153.5 62t-52.5 177v70q0 115 52.5 177t153.5 62t153.5 -62t52.5 -177v-70z"/>
<glyph glyph-name="OE" horiz-adv-x="982" unicode="Œ" d="M529 252v7v224v7v3q-3 100 -64 156.5t-149 56.5q-90 0 -151 -59.5t-61 -163.5v-224q0 -104 61 -163.5t151 -59.5q88 0 149 56.5t64 156.5v3zM927 17q0 -17 -19 -17h-296q-43 0 -63 19.5t-20 61.5v19q-71 -106 -213 -106q-111 0 -183.5 71t-72.5 194v224q0 124 72.5 194.5 t183.5 70.5q143 0 213 -105v18q0 43 19.5 62.5t63.5 19.5h296q19 0 19 -17v-8q0 -16 -19 -16h-296q-24 0 -31.5 -9t-7.5 -32v-250h335q19 0 19 -16v-10q0 -17 -19 -17h-335v-287q0 -22 7.5 -31t31.5 -9h296q19 0 19 -16v-8z"/>
<glyph glyph-name="oe" horiz-adv-x="890" unicode="œ" d="M434 198v140q0 68 -42.5 116.5t-119.5 48.5t-119.5 -48.5t-42.5 -116.5v-140q0 -68 42.5 -116.5t119.5 -48.5t119.5 48.5t42.5 116.5zM779 298v50q0 66 -36 110.5t-113 44.5q-78 0 -115.5 -45t-37.5 -110v-50h302zM823 277q0 -8 -5.5 -13.5t-13.5 -5.5h-327v-71 q0 -82 44.5 -118t131.5 -36q58 0 142 10h4q17 0 17 -14v-6q0 -16 -19 -19q-84 -10 -147 -10q-155 0 -199 99q-53 -99 -179 -99q-97 0 -151 59.5t-54 144.5v140q0 85 54 144.5t151 59.5q128 0 181 -101q46 101 177 101q98 0 145.5 -54.5t47.5 -139.5v-71z"/>
<glyph glyph-name="Racute" horiz-adv-x="598" unicode="Ŕ" d="M416 947q0 -4 -4 -8l-107 -128q-14 -17 -22 -17h-22q-9 0 -9 7q0 6 4 10l100 128q12 15 23 15h26q11 0 11 -7zM481 539v5q0 90 -55.5 126t-172.5 36q-89 0 -129 -4v-324q13 0 63.5 -0.5t65.5 -0.5q121 0 174.5 34.5t53.5 127.5zM548 29q5 -8 5 -15q0 -14 -16 -14h-13 q-8 0 -15 9l-213 326h-16h-27l-129 1v-317q0 -8 -5 -13.5t-12 -5.5h-10q-7 0 -12 5.5t-5 13.5v706q0 7 5 12.5t12 6.5q70 4 156 4q140 0 206 -46.5t66 -157.5v-5q0 -89 -44 -136.5t-135 -62.5z"/>
<glyph glyph-name="racute" horiz-adv-x="309" unicode="ŕ" d="M271 771q0 -4 -4 -8l-107 -128q-14 -17 -22 -17h-22q-9 0 -9 7q0 6 4 10l100 128q12 15 23 15h26q11 0 11 -7zM280 519q0 -16 -27 -16q-66 0 -139 -46v-438q0 -7 -6 -13t-13 -6h-6q-7 0 -13 6t-6 13v498q0 20 18 20h8q18 0 18 -20v-21q71 46 139 46q27 0 27 -15v-8z"/>
<glyph glyph-name="Rcommaaccent" horiz-adv-x="598" unicode="Ŗ" d="M294 -55h24q12 0 12 -10q0 -6 -2 -9l-56 -102q-10 -19 -24 -19h-9q-9 0 -9 9q0 5 1 7l43 105q7 19 20 19zM481 539v5q0 90 -55.5 126t-172.5 36q-89 0 -129 -4v-324q13 0 63.5 -0.5t65.5 -0.5q121 0 174.5 34.5t53.5 127.5zM548 29q5 -8 5 -15q0 -14 -16 -14h-13 q-8 0 -15 9l-213 326h-16h-27l-129 1v-317q0 -8 -5 -13.5t-12 -5.5h-10q-7 0 -12 5.5t-5 13.5v706q0 7 5 12.5t12 6.5q70 4 156 4q140 0 206 -46.5t66 -157.5v-5q0 -89 -44 -136.5t-135 -62.5z"/>
<glyph glyph-name="rcommaaccent" horiz-adv-x="309" unicode="ŗ" d="M168 -55h24q12 0 12 -10q0 -6 -2 -9l-56 -102q-10 -19 -24 -19h-9q-9 0 -9 9q0 5 1 7l43 105q7 19 20 19zM280 519q0 -16 -27 -16q-66 0 -139 -46v-438q0 -7 -6 -13t-13 -6h-6q-7 0 -13 6t-6 13v498q0 20 18 20h8q18 0 18 -20v-21q71 46 139 46q27 0 27 -15v-8z"/>
<glyph glyph-name="Rcaron" horiz-adv-x="598" unicode="Ř" d="M433 947q0 -6 -4 -10l-100 -128q-12 -15 -23 -15h-40q-11 0 -23 15l-100 128q-4 4 -4 10q0 7 9 7h22q8 0 22 -17l94 -113l94 113q14 17 22 17h22q9 0 9 -7zM481 539v5q0 90 -55.5 126t-172.5 36q-89 0 -129 -4v-324q13 0 63.5 -0.5t65.5 -0.5q121 0 174.5 34.5 t53.5 127.5zM548 29q5 -8 5 -15q0 -14 -16 -14h-13q-8 0 -15 9l-213 326h-16h-27l-129 1v-317q0 -8 -5 -13.5t-12 -5.5h-10q-7 0 -12 5.5t-5 13.5v706q0 7 5 12.5t12 6.5q70 4 156 4q140 0 206 -46.5t66 -157.5v-5q0 -89 -44 -136.5t-135 -62.5z"/>
<glyph glyph-name="rcaron" horiz-adv-x="309" unicode="ř" d="M301 771q0 -6 -4 -10l-100 -128q-12 -15 -23 -15h-40q-11 0 -23 15l-100 128q-4 4 -4 10q0 7 9 7h22q8 0 22 -17l94 -113l94 113q14 17 22 17h22q9 0 9 -7zM280 519q0 -16 -27 -16q-66 0 -139 -46v-438q0 -7 -6 -13t-13 -6h-6q-7 0 -13 6t-6 13v498q0 20 18 20h8 q18 0 18 -20v-21q71 46 139 46q27 0 27 -15v-8z"/>
<glyph glyph-name="Sacute" horiz-adv-x="530" unicode="Ś" d="M475 185q0 -191 -232 -191q-84 0 -146 10q-27 4 -27 21v4q0 17 19 17h4q80 -10 150 -10q105 0 145.5 39.5t40.5 109.5q0 19 -3 33t-13 28.5t-18.5 24t-31.5 26t-37.5 26t-50.5 31.5l-63 39q-82 50 -119.5 92t-37.5 108q0 44 19.5 75.5t54 48.5t74 24t86.5 7q74 0 139 -9 q27 -3 27 -20v-5q0 -17 -21 -17q-1 0 -4.5 0.5t-5.5 0.5q-72 8 -136 8q-188 0 -188 -113q0 -50 30.5 -83t104.5 -78l64 -39q98 -59 137 -101t39 -107zM382 947q0 -4 -4 -8l-107 -128q-14 -17 -22 -17h-22q-9 0 -9 7q0 6 4 10l100 128q12 15 23 15h26q11 0 11 -7z"/>
<glyph glyph-name="sacute" horiz-adv-x="440" unicode="ś" d="M337 771q0 -4 -4 -8l-107 -128q-14 -17 -22 -17h-22q-9 0 -9 7q0 6 4 10l100 128q12 15 23 15h26q11 0 11 -7zM390 133q0 -139 -173 -139q-73 0 -145 14q-22 5 -22 16v11q0 18 22 14q96 -16 147 -16q60 0 93.5 21.5t33.5 78.5q0 31 -21.5 52.5t-84.5 56.5l-64 35 q-64 35 -92.5 65t-28.5 77q0 65 43 94t110 29q66 0 143 -9q21 -3 21 -17v-8q0 -18 -21 -16q-95 11 -139 11q-55 0 -84 -17.5t-29 -66.5q0 -31 23 -53t74 -51l67 -37q69 -38 98 -68.5t29 -76.5z"/>
<glyph glyph-name="Scircumflex" horiz-adv-x="530" unicode="Ŝ" d="M475 185q0 -191 -232 -191q-84 0 -146 10q-27 4 -27 21v4q0 17 19 17h4q80 -10 150 -10q105 0 145.5 39.5t40.5 109.5q0 19 -3 33t-13 28.5t-18.5 24t-31.5 26t-37.5 26t-50.5 31.5l-63 39q-82 50 -119.5 92t-37.5 108q0 44 19.5 75.5t54 48.5t74 24t86.5 7q74 0 139 -9 q27 -3 27 -20v-5q0 -17 -21 -17q-1 0 -4.5 0.5t-5.5 0.5q-72 8 -136 8q-188 0 -188 -113q0 -50 30.5 -83t104.5 -78l64 -39q98 -59 137 -101t39 -107zM408 801q0 -7 -9 -7h-22q-8 0 -22 17l-94 113l-94 -113q-14 -17 -22 -17h-22q-9 0 -9 7q0 6 4 10l100 128q12 15 23 15h40 q11 0 23 -15l100 -128q4 -4 4 -10z"/>
<glyph glyph-name="scircumflex" horiz-adv-x="440" unicode="ŝ" d="M357 625q0 -7 -9 -7h-22q-8 0 -22 17l-94 113l-94 -113q-14 -17 -22 -17h-22q-9 0 -9 7q0 6 4 10l100 128q12 15 23 15h40q11 0 23 -15l100 -128q4 -4 4 -10zM390 133q0 -139 -173 -139q-73 0 -145 14q-22 5 -22 16v11q0 18 22 14q96 -16 147 -16q60 0 93.5 21.5 t33.5 78.5q0 31 -21.5 52.5t-84.5 56.5l-64 35q-64 35 -92.5 65t-28.5 77q0 65 43 94t110 29q66 0 143 -9q21 -3 21 -17v-8q0 -18 -21 -16q-95 11 -139 11q-55 0 -84 -17.5t-29 -66.5q0 -31 23 -53t74 -51l67 -37q69 -38 98 -68.5t29 -76.5z"/>
<glyph glyph-name="Scedilla" horiz-adv-x="530" unicode="Ş" d="M475 185q0 -191 -232 -191q-84 0 -146 10q-27 4 -27 21v4q0 17 19 17h4q80 -10 150 -10q105 0 145.5 39.5t40.5 109.5q0 19 -3 33t-13 28.5t-18.5 24t-31.5 26t-37.5 26t-50.5 31.5l-63 39q-82 50 -119.5 92t-37.5 108q0 44 19.5 75.5t54 48.5t74 24t86.5 7q74 0 139 -9 q27 -3 27 -20v-5q0 -17 -21 -17q-1 0 -4.5 0.5t-5.5 0.5q-72 8 -136 8q-188 0 -188 -113q0 -50 30.5 -83t104.5 -78l64 -39q98 -59 137 -101t39 -107zM284 -62q0 -4 -4 -8l-91 -108q-14 -17 -22 -17h-22q-9 0 -9 7q0 6 4 10l84 108q12 15 23 15h26q11 0 11 -7z"/>
<glyph glyph-name="scedilla" horiz-adv-x="440" unicode="ş" d="M249 -62q0 -4 -4 -8l-91 -108q-14 -17 -22 -17h-22q-9 0 -9 7q0 6 4 10l84 108q12 15 23 15h26q11 0 11 -7zM390 133q0 -139 -173 -139q-73 0 -145 14q-22 5 -22 16v11q0 18 22 14q96 -16 147 -16q60 0 93.5 21.5t33.5 78.5q0 31 -21.5 52.5t-84.5 56.5l-64 35 q-64 35 -92.5 65t-28.5 77q0 65 43 94t110 29q66 0 143 -9q21 -3 21 -17v-8q0 -18 -21 -16q-95 11 -139 11q-55 0 -84 -17.5t-29 -66.5q0 -31 23 -53t74 -51l67 -37q69 -38 98 -68.5t29 -76.5z"/>
<glyph glyph-name="Scaron" horiz-adv-x="530" unicode="Š" d="M412 947q0 -6 -4 -10l-100 -128q-12 -15 -23 -15h-40q-11 0 -23 15l-100 128q-4 4 -4 10q0 7 9 7h22q8 0 22 -17l94 -113l94 113q14 17 22 17h22q9 0 9 -7zM475 185q0 -191 -232 -191q-84 0 -146 10q-27 4 -27 21v4q0 17 19 17h4q80 -10 150 -10q105 0 145.5 39.5 t40.5 109.5q0 19 -3 33t-13 28.5t-18.5 24t-31.5 26t-37.5 26t-50.5 31.5l-63 39q-82 50 -119.5 92t-37.5 108q0 44 19.5 75.5t54 48.5t74 24t86.5 7q74 0 139 -9q27 -3 27 -20v-5q0 -17 -21 -17q-1 0 -4.5 0.5t-5.5 0.5q-72 8 -136 8q-188 0 -188 -113q0 -50 30.5 -83 t104.5 -78l64 -39q98 -59 137 -101t39 -107z"/>
<glyph glyph-name="scaron" horiz-adv-x="440" unicode="š" d="M367 771q0 -6 -4 -10l-100 -128q-12 -15 -23 -15h-40q-11 0 -23 15l-100 128q-4 4 -4 10q0 7 9 7h22q8 0 22 -17l94 -113l94 113q14 17 22 17h22q9 0 9 -7zM390 133q0 -139 -173 -139q-73 0 -145 14l-12 3t-7 4.5t-3 8.5v11q0 18 22 14q96 -16 147 -16q60 0 93.5 21.5 t33.5 78.5q0 31 -21.5 52.5t-84.5 56.5l-64 35q-64 35 -92.5 65t-28.5 77q0 65 43 94t110 29q66 0 143 -9q8 -1 12 -2.5t6.5 -5t2.5 -9.5v-8q0 -17 -13 -17q-1 0 -3.5 0.5t-4.5 0.5q-95 11 -139 11q-55 0 -84 -17.5t-29 -66.5q0 -31 23 -53t74 -51l67 -37q69 -38 98 -68.5 t29 -76.5z"/>
<glyph glyph-name="uni0162" horiz-adv-x="571" unicode="Ţ" d="M279 -55h24q12 0 12 -10q0 -6 -2 -9l-56 -102q-9 -19 -24 -19h-9q-9 0 -9 9q0 5 1 7l43 105q7 19 20 19zM541 717q0 -15 -19 -15h-214v-683q0 -8 -5 -13.5t-12 -5.5h-10q-7 0 -12 5.5t-5 13.5v683h-215q-19 0 -19 15v9q0 17 19 17h473q19 0 19 -17v-9z"/>
<glyph glyph-name="uni0163" horiz-adv-x="380" unicode="ţ" d="M204 -55h24q12 0 12 -10q0 -6 -2 -9l-56 -102q-10 -19 -24 -19h-9q-9 0 -9 9q0 5 1 7l43 105q7 19 20 19zM340 13q0 -14 -17 -16q-23 -3 -52 -3q-57 0 -85 23.5t-28 84.5v394h-99q-19 0 -19 16v10q0 15 19 15h99v103q0 19 17 19h11q16 0 16 -19v-103h119q19 0 19 -15v-10 q0 -16 -19 -16h-119v-394q0 -42 16 -55.5t53 -13.5h48q21 0 21 -14v-6z"/>
<glyph glyph-name="Tcaron" horiz-adv-x="571" unicode="Ť" d="M433 947q0 -6 -4 -10l-100 -128q-12 -15 -23 -15h-40q-11 0 -23 15l-100 128q-4 4 -4 10q0 7 9 7h22q8 0 22 -17l94 -113l94 113q14 17 22 17h22q9 0 9 -7zM541 717q0 -15 -19 -15h-214v-683q0 -8 -5 -13.5t-12 -5.5h-10q-7 0 -12 5.5t-5 13.5v683h-215q-19 0 -19 15v9 q0 17 19 17h473q19 0 19 -17v-9z"/>
<glyph glyph-name="tcaron" horiz-adv-x="502" unicode="ť" d="M410 533q-10 0 -10 10q0 3 2 9l61 172q7 19 20 19h19q12 0 12 -10q0 -3 -2 -9l-68 -172q-7 -19 -19 -19h-15zM340 13q0 -14 -17 -16q-23 -3 -52 -3q-57 0 -85 23.5t-28 84.5v394h-99q-19 0 -19 16v10q0 15 19 15h99v103q0 19 17 19h11q16 0 16 -19v-103h119q19 0 19 -15 v-10q0 -16 -19 -16h-119v-394q0 -42 16 -55.5t53 -13.5h48q21 0 21 -14v-6z"/>
<glyph glyph-name="Tbar" horiz-adv-x="571" unicode="Ŧ" d="M522 497h-214v-478q0 -8 -5 -13.5t-12 -5.5h-10q-7 0 -12 5.5t-5 13.5v478h-215q-19 0 -19 15v9q0 17 19 17h215v164h-215q-19 0 -19 15v9q0 17 19 17h473q19 0 19 -17v-9q0 -15 -19 -15h-214v-164h214q19 0 19 -17v-9q0 -15 -19 -15z"/>
<glyph glyph-name="tbar" horiz-adv-x="380" unicode="ŧ" d="M321 356h-119v-254q0 -42 16 -55.5t53 -13.5h48q21 0 21 -14v-6q0 -14 -17 -16q-23 -3 -52 -3q-57 0 -85 23.5t-28 84.5v254h-99q-19 0 -19 16v10q0 15 19 15h99v99h-99q-19 0 -19 16v10q0 15 19 15h99v103q0 19 17 19h11q16 0 16 -19v-103h119q19 0 19 -15v-10 q0 -16 -19 -16h-119v-99h119q19 0 19 -15v-10q0 -16 -19 -16z"/>
<glyph glyph-name="Utilde" horiz-adv-x="633" unicode="Ũ" d="M477 879q0 -45 -20.5 -68t-57.5 -23q-40 0 -67 26l-48 47q-28 28 -48 28q-41 0 -41 -53v-26q0 -16 -10 -16h-17q-11 0 -11 16v26q0 45 21 68t58 23q39 0 66 -26l48 -47q28 -28 49 -28q40 0 40 53v26q0 16 10 16h17q11 0 11 -16v-26zM553 264q0 -130 -58.5 -200 t-177.5 -70q-120 0 -178.5 70t-58.5 200v460q0 8 5 13.5t12 5.5h10q7 0 12 -5.5t5 -13.5v-460q0 -113 45.5 -171t147.5 -58t147 58t45 171v460q0 8 5 13.5t12 5.5h10q7 0 12 -5.5t5 -13.5v-460z"/>
<glyph glyph-name="utilde" horiz-adv-x="521" unicode="ũ" d="M425 703q0 -45 -20.5 -68t-57.5 -23q-40 0 -67 26l-48 47q-28 28 -48 28q-41 0 -41 -53v-26q0 -16 -10 -16h-17q-11 0 -11 16v26q0 45 21 68t58 23q39 0 66 -26l48 -47q28 -28 49 -28q40 0 40 53v26q0 16 10 16h17q11 0 11 -16v-26zM70 518q0 8 5.5 13.5t13.5 5.5h7 q7 0 12.5 -5.5t5.5 -13.5v-332q0 -152 135 -152q72 1 158 41v443q0 8 5.5 13.5t13.5 5.5h6q8 0 13.5 -5.5t5.5 -13.5v-498q0 -20 -18 -20h-8q-18 0 -18 20v16q-85 -41 -161 -41q-78 0 -127 46.5t-49 144.5v332z"/>
<glyph glyph-name="Umacron" horiz-adv-x="633" unicode="Ū" d="M470 857q0 -16 -20 -16h-266q-20 0 -20 16v11q0 15 20 15h266q20 0 20 -15v-11zM553 264q0 -130 -58.5 -200t-177.5 -70q-120 0 -178.5 70t-58.5 200v460q0 8 5 13.5t12 5.5h10q7 0 12 -5.5t5 -13.5v-460q0 -113 45.5 -171t147.5 -58t147 58t45 171v460q0 8 5 13.5 t12 5.5h10q7 0 12 -5.5t5 -13.5v-460z"/>
<glyph glyph-name="umacron" horiz-adv-x="521" unicode="ū" d="M414 702q0 -16 -20 -16h-266q-20 0 -20 16v11q0 15 20 15h266q20 0 20 -15v-11zM70 518q0 8 5.5 13.5t13.5 5.5h7q7 0 12.5 -5.5t5.5 -13.5v-332q0 -152 135 -152q72 1 158 41v443q0 8 5.5 13.5t13.5 5.5h6q8 0 13.5 -5.5t5.5 -13.5v-498q0 -20 -18 -20h-8q-18 0 -18 20 v16q-85 -41 -161 -41q-78 0 -127 46.5t-49 144.5v332z"/>
<glyph glyph-name="Ubreve" horiz-adv-x="633" unicode="Ŭ" d="M317 793q-64 0 -103 39.5t-39 110.5q0 10 10 10h22q8 0 8 -10q0 -61 29 -86t73 -25t73 25t29 86q0 10 8 10h22q10 0 10 -10q0 -71 -39 -110.5t-103 -39.5zM553 264q0 -130 -58.5 -200t-177.5 -70q-120 0 -178.5 70t-58.5 200v460q0 8 5 13.5t12 5.5h10q7 0 12 -5.5 t5 -13.5v-460q0 -113 45.5 -171t147.5 -58t147 58t45 171v460q0 8 5 13.5t12 5.5h10q7 0 12 -5.5t5 -13.5v-460z"/>
<glyph glyph-name="ubreve" horiz-adv-x="521" unicode="ŭ" d="M263 618q-64 0 -103 39.5t-39 110.5q0 10 10 10h22q8 0 8 -10q0 -61 29 -86t73 -25t73 25t29 86q0 10 8 10h22q10 0 10 -10q0 -71 -39 -110.5t-103 -39.5zM70 518q0 8 5.5 13.5t13.5 5.5h7q7 0 12.5 -5.5t5.5 -13.5v-332q0 -152 135 -152q72 1 158 41v443q0 8 5.5 13.5 t13.5 5.5h6q8 0 13.5 -5.5t5.5 -13.5v-498q0 -20 -18 -20h-8q-18 0 -18 20v16q-85 -41 -161 -41q-78 0 -127 46.5t-49 144.5v332z"/>
<glyph glyph-name="Uring" horiz-adv-x="633" unicode="Ů" d="M375 878q0 24 -17 41t-41 17t-40.5 -17t-16.5 -41t16.5 -41t40.5 -17t41 17t17 41zM410 878q0 -38 -27.5 -65.5t-65.5 -27.5t-65.5 27.5t-27.5 65.5t27.5 65.5t65.5 27.5t65.5 -27.5t27.5 -65.5zM553 264q0 -130 -58.5 -200t-177.5 -70q-120 0 -178.5 70t-58.5 200v460 q0 8 5 13.5t12 5.5h10q7 0 12 -5.5t5 -13.5v-460q0 -113 45.5 -171t147.5 -58t147 58t45 171v460q0 8 5 13.5t12 5.5h10q7 0 12 -5.5t5 -13.5v-460z"/>
<glyph glyph-name="uring" horiz-adv-x="521" unicode="ů" d="M319 698q0 24 -17 41t-41 17t-40.5 -17t-16.5 -41t16.5 -41t40.5 -17t41 17t17 41zM354 698q0 -38 -27.5 -65.5t-65.5 -27.5t-65.5 27.5t-27.5 65.5t27.5 65.5t65.5 27.5t65.5 -27.5t27.5 -65.5zM70 518q0 8 5.5 13.5t13.5 5.5h7q7 0 12.5 -5.5t5.5 -13.5v-332 q0 -152 135 -152q72 1 158 41v443q0 8 5.5 13.5t13.5 5.5h6q8 0 13.5 -5.5t5.5 -13.5v-498q0 -20 -18 -20h-8q-18 0 -18 20v16q-85 -41 -161 -41q-78 0 -127 46.5t-49 144.5v332z"/>
<glyph glyph-name="Uhungarumlaut" horiz-adv-x="633" unicode="Ű" d="M364 946q0 -4 -4 -8l-107 -128q-14 -17 -22 -17h-22q-9 0 -9 7q0 6 4 10l100 128q12 15 23 15h26q11 0 11 -7zM504 946q0 -4 -4 -8l-107 -128q-14 -17 -22 -17h-22q-9 0 -9 7q0 6 4 10l100 128q12 15 23 15h26q11 0 11 -7zM553 264q0 -130 -58.5 -200t-177.5 -70 q-120 0 -178.5 70t-58.5 200v460q0 8 5 13.5t12 5.5h10q7 0 12 -5.5t5 -13.5v-460q0 -113 45.5 -171t147.5 -58t147 58t45 171v460q0 8 5 13.5t12 5.5h10q7 0 12 -5.5t5 -13.5v-460z"/>
<glyph glyph-name="uhungarumlaut" horiz-adv-x="521" unicode="ű" d="M308 771q0 -4 -4 -8l-107 -128q-14 -17 -22 -17h-22q-9 0 -9 7q0 6 4 10l100 128q12 15 23 15h26q11 0 11 -7zM448 771q0 -4 -4 -8l-107 -128q-14 -17 -22 -17h-22q-9 0 -9 7q0 6 4 10l100 128q12 15 23 15h26q11 0 11 -7zM70 518q0 8 5.5 13.5t13.5 5.5h7q7 0 12.5 -5.5 t5.5 -13.5v-332q0 -152 135 -152q72 1 158 41v443q0 8 5.5 13.5t13.5 5.5h6q8 0 13.5 -5.5t5.5 -13.5v-498q0 -20 -18 -20h-8q-18 0 -18 20v16q-85 -41 -161 -41q-78 0 -127 46.5t-49 144.5v332z"/>
<glyph glyph-name="Uogonek" horiz-adv-x="633" unicode="Ų" d="M553 264q-2 -182 -114 -245l-89 -50q-48 -27 -63.5 -42t-15.5 -36q0 -53 84 -53q33 0 84 12q13 3 13 -7v-10q0 -10 -11 -14q-42 -14 -86 -14q-64 0 -92 25t-28 60q0 33 18.5 53t65.5 47l7 4h-9q-120 0 -178.5 70t-58.5 200v460q0 8 5 13.5t12 5.5h10q7 0 12 -5.5t5 -13.5 v-460q0 -113 45.5 -171t147.5 -58t147 58t45 171v460q0 8 5 13.5t12 5.5h10q7 0 12 -5.5t5 -13.5v-460z"/>
<glyph glyph-name="uogonek" horiz-adv-x="521" unicode="ų" d="M407 21v15q-85 -41 -161 -41q-78 0 -127 46.5t-49 144.5v332q0 8 5.5 13.5t13.5 5.5h7q7 0 12.5 -5.5t5.5 -13.5v-332q0 -80 36.5 -116t96.5 -36h2q69 0 158 41v443q0 8 5.5 13.5t13.5 5.5h6q8 0 13.5 -5.5t5.5 -13.5v-498q0 -14 -9 -18l-59 -33q-48 -27 -63.5 -42 t-15.5 -36q0 -53 69 -53q32 0 68 12q19 5 19 -10v-6q0 -11 -15 -17q-33 -12 -72 -12q-105 0 -105 85q0 33 18.5 53t65.5 47z"/>
<glyph glyph-name="Wcircumflex" horiz-adv-x="788" unicode="Ŵ" d="M541 801q0 -7 -9 -7h-22q-8 0 -22 17l-94 113l-94 -113q-14 -17 -22 -17h-22q-9 0 -9 7q0 6 4 10l100 128q12 15 23 15h40q11 0 23 -15l100 -128q4 -4 4 -10zM743 720l-123 -679q-9 -47 -48 -47q-35 0 -48 45l-122 387q-4 12 -8 12t-8 -12l-122 -387q-13 -45 -48 -45 q-39 0 -48 47l-123 679q-2 9 2.5 16t13.5 7h10q15 0 18 -16l121 -677q3 -15 6 -15q4 0 8 15l125 389q12 39 45 39t45 -39l125 -389q4 -15 8 -15q3 0 6 15l121 677q3 16 18 16h10q9 0 13.5 -7t2.5 -16z"/>
<glyph glyph-name="wcircumflex" horiz-adv-x="752" unicode="ŵ" d="M522 625q0 -7 -9 -7h-22q-8 0 -22 17l-94 113l-94 -113q-14 -17 -22 -17h-22q-9 0 -9 7q0 6 4 10l100 128q12 15 23 15h40q11 0 23 -15l100 -128q4 -4 4 -10zM702 513l-110 -465q-7 -29 -18 -41.5t-34 -12.5q-22 0 -32.5 13t-18.5 44l-106 380q-1 5 -2.5 7t-2 2h-2.5 h-2.5t-2 -2t-2.5 -7l-106 -380q-8 -31 -18.5 -44t-32.5 -13q-23 0 -34 12.5t-18 41.5l-110 465q0 1 -0.5 2.5t-0.5 2.5q0 8 5.5 13.5t13.5 5.5h6q12 0 16 -14l108 -465q3 -13 5.5 -18.5t4 -6t4.5 -0.5q6 0 13 24l108 386q10 36 43 36t43 -36l108 -386q7 -24 13 -24 q3 0 4.5 0.5t4 6t5.5 18.5l108 465q4 14 16 14h6q8 0 13.5 -5.5t5.5 -13.5q0 -1 -0.5 -2.5t-0.5 -2.5z"/>
<glyph glyph-name="Ycircumflex" horiz-adv-x="551" unicode="Ŷ" d="M422 801q0 -7 -9 -7h-22q-8 0 -22 17l-94 113l-94 -113q-14 -17 -22 -17h-22q-9 0 -9 7q0 6 4 10l100 128q12 15 23 15h40q11 0 23 -15l100 -128q4 -4 4 -10zM502 716l-158 -349q-22 -48 -47 -58v-290q0 -8 -5 -13.5t-12 -5.5h-10q-7 0 -12 5.5t-5 13.5v290 q-25 10 -47 58l-158 349q-3 8 -3 13q0 14 17 14h10q10 0 16 -12l157 -350q10 -22 15.5 -28.5t14.5 -6.5t14.5 6.5t15.5 28.5l157 350q6 12 16 12h10q17 0 17 -14q0 -5 -3 -13z"/>
<glyph glyph-name="ycircumflex" horiz-adv-x="486" unicode="ŷ" d="M393 625q0 -7 -9 -7h-22q-8 0 -22 17l-94 113l-94 -113q-14 -17 -22 -17h-22q-9 0 -9 7q0 6 4 10l100 128q12 15 23 15h40q11 0 23 -15l100 -128q4 -4 4 -10zM446 512l-164 -568q-23 -80 -57.5 -109.5t-104.5 -29.5q-26 0 -62 6q-20 3 -20 14v11q0 17 21 14q45 -6 65 -6 q54 0 77.5 21.5t41.5 87.5l13 47h-14q-25 0 -38 11t-23 45l-135 457q-1 2 -1 7q0 17 17 17h9q12 0 16 -14l135 -460q6 -22 23 -22h23l137 483q4 13 18 13h9q15 0 15 -17q0 -5 -1 -8z"/>
<glyph glyph-name="Ydieresis" horiz-adv-x="551" unicode="Ÿ" d="M222 833q0 -8 -5.5 -13.5t-13.5 -5.5h-6q-8 0 -13.5 5.5t-5.5 13.5v74q0 7 6 13t13 6h6q7 0 13 -6t6 -13v-74zM372 833q0 -8 -5.5 -13.5t-13.5 -5.5h-6q-8 0 -13.5 5.5t-5.5 13.5v74q0 7 6 13t13 6h6q7 0 13 -6t6 -13v-74zM502 716l-158 -349q-22 -48 -47 -58v-290 q0 -8 -5 -13.5t-12 -5.5h-10q-7 0 -12 5.5t-5 13.5v290q-25 10 -47 58l-158 349q-3 8 -3 13q0 14 17 14h10q10 0 16 -12l157 -350q10 -22 15.5 -28.5t14.5 -6.5t14.5 6.5t15.5 28.5l157 350q6 12 16 12h10q17 0 17 -14q0 -5 -3 -13z"/>
<glyph glyph-name="Zacute" horiz-adv-x="595" unicode="Ź" d="M415 947q0 -4 -4 -8l-107 -128q-14 -17 -22 -17h-22q-9 0 -9 7q0 6 4 10l100 128q12 15 23 15h26q11 0 11 -7zM535 16q0 -16 -21 -16h-392q-54 0 -54 43q0 19 11 36l379 610q2 3 2 7q0 6 -8 6h-362q-21 0 -21 15v10q0 16 21 16h362q29 0 41 -8q17 -10 17 -32 q0 -15 -11 -34l-382 -617q-2 -4 -2 -7q0 -4 7 -4h392q21 0 21 -15v-10z"/>
<glyph glyph-name="zacute" horiz-adv-x="446" unicode="ź" d="M360 771q0 -4 -4 -8l-107 -128q-14 -17 -22 -17h-22q-9 0 -9 7q0 6 4 10l100 128q12 15 23 15h26q11 0 11 -7zM406 16q0 -16 -20 -16h-290q-27 0 -41.5 11.5t-14.5 29.5q0 22 12 37l299 399q4 6 4 10q0 9 -14 9h-263q-20 0 -20 15v10q0 16 20 16h264q24 0 40 -12t16 -31 q0 -23 -16 -45l-290 -389q-6 -10 -6 -12q0 -7 10 -7h290q20 0 20 -15v-10z"/>
<glyph glyph-name="Zdotaccent" horiz-adv-x="595" unicode="Ż" d="M320 833q0 -8 -5.5 -13.5t-13.5 -5.5h-6q-8 0 -13.5 5.5t-5.5 13.5v74q0 7 6 13t13 6h6q7 0 13 -6t6 -13v-74zM535 16q0 -16 -21 -16h-392q-54 0 -54 43q0 19 11 36l379 610q2 3 2 7q0 6 -8 6h-362q-21 0 -21 15v10q0 16 21 16h362q29 0 41 -8q17 -10 17 -32 q0 -15 -11 -34l-382 -617q-2 -4 -2 -7q0 -4 7 -4h392q21 0 21 -15v-10z"/>
<glyph glyph-name="zdotaccent" horiz-adv-x="446" unicode="ż" d="M245 660q0 -8 -5.5 -13.5t-13.5 -5.5h-6q-8 0 -13.5 5.5t-5.5 13.5v74q0 8 5.5 13.5t13.5 5.5h6q8 0 13.5 -5.5t5.5 -13.5v-74zM406 16q0 -16 -20 -16h-290q-27 0 -41.5 11.5t-14.5 29.5q0 22 12 37l299 399q4 6 4 10q0 9 -14 9h-263q-20 0 -20 15v10q0 16 20 16h264 q24 0 40 -12t16 -31q0 -23 -16 -45l-290 -389q-6 -10 -6 -12q0 -7 10 -7h290q20 0 20 -15v-10z"/>
<glyph glyph-name="Zcaron" horiz-adv-x="595" unicode="Ž" d="M444 947q0 -6 -4 -10l-100 -128q-12 -15 -23 -15h-40q-11 0 -23 15l-100 128q-4 4 -4 10q0 7 9 7h22q8 0 22 -17l94 -113l94 113q14 17 22 17h22q9 0 9 -7zM535 16q0 -16 -21 -16h-392q-54 0 -54 43q0 19 11 36l379 610q2 3 2 7q0 6 -8 6h-362q-21 0 -21 15v10 q0 16 21 16h362q29 0 41 -8q17 -10 17 -32q0 -15 -11 -34l-382 -617q-2 -4 -2 -7q0 -4 7 -4h392q21 0 21 -15v-10z"/>
<glyph glyph-name="zcaron" horiz-adv-x="446" unicode="ž" d="M370 771q0 -6 -4 -10l-100 -128q-12 -15 -23 -15h-40q-11 0 -23 15l-100 128q-4 4 -4 10q0 7 9 7h22q8 0 22 -17l94 -113l94 113q14 17 22 17h22q9 0 9 -7zM406 16q0 -16 -20 -16h-286q-60 0 -60 41q0 22 18 45l293 391q4 5 4 10q0 9 -14 9h-263q-20 0 -20 15v10 q0 16 20 16h262q58 0 58 -43q0 -23 -16 -45l-290 -389q-5 -8 -5 -12q0 -7 9 -7h290q20 0 20 -15v-10z"/>
<glyph glyph-name="florin" d="M509 732v-3l-1 -7q-1 -13 -23 -13h-50q-36 0 -54.5 -17.5t-24.5 -61.5l-30 -218h149q16 0 16 -15v-2l-1 -9q-2 -17 -21 -17h-149l-52 -375q-16 -118 -129 -118q-31 0 -51 3q-17 3 -17 13v3l1 7q1 13 23 13h50q36 0 54.5 17.5t24.5 61.5l52 375h-129q-17 0 -17 15v2l1 9 q2 17 22 17h129l30 218q16 118 129 118q32 0 51 -3q17 -3 17 -13z" unicode="ƒ"/>
<glyph glyph-name="Scommaaccent" horiz-adv-x="530" unicode="Ș" d="M475 185q0 -191 -232 -191q-84 0 -146 10q-27 4 -27 21v4q0 17 19 17h4q80 -10 150 -10q105 0 145.5 39.5t40.5 109.5q0 19 -3 33t-13 28.5t-18.5 24t-31.5 26t-37.5 26t-50.5 31.5l-63 39q-82 50 -119.5 92t-37.5 108q0 44 19.5 75.5t54 48.5t74 24t86.5 7q74 0 139 -9 q27 -3 27 -20v-5q0 -17 -21 -17q-1 0 -4.5 0.5t-5.5 0.5q-72 8 -136 8q-188 0 -188 -113q0 -50 30.5 -83t104.5 -78l64 -39q98 -59 137 -101t39 -107zM256 -55h24q12 0 12 -10q0 -6 -2 -9l-56 -102q-10 -19 -24 -19h-9q-9 0 -9 9q0 5 1 7l43 105q7 19 20 19z"/>
<glyph glyph-name="scommaaccent" horiz-adv-x="440" unicode="ș" d="M212 -55h24q12 0 12 -10q0 -6 -2 -9l-56 -102q-10 -19 -24 -19h-9q-9 0 -9 9q0 5 1 7l43 105q7 19 20 19zM390 133q0 -139 -173 -139q-73 0 -145 14q-22 5 -22 16v11q0 18 22 14q96 -16 147 -16q60 0 93.5 21.5t33.5 78.5q0 31 -21.5 52.5t-84.5 56.5l-64 35 q-64 35 -92.5 65t-28.5 77q0 65 43 94t110 29q66 0 143 -9q21 -3 21 -17v-8q0 -18 -21 -16q-95 11 -139 11q-55 0 -84 -17.5t-29 -66.5q0 -31 23 -53t74 -51l67 -37q69 -38 98 -68.5t29 -76.5z"/>
<glyph glyph-name="uni021A" horiz-adv-x="571" unicode="Ț" d="M279 -55h24q12 0 12 -10q0 -6 -2 -9l-56 -102q-9 -19 -24 -19h-9q-9 0 -9 9q0 5 1 7l43 105q7 19 20 19zM541 717q0 -15 -19 -15h-214v-683q0 -8 -5 -13.5t-12 -5.5h-10q-7 0 -12 5.5t-5 13.5v683h-215q-19 0 -19 15v9q0 17 19 17h473q19 0 19 -17v-9z"/>
<glyph glyph-name="uni021B" horiz-adv-x="380" unicode="ț" d="M204 -55h24q12 0 12 -10q0 -6 -2 -9l-56 -102q-10 -19 -24 -19h-9q-9 0 -9 9q0 5 1 7l43 105q7 19 20 19zM340 13q0 -14 -17 -16q-23 -3 -52 -3q-57 0 -85 23.5t-28 84.5v394h-99q-19 0 -19 16v10q0 15 19 15h99v103q0 19 17 19h11q16 0 16 -19v-103h119q19 0 19 -15v-10 q0 -16 -19 -16h-119v-394q0 -42 16 -55.5t53 -13.5h48q21 0 21 -14v-6z"/>
<glyph glyph-name="dotlessj" horiz-adv-x="204" unicode="ȷ" d="M124 -86q0 -62 -25 -85.5t-78 -23.5q-20 0 -42 3q-17 2 -17 14v9q0 12 21 12h38q34 0 46.5 13.5t12.5 57.5v604q0 19 16 19h11q17 0 17 -19v-604z"/>
<glyph glyph-name="circumflex" horiz-adv-x="330" unicode="ˆ" d="M312 625q0 -7 -9 -7h-22q-8 0 -22 17l-94 113l-94 -113q-14 -17 -22 -17h-22q-9 0 -9 7q0 6 4 10l100 128q12 15 23 15h40q11 0 23 -15l100 -128q4 -4 4 -10z"/>
<glyph glyph-name="caron" horiz-adv-x="330" unicode="ˇ" d="M312 771q0 -6 -4 -10l-100 -128q-12 -15 -23 -15h-40q-11 0 -23 15l-100 128q-4 4 -4 10q0 7 9 7h22q8 0 22 -17l94 -113l94 113q14 17 22 17h22q9 0 9 -7z"/>
<glyph glyph-name="uni02C9" horiz-adv-x="330" unicode="ˉ" d="M318 704q0 -16 -20 -16h-266q-20 0 -20 16v11q0 15 20 15h266q20 0 20 -15v-11z"/>
<glyph glyph-name="breve" horiz-adv-x="330" unicode="˘" d="M165 618q-64 0 -103 39.5t-39 110.5q0 10 10 10h22q8 0 8 -10q0 -61 29 -86t73 -25t73 25t29 86q0 10 8 10h22q10 0 10 -10q0 -71 -39 -110.5t-103 -39.5z"/>
<glyph glyph-name="dotaccent" horiz-adv-x="330" unicode="˙" d="M187 660q0 -8 -5.5 -13.5t-13.5 -5.5h-6q-8 0 -13.5 5.5t-5.5 13.5v74q0 8 5.5 13.5t13.5 5.5h6q8 0 13.5 -5.5t5.5 -13.5v-74z"/>
<glyph glyph-name="ring" horiz-adv-x="330" unicode="˚" d="M223 698q0 24 -17 41t-41 17t-40.5 -17t-16.5 -41t16.5 -41t40.5 -17t41 17t17 41zM258 698q0 -38 -27.5 -65.5t-65.5 -27.5t-65.5 27.5t-27.5 65.5t27.5 65.5t65.5 27.5t65.5 -27.5t27.5 -65.5z"/>
<glyph glyph-name="ogonek" horiz-adv-x="330" unicode="˛" d="M286 -170q0 -8 -11 -11q-42 -14 -86 -14q-64 0 -92 25t-28 60q0 33 18.5 53t65.5 47l67 38q6 3 12 3h39q7 0 7 -5q0 -4 -5 -7l-89 -50q-48 -27 -63.5 -42t-15.5 -36q0 -53 84 -53q33 0 84 12q6 2 8 2q5 0 5 -7v-15z"/>
<glyph glyph-name="tilde" horiz-adv-x="491" unicode="˜" d="M399 719q0 -45 -20.5 -68t-57.5 -23q-40 0 -67 26l-48 47q-28 28 -48 28q-41 0 -41 -53v-26q0 -16 -10 -16h-17q-11 0 -11 16v26q0 45 21 68t58 23q39 0 66 -26l48 -47q28 -28 49 -28q40 0 40 53v26q0 16 10 16h17q11 0 11 -16v-26z"/>
<glyph glyph-name="hungarumlaut" horiz-adv-x="330" unicode="˝" d="M227 771q0 -4 -4 -8l-107 -128q-14 -17 -22 -17h-22q-9 0 -9 7q0 6 4 10l100 128q12 15 23 15h26q11 0 11 -7zM367 771q0 -4 -4 -8l-107 -128q-14 -17 -22 -17h-22q-9 0 -9 7q0 6 4 10l100 128q12 15 23 15h26q11 0 11 -7z"/>
<glyph glyph-name="uni0400" horiz-adv-x="533" unicode="Ѐ" d="M335 801q0 -7 -9 -7h-22q-8 0 -22 17l-107 128q-4 4 -4 8q0 7 11 7h26q11 0 23 -15l100 -128q4 -4 4 -10zM478 17q0 -17 -19 -17h-258q-60 0 -90.5 25.5t-30.5 86.5v519q0 61 30.5 86.5t90.5 25.5h258q19 0 19 -17v-8q0 -16 -19 -16h-258q-40 0 -58.5 -14t-18.5 -57v-220 h335q19 0 19 -16v-10q0 -17 -19 -17h-335v-256q0 -43 18.5 -57t58.5 -14h258q19 0 19 -16v-8z"/>
<glyph glyph-name="afii10023" horiz-adv-x="533" unicode="Ё" d="M231 832q0 -8 -5.5 -13.5t-13.5 -5.5h-6q-8 0 -13.5 5.5t-5.5 13.5v74q0 8 5.5 13.5t13.5 5.5h6q8 0 13.5 -5.5t5.5 -13.5v-74zM381 832q0 -8 -5.5 -13.5t-13.5 -5.5h-6q-8 0 -13.5 5.5t-5.5 13.5v74q0 8 5.5 13.5t13.5 5.5h6q8 0 13.5 -5.5t5.5 -13.5v-74zM478 17 q0 -17 -19 -17h-258q-60 0 -90.5 25.5t-30.5 86.5v519q0 61 30.5 86.5t90.5 25.5h258q19 0 19 -17v-8q0 -16 -19 -16h-258q-40 0 -58.5 -14t-18.5 -57v-220h335q19 0 19 -16v-10q0 -17 -19 -17h-335v-256q0 -43 18.5 -57t58.5 -14h258q19 0 19 -16v-8z"/>
<glyph glyph-name="afii10051" horiz-adv-x="813" unicode="Ђ" d="M508 32h14q89 0 134.5 40t45.5 144v13q0 162 -189 162q-115 0 -205 -28v-344q0 -8 -5 -13.5t-12 -5.5h-10q-7 0 -12 5.5t-5 13.5v683h-215q-19 0 -19 15v9q0 17 19 17h473q19 0 19 -17v-9q0 -15 -19 -15h-214v-299q94 31 206 31q233 0 233 -205v-13q0 -125 -59 -174 t-166 -49h-14q-20 0 -20 14v10q0 15 20 15z"/>
<glyph glyph-name="afii10052" horiz-adv-x="503" unicode="Ѓ" d="M421 947q0 -4 -4 -8l-107 -128q-14 -17 -22 -17h-22q-9 0 -9 7q0 6 4 10l100 128q12 15 23 15h26q11 0 11 -7zM124 631v-612q0 -8 -5 -13.5t-12 -5.5h-10q-7 0 -12 5.5t-5 13.5v612q0 61 30.5 86.5t90.5 25.5h258q19 0 19 -17v-8q0 -16 -19 -16h-258q-40 0 -58.5 -14 t-18.5 -57z"/>
<glyph glyph-name="afii10053" horiz-adv-x="544" unicode="Є" d="M421 364h-304v-44q0 -85 16 -143t46 -88t66 -42.5t84 -12.5q62 0 136 12h5q14 0 14 -18v-3q0 -17 -19 -20q-68 -12 -136 -12q-54 0 -96.5 14t-80.5 48.5t-58.5 101t-20.5 163.5v98q0 78 14 136.5t37.5 94t57.5 57t69 29.5t78 8q68 0 136 -12q19 -3 19 -20v-3 q0 -18 -14 -18h-5q-74 12 -136 12q-48 0 -84 -12t-66 -42t-46 -88t-16 -142v-11h304q19 0 19 -16v-10q0 -17 -19 -17z"/>
<glyph glyph-name="afii10054" horiz-adv-x="530" unicode="Ѕ" d="M475 185q0 -191 -232 -191q-45 0 -155 11q-18 2 -18 16v13q0 13 19 13h4q17 -1 47 -4.5t54 -5t49 -1.5q105 0 145.5 39.5t40.5 109.5q0 19 -3 33t-13 28.5t-18.5 24t-31.5 26t-37.5 26t-50.5 31.5l-63 39q-81 50 -119 91t-38 102q0 162 234 162q41 0 149 -10 q17 -2 17 -15v-13q0 -14 -19 -14q-7 0 -63 5t-85 5q-98 0 -143 -29t-45 -92q0 -44 31 -76.5t104 -76.5l64 -39q94 -57 135 -100.5t41 -107.5z"/>
<glyph glyph-name="afii10055" horiz-adv-x="224" unicode="І" d="M134 19q0 -8 -5 -13.5t-12 -5.5h-10q-7 0 -12 5.5t-5 13.5v705q0 8 5 13.5t12 5.5h10q7 0 12 -5.5t5 -13.5v-705z"/>
<glyph glyph-name="afii10056" horiz-adv-x="224" unicode="Ї" d="M58 833q0 -8 -5.5 -13.5t-13.5 -5.5h-6q-8 0 -13.5 5.5t-5.5 13.5v74q0 7 6 13t13 6h6q7 0 13 -6t6 -13v-74zM208 833q0 -8 -5.5 -13.5t-13.5 -5.5h-6q-8 0 -13.5 5.5t-5.5 13.5v74q0 7 6 13t13 6h6q7 0 13 -6t6 -13v-74zM134 19q0 -8 -5 -13.5t-12 -5.5h-10 q-7 0 -12 5.5t-5 13.5v705q0 8 5 13.5t12 5.5h10q7 0 12 -5.5t5 -13.5v-705z"/>
<glyph glyph-name="afii10057" horiz-adv-x="224" unicode="Ј" d="M134 -60q0 -72 -32 -103.5t-112 -31.5h-14q-20 0 -20 14v10q0 15 20 15h14q62 0 81 18.5t19 77.5v784q0 8 5 13.5t12 5.5h10q7 0 12 -5.5t5 -13.5v-784z"/>
<glyph glyph-name="afii10058" horiz-adv-x="976" unicode="Љ" d="M512 382v-343q86 -6 125 -6q50 0 88 6.5t73.5 23.5t54.5 52.5t19 87.5v15q0 52 -19 87.5t-54.5 52.5t-73.5 23.5t-88 6.5q-39 0 -125 -6zM468 702h-158q-18 0 -23 -18l-204 -679q-4 -13 -16 -13h-13q-15 0 -15 16q0 6 1 9l205 677q15 49 65 49h178q24 0 24 -22v-299 q58 6 125 6q279 0 279 -210v-15q0 -210 -279 -210q-78 0 -150 8q-19 1 -19 19v682z"/>
<glyph glyph-name="afii10059" horiz-adv-x="1023" unicode="Њ" d="M567 382v-343q86 -6 125 -6q50 0 88 6.5t73.5 23.5t54.5 52.5t19 87.5v15q0 52 -19 87.5t-54.5 52.5t-73.5 23.5t-88 6.5q-39 0 -125 -6zM567 724v-302q58 6 125 6q279 0 279 -210v-15q0 -210 -279 -210q-79 0 -151 8q-17 0 -17 19v357h-400v-358q0 -8 -5 -13.5t-12 -5.5 h-10q-7 0 -12 5.5t-5 13.5v705q0 8 5 13.5t12 5.5h10q7 0 12 -5.5t5 -13.5v-306h400v306q0 19 17 19h9q17 0 17 -19z"/>
<glyph glyph-name="afii10060" horiz-adv-x="775" unicode="Ћ" d="M308 402v-383q0 -8 -5 -13.5t-12 -5.5h-10q-7 0 -12 5.5t-5 13.5v683h-215q-19 0 -19 15v9q0 17 19 17h473q19 0 19 -17v-9q0 -15 -19 -15h-214v-261q34 16 88.5 28.5t102.5 12.5q102 0 154 -43t52 -148v-272q0 -8 -5.5 -13.5t-13.5 -5.5h-7q-7 0 -12.5 5.5t-5.5 13.5 v272q0 88 -38 120t-127 32q-103 0 -188 -41z"/>
<glyph glyph-name="afii10061" horiz-adv-x="542" unicode="Ќ" d="M411 947q0 -4 -4 -8l-107 -128q-14 -17 -22 -17h-22q-9 0 -9 7q0 6 4 10l100 128q12 15 23 15h26q11 0 11 -7zM512 14q0 -16 -19 -16q-15 0 -23 8l-346 360v-347q0 -8 -5 -13.5t-12 -5.5h-10q-7 0 -12 5.5t-5 13.5v705q0 8 6 13.5t13 5.5h6q7 0 13 -5.5t6 -13.5v-320 l340 332q12 11 23 11q8 0 13.5 -5.5t5.5 -11.5q0 -10 -8 -18l-336 -326l343 -356q7 -7 7 -16z"/>
<glyph glyph-name="uni040D" horiz-adv-x="651" unicode="Ѝ" d="M390 801q0 -7 -9 -7h-22q-8 0 -22 17l-107 128q-4 4 -4 8q0 7 11 7h26q11 0 23 -15l100 -128q4 -4 4 -10zM80 45v679q0 19 17 19h12q16 0 16 -19v-679q0 -9 5 -9q4 0 8 7l336 674q15 31 48 31q22 0 35.5 -13.5t13.5 -35.5v-680q0 -8 -5 -13.5t-12 -5.5h-10q-7 0 -12 5.5 t-5 13.5v680q0 7 -5 7q-4 0 -8 -7l-337 -675q-7 -14 -18 -23q-9 -7 -33 -7h-1q-19 0 -32 14t-13 37z"/>
<glyph glyph-name="afii10062" horiz-adv-x="588" unicode="Ў" d="M446 937q0 -62 -41 -102.5t-102 -40.5t-102 40.5t-41 102.5q0 17 12 17h20q7 0 9 -3t2 -14q0 -56 32 -79t68 -23t68 23t32 79q0 11 2 14t9 3h20q12 0 12 -17zM506 742h9q15 0 15 -12q0 -5 -3 -13l-217 -585q-30 -80 -64 -109.5t-102 -29.5q-26 0 -62 6q-13 2 -16.5 5.5 t-3.5 12.5v6q0 17 21 15q48 -6 62 -6q54 0 77 21.5t47 87.5l41 114h-12q-25 0 -38 11t-23 45l-160 407q-2 4 -2 10q0 14 18 14h7q12 0 18 -14l160 -410q6 -22 23 -22h25l160 433q4 13 20 13z"/>
<glyph glyph-name="afii10145" horiz-adv-x="647" unicode="Џ" d="M524 100v624q0 19 17 19h10q17 0 17 -19v-624q0 -100 -106 -100h-117v-114q0 -19 -17 -19h-9q-17 0 -17 19v114h-118q-46 0 -75 20.5t-29 79.5v624q0 8 5 13.5t12 5.5h10q7 0 12 -5.5t5 -13.5v-624q0 -31 13.5 -45t46.5 -14h279q34 0 47.5 14t13.5 45z"/>
<glyph glyph-name="afii10017" horiz-adv-x="619" unicode="А" d="M442 325l-109 363q-6 20 -23 20q-18 0 -23 -19l-110 -364h265zM581 12q0 -15 -16 -15h-12q-12 0 -16 13l-84 271h-288l-82 -271q-4 -13 -16 -13h-13q-15 0 -15 16q0 6 1 9l205 677q15 49 65 49t64 -48l205 -678q2 -6 2 -10z"/>
<glyph glyph-name="afii10018" d="M124 382v-343q86 -6 125 -6q50 0 88 6.5t73.5 23.5t54.5 52.5t19 87.5v15q0 52 -19 87.5t-54.5 52.5t-73.5 23.5t-88 6.5q-39 0 -125 -6zM97 743h352q19 0 19 -17v-8q0 -16 -19 -16h-325v-280q59 6 125 6q279 0 279 -210v-15q0 -210 -279 -210q-78 0 -150 8q-19 1 -19 19 v704q0 19 17 19z" unicode="Б"/>
<glyph glyph-name="afii10019" d="M484 203v17q0 149 -179 149h-181v-330q86 -6 125 -6q50 0 88 6.5t73.5 23.5t54.5 52.5t19 87.5zM480 566v11q0 35 -13.5 60.5t-33.5 39t-53 21t-61.5 9.5t-69.5 2q-26 0 -75 -2t-50 -2v-293h181q96 0 135.5 44t39.5 110zM528 203q0 -210 -279 -210q-78 0 -150 8 q-19 1 -19 19v703q0 17 19 19q82 6 150 6q59 0 102 -6t85.5 -23t65 -52.5t22.5 -89.5v-11q0 -62 -32 -109.5t-87 -66.5q123 -37 123 -170v-17z" unicode="В"/>
<glyph glyph-name="afii10020" horiz-adv-x="503" unicode="Г" d="M124 631v-612q0 -8 -5 -13.5t-12 -5.5h-10q-7 0 -12 5.5t-5 13.5v612q0 61 30.5 86.5t90.5 25.5h258q19 0 19 -17v-8q0 -16 -19 -16h-258q-40 0 -58.5 -14t-18.5 -57z"/>
<glyph glyph-name="afii10021" horiz-adv-x="671" unicode="Д" d="M311 689l-194 -648h434l-194 647q-6 20 -23 20q-18 0 -23 -19zM30 23q0 18 16 18h24l199 658q15 49 65 49t64 -48l199 -659h27q17 0 17 -19v-122q0 -8 -5 -13.5t-12 -5.5h-10q-7 0 -12 5.5t-5 13.5v100h-523v-100q0 -8 -5 -13.5t-12 -5.5h-10q-7 0 -12 5.5t-5 13.5v123z "/>
<glyph glyph-name="afii10022" horiz-adv-x="533" unicode="Е" d="M478 17q0 -17 -19 -17h-258q-60 0 -90.5 25.5t-30.5 86.5v519q0 61 30.5 86.5t90.5 25.5h258q19 0 19 -17v-8q0 -16 -19 -16h-258q-40 0 -58.5 -14t-18.5 -57v-220h335q19 0 19 -16v-10q0 -17 -19 -17h-335v-256q0 -43 18.5 -57t58.5 -14h258q19 0 19 -16v-8z"/>
<glyph glyph-name="afii10024" horiz-adv-x="880" unicode="Ж" d="M418 404v320q0 8 6 13.5t13 5.5h6q7 0 13 -5.5t6 -13.5v-320l340 332q12 11 23 11q8 0 13.5 -5.5t5.5 -11.5q0 -10 -8 -18l-336 -326l343 -356q7 -7 7 -16q0 -16 -19 -16q-15 0 -23 8l-346 360v-347q0 -8 -5 -13.5t-12 -5.5h-10q-7 0 -12 5.5t-5 13.5v347l-346 -360 q-8 -8 -23 -8q-19 0 -19 16q0 9 7 16l343 356l-336 326q-8 8 -8 18q0 6 5.5 11.5t13.5 5.5q11 0 23 -11z"/>
<glyph glyph-name="afii10025" d="M496 206q0 -212 -248 -212q-75 0 -146 15q-18 4 -18 18v6q0 16 16 16h4q78 -13 144 -13q104 0 152.5 40t48.5 130v20q0 50 -35.5 96.5t-106.5 46.5h-187q-8 0 -13.5 5t-5.5 13v7q0 18 19 18h187q41 0 70.5 14t44 37t21 45t6.5 45v12q0 81 -47.5 111t-153.5 30 q-54 0 -144 -15h-4q-16 0 -16 16v8q0 14 18 18q84 15 146 15q124 0 186 -40t62 -143v-12q0 -120 -104 -165q53 -24 78.5 -70.5t25.5 -91.5v-20z" unicode="З"/>
<glyph glyph-name="afii10026" horiz-adv-x="651" unicode="И" d="M80 45v679q0 19 17 19h12q16 0 16 -19v-679q0 -9 5 -9q4 0 8 7l336 674q15 31 48 31q22 0 35.5 -13.5t13.5 -35.5v-680q0 -8 -5 -13.5t-12 -5.5h-10q-7 0 -12 5.5t-5 13.5v680q0 7 -5 7q-4 0 -8 -7l-337 -675q-7 -14 -18 -23q-9 -7 -33 -7h-1q-19 0 -32 14t-13 37z"/>
<glyph glyph-name="afii10027" horiz-adv-x="651" unicode="Й" d="M80 45v679q0 19 17 19h12q16 0 16 -19v-679q0 -9 5 -9q4 0 8 7l336 674q15 31 48 31q22 0 35.5 -13.5t13.5 -35.5v-680q0 -8 -5 -13.5t-12 -5.5h-10q-7 0 -12 5.5t-5 13.5v680q0 7 -5 7q-4 0 -8 -7l-337 -675q-7 -14 -18 -23q-9 -7 -33 -7h-1q-19 0 -32 14t-13 37z M461 936q0 -62 -41 -102.5t-102 -40.5t-102 40.5t-41 102.5q0 17 12 17h20q7 0 9 -3t2 -14q0 -56 32 -79t68 -23t68 23t32 79q0 11 2 14t9 3h20q12 0 12 -17z"/>
<glyph glyph-name="afii10028" horiz-adv-x="542" unicode="К" d="M512 14q0 -16 -19 -16q-15 0 -23 8l-346 360v-347q0 -8 -5 -13.5t-12 -5.5h-10q-7 0 -12 5.5t-5 13.5v705q0 8 6 13.5t13 5.5h6q7 0 13 -5.5t6 -13.5v-320l340 332q12 11 23 11q8 0 13.5 -5.5t5.5 -11.5q0 -10 -8 -18l-336 -326l343 -356q7 -7 7 -16z"/>
<glyph glyph-name="afii10029" horiz-adv-x="619" unicode="Л" d="M537 10l-204 678q-6 20 -23 20q-18 0 -23 -19l-204 -679q-4 -13 -16 -13h-13q-15 0 -15 16q0 6 1 9l205 677q15 49 65 49t64 -48l205 -678q2 -6 2 -10q0 -15 -16 -15h-12q-12 0 -16 13z"/>
<glyph glyph-name="afii10030" horiz-adv-x="730" unicode="М" d="M650 19q0 -8 -5 -13.5t-12 -5.5h-10q-7 0 -12 5.5t-5 13.5v680q0 7 -7 7q-6 0 -10 -9l-173 -365q-17 -36 -51 -36t-51 36l-173 365q-4 9 -10 9q-7 0 -7 -7v-680q0 -8 -5 -13.5t-12 -5.5h-10q-7 0 -12 5.5t-5 13.5v680q0 49 51 49q31 0 46 -31l175 -367q6 -13 13 -13 t13 13l175 367q15 31 46 31q51 0 51 -49v-680z"/>
<glyph glyph-name="afii10031" horiz-adv-x="647" unicode="Н" d="M567 19q0 -19 -17 -19h-9q-17 0 -17 19v358h-400v-358q0 -8 -5 -13.5t-12 -5.5h-10q-7 0 -12 5.5t-5 13.5v705q0 8 5 13.5t12 5.5h10q7 0 12 -5.5t5 -13.5v-306h400v306q0 19 17 19h9q17 0 17 -19v-705z"/>
<glyph glyph-name="afii10032" horiz-adv-x="632" unicode="О" d="M528 309v124q0 273 -212 273t-212 -273v-124q0 -273 212 -273t212 273zM572 309q0 -160 -69 -237.5t-187 -77.5t-187 77.5t-69 237.5v124q0 160 69 237.5t187 77.5t187 -77.5t69 -237.5v-124z"/>
<glyph glyph-name="afii10033" horiz-adv-x="647" unicode="П" d="M524 19v624q0 31 -13.5 45t-47.5 14h-279q-33 0 -46.5 -14t-13.5 -45v-624q0 -8 -5 -13.5t-12 -5.5h-10q-7 0 -12 5.5t-5 13.5v624q0 59 29 79.5t75 20.5h278q106 0 106 -100v-624q0 -19 -17 -19h-10q-17 0 -17 19z"/>
<glyph glyph-name="afii10034" horiz-adv-x="540" unicode="Р" d="M461 528v17q0 90 -56 127t-172 37q-65 0 -109 -3v-349q62 -4 109 -4q118 0 173 40.5t55 134.5zM505 528q0 -114 -69.5 -164t-202.5 -50q-53 0 -109 4v-299q0 -8 -5 -13.5t-12 -5.5h-10q-7 0 -12 5.5t-5 13.5v705q0 7 5 12.5t12 6.5q87 5 136 5q272 0 272 -203v-17z"/>
<glyph glyph-name="afii10035" horiz-adv-x="537" unicode="С" d="M497 21q0 -15 -19 -17q-87 -10 -173 -10q-50 0 -91.5 15.5t-77.5 49.5t-56 97t-20 149v132q0 86 20 149t56 97t77.5 49.5t91.5 15.5q86 0 173 -10q19 -2 19 -17v-12q0 -12 -13 -12h-6q-81 9 -173 9q-91 0 -146 -64.5t-55 -204.5v-132q0 -140 55 -204.5t146 -64.5 q92 0 173 9h6q13 0 13 -12v-12z"/>
<glyph glyph-name="afii10036" horiz-adv-x="571" unicode="Т" d="M541 717q0 -15 -19 -15h-214v-683q0 -8 -5 -13.5t-12 -5.5h-10q-7 0 -12 5.5t-5 13.5v683h-215q-19 0 -19 15v9q0 17 19 17h473q19 0 19 -17v-9z"/>
<glyph glyph-name="afii10037" horiz-adv-x="588" unicode="У" d="M506 742h9q15 0 15 -12q0 -5 -3 -13l-217 -585q-30 -80 -64 -109.5t-102 -29.5q-26 0 -62 6q-13 2 -16.5 5.5t-3.5 12.5v6q0 17 21 15q48 -6 62 -6q54 0 77 21.5t47 87.5l41 114h-12q-25 0 -38 11t-23 45l-160 407q-2 4 -2 10q0 14 18 14h7q12 0 18 -14l160 -410 q6 -22 23 -22h25l160 433q4 13 20 13z"/>
<glyph glyph-name="afii10038" horiz-adv-x="816" unicode="Ф" d="M79 435v-17q0 -93 53.5 -134t164.5 -41q27 0 89 4v349q-44 3 -89 3q-109 0 -163.5 -37.5t-54.5 -126.5zM386 19v189q-56 -4 -89 -4q-262 0 -262 214v17q0 203 262 203q8 0 89 -3v90q0 8 5 13.5t12 5.5h10q7 0 12 -5.5t5 -13.5v-90q81 3 89 3q262 0 262 -203v-17 q0 -214 -262 -214q-33 0 -89 4v-189q0 -8 -5 -13.5t-12 -5.5h-10q-7 0 -12 5.5t-5 13.5zM737 418v17q0 89 -54.5 126.5t-163.5 37.5q-45 0 -89 -3v-349q62 -4 89 -4q111 0 164.5 41t53.5 134z"/>
<glyph glyph-name="afii10039" horiz-adv-x="602" unicode="Х" d="M561 16q0 -16 -16 -16h-8q-9 0 -16 9l-220 333l-220 -333q-7 -9 -16 -9h-9q-16 0 -16 16q0 8 4 13l231 351l-220 333q-5 8 -5 15q0 15 15 15h11q9 0 16 -9l208 -316l209 316q7 9 16 9h9q16 0 16 -16q0 -9 -4 -14l-220 -334l231 -350q4 -5 4 -13z"/>
<glyph glyph-name="afii10040" horiz-adv-x="647" unicode="Ц" d="M524 100v624q0 19 17 19h10q17 0 17 -19v-624q0 -36 -13 -59h58q34 0 34 -30v-125q0 -19 -17 -19h-9q-17 0 -17 19v114h-420q-46 0 -75 20.5t-29 79.5v624q0 8 5 13.5t12 5.5h10q7 0 12 -5.5t5 -13.5v-624q0 -31 13.5 -45t46.5 -14h279q34 0 47.5 14t13.5 45z"/>
<glyph glyph-name="afii10041" horiz-adv-x="565" unicode="Ч" d="M60 528v196q0 8 5 13.5t12 5.5h10q7 0 12 -5.5t5 -13.5v-196q0 -103 49.5 -139t178.5 -36q47 0 109 4v367q0 8 5 13.5t12 5.5h10q7 0 12 -5.5t5 -13.5v-705q0 -8 -5 -13.5t-12 -5.5h-10q-7 0 -12 5.5t-5 13.5v299q-56 -4 -109 -4q-144 0 -208 45t-64 169z"/>
<glyph glyph-name="afii10042" horiz-adv-x="878" unicode="Ш" d="M798 724v-624q0 -59 -28.5 -79.5t-74.5 -20.5h-511q-46 0 -75 20.5t-29 79.5v624q0 8 5 13.5t12 5.5h10q7 0 12 -5.5t5 -13.5v-624q0 -31 13.5 -45t46.5 -14h234v683q0 19 17 19h9q17 0 17 -19v-683h234q33 0 46.5 14t13.5 45v624q0 19 17 19h9q17 0 17 -19z"/>
<glyph glyph-name="afii10043" horiz-adv-x="878" unicode="Щ" d="M786 41h58q34 0 34 -30v-125q0 -19 -17 -19h-9q-17 0 -17 19v114h-651q-46 0 -75 20.5t-29 79.5v624q0 8 5 13.5t12 5.5h10q7 0 12 -5.5t5 -13.5v-624q0 -31 13.5 -45t46.5 -14h234v683q0 19 17 19h9q17 0 17 -19v-683h233q34 0 47.5 14t13.5 45v624q0 19 17 19h10 q17 0 17 -19v-624q0 -36 -13 -59z"/>
<glyph glyph-name="afii10044" horiz-adv-x="640" unicode="Ъ" d="M184 382v-343q86 -6 125 -6q50 0 88 6.5t73.5 23.5t54.5 52.5t19 87.5v15q0 52 -19 87.5t-54.5 52.5t-73.5 23.5t-88 6.5q-39 0 -125 -6zM309 428q279 0 279 -210v-15q0 -210 -279 -210q-78 0 -150 8q-19 1 -19 19v682h-121q-19 0 -19 15v9q0 17 19 17h148q17 0 17 -19 v-302q58 6 125 6z"/>
<glyph glyph-name="afii10045" horiz-adv-x="788" unicode="Ы" d="M708 19q0 -8 -5 -13.5t-12 -5.5h-10q-7 0 -12 5.5t-5 13.5v705q0 8 5 13.5t12 5.5h10q7 0 12 -5.5t5 -13.5v-705zM124 382v-343q86 -6 125 -6q50 0 88 6.5t73.5 23.5t54.5 52.5t19 87.5v15q0 52 -19 87.5t-54.5 52.5t-73.5 23.5t-88 6.5q-39 0 -125 -6zM249 428 q279 0 279 -210v-15q0 -210 -279 -210q-78 0 -150 8q-19 1 -19 19v704q0 19 17 19h10q17 0 17 -19v-302q59 6 125 6z"/>
<glyph glyph-name="afii10046" d="M124 382v-343q86 -6 125 -6q50 0 88 6.5t73.5 23.5t54.5 52.5t19 87.5v15q0 52 -19 87.5t-54.5 52.5t-73.5 23.5t-88 6.5q-39 0 -125 -6zM249 428q279 0 279 -210v-15q0 -210 -279 -210q-78 0 -150 8q-19 1 -19 19v704q0 19 17 19h10q17 0 17 -19v-302q59 6 125 6z" unicode="Ь"/>
<glyph glyph-name="afii10047" horiz-adv-x="544" unicode="Э" d="M420 364h-304q-19 0 -19 17v10q0 16 19 16h304v11q0 84 -16 142t-46 88t-66 42t-84 12q-62 0 -136 -12h-5q-14 0 -14 18v3q0 17 19 20q68 12 136 12q43 0 78 -8t69 -29.5t57.5 -57t37.5 -94t14 -136.5v-98q0 -97 -20.5 -163.5t-58.5 -101t-80.5 -48.5t-96.5 -14 q-68 0 -136 12q-19 3 -19 20v3q0 18 14 18h5q74 -12 136 -12q48 0 84 12.5t66 42.5t46 88t16 143v44z"/>
<glyph glyph-name="afii10048" horiz-adv-x="871" unicode="Ю" d="M767 309v124q0 273 -212 273t-212 -273v-124q0 -273 212 -273t212 273zM134 19q0 -8 -5 -13.5t-12 -5.5h-10q-7 0 -12 5.5t-5 13.5v705q0 8 5 13.5t12 5.5h10q7 0 12 -5.5t5 -13.5v-332h165v41q0 160 69 237.5t187 77.5t187 -77.5t69 -237.5v-124q0 -160 -69 -237.5 t-187 -77.5t-187 77.5t-69 237.5v42h-165v-332z"/>
<glyph glyph-name="afii10049" horiz-adv-x="613" unicode="Я" d="M132 544v-5q0 -93 53.5 -127.5t174.5 -34.5q15 0 65.5 0.5t63.5 0.5v324q-40 4 -129 4q-117 0 -172.5 -36t-55.5 -126zM60 15q0 6 5 14l202 311q-91 15 -135 62.5t-44 136.5v5q0 111 66 157.5t206 46.5q86 0 156 -4q7 -1 12 -6.5t5 -12.5v-706q0 -8 -5 -13.5t-12 -5.5 h-10q-7 0 -12 5.5t-5 13.5v317q-90 -1 -129 -1h-27h-16l-213 -326q-7 -9 -15 -9h-13q-16 0 -16 15z"/>
<glyph glyph-name="afii10065" horiz-adv-x="488" unicode="а" d="M374 84v199h-77q-113 0 -158 -25.5t-45 -89.5v-13q0 -122 109 -122q76 0 171 51zM418 20q0 -8 -6 -14t-14 -6h-5q-8 0 -14 6t-6 14v25q-93 -51 -170 -51q-65 0 -109 37.5t-44 123.5v13q0 79 57 116.5t190 37.5h77v36q0 80 -27.5 112.5t-98.5 32.5q-57 0 -142 -9h-4 q-19 0 -19 15v6q0 15 23 18q76 9 142 9q95 0 132.5 -47.5t37.5 -136.5v-338z"/>
<glyph glyph-name="afii10066" horiz-adv-x="522" unicode="б" d="M423 233v64q0 200 -162 200t-162 -191v-73q0 -200 162 -200t162 200zM467 233q0 -115 -52.5 -177t-153.5 -62t-153.5 62t-52.5 177v161q0 126 48 183t157 79l65 13q79 16 92 67q4 16 19 16h11q14 0 14 -13q0 -6 -1 -10q-17 -76 -124 -97l-68 -14q-77 -16 -114.5 -48.5 t-49.5 -99.5q54 66 157 66q101 0 153.5 -62t52.5 -177v-64z"/>
<glyph glyph-name="afii10067" horiz-adv-x="517" unicode="в" d="M412 401v6q0 58 -47.5 77t-144.5 19q-32 0 -107 -3v-202h143q28 0 44.5 1t40.5 6.5t37.5 15.5t23.5 30.5t10 49.5zM417 149v7q0 29 -11 49.5t-24.5 30.5t-39 15.5t-41.5 6t-45 0.5h-143v-224q69 -3 107 -3q104 0 150.5 27.5t46.5 90.5zM455 401q0 -39 -20 -73t-59 -49 q86 -32 86 -123v-7q0 -156 -242 -156q-86 0 -137 6q-13 1 -13 9v519q0 7 11 9q48 6 139 6q51 0 87.5 -4.5t73 -17.5t55.5 -41.5t19 -71.5v-6z"/>
<glyph glyph-name="afii10068" horiz-adv-x="356" unicode="г" d="M307 496h-133q-33 0 -46.5 -14t-13.5 -45v-418q0 -8 -5 -13.5t-12 -5.5h-10q-7 0 -12 5.5t-5 13.5v418q0 59 29 79.5t75 20.5h133q19 0 19 -17v-7q0 -17 -19 -17z"/>
<glyph glyph-name="afii10069" horiz-adv-x="573" unicode="д" d="M263 491l-135 -451h316l-135 450q-6 20 -23 20q-18 0 -23 -19zM50 40h31l140 461q15 49 65 49t64 -48l140 -462h33q8 0 14 -6t6 -14v-136q0 -8 -6 -14t-14 -6h-4q-8 0 -14 6t-6 14v116h-425v-116q0 -8 -6 -14t-14 -6h-4q-8 0 -14 6t-6 14v136q0 8 6 14t14 6z"/>
<glyph glyph-name="afii10070" horiz-adv-x="511" unicode="е" d="M412 298v6q0 98 -36.5 148.5t-118.5 50.5q-80 0 -119 -53.5t-39 -146.5v-5h313zM456 277q0 -8 -5.5 -13.5t-13.5 -5.5h-338v-21q0 -116 48 -160t133 -44q65 0 148 17q1 0 3 0.5t3 0.5q15 0 15 -14v-7q0 -15 -19 -19q-82 -17 -150 -17q-225 0 -225 243v66q0 107 53 173 t149 66q100 0 149.5 -63.5t49.5 -174.5v-27z"/>
<glyph glyph-name="afii10072" horiz-adv-x="704" unicode="ж" d="M330 303v215q0 8 6 13.5t13 5.5h6q7 0 13 -5.5t6 -13.5v-215l246 230q10 9 24 9q9 0 14.5 -5.5t5.5 -12.5q0 -9 -7 -15l-245 -224l246 -260q7 -9 7 -15q0 -16 -19 -16q-18 0 -30 12l-242 259v-246q0 -7 -6 -13t-13 -6h-6q-7 0 -13 6t-6 13v246l-242 -259q-12 -12 -30 -12 q-19 0 -19 16q0 6 7 15l246 260l-245 224q-7 6 -7 15q0 7 5.5 12.5t14.5 5.5q14 0 24 -9z"/>
<glyph glyph-name="afii10073" horiz-adv-x="457" unicode="з" d="M74 299h165q124 0 124 107v7q0 56 -35 77.5t-124 21.5q-56 0 -136 -10q-18 -2 -18 13v5q0 9 3.5 12.5t16.5 5.5q70 10 135 10q99 0 150 -30t51 -105v-7q0 -86 -73 -125q74 -39 74 -126v-8q0 -154 -202 -154q-65 0 -135 10q-13 2 -16.5 5.5t-3.5 12.5v5q0 15 18 13 q80 -10 136 -10h1q85 0 121.5 26.5t36.5 91.5v8q0 108 -124 108h-165q-19 0 -19 16v3q0 17 19 17z"/>
<glyph glyph-name="afii10074" horiz-adv-x="521" unicode="и" d="M125 60l237 440q20 37 50 37q39 0 39 -60v-458q0 -19 -19 -19h-6q-19 0 -19 19v458q0 5 -4 5q-3 0 -6 -5l-236 -440q-12 -23 -22.5 -30t-29.5 -7q-39 0 -39 60v458q0 19 20 19h4q20 0 20 -19v-458q0 -5 4 -5t7 5z"/>
<glyph glyph-name="afii10075" horiz-adv-x="521" unicode="й" d="M362 500q20 37 50 37q39 0 39 -60v-458q0 -19 -19 -19h-6q-19 0 -19 19v458q0 5 -4 5q-3 0 -6 -5l-236 -440q-12 -23 -22.5 -30t-29.5 -7q-39 0 -39 60v458q0 19 20 19h4q20 0 20 -19v-458q0 -5 4 -5t7 5zM400 761q0 -62 -41 -102.5t-102 -40.5t-102 40.5t-41 102.5 q0 17 12 17h20q7 0 9 -3t2 -14q0 -56 32 -79t68 -23t68 23t32 79q0 11 2 14t9 3h20q12 0 12 -17z"/>
<glyph glyph-name="afii10076" horiz-adv-x="444" unicode="к" d="M405 10q0 -16 -19 -16q-18 0 -30 12l-242 259v-246q0 -7 -6 -13t-13 -6h-6q-7 0 -13 6t-6 13v499q0 8 6 13.5t13 5.5h6q7 0 13 -5.5t6 -13.5v-215l246 230q10 9 24 9q9 0 14.5 -5.5t5.5 -12.5q0 -9 -7 -15l-245 -224l246 -260q7 -9 7 -15z"/>
<glyph glyph-name="afii10077" horiz-adv-x="500" unicode="л" d="M417 13l-144 477q-6 20 -23 20q-18 0 -23 -19l-144 -478q-4 -13 -16 -13h-13q-15 0 -15 16q0 6 1 9l145 476q15 49 65 49t64 -48l145 -477q2 -6 2 -10q0 -15 -16 -15h-12q-12 0 -16 13z"/>
<glyph glyph-name="afii10078" horiz-adv-x="630" unicode="м" d="M560 490v-478q0 -8 -6 -13.5t-13 -5.5h-6q-7 0 -13 5.5t-6 13.5v478q0 14 -8 14q-7 0 -14 -13l-129 -224q-18 -33 -50 -33t-50 33l-129 224q-7 13 -14 13q-8 0 -8 -14v-478q0 -8 -6 -13.5t-13 -5.5h-6q-7 0 -13 5.5t-6 13.5v478q0 54 50 54q32 0 51 -32l128 -222 q8 -13 16 -13t16 13l128 222q19 32 51 32q50 0 50 -54z"/>
<glyph glyph-name="afii10079" horiz-adv-x="521" unicode="н" d="M407 266h-293v-247q0 -7 -6 -13t-13 -6h-6q-7 0 -13 6t-6 13v501q0 8 6 13.5t13 5.5h6q7 0 13 -5.5t6 -13.5v-213h293v213q0 8 5.5 13.5t13.5 5.5h6q8 0 13.5 -5.5t5.5 -13.5v-501q0 -7 -5.5 -13t-13.5 -6h-6q-8 0 -13.5 6t-5.5 13v247z"/>
<glyph glyph-name="afii10080" horiz-adv-x="522" unicode="о" d="M423 233v70q0 200 -162 200t-162 -200v-70q0 -200 162 -200t162 200zM467 233q0 -115 -52.5 -177t-153.5 -62t-153.5 62t-52.5 177v70q0 115 52.5 177t153.5 62t153.5 -62t52.5 -177v-70z"/>
<glyph glyph-name="afii10081" horiz-adv-x="521" unicode="п" d="M407 19v418q0 31 -13.5 45t-47.5 14h-172q-33 0 -46.5 -14t-13.5 -45v-418q0 -8 -5 -13.5t-12 -5.5h-10q-7 0 -12 5.5t-5 13.5v418q0 59 29 79.5t75 20.5h171q106 0 106 -100v-418q0 -19 -17 -19h-10q-17 0 -17 19z"/>
<glyph glyph-name="afii10082" horiz-adv-x="504" unicode="р" d="M405 233v66q0 101 -35.5 152.5t-116.5 51.5q-61 0 -139 -13v-444q62 -13 139 -13q81 0 116.5 49.5t35.5 150.5zM449 233q0 -239 -196 -239q-72 0 -139 15v-185q0 -8 -5 -13.5t-12 -5.5h-10q-7 0 -12 5.5t-5 13.5v680q0 15 15 19q93 19 168 19q100 0 148 -65t48 -178v-66z "/>
<glyph glyph-name="afii10083" horiz-adv-x="437" unicode="с" d="M393 21q0 -15 -19 -18q-76 -9 -121 -9q-101 0 -149.5 67.5t-48.5 174.5v67q0 108 48 173.5t150 65.5q45 0 121 -9q19 -3 19 -18v-7q0 -14 -16 -14h-5q-70 9 -119 9q-154 0 -154 -200v-67q0 -203 154 -203q49 0 119 9h5q16 0 16 -14v-7z"/>
<glyph glyph-name="afii10084" horiz-adv-x="488" unicode="т" d="M429 537q19 0 19 -17v-9q0 -15 -19 -15h-163v-477q0 -7 -6 -13t-13 -6h-6q-7 0 -13 6t-6 13v477h-163q-19 0 -19 15v9q0 17 19 17h370z"/>
<glyph glyph-name="afii10085" horiz-adv-x="486" unicode="у" d="M447 520q0 -5 -1 -8l-164 -568q-23 -80 -57.5 -109.5t-104.5 -29.5q-26 0 -62 6q-20 3 -20 14v11q0 14 15 14h6q45 -6 65 -6q54 0 77.5 21.5t41.5 87.5l13 47h-14q-25 0 -38 11t-23 45l-135 457q-1 2 -1 7q0 17 17 17h9q12 0 16 -14l135 -460q6 -22 23 -22h23l137 483 q4 13 18 13h9q15 0 15 -17z"/>
<glyph glyph-name="afii10086" horiz-adv-x="776" unicode="ф" d="M99 299v-66q0 -104 33 -152t119 -48q53 0 115 13v444q-78 13 -115 13q-90 0 -121 -49t-31 -155zM677 233v66q0 106 -31 155t-121 49q-37 0 -115 -13v-444q62 -13 115 -13q86 0 119 48t33 152zM55 233v66q0 117 44 180t152 63q48 0 115 -13v195q0 8 5 13.5t12 5.5h10 q7 0 12 -5.5t5 -13.5v-195q67 13 115 13q108 0 152 -63t44 -180v-66q0 -122 -45.5 -180.5t-150.5 -58.5q-48 0 -115 15v-185q0 -8 -5 -13.5t-12 -5.5h-10q-7 0 -12 5.5t-5 13.5v185q-67 -15 -115 -15q-105 0 -150.5 58.5t-45.5 180.5z"/>
<glyph glyph-name="afii10087" horiz-adv-x="482" unicode="х" d="M447 14q0 -14 -14 -14h-8q-13 0 -19 8l-166 232l-163 -232q-6 -8 -11 -8h-17q-14 0 -14 12q0 7 5 14l176 249l-170 238q-4 6 -4 11q0 13 18 13h6q14 0 19 -8l158 -220l153 218q7 10 19 10h9q15 0 15 -12q0 -7 -7 -17l-165 -235l177 -248q3 -5 3 -11z"/>
<glyph glyph-name="afii10088" horiz-adv-x="541" unicode="ц" d="M407 100v418q0 19 17 19h10q17 0 17 -19v-418q0 -36 -13 -59h59q34 0 34 -30v-125q0 -19 -17 -19h-9q-17 0 -17 19v114h-314q-46 0 -75 20.5t-29 79.5v418q0 8 5 13.5t12 5.5h10q7 0 12 -5.5t5 -13.5v-418q0 -31 13.5 -45t46.5 -14h172q34 0 47.5 14t13.5 45z"/>
<glyph glyph-name="afii10089" horiz-adv-x="495" unicode="ч" d="M55 520q0 19 17 19h10q16 0 16 -19v-133q0 -76 35 -114.5t113 -38.5q73 0 135 18v268q0 8 5 13.5t12 5.5h10q7 0 12 -5.5t5 -13.5v-507q0 -8 -5 -13.5t-12 -5.5h-10q-7 0 -12 5.5t-5 13.5v200q-70 -18 -135 -18q-191 0 -191 192v133z"/>
<glyph glyph-name="afii10090" horiz-adv-x="778" unicode="ш" d="M664 100v418q0 19 17 19h10q17 0 17 -19v-418q0 -100 -106 -100h-428q-46 0 -75 20.5t-29 79.5v418q0 8 5 13.5t12 5.5h10q7 0 12 -5.5t5 -13.5v-418q0 -31 13.5 -45t46.5 -14h193v477q0 8 5.5 13.5t13.5 5.5h6q8 0 13.5 -5.5t5.5 -13.5v-477h192q34 0 47.5 14t13.5 45z "/>
<glyph glyph-name="afii10091" horiz-adv-x="808" unicode="щ" d="M664 100v418q0 19 17 19h10q17 0 17 -19v-418q0 -36 -13 -59h59q34 0 34 -30v-125q0 -19 -17 -19h-9q-17 0 -17 19v114h-571q-46 0 -75 20.5t-29 79.5v418q0 8 5 13.5t12 5.5h10q7 0 12 -5.5t5 -13.5v-418q0 -31 13.5 -45t46.5 -14h193v477q0 8 5.5 13.5t13.5 5.5h6 q8 0 13.5 -5.5t5.5 -13.5v-477h192q34 0 47.5 14t13.5 45z"/>
<glyph glyph-name="afii10092" horiz-adv-x="570" unicode="ъ" d="M181 296v-262q69 -3 107 -3q105 0 151 28.5t46 96.5v18q0 68 -46 96.5t-151 28.5q-38 0 -107 -3zM138 8v490h-99q-19 0 -19 15v7q0 17 19 17h125q17 0 17 -19v-184q53 3 107 3q242 0 242 -163v-18q0 -163 -242 -163q-86 0 -137 6q-13 1 -13 9z"/>
<glyph glyph-name="afii10093" horiz-adv-x="702" unicode="ы" d="M632 19q0 -8 -5 -13.5t-12 -5.5h-10q-7 0 -12 5.5t-5 13.5v499q0 8 5 13.5t12 5.5h10q7 0 12 -5.5t5 -13.5v-499zM70 8v510q0 19 17 19h9q17 0 17 -19v-184q53 3 107 3q242 0 242 -163v-18q0 -163 -242 -163q-86 0 -137 6q-13 1 -13 9zM113 296v-262q69 -3 107 -3 q105 0 151 28.5t46 96.5v18q0 68 -46 96.5t-151 28.5q-38 0 -107 -3z"/>
<glyph glyph-name="afii10094" horiz-adv-x="512" unicode="ь" d="M70 8v510q0 19 17 19h9q17 0 17 -19v-184q53 3 107 3q242 0 242 -163v-18q0 -163 -242 -163q-86 0 -137 6q-13 1 -13 9zM113 296v-262q69 -3 107 -3q105 0 151 28.5t46 96.5v18q0 68 -46 96.5t-151 28.5q-38 0 -107 -3z"/>
<glyph glyph-name="afii10095" horiz-adv-x="437" unicode="э" d="M338 257h-233q-19 0 -19 16v9q0 16 19 16h233v5q0 106 -32 153t-122 47q-48 0 -119 -9h-5q-16 0 -16 14v7q0 15 19 18q54 9 121 9q115 0 156.5 -60t41.5 -179v-67q0 -118 -42 -180t-156 -62q-54 0 -121 9q-19 3 -19 18v7q0 14 16 14h5q71 -9 119 -9q90 0 122 49.5 t32 153.5v21z"/>
<glyph glyph-name="afii10096" horiz-adv-x="769" unicode="ю" d="M670 233v70q0 200 -162 200t-162 -200v-70q0 -200 162 -200t162 200zM124 19q0 -7 -6 -13t-13 -6h-6q-7 0 -13 6t-6 13v499q0 8 6 13.5t13 5.5h6q7 0 13 -5.5t6 -13.5v-219h178v4q0 115 52.5 177t153.5 62t153.5 -62t52.5 -177v-70q0 -115 -52.5 -177t-153.5 -62 t-153.5 62t-52.5 177v22h-178v-236z"/>
<glyph glyph-name="afii10097" horiz-adv-x="494" unicode="я" d="M92 391v-4q0 -112 192 -112q22 0 97 3v222q-75 3 -97 3q-192 0 -192 -112zM380 19l1 220q-43 -3 -97 -3q-33 0 -66 3l-128 -220q-7 -12 -12 -15.5t-15 -3.5h-7q-15 0 -15 11q0 9 6 19l126 218q-124 30 -124 139v4q0 151 235 151q81 0 129 -6q11 -2 11 -9v-508 q0 -8 -5 -13.5t-12 -5.5h-10q-7 0 -12 5.5t-5 13.5z"/>
<glyph glyph-name="uni0450" horiz-adv-x="511" unicode="ѐ" d="M302 625q0 -7 -9 -7h-22q-8 0 -22 17l-107 128q-4 4 -4 8q0 7 11 7h26q11 0 23 -15l100 -128q4 -4 4 -10zM412 298v6q0 98 -36.5 148.5t-118.5 50.5q-80 0 -119 -53.5t-39 -146.5v-5h313zM456 277q0 -8 -5.5 -13.5t-13.5 -5.5h-338v-21q0 -116 48 -160t133 -44 q65 0 148 17q21 4 21 -13v-7q0 -15 -19 -19q-82 -17 -150 -17q-225 0 -225 243v66q0 107 53 173t149 66q100 0 149.5 -63.5t49.5 -174.5v-27z"/>
<glyph glyph-name="afii10071" horiz-adv-x="511" unicode="ё" d="M213 661q0 -8 -5.5 -13.5t-13.5 -5.5h-6q-8 0 -13.5 5.5t-5.5 13.5v74q0 7 5.5 13t13.5 6h6q8 0 13.5 -6t5.5 -13v-74zM363 661q0 -8 -5.5 -13.5t-13.5 -5.5h-6q-8 0 -13.5 5.5t-5.5 13.5v74q0 7 5.5 13t13.5 6h6q8 0 13.5 -6t5.5 -13v-74zM412 298v6q0 98 -36.5 148.5 t-118.5 50.5q-80 0 -119 -53.5t-39 -146.5v-5h313zM456 277q0 -8 -5.5 -13.5t-13.5 -5.5h-338v-21q0 -116 48 -160t133 -44q65 0 148 17q1 0 3 0.5t3 0.5q15 0 15 -14v-7q0 -15 -19 -19q-82 -17 -150 -17q-225 0 -225 243v66q0 107 53 173t149 66q100 0 149.5 -63.5 t49.5 -174.5v-27z"/>
<glyph glyph-name="afii10099" horiz-adv-x="505" unicode="ђ" d="M440 -86q0 -62 -25 -85.5t-78 -23.5q-19 0 -42 3q-17 2 -17 14v9q0 12 21 12h38q34 0 47 14t13 57v436q0 76 -35 114.5t-113 38.5q-73 0 -135 -18v-466q0 -8 -5 -13.5t-12 -5.5h-10q-7 0 -12 5.5t-5 13.5v613h-68q-19 0 -19 17v5q0 17 19 17h68v53q0 19 17 19h10 q17 0 17 -19v-53h176q19 0 19 -17v-5q0 -17 -19 -17h-176v-108q70 18 135 18q191 0 191 -192v-436z"/>
<glyph glyph-name="afii10100" horiz-adv-x="371" unicode="ѓ" d="M307 496h-133q-33 0 -46.5 -14t-13.5 -45v-418q0 -8 -5 -13.5t-12 -5.5h-10q-7 0 -12 5.5t-5 13.5v418q0 59 29 79.5t75 20.5h133q19 0 19 -17v-7q0 -17 -19 -17zM332 771q0 -4 -4 -8l-107 -128q-14 -17 -22 -17h-22q-9 0 -9 7q0 6 4 10l100 128q12 15 23 15h26 q11 0 11 -7z"/>
<glyph glyph-name="afii10101" horiz-adv-x="437" unicode="є" d="M332 257h-233v-21q0 -203 154 -203q49 0 119 9h5q16 0 16 -14v-7q0 -15 -19 -18q-68 -9 -121 -9q-101 0 -149.5 67.5t-48.5 174.5v67q0 108 48 173.5t150 65.5q67 0 121 -9q19 -3 19 -18v-7q0 -14 -16 -14h-5q-70 9 -119 9q-154 0 -154 -200v-5h233q19 0 19 -16v-9 q0 -16 -19 -16z"/>
<glyph glyph-name="afii10102" horiz-adv-x="440" unicode="ѕ" d="M390 133q0 -139 -173 -139q-73 0 -145 14q-22 5 -22 16v11q0 14 16 14h6q96 -16 147 -16q60 0 93.5 21.5t33.5 78.5q0 31 -21.5 52.5t-84.5 56.5l-64 35q-64 35 -92.5 65t-28.5 77q0 65 43 94t110 29q66 0 143 -9q21 -3 21 -17v-8q0 -16 -18 -16h-3q-95 11 -139 11 q-55 0 -84 -17.5t-29 -66.5q0 -31 23 -53t74 -51l67 -37q69 -38 98 -68.5t29 -76.5z"/>
<glyph glyph-name="afii10103" horiz-adv-x="204" unicode="і" d="M124 19q0 -7 -6 -13t-13 -6h-6q-7 0 -13 6t-6 13v499q0 8 6 13.5t13 5.5h6q7 0 13 -5.5t6 -13.5v-499zM124 655q0 -8 -5.5 -13.5t-13.5 -5.5h-6q-8 0 -13.5 5.5t-5.5 13.5v74q0 7 6 13t13 6h6q7 0 13 -6t6 -13v-74z"/>
<glyph glyph-name="afii10104" horiz-adv-x="204" unicode="ї" d="M49 661q0 -8 -5.5 -13.5t-13.5 -5.5h-6q-8 0 -13.5 5.5t-5.5 13.5v74q0 7 5.5 13t13.5 6h6q8 0 13.5 -6t5.5 -13v-74zM199 661q0 -8 -5.5 -13.5t-13.5 -5.5h-6q-8 0 -13.5 5.5t-5.5 13.5v74q0 7 5.5 13t13.5 6h6q8 0 13.5 -6t5.5 -13v-74zM124 19q0 -7 -6 -13t-13 -6h-6 q-7 0 -13 6t-6 13v499q0 8 6 13.5t13 5.5h6q7 0 13 -5.5t6 -13.5v-499z"/>
<glyph glyph-name="afii10105" horiz-adv-x="204" unicode="ј" d="M124 -86q0 -62 -25 -85.5t-78 -23.5q-20 0 -42 3q-17 2 -17 14v9q0 12 21 12h38q34 0 46.5 13.5t12.5 57.5v604q0 19 16 19h11q17 0 17 -19v-604zM124 655q0 -8 -5.5 -13.5t-13.5 -5.5h-6q-8 0 -13.5 5.5t-5.5 13.5v74q0 7 6 13t13 6h6q7 0 13 -6t6 -13v-74z"/>
<glyph glyph-name="afii10106" horiz-adv-x="797" unicode="љ" d="M515 31q103 0 150 33t47 102v18q0 66 -44.5 90.5t-152.5 24.5q-37 0 -103 -3v-263q44 -2 103 -2zM238 537h156q18 0 18 -20v-183q51 3 103 3q57 0 99 -7t75.5 -23.5t50.5 -47t17 -75.5v-18q0 -89 -64.5 -131t-177.5 -42q-65 0 -128 7q-7 0 -13 6t-6 13v477h-130 q-18 0 -23 -18l-141 -465q-4 -13 -16 -13h-13q-15 0 -15 16q0 6 1 9l142 463q15 49 65 49z"/>
<glyph glyph-name="afii10107" horiz-adv-x="839" unicode="њ" d="M450 296v-262q69 -3 107 -3q103 0 150 33t47 102v18q0 66 -44.5 90.5t-152.5 24.5q-38 0 -107 -3zM407 8v258h-293v-247q0 -7 -6 -13t-13 -6h-6q-7 0 -13 6t-6 13v516q0 7 6 13t13 6h6q7 0 13 -6t6 -13v-228h293v224q0 19 17 19h9q17 0 17 -19v-197q53 3 107 3 q57 0 99 -7t75.5 -23.5t50.5 -47t17 -75.5v-18q0 -89 -64.5 -131t-177.5 -42q-86 0 -137 6q-13 1 -13 9z"/>
<glyph glyph-name="afii10108" horiz-adv-x="505" unicode="ћ" d="M440 350l1 -331q0 -8 -5 -13.5t-12 -5.5h-10q-7 0 -12 5.5t-5 13.5v331q0 76 -35 114.5t-113 38.5q-73 0 -135 -18v-466q0 -8 -5 -13.5t-12 -5.5h-10q-7 0 -12 5.5t-5 13.5v613h-68q-19 0 -19 15v7q0 17 19 17h68v53q0 8 5 13.5t12 5.5h10q7 0 12 -5.5t5 -13.5v-53h176 q19 0 19 -17v-7q0 -15 -19 -15h-176v-108q70 18 135 18q191 0 191 -192z"/>
<glyph glyph-name="afii10109" horiz-adv-x="444" unicode="ќ" d="M365 771q0 -4 -4 -8l-107 -128q-14 -17 -22 -17h-22q-9 0 -9 7q0 6 4 10l100 128q12 15 23 15h26q11 0 11 -7zM405 10q0 -16 -19 -16q-18 0 -30 12l-242 259v-246q0 -7 -6 -13t-13 -6h-6q-7 0 -13 6t-6 13v499q0 8 6 13.5t13 5.5h6q7 0 13 -5.5t6 -13.5v-215l246 230 q10 9 24 9q9 0 14.5 -5.5t5.5 -12.5q0 -9 -7 -15l-245 -224l246 -260q7 -9 7 -15z"/>
<glyph glyph-name="uni045D" horiz-adv-x="521" unicode="ѝ" d="M316 625q0 -7 -9 -7h-22q-8 0 -22 17l-107 128q-4 4 -4 8q0 7 11 7h26q11 0 23 -15l100 -128q4 -4 4 -10zM125 60l237 440q20 37 50 37q39 0 39 -60v-458q0 -19 -19 -19h-6q-19 0 -19 19v458q0 5 -4 5q-3 0 -6 -5l-236 -440q-12 -23 -22.5 -30t-29.5 -7q-39 0 -39 60v458 q0 19 20 19h4q20 0 20 -19v-458q0 -5 4 -5t7 5z"/>
<glyph glyph-name="afii10110" horiz-adv-x="486" unicode="ў" d="M394 761q0 -62 -41 -102.5t-102 -40.5t-102 40.5t-41 102.5q0 17 12 17h20q7 0 9 -3t2 -14q0 -56 32 -79t68 -23t68 23t32 79q0 11 2 14t9 3h20q12 0 12 -17zM447 520q0 -5 -1 -8l-164 -568q-23 -80 -57.5 -109.5t-104.5 -29.5q-26 0 -62 6q-20 3 -20 14v11q0 14 15 14h6 q45 -6 65 -6q54 0 77.5 21.5t41.5 87.5l13 47h-14q-25 0 -38 11t-23 45l-135 457q-1 2 -1 7q0 17 17 17h9q12 0 16 -14l135 -460q6 -22 23 -22h23l137 483q4 13 18 13h9q15 0 15 -17z"/>
<glyph glyph-name="afii10193" horiz-adv-x="521" unicode="џ" d="M407 100v418q0 19 17 19h10q17 0 17 -19v-418q0 -100 -106 -100h-63v-90q0 -19 -19 -19h-6q-19 0 -19 19v90h-64q-46 0 -75 20.5t-29 79.5v418q0 8 5 13.5t12 5.5h10q7 0 12 -5.5t5 -13.5v-418q0 -31 13.5 -45t46.5 -14h172q34 0 47.5 14t13.5 45z"/>
<glyph glyph-name="afii10050" horiz-adv-x="503" unicode="Ґ" d="M124 631v-612q0 -8 -5 -13.5t-12 -5.5h-10q-7 0 -12 5.5t-5 13.5v612q0 61 30.5 86.5t90.5 25.5h233v77q0 19 17 19h10q17 0 17 -19v-102q0 -16 -19 -16h-258q-40 0 -58.5 -14t-18.5 -57z"/>
<glyph glyph-name="afii10098" horiz-adv-x="371" unicode="ґ" d="M326 513q0 -17 -19 -17h-133q-33 0 -46.5 -14t-13.5 -45v-418q0 -8 -5 -13.5t-12 -5.5h-10q-7 0 -12 5.5t-5 13.5v418q0 59 29 79.5t75 20.5h108v70q0 7 6 13t13 6h6q7 0 13 -6t6 -13v-94z"/>
<glyph glyph-name="uni04B0" horiz-adv-x="551" unicode="Ұ" d="M498 238h-201v-219q0 -8 -5 -13.5t-12 -5.5h-10q-7 0 -12 5.5t-5 13.5v219h-201q-19 0 -19 17v10q0 16 19 16h201v28q-25 10 -47 58l-158 349q-3 8 -3 13q0 14 17 14h10q10 0 16 -12l157 -350q10 -22 15.5 -28.5t14.5 -6.5t14.5 6.5t15.5 28.5l157 350q6 12 16 12h10 q17 0 17 -14q0 -5 -3 -13l-158 -349q-22 -48 -47 -58v-28h201q19 0 19 -16v-10q0 -17 -19 -17z"/>
<glyph glyph-name="uni04B1" horiz-adv-x="480" unicode="ұ" d="M263 -175q0 -8 -5 -13.5t-12 -5.5h-10q-7 0 -12 5.5t-5 13.5v76h-132q-19 0 -19 17v10q0 16 19 16h132v53q-33 8 -48 60l-131 455q-1 3 -1 8q0 17 16 17h10q13 0 18 -18l128 -451q11 -36 30 -36q17 0 28 36l128 451q5 18 18 18h12q14 0 14 -15q0 -7 -1 -10l-131 -455 q-15 -52 -46 -60v-53h128q19 0 19 -16v-10q0 -17 -19 -17h-128v-76z"/>
<glyph glyph-name="Wgrave" horiz-adv-x="788" unicode="Ẁ" d="M449 801q0 -7 -9 -7h-22q-8 0 -22 17l-107 128q-4 4 -4 8q0 7 11 7h26q11 0 23 -15l100 -128q4 -4 4 -10zM743 720l-123 -679q-9 -47 -48 -47q-35 0 -48 45l-122 387q-4 12 -8 12t-8 -12l-122 -387q-13 -45 -48 -45q-39 0 -48 47l-123 679q-2 9 2.5 16t13.5 7h10 q15 0 18 -16l121 -677q3 -15 6 -15q4 0 8 15l125 389q12 39 45 39t45 -39l125 -389q4 -15 8 -15q3 0 6 15l121 677q3 16 18 16h10q9 0 13.5 -7t2.5 -16z"/>
<glyph glyph-name="wgrave" horiz-adv-x="752" unicode="ẁ" d="M431 625q0 -7 -9 -7h-22q-8 0 -22 17l-107 128q-4 4 -4 8q0 7 11 7h26q11 0 23 -15l100 -128q4 -4 4 -10zM702 513l-110 -465q-7 -29 -18 -41.5t-34 -12.5q-22 0 -32.5 13t-18.5 44l-106 380q-1 5 -2.5 7t-2 2h-2.5h-2.5t-2 -2t-2.5 -7l-106 -380q-8 -31 -18.5 -44 t-32.5 -13q-23 0 -34 12.5t-18 41.5l-110 465q0 1 -0.5 2.5t-0.5 2.5q0 8 5.5 13.5t13.5 5.5h6q12 0 16 -14l108 -465q3 -13 5.5 -18.5t4 -6t4.5 -0.5q6 0 13 24l108 386q10 36 43 36t43 -36l108 -386q7 -24 13 -24q3 0 4.5 0.5t4 6t5.5 18.5l108 465q4 14 16 14h6 q8 0 13.5 -5.5t5.5 -13.5q0 -1 -0.5 -2.5t-0.5 -2.5z"/>
<glyph glyph-name="Wacute" horiz-adv-x="788" unicode="Ẃ" d="M503 947q0 -4 -4 -8l-107 -128q-14 -17 -22 -17h-22q-9 0 -9 7q0 6 4 10l100 128q12 15 23 15h26q11 0 11 -7zM743 720l-123 -679q-9 -47 -48 -47q-35 0 -48 45l-122 387q-4 12 -8 12t-8 -12l-122 -387q-13 -45 -48 -45q-39 0 -48 47l-123 679q-2 9 2.5 16t13.5 7h10 q15 0 18 -16l121 -677q3 -15 6 -15q4 0 8 15l125 389q12 39 45 39t45 -39l125 -389q4 -15 8 -15q3 0 6 15l121 677q3 16 18 16h10q9 0 13.5 -7t2.5 -16z"/>
<glyph glyph-name="wacute" horiz-adv-x="752" unicode="ẃ" d="M494 771q0 -4 -4 -8l-107 -128q-14 -17 -22 -17h-22q-9 0 -9 7q0 6 4 10l100 128q12 15 23 15h26q11 0 11 -7zM702 513l-110 -465q-7 -29 -18 -41.5t-34 -12.5q-22 0 -32.5 13t-18.5 44l-106 380q-1 5 -2.5 7t-2 2h-2.5h-2.5t-2 -2t-2.5 -7l-106 -380q-8 -31 -18.5 -44 t-32.5 -13q-23 0 -34 12.5t-18 41.5l-110 465q0 1 -0.5 2.5t-0.5 2.5q0 8 5.5 13.5t13.5 5.5h6q12 0 16 -14l108 -465q3 -13 5.5 -18.5t4 -6t4.5 -0.5q6 0 13 24l108 386q10 36 43 36t43 -36l108 -386q7 -24 13 -24q3 0 4.5 0.5t4 6t5.5 18.5l108 465q4 14 16 14h6 q8 0 13.5 -5.5t5.5 -13.5q0 -1 -0.5 -2.5t-0.5 -2.5z"/>
<glyph glyph-name="Wdieresis" horiz-adv-x="788" unicode="Ẅ" d="M341 833q0 -8 -5.5 -13.5t-13.5 -5.5h-6q-8 0 -13.5 5.5t-5.5 13.5v74q0 7 5.5 13t13.5 6h6q8 0 13.5 -6t5.5 -13v-74zM491 833q0 -8 -5.5 -13.5t-13.5 -5.5h-6q-8 0 -13.5 5.5t-5.5 13.5v74q0 7 5.5 13t13.5 6h6q8 0 13.5 -6t5.5 -13v-74zM743 720l-123 -679 q-9 -47 -48 -47q-35 0 -48 45l-122 387q-4 12 -8 12t-8 -12l-122 -387q-13 -45 -48 -45q-39 0 -48 47l-123 679q-2 9 2.5 16t13.5 7h10q15 0 18 -16l121 -677q3 -15 6 -15q4 0 8 15l125 389q12 39 45 39t45 -39l125 -389q4 -15 8 -15q3 0 6 15l121 677q3 16 18 16h10 q9 0 13.5 -7t2.5 -16z"/>
<glyph glyph-name="wdieresis" horiz-adv-x="752" unicode="ẅ" d="M322 661q0 -8 -5.5 -13.5t-13.5 -5.5h-6q-8 0 -13.5 5.5t-5.5 13.5v74q0 7 6 13t13 6h6q7 0 13 -6t6 -13v-74zM472 661q0 -8 -5.5 -13.5t-13.5 -5.5h-6q-8 0 -13.5 5.5t-5.5 13.5v74q0 7 6 13t13 6h6q7 0 13 -6t6 -13v-74zM702 513l-110 -465q-7 -29 -18 -41.5t-34 -12.5 q-22 0 -32.5 13t-18.5 44l-106 380q-1 5 -2.5 7t-2 2h-2.5h-2.5t-2 -2t-2.5 -7l-106 -380q-8 -31 -18.5 -44t-32.5 -13q-23 0 -34 12.5t-18 41.5l-110 465q0 1 -0.5 2.5t-0.5 2.5q0 8 5.5 13.5t13.5 5.5h6q12 0 16 -14l108 -465q3 -13 5.5 -18.5t4 -6t4.5 -0.5q6 0 13 24 l108 386q10 36 43 36t43 -36l108 -386q7 -24 13 -24q3 0 4.5 0.5t4 6t5.5 18.5l108 465q4 14 16 14h6q8 0 13.5 -5.5t5.5 -13.5q0 -1 -0.5 -2.5t-0.5 -2.5z"/>
<glyph glyph-name="Ygrave" horiz-adv-x="551" unicode="Ỳ" d="M321 801q0 -7 -9 -7h-22q-8 0 -22 17l-107 128q-4 4 -4 8q0 7 11 7h26q11 0 23 -15l100 -128q4 -4 4 -10zM502 716l-158 -349q-22 -48 -47 -58v-290q0 -8 -5 -13.5t-12 -5.5h-10q-7 0 -12 5.5t-5 13.5v290q-25 10 -47 58l-158 349q-3 8 -3 13q0 14 17 14h10q10 0 16 -12 l157 -350q10 -22 15.5 -28.5t14.5 -6.5t14.5 6.5t15.5 28.5l157 350q6 12 16 12h10q17 0 17 -14q0 -5 -3 -13z"/>
<glyph glyph-name="ygrave" horiz-adv-x="486" unicode="ỳ" d="M281 625q0 -7 -9 -7h-22q-8 0 -22 17l-107 128q-4 4 -4 8q0 7 11 7h26q11 0 23 -15l100 -128q4 -4 4 -10zM446 512l-164 -568q-23 -80 -57.5 -109.5t-104.5 -29.5q-26 0 -62 6q-20 3 -20 14v11q0 17 21 14q45 -6 65 -6q54 0 77.5 21.5t41.5 87.5l13 47h-14q-25 0 -38 11 t-23 45l-135 457q-1 2 -1 7q0 17 17 17h9q12 0 16 -14l135 -460q6 -22 23 -22h23l137 483q4 13 18 13h9q15 0 15 -17q0 -5 -1 -8z"/>
<glyph glyph-name="endash" horiz-adv-x="360" unicode="–" d="M375 273q0 -16 -19 -16h-352q-19 0 -19 16v8q0 8 5.5 13t13.5 5h352q8 0 13.5 -5t5.5 -13v-8z"/>
<glyph glyph-name="emdash" horiz-adv-x="703" unicode="—" d="M718 273q0 -16 -19 -16h-695q-19 0 -19 16v8q0 8 5.5 13t13.5 5h695q8 0 13.5 -5t5.5 -13v-8z"/>
<glyph glyph-name="quoteleft" horiz-adv-x="170" unicode="‘" d="M131 732q0 -6 -1 -9l-41 -172q-4 -19 -20 -19h-19q-11 0 -11 11q0 5 1 8l48 172q5 19 19 19h15q9 0 9 -10z"/>
<glyph glyph-name="quoteright" horiz-adv-x="170" unicode="’" d="M131 732q0 -5 -1 -8l-48 -172q-5 -19 -19 -19h-15q-9 0 -9 10q0 6 1 9l41 172q4 19 20 19h19q11 0 11 -11z"/>
<glyph glyph-name="quotesinglbase" horiz-adv-x="170" unicode="‚" d="M131 95q0 -5 -1 -8l-48 -172q-5 -19 -19 -19h-15q-9 0 -9 10q0 6 1 9l41 172q4 19 20 19h19q11 0 11 -11z"/>
<glyph glyph-name="quotedblleft" horiz-adv-x="295" unicode="“" d="M131 733q0 -6 -1 -9l-41 -172q-4 -19 -20 -19h-19q-11 0 -11 11q0 5 1 8l48 172q5 19 19 19h15q9 0 9 -10zM256 733q0 -6 -1 -9l-41 -172q-4 -19 -20 -19h-19q-11 0 -11 11q0 5 1 8l48 172q5 19 19 19h15q9 0 9 -10z"/>
<glyph glyph-name="quotedblright" horiz-adv-x="295" unicode="”" d="M131 732q0 -5 -1 -8l-48 -172q-5 -19 -19 -19h-15q-9 0 -9 10q0 6 1 9l41 172q4 19 20 19h19q11 0 11 -11zM256 732q0 -5 -1 -8l-48 -172q-5 -19 -19 -19h-15q-9 0 -9 10q0 6 1 9l41 172q4 19 20 19h19q11 0 11 -11z"/>
<glyph glyph-name="quotedblbase" horiz-adv-x="295" unicode="„" d="M131 95q0 -5 -1 -8l-48 -172q-5 -19 -19 -19h-15q-9 0 -9 10q0 6 1 9l41 172q4 19 20 19h19q11 0 11 -11zM256 95q0 -5 -1 -8l-48 -172q-5 -19 -19 -19h-15q-9 0 -9 10q0 6 1 9l41 172q4 19 20 19h19q11 0 11 -11z"/>
<glyph glyph-name="bullet" horiz-adv-x="418" unicode="•" d="M363 367q0 -64 -45 -109t-109 -45t-109 45t-45 109t45 109t109 45t109 -45t45 -109z"/>
<glyph glyph-name="guilsinglleft" horiz-adv-x="305" unicode="‹" d="M252 92q0 -6 -5 -11l-7 -7q-4 -4 -10 -4q-7 0 -16 7l-178 163q-14 12 -14 29q0 15 14 29l178 163q9 7 16 7q6 0 10 -4l7 -7q5 -5 5 -11q0 -9 -8 -15l-177 -162l177 -162q8 -6 8 -15z"/>
<glyph glyph-name="guilsinglright" horiz-adv-x="305" unicode="›" d="M283 269q0 -17 -14 -29l-178 -163q-9 -7 -16 -7q-6 0 -10 4l-7 7q-5 5 -5 11q0 9 8 15l177 162l-177 162q-8 6 -8 15q0 6 5 11l7 7q4 4 10 4q7 0 16 -7l178 -163q14 -14 14 -29z"/>
<glyph glyph-name="fraction" horiz-adv-x="304" unicode="⁄" d="M393 738q0 -5 -6 -14l-418 -711q-11 -19 -21 -19h-27q-8 0 -8 6t5 13l418 711q11 19 21 19h28q8 0 8 -5z"/>
<glyph glyph-name="zero.superior" horiz-adv-x="319" unicode="⁰" d="M252 694v107q0 119 -92 119q-93 0 -93 -119v-107q0 -120 93 -120q92 0 92 120zM291 694q0 -79 -34.5 -118t-96.5 -39t-97 39t-35 118v107q0 156 132 156q131 0 131 -156v-107z"/>
<glyph glyph-name="four.superior" horiz-adv-x="319" unicode="⁴" d="M223 540h-8q-16 0 -16 18v99h-141q-19 0 -30.5 10t-11.5 26q0 14 11 30l147 215q12 19 36 19q29 0 29 -33v-230h46q18 0 18 -16v-4q0 -17 -18 -17h-46v-99q0 -18 -16 -18zM64 694h135v207q0 4 -2 4q-1 0 -3 -3l-134 -201q-1 -1 -1 -4t5 -3z"/>
<glyph glyph-name="five.superior" horiz-adv-x="319" unicode="⁵" d="M135 572q51 0 79 24t28 71v4q0 47 -29.5 64t-101.5 17h-47q-10 0 -14.5 4t-3.5 17l11 166q2 17 19 17h176q18 0 18 -17v-6q0 -16 -18 -16h-156l-8 -127h30q85 0 124.5 -26.5t39.5 -92.5v-4q0 -63 -40 -96.5t-107 -33.5q-45 0 -83 7q-16 2 -16 18v4q0 14 19 12 q54 -6 80 -6z"/>
<glyph glyph-name="six.superior" horiz-adv-x="319" unicode="⁶" d="M69 754v-70q0 -60 21 -86t67 -26q47 0 70 24.5t23 83.5q0 45 -22.5 64t-74.5 19q-48 0 -84 -9zM30 810q0 78 35 112.5t105 34.5q44 0 87 -9q18 -2 18 -18v-5q0 -15 -14 -15q-5 0 -8 1q-46 8 -83 8q-53 0 -77 -24.5t-24 -84.5v-20q39 9 88 9q132 0 132 -119 q0 -143 -132 -143q-127 0 -127 147v126z"/>
<glyph glyph-name="seven.superior" horiz-adv-x="292" unicode="⁷" d="M62 566l166 345q2 5 -4 5h-189q-19 0 -19 17v4q0 7 6 13t13 6h213q13 0 20.5 -7.5t7.5 -19.5q0 -9 -4 -17l-169 -355q-9 -17 -19 -17h-14q-12 0 -12 11q0 5 4 15z"/>
<glyph glyph-name="eight.superior" horiz-adv-x="319" unicode="⁸" d="M252 840v12q0 67 -92 67q-93 0 -93 -67v-12q0 -25 16.5 -43.5t53.5 -18.5h44q38 0 54.5 18.5t16.5 43.5zM252 653v17q0 23 -17 45.5t-54 22.5h-44q-36 0 -53 -22.5t-17 -45.5v-17q0 -78 93 -78q92 0 92 78zM293 653q0 -57 -36.5 -86.5t-96.5 -29.5q-61 0 -97.5 29.5 t-36.5 86.5v17q0 23 12.5 47t36.5 39q-49 27 -49 84v12q0 53 36 79t98 26t97.5 -26t35.5 -79v-12q0 -57 -49 -84q24 -15 36.5 -39t12.5 -47v-17z"/>
<glyph glyph-name="nine.superior" horiz-adv-x="319" unicode="⁹" d="M250 740v70q0 60 -21 86t-67 26q-47 0 -70 -24.5t-23 -83.5q0 -45 22.5 -64t74.5 -19q48 0 84 9zM289 684q0 -78 -35 -112.5t-105 -34.5q-44 0 -87 9q-18 2 -18 18v5q0 15 14 15q5 0 8 -1q46 -8 83 -8q53 0 77 24.5t24 84.5v20q-39 -9 -88 -9q-132 0 -132 119 q0 143 132 143q127 0 127 -147v-126z"/>
<glyph glyph-name="n.superior" horiz-adv-x="287" unicode="ⁿ" d="M69 582v-237q0 -15 -14 -15h-6q-13 0 -13 15v270q0 16 14 16h5q14 0 14 -16v-5q41 22 82 22q100 0 100 -107v-180q0 -15 -14 -15h-4q-15 0 -15 15v180q0 45 -16.5 61.5t-51.5 16.5q-37 0 -81 -21z"/>
<glyph glyph-name="zero.inferior" horiz-adv-x="319" unicode="₀" d="M252 -58v107q0 119 -92 119q-93 0 -93 -119v-107q0 -120 93 -120q92 0 92 120zM291 -58q0 -79 -34.5 -118t-96.5 -39t-97 39t-35 118v107q0 156 132 156q131 0 131 -156v-107z"/>
<glyph glyph-name="one.inferior" horiz-adv-x="210" unicode="₁" d="M92 -194v357l-55 -8h-5q-15 0 -15 19q0 15 18 19l76 11q1 0 3 0.5t3 0.5q15 0 15 -20v-379q0 -18 -16 -18h-8q-16 0 -16 18z"/>
<glyph glyph-name="two.inferior" horiz-adv-x="319" unicode="₂" d="M67 165q-20 -2 -20 12v3q0 17 19 19q39 6 81 6q133 0 133 -93q0 -33 -16 -61t-60 -57l-55 -37q-44 -30 -57 -54.5t-13 -62.5v-14h178q18 0 18 -16v-6q0 -16 -18 -16h-200q-8 0 -13 6t-5 13v33q0 45 17.5 78.5t69.5 69.5l55 38q34 23 46 40t12 46q0 58 -92 58 q-33 0 -80 -5z"/>
<glyph glyph-name="three.inferior" horiz-adv-x="319" unicode="₃" d="M237 -94v11q0 70 -68 70h-101q-18 0 -18 17v4q0 17 18 17h101q68 0 68 68v7q0 40 -23.5 55t-76.5 15q-23 0 -77 -6q-19 -2 -19 12v4q0 16 16 18q38 7 80 7q71 0 106 -22.5t35 -82.5v-7q0 -59 -47 -89q47 -26 47 -87v-11q0 -65 -36 -93t-105 -28q-42 0 -80 7q-16 2 -16 18 v4q0 14 19 12q54 -6 77 -6q51 0 75.5 20t24.5 66z"/>
<glyph glyph-name="four.inferior" horiz-adv-x="319" unicode="₄" d="M223 -212h-8q-16 0 -16 18v99h-141q-19 0 -30.5 10t-11.5 26q0 14 11 30l147 215q12 19 36 19q29 0 29 -33v-230h46q18 0 18 -16v-4q0 -17 -18 -17h-46v-99q0 -18 -16 -18zM64 -58h135v207q0 4 -2 4q-1 0 -3 -3l-134 -201q-1 -1 -1 -4t5 -3z"/>
<glyph glyph-name="five.inferior" horiz-adv-x="319" unicode="₅" d="M135 -180q51 0 79 24t28 71v4q0 47 -29.5 64t-101.5 17h-47q-10 0 -14.5 4t-3.5 17l11 166q2 17 19 17h176q18 0 18 -17v-6q0 -16 -18 -16h-156l-8 -127h30q85 0 124.5 -26.5t39.5 -92.5v-4q0 -63 -40 -96.5t-107 -33.5q-45 0 -83 7q-16 2 -16 18v4q0 14 19 12 q54 -6 80 -6z"/>
<glyph glyph-name="six.inferior" horiz-adv-x="319" unicode="₆" d="M69 2v-70q0 -60 21 -86t67 -26q47 0 70 24.5t23 83.5q0 45 -22.5 64t-74.5 19q-48 0 -84 -9zM30 58q0 78 35 112.5t105 34.5q44 0 87 -9q18 -2 18 -18v-5q0 -15 -14 -15q-5 0 -8 1q-46 8 -83 8q-53 0 -77 -24.5t-24 -84.5v-20q39 9 88 9q132 0 132 -119q0 -143 -132 -143 q-127 0 -127 147v126z"/>
<glyph glyph-name="seven.inferior" horiz-adv-x="292" unicode="₇" d="M62 -186l166 345q2 5 -4 5h-189q-19 0 -19 17v4q0 7 6 13t13 6h213q13 0 20.5 -7.5t7.5 -19.5q0 -9 -4 -17l-169 -355q-9 -17 -19 -17h-14q-12 0 -12 11q0 5 4 15z"/>
<glyph glyph-name="eight.inferior" horiz-adv-x="319" unicode="₈" d="M252 88v12q0 67 -92 67q-93 0 -93 -67v-12q0 -25 16.5 -43.5t53.5 -18.5h44q38 0 54.5 18.5t16.5 43.5zM252 -99v17q0 23 -17 45.5t-54 22.5h-44q-36 0 -53 -22.5t-17 -45.5v-17q0 -78 93 -78q92 0 92 78zM293 -99q0 -57 -36.5 -86.5t-96.5 -29.5q-61 0 -97.5 29.5 t-36.5 86.5v17q0 23 12.5 47t36.5 39q-49 27 -49 84v12q0 53 36 79t98 26t97.5 -26t35.5 -79v-12q0 -57 -49 -84q24 -15 36.5 -39t12.5 -47v-17z"/>
<glyph glyph-name="nine.inferior" horiz-adv-x="319" unicode="₉" d="M250 -12v70q0 60 -21 86t-67 26q-47 0 -70 -24.5t-23 -83.5q0 -45 22.5 -64t74.5 -19q48 0 84 9zM289 -68q0 -78 -35 -112.5t-105 -34.5q-44 0 -87 9q-18 2 -18 18v5q0 15 14 15q5 0 8 -1q46 -8 83 -8q53 0 77 24.5t24 84.5v20q-39 -9 -88 -9q-132 0 -132 119 q0 143 132 143q127 0 127 -147v-126z"/>
<glyph glyph-name="Euro" d="M521 21q0 -15 -19 -17q-87 -10 -143 -10q-38 0 -73.5 8.5t-70 29.5t-60.5 52.5t-43.5 81.5t-19.5 113h-44q-18 0 -18 16v9q0 16 20 16h42v107h-44q-18 0 -18 16v9q0 16 20 16h42q4 77 29 133.5t64.5 87t82.5 45t91 14.5q56 0 143 -10q19 -2 19 -17v-12q0 -12 -13 -12h-6 q-81 9 -143 9q-89 0 -153 -58.5t-70 -179.5h329q18 0 18 -13v-3l-2 -9q-3 -16 -20 -16h-325v-107h297q18 0 18 -13v-3l-2 -9q-3 -16 -20 -16h-293q6 -124 69.5 -183.5t153.5 -59.5q62 0 143 9h6q13 0 13 -12v-12z" unicode="€"/>
<glyph glyph-name="uni20B4" horiz-adv-x="530" unicode="₴" d="M488 238h-355q-9 -24 -9 -53q0 -72 36 -110.5t140 -38.5q25 0 49 1.5t54 5t47 4.5q23 2 23 -13v-13q0 -14 -18 -16q-110 -11 -155 -11q-56 0 -97 11.5t-64.5 29t-37.5 44t-18.5 51t-4.5 55.5t7 53h-49q-18 0 -18 16v9q0 16 20 16h67q33 51 139 114l60 37h-268 q-18 0 -18 16v9q0 16 20 16h328q67 50 67 114t-40.5 92.5t-137.5 28.5q-38 0 -148 -10q-19 -2 -19 14v13q0 13 17 15q72 10 149 10q224 0 224 -162q0 -65 -45 -115h57q18 0 18 -16v-9q0 -16 -20 -16h-101q-21 -16 -56 -37l-63 -39q-82 -51 -106 -75h328q18 0 18 -16v-9 q0 -16 -20 -16z"/>
<glyph glyph-name="afii61352" horiz-adv-x="1155" unicode="№" d="M1040 451v39q0 188 -141 188t-141 -188v-39q0 -187 141 -187t141 187zM1084 451q0 -107 -47.5 -167.5t-137.5 -60.5t-137.5 60.5t-47.5 167.5v39q0 107 47.5 168t137.5 61t137.5 -61t47.5 -168v-39zM1071 132q19 0 19 -16v-10q0 -17 -19 -17h-345q-19 0 -19 17v10 q0 16 19 16h345zM573 45q0 -23 -13 -37t-32 -14h-1q-24 0 -33 7q-11 9 -18 23l-337 675q-3 7 -8 7t-5 -7v-680q0 -8 -5 -13.5t-12 -5.5h-10q-7 0 -12 5.5t-5 13.5v680q0 22 13.5 35.5t35.5 13.5q33 0 48 -31l336 -674q3 -7 8 -7t5 9v679q0 19 16 19h12q17 0 17 -19v-679z "/>
<glyph glyph-name="uni2215" horiz-adv-x="304" unicode="∕" d="M393 738q0 -5 -6 -14l-418 -711q-11 -19 -21 -19h-27q-8 0 -8 6t5 13l418 711q11 19 21 19h28q8 0 8 -5z"/>
</font>
</defs>
</svg>
