<?xml version="1.0" encoding="UTF-8" standalone="no"?>
<!DOCTYPE svg  PUBLIC '-//W3C//DTD SVG 1.1//EN'  'http://www.w3.org/Graphics/SVG/1.1/DTD/svg11.dtd'>
<svg xmlns="http://www.w3.org/2000/svg">
<defs>
<font id="NeoSansW1G-UltraItalic" horiz-adv-x="652">
<font-face slope="-12" underline-position="20" font-weight="900" descent="-200" panose-1="2 11 10 4 3 5 4 9 2 4" units-per-em="1000" unicode-range="U+0020-2215" bbox="-165 -217 1348 1037" x-height="590" underline-thickness="100" font-family="NeoSansW1G" ascent="800" font-style="italic" cap-height="743"/>
<missing-glyph horiz-adv-x="1000"/>
<glyph glyph-name="IJ" horiz-adv-x="712" unicode="IJ" d="M779 727v-4l-126 -718q-38 -211 -227 -211q-72 0 -110 6q-17 3 -17 17v3l24 134q4 20 23 20h43q14 0 19.5 6t8.5 25l126 718q1 8 9 14t16 6h195q16 0 16 -16zM423 727v-4l-123 -703q-4 -20 -24 -20h-195q-17 0 -17 17v3l123 703q1 8 9 14t16 6h195q16 0 16 -16z"/>
<glyph glyph-name="ij" horiz-adv-x="658" unicode="ij" d="M706 573v-4l-102 -580q-19 -109 -74.5 -154t-140.5 -45q-44 0 -105 11q-17 3 -17 18v4l19 108q4 21 25 21h42q20 0 27 37l102 580q1 9 9.5 15t17.5 6h179q18 0 18 -17zM745 761v-3l-18 -102q-1 -9 -9.5 -15t-17.5 -6h-189q-8 0 -13.5 5t-5.5 13v3l18 102q4 21 26 21h189 q8 0 14 -5.5t6 -12.5zM377 573v-4l-96 -547q-1 -9 -9 -15.5t-17 -6.5h-179q-19 0 -19 19v3l96 547q1 9 9.5 15t17.5 6h179q18 0 18 -17zM416 761v-3l-18 -102q-1 -9 -9.5 -15t-17.5 -6h-189q-8 0 -13.5 5t-5.5 13v3l18 102q1 9 9 15t17 6h189q8 0 14 -5.5t6 -12.5z"/>
<glyph glyph-name="napostrophe" horiz-adv-x="890" unicode='&quot;n' d="M912 438q0 -30 -7 -70l-61 -346q-2 -11 -6.5 -16.5t-18.5 -5.5h-180q-19 0 -19 16q0 1 0.5 3t0.5 3l61 346q1 6 1 18q0 31 -43 31q-28 0 -58 -15l-67 -380q-1 -8 -2.5 -11.5t-7 -7t-14.5 -3.5h-180q-20 0 -20 17q0 1 0.5 2.5t0.5 2.5l97 548q4 20 23 20h165q18 0 18 -14 q0 -1 -0.5 -3t-0.5 -3l-5 -28q81 58 171 58q152 0 152 -162zM402 770q0 -4 -3 -10l-131 -242q-10 -19 -22 -19h-145q-8 0 -8 7q0 6 3 12l104 242q8 19 23 19h169q10 0 10 -9z"/>
<glyph glyph-name=".notdef" horiz-adv-x="1000"/>
<glyph glyph-name=".null" horiz-adv-x="0"/>
<glyph glyph-name="nonmarkingreturn" horiz-adv-x="333"/>
<glyph glyph-name="space" horiz-adv-x="230" unicode=" "/>
<glyph glyph-name="exclam" horiz-adv-x="309" unicode="!" d="M292 176v-4l-26 -152q-4 -20 -24 -20h-175q-16 0 -16 16v4l26 152q4 20 24 20h175q16 0 16 -16zM404 763q0 -1 -0.5 -2.5t-0.5 -2.5l-115 -482q-6 -22 -24 -22h-127q-18 0 -18 19v3l55 482q1 9 8.5 15t16.5 6h187q18 0 18 -16z"/>
<glyph glyph-name="quotedbl" horiz-adv-x="547" unicode='&quot;' d="M402 770q0 -4 -3 -10l-131 -242q-10 -19 -22 -19h-145q-8 0 -8 7q0 6 3 12l104 242q8 19 23 19h169q10 0 10 -9zM659 770q0 -4 -3 -10l-131 -242q-10 -19 -22 -19h-145q-8 0 -8 7q0 6 3 12l104 242q8 19 23 19h169q10 0 10 -9z"/>
<glyph glyph-name="numbersign" horiz-adv-x="715" unicode="#" d="M479 435h-80l-35 -129h80zM786 556v-2l-1 -2l-28 -101q-5 -16 -23 -16h-72l-35 -129h73q16 0 16 -13q0 -1 -0.5 -2t-0.5 -2l-29 -101q-5 -16 -23 -16h-72l-40 -153q-6 -19 -21 -19h-149q-14 0 -14 14l1 2v3l40 153h-80l-40 -153q-6 -19 -21 -19h-150q-14 0 -14 14 q0 1 0.5 2.5t0.5 2.5l40 153h-69q-16 0 -16 12l1 2v2l29 101q5 17 23 17h68l35 129h-69q-16 0 -16 12q0 1 0.5 2t0.5 2l28 101q5 17 23 17h67l42 155q6 19 22 19h150q13 0 13 -14v-2q-1 -2 -1 -3l-42 -155h80l42 155q6 19 22 19h149q13 0 13 -13q0 -4 -1 -6l-42 -155h74 q16 0 16 -13z"/>
<glyph glyph-name="dollar" horiz-adv-x="670" unicode="$" d="M718 706v-1l-26 -149q-4 -20 -21 -20h-1h-1q-156 15 -241 15q-24 0 -24 -19q0 -11 32 -29l128 -75q96 -56 96 -163q0 -18 -3 -36q-33 -187 -240 -230l-18 -101q-4 -20 -24 -20h-148q-16 0 -16 16v3v1l17 97q-54 6 -115 25q-18 7 -18 17v3l26 149q4 20 23 20h2 q174 -17 212 -17q42 0 42 35q0 13 -22 27l-135 87q-86 56 -86 170q0 23 3 39q14 81 59.5 128t140.5 66l16 91q4 20 23 20h148q17 0 17 -17v-3l-15 -86q102 -8 153 -24q16 -5 16 -17v-2z"/>
<glyph glyph-name="percent" horiz-adv-x="896" unicode="%" d="M324 609q0 17 -4.5 22.5t-14.5 5.5q-15 0 -24 -13.5t-16 -55.5l-10 -60q-4 -24 -4 -42q0 -17 4.5 -22.5t14.5 -5.5q14 0 23.5 14t16.5 56l10 60q4 24 4 41zM775 275q0 17 -4.5 22.5t-14.5 5.5q-15 0 -24 -13.5t-16 -55.5l-10 -60q-4 -24 -4 -42q0 -17 4.5 -22.5 t14.5 -5.5q14 0 23.5 14t16.5 56l10 60q4 24 4 41zM455 616q0 -25 -4 -48l-10 -60q-16 -96 -63 -138t-127 -42q-64 0 -97 35.5t-33 98.5q0 25 4 46l10 60q16 97 63 138.5t127 41.5q64 0 97 -34.5t33 -97.5zM876 734q0 -5 -5 -12l-537 -700q-16 -22 -29 -22h-142 q-11 0 -11 11q0 6 4 11l537 700q17 21 31 21h142q10 0 10 -9zM906 282q0 -25 -4 -48l-10 -60q-16 -96 -63 -138t-127 -42q-64 0 -97 35.5t-33 98.5q0 25 4 46l10 60q16 97 63 138.5t127 41.5q64 0 97 -34.5t33 -97.5z"/>
<glyph glyph-name="ampersand" horiz-adv-x="761" unicode="&amp;" d="M431 153l-89 117l-3 -2q-42 -28 -42 -78q0 -47 66 -47q33 0 68 10zM479 572q0 32 -43 32q-30 0 -43.5 -13t-13.5 -43q0 -25 18 -49l5 -7l26 14q28 15 39.5 28t11.5 38zM768 361v-3q-22 -124 -93 -215l89 -114q4 -5 4 -12t-5 -12t-12 -5h-194q-8 0 -16 9l-14 18 q-83 -37 -181 -37q-126 0 -200 46.5t-74 136.5q0 85 39 135t127 97l-6 8q-53 71 -53 135q0 58 24 100t65.5 64t88 31.5t101.5 9.5q113 0 169.5 -46t56.5 -113q0 -76 -36.5 -123t-112.5 -91l-31 -18l71 -91q23 41 30 87q4 20 24 20h123q16 0 16 -17z"/>
<glyph glyph-name="quotesingle" horiz-adv-x="240" unicode="&apos;" d="M402 770q0 -4 -3 -10l-131 -242q-10 -19 -22 -19h-145q-8 0 -8 7q0 6 3 12l104 242q8 19 23 19h169q10 0 10 -9z"/>
<glyph glyph-name="parenleft" horiz-adv-x="402" unicode="(" d="M506 735q0 -7 -8 -18q-149 -208 -184 -434l-3 -19q-12 -72 -12 -159q0 -161 41 -274q2 -4 2 -12q0 -14 -13 -14h-151q-24 0 -32 14q-69 129 -69 302q0 83 10 143l3 19q22 141 73 247t134 199q11 14 36 14h163q10 0 10 -8z"/>
<glyph glyph-name="parenright" horiz-adv-x="402" unicode=")" d="M423 421q0 -64 -11 -138l-3 -19q-23 -142 -71.5 -247.5t-130.5 -197.5q-11 -14 -36 -14h-168q-10 0 -10 8q0 10 7 18q150 210 185 433l3 19q13 84 13 160q0 146 -47 274q-2 8 -2 12q0 14 14 14h162q24 0 32 -14q63 -115 63 -308z"/>
<glyph glyph-name="asterisk" horiz-adv-x="480" unicode="*" d="M561 549q0 -12 -16 -17l-107 -30l68 -90q6 -8 6 -15q0 -9 -7 -13l-75 -54q-4 -3 -10 -3q-10 0 -17 10l-63 94l-63 -94q-7 -10 -17 -10q-6 0 -10 3l-75 54q-7 4 -7 13q0 7 6 15l68 90l-106 30q-17 5 -17 18q0 3 1 5l29 89q4 11 15 11q2 0 10 -2l106 -37l-3 111v1 q0 21 16 21h94q16 0 16 -21v-1l-2 -111l105 37q8 2 10 2q11 0 15 -11l29 -89q1 -2 1 -6z"/>
<glyph glyph-name="plus" horiz-adv-x="640" unicode="+" d="M639 326q0 -16 -20 -16h-142v-141q0 -20 -16 -20h-130q-16 0 -16 20v141h-141q-20 0 -20 16v130q0 16 20 16h141v142q0 20 16 20h130q16 0 16 -20v-142h142q20 0 20 -16v-130z"/>
<glyph glyph-name="comma" horiz-adv-x="296" unicode="," d="M297 180q0 -4 -3 -8l-156 -252q-12 -20 -24 -20h-127q-17 0 -17 14q0 4 1 6l114 252q9 20 25 20h173q14 0 14 -12z"/>
<glyph glyph-name="hyphen" horiz-adv-x="262" unicode="-" d="M310 359v-3l-21 -118q-4 -20 -24 -20h-192q-16 0 -16 16v4l21 118q4 20 23 20h192q17 0 17 -17z"/>
<glyph glyph-name="period" horiz-adv-x="296" unicode="." d="M286 175v-3l-26 -152q-1 -8 -9 -14t-16 -6h-174q-17 0 -17 17v3l26 152q1 8 9 14t16 6h174q17 0 17 -17z"/>
<glyph glyph-name="slash" horiz-adv-x="445" unicode="/" d="M562 728q0 -4 -1 -6l-323 -700q-10 -22 -25 -22h-180q-8 0 -14 5t-6 12q0 3 1 5l323 700q10 21 27 21h180q7 0 12.5 -4.5t5.5 -10.5z"/>
<glyph glyph-name="zero" horiz-adv-x="670" unicode="0" d="M470 501q0 30 -9 40.5t-27 10.5q-26 0 -42.5 -24.5t-29.5 -101.5l-19 -109q-8 -43 -8 -75q0 -30 9 -40.5t27 -10.5q26 0 42.5 24.5t29.5 101.5l19 109q8 43 8 75zM708 525q0 -45 -9 -99l-19 -109q-57 -327 -345 -327q-238 0 -238 228q0 45 9 99l19 109q57 327 345 327 q238 0 238 -228z"/>
<glyph glyph-name="one" horiz-adv-x="670" unicode="1" d="M141 199h121l54 311l-126 -39q-9 -3 -13 -3q-9 0 -8 12l30 169q3 14 17 20l194 69q13 5 23 5h140q8 0 13 -6t3 -14l-92 -524h121q8 0 13 -6t4 -14l-28 -159q-4 -20 -24 -20h-477q-8 0 -13.5 6t-4.5 14l28 159q1 8 9 14t16 6z"/>
<glyph glyph-name="two" horiz-adv-x="670" unicode="2" d="M715 588q0 -12 -4 -40q-13 -76 -63 -126t-149 -103q-72 -38 -112 -64.5t-58 -55.5h287q18 0 18 -17v-3l-28 -159q-1 -8 -9 -14t-16 -6h-486q-17 0 -17 17v3l19 110q18 106 78.5 174t157.5 127q20 12 41 24.5t32.5 19t23.5 14t18 11.5t11.5 8.5t7.5 8.5t4 8.5t3 10.5 q0 2 0.5 4.5t0.5 3.5q0 12 -16 17t-63 5q-33 0 -98.5 -5t-96.5 -5h-1q-15 0 -15 16v3v1l20 115q2 12 23 20q119 42 245 42t184 -45t58 -120z"/>
<glyph glyph-name="three" horiz-adv-x="670" unicode="3" d="M711 587q0 -75 -30 -123.5t-97 -86.5q67 -47 67 -130q0 -71 -26 -122.5t-72 -80t-101.5 -41.5t-122.5 -13q-62 0 -130.5 13t-98.5 28q-17 10 -17 17v3l20 116q4 20 24 20h1q25 0 102 -5t112 -5q83 0 83 69q0 43 -50 43h-173q-7 0 -12 5t-5 12v3l23 129q4 20 24 20h161 q35 0 58 17.5t23 51.5q0 39 -63 39q-35 0 -110.5 -5t-100.5 -5h-1q-16 0 -16 16v3v1l20 116q2 9 25 20q36 15 105.5 28t130.5 13q247 0 247 -166z"/>
<glyph glyph-name="four" horiz-adv-x="670" unicode="4" d="M422 481l-157 -162h128zM688 727v-4l-71 -404h50q17 0 17 -17v-3l-24 -137q-4 -20 -24 -20h-50l-21 -122q-4 -20 -24 -20h-195q-16 0 -16 16v4l21 122h-268q-16 0 -16 16v4l22 130q3 14 15 28l406 418q5 5 14 5h9h139q16 0 16 -16z"/>
<glyph glyph-name="five" horiz-adv-x="670" unicode="5" d="M711 724v-1l-25 -147q-4 -20 -24 -20h-272l-21 -81h45q127 0 181.5 -51.5t54.5 -128.5q0 -305 -348 -305q-113 0 -201 37q-18 7 -18 17v3l21 120q4 20 22 20h3q114 -10 160 -10q59 0 88 15t29 65q0 21 -16 31t-56 10h-184q-19 0 -19 19q0 4 1 6l100 400q5 20 24 20h439 q16 0 16 -16v-3z"/>
<glyph glyph-name="six" horiz-adv-x="670" unicode="6" d="M435 288q0 42 -39 42q-19 0 -49 -3l-13 -73q-4 -23 -4 -42q0 -49 37 -49q68 0 68 125zM705 703q0 -1 -0.5 -3.5t-0.5 -3.5l-22 -124q-3 -20 -22 -20h-5q-107 14 -184 14q-50 0 -68 -15t-29 -69l-1 -5q45 7 75 7q102 0 160.5 -42t58.5 -132q0 -155 -85 -237.5t-244 -82.5 q-117 0 -178 61.5t-61 153.5q0 26 4 49l40 228q47 271 328 271q119 0 216 -31q18 -6 18 -19z"/>
<glyph glyph-name="seven" horiz-adv-x="670" unicode="7" d="M733 727v-4l-19 -111q-3 -17 -20 -44l-345 -548q-12 -20 -24 -20h-213q-14 0 -14 7q0 5 5 13l344 536h-230q-17 0 -17 17v3l25 147q1 8 9 14t16 6h467q16 0 16 -16z"/>
<glyph glyph-name="eight" horiz-adv-x="670" unicode="8" d="M445 257q0 46 -46 46h-12q-35 0 -53.5 -28.5t-18.5 -66.5q0 -22 12.5 -35t34.5 -13h12q36 0 53.5 29.5t17.5 67.5zM494 533q0 49 -45 49h-12q-33 0 -50.5 -21.5t-17.5 -57.5q0 -44 46 -44h12q67 0 67 74zM723 573q0 -123 -100 -189q51 -48 51 -125q0 -68 -27 -121 t-73 -84.5t-103.5 -47.5t-123.5 -16h-12q-123 0 -187.5 57t-64.5 135q0 125 110 202q-48 45 -48 117q0 252 320 252h12q125 0 185.5 -52t60.5 -128z"/>
<glyph glyph-name="nine" horiz-adv-x="670" unicode="9" d="M469 531q0 49 -37 49q-68 0 -68 -125q0 -42 39 -42q19 0 49 3l13 73q4 23 4 42zM700 538q0 -26 -4 -49l-40 -228q-47 -271 -328 -271q-119 0 -216 31q-18 6 -18 19q0 1 0.5 3.5t0.5 3.5l22 124q3 20 22 20h5q107 -14 184 -14q50 0 68 15t29 69l1 5q-45 -7 -75 -7 q-102 0 -160.5 42t-58.5 132q0 155 85 237.5t244 82.5q117 0 178 -61.5t61 -153.5z"/>
<glyph glyph-name="colon" horiz-adv-x="296" unicode=":" d="M286 175v-3l-26 -152q-1 -8 -9 -14t-16 -6h-174q-17 0 -17 17v3l26 152q1 8 9 14t16 6h174q17 0 17 -17zM350 534v-3l-27 -152q-1 -8 -9 -14t-16 -6h-174q-17 0 -17 17v3l27 152q4 20 24 20h174q18 0 18 -17z"/>
<glyph glyph-name="semicolon" horiz-adv-x="296" unicode=";" d="M285 180q0 -5 -2 -8l-157 -252q-12 -20 -23 -20h-127q-18 0 -18 15q0 3 1 5l115 252q9 20 24 20h173q14 0 14 -12zM353 534v-3l-27 -152q-4 -20 -24 -20h-174q-18 0 -18 17v3l27 152q1 8 9 14t16 6h174q17 0 17 -17z"/>
<glyph glyph-name="less" horiz-adv-x="640" unicode="&lt;" d="M625 145q0 -11 -13 -11h-197q-17 0 -28 10l-236 218q-15 15 -15 29t15 29l236 218q11 10 28 10h197q13 0 13 -11q0 -6 -7 -12l-256 -234l256 -234q7 -6 7 -12z"/>
<glyph glyph-name="equal" horiz-adv-x="640" unicode="=" d="M635 184q0 -16 -20 -16h-445q-20 0 -20 16v130q0 16 20 16h445q20 0 20 -16v-130zM635 468q0 -16 -20 -16h-445q-20 0 -20 16v130q0 16 20 16h445q20 0 20 -16v-130z"/>
<glyph glyph-name="greater" horiz-adv-x="640" unicode="&gt;" d="M648 391q0 -14 -15 -29l-236 -218q-11 -10 -28 -10h-197q-13 0 -13 11q0 6 7 12l256 234l-256 234q-7 6 -7 12q0 11 13 11h197q17 0 28 -10l236 -218q15 -15 15 -29z"/>
<glyph glyph-name="question" horiz-adv-x="500" unicode="?" d="M340 173v-1l-26 -152q-1 -8 -9 -14t-16 -6h-174q-7 0 -12 5t-5 12v2v1l26 152q1 8 9 14t16 6h174q7 0 12 -5t5 -12v-2zM581 644q0 -21 -4 -40q-11 -63 -71 -134l-167 -196q-16 -20 -35 -20h-134q-17 0 -17 17v3l7 40q9 48 20.5 72t46.5 70l63 82q19 24 19 37q0 11 -21 11 h-5h-3l-129 -11h-2q-14 0 -14 16v4l25 144q2 12 24 20q80 29 182 29q215 0 215 -144z"/>
<glyph glyph-name="at" horiz-adv-x="792" unicode="@" d="M468 376q-12 2 -29 2q-26 0 -36 -11.5t-18 -50.5l-23 -108q-3 -10 -3 -24t8.5 -21.5t18 -9t25.5 -1.5h15zM802 391q0 -92 -31 -161t-87.5 -110.5t-129 -62t-160.5 -20.5q-79 0 -131 33.5t-52 100.5q0 11 4 35l22 115q20 101 74.5 139.5t158.5 38.5q62 0 136 -16 q28 -5 28 -30q0 -4 -1 -7l-58 -287q66 16 96.5 84t30.5 148q0 89 -50.5 139.5t-158.5 50.5q-133 0 -208.5 -57.5t-99.5 -180.5l-33 -169q-7 -40 -7 -68q0 -80 51 -113.5t170 -33.5q64 0 166 10h1q7 0 7 -9v-3l-5 -51q-2 -10 -10 -11q-108 -14 -159 -14q-322 0 -322 225 q0 34 7 68l36 176q65 318 410 318q79 0 139.5 -23t95.5 -63t52.5 -88t17.5 -103z"/>
<glyph glyph-name="A" horiz-adv-x="716" unicode="A" d="M464 554q0 8 -7 8q-2 0 -3.5 -0.5t-3 -2t-2 -2.5t-1.5 -4t-1 -4l-78 -233h92l4 233v5zM699 19q0 -19 -19 -19h-207q-17 0 -17 20l1 112h-152l-37 -112q-7 -20 -25 -20h-209q-13 0 -13 11q0 3 2 9l225 604q27 73 86 101t157 28t146 -28t49 -101l13 -604v-1z"/>
<glyph glyph-name="B" horiz-adv-x="704" unicode="B" d="M481 250q0 25 -14 36.5t-47 11.5h-82l-21 -118h82q43 0 62.5 20.5t19.5 49.5zM526 518q0 45 -60 45h-82l-19 -112h82q79 0 79 67zM759 563q0 -57 -26.5 -108.5t-74.5 -73.5q50 -42 50 -119q0 -67 -25 -117.5t-63 -79t-92 -46.5t-102 -23.5t-102 -5.5q-135 0 -199 12 q-32 6 -45 17t-13 36q0 8 4 34l99 566q8 45 25.5 62t60.5 24q76 12 203 12q144 0 222 -43.5t78 -146.5z"/>
<glyph glyph-name="C" horiz-adv-x="548" unicode="C" d="M639 712l-28 -158q-3 -18 -18 -18h-5q-72 9 -131 9q-18 0 -30.5 -3.5t-27.5 -16t-27 -41t-20 -72.5l-15 -81q-7 -38 -7 -65q0 -30 10 -46t22.5 -19t33.5 -3q38 0 134 9q12 1 15 -3.5t1 -14.5l-28 -158q-1 -10 -5.5 -13.5t-18.5 -8.5q-59 -19 -135 -19q-134 0 -202 66 t-68 184q0 43 9 91l15 81q34 186 123 263.5t251 77.5q83 0 134 -19q20 -7 18 -22z"/>
<glyph glyph-name="D" horiz-adv-x="706" unicode="D" d="M509 484q0 38 -18 52.5t-59 14.5h-44l-63 -359h44q53 0 76 26t39 108l17 91q8 43 8 67zM748 502q0 -45 -8 -85l-17 -91q-35 -184 -129.5 -260t-258.5 -76q-139 0 -243 19q-29 6 -29 29q0 9 1 14l113 639q4 22 13 31t29 12q111 19 249 19q127 0 203.5 -65t76.5 -186z"/>
<glyph glyph-name="E" horiz-adv-x="595" unicode="E" d="M651 742q19 -2 16 -20l-26 -151q-4 -20 -24 -20h-201q-19 0 -26.5 -6.5t-11.5 -25.5l-10 -54h234q21 0 16 -20l-24 -141q-4 -20 -24 -20h-234l-9 -49q-3 -16 -3 -24q0 -19 29 -19h201q19 0 16 -20l-26 -151q-3 -18 -24 -20q-92 -11 -203 -11q-104 0 -168.5 42t-64.5 137 q0 30 5 55l53 295q8 47 23.5 83.5t33 61t43 41.5t47.5 26.5t53.5 14.5t54 6t55.5 1q109 0 199 -11z"/>
<glyph glyph-name="F" horiz-adv-x="590" unicode="F" d="M651 742q19 -1 16 -20l-26 -151q-1 -7 -3 -10.5t-7 -6.5t-14 -3h-201q-19 0 -26.5 -6.5t-11.5 -25.5l-10 -54h234q19 0 16 -20l-24 -141q-4 -20 -24 -20h-234l-46 -264q-4 -20 -24 -20h-195q-20 0 -17 20l88 499q9 52 25.5 91t40.5 64t49.5 41.5t60 24t64.5 10.5t70 3 q109 0 199 -11z"/>
<glyph glyph-name="G" horiz-adv-x="673" unicode="G" d="M741 700l-25 -147q-1 -7 -2 -10t-4 -5.5t-9 -2.5h-6q-93 10 -175 10q-85 0 -119.5 -25.5t-48.5 -105.5l-15 -87q-6 -36 -6 -59q0 -26 5.5 -42.5t16.5 -23t19 -8.5t20 -2q20 0 33 3l32 180q4 20 24 20h187q19 0 16 -20l-59 -335q-2 -12 -6 -15.5t-19 -6.5 q-136 -28 -244 -28q-47 0 -90 12t-84.5 38.5t-66.5 78.5t-25 124q0 45 8 86l15 85q16 88 47.5 152.5t68 99.5t87 55.5t91.5 26t94 5.5q123 0 223 -31q18 -5 18 -15q0 -1 -0.5 -3t-0.5 -4z"/>
<glyph glyph-name="H" horiz-adv-x="753" unicode="H" d="M614 743h191q23 0 20 -20l-123 -703q-4 -20 -24 -20h-195q-8 0 -13 6t-4 14l44 255h-171l-44 -255q-4 -20 -24 -20h-195q-8 0 -13 6t-4 14l123 703q4 20 25 20h195q20 0 16 -20l-43 -246h171l43 246q4 20 25 20z"/>
<glyph glyph-name="I" horiz-adv-x="356" unicode="I" d="M407 743q19 0 16 -20l-123 -703q-1 -7 -3 -10.5t-7 -6.5t-14 -3h-195q-21 0 -17 20l123 703q4 20 25 20h195z"/>
<glyph glyph-name="J" horiz-adv-x="356" unicode="J" d="M407 743q17 0 17 -14q0 -1 -0.5 -3t-0.5 -3l-126 -718q-38 -211 -227 -211q-72 0 -110 6q-20 4 -17 20l24 134q4 20 23 20h43q14 0 19.5 6t8.5 25l126 718q4 20 25 20h195z"/>
<glyph glyph-name="K" horiz-adv-x="744" unicode="K" d="M849 734q0 -6 -4 -11l-258 -353l136 -350q3 -7 0 -13.5t-11 -6.5h-234q-15 0 -21 20l-107 314l-55 -314q-4 -20 -24 -20h-195q-18 0 -18 15q0 1 0.5 2.5t0.5 2.5l123 703q4 20 25 20h195q19 0 16 -20l-56 -319l214 319q14 20 35 20h228q10 0 10 -9z"/>
<glyph glyph-name="L" horiz-adv-x="520" unicode="L" d="M509 192q19 0 16 -20l-26 -151q-3 -16 -24 -20q-64 -11 -153 -11q-233 0 -233 176q0 32 5 58l88 499q4 20 25 20h195q20 0 16 -20l-88 -499q-1 -4 -1 -12q0 -12 6.5 -16t22.5 -4h151z"/>
<glyph glyph-name="M" horiz-adv-x="866" unicode="M" d="M902 743q30 0 30 -27q0 -1 -0.5 -3.5t-0.5 -4.5l-123 -697q-2 -11 -18 -11h-191q-17 0 -17 13q0 1 0.5 3.5t0.5 3.5l55 313q2 9 -5 9q-3 0 -11 -9l-94 -110q-16 -19 -30 -19h-58q-15 0 -24 19l-54 110q-4 9 -9 9q-6 0 -7 -9l-55 -313q-4 -20 -18 -20h-193q-18 0 -18 12v2 q1 2 1 3l122 691q2 14 14.5 24.5t26.5 10.5h131q37 0 52 -33l98 -221q5 -11 10 -11q6 0 14 11l176 221q25 33 64 33h131z"/>
<glyph glyph-name="N" horiz-adv-x="763" unicode="N" d="M814 743q17 0 17 -15q0 -1 -0.5 -2.5t-0.5 -2.5l-121 -688q-6 -35 -41 -35h-171q-19 0 -28 22l-117 275q-3 8 -7 8h-1q-6 0 -7 -9l-48 -276q-4 -20 -25 -20h-183q-18 0 -18 15q0 1 0.5 2.5t0.5 2.5l121 688q6 35 41 35h164q21 0 33 -28l119 -276q4 -9 9 -9q4 0 6 9 l50 284q4 20 24 20h183z"/>
<glyph glyph-name="O" horiz-adv-x="716" unicode="O" d="M516 474q0 38 -15 54.5t-47 16.5q-42 0 -66 -30t-36 -100l-15 -87q-6 -34 -6 -59q0 -38 15 -54.5t47 -16.5q43 0 66.5 30t35.5 100l15 87q6 35 6 59zM757 499q0 -36 -8 -84l-15 -87q-58 -338 -378 -338q-117 0 -191.5 63.5t-74.5 191.5q0 35 8 83l15 87q59 338 378 338 q117 0 191.5 -63t74.5 -191z"/>
<glyph glyph-name="P" horiz-adv-x="697" unicode="P" d="M521 504q0 52 -75 52h-61l-24 -135h61q40 0 66.5 16.5t30.5 47.5l1 7q1 4 1 12zM757 536q0 -20 -3 -44l-1 -7q-9 -64 -37.5 -112t-64.5 -76t-84.5 -45t-90.5 -22.5t-89 -5.5q-4 0 -60 2l-36 -206q-4 -20 -24 -20h-195q-6 0 -11 4t-4 12l113 640q8 45 25 61.5t60 23.5 q77 12 221 12q54 0 101.5 -11.5t89 -35.5t66 -67.5t24.5 -102.5z"/>
<glyph glyph-name="Q" horiz-adv-x="716" unicode="Q" d="M516 474q0 38 -15 54.5t-47 16.5q-42 0 -66 -30t-36 -100l-15 -87q-6 -34 -6 -59q0 -38 15 -54.5t47 -16.5q43 0 66.5 30t35.5 100l15 87q6 35 6 59zM757 499q0 -36 -8 -84l-15 -87q-48 -275 -264 -326l-2 -16q-2 -12 9 -12h76q12 0 18 -3t5 -13l-22 -123q-3 -17 -29 -24 q-64 -17 -139 -17q-63 0 -104 31t-41 104q0 15 6 57l3 20q-74 24 -117 83.5t-43 155.5q0 35 8 83l15 87q59 338 378 338q117 0 191.5 -63t74.5 -191z"/>
<glyph glyph-name="R" horiz-adv-x="731" unicode="R" d="M525 505q0 27 -14.5 39t-46.5 12h-75l-22 -126h75q83 0 83 75zM765 545q0 -80 -41.5 -152.5t-117.5 -102.5l92 -261q1 -3 1 -8q0 -21 -21 -21h-210q-10 0 -16 20l-78 235h-38l-41 -235q-4 -20 -24 -20h-195q-18 0 -18 15q0 1 0.5 2.5t0.5 2.5l112 636q8 45 25 61.5 t60 23.5q84 12 221 12q139 0 213.5 -51.5t74.5 -156.5z"/>
<glyph glyph-name="S" horiz-adv-x="624" unicode="S" d="M674 725q18 -5 16 -20l-26 -149q-4 -20 -19 -20h-4q-156 15 -241 15q-24 0 -24 -17q0 -13 32 -31l128 -75q96 -57 96 -162q0 -70 -28 -124t-76.5 -86.5t-107.5 -49t-126 -16.5q-115 0 -209 30q-20 7 -18 20l26 149q4 20 20 20h5q174 -17 212 -17q42 0 42 30q0 18 -22 32 l-135 87q-87 57 -87 167q0 67 24 116t68 76.5t97 40t119 12.5q63 0 134.5 -8.5t103.5 -19.5z"/>
<glyph glyph-name="T" horiz-adv-x="602" unicode="T" d="M687 743q21 0 17 -20l-26 -152q-4 -20 -25 -20h-136l-93 -531q-4 -20 -24 -20h-195q-20 0 -16 20l93 531h-140q-17 0 -17 14q0 1 0.5 3t0.5 3l26 152q4 20 24 20h511z"/>
<glyph glyph-name="U" horiz-adv-x="752" unicode="U" d="M607 743h195q19 0 17 -20l-77 -437q-29 -168 -116 -232t-249 -64q-53 0 -99.5 13t-86 39.5t-62.5 74t-23 110.5q0 33 6 70l75 426q1 8 9 14t16 6h195q20 0 16 -20l-77 -437q-4 -28 -4 -37q0 -33 16.5 -46t51.5 -13q42 0 64 20t32 76l77 437q4 20 24 20z"/>
<glyph glyph-name="V" horiz-adv-x="726" unicode="V" d="M830 734q0 -5 -2 -11l-225 -604q-27 -73 -85.5 -101t-156.5 -28t-146.5 28t-49.5 101l-13 604q0 20 19 20h206q17 0 17 -20l-8 -529v-2q0 -11 7 -11q6 0 11 13l178 529q7 20 25 20h210q13 0 13 -9z"/>
<glyph glyph-name="W" horiz-adv-x="945" unicode="W" d="M1026 743q19 0 19 -17q0 -5 -1 -8l-208 -655q-13 -41 -35 -57t-59 -16h-103q-36 0 -50.5 13t-20.5 52l-37 228q-2 11 -8 11q-4 0 -10 -11l-117 -228q-18 -36 -38.5 -50.5t-56.5 -14.5h-103q-70 0 -68 73l23 655q1 25 26 25h184q21 0 19 -22l-21 -351q-1 -12 5 -12 q4 0 11 12l69 133q11 22 23.5 30t38.5 8h110q26 0 36.5 -8.5t13.5 -29.5l21 -133q3 -12 6 -12q7 0 10 12l103 353q5 20 22 20h196z"/>
<glyph glyph-name="X" horiz-adv-x="740" unicode="X" d="M843 734q0 -6 -4 -11l-264 -363l141 -340q1 -2 1 -6q0 -5 -4 -9.5t-10 -4.5h-229q-15 0 -23 20l-63 153l-105 -153q-16 -20 -27 -20h-227q-9 0 -9 9q0 6 4 11l270 380l-134 323q-3 7 0.5 13.5t12.5 6.5h227q16 0 25 -20l60 -145l94 145q8 13 15.5 16.5t27.5 3.5h212 q9 0 9 -9z"/>
<glyph glyph-name="Y" horiz-adv-x="709" unicode="Y" d="M824 732q0 -4 -3 -9l-207 -344q-44 -74 -91 -92l-47 -267q-4 -20 -25 -20h-195q-19 0 -16 20l47 267q-41 18 -59 92l-86 344q-1 3 -1 7q0 13 17 13h205q19 0 23 -20l41 -248q1 -6 5 -6t7 6l128 248q10 20 35 20h210q12 0 12 -11z"/>
<glyph glyph-name="Z" horiz-adv-x="629" unicode="Z" d="M686 743q17 0 17 -14q0 -1 -0.5 -3t-0.5 -3l-24 -140q-5 -25 -33 -59l-249 -302q-6 -8 -6 -13q0 -7 12 -7h192q18 0 18 -14q0 -1 -0.5 -3t-0.5 -3l-28 -162q-4 -20 -25 -20h-488q-16 0 -16 16v4l22 130q4 24 30 55l256 315q7 8 7 14q0 7 -11 7h-190q-20 0 -16 20l28 162 q4 20 24 20h482z"/>
<glyph glyph-name="bracketleft" horiz-adv-x="408" unicode="[" d="M506 729v-3l-24 -138q-3 -16 -22 -16h-85l-105 -595h85q16 0 16 -14v-3l-24 -138q-3 -16 -22 -16h-292q-14 0 -14 15v4l159 899q4 19 20 19h292q16 0 16 -14z"/>
<glyph glyph-name="backslash" horiz-adv-x="445" unicode="\" d="M433 21q0 -8 -9 -14.5t-18 -6.5h-170q-15 0 -17 22l-77 700v1q0 8 8 14t17 6h170q17 0 19 -21l77 -700v-1z"/>
<glyph glyph-name="bracketright" horiz-adv-x="408" unicode="]" d="M486 728v-4l-159 -899q-4 -19 -20 -19h-292q-16 0 -16 13v3l24 138q3 17 22 17h85l105 595h-85q-16 0 -16 13v3l24 138q3 17 22 17h292q14 0 14 -15z"/>
<glyph glyph-name="asciicircum" horiz-adv-x="640" unicode="^" d="M700 576q0 -10 -12 -10h-187q-20 0 -33 13l-62 64l-62 -64q-13 -13 -33 -13h-187q-12 0 -12 10q0 5 5 12l108 146q9 12 16 15.5t22 3.5h286q15 0 22 -3.5t16 -15.5l108 -146q5 -7 5 -12z"/>
<glyph glyph-name="underscore" horiz-adv-x="580" unicode="_" d="M605 -43v-3l-12 -68q-3 -16 -23 -16h-605q-17 0 -17 13v3l12 68q3 16 23 16h605q17 0 17 -13z"/>
<glyph glyph-name="grave" horiz-adv-x="500" unicode="`" d="M443 644q0 -9 -10 -9h-142q-14 0 -23 10l-109 119q-3 5 -3 7q0 8 12 8h177q17 0 27 -15l69 -112q2 -3 2 -8z"/>
<glyph glyph-name="a" horiz-adv-x="642" unicode="a" d="M442 413q-24 3 -43 3q-34 0 -51 -17t-26 -65l-18 -97q-3 -16 -3 -29q0 -21 9.5 -28.5t29.5 -7.5q28 0 62 16zM654 576q34 -7 34 -27q0 -1 -0.5 -3.5t-0.5 -4.5l-91 -521q-4 -20 -20 -20h-143q-24 0 -20 20l4 28q-36 -31 -71.5 -44.5t-91.5 -13.5q-81 0 -128.5 48.5 t-47.5 134.5q0 38 5 68l16 93q26 151 107.5 208.5t216.5 57.5q91 0 231 -24z"/>
<glyph glyph-name="b" horiz-adv-x="636" unicode="b" d="M441 366q0 50 -48 50q-24 0 -48 -3l-42 -236q29 -3 54 -3q33 0 46 19.5t21 62.5l14 78q3 16 3 32zM665 391q0 -25 -5 -57l-14 -78q-48 -266 -322 -266q-112 0 -232 24q-34 7 -34 27q0 1 0.5 3.5t0.5 4.5l125 709q4 21 26 21h179q18 0 18 -15q0 -1 -0.5 -3t-0.5 -3 l-29 -163q23 5 55 5q115 0 174 -57.5t59 -151.5z"/>
<glyph glyph-name="c" horiz-adv-x="475" unicode="c" d="M385 600q72 0 138 -17q18 -5 16 -19l-24 -136q-2 -8 -9 -14.5t-15 -6.5h-1q-15 0 -50.5 3t-56.5 3q-30 0 -44.5 -19.5t-23.5 -65.5l-12 -66q-4 -20 -4 -40q0 -45 42 -45q13 0 109 6h2q18 0 18 -15q0 -1 -0.5 -3t-0.5 -3l-24 -136q-2 -14 -24 -19q-77 -17 -144 -17 q-100 0 -151 57t-51 149q0 32 6 66l12 66q25 138 97 205t195 67z"/>
<glyph glyph-name="d" horiz-adv-x="636" unicode="d" d="M437 413q-48 3 -54 3q-30 0 -44.5 -19t-22.5 -63l-14 -78q-4 -20 -4 -38q0 -44 43 -44q25 0 54 3zM521 779h179q20 0 20 -16v-5l-125 -709q-5 -27 -47 -35q-131 -24 -240 -24q-107 0 -170 60.5t-63 155.5q0 22 5 50l14 78q25 139 101.5 202.5t209.5 63.5q38 0 64 -6 l29 164q4 21 23 21z"/>
<glyph glyph-name="e" horiz-adv-x="614" unicode="e" d="M434 383q0 49 -47 49q-30 0 -46 -20t-24 -63h113q4 26 4 34zM641 387q0 -33 -6 -68l-11 -61q-4 -21 -25 -21h-302q-2 -16 -2 -22q0 -24 17 -33t60 -9q63 0 189 7h4q16 0 16 -11q0 -1 -0.5 -3.5t-0.5 -3.5l-19 -105q-2 -13 -7 -18.5t-17 -10.5q-42 -16 -109 -27t-127 -11 q-100 0 -163.5 54t-63.5 154q0 28 6 60l11 61q27 149 110.5 215t217.5 66q112 0 167 -58.5t55 -154.5z"/>
<glyph glyph-name="f" horiz-adv-x="427" unicode="f" d="M428 797q49 0 100 -11q18 -4 18 -14q0 -1 -0.5 -3t-0.5 -4l-19 -109q-4 -21 -25 -21h-35q-20 0 -27.5 -5.5t-11.5 -28.5l-2 -11h68q18 0 18 -13q0 -5 -1 -8l-21 -121q-4 -22 -25 -22h-69l-73 -418q-21 -117 -72.5 -156.5t-152.5 -39.5q-43 0 -94 11q-20 4 -17 21l19 109 q3 21 25 21h29q20 0 27.5 5.5t11.5 28.5l73 418l-64 9q-19 2 -19 17q0 1 0.5 2.5t0.5 2.5l19 112q4 21 26 21h66l2 13q9 61 27.5 100t49 59t65 27.5t84.5 7.5z"/>
<glyph glyph-name="g" horiz-adv-x="637" unicode="g" d="M444 413q-28 3 -51 3q-41 0 -55.5 -19.5t-21.5 -62.5l-8 -47q-3 -18 -3 -37q0 -22 10.5 -33.5t42.5 -11.5q19 0 50 3zM416 600q154 0 232 -21q21 -5 28 -10t7 -13q0 -6 -1 -9l-95 -542q-19 -111 -95.5 -161t-219.5 -50q-116 0 -195 33q-15 6 -15 20q0 6 1 9l17 97 q4 20 19 20h4q132 -12 198 -12q35 0 51 9t20 35l4 22q-28 -6 -62 -6q-116 0 -174.5 57.5t-58.5 152.5q0 24 5 56l8 47q23 135 108 200.5t214 65.5z"/>
<glyph glyph-name="h" d="M672 425q0 -33 -5 -59l-61 -344q-4 -22 -25 -22h-180q-19 0 -19 16q0 1 0.5 3t0.5 3l60 341q2 14 2 18q0 18 -11 25t-36 7q-24 0 -53 -6l-68 -385q-1 -7 -3 -11t-7 -7.5t-14 -3.5h-180q-20 0 -20 16q0 1 0.5 3t0.5 3l130 737q4 20 23 20h183q18 0 18 -14q0 -1 -0.5 -3 t-0.5 -3l-31 -177q77 18 118 18q87 0 132.5 -46.5t45.5 -128.5z" unicode="h"/>
<glyph glyph-name="i" horiz-adv-x="329" unicode="i" d="M76 0q-9 0 -14.5 6.5t-4.5 15.5l96 547q3 21 27 21h179q19 0 19 -14q0 -1 -0.5 -3t-0.5 -4l-96 -547q-4 -22 -26 -22h-179zM207 779h189q20 0 20 -15v-6l-18 -102q-4 -21 -27 -21h-189q-20 0 -20 15q0 1 0.5 3t0.5 3l18 102q3 21 26 21z"/>
<glyph glyph-name="j" horiz-adv-x="329" unicode="j" d="M180 590h179q19 0 19 -15q0 -1 -0.5 -3t-0.5 -3l-102 -580q-19 -109 -74.5 -154t-140.5 -45q-44 0 -105 11q-18 4 -18 16q0 1 0.5 3t0.5 3l19 108q3 21 25 21h42q20 0 27 37l102 580q3 21 27 21zM371 635h-189q-20 0 -20 16q0 1 0.5 2.5t0.5 2.5l18 102q3 21 26 21h189 q20 0 20 -16v-5l-18 -102q-4 -21 -27 -21z"/>
<glyph glyph-name="k" horiz-adv-x="669" unicode="k" d="M522 590h204q14 0 14 -13q0 -8 -5 -13l-206 -264l115 -274q2 -4 2 -8q0 -18 -20 -18h-204q-21 0 -28 22l-77 237l-41 -237q-4 -22 -24 -22h-179q-20 0 -20 16q0 1 0.5 3t0.5 3l130 736q4 21 26 21h175q22 0 22 -15q0 -1 -0.5 -3t-0.5 -3l-72 -412l152 223q14 21 36 21z "/>
<glyph glyph-name="l" horiz-adv-x="324" unicode="l" d="M390 779q19 0 19 -15q0 -1 -0.5 -3t-0.5 -3l-130 -736q-4 -22 -25 -22h-180q-20 0 -20 17q0 1 0.5 2.5t0.5 2.5l130 736q4 21 26 21h180z"/>
<glyph glyph-name="m" horiz-adv-x="929" unicode="m" d="M950 438q0 -38 -7 -74l-60 -342q-4 -22 -25 -22h-180q-19 0 -19 16q0 1 0.5 3t0.5 3l60 342q2 12 2 16q0 27 -32 27q-20 0 -45 -6q-5 -35 -5 -37l-60 -342q-4 -22 -25 -22h-180q-18 0 -18 17v5l60 342q2 14 2 17q0 26 -31 26q-26 0 -44 -6l-67 -379q-1 -7 -3 -11t-7 -7.5 t-14 -3.5h-180q-20 0 -20 17q0 1 0.5 2.5t0.5 2.5l97 548q1 7 2.5 10.5t6.5 6.5t14 3h165q21 0 17 -20l-6 -30q76 60 172 60q87 0 113 -60q71 60 167 60q75 0 111.5 -42.5t36.5 -119.5z"/>
<glyph glyph-name="n" d="M674 438q0 -30 -7 -70l-61 -346q-2 -11 -6.5 -16.5t-18.5 -5.5h-180q-19 0 -19 16q0 1 0.5 3t0.5 3l61 346q1 6 1 18q0 31 -43 31q-28 0 -58 -15l-67 -380q-1 -8 -2.5 -11.5t-7 -7t-14.5 -3.5h-180q-20 0 -20 17q0 1 0.5 2.5t0.5 2.5l97 548q4 20 23 20h165q18 0 18 -14 q0 -1 -0.5 -3t-0.5 -3l-5 -28q81 58 171 58q152 0 152 -162z" unicode="n"/>
<glyph glyph-name="o" horiz-adv-x="620" unicode="o" d="M424 365q0 51 -41 51q-53 0 -70 -98l-8 -46q-5 -32 -5 -47q0 -51 41 -51q27 0 43.5 21t26.5 77l8 46q5 32 5 47zM648 389q0 -27 -7 -71l-8 -46q-27 -152 -108 -217t-217 -65q-112 0 -171.5 56.5t-59.5 157.5q0 32 6 68l8 46q26 150 108 216t217 66q111 0 171.5 -54.5 t60.5 -156.5z"/>
<glyph glyph-name="p" horiz-adv-x="636" unicode="p" d="M442 371q0 45 -43 45q-25 0 -54 -3l-42 -236q48 -3 54 -3q30 0 44.5 19t22.5 63l14 78q4 19 4 37zM665 389q0 -23 -5 -55l-14 -78q-48 -266 -321 -266q-26 0 -54 6l-29 -164q-4 -21 -23 -21h-179q-22 0 -20 21l125 709q5 27 47 35q131 24 240 24t171 -57.5t62 -153.5z "/>
<glyph glyph-name="q" horiz-adv-x="636" unicode="q" d="M437 413q-23 3 -41 3q-41 0 -56.5 -20t-23.5 -62l-14 -78q-3 -15 -3 -32q0 -24 10 -37t40 -13q18 0 46 3zM416 600q112 0 232 -24q34 -7 34 -27q0 -1 -0.5 -3.5t-0.5 -4.5l-125 -709q-2 -10 -7 -15.5t-19 -5.5h-179q-18 0 -18 14q0 1 0.5 3.5t0.5 3.5l29 164 q-28 -6 -55 -6q-108 0 -170.5 57.5t-62.5 153.5q0 23 5 55l14 78q48 266 322 266z"/>
<glyph glyph-name="r" horiz-adv-x="439" unicode="r" d="M487 600h7q22 0 22 -14q0 -1 -0.5 -3t-0.5 -3l-25 -141q-1 -7 -2.5 -10.5t-6.5 -6.5t-14 -3h-7q-82 0 -116 -17l-67 -380q-4 -22 -24 -22h-180q-20 0 -20 16q0 1 0.5 3t0.5 3l97 548q4 20 23 20h158q18 0 18 -14q0 -1 -0.5 -3t-0.5 -3l-6 -29q50 59 144 59z"/>
<glyph glyph-name="s" horiz-adv-x="540" unicode="s" d="M567 573q17 -4 17 -16v-5l-23 -130q-4 -22 -17 -22q-4 0 -7 1q-108 18 -175 18q-23 0 -23 -11q0 -10 22 -22l79 -42q61 -32 80.5 -68.5t19.5 -84.5q0 -104 -78 -152.5t-215 -48.5q-108 0 -182 26q-18 7 -15 22l22 125q5 24 23 24q1 0 3 -0.5t4 -0.5q123 -19 170 -19 q39 0 39 23q0 9 -19 20l-89 49q-89 50 -89 142q0 199 267 199q91 0 186 -27z"/>
<glyph glyph-name="t" horiz-adv-x="440" unicode="t" d="M426 590h68q22 0 22 -14q0 -1 -0.5 -3t-0.5 -4l-21 -121q-4 -22 -25 -22h-72l-43 -245q-2 -12 -2 -15q0 -14 18 -14h48q18 0 18 -13q0 -5 -1 -8l-19 -109q-3 -19 -25 -22q-60 -10 -108 -10q-29 0 -54.5 6.5t-49.5 22t-38.5 45.5t-14.5 71q0 20 5 50l42 241l-55 10 q-19 4 -19 17q0 1 0.5 2.5t0.5 2.5l19 111q3 21 26 21h57l14 82q3 18 26 21l179 30q2 0 4.5 0.5t3.5 0.5q18 0 18 -15q0 -1 -0.5 -3t-0.5 -3z"/>
<glyph glyph-name="u" d="M683 590q20 0 20 -16q0 -1 -0.5 -3t-0.5 -3l-97 -548q-4 -20 -23 -20h-165q-18 0 -18 14q0 1 0.5 3t0.5 3l5 28q-29 -20 -47 -30.5t-49.5 -19t-69.5 -8.5q-80 0 -118 48t-38 123q0 31 6 61l61 346q4 22 25 22h180q19 0 19 -16q0 -1 -0.5 -3t-0.5 -3l-58 -330 q-4 -22 -4 -30q0 -35 43 -35q28 0 58 15l67 380q4 22 24 22h180z" unicode="u"/>
<glyph glyph-name="v" horiz-adv-x="651" unicode="v" d="M723 590q15 0 15 -12q0 -5 -2 -9l-205 -454q-20 -43 -44 -70t-54 -38t-52 -14t-57 -3q-28 0 -45 1.5t-40.5 8t-37 19t-25.5 37t-15 59.5l-45 454v1q0 20 21 20h190q18 0 18 -21l8 -337q0 -15 6 -15t12 15l126 337q8 21 26 21h200z"/>
<glyph glyph-name="w" horiz-adv-x="898" unicode="w" d="M965 590q13 0 13 -8q0 -4 -1 -7l-181 -502q-20 -56 -40 -69.5t-65 -13.5h-94q-41 0 -55.5 14.5t-22.5 63.5l-24 144q-1 9 -7 9t-11 -9l-74 -144q-25 -49 -45 -63.5t-61 -14.5h-94q-45 0 -59.5 13.5t-15.5 69.5l-5 502q0 15 18 15h199q11 0 11 -16l-14 -298q0 -9 6 -9 q5 0 10 9l73 138q11 21 21.5 28.5t30.5 7.5h100q20 0 28 -7.5t12 -28.5l25 -138q2 -13 8 -13q4 0 8 13l90 298q5 16 23 16h193z"/>
<glyph glyph-name="x" horiz-adv-x="667" unicode="x" d="M723 590q11 0 11 -10q0 -6 -4 -11l-216 -280l132 -267q2 -6 2 -8q0 -14 -17 -14h-205q-21 0 -31 22l-55 119l-83 -120q-15 -21 -28 -21h-195q-10 0 -10 12q0 6 3 9l223 292l-124 249q-4 8 -4 14q0 14 15 14h199q27 0 35 -21l50 -112l77 112q9 13 16 17t23 4h186z"/>
<glyph glyph-name="y" horiz-adv-x="656" unicode="y" d="M730 590q13 0 13 -10q0 -5 -3 -11l-276 -600q-20 -43 -41.5 -72.5t-53.5 -54t-78 -36.5t-107 -12q-33 0 -80 6.5t-67 14.5q-13 5 -16.5 8.5t-2.5 11.5l20 114q4 22 23 22h4q98 -7 149 -7q33 0 44 23l15 34h-13q-34 0 -55.5 16t-27.5 62l-61 470q-1 12 5 16.5t21 4.5h191 q16 0 16 -21l13 -312q0 -14 7 -14h7l121 326q8 21 26 21h207z"/>
<glyph glyph-name="z" horiz-adv-x="567" unicode="z" d="M600 590q18 0 18 -14q0 -1 -0.5 -3t-0.5 -3l-19 -107q-3 -17 -8.5 -26.5t-26.5 -31.5l-193 -211q-7 -9 -7 -12q0 -7 10 -7h158q16 0 14 -16l-24 -139q-4 -20 -24 -20h-427q-19 0 -16 20l18 105q5 28 25 50l205 222q7 9 7 12q0 6 -10 6h-155q-16 0 -13 16l25 139 q4 20 23 20h421z"/>
<glyph glyph-name="braceleft" horiz-adv-x="436" unicode="{" d="M441 572q-24 0 -32.5 -11t-14.5 -42l-18 -100q-20 -109 -119 -148q70 -31 70 -112q0 -17 -3 -37l-18 -100q-3 -16 -3 -28q0 -14 7 -19.5t25 -5.5h47q16 0 16 -13v-3l-25 -138q-3 -17 -22 -17h-67q-208 0 -208 162q0 29 6 62l18 100q2 14 2 20q0 40 -40 66l22 125 q35 18 49 37.5t19 48.5l18 100q13 74 30.5 116t51 67t78 33t121.5 8h67q18 0 16 -17l-24 -138q-3 -16 -22 -16h-47z"/>
<glyph glyph-name="bar" horiz-adv-x="324" unicode="|" d="M338 -172q0 -9 -6 -15.5t-15 -6.5h-180q-9 0 -16 6.5t-7 15.5v894q0 9 7 15t16 6h180q9 0 15 -6t6 -15v-894z"/>
<glyph glyph-name="braceright" horiz-adv-x="436" unicode="}" d="M470 333l-22 -125q-26 -13 -45 -36.5t-23 -49.5l-18 -100q-25 -137 -80 -180.5t-202 -43.5h-67q-16 0 -16 14v3l25 138q3 16 22 16h47q24 0 33 11.5t14 41.5l18 100q20 110 119 149q-34 15 -51.5 49t-17.5 73q0 18 2 26l18 100q3 15 3 26q0 27 -32 27h-47q-16 0 -16 13v3 l24 138q3 17 22 17h67q119 0 165.5 -33t46.5 -105q0 -38 -9 -86l-18 -100q-1 -5 -1 -15q0 -46 39 -71z"/>
<glyph glyph-name="asciitilde" horiz-adv-x="640" unicode="~" d="M687 490q0 -94 -47 -134t-139 -40q-49 0 -98 26l-50 26q-33 17 -47 17q-20 0 -20 -19v-21q0 -22 -23 -22h-126q-24 0 -24 22v21q0 93 48.5 133.5t140.5 40.5q49 0 95 -24l50 -26q36 -19 51 -19q16 0 16 20v21q0 22 23 22h126q24 0 24 -22v-22z"/>
<glyph glyph-name="uni00A0" horiz-adv-x="230" unicode=" "/>
<glyph glyph-name="exclamdown" horiz-adv-x="309" unicode="¡" d="M294 317v-3l-55 -482q-1 -9 -8.5 -15t-16.5 -6h-187q-18 0 -18 16q0 1 0.5 2.5t0.5 2.5l115 482q5 22 24 22h127q18 0 18 -19zM363 573v-3l-27 -152q-4 -20 -24 -20h-175q-16 0 -16 16v4l27 152q4 20 23 20h175q17 0 17 -17z"/>
<glyph glyph-name="cent" horiz-adv-x="670" unicode="¢" d="M616 568v-4l-24 -136q-4 -21 -23 -21h-2q-96 6 -107 6q-30 0 -44.5 -19.5t-23.5 -65.5l-12 -66q-5 -28 -5 -42q0 -43 43 -43q13 0 109 6h1q8 0 13 -5.5t5 -12.5v-3l-24 -136q-2 -14 -24 -19q-43 -10 -70 -13l-11 -61q-4 -20 -23 -20h-141q-17 0 -17 17v3l14 77 q-99 42 -99 179q0 38 7 73l12 66q22 118 64.5 175.5t117.5 83.5l11 67q4 20 24 20h141q16 0 16 -16v-4l-10 -59q45 -6 66 -12q16 -4 16 -15z"/>
<glyph glyph-name="sterling" horiz-adv-x="670" unicode="£" d="M716 721q0 -1 -0.5 -3t-0.5 -4l-27 -152q-3 -18 -20 -18h-3q-65 5 -169 5q-36 0 -48.5 -11t-19.5 -50l-5 -27h136q17 0 17 -17v-3l-25 -141q-4 -20 -24 -20h-136l-8 -49q-4 -27 -21 -50h239q16 0 16 -16v-4l-24 -141q-4 -20 -24 -20h-473q-16 0 -16 16v4l19 110 q3 14 15 26q12 11 26 34t17 41l8 49h-48q-16 0 -16 16v4l25 141q4 20 23 20h48l4 23q14 83 41 137t70 82.5t94 39t126 10.5q56 0 166 -17q18 -3 18 -15z"/>
<glyph glyph-name="currency" horiz-adv-x="670" unicode="¤" d="M478 372q0 28 -19.5 47.5t-47.5 19.5t-48 -19.5t-20 -47.5t20 -48t48 -20t47.5 20t19.5 48zM676 547q0 -8 -7 -15l-87 -87q16 -38 16 -75q0 -42 -18 -80l85 -85q7 -7 7 -15q0 -6 -5 -11l-75 -75q-5 -5 -11 -5q-8 0 -15 7l-88 88q-32 -13 -69 -13t-75 16l-87 -87 q-8 -8 -16 -8q-5 0 -10 5l-75 75q-5 5 -5 12q0 8 7 15l87 86q-16 38 -16 75q0 38 13 70l-88 88q-7 7 -7 15q0 6 5 11l75 75q5 5 11 5q8 0 15 -7l85 -85q35 17 81 17q39 0 75 -15l86 87q7 7 15 7q6 0 11 -5l75 -75q5 -5 5 -11z"/>
<glyph glyph-name="yen" horiz-adv-x="670" unicode="¥" d="M804 732q0 -4 -3 -9l-141 -218h73q17 0 17 -17v-3l-18 -97q-4 -20 -23 -20h-139l-57 -87h181q16 0 16 -16v-4l-17 -97q-4 -20 -24 -20h-182l-21 -124q-1 -8 -9 -14t-16 -6h-195q-16 0 -16 16v4l21 124h-181q-16 0 -16 16v4l17 97q4 20 24 20h181l-25 87h-141 q-17 0 -17 17v3l18 97q4 20 23 20h75l-67 218q0 1 -0.5 2t-0.5 2q0 16 17 16h216q13 0 17 -20l42 -219l119 219q12 20 25 20h215q12 0 12 -11z"/>
<glyph glyph-name="brokenbar" horiz-adv-x="324" unicode="¦" d="M342 -189q0 -9 -6 -15.5t-15 -6.5h-180q-9 0 -16 6.5t-7 15.5v343q0 9 7 15t16 6h180q9 0 15 -6t6 -15v-343zM342 364q0 -9 -6 -15.5t-15 -6.5h-180q-9 0 -16 6.5t-7 15.5v343q0 9 7 15t16 6h180q9 0 15 -6t6 -15v-343z"/>
<glyph glyph-name="section" horiz-adv-x="624" unicode="§" d="M440 248q0 19 -13.5 34.5t-48.5 37.5l-53 33q-26 17 -33 26q-23 -21 -23 -57q0 -18 12 -32t43 -34l51 -32q30 -19 46 -36q19 28 19 60zM690 708v-3l-26 -149q-4 -20 -21 -20h-2q-156 15 -241 15q-24 0 -24 -19q0 -11 32 -29l128 -75q97 -56 97 -155q0 -73 -51 -148 q14 -39 14 -72q0 -15 -3 -31q-19 -111 -101 -175t-234 -64q-116 0 -210 30q-17 6 -17 17v3l26 149q4 20 22 20h2q174 -17 212 -17q43 0 43 31q0 16 -23 31l-134 87q-88 56 -88 161q0 85 48 153q-10 34 -10 69q0 17 3 33q18 103 86 153t218 50q63 0 134.5 -8.5t103.5 -19.5 q16 -5 16 -17z"/>
<glyph glyph-name="dieresis" horiz-adv-x="500" unicode="¨" d="M362 761v-3l-18 -102q-1 -9 -9.5 -15t-17.5 -6h-139q-8 0 -13.5 5t-5.5 13v3l18 102q1 9 9 15t17 6h139q8 0 14 -5.5t6 -12.5zM592 761v-3l-18 -102q-1 -9 -9.5 -15t-17.5 -6h-139q-8 0 -13.5 5t-5.5 13v3l18 102q1 9 9 15t17 6h139q8 0 14 -5.5t6 -12.5z"/>
<glyph glyph-name="copyright" horiz-adv-x="750" unicode="©" d="M550 182q0 -8 -12 -12q-33 -11 -75 -11q-183 0 -183 194v47q0 194 183 194q46 0 75 -11q12 -4 12 -12v-90q0 -11 -10 -11h-2q-42 5 -75 5q-21 0 -34 -15t-13 -60v-47q0 -46 12.5 -60.5t34.5 -14.5q33 0 75 5h2q10 0 10 -10v-91zM728 374q0 116 -83 199.5t-199 83.5 t-198 -83t-82 -200q0 -116 82 -198t198 -82t199 82t83 198zM787 374q0 -141 -100 -240t-241 -99t-240 99t-99 240t99 241.5t240 100.5t241 -100.5t100 -241.5z"/>
<glyph glyph-name="ordfeminine" horiz-adv-x="401" unicode="ª" d="M318 518h-20q-37 0 -41 -31l-1 -7v-5q0 -20 31 -20q9 0 21 2zM476 639q0 -15 -3 -35l-38 -212q-2 -12 -10 -15q-87 -20 -155 -20q-75 0 -113 27.5t-38 76.5q0 12 1 19l1 7q8 59 57.5 81.5t132.5 22.5h16l3 13q2 10 2 12q0 18 -30 18q-72 0 -114 -4h-1q-9 0 -9 11v3l13 74 q1 11 15 16q57 19 119 19q151 0 151 -114z"/>
<glyph glyph-name="guillemotleft" horiz-adv-x="776" unicode="«" d="M503 523q0 -7 -8 -15l-219 -214l128 -214q4 -8 4 -11q0 -12 -14 -12h-160q-20 0 -26 10l-126 206q-8 13 -8 24q0 16 16 34l183 190q9 10 30 10h190q10 0 10 -8zM858 523q0 -7 -8 -15l-219 -214l128 -214q4 -8 4 -11q0 -12 -14 -12h-160q-20 0 -26 10l-126 206 q-8 13 -8 24q0 16 16 34l183 190q9 10 30 10h190q10 0 10 -8z"/>
<glyph glyph-name="logicalnot" horiz-adv-x="640" unicode="¬" d="M635 188q0 -20 -16 -20h-130q-16 0 -16 20v264h-303q-20 0 -20 16v130q0 16 20 16h445q20 0 20 -16v-410z"/>
<glyph glyph-name="uni00AD" horiz-adv-x="262" unicode="­" d="M310 359v-3l-21 -118q-4 -20 -24 -20h-192q-16 0 -16 16v4l21 118q4 20 23 20h192q17 0 17 -17z"/>
<glyph glyph-name="registered" horiz-adv-x="646" unicode="®" d="M445 537v10q0 27 -36 27h-37v-64h37q17 0 26.5 8t9.5 19zM558 329q0 -8 -8 -8h-97q-5 0 -9 9l-54 106h-14v-106q0 -9 -9 -9h-88q-9 0 -9 9v286q0 20 6 27.5t25 10.5q45 6 99 6q71 0 108.5 -26t37.5 -87v-10q0 -56 -51 -84l62 -119q1 -2 1 -5zM641 483q0 95 -67.5 162.5 t-162.5 67.5t-162 -67.5t-67 -162.5t67 -162t162 -67t162.5 67t67.5 162zM699 483q0 -119 -84.5 -203t-203.5 -84t-203.5 84t-84.5 203t84.5 203.5t203.5 84.5t203.5 -84.5t84.5 -203.5z"/>
<glyph glyph-name="macron" horiz-adv-x="500" unicode="¯" d="M581 762v-3l-19 -104q-4 -20 -23 -20h-354q-17 0 -17 17v3l19 104q4 20 23 20h354q17 0 17 -17z"/>
<glyph glyph-name="degree" horiz-adv-x="376" unicode="°" d="M352 590q0 25 -18 42.5t-42 17.5t-41.5 -17.5t-17.5 -42.5q0 -24 17 -41.5t42 -17.5t42.5 17t17.5 42zM455 590q0 -68 -47.5 -115.5t-115.5 -47.5q-67 0 -115 48t-48 115t48 115t115 48q68 0 115.5 -47.5t47.5 -115.5z"/>
<glyph glyph-name="plusminus" horiz-adv-x="640" unicode="±" d="M615 -14q0 -16 -20 -16h-445q-20 0 -20 16v101q0 16 20 16h445q20 0 20 -16v-101zM615 326q0 -16 -20 -16h-142v-141q0 -20 -16 -20h-130q-16 0 -16 20v141h-141q-20 0 -20 16v130q0 16 20 16h141v142q0 20 16 20h130q16 0 16 -20v-142h142q20 0 20 -16v-130z"/>
<glyph glyph-name="twosuperior" horiz-adv-x="367" unicode="²" d="M473 871q0 -90 -117 -151q-70 -38 -86 -61h146q16 0 13 -15l-15 -86q-3 -15 -19 -15h-259q-16 0 -13 15l10 59q20 105 131 171q13 8 26.5 16.5t21.5 13t12 7.5q11 7 11 17t-37 10t-103 -6h-1q-7 0 -10.5 5t-1.5 11l11 62q1 9 16 15q65 23 131 23q133 0 133 -91z"/>
<glyph glyph-name="threesuperior" horiz-adv-x="366" unicode="³" d="M156 658h1q68 -5 114 -5q38 0 38 33q0 17 -22 17h-92q-16 0 -14 16l13 69q2 16 18 16h85q38 0 38 29q0 19 -29 19q-42 0 -112 -5h-1q-15 0 -12 15l10 59q1 9 4 12t13 7q50 22 128 22q136 0 136 -94q0 -12 -3 -26q-8 -53 -61 -86q32 -21 32 -66q0 -73 -48.5 -110 t-129.5 -37q-29 0 -68 6.5t-59 17.5q-9 5 -8 13l11 63q3 15 18 15z"/>
<glyph glyph-name="acute" horiz-adv-x="500" unicode="´" d="M621 773q0 -5 -6 -9l-151 -119q-13 -10 -27 -10h-154q-8 0 -8 6q0 5 6 11l107 112q15 15 31 15h191q11 0 11 -6z"/>
<glyph glyph-name="mu" d="M243 -167q-4 -22 -25 -22h-179q-23 0 -19 22l130 735q4 22 25 22h180q19 0 19 -16q0 -1 -0.5 -3t-0.5 -3l-61 -346q-2 -12 -2 -17q0 -32 35 -32q37 0 67 15l67 380q4 22 24 22h180q23 0 19 -22l-97 -548q-4 -20 -23 -20h-165q-21 0 -17 20l5 28q-66 -48 -134 -56z" unicode="µ"/>
<glyph glyph-name="paragraph" horiz-adv-x="689" unicode="¶" d="M768 731q0 -1 -0.5 -3.5t-0.5 -3.5l-159 -900q-4 -19 -20 -19h-60q-14 0 -14 16v3l145 825h-66l-145 -825q-4 -19 -20 -19h-60q-14 0 -14 16v3l71 401h-89q-95 0 -155.5 47.5t-60.5 132.5q0 23 4 43l13 72q19 104 100.5 163.5t189.5 59.5h327q14 0 14 -12z"/>
<glyph glyph-name="periodcentered" horiz-adv-x="296" unicode="·" d="M335 452v-3l-27 -152q-4 -20 -24 -20h-174q-18 0 -18 17v3l27 152q1 8 9 14t16 6h174q17 0 17 -17z"/>
<glyph glyph-name="cedilla" horiz-adv-x="500" unicode="¸" d="M373 -57q0 -5 -6 -9l-151 -119q-13 -10 -27 -10h-150q-8 0 -8 6q0 5 6 11l109 112q15 15 31 15h185q11 0 11 -6z"/>
<glyph glyph-name="onesuperior" horiz-adv-x="277" unicode="¹" d="M330 555q-4 -11 -13 -11h-117q-5 0 -7.5 3.5t-1.5 7.5l46 265l-60 -22q-6 -2 -7 -2q-4 0 -4 7l18 98q1 8 9 11l96 38q7 3 13 3h87q11 0 9 -11z"/>
<glyph glyph-name="ordmasculine" horiz-adv-x="417" unicode="º" d="M348 602q0 31 -27 31q-17 0 -28 -13.5t-18 -49.5l-6 -30q-4 -24 -4 -31q0 -33 28 -33q17 0 27.5 14t17.5 50l6 30q4 17 4 32zM493 617q0 -19 -5 -47l-6 -30q-20 -98 -71.5 -140.5t-138.5 -42.5q-71 0 -111.5 36t-40.5 100q0 19 5 47l6 30q19 99 71.5 141t139.5 42 q71 0 111 -36t40 -100z"/>
<glyph glyph-name="guillemotright" horiz-adv-x="776" unicode="»" d="M449 291q0 -16 -16 -34l-183 -190q-9 -10 -30 -10h-190q-10 0 -10 8q0 7 8 15l219 214l-128 214q-4 8 -4 11q0 12 14 12h160q20 0 26 -10l126 -206q8 -13 8 -24zM804 291q0 -16 -16 -34l-183 -190q-9 -10 -30 -10h-190q-10 0 -10 8q0 7 8 15l219 214l-128 214q-4 8 -4 11 q0 12 14 12h160q20 0 26 -10l126 -206q8 -13 8 -24z"/>
<glyph glyph-name="onequarter" horiz-adv-x="836" unicode="¼" d="M679 255l-71 -74h58zM371 734v-2l-68 -387q-2 -11 -13 -11h-117q-9 0 -9 9v2l47 265l-60 -22q-6 -2 -7 -2q-4 0 -4 5v2l17 98q1 8 10 11l95 38q7 3 13 3h87q9 0 9 -9zM821 734q0 -5 -5 -12l-542 -707q-12 -15 -24 -15h-142q-11 0 -11 11q0 6 4 11l542 706q11 15 26 15 h142q10 0 10 -9zM833 396v-3l-37 -212h21q13 0 13 -12v-3l-13 -74q-4 -16 -19 -16h-21l-10 -60q-2 -16 -19 -16h-104q-13 0 -13 13v3l10 60h-138q-12 0 -12 13v3l13 70q1 9 9 18l214 221q8 8 19 8h74q13 0 13 -13z"/>
<glyph glyph-name="onehalf" horiz-adv-x="855" unicode="½" d="M371 734v-2l-68 -387q-2 -11 -13 -11h-117q-9 0 -9 9v2l47 265l-60 -22q-6 -2 -7 -2q-4 0 -4 5v2l17 98q1 8 10 11l95 38q7 3 13 3h87q9 0 9 -9zM821 734q0 -5 -5 -12l-542 -707q-12 -15 -24 -15h-142q-11 0 -11 11q0 6 4 11l542 706q11 15 26 15h142q10 0 10 -9z M875 319q0 -53 -28 -83t-90 -64q-70 -38 -85 -56h146q14 0 14 -13v-2l-15 -86q-3 -15 -19 -15h-259q-13 0 -13 12v3l10 59q10 59 43.5 96.5t85.5 69.5q28 17 37 22q15 8 24 15q11 8 11 18q0 9 -37 9q-17 0 -52 -3t-51 -3h-1q-13 0 -13 14v2l11 62q1 9 17 15q65 23 132 23 q70 0 101 -27.5t31 -67.5z"/>
<glyph glyph-name="threequarters" horiz-adv-x="886" unicode="¾" d="M729 255l-71 -74h58zM445 657q0 -69 -64 -110q33 -23 33 -67q0 -76 -48 -111t-128 -35q-29 0 -69.5 6.5t-60.5 17.5q-8 5 -8 11v2l12 63q3 15 17 15h1q13 0 54 -2.5t60 -2.5q39 0 39 31q0 19 -23 19h-92q-13 0 -13 13v2v1l12 69q2 16 19 16h85q37 0 37 30q0 18 -29 18 q-19 0 -58.5 -2.5t-53.5 -2.5h-1q-12 0 -12 12v3l11 63q2 9 17 15q50 22 128 22q62 0 98.5 -25t36.5 -71zM900 734q0 -5 -5 -12l-542 -707q-12 -15 -24 -15h-142q-11 0 -11 11q0 6 4 11l542 706q11 15 26 15h142q10 0 10 -9zM883 396v-3l-37 -212h21q13 0 13 -12v-3l-13 -74 q-4 -16 -19 -16h-21l-10 -60q-2 -16 -19 -16h-104q-13 0 -13 13v3l10 60h-138q-12 0 -12 13v3l13 70q1 9 9 18l214 221q8 8 19 8h74q13 0 13 -13z"/>
<glyph glyph-name="questiondown" horiz-adv-x="500" unicode="¿" d="M469 0v-4l-25 -144q-2 -12 -24 -20q-80 -29 -182 -29q-215 0 -215 144q0 21 4 40q12 66 71 134l167 196q17 20 35 20h134q7 0 12 -5t5 -12v-3l-7 -40q-9 -48 -20.5 -72t-46.5 -70l-63 -82q-19 -24 -19 -37q0 -11 21 -11h5h3l129 11h1q15 0 15 -16zM506 572v-1l-26 -152 q-1 -8 -9 -14t-16 -6h-174q-17 0 -17 17v2v1l26 152q1 8 9 14t16 6h174q7 0 12 -5t5 -12v-2z"/>
<glyph glyph-name="Agrave" horiz-adv-x="716" unicode="À" d="M631 803q0 -9 -10 -9h-142q-14 0 -23 10l-109 119q-3 5 -3 7q0 8 12 8h177q17 0 27 -15l69 -112q2 -3 2 -8zM464 554q0 8 -7 8q-2 0 -3.5 -0.5t-3 -2t-2 -2.5t-1.5 -4t-1 -4l-78 -233h92l4 233v5zM699 19q0 -19 -19 -19h-207q-17 0 -17 20l1 112h-152l-37 -112 q-7 -20 -25 -20h-209q-13 0 -13 11q0 3 2 9l225 604q27 73 86 101t157 28t146 -28t49 -101l13 -604v-1z"/>
<glyph glyph-name="Aacute" horiz-adv-x="716" unicode="Á" d="M735 932q0 -4 -6 -9l-151 -119q-13 -10 -27 -10h-154q-8 0 -8 6q0 5 6 11l107 112q15 15 31 15h191q11 0 11 -6zM464 554q0 8 -7 8q-2 0 -3.5 -0.5t-3 -2t-2 -2.5t-1.5 -4t-1 -4l-78 -233h92l4 233v5zM699 19q0 -19 -19 -19h-207q-17 0 -17 20l1 112h-152l-37 -112 q-7 -20 -25 -20h-209q-13 0 -13 11q0 3 2 9l225 604q27 73 86 101t157 28t146 -28t49 -101l13 -604v-1z"/>
<glyph glyph-name="Acircumflex" horiz-adv-x="716" unicode="Â" d="M717 803q0 -9 -10 -9h-138q-14 0 -23 10l-40 49l-56 -49q-11 -10 -27 -10h-150q-8 0 -8 6q0 5 6 11l103 112q14 15 31 15h220q18 0 27 -15l63 -112q2 -3 2 -8zM464 554q0 8 -7 8q-2 0 -3.5 -0.5t-3 -2t-2 -2.5t-1.5 -4t-1 -4l-78 -233h92l4 233v5zM699 19q0 -19 -19 -19 h-207q-17 0 -17 20l1 112h-152l-37 -112q-7 -20 -25 -20h-209q-13 0 -13 11q0 3 2 9l225 604q27 73 86 101t157 28t146 -28t49 -101l13 -604v-1z"/>
<glyph glyph-name="Atilde" horiz-adv-x="716" unicode="Ã" d="M752 942v-4l-6 -40q-9 -57 -46 -86t-95 -29q-50 0 -92 24l-36 20q-23 12 -35 12q-14 0 -16 -13l-3 -16q-3 -17 -21 -17h-96q-15 0 -15 13v4l5 33q9 60 47 91t91 31q55 0 97 -24l36 -20q25 -13 36 -13q12 0 15 14l3 16q3 17 21 17h95q15 0 15 -13zM464 554q0 8 -7 8 q-2 0 -3.5 -0.5t-3 -2t-2 -2.5t-1.5 -4t-1 -4l-78 -233h92l4 233v5zM699 19q0 -19 -19 -19h-207q-17 0 -17 20l1 112h-152l-37 -112q-7 -20 -25 -20h-209q-13 0 -13 11q0 3 2 9l225 604q27 73 86 101t157 28t146 -28t49 -101l13 -604v-1z"/>
<glyph glyph-name="Adieresis" horiz-adv-x="716" unicode="Ä" d="M510 920v-3l-18 -102q-1 -9 -9.5 -15t-17.5 -6h-139q-8 0 -13.5 5t-5.5 13v3l18 102q1 9 9 15t17 6h139q8 0 14 -5.5t6 -12.5zM740 920v-3l-18 -102q-1 -9 -9.5 -15t-17.5 -6h-139q-8 0 -13.5 5t-5.5 13v3l18 102q1 9 9 15t17 6h139q8 0 14 -5.5t6 -12.5zM464 554 q0 8 -7 8q-2 0 -3.5 -0.5t-3 -2t-2 -2.5t-1.5 -4t-1 -4l-78 -233h92l4 233v5zM699 19q0 -19 -19 -19h-207q-17 0 -17 20l1 112h-152l-37 -112q-7 -20 -25 -20h-209q-13 0 -13 11q0 3 2 9l225 604q27 73 86 101t157 28t146 -28t49 -101l13 -604v-1z"/>
<glyph glyph-name="Aring" horiz-adv-x="716" unicode="Å" d="M544 910q0 15 -11 26t-26 11t-25.5 -10.5t-10.5 -26.5t10.5 -26.5t25.5 -10.5t26 11t11 26zM634 909q0 -53 -37.5 -90.5t-90.5 -37.5t-90.5 37.5t-37.5 90.5t37.5 90.5t90.5 37.5t90.5 -37.5t37.5 -90.5zM464 554q0 8 -7 8q-2 0 -3.5 -0.5t-3 -2t-2 -2.5t-1.5 -4t-1 -4 l-78 -233h92l4 233v5zM699 19q0 -19 -19 -19h-207q-17 0 -17 20l1 112h-152l-37 -112q-7 -20 -25 -20h-209q-13 0 -13 11q0 3 2 9l225 604q27 73 86 101t157 28t146 -28t49 -101l13 -604v-1z"/>
<glyph glyph-name="AE" horiz-adv-x="968" unicode="Æ" d="M538 541h-78q-13 0 -20 -21l-70 -204h129zM1040 727v-4l-28 -162q-4 -20 -24 -20h-214l-13 -76h214q16 0 16 -16v-4l-24 -141q-4 -20 -24 -20h-214l-11 -60q-1 -4 -1 -12q0 -20 29 -20h181q16 0 16 -16v-4l-26 -151q-3 -18 -24 -20q-92 -11 -183 -11q-44 0 -78.5 5.5 t-68.5 19.5t-55.5 43.5t-27.5 73.5h-174l-38 -112q-7 -20 -25 -20h-208q-13 0 -13 12q0 2 2 8l223 594q27 73 85.5 101t156.5 28h535q16 0 16 -16z"/>
<glyph glyph-name="Ccedilla" horiz-adv-x="548" unicode="Ç" d="M443 -51q0 -5 -6 -9l-151 -119q-13 -10 -27 -10h-150q-8 0 -8 6q0 5 6 11l109 112q15 15 31 15h185q11 0 11 -6zM640 717v-2q-1 -2 -1 -3l-28 -158q-3 -18 -20 -18h-2h-1q-72 9 -131 9q-18 0 -30.5 -3.5t-27.5 -16t-27 -41t-20 -72.5l-15 -81q-7 -38 -7 -65q0 -30 10 -46 t22.5 -19t33.5 -3q38 0 134 9h1h3q13 0 13 -12q0 -1 -0.5 -3t-0.5 -3l-28 -158q-1 -10 -5.5 -13.5t-18.5 -8.5q-59 -19 -135 -19q-134 0 -202 66t-68 184q0 43 9 91l15 81q34 186 123 263.5t251 77.5q83 0 134 -19q18 -10 19 -17z"/>
<glyph glyph-name="Egrave" horiz-adv-x="595" unicode="È" d="M575 803q0 -9 -10 -9h-142q-14 0 -23 10l-109 119q-3 5 -3 7q0 8 12 8h177q17 0 27 -15l69 -112q2 -3 2 -8zM667 726v-4l-26 -151q-4 -20 -24 -20h-201q-19 0 -26.5 -6.5t-11.5 -25.5l-10 -54h234q16 0 16 -16v-4l-24 -141q-4 -20 -24 -20h-234l-11 -60q-1 -5 -1 -12 q0 -20 29 -20h201q16 0 16 -16v-4l-26 -151q-3 -18 -24 -20q-92 -11 -203 -11q-104 0 -168.5 42t-64.5 137q0 30 5 55l53 295q8 47 23.5 83.5t33 61t43 41.5t47.5 26.5t53.5 14.5t54 6t55.5 1q109 0 199 -11q16 -2 16 -16z"/>
<glyph glyph-name="Eacute" horiz-adv-x="595" unicode="É" d="M669 932q0 -4 -6 -9l-151 -119q-13 -10 -27 -10h-154q-8 0 -8 6q0 5 6 11l107 112q15 15 31 15h191q11 0 11 -6zM667 726v-4l-26 -151q-4 -20 -24 -20h-201q-19 0 -26.5 -6.5t-11.5 -25.5l-10 -54h234q16 0 16 -16v-4l-24 -141q-4 -20 -24 -20h-234l-11 -60q-1 -5 -1 -12 q0 -20 29 -20h201q16 0 16 -16v-4l-26 -151q-3 -18 -24 -20q-92 -11 -203 -11q-104 0 -168.5 42t-64.5 137q0 30 5 55l53 295q8 47 23.5 83.5t33 61t43 41.5t47.5 26.5t53.5 14.5t54 6t55.5 1q109 0 199 -11q16 -2 16 -16z"/>
<glyph glyph-name="Ecircumflex" horiz-adv-x="595" unicode="Ê" d="M672 803q0 -9 -10 -9h-138q-14 0 -23 10l-40 49l-56 -49q-11 -10 -27 -10h-150q-8 0 -8 6q0 5 6 11l103 112q14 15 31 15h220q18 0 27 -15l63 -112q2 -3 2 -8zM667 726v-4l-26 -151q-4 -20 -24 -20h-201q-19 0 -26.5 -6.5t-11.5 -25.5l-10 -54h234q16 0 16 -16v-4 l-24 -141q-4 -20 -24 -20h-234l-11 -60q-1 -5 -1 -12q0 -20 29 -20h201q16 0 16 -16v-4l-26 -151q-3 -18 -24 -20q-92 -11 -203 -11q-104 0 -168.5 42t-64.5 137q0 30 5 55l53 295q8 47 23.5 83.5t33 61t43 41.5t47.5 26.5t53.5 14.5t54 6t55.5 1q109 0 199 -11 q16 -2 16 -16z"/>
<glyph glyph-name="Edieresis" horiz-adv-x="595" unicode="Ë" d="M438 920v-3l-18 -102q-1 -9 -9.5 -15t-17.5 -6h-139q-8 0 -13.5 5t-5.5 13v3l18 102q1 9 9 15t17 6h139q8 0 14 -5.5t6 -12.5zM668 920v-3l-18 -102q-1 -9 -9.5 -15t-17.5 -6h-139q-8 0 -13.5 5t-5.5 13v3l18 102q1 9 9 15t17 6h139q8 0 14 -5.5t6 -12.5zM667 726v-4 l-26 -151q-4 -20 -24 -20h-201q-19 0 -26.5 -6.5t-11.5 -25.5l-10 -54h234q16 0 16 -16v-4l-24 -141q-4 -20 -24 -20h-234l-11 -60q-1 -5 -1 -12q0 -20 29 -20h201q16 0 16 -16v-4l-26 -151q-3 -18 -24 -20q-92 -11 -203 -11q-104 0 -168.5 42t-64.5 137q0 30 5 55l53 295 q8 47 23.5 83.5t33 61t43 41.5t47.5 26.5t53.5 14.5t54 6t55.5 1q109 0 199 -11q16 -2 16 -16z"/>
<glyph glyph-name="Igrave" horiz-adv-x="356" unicode="Ì" d="M441 803q0 -9 -10 -9h-142q-14 0 -23 10l-109 119q-3 5 -3 7q0 8 12 8h177q17 0 27 -15l69 -112q2 -3 2 -8zM423 727v-4l-123 -703q-4 -20 -24 -20h-195q-17 0 -17 17v3l123 703q1 8 9 14t16 6h195q16 0 16 -16z"/>
<glyph glyph-name="Iacute" horiz-adv-x="356" unicode="Í" d="M541 932q0 -4 -6 -9l-151 -119q-13 -10 -27 -10h-154q-8 0 -8 6q0 5 6 11l107 112q15 15 31 15h191q11 0 11 -6zM423 727v-4l-123 -703q-4 -20 -24 -20h-195q-17 0 -17 17v3l123 703q1 8 9 14t16 6h195q16 0 16 -16z"/>
<glyph glyph-name="Icircumflex" horiz-adv-x="356" unicode="Î" d="M545 803q0 -9 -10 -9h-138q-14 0 -23 10l-40 49l-56 -49q-11 -10 -27 -10h-150q-8 0 -8 6q0 5 6 11l103 112q14 15 31 15h220q18 0 27 -15l63 -112q2 -3 2 -8zM423 727v-4l-123 -703q-4 -20 -24 -20h-195q-17 0 -17 17v3l123 703q1 8 9 14t16 6h195q16 0 16 -16z"/>
<glyph glyph-name="Idieresis" horiz-adv-x="356" unicode="Ï" d="M317 920v-3l-18 -102q-1 -9 -9.5 -15t-17.5 -6h-139q-8 0 -13.5 5t-5.5 13v3l18 102q4 21 26 21h139q8 0 14 -5.5t6 -12.5zM547 920v-3l-18 -102q-1 -9 -9.5 -15t-17.5 -6h-139q-8 0 -13.5 5t-5.5 13v3l18 102q4 21 26 21h139q8 0 14 -5.5t6 -12.5zM423 727v-4l-123 -703 q-4 -20 -24 -20h-195q-17 0 -17 17v3l123 703q1 8 9 14t16 6h195q16 0 16 -16z"/>
<glyph glyph-name="Eth" horiz-adv-x="706" unicode="Ð" d="M509 484q0 38 -18 52.5t-59 14.5h-44l-15 -86h44q16 0 16 -16v-3v-1l-24 -141q-4 -20 -24 -20h-44l-16 -92h44q53 0 76 26t39 108l17 91q8 43 8 67zM748 502q0 -45 -8 -85l-17 -91q-35 -184 -129.5 -260t-258.5 -76q-139 0 -243 19q-29 6 -29 29q0 9 1 14l41 232h-48 q-16 0 -16 16v3v1l24 141q4 20 24 20h48l40 226q4 22 13 31t29 12q111 19 249 19q127 0 203.5 -65t76.5 -186z"/>
<glyph glyph-name="Ntilde" horiz-adv-x="763" unicode="Ñ" d="M760 942v-4l-6 -40q-9 -57 -46 -86t-95 -29q-50 0 -92 24l-36 20q-23 12 -35 12q-14 0 -16 -13l-3 -16q-3 -17 -21 -17h-96q-15 0 -15 13v4l5 33q9 60 47 91t91 31q55 0 97 -24l36 -20q25 -13 36 -13q12 0 15 14l3 16q3 17 21 17h95q15 0 15 -13zM830 727v-4l-121 -688 q-2 -14 -14.5 -24.5t-26.5 -10.5h-171q-19 0 -28 22l-117 275q-3 8 -7 8h-1q-6 0 -7 -9l-48 -276q-1 -8 -9 -14t-16 -6h-183q-17 0 -17 17v3l121 688q2 14 14.5 24.5t26.5 10.5h164q21 0 33 -28l119 -276q4 -9 9 -9q4 0 6 9l50 284q4 20 24 20h183q16 0 16 -16z"/>
<glyph glyph-name="Ograve" horiz-adv-x="716" unicode="Ò" d="M600 803q0 -9 -10 -9h-142q-14 0 -23 10l-109 119q-3 5 -3 7q0 8 12 8h177q17 0 27 -15l69 -112q2 -3 2 -8zM516 474q0 38 -15 54.5t-47 16.5q-42 0 -66 -30t-36 -100l-15 -87q-6 -34 -6 -59q0 -38 15 -54.5t47 -16.5q43 0 66.5 30t35.5 100l15 87q6 35 6 59zM757 499 q0 -36 -8 -84l-15 -87q-58 -338 -378 -338q-117 0 -191.5 63.5t-74.5 191.5q0 35 8 83l15 87q59 338 378 338q117 0 191.5 -63t74.5 -191z"/>
<glyph glyph-name="Oacute" horiz-adv-x="716" unicode="Ó" d="M735 932q0 -4 -6 -9l-151 -119q-13 -10 -27 -10h-154q-8 0 -8 6q0 5 6 11l107 112q15 15 31 15h191q11 0 11 -6zM516 474q0 38 -15 54.5t-47 16.5q-42 0 -66 -30t-36 -100l-15 -87q-6 -34 -6 -59q0 -38 15 -54.5t47 -16.5q43 0 66.5 30t35.5 100l15 87q6 35 6 59z M757 499q0 -36 -8 -84l-15 -87q-58 -338 -378 -338q-117 0 -191.5 63.5t-74.5 191.5q0 35 8 83l15 87q59 338 378 338q117 0 191.5 -63t74.5 -191z"/>
<glyph glyph-name="Ocircumflex" horiz-adv-x="716" unicode="Ô" d="M725 804q0 -9 -10 -9h-138q-14 0 -23 10l-40 49l-56 -49q-11 -10 -27 -10h-150q-8 0 -8 6q0 5 6 11l103 112q14 15 31 15h220q18 0 27 -15l63 -112q2 -3 2 -8zM516 474q0 38 -15 54.5t-47 16.5q-42 0 -66 -30t-36 -100l-15 -87q-6 -34 -6 -59q0 -38 15 -54.5t47 -16.5 q43 0 66.5 30t35.5 100l15 87q6 35 6 59zM757 499q0 -36 -8 -84l-15 -87q-58 -338 -378 -338q-117 0 -191.5 63.5t-74.5 191.5q0 35 8 83l15 87q59 338 378 338q117 0 191.5 -63t74.5 -191z"/>
<glyph glyph-name="Otilde" horiz-adv-x="716" unicode="Õ" d="M754 943v-4l-6 -40q-9 -57 -46 -86t-95 -29q-50 0 -92 24l-36 20q-23 12 -35 12q-14 0 -16 -13l-3 -16q-3 -17 -21 -17h-96q-15 0 -15 13v4l5 33q9 60 47 91t91 31q55 0 97 -24l36 -20q25 -13 36 -13q12 0 15 14l3 16q3 17 21 17h95q15 0 15 -13zM516 474q0 38 -15 54.5 t-47 16.5q-42 0 -66 -30t-36 -100l-15 -87q-6 -34 -6 -59q0 -38 15 -54.5t47 -16.5q43 0 66.5 30t35.5 100l15 87q6 35 6 59zM757 499q0 -36 -8 -84l-15 -87q-58 -338 -378 -338q-117 0 -191.5 63.5t-74.5 191.5q0 35 8 83l15 87q59 338 378 338q117 0 191.5 -63t74.5 -191z "/>
<glyph glyph-name="Odieresis" horiz-adv-x="716" unicode="Ö" d="M496 920v-3l-18 -102q-1 -9 -9.5 -15t-17.5 -6h-139q-8 0 -13.5 5t-5.5 13v3l18 102q1 9 9 15t17 6h139q8 0 14 -5.5t6 -12.5zM726 920v-3l-18 -102q-1 -9 -9.5 -15t-17.5 -6h-139q-8 0 -13.5 5t-5.5 13v3l18 102q1 9 9 15t17 6h139q8 0 14 -5.5t6 -12.5zM516 474 q0 38 -15 54.5t-47 16.5q-42 0 -66 -30t-36 -100l-15 -87q-6 -34 -6 -59q0 -38 15 -54.5t47 -16.5q43 0 66.5 30t35.5 100l15 87q6 35 6 59zM757 499q0 -36 -8 -84l-15 -87q-58 -338 -378 -338q-117 0 -191.5 63.5t-74.5 191.5q0 35 8 83l15 87q59 338 378 338 q117 0 191.5 -63t74.5 -191z"/>
<glyph glyph-name="multiply" horiz-adv-x="640" unicode="×" d="M611 505q0 -8 -8 -16l-100 -100l99 -100q8 -8 8 -15q0 -5 -5 -10l-92 -92q-5 -5 -10 -5q-7 0 -15 8l-100 99l-100 -99q-8 -8 -15 -8q-5 0 -10 5l-92 92q-5 5 -5 10q0 7 8 15l99 100l-100 100q-8 8 -8 16q0 5 5 10l92 92q5 5 11 5q7 0 15 -8l100 -101l100 101q8 8 15 8 q6 0 11 -5l92 -92q5 -5 5 -10z"/>
<glyph glyph-name="Oslash" horiz-adv-x="716" unicode="Ø" d="M503 371l-148 -164q15 -9 38 -9q42 0 65.5 29.5t36.5 100.5zM492 536q-15 9 -38 9q-43 0 -67 -30t-35 -100l-7 -44zM832 745q0 -6 -5 -11l-96 -108q26 -54 26 -127q0 -36 -8 -84l-15 -87q-58 -338 -378 -338q-92 0 -159 40l-19 -21q-17 -19 -30 -19h-124q-9 0 -9 8 q0 6 5 11l97 108q-27 56 -27 128q0 35 8 83l15 87q59 338 378 338q95 0 160 -39l18 20q17 19 30 19h124q9 0 9 -8z"/>
<glyph glyph-name="Ugrave" horiz-adv-x="752" unicode="Ù" d="M630 803q0 -9 -10 -9h-142q-14 0 -23 10l-109 119q-3 5 -3 7q0 8 12 8h177q17 0 27 -15l69 -112q2 -3 2 -8zM819 726v-3l-77 -437q-29 -168 -116 -232t-249 -64q-53 0 -99.5 13t-86 39.5t-62.5 74t-23 110.5q0 33 6 70l75 426q1 8 9 14t16 6h195q16 0 16 -17v-3l-77 -437 q-4 -19 -4 -37q0 -33 16.5 -46t51.5 -13q42 0 64 20t32 76l77 437q4 20 24 20h195q7 0 12 -5t5 -12z"/>
<glyph glyph-name="Uacute" horiz-adv-x="752" unicode="Ú" d="M747 932q0 -4 -6 -9l-151 -119q-13 -10 -27 -10h-154q-8 0 -8 6q0 5 6 11l107 112q15 15 31 15h191q11 0 11 -6zM819 726v-3l-77 -437q-29 -168 -116 -232t-249 -64q-53 0 -99.5 13t-86 39.5t-62.5 74t-23 110.5q0 33 6 70l75 426q1 8 9 14t16 6h195q16 0 16 -17v-3 l-77 -437q-4 -19 -4 -37q0 -33 16.5 -46t51.5 -13q42 0 64 20t32 76l77 437q4 20 24 20h195q7 0 12 -5t5 -12z"/>
<glyph glyph-name="Ucircumflex" horiz-adv-x="752" unicode="Û" d="M742 803q0 -9 -10 -9h-138q-14 0 -23 10l-40 49l-56 -49q-11 -10 -27 -10h-150q-8 0 -8 6q0 5 6 11l103 112q14 15 31 15h220q18 0 27 -15l63 -112q2 -3 2 -8zM819 726v-3l-77 -437q-29 -168 -116 -232t-249 -64q-53 0 -99.5 13t-86 39.5t-62.5 74t-23 110.5q0 33 6 70 l75 426q1 8 9 14t16 6h195q16 0 16 -17v-3l-77 -437q-4 -19 -4 -37q0 -33 16.5 -46t51.5 -13q42 0 64 20t32 76l77 437q4 20 24 20h195q7 0 12 -5t5 -12z"/>
<glyph glyph-name="Udieresis" horiz-adv-x="752" unicode="Ü" d="M515 920v-3l-18 -102q-1 -9 -9.5 -15t-17.5 -6h-139q-8 0 -13.5 5t-5.5 13v3l18 102q4 21 26 21h139q8 0 14 -5.5t6 -12.5zM745 920v-3l-18 -102q-1 -9 -9.5 -15t-17.5 -6h-139q-8 0 -13.5 5t-5.5 13v3l18 102q4 21 26 21h139q8 0 14 -5.5t6 -12.5zM819 726v-3l-77 -437 q-29 -168 -116 -232t-249 -64q-53 0 -99.5 13t-86 39.5t-62.5 74t-23 110.5q0 33 6 70l75 426q1 8 9 14t16 6h195q16 0 16 -17v-3l-77 -437q-4 -19 -4 -37q0 -33 16.5 -46t51.5 -13q42 0 64 20t32 76l77 437q4 20 24 20h195q7 0 12 -5t5 -12z"/>
<glyph glyph-name="Yacute" horiz-adv-x="709" unicode="Ý" d="M734 932q0 -4 -6 -9l-151 -119q-13 -10 -27 -10h-154q-8 0 -8 6q0 5 6 11l107 112q15 15 31 15h191q11 0 11 -6zM824 732q0 -4 -3 -9l-207 -344q-44 -74 -91 -92l-47 -267q-1 -8 -9 -14t-16 -6h-195q-16 0 -16 16v4l47 267q-41 18 -59 92l-86 344v4q0 16 16 16h211 q13 0 17 -20l41 -248q1 -6 5 -6t7 6l128 248q10 20 25 20h220q12 0 12 -11z"/>
<glyph glyph-name="Thorn" horiz-adv-x="697" unicode="Þ" d="M508 429q0 26 -18.5 36.5t-58.5 10.5h-62l-24 -135h62q78 0 96 64l2 7q3 12 3 17zM743 463q0 -19 -5 -51l-1 -7q-11 -76 -44 -128.5t-84.5 -80.5t-108.5 -40t-128 -12q-5 0 -61 2l-22 -126q-4 -20 -24 -20h-192q-16 0 -16 16v4l123 703q4 20 24 20h192q16 0 16 -16v-4 l-9 -51q41 1 58 1q57 0 104.5 -10t89 -32t65 -65t23.5 -103z"/>
<glyph glyph-name="germandbls" horiz-adv-x="696" unicode="ß" d="M751 577q0 -7 -1 -13l-5 -31q-13 -83 -97 -133q26 -20 40 -53.5t14 -62.5v-16v-6l-5 -30q-21 -125 -100 -183.5t-191 -58.5q-43 0 -71 7q-16 4 -16 17v3l25 143q4 20 24 20h46q30 0 42 12t17 40l5 30q1 5 1 15q0 39 -61 39h-23q-17 0 -17 17v3l20 114q4 20 24 20h23 q38 0 53.5 10.5t20.5 37.5l6 31q1 4 1 12q0 36 -61 36q-46 0 -69 -16t-31 -65l-87 -496q-4 -20 -24 -20h-184q-16 0 -16 17v3l87 496q27 154 111 212.5t247 58.5q70 0 121.5 -19t78.5 -50.5t39.5 -63.5t12.5 -65v-12z"/>
<glyph glyph-name="agrave" horiz-adv-x="642" unicode="à" d="M554 644q0 -9 -10 -9h-142q-14 0 -23 10l-109 119q-3 5 -3 7q0 8 12 8h177q17 0 27 -15l69 -112q2 -3 2 -8zM442 413q-24 3 -43 3q-34 0 -51 -17t-26 -65l-20 -112q-1 -5 -1 -14q0 -21 9 -28.5t30 -7.5q28 0 62 16zM688 550q0 -6 -1 -9l-91 -521q-4 -20 -20 -20h-143 q-8 0 -14 5t-6 12v3l4 28q-67 -58 -150 -58q-80 0 -134.5 52.5t-54.5 147.5q0 21 5 51l16 93q26 151 107.5 208.5t216.5 57.5q91 0 231 -24q18 -3 26 -8.5t8 -17.5z"/>
<glyph glyph-name="aacute" horiz-adv-x="642" unicode="á" d="M686 773q0 -5 -6 -9l-151 -119q-13 -10 -27 -10h-154q-8 0 -8 6q0 5 6 11l107 112q15 15 31 15h191q11 0 11 -6zM442 413q-24 3 -43 3q-34 0 -51 -17t-26 -65l-20 -112q-1 -5 -1 -14q0 -21 9 -28.5t30 -7.5q28 0 62 16zM688 550q0 -6 -1 -9l-91 -521q-4 -20 -20 -20h-143 q-8 0 -14 5t-6 12v3l4 28q-67 -58 -150 -58q-80 0 -134.5 52.5t-54.5 147.5q0 21 5 51l16 93q26 151 107.5 208.5t216.5 57.5q91 0 231 -24q18 -3 26 -8.5t8 -17.5z"/>
<glyph glyph-name="acircumflex" horiz-adv-x="642" unicode="â" d="M657 644q0 -9 -10 -9h-138q-14 0 -23 10l-40 49l-56 -49q-11 -10 -27 -10h-150q-8 0 -8 6q0 5 6 11l103 112q14 15 31 15h220q18 0 27 -15l63 -112q2 -3 2 -8zM442 413q-24 3 -43 3q-34 0 -51 -17t-26 -65l-20 -112q-1 -5 -1 -14q0 -21 9 -28.5t30 -7.5q28 0 62 16z M688 550q0 -6 -1 -9l-91 -521q-4 -20 -20 -20h-143q-8 0 -14 5t-6 12v3l4 28q-67 -58 -150 -58q-80 0 -134.5 52.5t-54.5 147.5q0 21 5 51l16 93q26 151 107.5 208.5t216.5 57.5q91 0 231 -24q18 -3 26 -8.5t8 -17.5z"/>
<glyph glyph-name="atilde" horiz-adv-x="642" unicode="ã" d="M670 788v-4l-6 -40q-9 -57 -46 -86t-95 -29q-50 0 -92 24l-36 20q-23 12 -35 12q-14 0 -16 -13l-3 -16q-3 -17 -21 -17h-96q-15 0 -15 13v4l5 33q9 60 47 91t91 31q55 0 97 -24l36 -20q25 -13 36 -13q12 0 15 14l3 16q3 17 21 17h95q15 0 15 -13zM442 413q-24 3 -43 3 q-34 0 -51 -17t-26 -65l-20 -112q-1 -5 -1 -14q0 -21 9 -28.5t30 -7.5q28 0 62 16zM688 550q0 -6 -1 -9l-91 -521q-4 -20 -20 -20h-143q-8 0 -14 5t-6 12v3l4 28q-67 -58 -150 -58q-80 0 -134.5 52.5t-54.5 147.5q0 21 5 51l16 93q26 151 107.5 208.5t216.5 57.5 q91 0 231 -24q18 -3 26 -8.5t8 -17.5z"/>
<glyph glyph-name="adieresis" horiz-adv-x="642" unicode="ä" d="M430 761v-3l-18 -102q-1 -9 -9.5 -15t-17.5 -6h-139q-8 0 -13.5 5t-5.5 13v3l18 102q1 9 9 15t17 6h139q8 0 14 -5.5t6 -12.5zM660 761v-3l-18 -102q-1 -9 -9.5 -15t-17.5 -6h-139q-8 0 -13.5 5t-5.5 13v3l18 102q1 9 9 15t17 6h139q8 0 14 -5.5t6 -12.5zM442 413 q-24 3 -43 3q-34 0 -51 -17t-26 -65l-20 -112q-1 -5 -1 -14q0 -21 9 -28.5t30 -7.5q28 0 62 16zM688 550q0 -6 -1 -9l-91 -521q-4 -20 -20 -20h-143q-8 0 -14 5t-6 12v3l4 28q-67 -58 -150 -58q-80 0 -134.5 52.5t-54.5 147.5q0 21 5 51l16 93q26 151 107.5 208.5 t216.5 57.5q91 0 231 -24q18 -3 26 -8.5t8 -17.5z"/>
<glyph glyph-name="aring" horiz-adv-x="642" unicode="å" d="M478 764q0 15 -11 26t-26 11t-25.5 -10.5t-10.5 -26.5t10.5 -26.5t25.5 -10.5t26 11t11 26zM568 763q0 -53 -37.5 -90.5t-90.5 -37.5t-90.5 37.5t-37.5 90.5t37.5 90.5t90.5 37.5t90.5 -37.5t37.5 -90.5zM442 413q-24 3 -43 3q-34 0 -51 -17t-26 -65l-20 -112 q-1 -5 -1 -14q0 -21 9 -28.5t30 -7.5q28 0 62 16zM688 550q0 -6 -1 -9l-91 -521q-4 -20 -20 -20h-143q-8 0 -14 5t-6 12v3l4 28q-67 -58 -150 -58q-80 0 -134.5 52.5t-54.5 147.5q0 21 5 51l16 93q26 151 107.5 208.5t216.5 57.5q91 0 231 -24q18 -3 26 -8.5t8 -17.5z"/>
<glyph glyph-name="ae" horiz-adv-x="903" unicode="æ" d="M373 237h-31q-54 0 -64 -47l-2 -10v-4v-6q0 -16 12 -22t37 -6q11 0 31 2zM723 385q0 47 -47 47q-31 0 -46.5 -20t-23.5 -63h113q4 26 4 36zM930 385q0 -31 -6 -66l-11 -61q-1 -9 -8.5 -15t-16.5 -6h-302q-2 -16 -2 -22q0 -24 17 -33t60 -9q105 0 189 7h1h3q16 0 16 -12 q0 -1 -0.5 -3t-0.5 -3l-19 -105q-3 -19 -24 -29q-83 -38 -214 -38q-75 0 -130 31q-109 -31 -187 -31q-113 0 -171.5 43.5t-58.5 113.5v9q0 15 2 24l2 10q10 50 35 82.5t66.5 49t85 22t106.5 5.5h24l3 22q1 4 1 11q0 21 -10.5 28t-31.5 7q-59 0 -179 -6h-1q-13 0 -13 17v4 l20 114q3 17 25 25q82 29 180 29q109 0 167 -45q37 23 71.5 34t89.5 11q111 0 166.5 -59t55.5 -156z"/>
<glyph glyph-name="ccedilla" horiz-adv-x="475" unicode="ç" d="M374 -50q0 -4 -6 -9l-151 -119q-13 -10 -27 -10h-150q-8 0 -8 6q0 5 6 11l109 112q15 15 31 15h185q11 0 11 -6zM539 565v-1l-24 -136q-2 -8 -9 -14.5t-15 -6.5h-1q-15 0 -50.5 3t-56.5 3q-30 0 -44.5 -19.5t-23.5 -65.5l-12 -66q-4 -20 -4 -40q0 -45 42 -45q21 0 57.5 3 t51.5 3h1q7 0 12.5 -5.5t5.5 -12.5v-2v-1l-24 -136q-2 -14 -24 -19q-77 -17 -144 -17q-100 0 -151 57t-51 149q0 32 6 66l12 66q25 138 97 205t195 67q72 0 138 -17q16 -5 16 -15v-3z"/>
<glyph glyph-name="egrave" horiz-adv-x="614" unicode="è" d="M511 644q0 -9 -10 -9h-142q-14 0 -23 10l-109 119q-3 5 -3 7q0 8 12 8h177q17 0 27 -15l69 -112q2 -3 2 -8zM434 383q0 49 -47 49q-30 0 -46 -20t-24 -63h113q4 26 4 34zM641 387q0 -33 -6 -68l-11 -61q-4 -21 -25 -21h-302q-2 -16 -2 -22q0 -24 17 -33t60 -9 q105 0 189 7h4q16 0 16 -13l-1 -2v-3l-19 -105q-2 -13 -7 -18.5t-17 -10.5q-42 -16 -109 -27t-127 -11q-100 0 -163.5 54t-63.5 154q0 28 6 60l11 61q27 149 110.5 215t217.5 66q112 0 167 -58.5t55 -154.5z"/>
<glyph glyph-name="eacute" horiz-adv-x="614" unicode="é" d="M665 773q0 -5 -6 -9l-151 -119q-13 -10 -27 -10h-154q-8 0 -8 6q0 5 6 11l107 112q15 15 31 15h191q11 0 11 -6zM434 383q0 49 -47 49q-30 0 -46 -20t-24 -63h113q4 26 4 34zM641 387q0 -33 -6 -68l-11 -61q-4 -21 -25 -21h-302q-2 -16 -2 -22q0 -24 17 -33t60 -9 q105 0 189 7h4q16 0 16 -13l-1 -2v-3l-19 -105q-2 -13 -7 -18.5t-17 -10.5q-42 -16 -109 -27t-127 -11q-100 0 -163.5 54t-63.5 154q0 28 6 60l11 61q27 149 110.5 215t217.5 66q112 0 167 -58.5t55 -154.5z"/>
<glyph glyph-name="ecircumflex" horiz-adv-x="614" unicode="ê" d="M654 644q0 -9 -10 -9h-138q-14 0 -23 10l-40 49l-56 -49q-11 -10 -27 -10h-150q-8 0 -8 6q0 5 6 11l103 112q14 15 31 15h220q18 0 27 -15l63 -112q2 -3 2 -8zM434 383q0 49 -47 49q-30 0 -46 -20t-24 -63h113q4 26 4 34zM641 387q0 -33 -6 -68l-11 -61q-4 -21 -25 -21 h-302q-2 -16 -2 -22q0 -24 17 -33t60 -9q105 0 189 7h4q16 0 16 -13l-1 -2v-3l-19 -105q-2 -13 -7 -18.5t-17 -10.5q-42 -16 -109 -27t-127 -11q-100 0 -163.5 54t-63.5 154q0 28 6 60l11 61q27 149 110.5 215t217.5 66q112 0 167 -58.5t55 -154.5z"/>
<glyph glyph-name="edieresis" horiz-adv-x="614" unicode="ë" d="M422 761v-3l-18 -102q-1 -9 -9.5 -15t-17.5 -6h-139q-8 0 -13.5 5t-5.5 13v3l18 102q1 9 9 15t17 6h139q8 0 14 -5.5t6 -12.5zM652 761v-3l-18 -102q-1 -9 -9.5 -15t-17.5 -6h-139q-8 0 -13.5 5t-5.5 13v3l18 102q1 9 9 15t17 6h139q8 0 14 -5.5t6 -12.5zM434 383 q0 49 -47 49q-30 0 -46 -20t-24 -63h113q4 26 4 34zM641 387q0 -33 -6 -68l-11 -61q-4 -21 -25 -21h-302q-2 -16 -2 -22q0 -24 17 -33t60 -9q105 0 189 7h4q16 0 16 -13l-1 -2v-3l-19 -105q-2 -13 -7 -18.5t-17 -10.5q-42 -16 -109 -27t-127 -11q-100 0 -163.5 54t-63.5 154 q0 28 6 60l11 61q27 149 110.5 215t217.5 66q112 0 167 -58.5t55 -154.5z"/>
<glyph glyph-name="igrave" horiz-adv-x="329" unicode="ì" d="M398 644q0 -9 -10 -9h-142q-14 0 -23 10l-109 119q-3 5 -3 7q0 8 12 8h177q17 0 27 -15l69 -112q2 -3 2 -8zM377 573v-4l-96 -547q-1 -9 -9 -15.5t-17 -6.5h-179q-19 0 -19 19v3l96 547q1 9 9.5 15t17.5 6h179q18 0 18 -17z"/>
<glyph glyph-name="iacute" horiz-adv-x="329" unicode="í" d="M514 773q0 -5 -6 -9l-151 -119q-13 -10 -27 -10h-154q-8 0 -8 6q0 5 6 11l107 112q15 15 31 15h191q11 0 11 -6zM377 573v-4l-96 -547q-1 -9 -9 -15.5t-17 -6.5h-179q-19 0 -19 19v3l96 547q1 9 9.5 15t17.5 6h179q18 0 18 -17z"/>
<glyph glyph-name="icircumflex" horiz-adv-x="329" unicode="î" d="M509 644q0 -9 -10 -9h-138q-14 0 -23 10l-40 49l-56 -49q-11 -10 -27 -10h-150q-8 0 -8 6q0 5 6 11l103 112q14 15 31 15h220q18 0 27 -15l63 -112q2 -3 2 -8zM377 573v-4l-96 -547q-1 -9 -9 -15.5t-17 -6.5h-179q-19 0 -19 19v3l96 547q1 9 9.5 15t17.5 6h179 q18 0 18 -17z"/>
<glyph glyph-name="idieresis" horiz-adv-x="329" unicode="ï" d="M282 761v-3l-18 -102q-1 -9 -9.5 -15t-17.5 -6h-139q-8 0 -13.5 5t-5.5 13v3l18 102q1 9 9 15t17 6h139q8 0 14 -5.5t6 -12.5zM512 761v-3l-18 -102q-1 -9 -9.5 -15t-17.5 -6h-139q-8 0 -13.5 5t-5.5 13v3l18 102q1 9 9 15t17 6h139q8 0 14 -5.5t6 -12.5zM377 573v-4 l-96 -547q-1 -9 -9 -15.5t-17 -6.5h-179q-19 0 -19 19v3l96 547q1 9 9.5 15t17.5 6h179q18 0 18 -17z"/>
<glyph glyph-name="eth" horiz-adv-x="620" unicode="ð" d="M418 331q0 28 -10 39t-31 11q-27 0 -43.5 -21t-26.5 -77l-2 -11q-5 -32 -5 -48q0 -28 10 -39t31 -11q27 0 43.5 21t26.5 77l2 11q5 32 5 48zM644 387q0 -49 -9 -103l-2 -12q-47 -282 -325 -282q-111 0 -171.5 56t-60.5 157q0 25 7 69l2 11q52 282 325 282h4 q-29 26 -77 51l-71 -48q-9 -6 -14 -6t-10 6l-19 27q-2 4 -2 6q0 9 13 18l38 25q-13 5 -41 15q-13 4 -13 12q0 5 2 8l47 88q5 11 15 11q4 0 10 -2q65 -18 116 -40l75 50q8 5 15 5q8 0 10 -5l19 -27q2 -2 2 -6q0 -8 -12 -16l-48 -32q175 -102 175 -318z"/>
<glyph glyph-name="ntilde" d="M679 780v-4l-6 -40q-9 -57 -46 -86t-95 -29q-50 0 -92 24l-36 20q-23 12 -35 12q-14 0 -16 -13l-3 -16q-3 -17 -21 -17h-96q-15 0 -15 13v4l5 33q9 60 47 91t91 31q55 0 97 -24l36 -20q25 -13 36 -13q12 0 15 14l3 16q3 17 21 17h95q15 0 15 -13zM674 438q0 -30 -7 -70 l-61 -346q-4 -22 -25 -22h-180q-18 0 -18 18v4l61 346q1 4 1 12q0 37 -43 37q-28 0 -58 -15l-67 -380q-4 -22 -24 -22h-180q-19 0 -19 19v3l97 548q4 20 23 20h165q17 0 17 -17v-3l-5 -28q44 32 79 45t92 13q82 0 117 -45t35 -117z" unicode="ñ"/>
<glyph glyph-name="ograve" horiz-adv-x="620" unicode="ò" d="M534 644q0 -9 -10 -9h-142q-14 0 -23 10l-109 119q-3 5 -3 7q0 8 12 8h177q17 0 27 -15l69 -112q2 -3 2 -8zM424 365q0 51 -41 51q-53 0 -70 -98l-8 -46q-5 -32 -5 -47q0 -51 41 -51q27 0 43.5 21t26.5 77l8 46q5 32 5 47zM648 389q0 -27 -7 -71l-8 -46 q-27 -152 -108 -217t-217 -65q-112 0 -171.5 56.5t-59.5 157.5q0 32 6 68l8 46q26 150 108 216t217 66q111 0 171.5 -54.5t60.5 -156.5z"/>
<glyph glyph-name="oacute" horiz-adv-x="620" unicode="ó" d="M651 773q0 -5 -6 -9l-151 -119q-13 -10 -27 -10h-154q-8 0 -8 6q0 5 6 11l107 112q15 15 31 15h191q11 0 11 -6zM424 365q0 51 -41 51q-53 0 -70 -98l-8 -46q-5 -32 -5 -47q0 -51 41 -51q27 0 43.5 21t26.5 77l8 46q5 32 5 47zM648 389q0 -27 -7 -71l-8 -46 q-27 -152 -108 -217t-217 -65q-112 0 -171.5 56.5t-59.5 157.5q0 32 6 68l8 46q26 150 108 216t217 66q111 0 171.5 -54.5t60.5 -156.5z"/>
<glyph glyph-name="ocircumflex" horiz-adv-x="620" unicode="ô" d="M649 644q0 -9 -10 -9h-138q-14 0 -23 10l-40 49l-56 -49q-11 -10 -27 -10h-150q-8 0 -8 6q0 5 6 11l103 112q14 15 31 15h220q18 0 27 -15l63 -112q2 -3 2 -8zM424 365q0 51 -41 51q-53 0 -70 -98l-8 -46q-5 -32 -5 -47q0 -51 41 -51q27 0 43.5 21t26.5 77l8 46 q5 32 5 47zM648 389q0 -27 -7 -71l-8 -46q-27 -152 -108 -217t-217 -65q-112 0 -171.5 56.5t-59.5 157.5q0 32 6 68l8 46q26 150 108 216t217 66q111 0 171.5 -54.5t60.5 -156.5z"/>
<glyph glyph-name="otilde" horiz-adv-x="620" unicode="õ" d="M665 780v-4l-6 -40q-9 -57 -46 -86t-95 -29q-50 0 -92 24l-36 20q-23 12 -35 12q-14 0 -16 -13l-3 -16q-3 -17 -21 -17h-96q-15 0 -15 13v4l5 33q9 60 47 91t91 31q55 0 97 -24l36 -20q25 -13 36 -13q12 0 15 14l3 16q3 17 21 17h95q15 0 15 -13zM424 365q0 51 -41 51 q-53 0 -70 -98l-8 -46q-5 -32 -5 -47q0 -51 41 -51q27 0 43.5 21t26.5 77l8 46q5 32 5 47zM648 389q0 -27 -7 -71l-8 -46q-27 -152 -108 -217t-217 -65q-112 0 -171.5 56.5t-59.5 157.5q0 32 6 68l8 46q26 150 108 216t217 66q111 0 171.5 -54.5t60.5 -156.5z"/>
<glyph glyph-name="odieresis" horiz-adv-x="620" unicode="ö" d="M421 761v-3l-18 -102q-1 -9 -9.5 -15t-17.5 -6h-139q-8 0 -13.5 5t-5.5 13v3l18 102q4 21 26 21h139q8 0 14 -5.5t6 -12.5zM651 761v-3l-18 -102q-1 -9 -9.5 -15t-17.5 -6h-139q-8 0 -13.5 5t-5.5 13v3l18 102q4 21 26 21h139q8 0 14 -5.5t6 -12.5zM424 365q0 51 -41 51 q-53 0 -70 -98l-8 -46q-5 -32 -5 -47q0 -51 41 -51q27 0 43.5 21t26.5 77l8 46q5 32 5 47zM648 389q0 -27 -7 -71l-8 -46q-27 -152 -108 -217t-217 -65q-112 0 -171.5 56.5t-59.5 157.5q0 32 6 68l8 46q26 150 108 216t217 66q111 0 171.5 -54.5t60.5 -156.5z"/>
<glyph glyph-name="divide" horiz-adv-x="640" unicode="÷" d="M500 57q0 -8 -6.5 -14t-14.5 -6h-174q-8 0 -14.5 6t-6.5 14v132q0 8 6.5 14t14.5 6h174q8 0 14.5 -6t6.5 -14v-132zM635 326q0 -16 -20 -16h-445q-20 0 -20 16v130q0 16 20 16h445q20 0 20 -16v-130zM500 572q0 -8 -6.5 -14t-14.5 -6h-174q-8 0 -14.5 6t-6.5 14v132 q0 8 6.5 14t14.5 6h174q8 0 14.5 -6t6.5 -14v-132z"/>
<glyph glyph-name="oslash" horiz-adv-x="620" unicode="ø" d="M417 309l-109 -120q10 -15 33 -15q27 0 44 21t26 77zM416 401q-10 15 -33 15q-54 0 -70 -98l-6 -37zM695 619q0 -7 -6 -13l-79 -86q38 -54 38 -131q0 -27 -7 -71l-8 -46q-27 -152 -108 -217t-217 -65q-92 0 -148 38l-48 -53q-9 -10 -18 -10h-58q-7 0 -7 6q0 7 6 13l80 87 q-38 53 -38 133q0 32 6 68l8 46q26 150 108 216t217 66q90 0 149 -37l47 52q9 10 18 10h58q7 0 7 -6z"/>
<glyph glyph-name="ugrave" d="M544 644q0 -9 -10 -9h-142q-14 0 -23 10l-109 119q-3 5 -3 7q0 8 12 8h177q17 0 27 -15l69 -112q2 -3 2 -8zM702 571v-3l-97 -548q-4 -20 -23 -20h-165q-17 0 -17 17v3l5 28q-29 -20 -47 -30.5t-49.5 -19t-69.5 -8.5q-80 0 -118 48t-38 123q0 31 6 61l61 346q4 22 25 22 h180q18 0 18 -18v-4l-61 -346q-1 -4 -1 -12q0 -37 43 -37q28 0 58 15l67 380q4 22 24 22h180q19 0 19 -19z" unicode="ù"/>
<glyph glyph-name="uacute" d="M681 773q0 -5 -6 -9l-151 -119q-13 -10 -27 -10h-154q-8 0 -8 6q0 5 6 11l107 112q15 15 31 15h191q11 0 11 -6zM702 571v-3l-97 -548q-4 -20 -23 -20h-165q-17 0 -17 17v3l5 28q-29 -20 -47 -30.5t-49.5 -19t-69.5 -8.5q-80 0 -118 48t-38 123q0 31 6 61l61 346 q4 22 25 22h180q18 0 18 -18v-4l-61 -346q-1 -4 -1 -12q0 -37 43 -37q28 0 58 15l67 380q4 22 24 22h180q19 0 19 -19z" unicode="ú"/>
<glyph glyph-name="ucircumflex" d="M664 644q0 -9 -10 -9h-138q-14 0 -23 10l-40 49l-56 -49q-11 -10 -27 -10h-150q-8 0 -8 6q0 5 6 11l103 112q14 15 31 15h220q18 0 27 -15l63 -112q2 -3 2 -8zM702 571v-3l-97 -548q-4 -20 -23 -20h-165q-17 0 -17 17v3l5 28q-29 -20 -47 -30.5t-49.5 -19t-69.5 -8.5 q-80 0 -118 48t-38 123q0 31 6 61l61 346q4 22 25 22h180q18 0 18 -18v-4l-61 -346q-1 -4 -1 -12q0 -37 43 -37q28 0 58 15l67 380q4 22 24 22h180q19 0 19 -19z" unicode="û"/>
<glyph glyph-name="udieresis" d="M440 761v-3l-18 -102q-1 -9 -9.5 -15t-17.5 -6h-139q-8 0 -13.5 5t-5.5 13v3l18 102q1 9 9 15t17 6h139q8 0 14 -5.5t6 -12.5zM670 761v-3l-18 -102q-1 -9 -9.5 -15t-17.5 -6h-139q-8 0 -13.5 5t-5.5 13v3l18 102q1 9 9 15t17 6h139q8 0 14 -5.5t6 -12.5zM702 571v-3 l-97 -548q-4 -20 -23 -20h-165q-17 0 -17 17v3l5 28q-29 -20 -47 -30.5t-49.5 -19t-69.5 -8.5q-80 0 -118 48t-38 123q0 31 6 61l61 346q4 22 25 22h180q18 0 18 -18v-4l-61 -346q-1 -4 -1 -12q0 -37 43 -37q28 0 58 15l67 380q4 22 24 22h180q19 0 19 -19z" unicode="ü"/>
<glyph glyph-name="yacute" horiz-adv-x="656" unicode="ý" d="M685 773q0 -5 -6 -9l-151 -119q-13 -10 -27 -10h-154q-8 0 -8 6q0 5 6 11l107 112q15 15 31 15h191q11 0 11 -6zM741 575q0 -4 -1 -6l-276 -600q-20 -43 -41.5 -72.5t-53.5 -54t-78 -36.5t-107 -12q-34 0 -80.5 6.5t-66.5 14.5q-19 8 -19 17v3l20 114q2 8 10 15t16 7h1 q98 -7 149 -7q33 0 44 23l15 34h-13q-34 0 -55.5 16t-27.5 62l-61 470v3q0 18 26 18h191q16 0 16 -21l13 -312q0 -14 7 -14h7l121 326q8 21 26 21h200q18 0 18 -15z"/>
<glyph glyph-name="thorn" horiz-adv-x="636" unicode="þ" d="M441 366q0 50 -42 50q-25 0 -54 -3l-42 -236q17 -3 54 -3q53 0 67 82l14 78q3 18 3 32zM666 397q0 -30 -6 -63l-14 -78q-47 -266 -322 -266q-27 0 -53 6l-29 -164q-4 -21 -23 -21h-179q-8 0 -14 5.5t-6 12.5v2v1l164 927q4 20 23 20h182q7 0 12 -5t5 -12v-2v-1l-28 -160 q18 1 54 1q111 0 172.5 -51t61.5 -152z"/>
<glyph glyph-name="ydieresis" horiz-adv-x="656" unicode="ÿ" d="M438 761v-3l-18 -102q-1 -9 -9.5 -15t-17.5 -6h-139q-8 0 -13.5 5t-5.5 13v3l18 102q1 9 9 15t17 6h139q8 0 14 -5.5t6 -12.5zM668 761v-3l-18 -102q-1 -9 -9.5 -15t-17.5 -6h-139q-8 0 -13.5 5t-5.5 13v3l18 102q1 9 9 15t17 6h139q8 0 14 -5.5t6 -12.5zM741 575 q0 -4 -1 -6l-276 -600q-20 -43 -41.5 -72.5t-53.5 -54t-78 -36.5t-107 -12q-34 0 -80.5 6.5t-66.5 14.5q-19 8 -19 17v3l20 114q2 8 10 15t16 7h1q98 -7 149 -7q33 0 44 23l15 34h-13q-34 0 -55.5 16t-27.5 62l-61 470v3q0 18 26 18h191q16 0 16 -21l13 -312q0 -14 7 -14h7 l121 326q8 21 26 21h200q18 0 18 -15z"/>
<glyph glyph-name="Amacron" horiz-adv-x="716" unicode="Ā" d="M727 921v-3l-19 -104q-4 -20 -23 -20h-354q-17 0 -17 17v3l19 104q4 20 23 20h354q17 0 17 -17zM464 554q0 8 -7 8q-2 0 -3.5 -0.5t-3 -2t-2 -2.5t-1.5 -4t-1 -4l-78 -233h92l4 233v5zM699 19q0 -19 -19 -19h-207q-17 0 -17 20l1 112h-152l-37 -112q-7 -20 -25 -20h-209 q-13 0 -13 11q0 3 2 9l225 604q27 73 86 101t157 28t146 -28t49 -101l13 -604v-1z"/>
<glyph glyph-name="amacron" horiz-adv-x="642" unicode="ā" d="M693 762v-3l-19 -104q-4 -20 -23 -20h-354q-17 0 -17 17v3l19 104q4 20 23 20h354q17 0 17 -17zM442 413q-24 3 -43 3q-34 0 -51 -17t-26 -65l-20 -112q-1 -5 -1 -14q0 -21 9 -28.5t30 -7.5q28 0 62 16zM688 550q0 -6 -1 -9l-91 -521q-4 -20 -20 -20h-143q-8 0 -14 5 t-6 12v3l4 28q-67 -58 -150 -58q-80 0 -134.5 52.5t-54.5 147.5q0 21 5 51l16 93q26 151 107.5 208.5t216.5 57.5q91 0 231 -24q18 -3 26 -8.5t8 -17.5z"/>
<glyph glyph-name="Abreve" horiz-adv-x="716" unicode="Ă" d="M519 898q48 0 71 33q8 11 11 12t7 1h126q13 0 13 -9q0 -11 -8 -25q-69 -124 -228 -124q-158 0 -208 124q-5 15 -5 21q0 13 14 13h125q13 0 20 -13q9 -18 22 -25.5t40 -7.5zM464 554q0 8 -7 8q-2 0 -3.5 -0.5t-3 -2t-2 -2.5t-1.5 -4t-1 -4l-78 -233h92l4 233v5zM699 19 q0 -19 -19 -19h-207q-17 0 -17 20l1 112h-152l-37 -112q-7 -20 -25 -20h-209q-13 0 -13 11q0 3 2 9l225 604q27 73 86 101t157 28t146 -28t49 -101l13 -604v-1z"/>
<glyph glyph-name="abreve" horiz-adv-x="642" unicode="ă" d="M461 741q48 0 71 33q8 11 11 12t7 1h126q13 0 13 -9q0 -11 -8 -25q-69 -124 -228 -124q-158 0 -208 124q-5 15 -5 21q0 13 14 13h125q13 0 20 -13q9 -18 22 -25.5t40 -7.5zM442 413q-24 3 -43 3q-34 0 -51 -17t-26 -65l-20 -112q-1 -5 -1 -14q0 -21 9 -28.5t30 -7.5 q28 0 62 16zM688 550q0 -6 -1 -9l-91 -521q-4 -20 -20 -20h-143q-8 0 -14 5t-6 12v3l4 28q-67 -58 -150 -58q-80 0 -134.5 52.5t-54.5 147.5q0 21 5 51l16 93q26 151 107.5 208.5t216.5 57.5q91 0 231 -24q18 -3 26 -8.5t8 -17.5z"/>
<glyph glyph-name="Aogonek" horiz-adv-x="716" unicode="Ą" d="M464 554q0 8 -7 8q-2 0 -3.5 -0.5t-3 -2t-2 -2.5t-1.5 -4t-1 -4l-78 -233h92l4 233v5zM699 19q0 -16 -16 -19l-100 -21q-47 -10 -47 -41q0 -16 9.5 -20.5t27.5 -4.5q14 0 39.5 3.5t29.5 3.5q10 0 8 -12l-13 -73q-3 -13 -13 -16q-50 -20 -137 -20q-66 0 -99.5 23t-33.5 65 q0 39 23 65.5t79 55.5l1 124h-152l-37 -112q-7 -20 -25 -20h-209q-13 0 -13 11q0 3 2 9l225 604q27 73 86 101t157 28t146 -28t49 -101l13 -604v-1z"/>
<glyph glyph-name="aogonek" horiz-adv-x="642" unicode="ą" d="M442 413q-24 3 -43 3q-34 0 -51 -17t-26 -65l-20 -112q-1 -5 -1 -14q0 -21 9 -28.5t30 -7.5q28 0 62 16zM423 600q91 0 231 -24q34 -7 34 -27q0 -1 -0.5 -3.5t-0.5 -4.5l-91 -521q-2 -12 -10 -17l-37 -24q-47 -30 -47 -51q0 -9 7 -12t26 -3q17 0 43.5 3.5t29.5 3.5 q10 0 8 -12l-13 -73q-1 -11 -13 -16q-13 -5 -54.5 -12.5t-82.5 -7.5q-66 0 -99.5 23t-33.5 65q0 76 90 122l7 39q-67 -58 -150 -58q-80 0 -134.5 52.5t-54.5 147.5q0 21 5 51l16 93q26 151 107.5 208.5t216.5 57.5z"/>
<glyph glyph-name="Cacute" horiz-adv-x="548" unicode="Ć" d="M702 932q0 -4 -6 -9l-151 -119q-13 -10 -27 -10h-154q-8 0 -8 6q0 5 6 11l107 112q15 15 31 15h191q11 0 11 -6zM640 717v-2q-1 -2 -1 -3l-28 -158q-3 -18 -20 -18h-2h-1q-72 9 -131 9q-18 0 -30.5 -3.5t-27.5 -16t-27 -41t-20 -72.5l-15 -81q-7 -38 -7 -65q0 -30 10 -46 t22.5 -19t33.5 -3q38 0 134 9h1h3q13 0 13 -12q0 -1 -0.5 -3t-0.5 -3l-28 -158q-1 -10 -5.5 -13.5t-18.5 -8.5q-59 -19 -135 -19q-134 0 -202 66t-68 184q0 43 9 91l15 81q34 186 123 263.5t251 77.5q83 0 134 -19q18 -10 19 -17z"/>
<glyph glyph-name="cacute" horiz-adv-x="475" unicode="ć" d="M615 773q0 -5 -6 -9l-151 -119q-13 -10 -27 -10h-154q-8 0 -8 6q0 5 6 11l107 112q15 15 31 15h191q11 0 11 -6zM539 565v-1l-24 -136q-2 -8 -9 -14.5t-15 -6.5h-1q-15 0 -50.5 3t-56.5 3q-30 0 -44.5 -19.5t-23.5 -65.5l-12 -66q-4 -20 -4 -40q0 -45 42 -45q21 0 57.5 3 t51.5 3h1q7 0 12.5 -5.5t5.5 -12.5v-2v-1l-24 -136q-2 -14 -24 -19q-77 -17 -144 -17q-100 0 -151 57t-51 149q0 32 6 66l12 66q25 138 97 205t195 67q72 0 138 -17q16 -5 16 -15v-3z"/>
<glyph glyph-name="Ccircumflex" horiz-adv-x="548" unicode="Ĉ" d="M658 803q0 -9 -10 -9h-138q-14 0 -23 10l-40 49l-56 -49q-11 -10 -27 -10h-150q-8 0 -8 6q0 5 6 11l103 112q14 15 31 15h220q18 0 27 -15l63 -112q2 -3 2 -8zM640 717v-2q-1 -2 -1 -3l-28 -158q-3 -18 -20 -18h-2h-1q-72 9 -131 9q-18 0 -30.5 -3.5t-27.5 -16t-27 -41 t-20 -72.5l-15 -81q-7 -38 -7 -65q0 -30 10 -46t22.5 -19t33.5 -3q38 0 134 9h1h3q13 0 13 -12q0 -1 -0.5 -3t-0.5 -3l-28 -158q-1 -10 -5.5 -13.5t-18.5 -8.5q-59 -19 -135 -19q-134 0 -202 66t-68 184q0 43 9 91l15 81q34 186 123 263.5t251 77.5q83 0 134 -19 q18 -10 19 -17z"/>
<glyph glyph-name="ccircumflex" horiz-adv-x="475" unicode="ĉ" d="M584 644q0 -9 -10 -9h-138q-14 0 -23 10l-40 49l-56 -49q-11 -10 -27 -10h-150q-8 0 -8 6q0 5 6 11l103 112q14 15 31 15h220q18 0 27 -15l63 -112q2 -3 2 -8zM539 565v-1l-24 -136q-2 -8 -9 -14.5t-15 -6.5h-1q-15 0 -50.5 3t-56.5 3q-30 0 -44.5 -19.5t-23.5 -65.5 l-12 -66q-4 -20 -4 -40q0 -45 42 -45q21 0 57.5 3t51.5 3h1q7 0 12.5 -5.5t5.5 -12.5v-2v-1l-24 -136q-2 -14 -24 -19q-77 -17 -144 -17q-100 0 -151 57t-51 149q0 32 6 66l12 66q25 138 97 205t195 67q72 0 138 -17q16 -5 16 -15v-3z"/>
<glyph glyph-name="Cdotaccent" horiz-adv-x="548" unicode="Ċ" d="M592 933v-3l-21 -116q-4 -20 -24 -20h-174q-18 0 -18 17v3l21 116q4 20 24 20h174q18 0 18 -17zM640 717v-2q-1 -2 -1 -3l-28 -158q-3 -18 -20 -18h-2h-1q-72 9 -131 9q-18 0 -30.5 -3.5t-27.5 -16t-27 -41t-20 -72.5l-15 -81q-7 -38 -7 -65q0 -30 10 -46t22.5 -19 t33.5 -3q38 0 134 9h1h3q13 0 13 -12q0 -1 -0.5 -3t-0.5 -3l-28 -158q-1 -10 -5.5 -13.5t-18.5 -8.5q-59 -19 -135 -19q-134 0 -202 66t-68 184q0 43 9 91l15 81q34 186 123 263.5t251 77.5q83 0 134 -19q18 -10 19 -17z"/>
<glyph glyph-name="cdotaccent" horiz-adv-x="475" unicode="ċ" d="M518 774v-3l-21 -116q-4 -20 -24 -20h-174q-18 0 -18 17v3l21 116q4 20 24 20h174q18 0 18 -17zM539 565v-1l-24 -136q-2 -8 -9 -14.5t-15 -6.5h-1q-15 0 -50.5 3t-56.5 3q-30 0 -44.5 -19.5t-23.5 -65.5l-12 -66q-4 -20 -4 -40q0 -45 42 -45q21 0 57.5 3t51.5 3h1 q7 0 12.5 -5.5t5.5 -12.5v-2v-1l-24 -136q-2 -14 -24 -19q-77 -17 -144 -17q-100 0 -151 57t-51 149q0 32 6 66l12 66q25 138 97 205t195 67q72 0 138 -17q16 -5 16 -15v-3z"/>
<glyph glyph-name="Ccaron" horiz-adv-x="548" unicode="Č" d="M706 932q0 -5 -6 -11l-108 -112q-15 -15 -32 -15h-220q-11 0 -15.5 3t-10.5 12l-70 112q-3 5 -3 8q0 9 11 9h150q15 0 24 -10l40 -45l56 45q13 10 26 10h150q8 0 8 -6zM640 717v-2q-1 -2 -1 -3l-28 -158q-3 -18 -20 -18h-2h-1q-72 9 -131 9q-18 0 -30.5 -3.5t-27.5 -16 t-27 -41t-20 -72.5l-15 -81q-7 -38 -7 -65q0 -30 10 -46t22.5 -19t33.5 -3q38 0 134 9h1h3q13 0 13 -12q0 -1 -0.5 -3t-0.5 -3l-28 -158q-1 -10 -5.5 -13.5t-18.5 -8.5q-59 -19 -135 -19q-134 0 -202 66t-68 184q0 43 9 91l15 81q34 186 123 263.5t251 77.5q83 0 134 -19 q18 -10 19 -17z"/>
<glyph glyph-name="ccaron" horiz-adv-x="475" unicode="č" d="M636 773q0 -5 -6 -11l-108 -112q-15 -15 -32 -15h-220q-11 0 -15.5 3t-10.5 12l-70 112q-3 4 -3 8q0 9 11 9h150q15 0 24 -10l40 -45l56 45q13 10 26 10h150q8 0 8 -6zM539 565v-1l-24 -136q-2 -8 -9 -14.5t-15 -6.5h-1q-15 0 -50.5 3t-56.5 3q-30 0 -44.5 -19.5 t-23.5 -65.5l-12 -66q-4 -20 -4 -40q0 -45 42 -45q21 0 57.5 3t51.5 3h1q7 0 12.5 -5.5t5.5 -12.5v-2v-1l-24 -136q-2 -14 -24 -19q-77 -17 -144 -17q-100 0 -151 57t-51 149q0 32 6 66l12 66q25 138 97 205t195 67q72 0 138 -17q16 -5 16 -15v-3z"/>
<glyph glyph-name="Dcaron" horiz-adv-x="706" unicode="Ď" d="M751 932q0 -5 -6 -11l-108 -112q-15 -15 -32 -15h-220q-11 0 -15.5 3t-10.5 12l-70 112q-3 5 -3 8q0 9 11 9h150q15 0 24 -10l40 -45l56 45q13 10 26 10h150q8 0 8 -6zM509 484q0 38 -18 52.5t-59 14.5h-44l-63 -359h44q53 0 76 26t39 108l17 91q8 43 8 67zM748 502 q0 -45 -8 -85l-17 -91q-35 -184 -129.5 -260t-258.5 -76q-139 0 -243 19q-29 6 -29 29q0 9 1 14l113 639q4 22 13 31t29 12q111 19 249 19q127 0 203.5 -65t76.5 -186z"/>
<glyph glyph-name="dcaron" horiz-adv-x="881" unicode="ď" d="M1025 768l-4 -8l-140 -230q-10 -19 -22 -19h-109q-11 0 -11 9q0 6 3 10l105 230q8 19 24 19h144q10 0 10 -9v-2zM437 413q-48 3 -54 3q-30 0 -44.5 -19t-22.5 -63l-14 -78q-4 -20 -4 -38q0 -44 43 -44q25 0 54 3zM720 761v-3l-125 -709q-5 -27 -47 -35q-131 -24 -240 -24 q-107 0 -170 60.5t-63 155.5q0 22 5 50l14 78q25 140 103 203t219 63q27 0 53 -6l29 164q4 21 23 21h179q8 0 14 -5.5t6 -12.5z"/>
<glyph glyph-name="Dcroat" horiz-adv-x="706" unicode="Đ" d="M509 484q0 38 -18 52.5t-59 14.5h-44l-15 -86h44q16 0 16 -16v-3v-1l-24 -141q-4 -20 -24 -20h-44l-16 -92h44q53 0 76 26t39 108l17 91q8 43 8 67zM748 502q0 -45 -8 -85l-17 -91q-35 -184 -129.5 -260t-258.5 -76q-139 0 -243 19q-29 6 -29 29q0 9 1 14l41 232h-48 q-16 0 -16 16v3v1l24 141q4 20 24 20h48l40 226q4 22 13 31t29 12q111 19 249 19q127 0 203.5 -65t76.5 -186z"/>
<glyph glyph-name="dcroat" horiz-adv-x="636" unicode="đ" d="M437 413q-48 3 -54 3q-30 0 -44.5 -19t-22.5 -63l-14 -78q-4 -20 -4 -38q0 -44 43 -44q25 0 54 3zM727 635h-29l-103 -586q-5 -27 -47 -35q-131 -24 -240 -24q-107 0 -170 60.5t-63 155.5q0 22 5 50l14 78q25 140 103 203t219 63q27 0 53 -6l7 41h-140q-8 0 -13 6t-3 14 l10 60q4 20 24 20h140l4 23q4 21 23 21h179q8 0 14 -5.5t6 -12.5v-3l-4 -23h29q8 0 13 -6t3 -14l-10 -60q-4 -20 -24 -20z"/>
<glyph glyph-name="Emacron" horiz-adv-x="595" unicode="Ē" d="M669 921v-3l-19 -104q-4 -20 -23 -20h-354q-17 0 -17 17v3l19 104q4 20 23 20h354q17 0 17 -17zM667 726v-4l-26 -151q-4 -20 -24 -20h-201q-19 0 -26.5 -6.5t-11.5 -25.5l-10 -54h234q16 0 16 -16v-4l-24 -141q-4 -20 -24 -20h-234l-11 -60q-1 -5 -1 -12q0 -20 29 -20 h201q16 0 16 -16v-4l-26 -151q-3 -18 -24 -20q-92 -11 -203 -11q-104 0 -168.5 42t-64.5 137q0 30 5 55l53 295q8 47 23.5 83.5t33 61t43 41.5t47.5 26.5t53.5 14.5t54 6t55.5 1q109 0 199 -11q16 -2 16 -16z"/>
<glyph glyph-name="emacron" horiz-adv-x="614" unicode="ē" d="M648 762v-3l-19 -104q-4 -20 -23 -20h-354q-17 0 -17 17v3l19 104q4 20 23 20h354q17 0 17 -17zM434 383q0 49 -47 49q-30 0 -46 -20t-24 -63h113q4 26 4 34zM641 387q0 -33 -6 -68l-11 -61q-4 -21 -25 -21h-302q-2 -16 -2 -22q0 -24 17 -33t60 -9q105 0 189 7h4 q16 0 16 -13l-1 -2v-3l-19 -105q-2 -13 -7 -18.5t-17 -10.5q-42 -16 -109 -27t-127 -11q-100 0 -163.5 54t-63.5 154q0 28 6 60l11 61q27 149 110.5 215t217.5 66q112 0 167 -58.5t55 -154.5z"/>
<glyph glyph-name="Ebreve" horiz-adv-x="595" unicode="Ĕ" d="M469 895q48 0 71 33q8 11 11 12t7 1h126q13 0 13 -9q0 -11 -8 -25q-69 -124 -228 -124q-158 0 -208 124q-5 15 -5 21q0 13 14 13h125q13 0 20 -13q9 -18 22 -25.5t40 -7.5zM667 726v-4l-26 -151q-4 -20 -24 -20h-201q-19 0 -26.5 -6.5t-11.5 -25.5l-10 -54h234 q16 0 16 -16v-4l-24 -141q-4 -20 -24 -20h-234l-11 -60q-1 -5 -1 -12q0 -20 29 -20h201q16 0 16 -16v-4l-26 -151q-3 -18 -24 -20q-92 -11 -203 -11q-104 0 -168.5 42t-64.5 137q0 30 5 55l53 295q8 47 23.5 83.5t33 61t43 41.5t47.5 26.5t53.5 14.5t54 6t55.5 1 q109 0 199 -11q16 -2 16 -16z"/>
<glyph glyph-name="ebreve" horiz-adv-x="614" unicode="ĕ" d="M439 740q48 0 71 33q8 11 11 12t7 1h126q13 0 13 -9q0 -11 -8 -25q-69 -124 -228 -124q-158 0 -208 124q-5 15 -5 21q0 13 14 13h125q13 0 20 -13q9 -18 22 -25.5t40 -7.5zM434 383q0 49 -47 49q-30 0 -46 -20t-24 -63h113q4 26 4 34zM641 387q0 -33 -6 -68l-11 -61 q-4 -21 -25 -21h-302q-2 -16 -2 -22q0 -24 17 -33t60 -9q105 0 189 7h4q16 0 16 -13l-1 -2v-3l-19 -105q-2 -13 -7 -18.5t-17 -10.5q-42 -16 -109 -27t-127 -11q-100 0 -163.5 54t-63.5 154q0 28 6 60l11 61q27 149 110.5 215t217.5 66q112 0 167 -58.5t55 -154.5z"/>
<glyph glyph-name="Edotaccent" horiz-adv-x="595" unicode="Ė" d="M581 927v-3l-21 -116q-4 -20 -24 -20h-174q-18 0 -18 17v3l21 116q4 20 24 20h174q18 0 18 -17zM667 726v-4l-26 -151q-4 -20 -24 -20h-201q-19 0 -26.5 -6.5t-11.5 -25.5l-10 -54h234q16 0 16 -16v-4l-24 -141q-4 -20 -24 -20h-234l-11 -60q-1 -5 -1 -12q0 -20 29 -20 h201q16 0 16 -16v-4l-26 -151q-3 -18 -24 -20q-92 -11 -203 -11q-104 0 -168.5 42t-64.5 137q0 30 5 55l53 295q8 47 23.5 83.5t33 61t43 41.5t47.5 26.5t53.5 14.5t54 6t55.5 1q109 0 199 -11q16 -2 16 -16z"/>
<glyph glyph-name="edotaccent" horiz-adv-x="614" unicode="ė" d="M567 768v-3l-21 -116q-4 -20 -24 -20h-174q-18 0 -18 17v3l21 116q4 20 24 20h174q18 0 18 -17zM434 383q0 49 -47 49q-30 0 -46 -20t-24 -63h113q4 26 4 34zM641 387q0 -33 -6 -68l-11 -61q-4 -21 -25 -21h-302q-2 -16 -2 -22q0 -24 17 -33t60 -9q105 0 189 7h4 q16 0 16 -13l-1 -2v-3l-19 -105q-2 -13 -7 -18.5t-17 -10.5q-42 -16 -109 -27t-127 -11q-100 0 -163.5 54t-63.5 154q0 28 6 60l11 61q27 149 110.5 215t217.5 66q112 0 167 -58.5t55 -154.5z"/>
<glyph glyph-name="Eogonek" horiz-adv-x="595" unicode="Ę" d="M667 726v-4l-26 -151q-4 -20 -24 -20h-201q-19 0 -26.5 -6.5t-11.5 -25.5l-10 -54h234q16 0 16 -16v-4l-24 -141q-4 -20 -24 -20h-234l-11 -60q-1 -5 -1 -12q0 -20 29 -20h201q16 0 16 -16v-4l-26 -151q-3 -18 -24 -20q-3 0 -15.5 -1.5t-19.5 -2.5l-31 -18 q-47 -27 -47 -51q0 -9 7 -12t26 -3q17 0 43.5 3.5t29.5 3.5q7 0 8.5 -2t-0.5 -10l-13 -73v-1q-1 -9 -13 -15q-50 -20 -137 -20q-66 0 -99.5 23t-33.5 65q0 35 16.5 59t52.5 45q-95 4 -152.5 46t-57.5 132q0 30 5 55l53 295q8 47 23.5 83.5t33 61t43 41.5t47.5 26.5 t53.5 14.5t54 6t55.5 1q109 0 199 -11q16 -2 16 -16z"/>
<glyph glyph-name="eogonek" horiz-adv-x="614" unicode="ę" d="M434 383q0 49 -47 49q-30 0 -46 -20t-24 -63h113q4 26 4 34zM641 387q0 -33 -6 -68l-11 -61q-4 -21 -25 -21h-302q-2 -16 -2 -22q0 -24 17 -33t60 -9q105 0 189 7h4q16 0 16 -13l-1 -2v-3l-19 -105q-5 -27 -18 -35l-73 -43q-47 -27 -47 -51q0 -9 7 -12t26 -3 q17 0 43.5 3.5t29.5 3.5q7 0 8.5 -2t-0.5 -10l-13 -73v-1q-1 -9 -13 -15q-50 -20 -137 -20q-66 0 -99.5 23t-33.5 65q0 63 68 103h-8q-100 0 -163.5 54t-63.5 154q0 28 6 60l11 61q27 149 110.5 215t217.5 66q112 0 167 -58.5t55 -154.5z"/>
<glyph glyph-name="Ecaron" horiz-adv-x="595" unicode="Ě" d="M695 932q0 -5 -6 -11l-108 -112q-15 -15 -32 -15h-220q-11 0 -15.5 3t-10.5 12l-70 112q-3 5 -3 8q0 9 11 9h150q15 0 24 -10l40 -45l56 45q13 10 26 10h150q8 0 8 -6zM667 726v-4l-26 -151q-4 -20 -24 -20h-201q-19 0 -26.5 -6.5t-11.5 -25.5l-10 -54h234q16 0 16 -16 v-4l-24 -141q-4 -20 -24 -20h-234l-11 -60q-1 -5 -1 -12q0 -20 29 -20h201q16 0 16 -16v-4l-26 -151q-3 -18 -24 -20q-92 -11 -203 -11q-104 0 -168.5 42t-64.5 137q0 30 5 55l53 295q8 47 23.5 83.5t33 61t43 41.5t47.5 26.5t53.5 14.5t54 6t55.5 1q109 0 199 -11 q16 -2 16 -16z"/>
<glyph glyph-name="ecaron" horiz-adv-x="614" unicode="ě" d="M678 773q0 -5 -6 -11l-108 -112q-15 -15 -32 -15h-220q-11 0 -15.5 3t-10.5 12l-70 112q-3 4 -3 8q0 9 11 9h150q15 0 24 -10l40 -45l56 45q13 10 26 10h150q8 0 8 -6zM434 383q0 49 -47 49q-30 0 -46 -20t-24 -63h113q4 26 4 34zM641 387q0 -33 -6 -68l-11 -61 q-4 -21 -25 -21h-302q-2 -16 -2 -22q0 -24 17 -33t60 -9q105 0 189 7h4q16 0 16 -13l-1 -2v-3l-19 -105q-2 -13 -7 -18.5t-17 -10.5q-42 -16 -109 -27t-127 -11q-100 0 -163.5 54t-63.5 154q0 28 6 60l11 61q27 149 110.5 215t217.5 66q112 0 167 -58.5t55 -154.5z"/>
<glyph glyph-name="Gcircumflex" horiz-adv-x="673" unicode="Ĝ" d="M718 803q0 -9 -10 -9h-138q-14 0 -23 10l-40 49l-56 -49q-11 -10 -27 -10h-150q-8 0 -8 6q0 5 6 11l103 112q14 15 31 15h220q18 0 27 -15l63 -112q2 -3 2 -8zM742 709q0 -5 -1 -9l-25 -147q-3 -18 -18 -18h-3q-93 10 -175 10q-85 0 -119.5 -25.5t-48.5 -105.5l-15 -87 q-6 -36 -6 -59q0 -26 5.5 -42.5t16.5 -23t19 -8.5t20 -2q20 0 33 3l32 180q4 20 24 20h187q16 0 16 -16v-4l-59 -335q-2 -12 -6 -15.5t-19 -6.5q-136 -28 -244 -28q-47 0 -90 12t-84.5 38.5t-66.5 78.5t-25 124q0 45 8 86l15 85q16 88 47.5 152.5t68 99.5t87 55.5t91.5 26 t94 5.5q123 0 223 -31q17 -8 18 -13z"/>
<glyph glyph-name="gcircumflex" horiz-adv-x="637" unicode="ĝ" d="M656 644q0 -9 -10 -9h-138q-14 0 -23 10l-40 49l-56 -49q-11 -10 -27 -10h-150q-8 0 -8 6q0 5 6 11l103 112q14 15 31 15h220q18 0 27 -15l63 -112q2 -3 2 -8zM444 413q-28 3 -51 3q-41 0 -55.5 -19.5t-21.5 -62.5l-8 -47q-3 -18 -3 -37q0 -22 10.5 -33.5t42.5 -11.5 q19 0 50 3zM416 600q154 0 232 -21q21 -5 28 -10t7 -13q0 -6 -1 -9l-95 -542q-19 -111 -95.5 -161t-219.5 -50q-116 0 -195 33q-15 6 -15 20q0 6 1 9l17 97q4 20 19 20h4q132 -12 198 -12q35 0 51 9t20 35l4 22q-28 -6 -62 -6q-116 0 -174.5 57.5t-58.5 152.5q0 24 5 56 l8 47q23 135 108 200.5t214 65.5z"/>
<glyph glyph-name="Gbreve" horiz-adv-x="673" unicode="Ğ" d="M508 899q48 0 71 33q8 11 11 12t7 1h126q13 0 13 -9q0 -11 -8 -25q-69 -124 -228 -124q-158 0 -208 124q-5 15 -5 21q0 13 14 13h125q14 0 20 -13q9 -18 22 -25.5t40 -7.5zM742 709q0 -5 -1 -9l-25 -147q-3 -18 -18 -18h-3q-93 10 -175 10q-85 0 -119.5 -25.5 t-48.5 -105.5l-15 -87q-6 -36 -6 -59q0 -26 5.5 -42.5t16.5 -23t19 -8.5t20 -2q20 0 33 3l32 180q4 20 24 20h187q16 0 16 -16v-4l-59 -335q-2 -12 -6 -15.5t-19 -6.5q-136 -28 -244 -28q-47 0 -90 12t-84.5 38.5t-66.5 78.5t-25 124q0 45 8 86l15 85q16 88 47.5 152.5 t68 99.5t87 55.5t91.5 26t94 5.5q123 0 223 -31q17 -8 18 -13z"/>
<glyph glyph-name="gbreve" horiz-adv-x="637" unicode="ğ" d="M443 743q48 0 71 33q8 11 11 12t7 1h126q13 0 13 -9q0 -11 -8 -25q-69 -124 -228 -124q-158 0 -208 124q-5 15 -5 21q0 13 14 13h125q13 0 20 -13q9 -18 22 -25.5t40 -7.5zM444 413q-28 3 -51 3q-41 0 -55.5 -19.5t-21.5 -62.5l-8 -47q-3 -18 -3 -37q0 -22 10.5 -33.5 t42.5 -11.5q19 0 50 3zM416 600q154 0 232 -21q21 -5 28 -10t7 -13q0 -6 -1 -9l-95 -542q-19 -111 -95.5 -161t-219.5 -50q-116 0 -195 33q-15 6 -15 20q0 6 1 9l17 97q4 20 19 20h4q132 -12 198 -12q35 0 51 9t20 35l4 22q-28 -6 -62 -6q-116 0 -174.5 57.5t-58.5 152.5 q0 24 5 56l8 47q23 135 108 200.5t214 65.5z"/>
<glyph glyph-name="Gdotaccent" horiz-adv-x="673" unicode="Ġ" d="M642 934v-3l-21 -116q-4 -20 -24 -20h-174q-18 0 -18 17v3l21 116q4 20 24 20h174q18 0 18 -17zM742 709q0 -5 -1 -9l-25 -147q-3 -18 -18 -18h-3q-93 10 -175 10q-85 0 -119.5 -25.5t-48.5 -105.5l-15 -87q-6 -36 -6 -59q0 -26 5.5 -42.5t16.5 -23t19 -8.5t20 -2 q20 0 33 3l32 180q4 20 24 20h187q16 0 16 -16v-4l-59 -335q-2 -12 -6 -15.5t-19 -6.5q-136 -28 -244 -28q-47 0 -90 12t-84.5 38.5t-66.5 78.5t-25 124q0 45 8 86l15 85q16 88 47.5 152.5t68 99.5t87 55.5t91.5 26t94 5.5q123 0 223 -31q17 -8 18 -13z"/>
<glyph glyph-name="gdotaccent" horiz-adv-x="637" unicode="ġ" d="M593 774v-3l-21 -116q-4 -20 -24 -20h-174q-18 0 -18 17v3l21 116q4 20 24 20h174q18 0 18 -17zM444 413q-28 3 -51 3q-41 0 -55.5 -19.5t-21.5 -62.5l-8 -47q-3 -18 -3 -37q0 -22 10.5 -33.5t42.5 -11.5q19 0 50 3zM416 600q154 0 232 -21q21 -5 28 -10t7 -13 q0 -6 -1 -9l-95 -542q-19 -111 -95.5 -161t-219.5 -50q-116 0 -195 33q-15 6 -15 20q0 6 1 9l17 97q4 20 19 20h4q132 -12 198 -12q35 0 51 9t20 35l4 22q-28 -6 -62 -6q-116 0 -174.5 57.5t-58.5 152.5q0 24 5 56l8 47q23 135 108 200.5t214 65.5z"/>
<glyph glyph-name="Gcommaaccent" horiz-adv-x="673" unicode="Ģ" d="M302 -45h146q11 0 11 -9q0 -4 -3 -10l-76 -108q-12 -20 -25 -20h-112q-13 0 -13 9q0 3 2 11l46 108q8 19 24 19zM742 709q0 -5 -1 -9l-25 -147q-3 -18 -18 -18h-3q-93 10 -175 10q-85 0 -119.5 -25.5t-48.5 -105.5l-15 -87q-6 -36 -6 -59q0 -26 5.5 -42.5t16.5 -23 t19 -8.5t20 -2q20 0 33 3l32 180q4 20 24 20h187q16 0 16 -16v-4l-59 -335q-2 -12 -6 -15.5t-19 -6.5q-136 -28 -244 -28q-47 0 -90 12t-84.5 38.5t-66.5 78.5t-25 124q0 45 8 86l15 85q16 88 47.5 152.5t68 99.5t87 55.5t91.5 26t94 5.5q123 0 223 -31q17 -8 18 -13z"/>
<glyph glyph-name="gcommaaccent" horiz-adv-x="637" unicode="ģ" d="M458 782h112q14 0 14 -9q0 -5 -3 -11l-46 -108q-9 -19 -24 -19h-146q-11 0 -11 9q0 4 3 10l76 108q12 20 25 20zM444 413q-28 3 -51 3q-41 0 -55.5 -19.5t-21.5 -62.5l-8 -47q-3 -18 -3 -37q0 -22 10.5 -33.5t42.5 -11.5q19 0 50 3zM416 600q154 0 232 -21q21 -5 28 -10 t7 -13q0 -6 -1 -9l-95 -542q-19 -111 -95.5 -161t-219.5 -50q-116 0 -195 33q-15 6 -15 20q0 6 1 9l17 97q4 20 19 20h4q132 -12 198 -12q35 0 51 9t20 35l4 22q-28 -6 -62 -6q-116 0 -174.5 57.5t-58.5 152.5q0 24 5 56l8 47q23 135 108 200.5t214 65.5z"/>
<glyph glyph-name="Hcircumflex" horiz-adv-x="753" unicode="Ĥ" d="M735 803q0 -9 -10 -9h-138q-14 0 -23 10l-40 49l-56 -49q-11 -10 -27 -10h-150q-8 0 -8 6q0 5 6 11l103 112q14 15 31 15h220q18 0 27 -15l63 -112q2 -3 2 -8zM825 727v-4l-123 -703q-4 -20 -24 -20h-195q-17 0 -17 17v3l44 255h-171l-44 -255q-4 -20 -24 -20h-195 q-17 0 -17 17v3l123 703q1 8 9 14t16 6h195q16 0 16 -16v-4l-43 -246h171l43 246q1 8 9 14t16 6h195q16 0 16 -16z"/>
<glyph glyph-name="hcircumflex" d="M694 803q0 -9 -10 -9h-138q-14 0 -23 10l-40 49l-56 -49q-11 -10 -27 -10h-150q-8 0 -8 6q0 5 6 11l103 112q14 15 31 15h220q18 0 27 -15l63 -112q2 -3 2 -8zM672 425q0 -33 -5 -59l-61 -344q-4 -22 -25 -22h-180q-19 0 -19 16q0 1 0.5 3t0.5 3l60 341q2 14 2 18 q0 18 -11 25t-36 7q-24 0 -53 -6l-68 -385q-1 -7 -3 -11t-7 -7.5t-14 -3.5h-180q-20 0 -20 16q0 1 0.5 3t0.5 3l130 737q4 20 23 20h183q18 0 18 -14q0 -1 -0.5 -3t-0.5 -3l-31 -177q77 18 118 18q87 0 132.5 -46.5t45.5 -128.5z" unicode="ĥ"/>
<glyph glyph-name="Hbar" horiz-adv-x="753" unicode="Ħ" d="M375 477h171l15 88h-171zM137 664h35l10 59q1 8 9 14t16 6h195q8 0 13 -6t3 -14l-10 -59h171l10 59q1 8 9 14t16 6h195q8 0 13 -6t3 -14l-10 -59h35q8 0 13 -6t3 -14l-10 -59q-4 -20 -24 -20h-35l-96 -545q-4 -20 -23 -20h-195q-8 0 -13.5 6t-4.5 14l45 255h-171 l-45 -255q-4 -20 -23 -20h-195q-22 0 -18 20l96 545h-35q-8 0 -13 6t-3 14l10 59q4 20 24 20z"/>
<glyph glyph-name="hbar" d="M144 734h35l4 25q1 7 3 10.5t7 6.5t14 3h180q22 0 18 -20l-4 -25h141q20 0 16 -20l-10 -59q-4 -20 -24 -20h-141l-13 -77q66 42 154 42q150 0 150 -152q0 -35 -8 -80l-61 -346q-4 -22 -24 -22h-180q-23 0 -19 22l58 328q4 22 4 30q0 37 -43 37q-28 0 -58 -15l-67 -380 q-4 -22 -23 -22h-180q-24 0 -20 22l108 613h-35q-20 0 -16 20l10 59q4 20 24 20z" unicode="ħ"/>
<glyph glyph-name="Itilde" horiz-adv-x="356" unicode="Ĩ" d="M554 943v-4l-6 -40q-9 -57 -46 -86t-95 -29q-50 0 -92 24l-36 20q-23 12 -35 12q-14 0 -16 -13l-3 -16q-3 -17 -21 -17h-96q-15 0 -15 13v4l5 33q9 60 47 91t91 31q55 0 97 -24l36 -20q25 -13 36 -13q12 0 15 14l3 16q3 17 21 17h95q15 0 15 -13zM423 727v-4l-123 -703 q-4 -20 -24 -20h-195q-17 0 -17 17v3l123 703q1 8 9 14t16 6h195q16 0 16 -16z"/>
<glyph glyph-name="itilde" horiz-adv-x="329" unicode="ĩ" d="M522 777v-4l-6 -40q-9 -57 -46 -86t-95 -29q-50 0 -92 24l-36 20q-23 12 -35 12q-14 0 -16 -13l-3 -16q-3 -17 -21 -17h-96q-15 0 -15 13v4l5 33q9 60 47 91t91 31q55 0 97 -24l36 -20q25 -13 36 -13q12 0 15 14l3 16q3 17 21 17h95q15 0 15 -13zM377 573v-4l-96 -547 q-1 -9 -9 -15.5t-17 -6.5h-179q-19 0 -19 19v3l96 547q1 9 9.5 15t17.5 6h179q18 0 18 -17z"/>
<glyph glyph-name="Imacron" horiz-adv-x="356" unicode="Ī" d="M535 921v-3l-19 -104q-4 -20 -23 -20h-354q-17 0 -17 17v3l19 104q4 20 23 20h354q17 0 17 -17zM423 727v-4l-123 -703q-4 -20 -24 -20h-195q-17 0 -17 17v3l123 703q1 8 9 14t16 6h195q16 0 16 -16z"/>
<glyph glyph-name="imacron" horiz-adv-x="329" unicode="ī" d="M489 762v-3l-19 -104q-4 -20 -23 -20h-354q-17 0 -17 17v3l19 104q4 20 23 20h354q17 0 17 -17zM377 573v-4l-96 -547q-1 -9 -9 -15.5t-17 -6.5h-179q-19 0 -19 19v3l96 547q1 9 9.5 15t17.5 6h179q18 0 18 -17z"/>
<glyph glyph-name="Ibreve" horiz-adv-x="356" unicode="Ĭ" d="M328 891q48 0 71 33q8 11 11 12t7 1h126q13 0 13 -9q0 -11 -8 -25q-69 -124 -228 -124q-158 0 -208 124q-5 15 -5 21q0 13 14 13h125q14 0 20 -13q9 -18 22 -25.5t40 -7.5zM423 727v-4l-123 -703q-4 -20 -24 -20h-195q-17 0 -17 17v3l123 703q1 8 9 14t16 6h195 q16 0 16 -16z"/>
<glyph glyph-name="ibreve" horiz-adv-x="329" unicode="ĭ" d="M285 740q48 0 71 33q8 11 11 12t7 1h126q13 0 13 -9q0 -11 -8 -25q-69 -124 -228 -124q-158 0 -208 124q-5 15 -5 21q0 13 14 13h125q13 0 20 -13q9 -18 22 -25.5t40 -7.5zM377 573v-4l-96 -547q-1 -9 -9 -15.5t-17 -6.5h-179q-19 0 -19 19v3l96 547q1 9 9.5 15t17.5 6 h179q18 0 18 -17z"/>
<glyph glyph-name="Iogonek" horiz-adv-x="356" unicode="Į" d="M299 20q-2 -13 -19 -20l-55 -21q-43 -17 -43 -46q0 -20 35 -20q15 0 40.5 3.5t29.5 3.5q7 0 8.5 -2t-0.5 -10l-13 -74q-1 -9 -13 -15q-50 -20 -137 -20q-137 0 -137 100q0 69 65 104l127 720q1 8 9 14t16 6h195q8 0 13 -6t3 -14z"/>
<glyph glyph-name="iogonek" horiz-adv-x="329" unicode="į" d="M416 761v-3l-18 -102q-1 -9 -9.5 -15t-17.5 -6h-189q-8 0 -13.5 5t-5.5 13v3l18 102q1 9 9 15t17 6h189q8 0 14 -5.5t6 -12.5zM280 22q-3 -18 -21 -24l-49 -19q-46 -17 -46 -43q0 -23 39 -23q22 0 56 6q14 2 17 2q9 0 9 -5l-3 -18l-11 -68q-3 -12 -14 -15 q-67 -16 -131 -16q-143 0 -143 100q0 63 70 104l100 566q1 9 9.5 15t17.5 6h179q9 0 14 -6t4 -15z"/>
<glyph glyph-name="Idotaccent" horiz-adv-x="356" unicode="İ" d="M449 927v-3l-21 -116q-4 -20 -24 -20h-174q-18 0 -18 17v3l21 116q4 20 24 20h174q18 0 18 -17zM423 727v-4l-123 -703q-4 -20 -24 -20h-195q-17 0 -17 17v3l123 703q1 8 9 14t16 6h195q16 0 16 -16z"/>
<glyph glyph-name="dotlessi" horiz-adv-x="329" unicode="ı" d="M377 573v-4l-96 -547q-1 -9 -9 -15.5t-17 -6.5h-179q-19 0 -19 19v3l96 547q1 9 9.5 15t17.5 6h179q18 0 18 -17z"/>
<glyph glyph-name="Jcircumflex" horiz-adv-x="356" unicode="Ĵ" d="M534 803q0 -9 -10 -9h-138q-14 0 -23 10l-40 49l-56 -49q-11 -10 -27 -10h-150q-8 0 -8 6q0 5 6 11l103 112q14 15 31 15h220q18 0 27 -15l63 -112q2 -3 2 -8zM423 727v-4l-126 -718q-38 -211 -227 -211q-72 0 -110 6q-17 3 -17 17v3l24 134q4 20 23 20h43q14 0 19.5 6 t8.5 25l126 718q1 8 9 14t16 6h195q16 0 16 -16z"/>
<glyph glyph-name="jcircumflex" horiz-adv-x="329" unicode="ĵ" d="M496 644q0 -9 -10 -9h-138q-14 0 -23 10l-40 49l-56 -49q-11 -10 -27 -10h-150q-8 0 -8 6q0 5 6 11l103 112q14 15 31 15h220q18 0 27 -15l63 -112q2 -3 2 -8zM377 573v-4l-102 -580q-19 -109 -74.5 -154t-140.5 -45q-44 0 -105 11q-17 3 -17 18v4l19 108q1 9 8.5 15 t16.5 6h42q20 0 27 37l102 580q1 9 9.5 15t17.5 6h179q18 0 18 -17z"/>
<glyph glyph-name="Kcommaaccent" horiz-adv-x="744" unicode="Ķ" d="M301 -44h146q11 0 11 -9q0 -4 -3 -10l-76 -108q-12 -20 -25 -20h-112q-13 0 -13 9q0 3 2 11l46 108q8 19 24 19zM849 734q0 -6 -4 -11l-258 -353l136 -350q1 -2 1 -6q0 -14 -15 -14h-236q-10 0 -16 20l-107 314l-55 -314q-4 -20 -24 -20h-195q-17 0 -17 17v3l123 703 q1 8 9 14t16 6h195q16 0 16 -16v-4l-56 -319l214 319q14 20 25 20h238q10 0 10 -9z"/>
<glyph glyph-name="kcommaaccent" horiz-adv-x="669" unicode="ķ" d="M270 -45h146q11 0 11 -9q0 -4 -3 -10l-76 -108q-12 -20 -25 -20h-112q-13 0 -13 9q0 3 2 11l46 108q8 19 24 19zM522 590h204q14 0 14 -13q0 -8 -5 -13l-206 -264l115 -274q2 -4 2 -8q0 -18 -20 -18h-204q-21 0 -28 22l-77 237l-41 -237q-4 -22 -24 -22h-179 q-20 0 -20 16q0 1 0.5 3t0.5 3l130 736q4 21 26 21h175q22 0 22 -15q0 -1 -0.5 -3t-0.5 -3l-72 -412l152 223q14 21 36 21z"/>
<glyph glyph-name="kgreenlandic" horiz-adv-x="669" unicode="ĸ" d="M726 590q13 0 13 -14q0 -8 -4 -12l-206 -264l115 -274q2 -6 2 -9q0 -17 -16 -17h-208q-21 0 -28 22l-77 237l-41 -237q-4 -22 -24 -22h-179q-22 0 -19 22l98 547q4 21 26 21h179q20 0 17 -21l-40 -223l152 223q14 21 36 21h204z"/>
<glyph glyph-name="Lacute" horiz-adv-x="520" unicode="Ĺ" d="M633 932q0 -4 -6 -9l-151 -119q-13 -10 -27 -10h-154q-8 0 -8 6q0 5 6 11l107 112q15 15 31 15h191q11 0 11 -6zM525 173v-1l-26 -151q-3 -16 -24 -20q-64 -11 -153 -11q-233 0 -233 176q0 32 5 58l88 499q1 8 9 14t16 6h195q16 0 16 -16v-3v-1l-88 -499q-1 -4 -1 -12 q0 -12 6.5 -16t22.5 -4h151q16 0 16 -16v-3z"/>
<glyph glyph-name="lacute" horiz-adv-x="324" unicode="ĺ" d="M535 932q0 -4 -6 -9l-151 -119q-13 -10 -27 -10h-154q-8 0 -8 6q0 5 6 11l107 112q15 15 31 15h191q11 0 11 -6zM390 779q19 0 19 -15q0 -1 -0.5 -3t-0.5 -3l-130 -736q-4 -22 -25 -22h-180q-20 0 -20 17q0 1 0.5 2.5t0.5 2.5l130 736q4 21 26 21h180z"/>
<glyph glyph-name="Lcommaaccent" horiz-adv-x="520" unicode="Ļ" d="M203 -45h146q11 0 11 -9q0 -4 -3 -10l-76 -108q-12 -20 -25 -20h-112q-13 0 -13 9q0 3 2 11l46 108q8 19 24 19zM525 173v-1l-26 -151q-3 -16 -24 -20q-64 -11 -153 -11q-233 0 -233 176q0 32 5 58l88 499q1 8 9 14t16 6h195q16 0 16 -16v-3v-1l-88 -499q-1 -4 -1 -12 q0 -12 6.5 -16t22.5 -4h151q16 0 16 -16v-3z"/>
<glyph glyph-name="lcommaaccent" horiz-adv-x="324" unicode="ļ" d="M78 -45h146q11 0 11 -9q0 -4 -3 -10l-76 -108q-12 -20 -25 -20h-112q-13 0 -13 9q0 3 2 11l46 108q8 19 24 19zM390 779q19 0 19 -15q0 -1 -0.5 -3t-0.5 -3l-130 -736q-4 -22 -25 -22h-180q-20 0 -20 17q0 1 0.5 2.5t0.5 2.5l130 736q4 21 26 21h180z"/>
<glyph glyph-name="Lcaron" horiz-adv-x="520" unicode="Ľ" d="M739 767l-4 -8l-140 -230q-10 -19 -22 -19h-109q-11 0 -11 9q0 5 3 10l105 230q8 19 24 19h144q10 0 10 -9v-2zM525 173v-1l-26 -151q-3 -16 -24 -20q-64 -11 -153 -11q-233 0 -233 176q0 32 5 58l88 499q1 8 9 14t16 6h195q16 0 16 -16v-3v-1l-88 -499q-1 -4 -1 -12 q0 -12 6.5 -16t22.5 -4h151q16 0 16 -16v-3z"/>
<glyph glyph-name="lcaron" horiz-adv-x="569" unicode="ľ" d="M713 768l-4 -8l-140 -230q-10 -19 -22 -19h-109q-11 0 -11 9q0 6 3 10l105 230q8 19 24 19h144q10 0 10 -9v-2zM408 762v-4l-130 -736q-4 -22 -25 -22h-180q-19 0 -19 19v3l130 736q4 21 26 21h180q18 0 18 -17z"/>
<glyph glyph-name="Ldot" horiz-adv-x="579" unicode="Ŀ" d="M646 471v-3l-21 -116q-4 -20 -24 -20h-174q-18 0 -18 17v3l21 116q4 20 24 20h174q18 0 18 -17zM525 173v-1l-26 -151q-3 -16 -24 -20q-64 -11 -153 -11q-233 0 -233 176q0 32 5 58l88 499q1 8 9 14t16 6h195q16 0 16 -16v-3v-1l-88 -499q-1 -4 -1 -12q0 -12 6.5 -16 t22.5 -4h151q16 0 16 -16v-3z"/>
<glyph glyph-name="ldot" horiz-adv-x="557" unicode="ŀ" d="M605 488q21 0 18 -20l-21 -116q-4 -20 -24 -20h-174q-19 0 -19 15q0 1 0.5 2.5t0.5 2.5l21 116q4 20 24 20h174zM390 779q10 0 15 -6t3 -15l-130 -736q-4 -22 -25 -22h-180q-20 0 -20 17q0 1 0.5 2.5t0.5 2.5l130 736q4 21 26 21h180z"/>
<glyph glyph-name="Lslash" horiz-adv-x="520" unicode="Ł" d="M525 176v-4l-26 -151q-3 -16 -24 -20q-64 -11 -153 -11q-234 0 -234 174q0 13 1 20l-35 -26q-4 -3 -7 -3q-7 0 -7 10v3l33 187q3 12 8 16l45 33l56 319q1 8 9 14t16 6h195q16 0 16 -16v-4l-20 -118l57 43q6 4 8 4q7 0 7 -11v-4l-34 -186q-1 -11 -11 -18l-66 -49l-29 -160 q-1 -5 -1 -12q0 -20 29 -20h151q16 0 16 -16z"/>
<glyph glyph-name="lslash" horiz-adv-x="324" unicode="ł" d="M448 641v-5l-33 -185q-1 -11 -11 -18l-62 -46l-64 -365q-4 -22 -25 -22h-180q-19 0 -19 19v3l31 174l-52 -38q-5 -3 -7 -3q-7 0 -7 11v3l33 186q3 12 8 16l64 47l60 340q4 21 26 21h180q18 0 18 -17v-4l-27 -149l53 39q4 3 8 3q6 0 6 -10z"/>
<glyph glyph-name="Nacute" horiz-adv-x="763" unicode="Ń" d="M755 932q0 -4 -6 -9l-151 -119q-13 -10 -27 -10h-154q-8 0 -8 6q0 5 6 11l107 112q15 15 31 15h191q11 0 11 -6zM830 727v-4l-121 -688q-2 -14 -14.5 -24.5t-26.5 -10.5h-171q-19 0 -28 22l-117 275q-3 8 -7 8h-1q-6 0 -7 -9l-48 -276q-1 -8 -9 -14t-16 -6h-183 q-17 0 -17 17v3l121 688q2 14 14.5 24.5t26.5 10.5h164q21 0 33 -28l119 -276q4 -9 9 -9q4 0 6 9l50 284q4 20 24 20h183q16 0 16 -16z"/>
<glyph glyph-name="nacute" d="M657 773q0 -5 -6 -9l-151 -119q-13 -10 -27 -10h-154q-8 0 -8 6q0 5 6 11l107 112q15 15 31 15h191q11 0 11 -6zM674 438q0 -30 -7 -70l-61 -346q-2 -11 -6.5 -16.5t-18.5 -5.5h-180q-19 0 -19 16q0 1 0.5 3t0.5 3l61 346q1 6 1 18q0 31 -43 31q-28 0 -58 -15l-67 -380 q-1 -8 -2.5 -11.5t-7 -7t-14.5 -3.5h-180q-20 0 -20 17q0 1 0.5 2.5t0.5 2.5l97 548q4 20 23 20h165q18 0 18 -14q0 -1 -0.5 -3t-0.5 -3l-5 -28q81 58 171 58q152 0 152 -162z" unicode="ń"/>
<glyph glyph-name="Ncommaaccent" horiz-adv-x="763" unicode="Ņ" d="M326 -44h146q11 0 11 -9q0 -4 -3 -10l-76 -108q-12 -20 -25 -20h-112q-13 0 -13 9q0 3 2 11l46 108q8 19 24 19zM830 727v-4l-121 -688q-2 -14 -14.5 -24.5t-26.5 -10.5h-171q-19 0 -28 22l-117 275q-3 8 -7 8h-1q-6 0 -7 -9l-48 -276q-1 -8 -9 -14t-16 -6h-183 q-17 0 -17 17v3l121 688q2 14 14.5 24.5t26.5 10.5h164q21 0 33 -28l119 -276q4 -9 9 -9q4 0 6 9l50 284q4 20 24 20h183q16 0 16 -16z"/>
<glyph glyph-name="ncommaaccent" d="M257 -44h146q11 0 11 -9q0 -4 -3 -10l-76 -108q-12 -20 -25 -20h-112q-13 0 -13 9q0 3 2 11l46 108q8 19 24 19zM674 438q0 -30 -7 -70l-61 -346q-2 -11 -6.5 -16.5t-18.5 -5.5h-180q-19 0 -19 16q0 1 0.5 3t0.5 3l61 346q1 6 1 18q0 31 -43 31q-28 0 -58 -15l-67 -380 q-1 -8 -2.5 -11.5t-7 -7t-14.5 -3.5h-180q-20 0 -20 17q0 1 0.5 2.5t0.5 2.5l97 548q4 20 23 20h165q18 0 18 -14q0 -1 -0.5 -3t-0.5 -3l-5 -28q81 58 171 58q152 0 152 -162z" unicode="ņ"/>
<glyph glyph-name="Ncaron" horiz-adv-x="763" unicode="Ň" d="M779 932q0 -5 -6 -11l-108 -112q-15 -15 -32 -15h-220q-11 0 -15.5 3t-10.5 12l-70 112q-3 5 -3 8q0 9 11 9h150q15 0 24 -10l40 -45l56 45q13 10 26 10h150q8 0 8 -6zM830 727v-4l-121 -688q-2 -14 -14.5 -24.5t-26.5 -10.5h-171q-19 0 -28 22l-117 275q-3 8 -7 8h-1 q-6 0 -7 -9l-48 -276q-1 -8 -9 -14t-16 -6h-183q-17 0 -17 17v3l121 688q2 14 14.5 24.5t26.5 10.5h164q21 0 33 -28l119 -276q4 -9 9 -9q4 0 6 9l50 284q4 20 24 20h183q16 0 16 -16z"/>
<glyph glyph-name="ncaron" d="M687 773q0 -5 -6 -11l-108 -112q-15 -15 -32 -15h-220q-11 0 -15.5 3t-10.5 12l-70 112q-3 4 -3 8q0 9 11 9h150q15 0 24 -10l40 -45l56 45q13 10 26 10h150q8 0 8 -6zM674 438q0 -30 -7 -70l-61 -346q-2 -11 -6.5 -16.5t-18.5 -5.5h-180q-19 0 -19 16q0 1 0.5 3t0.5 3 l61 346q1 6 1 18q0 31 -43 31q-28 0 -58 -15l-67 -380q-1 -8 -2.5 -11.5t-7 -7t-14.5 -3.5h-180q-20 0 -20 17q0 1 0.5 2.5t0.5 2.5l97 548q4 20 23 20h165q18 0 18 -14q0 -1 -0.5 -3t-0.5 -3l-5 -28q81 58 171 58q152 0 152 -162z" unicode="ň"/>
<glyph glyph-name="Eng" horiz-adv-x="763" unicode="Ŋ" d="M814 743q17 0 17 -14q0 -1 -0.5 -3t-0.5 -3l-126 -718q-38 -211 -227 -211q-72 0 -110 6q-17 3 -17 17v3l24 134q4 20 23 20h43q14 0 19.5 6t8.5 25l2 14l-118 278q-3 8 -8 8q-6 0 -7 -9l-48 -276q-1 -8 -9 -14t-16 -6h-183q-17 0 -17 17v3l121 688q2 14 14.5 24.5 t26.5 10.5h164q21 0 33 -28l119 -276q4 -9 9 -9q4 0 6 9l50 284q4 20 24 20h183z"/>
<glyph glyph-name="eng" d="M674 438q0 -30 -7 -70l-67 -379q-19 -109 -74.5 -154t-140.5 -45q-44 0 -105 11q-20 3 -17 22l19 108q4 21 25 21h42q21 0 28 37l67 379q2 12 2 15q0 34 -44 34q-28 0 -58 -15l-67 -380q-4 -22 -24 -22h-180q-19 0 -19 19v3l97 548q4 20 23 20h165q17 0 17 -17v-3l-5 -28 q44 32 79 45t92 13q82 0 117 -45t35 -117z" unicode="ŋ"/>
<glyph glyph-name="Omacron" horiz-adv-x="716" unicode="Ō" d="M712 921v-3l-19 -104q-4 -20 -23 -20h-354q-17 0 -17 17v3l19 104q4 20 23 20h354q17 0 17 -17zM516 474q0 38 -15 54.5t-47 16.5q-42 0 -66 -30t-36 -100l-15 -87q-6 -34 -6 -59q0 -38 15 -54.5t47 -16.5q43 0 66.5 30t35.5 100l15 87q6 35 6 59zM757 499q0 -36 -8 -84 l-15 -87q-58 -338 -378 -338q-117 0 -191.5 63.5t-74.5 191.5q0 35 8 83l15 87q59 338 378 338q117 0 191.5 -63t74.5 -191z"/>
<glyph glyph-name="omacron" horiz-adv-x="620" unicode="ō" d="M640 762v-3l-19 -104q-4 -20 -23 -20h-354q-17 0 -17 17v3l19 104q4 20 23 20h354q17 0 17 -17zM424 365q0 51 -41 51q-53 0 -70 -98l-8 -46q-5 -32 -5 -47q0 -51 41 -51q27 0 43.5 21t26.5 77l8 46q5 32 5 47zM648 389q0 -27 -7 -71l-8 -46q-27 -152 -108 -217t-217 -65 q-112 0 -171.5 56.5t-59.5 157.5q0 32 6 68l8 46q26 150 108 216t217 66q111 0 171.5 -54.5t60.5 -156.5z"/>
<glyph glyph-name="Obreve" horiz-adv-x="716" unicode="Ŏ" d="M508 900q48 0 71 33q8 11 11 12t7 1h126q13 0 13 -9q0 -11 -8 -25q-69 -124 -228 -124q-158 0 -208 124q-5 15 -5 21q0 13 14 13h125q14 0 20 -13q9 -18 22 -25.5t40 -7.5zM516 474q0 38 -15 54.5t-47 16.5q-42 0 -66 -30t-36 -100l-15 -87q-6 -34 -6 -59q0 -38 15 -54.5 t47 -16.5q43 0 66.5 30t35.5 100l15 87q6 35 6 59zM757 499q0 -36 -8 -84l-15 -87q-58 -338 -378 -338q-117 0 -191.5 63.5t-74.5 191.5q0 35 8 83l15 87q59 338 378 338q117 0 191.5 -63t74.5 -191z"/>
<glyph glyph-name="obreve" horiz-adv-x="620" unicode="ŏ" d="M435 739q48 0 71 33q8 11 11 12t7 1h126q13 0 13 -9q0 -11 -8 -25q-69 -124 -228 -124q-158 0 -208 124q-5 15 -5 21q0 13 14 13h125q13 0 20 -13q9 -18 22 -25.5t40 -7.5zM424 365q0 51 -41 51q-53 0 -70 -98l-8 -46q-5 -32 -5 -47q0 -51 41 -51q27 0 43.5 21t26.5 77 l8 46q5 32 5 47zM648 389q0 -27 -7 -71l-8 -46q-27 -152 -108 -217t-217 -65q-112 0 -171.5 56.5t-59.5 157.5q0 32 6 68l8 46q26 150 108 216t217 66q111 0 171.5 -54.5t60.5 -156.5z"/>
<glyph glyph-name="Ohungarumlaut" horiz-adv-x="716" unicode="Ő" d="M589 932q0 -4 -6 -9l-151 -119q-13 -10 -27 -10h-150q-8 0 -8 6q0 5 6 11l109 112q15 15 31 15h185q11 0 11 -6zM869 932q0 -4 -6 -9l-151 -119q-13 -10 -27 -10h-150q-8 0 -8 6q0 5 6 11l109 112q15 15 31 15h185q11 0 11 -6zM516 474q0 38 -15 54.5t-47 16.5 q-42 0 -66 -30t-36 -100l-15 -87q-6 -34 -6 -59q0 -38 15 -54.5t47 -16.5q43 0 66.5 30t35.5 100l15 87q6 35 6 59zM757 499q0 -36 -8 -84l-15 -87q-58 -338 -378 -338q-117 0 -191.5 63.5t-74.5 191.5q0 35 8 83l15 87q59 338 378 338q117 0 191.5 -63t74.5 -191z"/>
<glyph glyph-name="ohungarumlaut" horiz-adv-x="620" unicode="ő" d="M541 773q0 -5 -6 -9l-151 -119q-13 -10 -27 -10h-150q-8 0 -8 6q0 5 6 11l109 112q15 15 31 15h185q11 0 11 -6zM821 773q0 -5 -6 -9l-151 -119q-13 -10 -27 -10h-150q-8 0 -8 6q0 5 6 11l109 112q15 15 31 15h185q11 0 11 -6zM424 365q0 51 -41 51q-53 0 -70 -98l-8 -46 q-5 -32 -5 -47q0 -51 41 -51q27 0 43.5 21t26.5 77l8 46q5 32 5 47zM648 389q0 -27 -7 -71l-8 -46q-27 -152 -108 -217t-217 -65q-112 0 -171.5 56.5t-59.5 157.5q0 32 6 68l8 46q26 150 108 216t217 66q111 0 171.5 -54.5t60.5 -156.5z"/>
<glyph glyph-name="OE" horiz-adv-x="980" unicode="Œ" d="M516 474q0 38 -15 54.5t-47 16.5q-42 0 -66 -30t-36 -100l-15 -87q-6 -34 -6 -59q0 -38 15 -54.5t47 -16.5q43 0 66.5 30t35.5 100l15 87q6 35 6 59zM1057 726v-4l-26 -151q-4 -20 -24 -20h-201q-19 0 -26.5 -6.5t-11.5 -25.5l-10 -54h234q16 0 16 -16v-4l-24 -141 q-4 -20 -24 -20h-234l-11 -60q-1 -4 -1 -12q0 -20 29 -20h201q16 0 16 -16v-4l-26 -151q-3 -18 -24 -20q-92 -11 -203 -11q-116 0 -172 39q-79 -39 -179 -39q-119 0 -193 59t-74 188q0 41 9 91l15 87q13 74 40.5 132.5t63.5 96.5t82 63t93 35.5t99 10.5q99 0 165 -39 q69 39 186 39q109 0 199 -11q16 -2 16 -16z"/>
<glyph glyph-name="oe" horiz-adv-x="944" unicode="œ" d="M424 365q0 51 -41 51q-27 0 -43.5 -21t-26.5 -77l-8 -46q-5 -32 -5 -47q0 -51 41 -51q27 0 43.5 21t26.5 77l8 46q5 32 5 47zM763 381q0 51 -46 51q-56 0 -70 -83h113q3 16 3 32zM971 387q0 -33 -6 -68l-11 -61q-4 -21 -25 -21h-302q-2 -16 -2 -22q0 -24 17 -33t60 -9 q105 0 189 7h4q16 0 16 -13l-1 -2v-3l-19 -105q-2 -13 -7 -18.5t-17 -10.5q-99 -38 -236 -38q-91 0 -149 50q-80 -50 -174 -50q-110 0 -170.5 56.5t-60.5 158.5q0 33 6 67l8 46q27 151 108.5 216.5t216.5 65.5q88 0 154 -53q64 53 179 53q112 0 167 -58.5t55 -154.5z"/>
<glyph glyph-name="Racute" horiz-adv-x="731" unicode="Ŕ" d="M739 932q0 -4 -6 -9l-151 -119q-13 -10 -27 -10h-154q-8 0 -8 6q0 5 6 11l107 112q15 15 31 15h191q11 0 11 -6zM525 516q0 40 -61 40h-75l-22 -126h75q35 0 54.5 15t23.5 38l4 20q1 5 1 13zM765 559q0 -27 -6 -55l-4 -20q-30 -145 -149 -194l92 -261q1 -3 1 -8 q0 -9 -7 -15t-14 -6h-210q-10 0 -16 20l-78 235h-38l-41 -235q-4 -20 -24 -20h-195q-17 0 -17 17v3l112 636q8 45 25 61.5t60 23.5q84 12 221 12q138 0 213 -49.5t75 -144.5z"/>
<glyph glyph-name="racute" horiz-adv-x="439" unicode="ŕ" d="M577 773q0 -5 -6 -9l-151 -119q-13 -10 -27 -10h-154q-8 0 -8 6q0 5 6 11l107 112q15 15 31 15h191q11 0 11 -6zM487 600h7q22 0 22 -14q0 -1 -0.5 -3t-0.5 -3l-25 -141q-4 -20 -23 -20h-7q-82 0 -116 -17l-67 -380q-4 -22 -24 -22h-180q-20 0 -20 16q0 1 0.5 3t0.5 3 l97 548q4 20 23 20h158q18 0 18 -14q0 -1 -0.5 -3t-0.5 -3l-6 -29q50 59 144 59z"/>
<glyph glyph-name="Rcommaaccent" horiz-adv-x="731" unicode="Ŗ" d="M303 -45h146q11 0 11 -9q0 -4 -3 -10l-76 -108q-12 -20 -25 -20h-112q-13 0 -13 9q0 3 2 11l46 108q8 19 24 19zM525 516q0 40 -61 40h-75l-22 -126h75q35 0 54.5 15t23.5 38l4 20q1 5 1 13zM765 559q0 -27 -6 -55l-4 -20q-30 -145 -149 -194l92 -261q1 -3 1 -8 q0 -9 -7 -15t-14 -6h-210q-10 0 -16 20l-78 235h-38l-41 -235q-4 -20 -24 -20h-195q-17 0 -17 17v3l112 636q8 45 25 61.5t60 23.5q84 12 221 12q138 0 213 -49.5t75 -144.5z"/>
<glyph glyph-name="rcommaaccent" horiz-adv-x="439" unicode="ŗ" d="M185 -44h146q11 0 11 -9q0 -4 -3 -10l-76 -108q-12 -20 -25 -20h-112q-13 0 -13 9q0 3 2 11l46 108q8 19 24 19zM487 600h7q22 0 22 -14q0 -1 -0.5 -3t-0.5 -3l-25 -141q-4 -20 -23 -20h-7q-82 0 -116 -17l-67 -380q-4 -22 -24 -22h-180q-20 0 -20 16q0 1 0.5 3t0.5 3 l97 548q4 20 23 20h158q18 0 18 -14q0 -1 -0.5 -3t-0.5 -3l-6 -29q50 59 144 59z"/>
<glyph glyph-name="Rcaron" horiz-adv-x="731" unicode="Ř" d="M748 932q0 -5 -6 -11l-108 -112q-15 -15 -32 -15h-220q-11 0 -15.5 3t-10.5 12l-70 112q-3 5 -3 8q0 9 11 9h150q15 0 24 -10l40 -45l56 45q13 10 26 10h150q8 0 8 -6zM525 516q0 40 -61 40h-75l-22 -126h75q35 0 54.5 15t23.5 38l4 20q1 5 1 13zM765 559q0 -27 -6 -55 l-4 -20q-30 -145 -149 -194l92 -261q1 -3 1 -8q0 -9 -7 -15t-14 -6h-210q-10 0 -16 20l-78 235h-38l-41 -235q-4 -20 -24 -20h-195q-17 0 -17 17v3l112 636q8 45 25 61.5t60 23.5q84 12 221 12q138 0 213 -49.5t75 -144.5z"/>
<glyph glyph-name="rcaron" horiz-adv-x="439" unicode="ř" d="M594 773q0 -5 -6 -11l-108 -112q-15 -15 -32 -15h-220q-11 0 -15.5 3t-10.5 12l-70 112q-3 4 -3 8q0 9 11 9h150q15 0 24 -10l40 -45l56 45q13 10 26 10h150q8 0 8 -6zM487 600h7q22 0 22 -14q0 -1 -0.5 -3t-0.5 -3l-25 -141q-4 -20 -23 -20h-7q-82 0 -116 -17l-67 -380 q-4 -22 -24 -22h-180q-20 0 -20 16q0 1 0.5 3t0.5 3l97 548q4 20 23 20h158q18 0 18 -14q0 -1 -0.5 -3t-0.5 -3l-6 -29q50 59 144 59z"/>
<glyph glyph-name="Sacute" horiz-adv-x="624" unicode="Ś" d="M685 932q0 -4 -6 -9l-151 -119q-13 -10 -27 -10h-154q-8 0 -8 6q0 5 6 11l107 112q15 15 31 15h191q11 0 11 -6zM690 706v-1l-26 -149q-4 -20 -21 -20h-2q-156 15 -241 15q-24 0 -24 -19q0 -11 32 -29l128 -75q96 -57 96 -162q0 -70 -28 -124t-76.5 -86.5t-107.5 -49 t-126 -16.5q-115 0 -209 30q-18 7 -18 17v3l26 149q4 20 23 20h2q174 -17 212 -17q42 0 42 35q0 13 -22 27l-135 87q-87 57 -87 167q0 67 24 116t68 76.5t97 40t119 12.5q63 0 134.5 -8.5t103.5 -19.5q16 -5 16 -17v-2z"/>
<glyph glyph-name="sacute" horiz-adv-x="540" unicode="ś" d="M603 773q0 -5 -6 -9l-151 -119q-13 -10 -27 -10h-154q-8 0 -8 6q0 5 6 11l107 112q15 15 31 15h191q11 0 11 -6zM567 573q17 -4 17 -16v-5l-23 -130q-4 -22 -17 -22q-4 0 -7 1q-108 18 -175 18q-23 0 -23 -11q0 -10 22 -22l79 -42q61 -32 80.5 -68.5t19.5 -84.5 q0 -104 -78 -152.5t-215 -48.5q-108 0 -182 26q-18 7 -15 22l22 125q5 24 23 24q1 0 3 -0.5t4 -0.5q123 -19 170 -19q39 0 39 23q0 9 -19 20l-89 49q-89 50 -89 142q0 199 267 199q91 0 186 -27z"/>
<glyph glyph-name="Scircumflex" horiz-adv-x="624" unicode="Ŝ" d="M657 803q0 -9 -10 -9h-138q-14 0 -23 10l-40 49l-56 -49q-11 -10 -27 -10h-150q-8 0 -8 6q0 5 6 11l103 112q14 15 31 15h220q18 0 27 -15l63 -112q2 -3 2 -8zM690 706v-1l-26 -149q-4 -20 -21 -20h-2q-156 15 -241 15q-24 0 -24 -19q0 -11 32 -29l128 -75 q96 -57 96 -162q0 -70 -28 -124t-76.5 -86.5t-107.5 -49t-126 -16.5q-115 0 -209 30q-18 7 -18 17v3l26 149q4 20 23 20h2q174 -17 212 -17q42 0 42 35q0 13 -22 27l-135 87q-87 57 -87 167q0 67 24 116t68 76.5t97 40t119 12.5q63 0 134.5 -8.5t103.5 -19.5q16 -5 16 -17 v-2z"/>
<glyph glyph-name="scircumflex" horiz-adv-x="540" unicode="ŝ" d="M586 644q0 -9 -10 -9h-138q-14 0 -23 10l-40 49l-56 -49q-11 -10 -27 -10h-150q-8 0 -8 6q0 5 6 11l103 112q14 15 31 15h220q18 0 27 -15l63 -112q2 -3 2 -8zM567 573q17 -4 17 -16v-5l-23 -130q-4 -22 -17 -22q-4 0 -7 1q-108 18 -175 18q-23 0 -23 -11q0 -10 22 -22 l79 -42q61 -32 80.5 -68.5t19.5 -84.5q0 -104 -78 -152.5t-215 -48.5q-108 0 -182 26q-18 7 -15 22l22 125q5 24 23 24q1 0 3 -0.5t4 -0.5q123 -19 170 -19q39 0 39 23q0 9 -19 20l-89 49q-89 50 -89 142q0 199 267 199q91 0 186 -27z"/>
<glyph glyph-name="Scedilla" horiz-adv-x="624" unicode="Ş" d="M434 -65q0 -5 -6 -9l-151 -119q-13 -10 -27 -10h-150q-8 0 -8 6q0 5 6 11l109 112q15 15 31 15h185q11 0 11 -6zM690 706v-1l-26 -149q-4 -20 -21 -20h-2q-156 15 -241 15q-24 0 -24 -19q0 -11 32 -29l128 -75q96 -57 96 -162q0 -70 -28 -124t-76.5 -86.5t-107.5 -49 t-126 -16.5q-115 0 -209 30q-18 7 -18 17v3l26 149q4 20 23 20h2q174 -17 212 -17q42 0 42 35q0 13 -22 27l-135 87q-87 57 -87 167q0 67 24 116t68 76.5t97 40t119 12.5q63 0 134.5 -8.5t103.5 -19.5q16 -5 16 -17v-2z"/>
<glyph glyph-name="scedilla" horiz-adv-x="540" unicode="ş" d="M388 -65q0 -5 -6 -9l-151 -119q-13 -10 -27 -10h-150q-8 0 -8 6q0 5 6 11l109 112q15 15 31 15h185q11 0 11 -6zM567 573q17 -4 17 -16v-5l-23 -130q-4 -22 -17 -22q-4 0 -7 1q-108 18 -175 18q-23 0 -23 -11q0 -10 22 -22l79 -42q61 -32 80.5 -68.5t19.5 -84.5 q0 -104 -78 -152.5t-215 -48.5q-108 0 -182 26q-18 7 -15 22l22 125q5 24 23 24q1 0 3 -0.5t4 -0.5q123 -19 170 -19q39 0 39 23q0 9 -19 20l-89 49q-89 50 -89 142q0 199 267 199q91 0 186 -27z"/>
<glyph glyph-name="Scaron" horiz-adv-x="624" unicode="Š" d="M694 932q0 -5 -6 -11l-108 -112q-15 -15 -32 -15h-220q-11 0 -15.5 3t-10.5 12l-70 112q-3 5 -3 8q0 9 11 9h150q15 0 24 -10l40 -45l56 45q13 10 26 10h150q8 0 8 -6zM690 706v-1l-26 -149q-4 -20 -21 -20h-2q-156 15 -241 15q-24 0 -24 -19q0 -11 32 -29l128 -75 q96 -57 96 -162q0 -70 -28 -124t-76.5 -86.5t-107.5 -49t-126 -16.5q-115 0 -209 30q-18 7 -18 17v3l26 149q4 20 23 20h2q174 -17 212 -17q42 0 42 35q0 13 -22 27l-135 87q-87 57 -87 167q0 67 24 116t68 76.5t97 40t119 12.5q63 0 134.5 -8.5t103.5 -19.5q16 -5 16 -17 v-2z"/>
<glyph glyph-name="scaron" horiz-adv-x="540" unicode="š" d="M639 773q0 -5 -6 -11l-108 -112q-15 -15 -32 -15h-220q-11 0 -15.5 3t-10.5 12l-70 112q-3 4 -3 8q0 9 11 9h150q15 0 24 -10l40 -45l56 45q13 10 26 10h150q8 0 8 -6zM584 555v-3l-23 -130q-3 -21 -21 -21h-2h-1q-104 18 -175 18q-23 0 -23 -14q0 -7 10 -12l101 -54 q43 -23 63.5 -60.5t20.5 -76.5q0 -59 -25 -102t-68 -66t-91 -33.5t-103 -10.5q-106 0 -182 26q-15 5 -15 18v4l22 125q4 23 25 23h3h2q133 -19 170 -19q39 0 39 23q0 9 -19 20l-104 58q-33 18 -53.5 53t-20.5 80q0 199 267 199q91 0 186 -27q17 -6 17 -18z"/>
<glyph glyph-name="uni0162" horiz-adv-x="602" unicode="Ţ" d="M224 -44h146q11 0 11 -9q0 -4 -3 -10l-76 -108q-12 -20 -25 -20h-112q-13 0 -13 9q0 3 2 11l46 108q8 19 24 19zM704 726v-3l-26 -152q-1 -8 -9 -14t-16 -6h-136l-93 -531q-4 -20 -24 -20h-195q-16 0 -16 16v4l93 531h-140q-16 0 -16 16v4l26 152q4 20 24 20h511 q17 0 17 -17z"/>
<glyph glyph-name="uni0163" horiz-adv-x="440" unicode="ţ" d="M184 -45h146q11 0 11 -9q0 -4 -3 -10l-76 -108q-12 -20 -25 -20h-112q-13 0 -13 9q0 3 2 11l46 108q8 19 24 19zM426 590h68q22 0 22 -14q0 -1 -0.5 -3t-0.5 -4l-21 -121q-4 -22 -25 -22h-72l-43 -245q-2 -12 -2 -15q0 -14 18 -14h48q18 0 18 -13q0 -5 -1 -8l-19 -109 q-3 -19 -25 -22q-60 -10 -108 -10q-29 0 -54.5 6.5t-49.5 22t-38.5 45.5t-14.5 71q0 20 5 50l42 241l-55 10q-19 4 -19 17q0 1 0.5 2.5t0.5 2.5l19 111q3 21 26 21h57l14 82q3 18 26 21l186 31h3q19 0 15 -21z"/>
<glyph glyph-name="Tcaron" horiz-adv-x="602" unicode="Ť" d="M699 932q0 -5 -6 -11l-108 -112q-15 -15 -32 -15h-220q-11 0 -15.5 3t-10.5 12l-70 112q-3 5 -3 8q0 9 11 9h150q15 0 24 -10l40 -45l56 45q13 10 26 10h150q8 0 8 -6zM704 726v-3l-26 -152q-1 -8 -9 -14t-16 -6h-136l-93 -531q-4 -20 -24 -20h-195q-16 0 -16 16v4 l93 531h-140q-16 0 -16 16v4l26 152q4 20 24 20h511q17 0 17 -17z"/>
<glyph glyph-name="tcaron" horiz-adv-x="672" unicode="ť" d="M829 768l-4 -8l-140 -230q-10 -19 -22 -19h-109q-11 0 -11 9q0 6 3 10l105 230q8 19 24 19h144q10 0 10 -9v-2zM515 573v-4l-21 -121q-4 -22 -25 -22h-72l-43 -245q-2 -12 -2 -15q0 -14 18 -14h48q17 0 17 -17v-4l-19 -109q-3 -18 -25 -22q-60 -10 -108 -10 q-29 0 -54.5 6.5t-49.5 22t-38.5 45.5t-14.5 71q0 20 5 50l42 241l-55 10q-18 4 -18 19v3l19 111q1 9 9 15t17 6h57l14 82q3 17 26 21l186 31h3q15 0 15 -17v-4l-20 -113h72q17 0 17 -17z"/>
<glyph glyph-name="Tbar" horiz-adv-x="602" unicode="Ŧ" d="M607 294h-136l-48 -274q-4 -20 -23 -20h-195q-8 0 -13 6t-4 14l48 274h-140q-8 0 -13 6t-3 14l27 152q4 20 23 20h140l12 65h-140q-8 0 -13 6t-4 14l27 152q4 20 24 20h511q8 0 13 -6t4 -14l-27 -152q-4 -20 -24 -20h-136l-12 -65h136q8 0 13.5 -6t4.5 -14l-27 -152 q-1 -8 -9 -14t-16 -6z"/>
<glyph glyph-name="tbar" horiz-adv-x="429" unicode="ŧ" d="M488 448q-4 -22 -24 -22h-72l-8 -41h72q9 0 14 -6t4 -15l-22 -121q-4 -22 -25 -22h-72l-7 -40q-1 -6 -1 -14q0 -15 17 -15h48q9 0 14 -6t4 -15l-20 -109q-3 -19 -24 -22q-60 -10 -108 -10q-74 0 -116.5 30.5t-42.5 105.5q0 26 6 59l6 36l-55 10q-21 4 -18 22l20 111 q4 21 25 21h57l8 41l-56 10q-21 4 -18 22l20 111q4 21 26 21h57l14 82q3 17 26 21l185 31h3q7 0 12 -6.5t3 -14.5l-19 -113h72q9 0 14 -6t3 -15z"/>
<glyph glyph-name="Utilde" horiz-adv-x="752" unicode="Ũ" d="M759 943v-4l-6 -40q-9 -57 -46 -86t-95 -29q-50 0 -92 24l-36 20q-23 12 -35 12q-14 0 -16 -13l-3 -16q-3 -17 -21 -17h-96q-15 0 -15 13v4l5 33q9 60 47 91t91 31q55 0 97 -24l36 -20q25 -13 36 -13q12 0 15 14l3 16q3 17 21 17h95q15 0 15 -13zM819 726v-3l-77 -437 q-29 -168 -116 -232t-249 -64q-53 0 -99.5 13t-86 39.5t-62.5 74t-23 110.5q0 33 6 70l75 426q1 8 9 14t16 6h195q16 0 16 -17v-3l-77 -437q-4 -19 -4 -37q0 -33 16.5 -46t51.5 -13q42 0 64 20t32 76l77 437q4 20 24 20h195q7 0 12 -5t5 -12z"/>
<glyph glyph-name="utilde" d="M676 784v-4l-6 -40q-9 -57 -46 -86t-95 -29q-50 0 -92 24l-36 20q-23 12 -35 12q-14 0 -16 -13l-3 -16q-3 -17 -21 -17h-96q-15 0 -15 13v4l5 33q9 60 47 91t91 31q55 0 97 -24l36 -20q25 -13 36 -13q12 0 15 14l3 16q3 17 21 17h95q15 0 15 -13zM683 590q20 0 20 -16 q0 -1 -0.5 -3t-0.5 -3l-97 -548q-4 -20 -23 -20h-165q-18 0 -18 14q0 1 0.5 3t0.5 3l5 28q-29 -20 -47 -30.5t-49.5 -19t-69.5 -8.5q-80 0 -118 48t-38 123q0 31 6 61l61 346q4 22 25 22h180q19 0 19 -16q0 -1 -0.5 -3t-0.5 -3l-58 -330q-4 -22 -4 -30q0 -35 43 -35 q28 0 58 15l67 380q4 22 24 22h180z" unicode="ũ"/>
<glyph glyph-name="Umacron" horiz-adv-x="752" unicode="Ū" d="M740 921v-3l-19 -104q-4 -20 -23 -20h-354q-17 0 -17 17v3l19 104q4 20 23 20h354q17 0 17 -17zM819 726v-3l-77 -437q-29 -168 -116 -232t-249 -64q-53 0 -99.5 13t-86 39.5t-62.5 74t-23 110.5q0 33 6 70l75 426q1 8 9 14t16 6h195q16 0 16 -17v-3l-77 -437 q-4 -19 -4 -37q0 -33 16.5 -46t51.5 -13q42 0 64 20t32 76l77 437q4 20 24 20h195q7 0 12 -5t5 -12z"/>
<glyph glyph-name="umacron" d="M654 762v-3l-19 -104q-4 -20 -23 -20h-354q-17 0 -17 17v3l19 104q4 20 23 20h354q17 0 17 -17zM683 590q20 0 20 -16q0 -1 -0.5 -3t-0.5 -3l-97 -548q-4 -20 -23 -20h-165q-18 0 -18 14q0 1 0.5 3t0.5 3l5 28q-29 -20 -47 -30.5t-49.5 -19t-69.5 -8.5q-80 0 -118 48 t-38 123q0 31 6 61l61 346q4 22 25 22h180q19 0 19 -16q0 -1 -0.5 -3t-0.5 -3l-58 -330q-4 -22 -4 -30q0 -35 43 -35q28 0 58 15l67 380q4 22 24 22h180z" unicode="ū"/>
<glyph glyph-name="Ubreve" horiz-adv-x="752" unicode="Ŭ" d="M529 899q48 0 71 33q8 11 11 12t7 1h126q13 0 13 -9q0 -11 -8 -25q-69 -124 -228 -124q-158 0 -208 124q-5 15 -5 21q0 13 14 13h125q13 0 20 -13q9 -18 22 -25.5t40 -7.5zM819 726v-3l-77 -437q-29 -168 -116 -232t-249 -64q-53 0 -99.5 13t-86 39.5t-62.5 74t-23 110.5 q0 33 6 70l75 426q1 8 9 14t16 6h195q16 0 16 -17v-3l-77 -437q-4 -19 -4 -37q0 -33 16.5 -46t51.5 -13q42 0 64 20t32 76l77 437q4 20 24 20h195q7 0 12 -5t5 -12z"/>
<glyph glyph-name="ubreve" d="M445 740q48 0 71 33q8 11 11 12t7 1h126q13 0 13 -9q0 -11 -8 -25q-69 -124 -228 -124q-158 0 -208 124q-5 15 -5 21q0 13 14 13h125q13 0 20 -13q9 -18 22 -25.5t40 -7.5zM683 590q20 0 20 -16q0 -1 -0.5 -3t-0.5 -3l-97 -548q-4 -20 -23 -20h-165q-18 0 -18 14 q0 1 0.5 3t0.5 3l5 28q-29 -20 -47 -30.5t-49.5 -19t-69.5 -8.5q-80 0 -118 48t-38 123q0 31 6 61l61 346q4 22 25 22h180q19 0 19 -16q0 -1 -0.5 -3t-0.5 -3l-58 -330q-4 -22 -4 -30q0 -35 43 -35q28 0 58 15l67 380q4 22 24 22h180z" unicode="ŭ"/>
<glyph glyph-name="Uring" horiz-adv-x="752" unicode="Ů" d="M550 890q0 15 -11 26t-26 11t-25.5 -10.5t-10.5 -26.5t10.5 -26.5t25.5 -10.5t26 11t11 26zM640 889q0 -53 -37.5 -90.5t-90.5 -37.5t-90.5 37.5t-37.5 90.5t37.5 90.5t90.5 37.5t90.5 -37.5t37.5 -90.5zM819 726v-3l-77 -437q-29 -168 -116 -232t-249 -64 q-53 0 -99.5 13t-86 39.5t-62.5 74t-23 110.5q0 33 6 70l75 426q1 8 9 14t16 6h195q16 0 16 -17v-3l-77 -437q-4 -19 -4 -37q0 -33 16.5 -46t51.5 -13q42 0 64 20t32 76l77 437q4 20 24 20h195q7 0 12 -5t5 -12z"/>
<glyph glyph-name="uring" d="M476 743q0 15 -11 26t-26 11t-25.5 -11t-10.5 -26t10.5 -26t25.5 -11t26 11t11 26zM566 742q0 -53 -37.5 -90.5t-90.5 -37.5t-90.5 37.5t-37.5 90.5t37.5 90.5t90.5 37.5t90.5 -37.5t37.5 -90.5zM683 590q20 0 20 -16q0 -1 -0.5 -3t-0.5 -3l-97 -548q-4 -20 -23 -20h-165 q-18 0 -18 14q0 1 0.5 3t0.5 3l5 28q-29 -20 -47 -30.5t-49.5 -19t-69.5 -8.5q-80 0 -118 48t-38 123q0 31 6 61l61 346q4 22 25 22h180q19 0 19 -16q0 -1 -0.5 -3t-0.5 -3l-58 -330q-4 -22 -4 -30q0 -35 43 -35q28 0 58 15l67 380q4 22 24 22h180z" unicode="ů"/>
<glyph glyph-name="Uhungarumlaut" horiz-adv-x="752" unicode="Ű" d="M607 932q0 -4 -6 -9l-151 -119q-13 -10 -27 -10h-150q-8 0 -8 6q0 5 6 11l109 112q15 15 31 15h185q11 0 11 -6zM887 932q0 -4 -6 -9l-151 -119q-13 -10 -27 -10h-150q-8 0 -8 6q0 5 6 11l109 112q15 15 31 15h185q11 0 11 -6zM819 726v-3l-77 -437q-29 -168 -116 -232 t-249 -64q-53 0 -99.5 13t-86 39.5t-62.5 74t-23 110.5q0 33 6 70l75 426q1 8 9 14t16 6h195q16 0 16 -17v-3l-77 -437q-4 -19 -4 -37q0 -33 16.5 -46t51.5 -13q42 0 64 20t32 76l77 437q4 20 24 20h195q7 0 12 -5t5 -12z"/>
<glyph glyph-name="uhungarumlaut" d="M557 773q0 -5 -6 -9l-151 -119q-13 -10 -27 -10h-150q-8 0 -8 6q0 5 6 11l109 112q15 15 31 15h185q11 0 11 -6zM837 773q0 -5 -6 -9l-151 -119q-13 -10 -27 -10h-150q-8 0 -8 6q0 5 6 11l109 112q15 15 31 15h185q11 0 11 -6zM683 590q20 0 20 -16q0 -1 -0.5 -3t-0.5 -3 l-97 -548q-4 -20 -23 -20h-165q-18 0 -18 14q0 1 0.5 3t0.5 3l5 28q-29 -20 -47 -30.5t-49.5 -19t-69.5 -8.5q-80 0 -118 48t-38 123q0 31 6 61l61 346q4 22 25 22h180q19 0 19 -16q0 -1 -0.5 -3t-0.5 -3l-58 -330q-4 -22 -4 -30q0 -35 43 -35q28 0 58 15l67 380q4 22 24 22 h180z" unicode="ű"/>
<glyph glyph-name="Uogonek" horiz-adv-x="752" unicode="Ų" d="M819 726v-3l-77 -437q-19 -106 -56.5 -164t-108.5 -100l-73 -43q-47 -27 -47 -51q0 -9 7 -12t26 -3q17 0 43.5 3.5t29.5 3.5q7 0 8.5 -2t-0.5 -10l-13 -73v-1q-1 -9 -13 -15q-50 -20 -137 -20q-66 0 -99.5 23t-33.5 65q0 64 70 104q-103 8 -171 65.5t-68 170.5q0 33 6 70 l75 426q1 8 9 14t16 6h195q16 0 16 -17v-3l-77 -437q-4 -19 -4 -37q0 -33 16.5 -46t51.5 -13q42 0 64 20t32 76l77 437q4 20 24 20h195q7 0 12 -5t5 -12z"/>
<glyph glyph-name="uogonek" d="M702 571v-3l-97 -548q-3 -15 -21 -20l-68 -21q-47 -15 -47 -51q0 -9 7 -12t26 -3q17 0 43.5 3.5t29.5 3.5q10 0 8 -12l-13 -73v-1q-1 -9 -13 -15q-50 -20 -137 -20q-66 0 -99.5 23t-33.5 65q0 39 21.5 65t68.5 50l21 11l2 7l5 28q-29 -20 -47 -30.5t-49.5 -19t-69.5 -8.5 q-80 0 -118 48t-38 123q0 31 6 61l61 346q4 22 25 22h180q18 0 18 -18v-4l-61 -346q-1 -4 -1 -12q0 -37 43 -37q28 0 58 15l67 380q4 22 24 22h180q19 0 19 -19z" unicode="ų"/>
<glyph glyph-name="Wcircumflex" horiz-adv-x="945" unicode="Ŵ" d="M831 803q0 -9 -10 -9h-138q-14 0 -23 10l-40 49l-56 -49q-11 -10 -27 -10h-150q-8 0 -8 6q0 5 6 11l103 112q14 15 31 15h220q18 0 27 -15l63 -112q2 -3 2 -8zM1046 727q0 -3 -2 -9l-208 -655q-13 -41 -35 -57t-59 -16h-103q-36 0 -50.5 13t-20.5 52l-37 228q-2 11 -7 11 t-11 -11l-117 -228q-18 -36 -38.5 -50.5t-56.5 -14.5h-103q-68 0 -68 68v3v2l23 655q1 25 26 25h184q19 0 19 -20v-2l-21 -351v-5q0 -7 5 -7q4 0 11 12l69 133q11 22 23.5 30t38.5 8h110q26 0 36.5 -8.5t13.5 -29.5l21 -133q3 -12 6 -12q7 0 10 12l103 353q5 20 22 20h199 q17 0 17 -16z"/>
<glyph glyph-name="wcircumflex" horiz-adv-x="898" unicode="ŵ" d="M772 644q0 -9 -10 -9h-138q-14 0 -23 10l-40 49l-56 -49q-11 -10 -27 -10h-150q-8 0 -8 6q0 5 6 11l103 112q14 15 31 15h220q18 0 27 -15l63 -112q2 -3 2 -8zM965 590q13 0 13 -8q0 -4 -1 -7l-181 -502q-20 -56 -40 -69.5t-65 -13.5h-94q-41 0 -55.5 14.5t-22.5 63.5 l-24 144q-1 9 -7 9t-11 -9l-74 -144q-25 -49 -45 -63.5t-61 -14.5h-94q-45 0 -59.5 13.5t-15.5 69.5l-5 502q0 15 18 15h199q11 0 11 -16l-14 -298q0 -9 6 -9q5 0 10 9l73 138q11 21 21.5 28.5t30.5 7.5h100q20 0 28 -7.5t12 -28.5l25 -138q2 -13 8 -13q4 0 8 13l90 298 q5 16 17 16h199z"/>
<glyph glyph-name="Ycircumflex" horiz-adv-x="709" unicode="Ŷ" d="M707 803q0 -9 -10 -9h-138q-14 0 -23 10l-40 49l-56 -49q-11 -10 -27 -10h-150q-8 0 -8 6q0 5 6 11l103 112q14 15 31 15h220q18 0 27 -15l63 -112q2 -3 2 -8zM824 732q0 -4 -3 -9l-207 -344q-44 -74 -91 -92l-47 -267q-1 -8 -9 -14t-16 -6h-195q-16 0 -16 16v4l47 267 q-41 18 -59 92l-86 344v4q0 16 16 16h211q13 0 17 -20l41 -248q1 -6 5 -6t7 6l128 248q10 20 25 20h220q12 0 12 -11z"/>
<glyph glyph-name="ycircumflex" horiz-adv-x="656" unicode="ŷ" d="M653 644q0 -9 -10 -9h-138q-14 0 -23 10l-40 49l-56 -49q-11 -10 -27 -10h-150q-8 0 -8 6q0 5 6 11l103 112q14 15 31 15h220q18 0 27 -15l63 -112q2 -3 2 -8zM726 590q17 0 17 -10q0 -5 -3 -11l-276 -600q-20 -43 -41.5 -72.5t-53.5 -54t-78 -36.5t-107 -12 q-33 0 -80 6.5t-67 14.5q-13 5 -16.5 8.5t-2.5 11.5l20 114q4 22 23 22h4q98 -7 149 -7q33 0 44 23l15 34h-13q-34 0 -55.5 16t-27.5 62l-61 470q-1 12 5 16.5t21 4.5h191q16 0 16 -21l13 -312q0 -14 7 -14h7l121 326q8 21 26 21h203z"/>
<glyph glyph-name="Ydieresis" horiz-adv-x="709" unicode="Ÿ" d="M503 920v-3l-18 -102q-1 -9 -9.5 -15t-17.5 -6h-139q-8 0 -13.5 5t-5.5 13v3l18 102q4 21 26 21h139q8 0 14 -5.5t6 -12.5zM733 920v-3l-18 -102q-1 -9 -9.5 -15t-17.5 -6h-139q-8 0 -13.5 5t-5.5 13v3l18 102q4 21 26 21h139q8 0 14 -5.5t6 -12.5zM824 732q0 -4 -3 -9 l-207 -344q-44 -74 -91 -92l-47 -267q-1 -8 -9 -14t-16 -6h-195q-16 0 -16 16v4l47 267q-41 18 -59 92l-86 344v4q0 16 16 16h211q13 0 17 -20l41 -248q1 -6 5 -6t7 6l128 248q10 20 25 20h220q12 0 12 -11z"/>
<glyph glyph-name="Zacute" horiz-adv-x="629" unicode="Ź" d="M688 932q0 -4 -6 -9l-151 -119q-13 -10 -27 -10h-154q-8 0 -8 6q0 5 6 11l107 112q15 15 31 15h191q11 0 11 -6zM702 727v-4l-24 -140q-5 -25 -33 -59l-249 -302q-6 -8 -6 -13q0 -7 12 -7h192q17 0 17 -17v-3l-28 -162q-1 -8 -9 -14t-16 -6h-488q-16 0 -16 16v4l22 130 q4 24 30 55l256 315q7 8 7 14q0 7 -11 7h-190q-16 0 -16 16v4l28 162q4 20 24 20h482q16 0 16 -16z"/>
<glyph glyph-name="zacute" horiz-adv-x="567" unicode="ź" d="M657 773q0 -5 -6 -9l-151 -119q-13 -10 -27 -10h-154q-8 0 -8 6q0 5 6 11l107 112q15 15 31 15h191q11 0 11 -6zM600 590q18 0 18 -14q0 -1 -0.5 -3t-0.5 -3l-19 -107q-3 -17 -8.5 -26.5t-26.5 -31.5l-193 -211q-7 -9 -7 -12q0 -7 10 -7h158q16 0 14 -16l-24 -139 q-4 -20 -24 -20h-427q-19 0 -16 20l18 105q5 28 25 50l205 222q7 9 7 12q0 6 -10 6h-155q-16 0 -13 16l25 139q4 20 23 20h421z"/>
<glyph glyph-name="Zdotaccent" horiz-adv-x="629" unicode="Ż" d="M586 933v-3l-21 -116q-4 -20 -24 -20h-174q-18 0 -18 17v3l21 116q4 20 24 20h174q18 0 18 -17zM702 727v-4l-24 -140q-5 -25 -33 -59l-249 -302q-6 -8 -6 -13q0 -7 12 -7h192q17 0 17 -17v-3l-28 -162q-1 -8 -9 -14t-16 -6h-488q-16 0 -16 16v4l22 130q4 24 30 55 l256 315q7 8 7 14q0 7 -11 7h-190q-16 0 -16 16v4l28 162q4 20 24 20h482q16 0 16 -16z"/>
<glyph glyph-name="zdotaccent" horiz-adv-x="567" unicode="ż" d="M529 773v-3l-21 -116q-4 -20 -24 -20h-174q-18 0 -18 17v3l21 116q4 20 24 20h174q18 0 18 -17zM600 590q18 0 18 -14q0 -1 -0.5 -3t-0.5 -3l-19 -107q-3 -17 -8.5 -26.5t-26.5 -31.5l-193 -211q-7 -9 -7 -12q0 -7 10 -7h158q16 0 14 -16l-24 -139q-4 -20 -24 -20h-427 q-19 0 -16 20l18 105q5 28 25 50l205 222q7 9 7 12q0 6 -10 6h-155q-16 0 -13 16l25 139q4 20 23 20h421z"/>
<glyph glyph-name="Zcaron" horiz-adv-x="629" unicode="Ž" d="M723 932q0 -5 -6 -11l-108 -112q-15 -15 -32 -15h-220q-11 0 -15.5 3t-10.5 12l-70 112q-3 5 -3 8q0 9 11 9h150q15 0 24 -10l40 -45l56 45q13 10 26 10h150q8 0 8 -6zM702 727v-4l-24 -140q-5 -25 -33 -59l-249 -302q-6 -8 -6 -13q0 -7 12 -7h192q17 0 17 -17v-3 l-28 -162q-1 -8 -9 -14t-16 -6h-488q-16 0 -16 16v4l22 130q4 24 30 55l256 315q7 8 7 14q0 7 -11 7h-190q-16 0 -16 16v4l28 162q4 20 24 20h482q16 0 16 -16z"/>
<glyph glyph-name="zcaron" horiz-adv-x="567" unicode="ž" d="M656 773q0 -5 -6 -11l-108 -112q-15 -15 -32 -15h-220q-11 0 -15.5 3t-10.5 12l-70 112q-3 4 -3 8q0 9 11 9h150q15 0 24 -10l40 -45l56 45q13 10 26 10h150q8 0 8 -6zM617 573v-3l-19 -107q-3 -17 -8.5 -26.5t-26.5 -31.5l-193 -211q-7 -9 -7 -12q0 -7 10 -7h158 q14 0 14 -13v-3l-24 -139q-4 -20 -24 -20h-427q-16 0 -16 16v4l18 105q5 28 25 50l205 222q7 9 7 12q0 6 -10 6h-155q-13 0 -13 13v3l25 139q4 20 23 20h421q17 0 17 -17z"/>
<glyph glyph-name="florin" horiz-adv-x="670" unicode="ƒ" d="M727 775q0 -4 -1 -7l-24 -109q-5 -21 -26 -21h-72q-36 0 -46.5 -6.5t-15.5 -27.5l-29 -129h126q17 0 17 -16q0 -1 -0.5 -2.5t-0.5 -2.5l-28 -121q-2 -9 -9.5 -15.5t-16.5 -6.5h-126l-69 -301q-45 -196 -270 -196q-74 0 -122 11q-17 4 -17 14q0 4 1 7l24 109q5 21 26 21 h72q36 0 46.5 6.5t15.5 27.5l69 301h-125q-7 0 -12 5t-5 12q0 1 0.5 2.5t0.5 2.5l28 121q5 21 26 21h125l29 129q44 196 269 196q75 0 123 -11q17 -4 17 -14z"/>
<glyph glyph-name="Scommaaccent" horiz-adv-x="624" unicode="Ș" d="M254 -44h146q11 0 11 -9q0 -4 -3 -10l-76 -108q-12 -20 -25 -20h-112q-13 0 -13 9q0 3 2 11l46 108q8 19 24 19zM690 706v-1l-26 -149q-4 -20 -21 -20h-2q-156 15 -241 15q-24 0 -24 -19q0 -11 32 -29l128 -75q96 -57 96 -162q0 -70 -28 -124t-76.5 -86.5t-107.5 -49 t-126 -16.5q-115 0 -209 30q-18 7 -18 17v3l26 149q4 20 23 20h2q174 -17 212 -17q42 0 42 35q0 13 -22 27l-135 87q-87 57 -87 167q0 67 24 116t68 76.5t97 40t119 12.5q63 0 134.5 -8.5t103.5 -19.5q16 -5 16 -17v-2z"/>
<glyph glyph-name="scommaaccent" horiz-adv-x="540" unicode="ș" d="M210 -44h146q11 0 11 -9q0 -4 -3 -10l-76 -108q-12 -20 -25 -20h-112q-13 0 -13 9q0 3 2 11l46 108q8 19 24 19zM567 573q17 -4 17 -16v-5l-23 -130q-4 -22 -17 -22q-4 0 -7 1q-108 18 -175 18q-23 0 -23 -11q0 -10 22 -22l79 -42q61 -32 80.5 -68.5t19.5 -84.5 q0 -104 -78 -152.5t-215 -48.5q-108 0 -182 26q-18 7 -15 22l22 125q5 24 23 24q1 0 3 -0.5t4 -0.5q123 -19 170 -19q39 0 39 23q0 9 -19 20l-89 49q-89 50 -89 142q0 199 267 199q91 0 186 -27z"/>
<glyph glyph-name="uni021A" horiz-adv-x="602" unicode="Ț" d="M224 -44h146q11 0 11 -9q0 -4 -3 -10l-76 -108q-12 -20 -25 -20h-112q-13 0 -13 9q0 3 2 11l46 108q8 19 24 19zM704 726v-3l-26 -152q-1 -8 -9 -14t-16 -6h-136l-93 -531q-4 -20 -24 -20h-195q-16 0 -16 16v4l93 531h-140q-16 0 -16 16v4l26 152q4 20 24 20h511 q17 0 17 -17z"/>
<glyph glyph-name="uni021B" horiz-adv-x="440" unicode="ț" d="M184 -45h146q11 0 11 -9q0 -4 -3 -10l-76 -108q-12 -20 -25 -20h-112q-13 0 -13 9q0 3 2 11l46 108q8 19 24 19zM426 590h68q22 0 22 -14q0 -1 -0.5 -3t-0.5 -4l-21 -121q-4 -22 -25 -22h-72l-43 -245q-2 -12 -2 -15q0 -14 18 -14h48q18 0 18 -13q0 -5 -1 -8l-19 -109 q-3 -19 -25 -22q-60 -10 -108 -10q-29 0 -54.5 6.5t-49.5 22t-38.5 45.5t-14.5 71q0 20 5 50l42 241l-55 10q-19 4 -19 17q0 1 0.5 2.5t0.5 2.5l19 111q3 21 26 21h57l14 82q3 18 26 21l186 31h3q19 0 15 -21z"/>
<glyph glyph-name="dotlessj" horiz-adv-x="329" unicode="ȷ" d="M180 590h179q19 0 19 -15q0 -1 -0.5 -3t-0.5 -3l-102 -580q-19 -109 -74.5 -154t-140.5 -45q-44 0 -105 11q-18 4 -18 16q0 1 0.5 3t0.5 3l19 108q3 21 25 21h42q20 0 27 37l102 580q3 21 27 21z"/>
<glyph glyph-name="circumflex" horiz-adv-x="500" unicode="ˆ" d="M589 644q0 -9 -10 -9h-138q-14 0 -23 10l-40 49l-56 -49q-11 -10 -27 -10h-150q-8 0 -8 6q0 5 6 11l103 112q14 15 31 15h220q18 0 27 -15l63 -112q2 -3 2 -8z"/>
<glyph glyph-name="caron" horiz-adv-x="500" unicode="ˇ" d="M618 773q0 -5 -6 -11l-108 -112q-15 -15 -32 -15h-220q-11 0 -15.5 3t-10.5 12l-70 112q-3 4 -3 8q0 9 11 9h150q15 0 24 -10l40 -45l56 45q13 10 26 10h150q8 0 8 -6z"/>
<glyph glyph-name="uni02C9" horiz-adv-x="500" unicode="ˉ" d="M581 762v-3l-19 -104q-4 -20 -23 -20h-354q-17 0 -17 17v3l19 104q4 20 23 20h354q17 0 17 -17z"/>
<glyph glyph-name="breve" horiz-adv-x="500" unicode="˘" d="M379 733q48 0 71 33q8 11 11 12t7 1h126q13 0 13 -9q0 -11 -8 -25q-69 -124 -228 -124q-158 0 -208 124q-5 15 -5 21q0 13 14 13h125q13 0 20 -13q9 -18 22 -25.5t40 -7.5z"/>
<glyph glyph-name="dotaccent" horiz-adv-x="500" unicode="˙" d="M493 768v-3l-21 -116q-4 -20 -24 -20h-174q-18 0 -18 17v3l21 116q4 20 24 20h174q18 0 18 -17z"/>
<glyph glyph-name="ring" horiz-adv-x="500" unicode="˚" d="M408 719q0 15 -11 26t-26 11t-25.5 -11t-10.5 -26t10.5 -26t25.5 -11t26 11t11 26zM498 718q0 -53 -37.5 -90.5t-90.5 -37.5t-90.5 37.5t-37.5 90.5t37.5 90.5t90.5 37.5t90.5 -37.5t37.5 -90.5z"/>
<glyph glyph-name="ogonek" horiz-adv-x="500" unicode="˛" d="M333 -165v-1q-1 -9 -13 -15q-50 -20 -137 -20q-66 0 -99.5 23t-33.5 65q0 39 21.5 65t68.5 50l53 28q11 7 30 7h128q8 0 8 -6q0 -5 -7 -9l-73 -43q-47 -27 -47 -51q0 -9 7 -12t26 -3q17 0 43.5 3.5t29.5 3.5q7 0 8.5 -2t-0.5 -10z"/>
<glyph glyph-name="tilde" horiz-adv-x="500" unicode="˜" d="M602 780v-4l-6 -40q-9 -57 -46 -86t-95 -29q-50 0 -92 24l-36 20q-23 12 -35 12q-14 0 -16 -13l-3 -16q-3 -17 -21 -17h-96q-15 0 -15 13v4l5 33q9 60 47 91t91 31q55 0 97 -24l36 -20q25 -13 36 -13q12 0 15 14l3 16q3 17 21 17h95q15 0 15 -13z"/>
<glyph glyph-name="hungarumlaut" horiz-adv-x="500" unicode="˝" d="M404 773q0 -5 -6 -9l-151 -119q-13 -10 -27 -10h-150q-8 0 -8 6q0 5 6 11l109 112q15 15 31 15h185q11 0 11 -6zM684 773q0 -5 -6 -9l-151 -119q-13 -10 -27 -10h-150q-8 0 -8 6q0 5 6 11l109 112q15 15 31 15h185q11 0 11 -6z"/>
<glyph glyph-name="uni0400" horiz-adv-x="595" unicode="Ѐ" d="M575 803q0 -9 -10 -9h-142q-14 0 -23 10l-109 119q-3 5 -3 7q0 8 12 8h177q17 0 27 -15l69 -112q2 -3 2 -8zM667 726v-4l-26 -151q-4 -20 -24 -20h-201q-19 0 -26.5 -6.5t-11.5 -25.5l-10 -54h234q16 0 16 -16v-4l-24 -141q-4 -20 -24 -20h-234l-11 -60q-1 -5 -1 -12 q0 -20 29 -20h201q16 0 16 -16v-4l-26 -151q-3 -18 -24 -20q-92 -11 -203 -11q-104 0 -168.5 42t-64.5 137q0 30 5 55l53 295q8 47 23.5 83.5t33 61t43 41.5t47.5 26.5t53.5 14.5t54 6t55.5 1q109 0 199 -11q16 -2 16 -16z"/>
<glyph glyph-name="afii10023" horiz-adv-x="595" unicode="Ё" d="M419 815q-1 -9 -9 -15t-17 -6h-139q-9 0 -15 6t-5 15l18 102q1 9 9.5 15t17.5 6h139q9 0 14.5 -6t4.5 -15zM649 815q-3 -21 -26 -21h-139q-9 0 -15 6t-5 15l18 102q1 9 9.5 15t17.5 6h139q9 0 14.5 -6t4.5 -15zM543 21q-3 -18 -23 -20q-92 -11 -203 -11q-48 0 -85 6.5 t-73 23.5t-56 53t-20 90q0 27 6 61l52 295q10 59 34.5 103t53.5 68.5t69 39t75 19t78 4.5q111 0 199 -11q20 -2 17 -20l-27 -151q-4 -20 -23 -20h-201q-19 0 -27.5 -7t-11.5 -25l-10 -54h234q21 0 17 -20l-25 -141q-4 -20 -23 -20h-234l-9 -48q-3 -17 -3 -24q0 -20 28 -20 h201q20 0 17 -20z"/>
<glyph glyph-name="afii10051" horiz-adv-x="879" unicode="Ђ" d="M876 202q-38 -211 -227 -211q-72 0 -110 6q-19 3 -17 20l24 134q4 20 24 20h43q13 0 18.5 6t8.5 25q5 29 5 40q0 22 -17 30.5t-64 8.5q-68 0 -98 -15l-43 -246q-4 -20 -22 -20h-195q-8 0 -13.5 6t-4.5 14l94 531h-140q-8 0 -13 6t-4 14l27 152q4 20 24 20h511q8 0 13 -6 t4 -14l-27 -152q-4 -20 -24 -20h-136l-21 -119q78 32 206 32q99 0 141.5 -42t42.5 -130q0 -39 -10 -90z"/>
<glyph glyph-name="afii10052" horiz-adv-x="575" unicode="Ѓ" d="M658 938q6 0 7.5 -5t-3.5 -10l-151 -119q-11 -10 -26 -10h-146q-6 0 -8.5 3t-1.5 7t4 7l108 112q15 15 32 15h185zM377 519l-88 -499q-4 -20 -22 -20h-195q-8 0 -14 6t-5 14l88 499q13 74 41 122.5t71.5 72t88.5 31.5t109 8q111 0 199 -11q20 -2 17 -20l-27 -151 q-4 -20 -23 -20h-201q-19 0 -27.5 -7t-11.5 -25z"/>
<glyph glyph-name="afii10053" horiz-adv-x="580" unicode="Є" d="M533 21q-3 -16 -23 -20q-58 -11 -155 -11q-57 0 -104.5 13t-87 40.5t-61.5 78t-22 119.5q0 43 9 94l13 75q17 95 56 164.5t93 107t112.5 54.5t125.5 17q63 0 151 -11q20 -2 17 -20l-27 -151q-4 -20 -23 -20h-149q-55 0 -79 -20.5t-31 -61.5l-1 -4h244q8 0 13 -6t4 -14 l-25 -141q-4 -20 -23 -20h-244q-4 -23 -4 -32q0 -60 83 -60h148q8 0 13 -6t4 -14z"/>
<glyph glyph-name="afii10054" horiz-adv-x="624" unicode="Ѕ" d="M676 725q18 -5 16 -20l-26 -149q-4 -20 -19 -20h-4q-156 15 -241 15q-24 0 -24 -17q0 -13 32 -31l128 -75q96 -57 96 -162q0 -70 -28 -124t-76.5 -86.5t-107.5 -49t-126 -16.5q-115 0 -209 30q-20 7 -18 20l26 149q4 20 20 20h5q174 -17 212 -17q42 0 42 30q0 18 -22 32 l-135 87q-87 57 -87 167q0 67 24 116t68 76.5t97 40t119 12.5q63 0 134.5 -8.5t103.5 -19.5z"/>
<glyph glyph-name="afii10055" horiz-adv-x="356" unicode="І" d="M299 20q-4 -20 -22 -20h-195q-8 0 -14 6t-5 14l124 703q1 8 9 14t16 6h195q8 0 13 -6t3 -14z"/>
<glyph glyph-name="afii10056" horiz-adv-x="356" unicode="Ї" d="M296 815q-4 -21 -26 -21h-138q-9 0 -15 6t-5 15l18 102q1 9 9.5 15t17.5 6h138q9 0 14.5 -6t4.5 -15zM526 815q-4 -21 -26 -21h-139q-9 0 -15 6t-5 15l18 102q1 9 9.5 15t17.5 6h139q9 0 14.5 -6t4.5 -15zM298 20q-4 -20 -22 -20h-195q-9 0 -14.5 6t-4.5 14l124 703 q1 8 9 14t16 6h195q8 0 13 -6t3 -14z"/>
<glyph glyph-name="afii10057" horiz-adv-x="356" unicode="Ј" d="M294 5q-36 -211 -227 -211q-70 0 -107 6q-19 4 -16 20l23 134q4 20 24 20h40q13 0 18.5 6t8.5 25l127 718q1 8 9 14t16 6h195q8 0 13 -6t3 -14z"/>
<glyph glyph-name="afii10058" horiz-adv-x="1117" unicode="Љ" d="M571 553h-93q-9 0 -12 -2.5t-6 -10.5l-174 -520q-7 -20 -23 -20h-208q-14 0 -14 13q0 5 1 7l221 595q27 73 85.5 100.5t156.5 27.5h316q20 0 16 -20l-38 -216h41q46 0 83 -3.5t79.5 -15.5t70.5 -32t47 -55.5t19 -84.5q0 -31 -7 -68q-11 -63 -41 -110t-67 -72.5 t-87.5 -40.5t-92.5 -19.5t-93 -4.5q-141 0 -205 12q-32 6 -45.5 17.5t-13.5 36.5q0 7 4 33zM847 317h-82l-22 -126h82q70 0 80 57q3 16 3 24q0 45 -61 45z"/>
<glyph glyph-name="afii10059" horiz-adv-x="1107" unicode="Њ" d="M833 306h-82l-22 -126h82q70 0 80 57l2 12q1 4 1 13q0 44 -61 44zM477 89l33 186h-171l-45 -255q-4 -20 -22 -20h-195q-9 0 -14.5 6t-4.5 14l124 703q4 20 25 20h195q20 0 16 -20l-43 -246h171l43 246q4 20 25 20h195q8 0 13 -6t3 -14l-40 -227h41q46 0 83 -3.5 t79.5 -15.5t70.5 -32t47 -55.5t19 -84.5q0 -31 -7 -68q-11 -63 -41 -110t-67 -72.5t-87.5 -40.5t-92.5 -19.5t-93 -4.5q-141 0 -205 12q-32 6 -45.5 17.5t-13.5 36.5q0 7 4 33z"/>
<glyph glyph-name="afii10060" horiz-adv-x="879" unicode="Ћ" d="M466 266l-43 -246q-4 -20 -22 -20h-195q-8 0 -13.5 6t-4.5 14l94 531h-140q-8 0 -13 6t-4 14l27 152q4 20 24 20h511q8 0 13 -6t4 -14l-27 -152q-4 -20 -24 -20h-136l-21 -119q78 32 191 32q104 0 146.5 -41.5t42.5 -119.5q0 -31 -9 -87l-35 -194q-4 -22 -23 -22h-180 q-9 0 -15 6.5t-5 15.5l34 193q3 15 3 26q0 23 -17.5 31.5t-64.5 8.5q-68 0 -98 -15z"/>
<glyph glyph-name="afii10061" horiz-adv-x="744" unicode="Ќ" d="M759 931q-2 -4 -7 -8l-151 -119q-11 -10 -26 -10h-150q-4 0 -6.5 2t-1.5 5q0 5 6 10l108 112q15 15 32 15h185q11 0 11 -7zM723 12q-3 -12 -13 -12h-236q-24 0 -30 20l-96 307l-54 -307q-4 -20 -22 -20h-195q-9 0 -14.5 6t-4.5 14l124 703q1 8 9 14t16 6h195q8 0 13 -6 t3 -14l-56 -315l221 315q14 20 25 20h231q10 0 10 -8q0 -1 -0.5 -2t-0.5 -2q0 -5 -3 -8l-260 -350l137 -353q1 -3 1 -8z"/>
<glyph glyph-name="uni040D" horiz-adv-x="763" unicode="Ѝ" d="M611 803q0 -9 -10 -9h-142q-14 0 -23 10l-109 119q-3 5 -3 7q0 8 12 8h177q17 0 27 -15l69 -112q2 -3 2 -8zM66 35l121 688q4 20 24 20h183q8 0 13 -6t3 -14l-50 -284q-2 -9 3 -9t12 9l217 276q20 28 43 28h164q13 0 21 -8t8 -20q0 -1 -0.5 -3.5t-0.5 -3.5l-121 -688 q-4 -20 -23 -20h-183q-8 0 -14 6t-5 14l49 276q1 9 -4 9h-1q-4 0 -10 -8l-214 -275q-17 -22 -34 -22h-171q-13 0 -22 8.5t-9 20.5q0 1 0.5 3t0.5 3z"/>
<glyph glyph-name="afii10062" horiz-adv-x="668" unicode="Ў" d="M476 792q-75 0 -122 29.5t-73 94.5q-6 15 -5 24q2 10 14 10h124q14 0 20 -13q16 -33 62 -33q45 0 74 33q9 13 24 13h124q12 0 10 -10q-1 -12 -13 -26q-91 -122 -239 -122zM749 743h13q14 0 14 -11q0 -4 -3 -10l-269 -557q-29 -58 -58.5 -93t-85.5 -58.5t-136 -23.5 q-34 0 -80 6.5t-67 14.5t-19 20l20 114q4 22 23 22h4q96 -7 149 -7q20 0 29 5t15 18l15 34h-6q-47 0 -64 19t-30 96l-64 390q-3 21 21 21h201q16 0 16 -21l20 -269q2 -14 7 -14h7l114 283q8 21 26 21h188z"/>
<glyph glyph-name="afii10145" horiz-adv-x="753" unicode="Џ" d="M241 -100l19 100q-94 0 -136 32.5t-42 98.5q0 22 5 55l95 537q1 8 9 14t16 6h195q8 0 13 -6t3 -14l-88 -497q0 -2 -0.5 -4t-0.5 -3q0 -17 21 -17h123q24 0 28 24l88 497q4 20 24 20h195q8 0 13 -6t4 -14l-95 -537q-17 -94 -70 -140t-164 -46l-19 -100q-4 -20 -24 -20 h-195q-8 0 -13 6t-4 14z"/>
<glyph glyph-name="afii10017" horiz-adv-x="716" unicode="А" d="M463 554q0 8 -7 8q-2 0 -3.5 -0.5t-3 -2t-2 -2.5t-1.5 -4t-1 -4l-78 -233h92l4 233v5zM698 19q0 -19 -18 -19h-207q-18 0 -18 20l1 112h-152l-37 -112q-7 -20 -24 -20h-209q-14 0 -14 11q0 3 2 9l225 604q27 73 86 101t157 28t146 -28t49 -101l13 -604v-1z"/>
<glyph glyph-name="afii10018" horiz-adv-x="700" unicode="Б" d="M426 306h-82l-22 -126h82q70 0 80 57q3 16 3 25q0 44 -61 44zM70 89l112 634q1 8 9 14t16 6h526q8 0 13 -6t3 -14l-25 -141q-4 -20 -23 -20h-311l-12 -66h41q46 0 83 -3.5t79.5 -15.5t70.5 -32t47 -55.5t19 -84.5q0 -31 -7 -68q-11 -63 -41 -110t-67 -72.5t-87.5 -40.5 t-92.5 -19.5t-93 -4.5q-141 0 -205 12q-32 6 -45.5 17.5t-13.5 36.5q0 7 4 33z"/>
<glyph glyph-name="afii10019" horiz-adv-x="704" unicode="В" d="M481 250q0 25 -14 36.5t-47 11.5h-82l-21 -118h82q43 0 62.5 20.5t19.5 49.5zM526 518q0 45 -60 45h-82l-19 -112h82q79 0 79 67zM759 563q0 -57 -26.5 -108.5t-74.5 -73.5q50 -42 50 -119q0 -67 -25 -117.5t-63 -79t-92 -46.5t-102 -23.5t-102 -5.5q-135 0 -199 12 q-32 6 -45 17t-13 36q0 8 4 34l99 566q8 45 25.5 62t60.5 24q76 12 203 12q144 0 222 -43.5t78 -146.5z"/>
<glyph glyph-name="afii10020" horiz-adv-x="575" unicode="Г" d="M53 20l90 509q11 60 31.5 102t45.5 65.5t64.5 36.5t75.5 16.5t91 3.5q111 0 199 -11q20 -2 17 -20l-27 -151q-4 -20 -23 -20h-201q-15 0 -20.5 -1t-10 -5.5t-6.5 -15.5l-90 -509q-4 -20 -22 -20h-195q-8 0 -14 6t-5 14z"/>
<glyph glyph-name="afii10021" horiz-adv-x="863" unicode="Д" d="M532 549l-121 -361h134l5 361q2 13 -6 13q-7 0 -12 -13zM73 188h100l163 436q27 73 85 101t156 28t147 -28t50 -101l9 -436h73q8 0 13 -6t3 -14l-47 -268q-4 -20 -24 -20h-188q-8 0 -13 6t-4 14l19 100h-365l-19 -100q-1 -8 -9 -14t-16 -6h-188q-8 0 -12 6t-3 14l46 268 q4 20 24 20z"/>
<glyph glyph-name="afii10022" horiz-adv-x="595" unicode="Е" d="M651 742q19 -2 16 -20l-26 -151q-4 -20 -24 -20h-201q-19 0 -26.5 -6.5t-11.5 -25.5l-10 -54h234q21 0 16 -20l-24 -141q-4 -20 -24 -20h-234l-9 -49q-3 -16 -3 -24q0 -19 29 -19h201q19 0 16 -20l-26 -151q-3 -18 -24 -20q-92 -11 -203 -11q-104 0 -168.5 42t-64.5 137 q0 30 5 55l53 295q8 47 23.5 83.5t33 61t43 41.5t47.5 26.5t53.5 14.5t54 6t55.5 1q109 0 199 -11z"/>
<glyph glyph-name="afii10024" horiz-adv-x="1142" unicode="Ж" d="M415 723l109 -315l56 315q1 8 9 14t16 6h195q8 0 13 -6t3 -14l-56 -315l221 315q14 20 25 20h231q10 0 10 -8q0 -1 -0.5 -2t-0.5 -2q0 -5 -3 -8l-260 -350l137 -353q1 -3 1 -8q-3 -12 -13 -12h-236q-24 0 -30 20l-96 307l-54 -307q-4 -20 -22 -20h-195q-9 0 -14.5 6 t-4.5 14l54 307l-204 -307q-14 -20 -34 -20h-236q-11 0 -11 9q0 8 3 11l261 353l-136 350q-1 3 -1 8q3 12 15 12h231q11 0 17 -20z"/>
<glyph glyph-name="afii10025" horiz-adv-x="634" unicode="З" d="M618 211q-21 -117 -100.5 -169t-218.5 -52q-61 0 -129.5 13t-99.5 28q-19 10 -18 20l21 116q4 20 23 20h1q133 -10 215 -10q83 0 83 68q0 44 -51 44h-173q-8 0 -13 6t-3 14l23 129q4 20 23 20h161q81 0 81 68q0 40 -63 40q-33 0 -210 -10h-1q-8 0 -13 6t-4 14l21 116 q1 10 20 18q3 1 4 2q36 15 105.5 28t130.5 13q124 0 186 -36t62 -122q0 -21 -5 -53q-18 -104 -122 -165q68 -37 68 -123q0 -23 -4 -43z"/>
<glyph glyph-name="afii10026" horiz-adv-x="763" unicode="И" d="M66 35l121 688q4 20 24 20h183q8 0 13 -6t3 -14l-50 -284q-2 -9 3 -9t12 9l217 276q20 28 43 28h164q13 0 21 -8t8 -20q0 -1 -0.5 -3.5t-0.5 -3.5l-121 -688q-4 -20 -23 -20h-183q-8 0 -14 6t-5 14l49 276q1 9 -4 9h-1q-4 0 -10 -8l-214 -275q-17 -22 -34 -22h-171 q-13 0 -22 8.5t-9 20.5q0 1 0.5 3t0.5 3z"/>
<glyph glyph-name="afii10027" horiz-adv-x="753" unicode="Й" d="M61 35l121 688q4 20 24 20h183q8 0 13 -6t3 -14l-50 -284q-2 -9 3 -9t12 9l217 276q20 28 43 28h164q13 0 21 -8t8 -20q0 -1 -0.5 -3.5t-0.5 -3.5l-121 -688q-4 -20 -23 -20h-183q-9 0 -14.5 6t-4.5 14l49 276q1 9 -4 9h-1q-4 0 -10 -8l-214 -275q-16 -22 -34 -22h-171 q-13 0 -22 8.5t-9 20.5q0 1 0.5 3t0.5 3zM523 787q-75 0 -122 29.5t-73 94.5q-5 10 -5 21q0 13 14 13h124q15 0 20 -13q5 -10 10 -16t18 -11.5t34 -5.5q45 0 74 33q10 13 24 13h124q10 0 10 -7t-13 -27q-93 -124 -239 -124z"/>
<glyph glyph-name="afii10028" horiz-adv-x="744" unicode="К" d="M723 12q-3 -12 -13 -12h-236q-24 0 -30 20l-96 307l-54 -307q-4 -20 -22 -20h-195q-9 0 -14.5 6t-4.5 14l124 703q1 8 9 14t16 6h195q8 0 13 -6t3 -14l-56 -315l221 315q14 20 25 20h231q10 0 10 -8q0 -1 -0.5 -2t-0.5 -2q0 -5 -3 -8l-260 -350l137 -353q1 -3 1 -8z"/>
<glyph glyph-name="afii10029" horiz-adv-x="716" unicode="Л" d="M445 549l-178 -529q-7 -20 -23 -20h-208q-14 0 -14 13q0 2 0.5 4t0.5 3l226 604q27 73 85 101t156 28t147 -28t50 -101l12 -604q0 -1 -0.5 -2.5t-0.5 -2.5q-2 -15 -16 -15h-208q-8 0 -13.5 6t-5.5 14l8 529q2 13 -6 13q-7 0 -12 -13z"/>
<glyph glyph-name="afii10030" horiz-adv-x="866" unicode="М" d="M807 11q0 -11 -16 -11h-197q-6 0 -9.5 6t-2.5 14l55 313q2 6 1 7.5t-5 1.5q-5 0 -12 -9l-93 -110q-16 -19 -31 -19h-58q-14 0 -23 19l-55 110q-5 9 -8 9h-3.5t-2 -1.5t-1 -2.5t-1.5 -5l-55 -313q-4 -20 -16 -20h-197q-16 0 -16 11l123 697q3 14 15.5 24.5t26.5 10.5h131 q39 0 52 -33l98 -221q3 -11 10 -11q5 0 14 11l176 221q25 33 64 33h131q13 0 21 -8t8 -20q0 -1 -0.5 -3.5t-0.5 -3.5z"/>
<glyph glyph-name="afii10031" horiz-adv-x="753" unicode="Н" d="M701 20q-4 -20 -22 -20h-195q-8 0 -14 6t-5 14l45 255h-171l-45 -255q-4 -20 -22 -20h-195q-9 0 -14.5 6t-4.5 14l124 703q1 8 9 14t16 6h195q8 0 13 -6t3 -14l-43 -246h171l43 246q1 8 9 14t16 6h195q8 0 13 -6t3 -14z"/>
<glyph glyph-name="afii10032" horiz-adv-x="716" unicode="О" d="M516 474q0 38 -15 54.5t-47 16.5q-42 0 -66 -30t-36 -100l-15 -87q-6 -34 -6 -59q0 -38 15 -54.5t47 -16.5q43 0 66.5 30t35.5 100l15 87q6 35 6 59zM757 499q0 -36 -8 -84l-15 -87q-58 -338 -378 -338q-117 0 -191.5 63.5t-74.5 191.5q0 35 8 83l15 87q59 338 378 338 q117 0 191.5 -63t74.5 -191z"/>
<glyph glyph-name="afii10033" horiz-adv-x="753" unicode="П" d="M390 743h235q94 0 135 -32.5t41 -98.5q0 -22 -5 -55l-95 -537q-4 -20 -23 -20h-195q-8 0 -13.5 6t-4.5 14l88 497q0 2 0.5 4t0.5 3q0 17 -21 17h-123q-24 0 -28 -24l-88 -497q-4 -20 -22 -20h-195q-9 0 -14.5 6t-4.5 14l95 537q16 94 70.5 140t166.5 46z"/>
<glyph glyph-name="afii10034" horiz-adv-x="698" unicode="Р" d="M521 504q0 52 -75 52h-61l-24 -135h61q40 0 66.5 16.5t30.5 47.5l1 7q1 4 1 12zM757 536q0 -20 -3 -44l-1 -7q-9 -64 -37.5 -112t-64.5 -76t-84.5 -45t-90.5 -22.5t-89 -5.5q-4 0 -60 2l-36 -206q-4 -20 -23 -20h-195q-6 0 -11.5 4.5t-4.5 11.5l113 640q8 45 25 61.5 t60 23.5q77 12 221 12q54 0 101.5 -11.5t89 -35.5t66 -67.5t24.5 -102.5z"/>
<glyph glyph-name="afii10035" horiz-adv-x="548" unicode="С" d="M639 712l-28 -158q-3 -18 -18 -18h-5q-72 9 -131 9q-18 0 -30.5 -3.5t-27.5 -16t-27 -41t-20 -72.5l-15 -81q-7 -38 -7 -65q0 -30 10 -46t22.5 -19t33.5 -3q38 0 134 9q12 1 15 -3.5t1 -14.5l-28 -158q-1 -10 -5.5 -13.5t-18.5 -8.5q-59 -19 -135 -19q-134 0 -202 66 t-68 184q0 43 9 91l15 81q34 186 123 263.5t251 77.5q83 0 134 -19q20 -7 18 -22z"/>
<glyph glyph-name="afii10036" horiz-adv-x="602" unicode="Т" d="M677 571q-4 -20 -24 -20h-136l-94 -531q-4 -20 -22 -20h-195q-8 0 -13.5 6t-4.5 14l94 531h-140q-8 0 -13 6t-4 14l27 152q4 20 24 20h511q8 0 13 -6t4 -14z"/>
<glyph glyph-name="afii10037" horiz-adv-x="668" unicode="У" d="M749 743h13q14 0 14 -11q0 -4 -3 -10l-269 -557q-29 -58 -58.5 -93t-85.5 -58.5t-136 -23.5q-34 0 -80 6.5t-67 14.5t-19 20l20 114q4 22 23 22h4q96 -7 149 -7q20 0 29 5t15 18l15 34h-6q-47 0 -64 19t-30 96l-64 390q-3 21 21 21h201q16 0 16 -21l20 -269q2 -14 7 -14 h7l114 283q8 21 26 21h188z"/>
<glyph glyph-name="afii10038" horiz-adv-x="1003" unicode="Ф" d="M439 311l26 144h-21q-85 0 -97 -64l-2 -16q-1 -5 -1 -13q0 -51 74 -51h21zM698 455l-26 -144h21q85 0 97 64l2 16q1 5 1 13q0 51 -74 51h-21zM499 652l19 106q3 16 24 16h192q8 0 13 -6t3 -14l-18 -102h21q52 0 98 -9.5t88 -31.5t67 -64.5t25 -100.5q0 -22 -5 -55l-2 -16 q-13 -74 -52 -128t-93 -81.5t-108 -39.5t-112 -12h-21l-22 -124q-4 -20 -24 -20h-192q-9 0 -14 4t-4 12l23 128h-21q-52 0 -98 9.5t-88 31.5t-67 64.5t-25 100.5q0 22 5 55l2 16q13 74 52 128t93 81.5t108 39.5t112 12h21z"/>
<glyph glyph-name="afii10039" horiz-adv-x="740" unicode="Х" d="M841 734q0 -6 -4 -11l-264 -363l141 -340q1 -2 1 -6q0 -14 -13 -14h-229q-16 0 -24 20l-63 153l-105 -153q-16 -20 -26 -20h-227q-10 0 -10 9q0 6 4 11l270 380l-134 323q-3 7 0.5 13.5t12.5 6.5h227q16 0 25 -20l60 -145l94 145q8 13 15.5 16.5t27.5 3.5h212q9 0 9 -9z "/>
<glyph glyph-name="afii10040" horiz-adv-x="808" unicode="Ц" d="M495 0h-235q-94 0 -136 32.5t-42 98.5q0 22 5 55l95 537q1 8 9 14t16 6h195q8 0 13 -6t3 -14l-88 -497q0 -2 -0.5 -4t-0.5 -3q0 -17 21 -17h123q24 0 28 24l88 497q4 20 24 20h195q8 0 13 -6t4 -14l-92 -520h80q8 0 13 -6t4 -14l-50 -283q-4 -20 -24 -20h-195q-8 0 -13 6 t-4 14l18 105q-33 -5 -67 -5z"/>
<glyph glyph-name="afii10041" horiz-adv-x="738" unicode="Ч" d="M167 721q4 22 25 22h193q9 0 14.5 -6.5t3.5 -15.5l-55 -310q-1 -6 -1 -15q0 -35 49 -35q45 0 118 19l60 341q4 22 24 22h193q9 0 14.5 -6.5t4.5 -15.5l-124 -701q-4 -20 -22 -20h-195q-8 0 -13.5 6t-4.5 14l35 199q-102 -38 -187 -38q-88 0 -140 44t-52 130q0 31 5 56z "/>
<glyph glyph-name="afii10042" horiz-adv-x="1040" unicode="Ш" d="M782 0h-522q-94 0 -136 32.5t-42 98.5q0 22 5 55l95 537q1 8 9 14t16 6h195q8 0 13 -6t3 -14l-88 -497q0 -2 -0.5 -4t-0.5 -3q0 -17 21 -17h87l92 521q1 8 9 14t16 6h195q8 0 13 -6t3 -14l-92 -521h87q24 0 28 24l88 497q4 20 24 20h195q8 0 13 -6t4 -14l-95 -537 q-17 -95 -70 -140.5t-165 -45.5z"/>
<glyph glyph-name="afii10043" horiz-adv-x="1105" unicode="Щ" d="M782 0h-522q-94 0 -136 32.5t-42 98.5q0 22 5 55l95 537q1 8 9 14t16 6h195q8 0 13 -6t3 -14l-88 -497q0 -2 -0.5 -4t-0.5 -3q0 -17 21 -17h87l92 521q1 8 9 14t16 6h195q8 0 13 -6t3 -14l-92 -521h87q24 0 28 24l88 497q4 20 24 20h195q8 0 13 -6t4 -14l-92 -521h80 q8 0 13 -6t4 -14l-50 -282q-4 -20 -24 -20h-195q-8 0 -13 6t-4 14l18 105q-33 -5 -67 -5z"/>
<glyph glyph-name="afii10044" horiz-adv-x="735" unicode="Ъ" d="M450 306h-82l-22 -126h82q70 0 80 57q3 16 3 25q0 44 -61 44zM426 743q8 0 13 -6t3 -14l-40 -227h41q46 0 83 -3.5t79.5 -15.5t70.5 -32t47 -55.5t19 -84.5q0 -23 -7 -68q-9 -53 -30.5 -94.5t-52.5 -67.5t-65.5 -44t-77 -26.5t-78 -11.5t-77.5 -3q-141 0 -205 12 q-32 6 -45.5 17.5t-13.5 36.5q0 7 4 33l83 462h-70q-8 0 -12.5 6t-3.5 14l26 152q1 8 8 14t15 6h286z"/>
<glyph glyph-name="afii10045" horiz-adv-x="1052" unicode="Ы" d="M1000 20q-4 -20 -22 -20h-195q-9 0 -14.5 6t-4.5 14l124 703q1 8 9 14t16 6h195q8 0 13 -6t3 -14zM70 89l112 634q1 8 9 14t16 6h195q8 0 13 -6t3 -14l-40 -227h41q46 0 83 -3.5t79.5 -15.5t70.5 -32t47 -55.5t19 -84.5q0 -31 -7 -68q-11 -63 -41 -110t-67 -72.5 t-87.5 -40.5t-92.5 -19.5t-93 -4.5q-141 0 -205 12q-32 6 -45.5 17.5t-13.5 36.5q0 7 4 33zM426 306h-82l-22 -126h82q70 0 80 56q3 16 3 26q0 44 -61 44z"/>
<glyph glyph-name="afii10046" horiz-adv-x="705" unicode="Ь" d="M70 89l112 634q1 8 9 14t16 6h195q8 0 13 -6t3 -14l-40 -227h41q46 0 83 -3.5t79.5 -15.5t70.5 -32t47 -55.5t19 -84.5q0 -31 -7 -68q-11 -63 -41 -110t-67 -72.5t-87.5 -40.5t-92.5 -19.5t-93 -4.5q-141 0 -205 12q-32 6 -45.5 17.5t-13.5 36.5q0 7 4 33zM426 306h-82 l-22 -126h82q70 0 80 57q3 16 3 25q0 44 -61 44z"/>
<glyph glyph-name="afii10047" horiz-adv-x="580" unicode="Э" d="M53 21l27 151q4 20 23 20h148q96 0 111 83l2 9h-244q-8 0 -13 6t-4 14l25 141q4 20 23 20h244q4 17 4 30q0 28 -19 42t-64 14h-149q-8 0 -13 6t-4 14l27 151q3 16 23 20q63 11 174 11q51 0 94.5 -13t81 -40.5t59.5 -78t22 -119.5q0 -41 -9 -92l-13 -75 q-34 -192 -126.5 -268.5t-261.5 -76.5q-63 0 -151 11q-20 2 -17 20z"/>
<glyph glyph-name="afii10048" horiz-adv-x="1063" unicode="Ю" d="M841 328l16 87q6 34 6 59q0 38 -15 54.5t-47 16.5q-43 0 -66.5 -30t-35.5 -100l-16 -87q-6 -35 -6 -59q0 -38 15 -54.5t47 -16.5q43 0 66.5 30t35.5 100zM294 20q-4 -20 -22 -20h-195q-9 0 -14.5 6t-4.5 14l124 703q1 8 9 14t16 6h195q8 0 13 -6t3 -14l-47 -264h97 q20 80 58.5 138.5t89 91.5t105.5 48.5t116 15.5q119 0 193.5 -59t74.5 -188q0 -42 -9 -91l-16 -87q-16 -92 -54 -159.5t-90 -105.5t-109.5 -55.5t-123.5 -17.5q-119 0 -193.5 59t-74.5 189q0 22 1 34h-98z"/>
<glyph glyph-name="afii10049" horiz-adv-x="721" unicode="Я" d="M374 503l-3 -20q-1 -3 -1 -10q0 -43 60 -43h75l23 126h-75q-70 0 -79 -53zM33 29l184 261q-36 17 -60.5 55t-24.5 94q0 24 4 45l3 20q24 135 117 192t253 57q138 0 217 -12q33 -5 46 -15.5t13 -35.5q0 -8 -4 -34l-112 -636q-4 -20 -23 -20h-195q-8 0 -13.5 6t-4.5 14 l41 235h-32l-160 -235q-1 -1 -3 -4l-3 -4.5t-3 -3.5t-3.5 -3t-4 -2.5t-5.5 -2t-7 -0.5h-209q-16 0 -16 15q0 8 5 14z"/>
<glyph glyph-name="afii10065" horiz-adv-x="590" unicode="а" d="M355 154l14 84h-31q-55 0 -64 -46q-2 -10 -2 -20q0 -27 32 -27q20 0 51 9zM545 20q-4 -20 -22 -20h-165q-8 0 -13.5 6t-4.5 14l4 21q-75 -51 -150 -51q-54 0 -94.5 34t-40.5 105q0 23 6 63q14 88 87.5 123t205.5 35h24l4 21q1 5 1 12q0 34 -43 34q-122 0 -176 -6h-4 q-13 0 -13 14q0 1 0.5 3.5t0.5 3.5l20 114q3 18 24 25q27 9 87 19t103 10q107 0 167 -37.5t60 -130.5q0 -28 -6 -61z"/>
<glyph glyph-name="afii10066" horiz-adv-x="620" unicode="б" d="M407 252l1 4q3 18 3 30q0 48 -43 48q-53 0 -66 -78q-4 -21 -4 -35q0 -47 42 -47q54 0 67 78zM629 252q-46 -262 -321 -262q-111 0 -171 56t-60 158q0 33 12 104q10 61 27 108.5t49 96t86 84t130 57.5q97 27 127 49t37 63q2 13 20 13h124q13 0 13 -9q0 -166 -174 -218 q-28 -9 -53 -16t-36.5 -10.5t-21.5 -7.5h6q102 0 157.5 -50t55.5 -145q0 -32 -7 -71z"/>
<glyph glyph-name="afii10067" horiz-adv-x="628" unicode="в" d="M414 187q2 9 2 16q0 33 -53 33h-69l-16 -94h69q59 0 67 45zM450 397q2 15 2 19q0 32 -52 32h-69l-15 -89h69q58 0 65 38zM613 208q0 -66 -32 -112t-85.5 -67.5t-103.5 -30t-106 -8.5q-115 0 -170 10q-29 5 -40.5 14.5t-11.5 29.5q0 10 3 25l80 453q6 36 20.5 49.5 t51.5 18.5q63 10 174 10q130 0 195 -30.5t65 -111.5q0 -101 -84 -155q18 -14 31 -40.5t13 -54.5z"/>
<glyph glyph-name="afii10068" horiz-adv-x="438" unicode="г" d="M456 402h-95q-11 0 -15 -5t-6 -17l-64 -358q-4 -22 -22 -22h-180q-9 0 -15.5 6.5t-5.5 15.5l74 415q14 80 61.5 116.5t151.5 36.5h150q21 0 18 -20l-26 -145q-2 -9 -9.5 -16t-16.5 -7z"/>
<glyph glyph-name="afii10069" horiz-adv-x="779" unicode="д" d="M441 358l-69 -184h98l-3 184q-2 15 -11 15t-15 -15zM70 174h76l126 287q20 46 46.5 75.5t59 42.5t58.5 17t60 4q27 0 46.5 -2t44 -10t41 -22.5t29 -41t15.5 -63.5l24 -287h73q8 0 13 -6t4 -14l-45 -254q-4 -20 -24 -20h-174q-8 0 -13 6t-4 14l19 100h-309l-19 -100 q-1 -8 -9 -14t-16 -6h-174q-8 0 -12 6t-3 14l44 254q4 20 23 20z"/>
<glyph glyph-name="afii10070" horiz-adv-x="614" unicode="е" d="M434 383q0 49 -47 49q-30 0 -46 -20t-24 -63h113q4 26 4 34zM641 387q0 -33 -6 -68l-11 -61q-4 -21 -25 -21h-302q-2 -16 -2 -22q0 -24 17 -33t60 -9q63 0 189 7h4q16 0 16 -11q0 -1 -0.5 -3.5t-0.5 -3.5l-19 -105q-2 -13 -7 -18.5t-17 -10.5q-42 -16 -109 -27t-127 -11 q-100 0 -163.5 54t-63.5 154q0 28 6 60l11 61q27 149 110.5 215t217.5 66q112 0 167 -58.5t55 -154.5z"/>
<glyph glyph-name="afii10072" horiz-adv-x="1018" unicode="ж" d="M457 340l41 229q1 9 9.5 15t17.5 6h179q20 0 16 -21l-41 -229l161 229q14 21 36 21h199q13 0 13 -11q0 -7 -5 -14l-203 -260l115 -281v-10q-2 -14 -14 -14h-216q-22 0 -30 22l-71 229l-41 -229q-4 -22 -22 -22h-179q-9 0 -15.5 6.5t-5.5 15.5l41 229l-153 -229 q-14 -22 -34 -22h-216q-12 0 -12 11q0 9 4 13l213 281l-111 260q-2 7 -1 11q2 14 19 14h199q21 0 28 -21z"/>
<glyph glyph-name="afii10073" horiz-adv-x="575" unicode="з" d="M569 167q-17 -94 -88.5 -135.5t-205.5 -41.5q-55 0 -123 10.5t-94 22.5q-16 6 -16 20q0 1 0.5 3t0.5 4l16 90q4 15 21 15h1q105 -7 189 -7q37 0 52 8.5t18 27.5q1 3 1 9q0 29 -46 29h-152q-7 0 -12 4.5t-4 11.5l21 117q4 16 21 16h141q62 0 69 39q0 1 0.5 3.5t0.5 3.5 q0 14 -13.5 19.5t-45.5 5.5q-29 0 -176 -6h-4q-20 0 -20 15q0 1 0.5 3t0.5 4l17 93q1 7 19 16q32 12 101 22.5t123 10.5q121 0 179 -29.5t58 -99.5q0 -21 -4 -40q-13 -83 -105 -132q62 -30 62 -100q0 -15 -3 -32z"/>
<glyph glyph-name="afii10074" d="M312 337l187 231q18 22 47 22h137q22 0 19 -22l-97 -546q-4 -22 -25 -22h-160q-9 0 -14.5 6.5t-3.5 15.5l36 200l-162 -200q-16 -22 -40 -22h-162q-9 0 -15.5 6.5t-5.5 15.5l97 546q1 9 9.5 15.5t17.5 6.5h160q9 0 13.5 -6.5t2.5 -15.5z" unicode="и"/>
<glyph glyph-name="afii10075" d="M312 337l187 231q18 22 47 22h137q22 0 19 -22l-97 -546q-4 -22 -25 -22h-160q-9 0 -14.5 6.5t-3.5 15.5l36 200l-162 -200q-16 -22 -40 -22h-162q-9 0 -15.5 6.5t-5.5 15.5l97 546q1 9 9.5 15.5t17.5 6.5h160q9 0 13.5 -6.5t2.5 -15.5zM437 631q-147 0 -195 124 q-5 10 -5 20q0 14 14 14h124q14 0 19 -13q6 -11 10.5 -16.5t18.5 -11t34 -5.5q46 0 73 33q10 13 25 13h124q10 0 10 -7q0 -11 -13 -27q-94 -124 -239 -124z" unicode="й"/>
<glyph glyph-name="afii10076" horiz-adv-x="669" unicode="к" d="M647 14q-2 -14 -14 -14h-216q-22 0 -30 22l-71 229l-41 -229q-4 -22 -22 -22h-179q-9 0 -15.5 6.5t-5.5 15.5l97 547q1 9 9.5 15t17.5 6h179q20 0 16 -21l-41 -229l161 229q14 21 36 21h199q13 0 13 -11q0 -7 -5 -14l-203 -260l115 -281v-10z"/>
<glyph glyph-name="afii10077" horiz-adv-x="670" unicode="л" d="M652 17q-2 -17 -19 -17h-197q-9 0 -14.5 6t-5.5 15l-5 337q-2 15 -11 15t-15 -15l-125 -337q-8 -21 -24 -21h-197q-17 0 -17 15q0 1 1 3t1 3l192 440q20 46 46.5 75.5t59 42.5t58.5 17t60 4q27 0 46.5 -2t44 -10t41 -22.5t29 -41t15.5 -63.5l36 -440v-4z"/>
<glyph glyph-name="afii10078" horiz-adv-x="748" unicode="м" d="M797 562l-96 -540q-4 -22 -25 -22h-162q-9 0 -14.5 6.5t-3.5 15.5l43 242q1 5 0 6.5t-5 1.5l-10 -8l-69 -87q-14 -15 -27 -15h-52q-11 0 -20 15l-40 87q-5 8 -8 8t-4.5 -0.5t-1.5 -2t-1 -5.5l-43 -242q-4 -22 -25 -22h-162q-9 0 -14.5 6.5t-3.5 15.5l96 540q1 11 12 19.5 t24 8.5h121q34 0 46 -26l80 -176q3 -8 9 -8t12 8l142 176q21 26 56 26h121q12 0 19.5 -8t5.5 -20z"/>
<glyph glyph-name="afii10079" d="M340 384h106l33 184q4 22 24 22h180q9 0 14.5 -6.5t4.5 -15.5l-97 -546q-4 -22 -25 -22h-180q-9 0 -14.5 6.5t-3.5 15.5l31 174h-106l-31 -174q-4 -22 -22 -22h-180q-9 0 -15.5 6.5t-5.5 15.5l97 546q1 9 9.5 15.5t17.5 6.5h180q9 0 13.5 -6.5t2.5 -15.5z" unicode="н"/>
<glyph glyph-name="afii10080" horiz-adv-x="620" unicode="о" d="M424 365q0 51 -41 51q-53 0 -70 -98l-8 -46q-5 -32 -5 -47q0 -51 41 -51q27 0 43.5 21t26.5 77l8 46q5 32 5 47zM648 389q0 -27 -7 -71l-8 -46q-27 -152 -108 -217t-217 -65q-112 0 -171.5 56.5t-59.5 157.5q0 32 6 68l8 46q26 150 108 216t217 66q111 0 171.5 -54.5 t60.5 -156.5z"/>
<glyph glyph-name="afii10081" d="M340 590h179q88 0 125.5 -26.5t37.5 -81.5q0 -24 -4 -45l-74 -415q-4 -22 -25 -22h-180q-9 0 -14.5 6.5t-3.5 15.5l64 358q0 2 0.5 5t0.5 4q0 13 -16 13h-69q-11 0 -15 -5t-6 -17l-64 -358q-4 -22 -22 -22h-180q-9 0 -15.5 6.5t-5.5 15.5l74 415q14 80 61.5 116.5 t151.5 36.5z" unicode="п"/>
<glyph glyph-name="afii10082" horiz-adv-x="636" unicode="р" d="M424 256l13 78q4 24 4 34q0 48 -42 48q-25 0 -55 -3l-41 -236q48 -3 53 -3q52 0 68 82zM646 256q-22 -124 -104.5 -195t-217.5 -71q-29 0 -53 6l-29 -164q-4 -21 -24 -21h-179q-9 0 -14.5 6t-4.5 15l125 709q2 14 11.5 22t34.5 13q131 24 240 24q110 0 172 -52t62 -151 q0 -30 -6 -63z"/>
<glyph glyph-name="afii10083" horiz-adv-x="475" unicode="с" d="M385 600q72 0 138 -17q18 -5 16 -19l-24 -136q-2 -8 -9 -14.5t-15 -6.5h-1q-15 0 -50.5 3t-56.5 3q-30 0 -44.5 -19.5t-23.5 -65.5l-12 -66q-4 -20 -4 -40q0 -45 42 -45q13 0 109 6h2q18 0 18 -15q0 -1 -0.5 -3t-0.5 -3l-24 -136q-2 -14 -24 -19q-77 -17 -144 -17 q-100 0 -151 57t-51 149q0 32 6 66l12 66q25 138 97 205t195 67z"/>
<glyph glyph-name="afii10084" horiz-adv-x="553" unicode="т" d="M168 22l72 404h-114q-9 0 -14.5 6.5t-3.5 15.5l22 121q4 21 25 21h451q20 0 17 -21l-22 -121q-4 -22 -24 -22h-114l-72 -404q-4 -22 -22 -22h-180q-9 0 -15.5 6.5t-5.5 15.5z"/>
<glyph glyph-name="afii10085" horiz-adv-x="656" unicode="у" d="M731 590q13 0 13 -10q0 -5 -3 -11l-276 -600q-20 -43 -41.5 -72.5t-53.5 -54t-78 -36.5t-107 -12q-33 0 -80 6.5t-67 14.5q-13 5 -16.5 8.5t-2.5 11.5l20 114q4 22 23 22h4q98 -7 149 -7q33 0 44 23l15 34h-13q-34 0 -55.5 16t-27.5 62l-61 470q-1 12 5 16.5t21 4.5h191 q16 0 16 -21l13 -312q0 -14 7 -14h7l121 326q8 21 26 21h207z"/>
<glyph glyph-name="afii10086" horiz-adv-x="922" unicode="ф" d="M340 174q20 0 41 3l41 236q-14 3 -34 3q-35 0 -50 -20t-23 -62l-13 -78q-4 -24 -4 -33q0 -49 42 -49zM710 256l13 78q4 19 4 37q0 45 -47 45q-20 0 -36 -3l-41 -236q18 -3 39 -3q52 0 68 82zM932 256q-22 -124 -104.5 -195t-217.5 -71q-15 0 -39 6l-29 -164 q-4 -21 -24 -21h-179q-9 0 -14.5 6t-4.5 15l29 164q-28 -6 -41 -6q-116 0 -175 53t-59 148q0 31 6 65l13 78q23 129 109 197.5t213 68.5q23 0 40 -1l24 133q1 9 9 15t17 6h179q20 0 17 -21l-24 -133q17 1 40 1q110 0 172 -52t62 -151q0 -30 -6 -63z"/>
<glyph glyph-name="afii10087" horiz-adv-x="667" unicode="х" d="M409 0q-3 0 -6 1t-5 4t-3 5l-3 6l-3 6l-50 119l-83 -120q-15 -21 -26 -21h-195q-12 0 -12 11q0 5 3 10l220 292l-126 256q-2 7 2.5 14t13.5 7h219q13 0 21 -21l46 -108l76 108q15 21 28 21h197q11 0 11 -9q0 -7 -4 -12l-214 -282l132 -265q2 -4 2 -8q0 -14 -15 -14h-226z "/>
<glyph glyph-name="afii10088" horiz-adv-x="694" unicode="ц" d="M417 0h-179q-89 0 -127 26t-38 82q0 24 4 45l74 415q1 9 9.5 15.5t17.5 6.5h180q9 0 13.5 -6.5t2.5 -15.5l-63 -358q-1 -4 -1 -11q0 -11 15 -11h69q11 0 15.5 5t6.5 17l63 358q4 22 24 22h180q9 0 14.5 -6.5t4.5 -15.5l-67 -380h73q8 0 13 -6t3 -14l-47 -268 q-4 -20 -24 -20h-188q-8 0 -13 6t-4 14l18 102q-30 -2 -49 -2z"/>
<glyph glyph-name="afii10089" horiz-adv-x="642" unicode="ч" d="M140 568q4 22 25 22h180q9 0 14.5 -6.5t3.5 -15.5l-37 -207q-2 -12 -2 -17q0 -19 11 -25.5t34 -6.5q27 0 57 15l43 241q4 22 24 22h180q9 0 14.5 -6.5t4.5 -15.5l-97 -548q-4 -20 -22 -20h-182q-8 0 -13.5 6t-4.5 14l27 151q-66 -42 -155 -42q-150 0 -150 152q0 35 8 80z "/>
<glyph glyph-name="afii10090" horiz-adv-x="941" unicode="ш" d="M707 0h-469q-89 0 -127 26t-38 82q0 24 4 45l74 415q1 9 9.5 15.5t17.5 6.5h180q9 0 13.5 -6.5t2.5 -15.5l-63 -358q-1 -4 -1 -11q0 -11 15 -11h68l67 380q4 22 24 22h180q9 0 14.5 -6.5t4.5 -15.5l-67 -380h68q11 0 15.5 5t6.5 17l63 358q4 22 24 22h180q9 0 14.5 -6.5 t4.5 -15.5l-74 -415q-14 -80 -60.5 -116.5t-150.5 -36.5z"/>
<glyph glyph-name="afii10091" horiz-adv-x="993" unicode="щ" d="M707 0h-469q-89 0 -127 26t-38 82q0 24 4 45l74 415q1 9 9.5 15.5t17.5 6.5h180q9 0 13.5 -6.5t2.5 -15.5l-63 -358q-1 -4 -1 -11q0 -11 15 -11h68l67 380q4 22 24 22h180q9 0 14.5 -6.5t4.5 -15.5l-67 -380h68q11 0 15.5 5t6.5 17l63 358q4 22 24 22h180q9 0 14.5 -6.5 t4.5 -15.5l-67 -380h72q8 0 13 -6t3 -14l-47 -268q-4 -20 -24 -20h-188q-8 0 -13 6t-4 14l18 102q-30 -2 -48 -2z"/>
<glyph glyph-name="afii10092" horiz-adv-x="717" unicode="ъ" d="M433 260h-59l-20 -116h59q43 0 63.5 13.5t25.5 42.5v4q2 12 2 15q0 41 -71 41zM413 590q9 0 13.5 -6.5t2.5 -15.5l-27 -153h54q45 0 80 -3t72.5 -13t62 -27t40.5 -47t16 -71q0 -20 -5 -50v-4q-8 -46 -26 -81t-44.5 -57t-56 -37t-68 -22.5t-71.5 -10t-75 -2.5 q-120 0 -254 10q-8 0 -13.5 6t-4.5 14l72 406h-75q-9 0 -14.5 6.5t-3.5 15.5l22 121q4 21 25 21h278z"/>
<glyph glyph-name="afii10093" horiz-adv-x="977" unicode="ы" d="M378 260h-59l-20 -116h59q83 0 90 56q1 7 1 19q0 41 -71 41zM374 568l-27 -153h54q45 0 80 -3t72.5 -13t62 -27t40.5 -47t16 -71q0 -27 -5 -54q-10 -54 -35 -93.5t-56.5 -61.5t-76 -35t-83.5 -16.5t-90 -3.5q-120 0 -254 10q-8 0 -13.5 6t-4.5 14l97 548q1 9 9.5 15.5 t17.5 6.5h180q9 0 13.5 -6.5t2.5 -15.5zM930 22q-4 -22 -24 -22h-179q-9 0 -15.5 6.5t-5.5 15.5l97 547q1 9 9.5 15t17.5 6h179q9 0 14 -6t4 -15z"/>
<glyph glyph-name="afii10094" horiz-adv-x="661" unicode="ь" d="M377 260h-59l-20 -116h59q83 0 90 56q1 7 1 19q0 41 -71 41zM373 568l-27 -153h54q45 0 80 -3t72.5 -13t62 -27t40.5 -47t16 -71q0 -27 -5 -54q-10 -54 -35 -93.5t-56.5 -61.5t-76 -35t-83.5 -16.5t-90 -3.5q-120 0 -254 10q-8 0 -13.5 6t-4.5 14l97 548q1 9 9.5 15.5 t17.5 6.5h180q9 0 13.5 -6.5t2.5 -15.5z"/>
<glyph glyph-name="afii10095" horiz-adv-x="488" unicode="э" d="M53 26l24 136q4 21 22 21h4q62 -6 107 -6q26 0 40 14t22 46h-143q-21 0 -18 21l12 70q5 21 26 21h144q1 7 1 18q0 46 -43 46q-10 0 -109 -6h-2q-17 0 -17 13q0 1 0.5 3.5t0.5 4.5l24 136q2 13 23 19q73 17 144 17q204 0 204 -203q0 -41 -8 -89l-11 -66 q-45 -252 -279 -252q-81 0 -151 17q-19 5 -17 19z"/>
<glyph glyph-name="afii10096" horiz-adv-x="949" unicode="ю" d="M280 22q-4 -22 -24 -22h-179q-8 0 -14.5 5.5t-6.5 13.5v3l97 547q1 9 9.5 15t17.5 6h179q18 0 18 -17v-4l-34 -190h91q69 221 310 221q112 0 172.5 -51.5t60.5 -154.5q0 -38 -7 -76l-9 -46q-56 -282 -324 -282q-232 0 -232 205v10h-92zM739 272l9 46q5 32 5 47 q0 51 -41 51q-27 0 -44 -21t-26 -77l-9 -46q-5 -32 -5 -47q0 -51 41 -51q27 0 44 21t26 77z"/>
<glyph glyph-name="afii10097" horiz-adv-x="676" unicode="я" d="M416 330h45l20 116h-45q-80 0 -89 -56q-1 -9 -1 -18q0 -42 70 -42zM406 22l27 153h-37l-133 -156q-17 -19 -30 -19h-202q-13 0 -13 11q0 7 6 14l164 187q-66 38 -66 124q0 17 5 54q8 55 33 94.5t56.5 61.5t77 34.5t84.5 16t90 3.5q136 0 242 -10q17 -3 17 -15 q0 -1 -0.5 -2.5t-0.5 -2.5l-97 -548q-4 -22 -25 -22h-180q-9 0 -14.5 6.5t-3.5 15.5z"/>
<glyph glyph-name="uni0450" horiz-adv-x="614" unicode="ѐ" d="M511 644q0 -9 -10 -9h-142q-14 0 -23 10l-109 119q-3 5 -3 7q0 8 12 8h177q17 0 27 -15l69 -112q2 -3 2 -8zM434 383q0 49 -47 49q-30 0 -46 -20t-24 -63h113q4 26 4 34zM641 387q0 -33 -6 -68l-11 -61q-4 -21 -25 -21h-302q-2 -16 -2 -22q0 -24 17 -33t60 -9 q105 0 189 7h4q16 0 16 -13l-1 -2v-3l-19 -105q-2 -13 -7 -18.5t-17 -10.5q-42 -16 -109 -27t-127 -11q-100 0 -163.5 54t-63.5 154q0 28 6 60l11 61q27 149 110.5 215t217.5 66q112 0 167 -58.5t55 -154.5z"/>
<glyph glyph-name="afii10071" horiz-adv-x="614" unicode="ё" d="M403 656q-1 -9 -9.5 -15t-17.5 -6h-139q-9 0 -14.5 6t-4.5 15l18 102q1 9 9.5 15t17.5 6h139q9 0 14.5 -6t4.5 -15zM633 656q-1 -9 -9.5 -15t-17.5 -6h-139q-9 0 -14.5 6t-4.5 15l18 102q1 9 9.5 15t17.5 6h139q9 0 14.5 -6t4.5 -15zM429 349q4 24 4 33q0 50 -46 50 q-55 0 -71 -83h113zM624 258q-4 -21 -26 -21h-302q-2 -16 -2 -22q0 -24 17 -33t60 -9q107 0 189 7h4q18 0 15 -18l-18 -105q-4 -21 -25 -29q-98 -38 -235 -38q-103 0 -165 50.5t-62 152.5q0 31 6 65l11 61q25 140 110.5 210.5t216.5 70.5q114 0 169 -53.5t55 -151.5 q0 -38 -7 -76z"/>
<glyph glyph-name="afii10099" d="M600 -11q-20 -109 -75 -154t-140 -45q-44 0 -105 11q-20 4 -17 22l19 108q4 21 25 21h42q21 0 28 37q2 18 65 379q1 5 1 13q0 36 -43 36q-28 0 -58 -15l-67 -380q-4 -22 -22 -22h-180q-9 0 -15.5 6.5t-5.5 15.5l108 613h-35q-8 0 -12.5 6t-2.5 14l10 59q4 20 23 20h35 l4 25q4 20 24 20h182q8 0 13 -6t3 -14l-4 -25h141q8 0 13 -6t3 -14l-10 -59q-4 -20 -24 -20h-141l-13 -77q66 42 154 42q150 0 150 -152q0 -35 -8 -80q-3 -15 -8.5 -50.5t-19 -112.5t-37.5 -216z" unicode="ђ"/>
<glyph glyph-name="afii10100" horiz-adv-x="438" unicode="ѓ" d="M456 402h-95q-8 0 -12 -2.5t-5.5 -6.5t-3.5 -13l-64 -358q-4 -22 -22 -22h-180q-9 0 -15.5 6.5t-5.5 15.5l74 415q15 85 61 119t152 34h150q21 0 18 -20l-26 -145q-4 -23 -26 -23zM574 764l-151 -119q-11 -10 -27 -10h-144q-11 0 -11 10q0 4 3 7l109 112q15 15 32 15h185 q9 0 9 -7q0 -3 -5 -8z"/>
<glyph glyph-name="afii10101" horiz-adv-x="475" unicode="є" d="M444 26q-2 -14 -23 -19q-77 -17 -144 -17q-101 0 -152 52t-51 146q0 38 7 74l11 66q22 127 97 199.5t195 72.5q75 0 138 -17q19 -5 17 -19l-24 -136q-4 -21 -24 -21h-2q-93 6 -107 6q-26 0 -41 -15t-23 -49h144q19 0 19 -16q0 -1 -0.5 -2.5t-0.5 -2.5l-12 -70 q-3 -21 -26 -21h-143q-1 -5 -1 -15q0 -45 43 -45t109 6h4q15 0 15 -13q0 -2 -0.5 -4t-0.5 -4z"/>
<glyph glyph-name="afii10102" horiz-adv-x="540" unicode="ѕ" d="M561 573q17 -4 17 -16v-5l-23 -130q-4 -22 -17 -22q-4 0 -7 1q-108 18 -175 18q-23 0 -23 -11q0 -10 22 -22l79 -42q61 -32 80.5 -68.5t19.5 -84.5q0 -104 -78 -152.5t-215 -48.5q-108 0 -182 26q-18 7 -15 22l22 125q5 24 23 24q1 0 3 -0.5t4 -0.5q123 -19 170 -19 q39 0 39 23q0 9 -19 20l-89 49q-89 50 -89 142q0 199 267 199q91 0 186 -27z"/>
<glyph glyph-name="afii10103" horiz-adv-x="329" unicode="і" d="M280 22q-4 -22 -24 -22h-179q-9 0 -15.5 6.5t-5.5 15.5l97 547q1 9 9.5 15t17.5 6h179q9 0 14 -6t4 -15zM397 656q-1 -9 -9.5 -15t-17.5 -6h-189q-9 0 -14.5 6t-4.5 15l18 102q1 9 9.5 15t17.5 6h189q9 0 14.5 -6t4.5 -15z"/>
<glyph glyph-name="afii10104" horiz-adv-x="329" unicode="ї" d="M257 656q-1 -9 -9.5 -15t-17.5 -6h-138q-9 0 -14.5 6t-4.5 15l18 102q1 9 9.5 15t17.5 6h138q9 0 14.5 -6t4.5 -15zM487 656q-1 -9 -9.5 -15t-17.5 -6h-139q-9 0 -14.5 6t-4.5 15l18 102q1 9 9.5 15t17.5 6h139q9 0 14.5 -6t4.5 -15zM279 22q-4 -22 -24 -22h-179 q-9 0 -15.5 6.5t-5.5 15.5l97 547q1 9 9.5 15t17.5 6h179q9 0 14 -6t4 -15z"/>
<glyph glyph-name="afii10105" horiz-adv-x="329" unicode="ј" d="M273 -11q-20 -109 -75.5 -154t-140.5 -45q-42 0 -102 11q-20 4 -17 22l19 108q1 9 8.5 15t16.5 6h39q21 0 28 37l102 580q1 9 9.5 15t17.5 6h179q9 0 14 -6t4 -15zM395 656q-1 -9 -9.5 -15t-17.5 -6h-189q-9 0 -14.5 6t-4.5 15l18 102q1 9 9.5 15t17.5 6h189q9 0 14.5 -6 t4.5 -15z"/>
<glyph glyph-name="afii10106" horiz-adv-x="1046" unicode="љ" d="M444 590h293q8 0 13 -6t3 -14l-27 -155h54q45 0 80 -3t72.5 -13t62 -27t40.5 -47t16 -71q0 -20 -5 -50v-4q-8 -46 -26 -81t-44.5 -57t-56 -37t-68 -22.5t-71.5 -10t-75 -2.5q-120 0 -254 10q-21 1 -18 20l67 382h-81q-9 0 -15 -15l-139 -366q-8 -21 -24 -21h-197 q-17 0 -17 14q0 1 2 7l190 430q20 46 47.5 75.5t59.5 42.5t58 17t60 4zM757 260h-59l-20 -116h59q43 0 63.5 13.5t25.5 42.5v4q2 12 2 15q0 41 -71 41z"/>
<glyph glyph-name="afii10107" horiz-adv-x="995" unicode="њ" d="M706 260h-59l-20 -116h59q44 0 64 13.5t25 42.5q2 10 2 19q0 41 -71 41zM702 568l-27 -153h54q45 0 80 -3t72.5 -13t62 -27t40.5 -47t16 -71q0 -17 -5 -54q-8 -55 -33 -94.5t-56.5 -61.5t-77 -34.5t-84.5 -16t-90 -3.5q-120 0 -254 10q-21 1 -18 20l31 176h-106l-31 -174 q-4 -22 -22 -22h-180q-9 0 -15.5 6.5t-5.5 15.5l97 546q1 9 9.5 15.5t17.5 6.5h180q9 0 13.5 -6.5t2.5 -15.5l-33 -184h106l33 184q4 22 24 22h180q9 0 14.5 -6.5t4.5 -15.5z"/>
<glyph glyph-name="afii10108" d="M143 734h35l4 25q4 20 24 20h182q8 0 13 -6t3 -14l-4 -25h141q8 0 13 -6t3 -14l-10 -59q-4 -20 -24 -20h-141l-13 -77q66 42 154 42q150 0 150 -152q0 -35 -8 -80l-61 -346q-4 -22 -23 -22h-180q-9 0 -15 6.5t-5 15.5l61 346q1 5 1 13q0 36 -43 36q-28 0 -58 -15 l-67 -380q-4 -22 -22 -22h-180q-9 0 -15.5 6.5t-5.5 15.5l108 613h-35q-8 0 -12.5 6t-2.5 14l10 59q4 20 23 20z" unicode="ћ"/>
<glyph glyph-name="afii10109" horiz-adv-x="669" unicode="ќ" d="M701 772q-2 -4 -7 -8l-151 -119q-11 -10 -27 -10h-145q-8 0 -9.5 6.5t4.5 12.5l107 110q15 15 32 15h185q11 0 11 -7zM646 27q2 -4 2 -12q0 -15 -15 -15h-216q-22 0 -30 22l-71 229l-41 -229q-4 -22 -22 -22h-179q-11 0 -17 6.5t-4 15.5l97 547q4 21 27 21h179 q20 0 16 -21l-41 -229l161 229q15 21 36 21h196q15 0 15 -12q0 -8 -4 -13l-203 -260z"/>
<glyph glyph-name="uni045D" d="M537 644q0 -9 -10 -9h-142q-14 0 -23 10l-109 119q-3 5 -3 7q0 8 12 8h177q17 0 27 -15l69 -112q2 -3 2 -8zM312 337l187 231q18 22 47 22h137q22 0 19 -22l-97 -546q-4 -22 -25 -22h-160q-9 0 -14.5 6.5t-3.5 15.5l36 200l-162 -200q-16 -22 -40 -22h-162 q-9 0 -15.5 6.5t-5.5 15.5l97 546q1 9 9.5 15.5t17.5 6.5h160q9 0 13.5 -6.5t2.5 -15.5z" unicode="ѝ"/>
<glyph glyph-name="afii10110" horiz-adv-x="656" unicode="ў" d="M453 631q-157 0 -205 124q-5 10 -5 20q0 14 14 14h124q14 0 19 -13q6 -11 10.5 -16.5t18.5 -11t34 -5.5q46 0 73 33q10 13 25 13h123q12 0 10 -10q-2 -7 -12 -24q-78 -124 -229 -124zM528 590h201q14 0 14 -11q0 -4 -3 -10l-277 -600q-40 -88 -101.5 -131.5t-178.5 -43.5 q-34 0 -80 6.5t-66 14.5q-19 8 -20 14q-1 2 0 6l21 114q5 22 21 22h5q98 -7 149 -7q20 0 29 5t15 18l15 34h-6q-33 0 -48.5 6t-27 30.5t-18.5 78.5l-56 433q-3 21 21 21h201q16 0 16 -21l13 -312q0 -14 6 -14h7l122 326q8 21 26 21z"/>
<glyph glyph-name="afii10193" d="M77 153l74 415q1 9 9.5 15.5t17.5 6.5h180q9 0 13.5 -6.5t2.5 -15.5l-63 -358q-1 -4 -1 -11q0 -11 15 -11h69q11 0 15.5 5t6.5 17l63 358q4 22 24 22h180q9 0 14.5 -6.5t4.5 -15.5l-74 -415q-13 -75 -55 -111.5t-131 -40.5l-18 -101q-4 -20 -24 -20h-188q-8 0 -13 6 t-4 14l19 100q-76 4 -108.5 30t-32.5 78q0 24 4 45z" unicode="џ"/>
<glyph glyph-name="afii10050" horiz-adv-x="575" unicode="Ґ" d="M640 571q-4 -20 -23 -20h-201q-15 0 -20.5 -1t-10 -5.5t-6.5 -15.5l-90 -509q-4 -20 -22 -20h-195q-8 0 -14 6t-5 14l90 509q11 60 31.5 102t45.5 65.5t64.5 36.5t75.5 16.5t91 3.5h5l12 67q1 8 9 14t16 6h175q8 0 13 -6t3 -14z"/>
<glyph glyph-name="afii10098" horiz-adv-x="438" unicode="ґ" d="M482 425q-2 -9 -9.5 -16t-16.5 -7h-95q-8 0 -12 -2.5t-5.5 -6.5t-3.5 -13l-64 -358q-4 -22 -22 -22h-180q-9 0 -15.5 6.5t-5.5 15.5l74 415q14 80 61.5 116.5t151.5 36.5h7l9 51q4 21 26 21h120q20 0 20 -16q0 -1 -0.5 -2.5t-0.5 -2.5z"/>
<glyph glyph-name="uni04B0" horiz-adv-x="709" unicode="Ұ" d="M595 87h-108l-12 -67q-4 -20 -23 -20h-195q-8 0 -13.5 6t-4.5 14l12 67h-109q-9 0 -14.5 7t-3.5 16l20 115q1 9 9 14.5t17 5.5h109l7 42q-40 18 -59 92l-85 344q-1 2 -1 7q2 13 17 13h216q13 0 17 -20l40 -248q1 -6 5 -6q6 0 7 6l129 248q12 20 25 20h215q11 0 11 -11 q0 -3 -2 -9l-208 -344q-44 -74 -91 -92l-7 -42h108q21 0 18 -20l-20 -115q-2 -9 -9.5 -16t-16.5 -7z"/>
<glyph glyph-name="uni04B1" horiz-adv-x="651" unicode="ұ" d="M520 -135h-107l-6 -33q-2 -9 -8.5 -15t-15.5 -6h-179q-9 0 -14.5 6t-4.5 15l6 33h-108q-9 0 -14.5 7t-3.5 16l11 65q1 9 9 14.5t17 5.5h108l7 39q-51 31 -59 117l-42 440v4q1 7 7.5 12t13.5 5h197q18 0 18 -21l5 -337q2 -15 7 -15t11 15l125 337q8 21 26 21h197 q15 0 15 -15q0 -2 -1 -3.5t-1 -2.5l-198 -440q-39 -85 -99 -117l-7 -39h107q21 0 18 -20l-11 -65q-2 -9 -9.5 -16t-16.5 -7z"/>
<glyph glyph-name="Wgrave" horiz-adv-x="945" unicode="Ẁ" d="M698 803q0 -9 -10 -9h-142q-14 0 -23 10l-109 119q-3 5 -3 7q0 8 12 8h177q17 0 27 -15l69 -112q2 -3 2 -8zM1046 727q0 -3 -2 -9l-208 -655q-13 -41 -35 -57t-59 -16h-103q-36 0 -50.5 13t-20.5 52l-37 228q-2 11 -7 11t-11 -11l-117 -228q-18 -36 -38.5 -50.5 t-56.5 -14.5h-103q-68 0 -68 68v3v2l23 655q1 25 26 25h184q19 0 19 -20v-2l-21 -351v-5q0 -7 5 -7q4 0 11 12l69 133q11 22 23.5 30t38.5 8h110q26 0 36.5 -8.5t13.5 -29.5l21 -133q3 -12 6 -12q7 0 10 12l103 353q5 20 22 20h199q17 0 17 -16z"/>
<glyph glyph-name="wgrave" horiz-adv-x="898" unicode="ẁ" d="M646 644q0 -9 -10 -9h-142q-14 0 -23 10l-109 119q-3 5 -3 7q0 8 12 8h177q17 0 27 -15l69 -112q2 -3 2 -8zM965 590q13 0 13 -8q0 -4 -1 -7l-181 -502q-20 -56 -40 -69.5t-65 -13.5h-94q-41 0 -55.5 14.5t-22.5 63.5l-24 144q-1 9 -7 9t-11 -9l-74 -144 q-25 -49 -45 -63.5t-61 -14.5h-94q-45 0 -59.5 13.5t-15.5 69.5l-5 502q0 15 18 15h199q11 0 11 -16l-14 -298q0 -9 6 -9q5 0 10 9l73 138q11 21 21.5 28.5t30.5 7.5h100q20 0 28 -7.5t12 -28.5l25 -138q2 -13 8 -13q4 0 8 13l90 298q5 16 17 16h199z"/>
<glyph glyph-name="Wacute" horiz-adv-x="945" unicode="Ẃ" d="M830 932q0 -4 -6 -9l-151 -119q-13 -10 -27 -10h-154q-8 0 -8 6q0 5 6 11l107 112q15 15 31 15h191q11 0 11 -6zM1046 727q0 -3 -2 -9l-208 -655q-13 -41 -35 -57t-59 -16h-103q-36 0 -50.5 13t-20.5 52l-37 228q-2 11 -7 11t-11 -11l-117 -228q-18 -36 -38.5 -50.5 t-56.5 -14.5h-103q-68 0 -68 68v3v2l23 655q1 25 26 25h184q19 0 19 -20v-2l-21 -351v-5q0 -7 5 -7q4 0 11 12l69 133q11 22 23.5 30t38.5 8h110q26 0 36.5 -8.5t13.5 -29.5l21 -133q3 -12 6 -12q7 0 10 12l103 353q5 20 22 20h199q17 0 17 -16z"/>
<glyph glyph-name="wacute" horiz-adv-x="898" unicode="ẃ" d="M808 773q0 -5 -6 -9l-151 -119q-13 -10 -27 -10h-154q-8 0 -8 6q0 5 6 11l107 112q15 15 31 15h191q11 0 11 -6zM965 590q13 0 13 -8q0 -4 -1 -7l-181 -502q-20 -56 -40 -69.5t-65 -13.5h-94q-41 0 -55.5 14.5t-22.5 63.5l-24 144q-1 9 -7 9t-11 -9l-74 -144 q-25 -49 -45 -63.5t-61 -14.5h-94q-45 0 -59.5 13.5t-15.5 69.5l-5 502q0 15 18 15h199q11 0 11 -16l-14 -298q0 -9 6 -9q5 0 10 9l73 138q11 21 21.5 28.5t30.5 7.5h100q20 0 28 -7.5t12 -28.5l25 -138q2 -13 8 -13q4 0 8 13l90 298q5 16 17 16h199z"/>
<glyph glyph-name="Wdieresis" horiz-adv-x="945" unicode="Ẅ" d="M601 920v-3l-18 -102q-1 -9 -9.5 -15t-17.5 -6h-139q-8 0 -13.5 5t-5.5 13v3l18 102q4 21 26 21h139q8 0 14 -5.5t6 -12.5zM831 920v-3l-18 -102q-1 -9 -9.5 -15t-17.5 -6h-139q-8 0 -13.5 5t-5.5 13v3l18 102q4 21 26 21h139q8 0 14 -5.5t6 -12.5zM1046 727q0 -3 -2 -9 l-208 -655q-13 -41 -35 -57t-59 -16h-103q-36 0 -50.5 13t-20.5 52l-37 228q-2 11 -7 11t-11 -11l-117 -228q-18 -36 -38.5 -50.5t-56.5 -14.5h-103q-68 0 -68 68v3v2l23 655q1 25 26 25h184q19 0 19 -20v-2l-21 -351v-5q0 -7 5 -7q4 0 11 12l69 133q11 22 23.5 30t38.5 8 h110q26 0 36.5 -8.5t13.5 -29.5l21 -133q3 -12 6 -12q7 0 10 12l103 353q5 20 22 20h199q17 0 17 -16z"/>
<glyph glyph-name="wdieresis" horiz-adv-x="898" unicode="ẅ" d="M559 761v-3l-18 -102q-1 -9 -9.5 -15t-17.5 -6h-139q-8 0 -13.5 5t-5.5 13v3l18 102q4 21 26 21h139q8 0 14 -5.5t6 -12.5zM789 761v-3l-18 -102q-1 -9 -9.5 -15t-17.5 -6h-139q-8 0 -13.5 5t-5.5 13v3l18 102q4 21 26 21h139q8 0 14 -5.5t6 -12.5zM965 590q13 0 13 -8 q0 -4 -1 -7l-181 -502q-20 -56 -40 -69.5t-65 -13.5h-94q-41 0 -55.5 14.5t-22.5 63.5l-24 144q-1 9 -7 9t-11 -9l-74 -144q-25 -49 -45 -63.5t-61 -14.5h-94q-45 0 -59.5 13.5t-15.5 69.5l-5 502q0 15 18 15h199q11 0 11 -16l-14 -298q0 -9 6 -9q5 0 10 9l73 138 q11 21 21.5 28.5t30.5 7.5h100q20 0 28 -7.5t12 -28.5l25 -138q2 -13 8 -13q4 0 8 13l90 298q5 16 17 16h199z"/>
<glyph glyph-name="Ygrave" horiz-adv-x="709" unicode="Ỳ" d="M594 803q0 -9 -10 -9h-142q-14 0 -23 10l-109 119q-3 5 -3 7q0 8 12 8h177q17 0 27 -15l69 -112q2 -3 2 -8zM824 732q0 -4 -3 -9l-207 -344q-44 -74 -91 -92l-47 -267q-1 -8 -9 -14t-16 -6h-195q-16 0 -16 16v4l47 267q-41 18 -59 92l-86 344v4q0 16 16 16h211 q13 0 17 -20l41 -248q1 -6 5 -6t7 6l128 248q10 20 25 20h220q12 0 12 -11z"/>
<glyph glyph-name="ygrave" horiz-adv-x="656" unicode="ỳ" d="M536 644q0 -9 -10 -9h-142q-14 0 -23 10l-109 119q-3 5 -3 7q0 8 12 8h177q17 0 27 -15l69 -112q2 -3 2 -8zM726 590q17 0 17 -10q0 -5 -3 -11l-276 -600q-20 -43 -41.5 -72.5t-53.5 -54t-78 -36.5t-107 -12q-33 0 -80 6.5t-67 14.5q-13 5 -16.5 8.5t-2.5 11.5l20 114 q4 22 23 22h4q98 -7 149 -7q33 0 44 23l15 34h-13q-34 0 -55.5 16t-27.5 62l-61 470q-1 12 5 16.5t21 4.5h191q16 0 16 -21l13 -312q0 -14 7 -14h7l121 326q8 21 26 21h203z"/>
<glyph glyph-name="endash" horiz-adv-x="339" unicode="–" d="M397 244q-4 -20 -24 -20h-329q-8 0 -13 6t-3 14l18 106q4 20 24 20h329q8 0 13 -6t3 -14z"/>
<glyph glyph-name="emdash" horiz-adv-x="662" unicode="—" d="M720 244q-4 -20 -24 -20h-652q-8 0 -13 6t-3 14l18 106q4 20 24 20h652q8 0 13 -6t3 -14z"/>
<glyph glyph-name="quoteleft" horiz-adv-x="290" unicode="‘" d="M412 772q0 -6 -3 -12l-104 -242q-8 -19 -23 -19h-169q-10 0 -10 9q0 4 3 10l131 242q10 19 22 19h145q8 0 8 -7z"/>
<glyph glyph-name="quoteright" horiz-adv-x="290" unicode="’" d="M412 770q0 -4 -3 -10l-131 -242q-10 -19 -22 -19h-145q-8 0 -8 7q0 6 3 12l104 242q8 19 23 19h169q10 0 10 -9z"/>
<glyph glyph-name="quotesinglbase" horiz-adv-x="290" unicode="‚" d="M317 180q0 -4 -3 -8l-156 -252q-12 -20 -24 -20h-127q-17 0 -17 14q0 4 1 6l114 252q9 20 25 20h173q14 0 14 -12z"/>
<glyph glyph-name="quotedblleft" horiz-adv-x="547" unicode="“" d="M412 772q0 -6 -3 -12l-104 -242q-8 -19 -23 -19h-169q-10 0 -10 9q0 4 3 10l131 242q10 19 22 19h145q8 0 8 -7zM669 772q0 -6 -3 -12l-104 -242q-8 -19 -23 -19h-169q-10 0 -10 9q0 4 3 10l131 242q10 19 22 19h145q8 0 8 -7z"/>
<glyph glyph-name="quotedblright" horiz-adv-x="547" unicode="”" d="M412 770q0 -4 -3 -10l-131 -242q-10 -19 -22 -19h-145q-8 0 -8 7q0 6 3 12l104 242q8 19 23 19h169q10 0 10 -9zM669 770q0 -4 -3 -10l-131 -242q-10 -19 -22 -19h-145q-8 0 -8 7q0 6 3 12l104 242q8 19 23 19h169q10 0 10 -9z"/>
<glyph glyph-name="quotedblbase" horiz-adv-x="547" unicode="„" d="M305 180q0 -5 -2 -8l-156 -252q-12 -20 -24 -20h-127q-17 0 -17 14q0 4 1 6l114 252q9 20 24 20h173q14 0 14 -12zM585 180q0 -5 -2 -8l-156 -252q-12 -20 -24 -20h-127q-17 0 -17 14q0 4 1 6l114 252q9 20 24 20h173q14 0 14 -12z"/>
<glyph glyph-name="bullet" horiz-adv-x="418" unicode="•" d="M443 367q0 -72 -51 -123t-123 -51t-123 51t-51 123t51 123t123 51t123 -51t51 -123z"/>
<glyph glyph-name="guilsinglleft" horiz-adv-x="436" unicode="‹" d="M503 523q0 -7 -8 -15l-219 -214l128 -214q4 -8 4 -11q0 -12 -14 -12h-160q-20 0 -26 10l-126 206q-8 13 -8 24q0 16 16 34l183 190q9 10 30 10h190q10 0 10 -8z"/>
<glyph glyph-name="guilsinglright" horiz-adv-x="436" unicode="›" d="M463 291q0 -16 -16 -34l-183 -190q-9 -10 -30 -10h-190q-10 0 -10 8q0 7 8 15l219 214l-128 214q-4 8 -4 11q0 12 14 12h160q20 0 26 -10l126 -206q8 -13 8 -24z"/>
<glyph glyph-name="fraction" horiz-adv-x="262" unicode="⁄" d="M559 734q0 -5 -5 -12l-542 -707q-12 -15 -24 -15h-142q-11 0 -11 11q0 6 4 11l542 706q11 15 26 15h142q10 0 10 -9z"/>
<glyph glyph-name="zero.superior" horiz-adv-x="369" unicode="⁰" d="M328 717l11 60q4 24 4 41q0 29 -20 29q-14 0 -22.5 -14t-16.5 -56l-11 -60q-5 -30 -5 -41q0 -28 20 -28q14 0 23 13.5t17 55.5zM458 717q-17 -97 -63.5 -138.5t-126.5 -41.5q-64 0 -97 35t-33 97q0 25 4 48l11 60q16 92 61.5 136t127.5 44q65 0 98.5 -33.5t33.5 -96.5 q0 -20 -5 -50z"/>
<glyph glyph-name="four.superior" horiz-adv-x="369" unicode="⁴" d="M302 718l16 90l-86 -90h70zM449 632q-2 -11 -13 -11h-28l-12 -67q-2 -11 -13 -11h-107q-11 0 -9 11l12 67h-148q-11 0 -9 11l13 72q1 7 8 15l224 230q3 3 8 3h5h76q11 0 9 -11l-40 -223h28q12 0 9 -11z"/>
<glyph glyph-name="five.superior" horiz-adv-x="369" unicode="⁵" d="M299 849l-12 -45h29q126 0 126 -89q0 -85 -52 -131.5t-140 -46.5q-62 0 -110 21q-11 4 -10 11l12 66q2 11 13 11h1q45 -6 83 -6q43 0 55.5 9.5t12.5 37.5q0 20 -35 20h-107q-11 0 -9 10v1l57 223q2 11 13 11h241q11 0 9 -11l-15 -81q-2 -11 -13 -11h-149z"/>
<glyph glyph-name="six.superior" horiz-adv-x="369" unicode="⁶" d="M275 723l-7 -40q-2 -9 -2 -23q0 -27 20 -27q14 0 25.5 20.5t11.5 48.5q0 23 -21 23q-7 0 -16 -1t-11 -1zM290 805q28 4 41 4q121 0 121 -93q0 -79 -50 -129t-133 -50q-61 0 -95.5 31.5t-34.5 84.5q0 20 2 30l22 125q27 149 180 149q64 0 119 -17q11 -3 9 -14l-12 -68 q-1 -13 -14 -11q-44 7 -96 7q-29 0 -41.5 -8.5t-17.5 -37.5v-3z"/>
<glyph glyph-name="seven.superior" horiz-adv-x="369" unicode="⁷" d="M463 855l-201 -301q-7 -11 -16 -11h-114q-7 0 -7 5q0 2 2 6l201 295h-138q-10 0 -9 11l15 81q2 11 13 11h268q11 0 9 -11l-8 -47q-3 -21 -15 -39z"/>
<glyph glyph-name="eight.superior" horiz-adv-x="369" unicode="⁸" d="M282 631h7q16 0 27 13t11 40q0 26 -24 26h-7q-19 0 -29.5 -15.5t-10.5 -37.5q0 -26 26 -26zM311 795h7q14 0 25.5 10t11.5 32q0 26 -25 26h-7q-17 0 -27 -12.5t-10 -31.5q0 -24 25 -24zM265 537q-65 0 -100.5 30t-35.5 81q0 68 60 106q-27 25 -27 67q0 136 177 136h7 q68 0 101.5 -25.5t33.5 -67.5q0 -36 -17 -67.5t-38 -42.5q28 -26 28 -75q0 -61 -44.5 -101.5t-137.5 -40.5h-7z"/>
<glyph glyph-name="nine.superior" horiz-adv-x="369" unicode="⁹" d="M333 772l7 40q2 9 2 23q0 27 -20 27q-14 0 -26 -21t-12 -49q0 -22 21 -22q18 0 28 2zM445 687q-26 -150 -181 -150q-66 0 -118 18q-11 3 -9 14l12 68q1 13 14 11q50 -8 95 -8q29 0 42 9t18 38v2q-28 -4 -41 -4q-120 0 -120 93q0 82 46 130.5t135 48.5q62 0 97 -28.5 t35 -82.5q0 -16 -3 -34z"/>
<glyph glyph-name="n.superior" horiz-adv-x="375" unicode="ⁿ" d="M420 363q-4 -14 -16 -14h-98q-15 0 -12 14l32 183q2 9 2 15q0 16 -23 16q-15 0 -29 -7l-36 -207q-3 -14 -16 -14h-98q-14 0 -11 14l52 300q3 13 16 13h89q12 0 10 -13l-2 -11q40 29 85 29q92 0 92 -86q0 -23 -4 -43z"/>
<glyph glyph-name="zero.inferior" horiz-adv-x="369" unicode="₀" d="M231 -35l11 60q4 24 4 41q0 29 -20 29q-14 0 -22.5 -14t-16.5 -56l-11 -60q-5 -30 -5 -41q0 -28 20 -28q14 0 23 13.5t17 55.5zM361 -35q-17 -97 -63.5 -138.5t-126.5 -41.5q-64 0 -97 35t-33 97q0 25 4 48l11 60q16 92 61.5 136t127.5 44q65 0 98.5 -33.5t33.5 -96.5 q0 -20 -5 -50z"/>
<glyph glyph-name="one.inferior" horiz-adv-x="277" unicode="₁" d="M233 -197q-4 -11 -13 -11h-117q-5 0 -7.5 3.5t-1.5 7.5l46 265l-60 -22q-6 -2 -7 -2q-4 0 -4 7l18 98q1 8 9 11l96 38q8 3 13 3h87q11 0 9 -11z"/>
<glyph glyph-name="two.inferior" horiz-adv-x="367" unicode="₂" d="M376 119q0 -90 -117 -151q-70 -38 -86 -61h146q15 0 13 -15l-15 -86q-3 -15 -19 -15h-259q-16 0 -13 15l10 59q20 105 131 171q13 8 26.5 16.5t21.5 13t12 7.5q11 7 11 17t-37 10t-103 -6h-1q-7 0 -10.5 5t-1.5 11l11 62q1 9 16 15q65 23 131 23q133 0 133 -91z"/>
<glyph glyph-name="three.inferior" horiz-adv-x="366" unicode="₃" d="M59 -94h1q67 -5 114 -5q38 0 38 33q0 17 -22 17h-92q-16 0 -14 16l13 69q2 16 18 16h85q38 0 38 29q0 19 -29 19q-42 0 -112 -5h-1q-15 0 -12 15l10 59q1 9 4 12t13 7q50 22 128 22q136 0 136 -94q0 -12 -3 -26q-8 -53 -61 -86q32 -21 32 -66q0 -73 -48.5 -110 t-129.5 -37q-83 0 -127 24q-9 5 -8 13l11 63q3 15 18 15z"/>
<glyph glyph-name="four.inferior" horiz-adv-x="369" unicode="₄" d="M205 -34l16 90l-86 -90h70zM352 -120q-2 -11 -13 -11h-28l-12 -67q-2 -11 -13 -11h-107q-11 0 -9 11l12 67h-148q-11 0 -9 11l13 72q1 7 8 15l224 230q3 3 8 3h5h76q11 0 9 -11l-40 -223h28q12 0 9 -11z"/>
<glyph glyph-name="five.inferior" horiz-adv-x="369" unicode="₅" d="M202 97l-12 -45h29q126 0 126 -89q0 -85 -52 -131.5t-140 -46.5q-62 0 -110 21q-11 4 -10 11l12 66q2 11 13 11h1q45 -6 83 -6q43 0 55.5 9.5t12.5 37.5q0 20 -35 20h-107q-11 0 -9 10v1l57 223q2 11 13 11h241q11 0 9 -11l-15 -81q-2 -11 -13 -11h-149z"/>
<glyph glyph-name="six.inferior" horiz-adv-x="369" unicode="₆" d="M178 -29l-7 -40q-2 -9 -2 -23q0 -27 20 -27q14 0 25.5 20.5t11.5 48.5q0 23 -21 23q-7 0 -16 -1t-11 -1zM193 53q28 4 41 4q121 0 121 -93q0 -79 -50 -129t-133 -50q-61 0 -95.5 31.5t-34.5 84.5q0 20 2 30l22 125q27 149 180 149q64 0 119 -17q11 -3 9 -14l-12 -68 q-1 -13 -14 -11q-44 7 -96 7q-29 0 -41.5 -8.5t-17.5 -37.5v-3z"/>
<glyph glyph-name="seven.inferior" horiz-adv-x="369" unicode="₇" d="M366 103l-201 -301q-7 -11 -16 -11h-114q-7 0 -7 5q0 2 2 6l201 295h-138q-10 0 -9 11l15 81q2 11 13 11h268q11 0 9 -11l-8 -47q-3 -21 -15 -39z"/>
<glyph glyph-name="eight.inferior" horiz-adv-x="369" unicode="₈" d="M185 -121h7q16 0 27 13t11 40q0 26 -24 26h-7q-19 0 -29.5 -15.5t-10.5 -37.5q0 -26 26 -26zM214 43h7q14 0 25.5 10t11.5 32q0 26 -25 26h-7q-17 0 -27 -12.5t-10 -31.5q0 -24 25 -24zM168 -215q-65 0 -100.5 30t-35.5 81q0 68 60 106q-27 25 -27 67q0 136 177 136h7 q68 0 101.5 -25.5t33.5 -67.5q0 -36 -17 -67.5t-38 -42.5q28 -26 28 -75q0 -61 -44.5 -101.5t-137.5 -40.5h-7z"/>
<glyph glyph-name="nine.inferior" horiz-adv-x="369" unicode="₉" d="M236 20l7 40q2 9 2 23q0 27 -20 27q-14 0 -26 -21t-12 -49q0 -22 21 -22q18 0 28 2zM348 -65q-26 -150 -181 -150q-66 0 -118 18q-11 3 -9 14l12 68q1 13 14 11q50 -8 95 -8q29 0 42 9t18 38v2q-28 -4 -41 -4q-120 0 -120 93q0 82 46 130.5t135 48.5q62 0 97 -28.5 t35 -82.5q0 -16 -3 -34z"/>
<glyph glyph-name="Euro" horiz-adv-x="670" unicode="€" d="M710 717v-2q-1 -2 -1 -3l-26 -145q-3 -18 -19 -18h-4q-81 11 -108 11q-43 0 -70 -15t-39 -60h157q14 0 14 -9q0 -5 -3 -11l-20 -47q-8 -20 -23 -20h-149l-9 -51h136q15 0 15 -10q0 -4 -3 -10l-20 -47q-9 -20 -22 -20h-114v-5v-10q0 -38 23 -50t65 -12q16 0 35.5 2t41.5 5 t30 4h4q14 0 14 -13l-1 -2v-3l-26 -145q-1 -10 -5.5 -13.5t-18.5 -8.5q-59 -19 -135 -19q-129 0 -199 70t-70 185v9v6h-58q-15 0 -15 16v4l9 47q4 20 20 20h55l9 51h-53q-15 0 -15 16v4l8 47q4 20 21 20h59q31 141 115.5 204.5t231.5 63.5q89 0 144 -19q18 -10 19 -17z"/>
<glyph glyph-name="uni20B4" horiz-adv-x="624" unicode="₴" d="M78 251h-34q-8 0 -13 6t-4 14l9 47q4 20 23 20h61q22 28 52 51h-104q-8 0 -13 6t-3 14l8 47q4 20 23 20h253l56 27q40 19 43 32q1 7 -2.5 11.5t-15.5 4.5q-84 0 -246 -15h-2q-7 0 -11.5 6t-2.5 14l26 149q3 14 23 20q36 11 110.5 19.5t137.5 8.5q236 0 236 -158 q0 -25 -4 -45q-6 -39 -22 -74h24q8 0 13 -6t4 -14l-8 -47q-4 -20 -24 -20h-73q-31 -28 -70 -48l-6 -3h140q8 0 13 -6t4 -14l-9 -47q-4 -20 -23 -20h-291q-25 -14 -27 -28q0 -1 -0.5 -4t-0.5 -4q0 -23 32 -23q72 0 218 17h2q8 0 13 -6.5t3 -13.5l-26 -149q-3 -14 -25 -20 q-104 -30 -220 -30q-130 0 -192.5 56t-62.5 141q0 23 4 42z"/>
<glyph glyph-name="afii61352" horiz-adv-x="1309" unicode="№" d="M1219 0h-407q-9 0 -14.5 6.5t-4.5 15.5l16 91q5 21 25 21h407q18 0 18 -16q0 -1 -0.5 -2.5t-0.5 -2.5l-16 -91q-4 -22 -23 -22zM1140 457l3 15q4 23 4 42q0 46 -36 46q-25 0 -39.5 -19t-23.5 -69l-3 -15q-4 -23 -4 -42q0 -26 9 -36t28 -10q24 0 38.5 19t23.5 69z M1339 457q-22 -127 -97.5 -190t-193.5 -63q-208 0 -208 185q0 32 9 83q22 127 97.5 190t193.5 63q100 0 154 -46t54 -139q0 -33 -9 -83zM709 35q-3 -14 -14.5 -24.5t-25.5 -10.5h-171q-21 0 -30 22l-116 275q-3 8 -9 8q-5 0 -6 -9l-49 -276q-4 -20 -23 -20h-183q-8 0 -14 6 t-5 14l121 688q3 14 15.5 24.5t26.5 10.5h164q21 0 33 -28l119 -276q3 -9 8 -9t7 9l50 284q4 20 24 20h183q8 0 13 -6t3 -14z"/>
<glyph glyph-name="uni2215" horiz-adv-x="262" unicode="∕" d="M559 734q0 -5 -5 -12l-542 -707q-12 -15 -24 -15h-142q-11 0 -11 11q0 6 4 11l542 706q11 15 26 15h142q10 0 10 -9z"/>
</font>
</defs>
</svg>
