<?xml version="1.0" encoding="UTF-8" standalone="no"?>
<!DOCTYPE svg  PUBLIC '-//W3C//DTD SVG 1.1//EN'  'http://www.w3.org/Graphics/SVG/1.1/DTD/svg11.dtd'>
<svg xmlns="http://www.w3.org/2000/svg">
<defs>
<font id="NeoSansW1G-Regular" horiz-adv-x="605">
<font-face underline-position="-21" font-weight="400" descent="-200" panose-1="2 11 5 4 3 5 4 4 2 4" units-per-em="1000" unicode-range="U+0020-2215" bbox="-123 -216 1094 980" x-height="550" underline-thickness="57" font-family="NeoSansW1G" ascent="800" cap-height="743"/>
<missing-glyph horiz-adv-x="1000"/>
<glyph glyph-name="IJ" horiz-adv-x="524" unicode="IJ" d="M446 -37q0 -73 -37 -108t-118 -35q-37 0 -53 8q-6 3 -6 11v37q0 17 20 17h39q38 0 51 15.5t13 54.5v761q0 8 5.5 13.5t13.5 5.5h53q7 0 13 -5.5t6 -13.5v-761zM179 20q0 -8 -5 -14t-13 -6h-55q-7 0 -12.5 6t-5.5 14v704q0 19 18 19h55q8 0 13 -5.5t5 -13.5v-704z"/>
<glyph glyph-name="ij" horiz-adv-x="494" unicode="ij" d="M414 -64q0 -75 -30.5 -104t-94.5 -29q-27 0 -54 4q-18 3 -18 16v37q0 14 21 14h41q28 0 37.5 12t9.5 50v594q0 8 5 14t13 6h52q18 0 18 -20v-594zM416 657q0 -8 -6 -13.5t-14 -5.5h-51q-8 0 -14 5.5t-6 13.5v81q0 8 6 14t14 6h51q8 0 14 -6t6 -14v-81zM167 20 q0 -8 -6 -14t-14 -6h-48q-8 0 -14 6t-6 14v510q0 8 6 14t14 6h48q8 0 14 -6t6 -14v-510zM169 658q0 -8 -6 -14t-14 -6h-51q-8 0 -14 6t-6 14v80q0 8 6 14t14 6h51q8 0 14 -6t6 -14v-80z"/>
<glyph glyph-name="napostrophe" horiz-adv-x="663" unicode='&quot;n' d="M595 20q0 -8 -6 -14t-14 -6h-48q-8 0 -14 6t-6 14v329q0 74 -25.5 103t-84.5 29q-57 0 -135 -39v-422q0 -8 -6 -14t-14 -6h-49q-8 0 -13.5 6t-5.5 14v510q0 8 5.5 14t13.5 6h50q8 0 13.5 -6t5.5 -14v-19q82 46 159 46q174 0 174 -208v-329zM157 741q0 -5 -1 -8l-61 -189 q-5 -19 -19 -19h-38q-9 0 -9 10q0 6 1 9l37 189q4 19 20 19h59q11 0 11 -11z"/>
<glyph glyph-name=".notdef" horiz-adv-x="1000"/>
<glyph glyph-name=".null" horiz-adv-x="0"/>
<glyph glyph-name="nonmarkingreturn" horiz-adv-x="333"/>
<glyph glyph-name="space" horiz-adv-x="247" unicode=" "/>
<glyph glyph-name="exclam" horiz-adv-x="217" unicode="!" d="M152 19q0 -19 -19 -19h-48q-8 0 -13.5 5.5t-5.5 13.5v94q0 8 5.5 13.5t13.5 5.5h48q8 0 13.5 -5.5t5.5 -13.5v-94zM154 733l-8 -520q0 -8 -5.5 -13.5t-13.5 -5.5h-36q-8 0 -14 6t-6 13l-7 520q0 8 6 13.5t14 5.5h50q8 0 14 -5.5t6 -13.5z"/>
<glyph glyph-name="quotedbl" horiz-adv-x="362" unicode='&quot;' d="M163 741q0 -5 -1 -8l-58 -189q-5 -19 -19 -19h-47q-9 0 -9 10q0 6 1 9l46 189q4 19 20 19h56q11 0 11 -11zM333 741q0 -5 -1 -8l-58 -189q-5 -19 -19 -19h-47q-9 0 -9 10q0 6 1 9l46 189q4 19 20 19h56q11 0 11 -11z"/>
<glyph glyph-name="numbersign" horiz-adv-x="660" unicode="#" d="M413 469h-155l-18 -202h155zM610 512v-2l-2 -22q-2 -19 -20 -19h-97l-18 -202h98q16 0 16 -19v-2l-2 -21q-2 -19 -20 -19h-98l-16 -187q-2 -19 -18 -19h-44q-16 0 -16 17v2l16 187h-155l-16 -187q-2 -19 -18 -19h-45q-7 0 -11.5 5t-4.5 12v2l16 187h-93q-16 0 -16 19v2 l2 21q2 19 20 19h93l18 202h-94q-16 0 -16 19v2l2 22q2 19 20 19h93l17 193q1 8 6.5 13.5t12.5 5.5h45q15 0 15 -17v-2l-17 -193h155l17 193q2 19 19 19h44q15 0 15 -17v-2l-17 -193h98q16 0 16 -19z"/>
<glyph glyph-name="dollar" d="M528 193q0 -74 -42 -128t-141 -68v-94q0 -8 -6 -14t-14 -6h-47q-8 0 -14 6t-6 14v90q-72 1 -143 14q-12 2 -15.5 5.5t-3.5 12.5v41q0 16 17 16h3q104 -9 165 -9q84 0 118 31t34 89q0 37 -25 64t-95 70l-97 59q-72 44 -105 86.5t-33 100.5q0 152 180 174v86q0 8 6 14t14 6 h47q8 0 14 -6t6 -14v-83q80 -3 146 -13q17 -3 17 -17v-43q0 -16 -17 -16h-2q-132 9 -172 9q-79 0 -113 -21.5t-34 -75.5q0 -34 24 -59t85 -62l92 -55q87 -51 122 -97.5t35 -106.5z" unicode="$"/>
<glyph glyph-name="percent" horiz-adv-x="794" unicode="%" d="M252 496v93q0 105 -72 105q-73 0 -73 -105v-93q0 -105 73 -105q72 0 72 105zM687 155v93q0 105 -72 105q-73 0 -73 -105v-93q0 -105 73 -105q72 0 72 105zM314 496q0 -80 -35 -121t-99 -41t-99.5 41t-35.5 121v93q0 81 35 121t100 40q134 0 134 -161v-93zM650 737 q0 -3 -5 -13l-418 -708q-11 -20 -22 -20h-49q-10 0 -10 8q0 7 4 12l418 708q11 19 23 19h51q8 0 8 -6zM749 155q0 -80 -35 -121t-99 -41t-99.5 41t-35.5 121v93q0 81 35.5 121.5t99.5 40.5t99 -40.5t35 -121.5v-93z"/>
<glyph glyph-name="ampersand" horiz-adv-x="678" unicode="&amp;" d="M447 113l-199 213q-60 -38 -81.5 -67t-21.5 -75v-8q0 -57 43.5 -85.5t109.5 -28.5q90 0 149 51zM412 583v8q0 92 -116 92q-128 0 -128 -92v-8q0 -31 15 -60t70 -90l10 -11l34 21q72 44 93.5 71t21.5 69zM641 11q0 -11 -11 -11h-69q-9 0 -16 7l-50 54q-79 -68 -197 -68 q-48 0 -90 10t-78 30.5t-56.5 57t-20.5 85.5v8q0 61 33 104t111 93l-7 8q-65 74 -84.5 115t-19.5 79v8q0 78 55.5 118.5t154.5 40.5q87 0 143 -41.5t56 -117.5v-8q0 -53 -31 -95t-122 -103l-28 -19l181 -195q39 69 39 176v14q0 16 16 16h43q17 0 17 -16v-14q0 -137 -63 -230 l89 -95q5 -5 5 -11z"/>
<glyph glyph-name="quotesingle" horiz-adv-x="192" unicode="&apos;" d="M163 741q0 -5 -1 -8l-58 -189q-5 -19 -19 -19h-47q-9 0 -9 10q0 6 1 9l46 189q4 19 20 19h56q11 0 11 -11z"/>
<glyph glyph-name="parenleft" horiz-adv-x="305" unicode="(" d="M280 -201q0 -8 -10 -8h-47q-14 0 -23 11q-66 80 -103 204.5t-37 258.5v13q0 134 37 258.5t103 204.5q9 11 23 11h47q10 0 10 -8q0 -6 -3 -10q-129 -190 -129 -456v-13q0 -266 129 -456q3 -5 3 -10z"/>
<glyph glyph-name="parenright" horiz-adv-x="305" unicode=")" d="M259 265q0 -134 -37 -258.5t-103 -204.5q-9 -11 -23 -11h-47q-10 0 -10 8q0 5 3 10q129 190 129 456v13q0 266 -129 456q-3 5 -3 10q0 8 10 8h47q14 0 23 -11q66 -80 103 -204.5t37 -258.5v-13z"/>
<glyph glyph-name="asterisk" horiz-adv-x="465" unicode="*" d="M419 598q0 -10 -14 -15l-125 -39l77 -106q5 -7 5 -13q0 -7 -6 -11l-24 -18q-4 -3 -8 -3q-8 0 -15 10l-76 106l-76 -106q-7 -10 -15 -10q-4 0 -8 3l-25 18q-6 4 -6 11q0 6 5 13l78 106l-124 39q-15 6 -15 15q0 1 0.5 2.5t0.5 2.5l9 29q3 10 13 10q3 0 9 -2l124 -41v131 q0 19 15 19h30q15 0 15 -19l-1 -131l125 41q6 2 9 2q10 0 13 -10l9 -29q1 -2 1 -5z"/>
<glyph glyph-name="plus" d="M530 371q0 -16 -20 -16h-172v-171q0 -20 -16 -20h-40q-16 0 -16 20v171h-171q-20 0 -20 16v40q0 16 20 16h171v172q0 20 16 20h40q16 0 16 -20v-172h172q20 0 20 -16v-40z" unicode="+"/>
<glyph glyph-name="comma" horiz-adv-x="214" unicode="," d="M169 118q0 -2 -2 -8l-75 -189q-7 -19 -19 -19h-41q-12 0 -12 12q0 5 1 7l57 189q6 19 20 19h58q13 0 13 -11z"/>
<glyph glyph-name="hyphen" horiz-adv-x="333" unicode="-" d="M285 273q0 -17 -19 -17h-199q-19 0 -19 17v39q0 8 5.5 13t13.5 5h199q19 0 19 -18v-39z"/>
<glyph glyph-name="period" horiz-adv-x="214" unicode="." d="M150 21q0 -8 -5.5 -14t-13.5 -6h-48q-8 0 -13.5 6t-5.5 14v93q0 8 5.5 13.5t13.5 5.5h48q8 0 13.5 -5.5t5.5 -13.5v-93z"/>
<glyph glyph-name="slash" horiz-adv-x="355" unicode="/" d="M333 729q0 -4 -1 -6l-226 -703q-6 -20 -18 -20h-51q-14 0 -14 14q0 4 1 6l227 703q6 20 17 20h51q14 0 14 -14z"/>
<glyph glyph-name="zero" d="M457 304v135q0 234 -154 234t-154 -234v-135q0 -234 154 -234t154 234zM548 304q0 -311 -245 -311q-246 0 -246 311v135q0 311 246 311q245 0 245 -311v-135z" unicode="0"/>
<glyph glyph-name="one" d="M500 0h-410q-20 0 -20 18v44q0 17 20 17h159v570l-157 -66q-22 -8 -22 8v51q0 7 10 13l179 82q12 6 21 6h41q8 0 13.5 -5.5t5.5 -13.5v-645h160q20 0 20 -17v-44q0 -18 -20 -18z" unicode="1"/>
<glyph glyph-name="two" d="M526 571q0 -58 -29.5 -101.5t-100.5 -91.5l-96 -65q-82 -55 -111 -100.5t-29 -112.5v-21h337q20 0 20 -17v-44q0 -18 -20 -18h-397q-8 0 -14 5.5t-6 13.5v81q0 161 153 263l101 68q63 43 83 69.5t20 70.5q0 54 -35 78.5t-115 24.5q-72 0 -177 -15h-4q-16 0 -16 18v35 q0 14 19 18q78 20 178 20q122 0 180.5 -43.5t58.5 -135.5z" unicode="2"/>
<glyph glyph-name="three" d="M521 207q0 -108 -67 -161t-182 -53q-82 0 -169 20q-19 4 -19 19v34q0 17 17 17h3q105 -14 168 -14q82 0 119 33t37 105v21q0 48 -27.5 85t-89.5 37h-182q-19 0 -19 18v35q0 19 19 19h182q65 0 91 35t26 84v14q0 62 -36 90.5t-120 28.5q-46 0 -168 -15h-3q-17 0 -17 17v35 q0 15 19 19q96 20 169 20q120 0 184.5 -45t64.5 -150v-14q0 -51 -24.5 -92t-70.5 -64q95 -47 95 -157v-21z" unicode="3"/>
<glyph glyph-name="four" d="M370 274v342q0 6 -4 6h-1q-4 0 -8 -6l-231 -328q-3 -4 -3 -8q0 -6 8 -6h239zM567 216q0 -18 -19 -18h-87v-178q0 -20 -17 -20h-58q-17 0 -17 20v178h-289q-23 0 -32 8.5t-9 30.5v38q0 21 12 37l296 415q10 16 29 16h59q26 0 26 -22v-447h87q19 0 19 -18v-40z" unicode="4"/>
<glyph glyph-name="five" d="M528 226q0 -111 -67 -172t-188 -61q-101 0 -176 18q-19 5 -19 20v37q0 15 15 15h5q80 -14 175 -14q163 0 163 157v15q0 74 -48.5 104t-160.5 30h-120q-7 0 -11.5 5t-4.5 12v1l28 333q2 17 20 17h344q20 0 20 -17v-44q0 -16 -20 -16h-287l-16 -216h47q148 0 224.5 -47.5 t76.5 -161.5v-15z" unicode="5"/>
<glyph glyph-name="six" d="M456 246v6q0 75 -43.5 106.5t-111.5 31.5q-79 0 -151 -18v-95q0 -117 37.5 -163.5t114.5 -46.5q74 0 114 41.5t40 137.5zM546 246q0 -121 -61.5 -187t-182.5 -66q-115 0 -178.5 70.5t-63.5 213.5v175q0 157 65 227.5t196 70.5q95 0 172 -17q23 -6 23 -19v-39 q0 -18 -18 -18q-1 0 -3 0.5t-3 0.5q-82 16 -171 16q-45 0 -77 -11t-50 -28.5t-28 -48t-13 -60.5t-3 -74v-11q91 20 151 20q109 0 177 -48.5t68 -160.5v-6z" unicode="6"/>
<glyph glyph-name="seven" d="M533 680q0 -24 -13 -52l-288 -613q-8 -15 -22 -15h-60q-15 0 -15 15q0 5 3 11l302 628q1 1 1 4q0 7 -7 7h-341q-20 0 -20 17v42q0 8 6 13.5t14 5.5h365q75 0 75 -63z" unicode="7"/>
<glyph glyph-name="eight" d="M460 207v19q0 50 -31.5 88t-94.5 38h-62q-63 0 -94.5 -38t-31.5 -88v-19q0 -65 39.5 -101.5t112.5 -36.5h10q73 0 112.5 36.5t39.5 101.5zM461 544v9q0 60 -39.5 91.5t-113.5 31.5h-10q-74 0 -113.5 -31.5t-39.5 -91.5v-9q0 -51 31 -85.5t96 -34.5h62q65 0 96 34.5 t31 85.5zM551 207q0 -105 -68.5 -159.5t-174.5 -54.5h-10q-106 0 -174.5 54.5t-68.5 159.5v19q0 47 25.5 92t71.5 70q-46 24 -70.5 64.5t-24.5 91.5v9q0 99 66 148t175 49h10q109 0 175 -49t66 -148v-9q0 -51 -24.5 -91.5t-70.5 -64.5q46 -25 71.5 -70t25.5 -92v-19z" unicode="8"/>
<glyph glyph-name="nine" d="M446 371l1 95q0 117 -37.5 163.5t-114.5 46.5q-75 0 -115 -41t-40 -138v-6q0 -75 43.5 -106.5t111.5 -31.5q79 0 151 18zM537 291q0 -157 -65 -227.5t-196 -70.5q-95 0 -172 17q-24 6 -24 19v39q0 18 18 18q1 0 3 -0.5t3 -0.5q82 -16 171 -16q45 0 77 11t50.5 28.5 t28.5 48t13 60.5t3 74v11q-93 -20 -151 -20q-110 0 -178 48.5t-68 160.5v6q0 121 62 187t182 66q116 0 179.5 -70.5t63.5 -213.5v-175z" unicode="9"/>
<glyph glyph-name="colon" horiz-adv-x="219" unicode=":" d="M153 19q0 -8 -6 -13.5t-14 -5.5h-47q-8 0 -14 5.5t-6 13.5v94q0 8 6 13.5t14 5.5h47q8 0 14 -5.5t6 -13.5v-94zM153 437q0 -8 -6 -13.5t-14 -5.5h-47q-8 0 -14 5.5t-6 13.5v93q0 8 6 14t14 6h47q8 0 14 -6t6 -14v-93z"/>
<glyph glyph-name="semicolon" horiz-adv-x="219" unicode=";" d="M157 117q0 -2 -2 -8l-75 -189q-4 -11 -7.5 -15.5t-11.5 -4.5h-40q-12 0 -12 13q0 5 1 7l57 189q6 19 20 19h57q13 0 13 -11zM153 437q0 -19 -19 -19h-49q-8 0 -13.5 5.5t-5.5 13.5v93q0 8 5.5 14t13.5 6h49q8 0 13.5 -6t5.5 -14v-93z"/>
<glyph glyph-name="less" d="M482 150q0 -10 -12 -10h-58q-15 0 -31 13l-241 204q-18 15 -18 34t18 34l241 204q16 13 31 13h58q12 0 12 -10q0 -8 -10 -17l-262 -224l262 -224q10 -9 10 -17z" unicode="&lt;"/>
<glyph glyph-name="equal" d="M515 261q0 -16 -20 -16h-385q-20 0 -20 16v40q0 16 20 16h385q20 0 20 -16v-40zM515 482q0 -16 -20 -16h-385q-20 0 -20 16v40q0 16 20 16h385q20 0 20 -16v-40z" unicode="="/>
<glyph glyph-name="greater" d="M483 391q0 -19 -18 -34l-241 -204q-16 -13 -31 -13h-58q-12 0 -12 10q0 8 10 17l262 224l-262 224q-10 9 -10 17q0 10 12 10h58q15 0 31 -13l241 -204q18 -15 18 -34z" unicode="&gt;"/>
<glyph glyph-name="question" horiz-adv-x="446" unicode="?" d="M198 19q0 -19 -19 -19h-48q-8 0 -14 5.5t-6 13.5v93q0 8 6 14t14 6h48q8 0 13.5 -6t5.5 -14v-93zM386 587q0 -38 -18.5 -74t-72.5 -97l-45 -51q-23 -26 -31.5 -37t-15 -28t-6.5 -38v-49q0 -8 -6 -13.5t-14 -5.5h-44q-8 0 -13.5 5.5t-5.5 13.5v49q0 48 13.5 78t52.5 73 l46 51q37 40 49.5 66t12.5 57v12q0 39 -24.5 55.5t-77.5 16.5q-54 0 -135 -9h-3q-15 0 -15 17v35q0 20 17 23q67 13 136 13q200 0 200 -151v-12z"/>
<glyph glyph-name="at" horiz-adv-x="767" unicode="@" d="M457 409q-42 6 -68 6q-44 0 -65 -21.5t-26 -67.5l-11 -114q-1 -6 -1 -17q0 -69 82 -69h21q29 0 43 2zM728 366q0 -176 -94 -248q-84 -64 -270 -64q-75 0 -118 36.5t-43 102.5q0 12 1 18l11 117q8 77 54.5 118t127.5 41q57 0 128 -15q21 -5 21 -21v-4l-30 -313 q87 13 116.5 69.5t29.5 162.5q0 100 -64 166t-182 66q-129 0 -206 -69t-88 -185l-15 -152q-2 -22 -2 -32q0 -95 64.5 -154t187.5 -59q60 0 144 7h1q4 0 6 -2t2 -4l1 -1v-32q0 -12 -16 -14q-69 -8 -139 -8q-143 0 -229 73.5t-86 194.5q0 21 1 31l15 156q13 139 109 223.5 t253 84.5q147 0 228 -85t81 -205z"/>
<glyph glyph-name="A" horiz-adv-x="633" unicode="A" d="M427 324l-91 329q-5 18 -19 18q-15 0 -20 -18l-91 -329h221zM604 16q0 -16 -17 -16h-59q-13 0 -17 15l-65 230h-259l-64 -230q-4 -15 -18 -15h-59q-17 0 -17 16q0 5 1 7l185 651q21 76 102 76q80 0 101 -75l185 -652q1 -2 1 -7z"/>
<glyph glyph-name="B" horiz-adv-x="616" unicode="B" d="M475 205v17q0 127 -151 127h-154v-275q10 0 47 -2t57 -2q101 0 151 29t50 106zM471 541v16q0 67 -50.5 91.5t-151.5 24.5q-15 0 -99 -3v-248h154q147 0 147 119zM566 205q0 -212 -292 -212q-106 0 -163 9q-33 4 -33 37v666q0 34 32 37q66 8 159 8q293 0 293 -193v-16 q0 -55 -28 -96t-79 -61q52 -18 81.5 -61t29.5 -101v-17z"/>
<glyph glyph-name="C" horiz-adv-x="545" unicode="C" d="M510 26q0 -16 -20 -20q-68 -13 -166 -13q-50 0 -94 15t-83.5 48t-63 96t-23.5 150v139q0 88 23.5 151t63.5 96t83.5 47.5t93.5 14.5q67 0 168 -16q16 -2 16 -13v-51q0 -11 -12 -11h-3q-108 9 -168 9q-174 0 -174 -227v-139q0 -119 47 -173t127 -54q69 0 165 8h4 q16 0 16 -16v-41z"/>
<glyph glyph-name="D" horiz-adv-x="641" unicode="D" d="M493 304v135q0 127 -56.5 180t-155.5 53q-61 0 -111 -3v-596q32 -2 111 -2q212 0 212 233zM584 304q0 -156 -80 -233.5t-223 -77.5q-124 0 -182 10q-21 3 -21 25v687q0 22 21 25q58 10 182 10q144 0 223.5 -77t79.5 -234v-135z"/>
<glyph glyph-name="E" horiz-adv-x="551" unicode="E" d="M496 12q0 -12 -10 -14q-48 -5 -195 -5q-107 0 -160 44t-53 142v385q0 98 53 142t160 44q132 0 195 -6q10 -2 10 -14v-50q0 -12 -11 -12h-193q-76 0 -99.5 -22t-23.5 -82v-139h307q8 0 14 -6t6 -14v-38q0 -8 -6 -14t-14 -6h-307v-168q0 -60 23.5 -82t99.5 -22h193 q11 0 11 -12v-51z"/>
<glyph glyph-name="F" horiz-adv-x="551" unicode="F" d="M496 367q0 -8 -6 -14t-14 -6h-307v-327q0 -8 -6 -14t-14 -6h-51q-8 0 -14 6t-6 14v544q0 98 53 142t160 44q132 0 195 -6q10 -2 10 -14v-50q0 -12 -11 -12h-193q-76 0 -99.5 -22t-23.5 -82v-139h307q8 0 14 -6t6 -14v-38z"/>
<glyph glyph-name="G" horiz-adv-x="612" unicode="G" d="M534 30q0 -19 -18 -22q-92 -15 -199 -15q-49 0 -93.5 17t-82.5 52t-60.5 97.5t-22.5 144.5v134q0 87 23.5 150.5t63.5 97.5t84.5 49t96.5 15q101 0 190 -14q17 -2 17 -15v-50q0 -10 -13 -10h-4q-83 7 -190 7q-177 0 -177 -230v-134q0 -117 46.5 -173.5t121.5 -56.5 q54 0 126 6v286q0 20 18 20h54q8 0 13.5 -6t5.5 -14v-336z"/>
<glyph glyph-name="H" horiz-adv-x="680" unicode="H" d="M602 20q0 -8 -6 -14t-14 -6h-51q-8 0 -14 6t-6 14v332h-342v-332q0 -8 -6 -14t-14 -6h-51q-8 0 -14 6t-6 14v703q0 8 6 14t14 6h51q8 0 14 -6t6 -14v-290h342v290q0 8 6 14t14 6h51q8 0 14 -6t6 -14v-703z"/>
<glyph glyph-name="I" horiz-adv-x="267" unicode="I" d="M179 20q0 -8 -5 -14t-13 -6h-55q-7 0 -12.5 6t-5.5 14v704q0 19 18 19h55q8 0 13 -5.5t5 -13.5v-704z"/>
<glyph glyph-name="J" horiz-adv-x="257" unicode="J" d="M179 -37q0 -73 -37 -108t-118 -35q-37 0 -53 8q-6 3 -6 11v37q0 17 20 17h39q38 0 51 15.5t13 54.5v761q0 8 6 13.5t13 5.5h53q8 0 13.5 -5.5t5.5 -13.5v-761z"/>
<glyph glyph-name="K" horiz-adv-x="607" unicode="K" d="M564 10q0 -10 -13 -10h-78q-13 0 -22 10l-282 343v-333q0 -8 -5 -14t-13 -6h-55q-7 0 -12.5 6t-5.5 14v704q0 8 5.5 13.5t13.5 5.5h53q8 0 13.5 -5.5t5.5 -13.5v-323l288 333q9 9 20 9h72q14 0 14 -11q0 -6 -4 -10l-301 -340l301 -360q5 -5 5 -12z"/>
<glyph glyph-name="L" horiz-adv-x="514" unicode="L" d="M496 16q0 -12 -10 -14q-58 -9 -195 -9q-36 0 -63.5 3.5t-57 15t-48.5 31t-31.5 54t-12.5 82.5v544q0 8 6 14t14 6h51q8 0 14 -6t6 -14v-544q0 -60 23.5 -82t99.5 -22h193q11 0 11 -12v-47z"/>
<glyph glyph-name="M" horiz-adv-x="761" unicode="M" d="M684 20q0 -8 -6 -14t-14 -6h-49q-8 0 -14 6t-6 14v593q0 3 -1 3t-2 -2l-143 -296q-8 -16 -17.5 -22.5t-27.5 -6.5h-46q-18 0 -27.5 6.5t-17.5 22.5l-143 296q-1 2 -2 2t-1 -3v-593q0 -8 -6 -14t-14 -6h-49q-8 0 -14 6t-6 14v694q0 12 8.5 20.5t20.5 8.5h65q24 0 32 -17 l165 -343q5 -11 12 -11t12 11l165 343q8 17 32 17h65q12 0 20.5 -8.5t8.5 -20.5v-694z"/>
<glyph glyph-name="N" horiz-adv-x="680" unicode="N" d="M602 29q0 -12 -8.5 -20.5t-20.5 -8.5h-62q-24 0 -32 16l-309 587q-2 3 -3 3t-1 -3v-584q0 -8 -5.5 -13.5t-12.5 -5.5h-52q-18 0 -18 12v703q0 12 8.5 20t20.5 8h55q20 0 27.5 -4t13.5 -16l307 -584l2 -3q1 0 1 3v585q0 8 5.5 13.5t12.5 5.5h53q18 0 18 -19v-695z"/>
<glyph glyph-name="O" horiz-adv-x="661" unicode="O" d="M509 307v129q0 232 -178 232q-179 0 -179 -232v-129q0 -232 179 -232q178 0 178 232zM601 307q0 -160 -73 -237t-197 -77t-197.5 77.5t-73.5 236.5v129q0 159 73.5 236.5t197.5 77.5t197 -77t73 -237v-129z"/>
<glyph glyph-name="P" horiz-adv-x="593" unicode="P" d="M457 520v13q0 75 -45.5 107.5t-143.5 32.5q-52 0 -100 -4v-293q92 -4 100 -4q102 0 145.5 34.5t43.5 113.5zM548 520q0 -224 -280 -224q-35 0 -100 5v-281q0 -8 -5 -14t-13 -6h-54q-7 0 -12.5 6t-5.5 14v697q0 22 24 25q69 8 166 8q280 0 280 -217v-13z"/>
<glyph glyph-name="Q" horiz-adv-x="661" unicode="Q" d="M509 307v129q0 232 -178 232q-179 0 -179 -232v-129q0 -232 179 -232q178 0 178 232zM601 307q0 -145 -60.5 -222t-166.5 -90v-43q0 -37 11.5 -47.5t50.5 -10.5h59q22 0 22 -16v-34q0 -24 -81 -24q-78 0 -114 28t-36 103v45q-105 13 -165.5 90t-60.5 221v129 q0 159 73.5 236.5t197.5 77.5t197 -77t73 -237v-129z"/>
<glyph glyph-name="R" horiz-adv-x="625" unicode="R" d="M468 528v7q0 73 -46.5 103t-143.5 30q-86 0 -110 -3v-274q88 -2 110 -2q97 0 143.5 30.5t46.5 108.5zM586 13q0 -13 -13 -13h-64q-18 0 -26 13l-179 298h-9h-17q-30 0 -110 3v-294q0 -8 -5 -14t-13 -6h-54q-7 0 -12.5 6t-5.5 14v700q0 19 24 22q69 8 176 8 q280 0 280 -215v-7q0 -81 -42.5 -132t-114.5 -70l182 -304q3 -4 3 -9z"/>
<glyph glyph-name="S" horiz-adv-x="550" unicode="S" d="M500 193q0 -39 -11.5 -72t-37.5 -63.5t-76.5 -47.5t-121.5 -17q-78 0 -166 14q-12 2 -15.5 5.5t-3.5 12.5v40q0 16 17 16h3q69 -6 165 -6q85 0 118.5 30.5t33.5 87.5q0 37 -25 64t-95 70l-97 59q-72 44 -105 86.5t-33 100.5q0 177 239 177q98 0 174 -12q17 -3 17 -17v-43 q0 -16 -17 -16h-2q-88 6 -172 6q-79 0 -113 -20.5t-34 -74.5q0 -34 24 -59t85 -62l92 -55q87 -51 122 -97.5t35 -106.5z"/>
<glyph glyph-name="T" horiz-adv-x="590" unicode="T" d="M555 681q0 -16 -19 -16h-195v-645q0 -8 -5 -14t-13 -6h-55q-7 0 -12.5 6t-5.5 14v645h-195q-20 0 -20 16v44q0 7 6 12.5t14 5.5h481q19 0 19 -18v-44z"/>
<glyph glyph-name="U" horiz-adv-x="662" unicode="U" d="M587 270q0 -277 -256 -277t-256 277v454q0 8 5.5 13.5t13.5 5.5h54q8 0 13.5 -5.5t5.5 -13.5v-454q0 -101 37 -150t127 -49t127 48.5t37 150.5v454q0 8 5.5 13.5t13.5 5.5h54q8 0 13.5 -5.5t5.5 -13.5v-454z"/>
<glyph glyph-name="V" horiz-adv-x="643" unicode="V" d="M609 726q0 -4 -1 -6l-184 -651q-22 -76 -102 -76t-102 76l-185 651q-1 2 -1 6q0 17 18 17h58q14 0 18 -15l174 -637q6 -21 20 -21q13 0 19 21l175 637q4 15 17 15h59q17 0 17 -17z"/>
<glyph glyph-name="W" horiz-adv-x="825" unicode="W" d="M791 726v-3l-111 -676q-9 -51 -62 -51h-43q-21 0 -36 13.5t-21 36.5l-98 370q-2 9 -6 9h-1h-1q-4 0 -6 -9l-99 -370q-6 -23 -21 -36.5t-36 -13.5h-42q-53 0 -62 51l-111 676v3q0 17 17 17h58q14 0 17 -17l97 -637q3 -15 5 -15q4 0 7 15l98 370q10 40 47 40h64 q37 0 47 -40l98 -370q3 -15 7 -15q2 0 5 15l97 637q3 17 17 17h58q17 0 17 -17z"/>
<glyph glyph-name="X" horiz-adv-x="646" unicode="X" d="M604 14q0 -14 -16 -14h-63q-11 0 -21 15l-183 291l-179 -291q-10 -15 -21 -15h-59q-16 0 -16 15q0 6 3 10l222 353l-220 341q-3 5 -3 10q0 14 15 14h65q12 0 18 -10l180 -285l174 285q7 10 19 10h59q16 0 16 -15q0 -4 -3 -9l-215 -343l225 -351q3 -4 3 -11z"/>
<glyph glyph-name="Y" horiz-adv-x="583" unicode="Y" d="M549 729q0 -5 -3 -11l-155 -348q-24 -52 -54 -66v-284q0 -8 -5.5 -14t-12.5 -6h-55q-7 0 -12.5 6t-5.5 14v284q-29 11 -54 66l-154 348q-3 6 -3 11q0 14 17 14h61q12 0 18 -14l138 -324q11 -26 23 -26t23 26l139 324q6 14 17 14h61q17 0 17 -14z"/>
<glyph glyph-name="Z" horiz-adv-x="597" unicode="Z" d="M544 18q0 -7 -6 -12.5t-14 -5.5h-385q-48 0 -65.5 14t-17.5 54q0 36 15 58l358 521q3 5 3 8q0 7 -10 7h-332q-20 0 -20 17v47q0 17 20 17h356q45 0 65 -13.5t20 -52.5q0 -35 -16 -59l-357 -521q-3 -4 -3 -9q0 -6 10 -6h359q20 0 20 -17v-47z"/>
<glyph glyph-name="bracketleft" horiz-adv-x="327" unicode="[" d="M303 -174q0 -8 -6 -14t-14 -6h-186q-7 0 -12 5.5t-5 13.5v899q0 8 5 13.5t12 5.5h186q8 0 14 -6t6 -14v-33q0 -8 -6 -14t-14 -6h-114v-791h114q8 0 14 -6t6 -14v-33z"/>
<glyph glyph-name="backslash" horiz-adv-x="355" unicode="\" d="M333 14q0 -14 -14 -14h-51q-12 0 -18 20l-226 703q-1 2 -1 6q0 14 14 14h51q11 0 17 -20l227 -703q1 -2 1 -6z"/>
<glyph glyph-name="bracketright" horiz-adv-x="327" unicode="]" d="M247 -175q0 -8 -5 -13.5t-12 -5.5h-186q-8 0 -14 6t-6 14v33q0 8 6 14t14 6h114v791h-114q-8 0 -14 6t-6 14v33q0 8 6 14t14 6h186q7 0 12 -5.5t5 -13.5v-899z"/>
<glyph glyph-name="asciicircum" d="M505 572q0 -9 -11 -9h-60q-13 0 -28 18l-103 120l-103 -120q-15 -18 -28 -18h-60q-11 0 -11 9q0 6 4 11l115 149q14 18 30 18h106q16 0 30 -18l115 -149q4 -5 4 -11z" unicode="^"/>
<glyph glyph-name="underscore" horiz-adv-x="494" unicode="_" d="M525 -90q0 -16 -20 -16h-515q-20 0 -20 16v25q0 16 20 16h515q20 0 20 -16v-25z"/>
<glyph glyph-name="grave" horiz-adv-x="372" unicode="`" d="M243 630q0 -7 -9 -7h-54q-10 0 -23 15l-113 126q-4 4 -4 8q0 7 11 7h66q13 0 25 -15l97 -124q4 -4 4 -10z"/>
<glyph glyph-name="a" horiz-adv-x="519" unicode="a" d="M363 105v161h-74q-89 0 -121 -21.5t-32 -76.5v-12q0 -51 22.5 -71t69.5 -20q61 0 135 40zM451 20q0 -8 -6 -14t-14 -6h-46q-8 0 -14 6t-6 14v22q-84 -49 -154 -49q-72 0 -117.5 37.5t-45.5 124.5v12q0 83 55.5 122.5t185.5 39.5h74v40q0 63 -24 88t-83 25q-73 0 -153 -8 h-5q-18 0 -18 16v35q0 16 21 19q76 13 155 13q195 0 195 -188v-349z"/>
<glyph glyph-name="b" horiz-adv-x="541" unicode="b" d="M403 240v72q0 84 -29.5 126t-100.5 42q-78 0 -117 -7v-397q68 -6 117 -6q71 0 100.5 42t29.5 128zM491 240q0 -116 -54.5 -181.5t-163.5 -65.5q-96 0 -184 17q-13 2 -17 7t-4 16v700q0 19 18 19h51q8 0 13.5 -5.5t5.5 -13.5v-186q54 10 117 10q108 0 163 -63t55 -182v-72 z"/>
<glyph glyph-name="c" horiz-adv-x="452" unicode="c" d="M408 26q0 -18 -20 -22q-60 -11 -125 -11q-101 0 -157 65.5t-56 177.5v78q0 112 56 177.5t157 65.5q65 0 125 -11q12 -2 16 -6.5t4 -15.5v-36q0 -15 -17 -15h-4q-62 7 -124 7q-125 0 -125 -166v-78q0 -166 125 -166q62 0 124 7h4q17 0 17 -15v-36z"/>
<glyph glyph-name="d" horiz-adv-x="541" unicode="d" d="M385 76v397q-39 7 -117 7q-71 0 -100.5 -42t-29.5 -126v-72q0 -86 29.5 -128t100.5 -42q49 0 117 6zM473 33q0 -11 -4 -16t-17 -7q-88 -17 -184 -17q-109 0 -163.5 65.5t-54.5 181.5v72q0 119 55 182t163 63q61 0 117 -10v186q0 8 5.5 13.5t13.5 5.5h51q8 0 13 -5.5 t5 -13.5v-700z"/>
<glyph glyph-name="e" horiz-adv-x="544" unicode="e" d="M403 314v9q0 83 -32 120t-99 37q-134 0 -134 -157v-9h265zM492 269q0 -22 -19 -22h-335v-14q0 -87 34 -125t105 -38q106 0 178 11h5q16 0 16 -14v-34q0 -19 -20 -23q-88 -17 -179 -17q-46 0 -84.5 12t-71.5 38t-52 74.5t-19 115.5v90q0 109 58 171.5t164 62.5 q107 0 163.5 -62.5t56.5 -171.5v-54z"/>
<glyph glyph-name="f" horiz-adv-x="381" unicode="f" d="M356 706q0 -15 -18 -15h-48q-36 0 -48.5 -14t-12.5 -55v-72h105q8 0 13.5 -5t5.5 -13v-39q0 -17 -19 -17h-105v-456q0 -8 -6 -14t-13 -6h-49q-8 0 -14 6t-6 14v456l-97 11q-19 2 -19 18v27q0 8 5.5 13t13.5 5h97v72q0 77 35 108t105 31q30 0 56 -6q19 -5 19 -16v-33z"/>
<glyph glyph-name="g" horiz-adv-x="559" unicode="g" d="M424 -45v8q0 28 -26 44t-96 34l-113 29q-25 -21 -37 -43.5t-12 -58.5v-9q0 -45 32.5 -68t111.5 -23q81 0 110.5 21t29.5 66zM416 365v8q0 50 -30 78.5t-105 28.5q-77 0 -106 -29t-29 -78v-8q0 -102 135 -102q76 0 105.5 26.5t29.5 75.5zM523 502q0 -16 -18 -19l-36 -7 q34 -36 34 -103v-8q0 -171 -222 -171q-68 0 -116 20q-25 -12 -25 -34q0 -24 31 -32l149 -38q36 -9 58.5 -16t51 -19.5t44 -26.5t27 -36t11.5 -49v-8q0 -155 -228 -155q-116 0 -173 41.5t-57 117.5v9q0 79 63 127l-7 3q-46 20 -46 78v1q0 49 41 72q-46 43 -46 116v8 q0 77 51.5 127t170.5 50h219q9 0 16 -6.5t7 -15.5v-26z"/>
<glyph glyph-name="h" horiz-adv-x="557" unicode="h" d="M489 20q0 -8 -6 -14t-14 -6h-48q-8 0 -14 6t-6 14v329q0 71 -27.5 101t-79.5 30q-76 0 -138 -28v-432q0 -8 -6 -14t-14 -6h-49q-8 0 -13.5 6t-5.5 14v712q0 8 5.5 14t13.5 6h50q8 0 13.5 -6t5.5 -14v-206q71 31 153 31q84 0 132 -51t48 -157v-329z"/>
<glyph glyph-name="i" horiz-adv-x="247" unicode="i" d="M167 20q0 -8 -6 -14t-14 -6h-48q-8 0 -14 6t-6 14v510q0 8 6 14t14 6h48q8 0 14 -6t6 -14v-510zM169 658q0 -8 -6 -14t-14 -6h-51q-8 0 -14 6t-6 14v80q0 8 6 14t14 6h51q8 0 14 -6t6 -14v-80z"/>
<glyph glyph-name="j" horiz-adv-x="247" unicode="j" d="M167 -64q0 -75 -30.5 -104t-94.5 -29q-27 0 -54 4q-18 3 -18 16v37q0 14 21 14h41q28 0 37.5 12t9.5 50v594q0 8 5 14t13 6h52q18 0 18 -20v-594zM169 657q0 -8 -6 -13.5t-14 -5.5h-51q-8 0 -14 5.5t-6 13.5v81q0 8 6 14t14 6h51q8 0 14 -6t6 -14v-81z"/>
<glyph glyph-name="k" horiz-adv-x="496" unicode="k" d="M461 13q0 -13 -11 -13h-72q-13 0 -23 13l-199 246v-239q0 -8 -6 -14t-14 -6h-48q-8 0 -14 6t-6 14v712q0 8 6 14t14 6h48q8 0 14 -6t6 -14v-416l200 225q8 9 20 9h70q15 0 15 -11q0 -6 -5 -11l-220 -238l222 -268q3 -3 3 -9z"/>
<glyph glyph-name="l" horiz-adv-x="244" unicode="l" d="M166 20q0 -8 -5 -14t-13 -6h-52q-7 0 -12.5 6t-5.5 14v713q0 19 18 19h52q8 0 13 -5.5t5 -13.5v-713z"/>
<glyph glyph-name="m" horiz-adv-x="798" unicode="m" d="M730 20q0 -8 -6 -14t-14 -6h-48q-8 0 -14 6t-6 14v354q0 107 -91 107q-47 0 -117 -27q9 -33 9 -78v-356q0 -8 -5 -14t-13 -6h-53q-17 0 -17 20v356q0 62 -17.5 83.5t-59.5 21.5q-44 0 -122 -39v-422q0 -8 -5 -14t-13 -6h-53q-17 0 -17 20v510q0 8 5.5 14t13.5 6h50 q8 0 13.5 -6t5.5 -14v-19q75 47 146 47q65 0 100 -41q87 41 166 41q162 0 162 -184v-354z"/>
<glyph glyph-name="n" horiz-adv-x="557" unicode="n" d="M489 20q0 -8 -6 -14t-14 -6h-48q-8 0 -14 6t-6 14v329q0 74 -25.5 103t-84.5 29q-57 0 -135 -39v-422q0 -8 -6 -14t-14 -6h-49q-8 0 -13.5 6t-5.5 14v510q0 8 5.5 14t13.5 6h50q8 0 13.5 -6t5.5 -14v-19q82 46 159 46q174 0 174 -208v-329z"/>
<glyph glyph-name="o" horiz-adv-x="545" unicode="o" d="M407 237v76q0 167 -135 167q-134 0 -134 -167v-76q0 -167 134 -167q68 0 101.5 43.5t33.5 123.5zM495 237q0 -113 -57.5 -178.5t-165.5 -65.5t-165 65.5t-57 178.5v76q0 113 57 178.5t165 65.5t165.5 -65.5t57.5 -178.5v-76z"/>
<glyph glyph-name="p" horiz-adv-x="541" unicode="p" d="M403 238v72q0 84 -29.5 128.5t-100.5 44.5q-61 0 -117 -10v-396q55 -10 117 -10q70 0 100 43t30 128zM491 238q0 -119 -55 -182t-163 -63q-56 0 -117 11v-181q0 -8 -5.5 -13.5t-13.5 -5.5h-51q-8 0 -13 5.5t-5 13.5v688q0 10 4 15t17 8q94 23 184 23q109 0 163.5 -65.5 t54.5 -181.5v-72z"/>
<glyph glyph-name="q" horiz-adv-x="541" unicode="q" d="M385 77v396q-54 10 -117 10q-71 0 -100.5 -44t-29.5 -129v-72q0 -85 30 -128t100 -43q62 0 117 10zM473 -177q0 -19 -18 -19h-51q-8 0 -13.5 5.5t-5.5 13.5v181q-60 -11 -117 -11q-108 0 -163 63t-55 182v72q0 116 54.5 181.5t163.5 65.5q90 0 184 -23q13 -3 17 -7.5 t4 -15.5v-688z"/>
<glyph glyph-name="r" horiz-adv-x="342" unicode="r" d="M315 498q0 -17 -21 -17q-68 0 -138 -42v-419q0 -8 -6 -14t-14 -6h-49q-8 0 -13.5 6t-5.5 14v510q0 8 5.5 14t13.5 6h47q8 0 13.5 -6t5.5 -14v-21q69 48 141 48q21 0 21 -18v-41z"/>
<glyph glyph-name="s" horiz-adv-x="466" unicode="s" d="M416 138q0 -74 -49.5 -109.5t-137.5 -35.5q-97 0 -158 15q-21 5 -21 20v35q0 15 18 15h4q88 -11 157 -11q51 0 75 16t24 55q0 22 -16 39.5t-59 43.5l-101 60q-102 62 -102 143q0 133 181 133q80 0 156 -13q19 -3 19 -20v-33q0 -17 -17 -17h-3q-93 8 -155 8 q-48 0 -70.5 -11.5t-22.5 -46.5q0 -21 16 -37.5t53 -38.5l99 -59q61 -36 85.5 -71t24.5 -80z"/>
<glyph glyph-name="t" horiz-adv-x="385" unicode="t" d="M360 15q0 -14 -18 -17q-33 -5 -65 -5q-73 0 -104.5 27.5t-31.5 106.5v349l-97 11q-19 2 -19 18v27q0 18 19 18h97v98q0 17 18 20l52 8h3q15 0 15 -17v-109h108q8 0 14 -6t6 -14v-34q0 -8 -6 -14t-14 -6h-108v-349q0 -40 11 -51.5t43 -11.5h56q21 0 21 -14v-35z"/>
<glyph glyph-name="u" horiz-adv-x="557" unicode="u" d="M489 20q0 -8 -5.5 -14t-13.5 -6h-50q-8 0 -13.5 6t-5.5 14v19q-82 -46 -159 -46q-174 0 -174 208v329q0 8 6 14t14 6h48q8 0 14 -6t6 -14v-329q0 -74 25.5 -103t84.5 -29q57 0 135 39v422q0 8 6 14t14 6h49q8 0 13.5 -6t5.5 -14v-510z"/>
<glyph glyph-name="v" horiz-adv-x="530" unicode="v" d="M491 533q0 -4 -1 -7l-135 -476q-16 -57 -90 -57t-90 57l-135 476q-1 3 -1 7q0 17 16 17h55q13 0 19 -19l115 -436q7 -29 21 -29t21 29l115 436q6 19 19 19h55q16 0 16 -17z"/>
<glyph glyph-name="w" horiz-adv-x="786" unicode="w" d="M748 530v-4l-97 -464q-10 -46 -24 -57.5t-60 -11.5q-40 0 -55 13t-27 59l-87 340q-2 7 -5 7t-5 -7l-87 -340q-11 -44 -27 -58t-55 -14q-46 0 -60 11.5t-24 57.5l-97 464v4q0 8 5.5 14t13.5 6h54q15 0 17 -16l83 -456q2 -12 8 -12q5 0 8 12l98 384q8 30 40 30h56 q32 0 40 -30l98 -384q3 -12 8 -12q6 0 8 12l83 456q2 16 17 16h54q8 0 13.5 -6t5.5 -14z"/>
<glyph glyph-name="x" horiz-adv-x="547" unicode="x" d="M511 11q0 -11 -13 -11h-69q-9 0 -14 8l-143 209l-143 -207q-7 -10 -17 -10h-60q-12 0 -12 10q0 7 5 13l180 257l-170 245q-5 8 -5 13q0 12 15 12h65q11 0 20 -14l127 -188l128 188q10 14 21 14h58q13 0 13 -12q0 -5 -5 -13l-168 -239l183 -263q4 -5 4 -12z"/>
<glyph glyph-name="y" horiz-adv-x="534" unicode="y" d="M495 533q0 -5 -1 -7l-165 -576q-24 -84 -61.5 -116t-121.5 -32q-46 0 -84 9q-21 5 -21 16v37q0 16 19 16h3q66 -6 89 -6q44 0 65.5 17t33.5 68l10 41h-14q-27 0 -44.5 13.5t-29.5 55.5l-133 457q-1 2 -1 7q0 17 18 17h55q13 0 17 -16l118 -434q5 -22 19 -22h16l122 457 q4 15 19 15h56q16 0 16 -17z"/>
<glyph glyph-name="z" horiz-adv-x="482" unicode="z" d="M432 20q0 -8 -6 -14t-14 -6h-302q-30 0 -45.5 16t-15.5 39v19q0 35 23 65l258 321q4 6 4 9q0 7 -10 7h-243q-8 0 -14 6t-6 14v34q0 8 6 14t14 6h294q56 0 56 -49v-24q0 -28 -23 -55l-263 -329q-5 -5 -5 -11q0 -8 8 -8h264q8 0 14 -6t6 -14v-34z"/>
<glyph glyph-name="braceleft" horiz-adv-x="331" unicode="{" d="M304 -174q0 -8 -6 -14t-14 -6h-51q-91 0 -122 29t-31 109v176q0 47 -12.5 74t-47.5 51v58q35 25 47.5 51t12.5 73v178q0 80 31 109t122 29h50q8 0 14 -6t6 -14v-33q0 -8 -6 -14t-14 -6h-45q-44 0 -56.5 -12.5t-12.5 -52.5v-178q0 -55 -16 -91t-55 -63q39 -27 55 -63 t16 -90v-176q0 -40 12.5 -52.5t56.5 -12.5h46q8 0 14 -6t6 -14v-33z"/>
<glyph glyph-name="bar" horiz-adv-x="249" unicode="|" d="M169 -175q0 -8 -5.5 -13.5t-12.5 -5.5h-52q-7 0 -13 6t-6 13v899q0 8 6 13.5t13 5.5h52q7 0 12.5 -5.5t5.5 -13.5v-899z"/>
<glyph glyph-name="braceright" horiz-adv-x="331" unicode="}" d="M311 245q-35 -24 -47.5 -51t-12.5 -74v-176q0 -80 -31 -109t-122 -29h-51q-8 0 -14 6t-6 14v33q0 8 6 14t14 6h46q44 0 56.5 12.5t12.5 52.5v176q0 54 16 90t55 63q-39 27 -55 63t-16 91v178q0 40 -12.5 52.5t-56.5 12.5h-45q-8 0 -14 6t-6 14v33q0 8 6 14t14 6h50 q91 0 122 -29t31 -109v-178q0 -47 12.5 -73t47.5 -51v-58z"/>
<glyph glyph-name="asciitilde" d="M514 467q0 -64 -25.5 -96t-83.5 -32q-40 0 -76 28l-73 58q-42 29 -53 31q-26 0 -34 -14t-8 -45v-26q0 -8 -6 -14t-14 -6h-29q-8 0 -14 6t-6 14v26q0 64 28.5 97t82.5 33q40 0 75 -28l85 -68q24 -20 42 -20q27 0 33.5 11.5t6.5 44.5v28q0 8 6 14t14 6h29q8 0 14 -6t6 -14 v-28z" unicode="~"/>
<glyph glyph-name="uni00A0" horiz-adv-x="247" unicode=" "/>
<glyph glyph-name="exclamdown" horiz-adv-x="217" unicode="¡" d="M135 -203h-51q-8 0 -13.5 5.5t-5.5 13.5l7 520q0 8 6 13.5t14 5.5h35q8 0 14 -6t6 -13l8 -520q0 -8 -6 -13.5t-14 -5.5zM153 437q0 -8 -5.5 -13.5t-13.5 -5.5h-48q-8 0 -13.5 5.5t-5.5 13.5v94q0 19 19 19h48q8 0 13.5 -5.5t5.5 -13.5v-94z"/>
<glyph glyph-name="cent" d="M482 26q0 -18 -20 -22q-45 -7 -94 -10v-90q0 -8 -6 -14t-14 -6h-41q-8 0 -14 6t-6 14v94q-78 16 -120.5 78.5t-42.5 159.5v78q0 97 42.5 159.5t120.5 78.5v93q0 8 6 14t14 6h41q8 0 14 -6t6 -14v-89q49 -3 94 -10q12 -2 16 -6.5t4 -15.5v-36q0 -15 -17 -15h-4 q-70 8 -124 8q-125 0 -125 -167v-78q0 -167 125 -167q54 0 124 8h4q17 0 17 -15v-36z" unicode="¢"/>
<glyph glyph-name="sterling" d="M535 17q0 -17 -20 -17h-399q-17 0 -17 15v39q0 6 10 23q31 53 31 118v152h-52q-18 0 -18 18v42q0 7 6 12.5t14 5.5h50v65q0 130 49 191t172 61q77 0 155 -13q12 -2 15.5 -5.5t3.5 -11.5v-41q0 -17 -15 -17h-5q-97 11 -154 11q-77 0 -103.5 -36.5t-26.5 -138.5v-65h215 q8 0 13.5 -5t5.5 -13v-42q0 -7 -6 -12.5t-14 -5.5h-214v-152q0 -55 -35 -119h319q20 0 20 -15v-44z" unicode="£"/>
<glyph glyph-name="currency" d="M421 373q0 49 -35 84t-85 35t-85 -35t-35 -84t35.5 -84.5t84.5 -35.5t84.5 35.5t35.5 84.5zM548 574q0 -8 -7 -15l-82 -82q33 -47 33 -104q0 -59 -34 -106l82 -82q7 -7 7 -15q0 -7 -5 -12l-27 -27q-5 -5 -11 -5q-8 0 -15 7l-84 84q-47 -33 -102 -33q-57 0 -104 33 l-82 -82q-8 -8 -16 -8q-5 0 -10 5l-27 28q-5 7 -5 11q0 8 7 15l81 81q-34 46 -34 106q0 58 32 103l-81 81q-7 7 -7 15t5 12l28 27q5 5 11 5q7 0 15 -8l80 -80q47 34 106 34q58 0 106 -34l82 82q7 7 15 7q6 0 11 -5l27 -27q5 -5 5 -11z" unicode="¤"/>
<glyph glyph-name="yen" d="M569 231q0 -8 -6 -14t-14 -6h-200v-191q0 -8 -5 -14t-13 -6h-57q-17 0 -17 20v191h-201q-8 0 -14 6t-6 14v30q0 8 6 14t14 6h201v21l-55 110h-146q-8 0 -14 6t-6 14v30q0 8 6 14t14 6h111l-119 236q-3 8 -3 12q0 13 16 13h63q11 0 17 -14l162 -339l162 339q6 14 17 14h62 q17 0 17 -14q0 -5 -3 -11l-119 -236h110q8 0 14 -6t6 -14v-30q0 -8 -6 -14t-14 -6h-145l-55 -110v-21h200q8 0 14 -6t6 -14v-30z" unicode="¥"/>
<glyph glyph-name="brokenbar" horiz-adv-x="249" unicode="¦" d="M169 -191q0 -8 -5.5 -14t-12.5 -6h-53q-7 0 -12.5 6t-5.5 14v347q0 8 5.5 13.5t12.5 5.5h53q7 0 12.5 -5.5t5.5 -13.5v-347zM169 362q0 -8 -5.5 -14t-12.5 -6h-53q-7 0 -12.5 6t-5.5 14v347q0 8 5.5 13.5t12.5 5.5h53q7 0 12.5 -5.5t5.5 -13.5v-347z"/>
<glyph glyph-name="section" horiz-adv-x="547" unicode="§" d="M407 193q0 39 -20.5 63.5t-81.5 62.5l-90 55q-63 40 -72 47q-9 -27 -9 -53q0 -62 89 -114l110 -64q31 -18 67 -43q7 22 7 46zM499 -17q0 -41 -11.5 -74t-37.5 -62.5t-76.5 -46t-121.5 -16.5q-80 0 -168 14q-19 4 -19 19v42q0 17 20 17h2q108 -10 162 -10h3q84 0 117 30 t33 87q0 40 -21.5 65.5t-86.5 64.5l-112 67q-78 47 -106 88t-28 100q0 51 34 105q-34 36 -34 101q0 86 56 131t183 45q100 0 175 -13q18 -4 18 -19v-43q0 -17 -18 -17h-1q-22 1 -81.5 5t-92.5 4q-84 0 -114 -21.5t-30 -71.5q0 -34 20.5 -58t80.5 -59l109 -64 q85 -50 115.5 -94.5t30.5 -105.5q0 -65 -29 -109q29 -43 29 -101z"/>
<glyph glyph-name="dieresis" horiz-adv-x="373" unicode="¨" d="M139 660q0 -8 -6 -13.5t-14 -5.5h-39q-8 0 -14 5.5t-6 13.5v81q0 7 6 13.5t14 6.5h39q7 0 13.5 -6.5t6.5 -13.5v-81zM314 660q0 -8 -6 -13.5t-14 -5.5h-39q-8 0 -14 5.5t-6 13.5v81q0 7 6.5 13.5t13.5 6.5h39q8 0 14 -6.5t6 -13.5v-81z"/>
<glyph glyph-name="copyright" horiz-adv-x="750" unicode="©" d="M476 183q0 -13 -15 -15q-35 -7 -91 -7q-69 0 -111 44t-42 139v66q0 95 42 139.5t111 44.5q51 0 91 -8q15 -2 15 -14v-28q0 -12 -13 -12h-3q-53 5 -90 5q-91 0 -91 -127v-66q0 -126 91 -126q38 0 90 5h2q14 0 14 -13v-27zM656 374q0 117 -82.5 200t-199.5 83t-199 -83 t-82 -200t82 -198.5t199 -81.5t199.5 81.5t82.5 198.5zM700 374q0 -134 -96 -229t-230 -95t-229 95t-95 229q0 135 95 231t229 96t230 -96.5t96 -230.5z"/>
<glyph glyph-name="ordfeminine" horiz-adv-x="294" unicode="ª" d="M205 473v103h-23h-9q-48 -2 -66.5 -12.5t-18.5 -37.5v-7q0 -27 14.5 -39t53.5 -12q22 0 49 5zM264 450q0 -14 -10 -16q-45 -13 -98 -13q-67 0 -96.5 23.5t-29.5 74.5v7q0 48 34.5 70t107.5 22h32v13q0 35 -12 49t-42 14q-27 0 -84 -5h-2q-14 0 -14 13v21q0 12 15 14 q49 9 85 9q114 0 114 -115v-181z"/>
<glyph glyph-name="guillemotleft" horiz-adv-x="614" unicode="«" d="M300 79q0 -9 -11 -9h-58q-11 0 -21 10l-169 169q-11 11 -11 28t11 28l169 169q10 10 21 10h58q11 0 11 -9q0 -7 -6 -13l-178 -185l178 -185q6 -6 6 -13zM560 79q0 -9 -11 -9h-58q-11 0 -21 10l-169 169q-11 11 -11 28t11 28l169 169q10 10 21 10h58q11 0 11 -9 q0 -7 -6 -13l-178 -185l178 -185q6 -6 6 -13z"/>
<glyph glyph-name="logicalnot" d="M515 247q0 -8 -6 -14t-14 -6h-32q-8 0 -14 6t-6 14v219h-333q-20 0 -20 16v40q0 16 20 16h388q17 0 17 -17v-274z" unicode="¬"/>
<glyph glyph-name="uni00AD" horiz-adv-x="333" unicode="­" d="M285 273q0 -17 -19 -17h-199q-19 0 -19 17v39q0 8 5.5 13t13.5 5h199q19 0 19 -18v-39z"/>
<glyph glyph-name="registered" horiz-adv-x="598" unicode="®" d="M363 555v4q0 30 -18 42t-60 12h-32h-14v-112q6 0 24 -0.5t22 -0.5q42 0 60 12.5t18 42.5zM425 331q0 -13 -12 -13h-28q-8 0 -12 8l-81 128l-12 3h-40v-124q0 -6 -4 -10.5t-10 -4.5h-25q-13 0 -13 15v302q0 21 18 22q23 3 76 3q65 0 98 -23t33 -78v-4q0 -71 -67 -90 l77 -125q2 -4 2 -9zM528 484q0 94 -67 161.5t-162 67.5q-94 0 -160.5 -67t-66.5 -162q0 -94 66 -160.5t161 -66.5t162 66.5t67 160.5zM569 484q0 -112 -79 -190t-191 -78t-190.5 78t-78.5 190t78.5 190.5t190.5 78.5t191 -78.5t79 -190.5z"/>
<glyph glyph-name="macron" horiz-adv-x="373" unicode="¯" d="M351 692q0 -17 -20 -17h-288q-20 0 -20 17v34q0 17 20 17h288q20 0 20 -17v-34z"/>
<glyph glyph-name="degree" horiz-adv-x="342" unicode="°" d="M260 608q0 36 -26 62t-62 26t-62 -26t-26 -62t26 -62t62 -26t62 26t26 62zM314 608q0 -58 -42 -100t-100 -42q-59 0 -101 42t-42 100t42 100t101 42q58 0 100 -42t42 -100z"/>
<glyph glyph-name="plusminus" d="M530 16q0 -16 -20 -16h-415q-20 0 -20 16v33q0 16 20 16h415q20 0 20 -16v-33zM530 371q0 -16 -20 -16h-172v-171q0 -20 -16 -20h-40q-16 0 -16 20v171h-171q-20 0 -20 16v40q0 16 20 16h171v172q0 20 16 20h40q16 0 16 -20v-172h172q20 0 20 -16v-40z" unicode="±"/>
<glyph glyph-name="twosuperior" horiz-adv-x="333" unicode="²" d="M294 853q0 -33 -17 -58t-55 -53q-39 -25 -52 -35q-42 -29 -57 -51.5t-15 -55.5v-4h173q18 0 18 -17v-23q0 -8 -5.5 -13t-12.5 -5h-214q-7 0 -12.5 5t-5.5 13v44q0 91 86 148l55 36h-1q33 24 42.5 36t9.5 33q0 48 -73 48q-38 0 -97 -9q-16 0 -16 18v19q0 13 15 18 q40 10 98 10q136 0 136 -104z"/>
<glyph glyph-name="threesuperior" horiz-adv-x="333" unicode="³" d="M292 657q0 -63 -38 -93t-104 -30q-38 0 -93 11q-16 4 -16 18v18q0 18 19 18q53 -8 90 -8q40 0 58 15.5t18 50.5v11q0 23 -13 41t-42 18h-98q-17 0 -17 16v20q0 17 17 17h98q55 0 55 57v7q0 30 -17.5 43.5t-58.5 13.5q-20 0 -80 -8q-1 0 -5 -0.5t-7 -0.5q-17 0 -17 18v18 q0 13 15 19q50 10 94 10q142 0 142 -113v-7q0 -56 -43 -84q43 -27 43 -85v-11z"/>
<glyph glyph-name="acute" horiz-adv-x="373" unicode="´" d="M333 772q0 -4 -4 -8l-113 -126q-14 -15 -23 -15h-54q-9 0 -9 7q0 6 4 10l98 124q12 15 24 15h66q11 0 11 -7z"/>
<glyph glyph-name="mu" horiz-adv-x="557" unicode="µ" d="M489 20q0 -8 -5.5 -14t-13.5 -6h-50q-8 0 -13.5 6t-5.5 14v19q-82 -46 -159 -46q-50 0 -86 17v-186q0 -8 -6 -14t-14 -6h-48q-8 0 -14 6t-6 14v706q0 8 6 14t14 6h48q8 0 14 -6t6 -14v-329q0 -74 25.5 -103t84.5 -29q57 0 135 39v422q0 8 6 14t14 6h49q8 0 13.5 -6 t5.5 -14v-510z"/>
<glyph glyph-name="paragraph" horiz-adv-x="622" unicode="¶" d="M557 -176q0 -8 -5 -13.5t-12 -5.5h-23q-7 0 -12 5.5t-5 13.5v865h-58v-865q0 -8 -5 -13.5t-12 -5.5h-23q-7 0 -12 5.5t-5 13.5v439h-104q-106 0 -171 58.5t-65 164.5v34q0 106 65 164.5t171 58.5h260q16 0 16 -19v-900z"/>
<glyph glyph-name="periodcentered" horiz-adv-x="214" unicode="·" d="M150 345q0 -8 -5.5 -14t-13.5 -6h-48q-8 0 -13.5 6t-5.5 14v93q0 8 5.5 13.5t13.5 5.5h48q8 0 13.5 -5.5t5.5 -13.5v-93z"/>
<glyph glyph-name="cedilla" horiz-adv-x="366" unicode="¸" d="M254 -39q0 -4 -4 -8l-113 -126q-13 -15 -23 -15h-54q-9 0 -9 7q0 6 4 10l97 124q12 15 25 15h66q11 0 11 -7z"/>
<glyph glyph-name="onesuperior" horiz-adv-x="333" unicode="¹" d="M146 883l-64 -27q-17 -6 -17 13v28q0 10 10 13l80 38q12 6 32 6h6q11 0 14 -4.5t3 -14.5v-378q0 -7 -5 -13t-12 -6h-30q-7 0 -12 5.5t-5 13.5v326z"/>
<glyph glyph-name="ordmasculine" horiz-adv-x="322" unicode="º" d="M230 566v35q0 47 -16 69.5t-52 22.5q-70 0 -70 -92v-35q0 -93 70 -93q68 0 68 93zM291 566q0 -70 -33 -107.5t-96 -37.5t-96.5 37.5t-33.5 107.5v35q0 70 33.5 107.5t96.5 37.5t96 -37.5t33 -107.5v-35z"/>
<glyph glyph-name="guillemotright" horiz-adv-x="614" unicode="»" d="M324 277q0 -17 -11 -28l-169 -169q-10 -10 -21 -10h-58q-11 0 -11 9q0 7 6 13l178 185l-178 185q-6 6 -6 13q0 9 11 9h58q11 0 21 -10l169 -169q11 -11 11 -28zM584 277q0 -17 -11 -28l-169 -169q-10 -10 -21 -10h-58q-11 0 -11 9q0 7 6 13l178 185l-178 185q-6 6 -6 13 q0 9 11 9h58q11 0 21 -10l169 -169q11 -11 11 -28z"/>
<glyph glyph-name="onequarter" horiz-adv-x="741" unicode="¼" d="M579 163v162l-113 -162h113zM701 124q0 -17 -19 -17h-38v-88q0 -7 -5 -13t-13 -6h-31q-17 0 -17 19v88h-147q-17 0 -24 6t-7 22v20q0 15 8 26l162 224q6 11 20 11h31q23 0 23 -20v-233h38q8 0 13.5 -5t5.5 -12v-22zM121 672l-64 -27q-17 -6 -17 13v28q0 10 10 13l80 38 q12 6 32 6h6q11 0 14 -4.5t3 -14.5v-378q0 -7 -5 -13t-12 -6h-30q-7 0 -12 5.5t-5 13.5v326zM580 737q0 -3 -5 -13l-418 -708q-11 -20 -22 -20h-49q-10 0 -10 8q0 7 4 12l418 708q11 19 23 19h51q8 0 8 -6z"/>
<glyph glyph-name="onehalf" horiz-adv-x="744" unicode="½" d="M704 315q0 -33 -17 -58t-55 -53q-39 -25 -52 -35q-42 -29 -57 -51.5t-15 -55.5v-4h173q18 0 18 -17v-23q0 -8 -5.5 -13t-12.5 -5h-214q-7 0 -12.5 5t-5.5 13v44q0 91 86 148l55 36h-1q33 24 42.5 36t9.5 33q0 48 -73 48q-38 0 -97 -9q-16 0 -16 18v19q0 13 15 18 q40 10 98 10q136 0 136 -104zM121 672l-64 -27q-17 -6 -17 13v28q0 10 10 13l80 38q12 6 32 6h6q11 0 14 -4.5t3 -14.5v-378q0 -7 -5 -13t-12 -6h-30q-7 0 -12 5.5t-5 13.5v326zM580 737q0 -3 -5 -13l-418 -708q-11 -20 -22 -20h-49q-10 0 -10 8q0 7 4 12l418 708 q11 19 23 19h51q8 0 8 -6z"/>
<glyph glyph-name="threequarters" horiz-adv-x="826" unicode="¾" d="M291 446q0 -63 -38 -93t-104 -30q-38 0 -93 11q-16 4 -16 18v18q0 18 19 18q53 -8 90 -8q40 0 58 15.5t18 50.5v11q0 23 -13 41t-42 18h-98q-17 0 -17 16v20q0 17 17 17h98q55 0 55 57v7q0 30 -17.5 43.5t-58.5 13.5q-20 0 -80 -8q-1 0 -5 -0.5t-7 -0.5q-17 0 -17 18v18 q0 13 15 19q50 10 94 10q142 0 142 -113v-7q0 -56 -43 -84q43 -27 43 -85v-11zM664 163v162l-113 -162h113zM786 124q0 -17 -19 -17h-38v-88q0 -7 -5 -13t-13 -6h-31q-17 0 -17 19v88h-147q-17 0 -24 6t-7 22v20q0 15 8 26l162 224q5 11 20 11h31q23 0 23 -20v-233h38 q8 0 13.5 -5t5.5 -12v-22zM664 737q0 -3 -5 -13l-418 -708q-11 -20 -22 -20h-49q-10 0 -10 8q0 7 4 12l418 708q11 19 23 19h51q8 0 8 -6z"/>
<glyph glyph-name="questiondown" horiz-adv-x="446" unicode="¿" d="M406 -165q0 -20 -17 -23q-67 -13 -136 -13q-200 0 -200 151v12q0 38 18.5 74t72.5 97l45 51q23 26 31.5 37t15 28t6.5 38v49q0 8 6 13.5t14 5.5h44q8 0 13.5 -5.5t5.5 -13.5v-49q0 -48 -13.5 -78t-52.5 -73l-46 -51q-37 -40 -49.5 -66t-12.5 -57v-12q0 -39 24.5 -55.5 t77.5 -16.5q54 0 135 9h3q15 0 15 -17v-35zM328 438q0 -8 -6 -14t-14 -6h-48q-8 0 -13.5 6t-5.5 14v93q0 19 19 19h48q8 0 14 -5.5t6 -13.5v-93z"/>
<glyph glyph-name="Agrave" horiz-adv-x="633" unicode="À" d="M385 801q0 -7 -9 -7h-54q-10 0 -23 15l-113 126q-4 4 -4 8q0 7 11 7h66q13 0 25 -15l97 -124q4 -4 4 -10zM427 324l-91 329q-5 18 -19 18q-15 0 -20 -18l-91 -329h221zM604 16q0 -16 -17 -16h-59q-13 0 -17 15l-65 230h-259l-64 -230q-4 -15 -18 -15h-59q-17 0 -17 16 q0 5 1 7l185 651q21 76 102 76q80 0 101 -75l185 -652q1 -2 1 -7z"/>
<glyph glyph-name="Aacute" horiz-adv-x="633" unicode="Á" d="M469 943q0 -4 -4 -8l-113 -126q-14 -15 -23 -15h-54q-9 0 -9 7q0 6 4 10l98 124q12 15 24 15h66q11 0 11 -7zM427 324l-91 329q-5 18 -19 18q-15 0 -20 -18l-91 -329h221zM604 16q0 -16 -17 -16h-59q-13 0 -17 15l-65 230h-259l-64 -230q-4 -15 -18 -15h-59q-17 0 -17 16 q0 5 1 7l185 651q21 76 102 76q80 0 101 -75l185 -652q1 -2 1 -7z"/>
<glyph glyph-name="Acircumflex" horiz-adv-x="633" unicode="Â" d="M488 801q0 -7 -9 -7h-52q-9 0 -23 15l-82 97l-83 -97q-14 -15 -23 -15h-52q-9 0 -9 7q0 6 4 10l96 124q12 15 24 15h85q13 0 25 -15l95 -124q4 -4 4 -10zM427 324l-91 329q-5 18 -19 18q-15 0 -20 -18l-91 -329h221zM604 16q0 -16 -17 -16h-59q-13 0 -17 15l-65 230h-259 l-64 -230q-4 -15 -18 -15h-59q-17 0 -17 16q0 5 1 7l185 651q21 76 102 76q80 0 101 -75l185 -652q1 -2 1 -7z"/>
<glyph glyph-name="Atilde" horiz-adv-x="633" unicode="Ã" d="M497 894q0 -53 -22.5 -79t-71.5 -26q-37 0 -64 21l-61 49q-28 22 -41 22q-31 0 -31 -46v-21q0 -7 -5 -12t-12 -5h-31q-7 0 -11.5 5t-4.5 12v21q0 53 25 81t70 28q29 0 60 -24l71 -56q18 -14 35 -14q16 0 23 9.5t7 34.5v23q0 7 5 12t12 5h31q7 0 11.5 -5t4.5 -12v-23z M427 324l-91 329q-5 18 -19 18q-15 0 -20 -18l-91 -329h221zM604 16q0 -16 -17 -16h-59q-13 0 -17 15l-65 230h-259l-64 -230q-4 -15 -18 -15h-59q-17 0 -17 16q0 5 1 7l185 651q21 76 102 76q80 0 101 -75l185 -652q1 -2 1 -7z"/>
<glyph glyph-name="Adieresis" horiz-adv-x="633" unicode="Ä" d="M275 827q0 -8 -6 -13.5t-14 -5.5h-39q-8 0 -14 5.5t-6 13.5v81q0 8 6 14t14 6h39q7 0 13.5 -6t6.5 -14v-81zM450 827q0 -8 -6 -13.5t-14 -5.5h-39q-8 0 -14 5.5t-6 13.5v81q0 8 6.5 14t13.5 6h39q8 0 14 -6t6 -14v-81zM427 324l-91 329q-5 18 -19 18q-15 0 -20 -18 l-91 -329h221zM604 16q0 -16 -17 -16h-59q-13 0 -17 15l-65 230h-259l-64 -230q-4 -15 -18 -15h-59q-17 0 -17 16q0 5 1 7l185 651q21 76 102 76q80 0 101 -75l185 -652q1 -2 1 -7z"/>
<glyph glyph-name="Aring" horiz-adv-x="633" unicode="Å" d="M369 879q0 22 -15.5 37t-37.5 15t-37 -15t-15 -37t15 -37.5t37 -15.5t37.5 15.5t15.5 37.5zM417 878q0 -42 -29.5 -71.5t-71.5 -29.5t-72 29.5t-30 71.5t30 72t72 30t71.5 -30t29.5 -72zM427 324l-91 329q-5 18 -19 18q-15 0 -20 -18l-91 -329h221zM604 16q0 -16 -17 -16 h-59q-13 0 -17 15l-65 230h-259l-64 -230q-4 -15 -18 -15h-59q-17 0 -17 16q0 5 1 7l185 651q21 76 102 76q80 0 101 -75l185 -652q1 -2 1 -7z"/>
<glyph glyph-name="AE" horiz-adv-x="859" unicode="Æ" d="M416 324v340h-109q-15 0 -20 -17l-91 -323h220zM804 14q0 -12 -10 -14q-65 -7 -165 -7q-107 0 -160 44t-53 142v66h-239l-64 -230q-4 -15 -18 -15h-59q-17 0 -17 16q0 5 1 7l185 645q22 75 102 75h487q10 0 10 -14v-53q0 -12 -11 -12h-286v-239h277q8 0 14 -6t6 -14v-38 q0 -8 -6 -14t-14 -6h-277v-168q0 -60 23.5 -82t99.5 -22h163q11 0 11 -12v-49z"/>
<glyph glyph-name="Ccedilla" horiz-adv-x="545" unicode="Ç" d="M381 -39q0 -4 -4 -8l-113 -126q-14 -15 -23 -15h-54q-9 0 -9 7q0 4 4 10l97 124q12 15 25 15h66q11 0 11 -7zM510 26q0 -16 -20 -20q-68 -13 -166 -13q-50 0 -94 15t-83.5 48t-63 96t-23.5 150v139q0 88 23.5 151t63.5 96t83.5 47.5t93.5 14.5q67 0 168 -16q16 -2 16 -13 v-51q0 -11 -12 -11h-3q-108 9 -168 9q-174 0 -174 -227v-139q0 -119 47 -173t127 -54q69 0 165 8h4q16 0 16 -16v-41z"/>
<glyph glyph-name="Egrave" horiz-adv-x="551" unicode="È" d="M360 800q0 -7 -9 -7h-54q-9 0 -23 15l-113 126q-4 4 -4 8q0 7 11 7h66q13 0 25 -15l97 -124q4 -4 4 -10zM496 12q0 -12 -10 -14q-48 -5 -195 -5q-107 0 -160 44t-53 142v385q0 98 53 142t160 44q132 0 195 -6q10 -2 10 -14v-50q0 -12 -11 -12h-193q-76 0 -99.5 -22 t-23.5 -82v-139h307q8 0 14 -6t6 -14v-38q0 -8 -6 -14t-14 -6h-307v-168q0 -60 23.5 -82t99.5 -22h193q11 0 11 -12v-51z"/>
<glyph glyph-name="Eacute" horiz-adv-x="551" unicode="É" d="M436 943q0 -4 -4 -8l-113 -126q-13 -15 -23 -15h-54q-9 0 -9 7q0 6 4 10l98 124q12 15 24 15h66q11 0 11 -7zM496 12q0 -12 -10 -14q-48 -5 -195 -5q-107 0 -160 44t-53 142v385q0 98 53 142t160 44q132 0 195 -6q10 -2 10 -14v-50q0 -12 -11 -12h-193q-76 0 -99.5 -22 t-23.5 -82v-139h307q8 0 14 -6t6 -14v-38q0 -8 -6 -14t-14 -6h-307v-168q0 -60 23.5 -82t99.5 -22h193q11 0 11 -12v-51z"/>
<glyph glyph-name="Ecircumflex" horiz-adv-x="551" unicode="Ê" d="M456 801q0 -7 -9 -7h-52q-9 0 -23 15l-82 97l-83 -97q-14 -15 -23 -15h-52q-9 0 -9 7q0 6 4 10l96 124q12 15 24 15h85q13 0 25 -15l95 -124q4 -4 4 -10zM496 12q0 -12 -10 -14q-48 -5 -195 -5q-107 0 -160 44t-53 142v385q0 98 53 142t160 44q132 0 195 -6q10 -2 10 -14 v-50q0 -12 -11 -12h-193q-76 0 -99.5 -22t-23.5 -82v-139h307q8 0 14 -6t6 -14v-38q0 -8 -6 -14t-14 -6h-307v-168q0 -60 23.5 -82t99.5 -22h193q11 0 11 -12v-51z"/>
<glyph glyph-name="Edieresis" horiz-adv-x="551" unicode="Ë" d="M249 829q0 -8 -6 -13.5t-14 -5.5h-39q-8 0 -14 5.5t-6 13.5v81q0 8 6 14t14 6h39q7 0 13.5 -6t6.5 -14v-81zM424 829q0 -8 -6 -13.5t-14 -5.5h-39q-8 0 -14 5.5t-6 13.5v81q0 8 6.5 14t13.5 6h39q8 0 14 -6t6 -14v-81zM496 12q0 -12 -10 -14q-48 -5 -195 -5 q-107 0 -160 44t-53 142v385q0 98 53 142t160 44q132 0 195 -6q10 -2 10 -14v-50q0 -12 -11 -12h-193q-76 0 -99.5 -22t-23.5 -82v-139h307q8 0 14 -6t6 -14v-38q0 -8 -6 -14t-14 -6h-307v-168q0 -60 23.5 -82t99.5 -22h193q11 0 11 -12v-51z"/>
<glyph glyph-name="Igrave" horiz-adv-x="267" unicode="Ì" d="M198 801q0 -7 -9 -7h-54q-9 0 -23 15l-113 126q-4 4 -4 8q0 7 11 7h66q13 0 25 -15l97 -124q4 -4 4 -10zM179 20q0 -8 -5 -14t-13 -6h-55q-7 0 -12.5 6t-5.5 14v704q0 19 18 19h55q8 0 13 -5.5t5 -13.5v-704z"/>
<glyph glyph-name="Iacute" horiz-adv-x="267" unicode="Í" d="M272 943q0 -4 -4 -8l-113 -126q-13 -15 -23 -15h-54q-9 0 -9 7q0 6 4 10l98 124q12 15 24 15h66q11 0 11 -7zM179 20q0 -8 -5 -14t-13 -6h-55q-7 0 -12.5 6t-5.5 14v704q0 19 18 19h55q8 0 13 -5.5t5 -13.5v-704z"/>
<glyph glyph-name="Icircumflex" horiz-adv-x="267" unicode="Î" d="M296 801q0 -7 -9 -7h-52q-9 0 -23 15l-82 97l-83 -97q-13 -15 -23 -15h-52q-9 0 -9 7q0 6 4 10l96 124q12 15 24 15h85q13 0 25 -15l95 -124q4 -4 4 -10zM179 20q0 -8 -5 -14t-13 -6h-55q-7 0 -12.5 6t-5.5 14v704q0 19 18 19h55q8 0 13 -5.5t5 -13.5v-704z"/>
<glyph glyph-name="Idieresis" horiz-adv-x="267" unicode="Ï" d="M86 828q0 -8 -6 -13.5t-14 -5.5h-39q-8 0 -14 5.5t-6 13.5v81q0 7 6.5 13.5t13.5 6.5h39q8 0 14 -6.5t6 -13.5v-81zM261 828q0 -8 -6 -13.5t-14 -5.5h-39q-8 0 -14 5.5t-6 13.5v81q0 7 6 13.5t14 6.5h39q7 0 13.5 -6.5t6.5 -13.5v-81zM179 20q0 -8 -5 -14t-13 -6h-55 q-7 0 -12.5 6t-5.5 14v704q0 19 18 19h55q8 0 13 -5.5t5 -13.5v-704z"/>
<glyph glyph-name="Eth" horiz-adv-x="641" unicode="Ð" d="M493 304v135q0 127 -56.5 180t-155.5 53q-61 0 -111 -3v-244h103q8 0 14 -6t6 -14v-38q0 -8 -6 -14t-14 -6h-103v-274q32 -2 111 -2q212 0 212 233zM584 304q0 -156 -80 -233.5t-223 -77.5q-124 0 -182 10q-21 3 -21 25v319h-38q-8 0 -14 6t-6 14v38q0 8 6 14t14 6h38 v290q0 22 21 25q58 10 182 10q144 0 223.5 -77t79.5 -234v-135z"/>
<glyph glyph-name="Ntilde" horiz-adv-x="680" unicode="Ñ" d="M508 892q0 -53 -22.5 -79t-71.5 -26q-37 0 -64 21l-61 49q-28 22 -41 22q-31 0 -31 -46v-21q0 -7 -5 -12t-12 -5h-31q-7 0 -11.5 5t-4.5 12v21q0 53 25 81t70 28q29 0 60 -24l71 -56q17 -14 35 -14q16 0 23 9.5t7 34.5v23q0 7 5 12t12 5h31q7 0 11.5 -5t4.5 -12v-23z M602 29q0 -12 -8.5 -20.5t-20.5 -8.5h-62q-24 0 -32 16l-309 587q-2 3 -3 3t-1 -3v-584q0 -8 -5.5 -13.5t-12.5 -5.5h-52q-18 0 -18 12v703q0 12 8.5 20t20.5 8h55q20 0 27.5 -4t13.5 -16l307 -584l2 -3q1 0 1 3v585q0 8 5.5 13.5t12.5 5.5h53q18 0 18 -19v-695z"/>
<glyph glyph-name="Ograve" horiz-adv-x="661" unicode="Ò" d="M397 801q0 -7 -9 -7h-54q-10 0 -23 15l-113 126q-4 4 -4 8q0 7 11 7h66q13 0 25 -15l97 -124q4 -4 4 -10zM509 307v129q0 232 -178 232q-179 0 -179 -232v-129q0 -232 179 -232q178 0 178 232zM601 307q0 -160 -73 -237t-197 -77t-197.5 77.5t-73.5 236.5v129 q0 159 73.5 236.5t197.5 77.5t197 -77t73 -237v-129z"/>
<glyph glyph-name="Oacute" horiz-adv-x="661" unicode="Ó" d="M457 943q0 -4 -4 -8l-113 -126q-14 -15 -23 -15h-54q-9 0 -9 7q0 6 4 10l98 124q12 15 24 15h66q11 0 11 -7zM509 307v129q0 232 -178 232q-179 0 -179 -232v-129q0 -232 179 -232q178 0 178 232zM601 307q0 -160 -73 -237t-197 -77t-197.5 77.5t-73.5 236.5v129 q0 159 73.5 236.5t197.5 77.5t197 -77t73 -237v-129z"/>
<glyph glyph-name="Ocircumflex" horiz-adv-x="661" unicode="Ô" d="M497 802q0 -7 -9 -7h-52q-10 0 -23 15l-82 97l-83 -97q-14 -15 -23 -15h-52q-9 0 -9 7q0 6 4 10l96 124q12 15 24 15h85q13 0 25 -15l95 -124q4 -4 4 -10zM509 307v129q0 232 -178 232q-179 0 -179 -232v-129q0 -232 179 -232q178 0 178 232zM601 307q0 -160 -73 -237 t-197 -77t-197.5 77.5t-73.5 236.5v129q0 159 73.5 236.5t197.5 77.5t197 -77t73 -237v-129z"/>
<glyph glyph-name="Otilde" horiz-adv-x="661" unicode="Õ" d="M511 894q0 -53 -22.5 -79t-71.5 -26q-37 0 -64 21l-61 49q-28 22 -41 22q-31 0 -31 -46v-21q0 -7 -5 -12t-12 -5h-31q-7 0 -11.5 5t-4.5 12v21q0 53 25 81t70 28q29 0 60 -24l71 -56q17 -14 35 -14q16 0 23 9.5t7 34.5v23q0 7 5 12t12 5h31q7 0 11.5 -5t4.5 -12v-23z M509 307v129q0 232 -178 232q-179 0 -179 -232v-129q0 -232 179 -232q178 0 178 232zM601 307q0 -160 -73 -237t-197 -77t-197.5 77.5t-73.5 236.5v129q0 159 73.5 236.5t197.5 77.5t197 -77t73 -237v-129z"/>
<glyph glyph-name="Odieresis" horiz-adv-x="661" unicode="Ö" d="M283 829q0 -8 -6 -13.5t-14 -5.5h-39q-8 0 -14 5.5t-6 13.5v81q0 8 6 14t14 6h39q7 0 13.5 -6t6.5 -14v-81zM458 829q0 -8 -6 -13.5t-14 -5.5h-39q-8 0 -14 5.5t-6 13.5v81q0 8 6.5 14t13.5 6h39q8 0 14 -6t6 -14v-81zM509 307v129q0 232 -178 232q-179 0 -179 -232v-129 q0 -232 179 -232q178 0 178 232zM601 307q0 -160 -73 -237t-197 -77t-197.5 77.5t-73.5 236.5v129q0 159 73.5 236.5t197.5 77.5t197 -77t73 -237v-129z"/>
<glyph glyph-name="multiply" d="M488 243q0 -5 -5 -10l-28 -28q-5 -5 -10 -5q-8 0 -16 8l-132 132l-131 -131q-8 -8 -16 -8q-5 0 -10 5l-28 28q-5 5 -5 10q0 8 8 16l131 131l-131 132q-8 8 -8 15q0 5 5 10l28 28q5 5 11 5q8 0 15 -7l131 -132l132 132q8 8 16 8q5 0 10 -5l28 -28q5 -5 5 -10q0 -8 -8 -16 l-132 -132l132 -132q8 -8 8 -16z" unicode="×"/>
<glyph glyph-name="Oslash" horiz-adv-x="661" unicode="Ø" d="M509 307v129q0 62 -12 106l-297 -414q44 -53 131 -53q178 0 178 232zM462 613q-45 55 -131 55q-179 0 -179 -232v-129q0 -59 13 -108zM633 735q0 -3 -3 -8l-71 -98q42 -75 42 -193v-129q0 -160 -73 -237t-197 -77q-114 0 -183 63l-31 -44q-14 -19 -25 -19h-53 q-11 0 -11 11q0 4 3 8l72 100q-43 74 -43 195v129q0 159 73.5 236.5t197.5 77.5q116 0 184 -64l29 41q14 19 26 19h52q11 0 11 -11z"/>
<glyph glyph-name="Ugrave" horiz-adv-x="662" unicode="Ù" d="M389 801q0 -7 -9 -7h-54q-10 0 -23 15l-113 126q-4 4 -4 8q0 7 11 7h66q13 0 25 -15l97 -124q4 -4 4 -10zM587 270q0 -277 -256 -277t-256 277v454q0 8 5.5 13.5t13.5 5.5h54q8 0 13.5 -5.5t5.5 -13.5v-454q0 -101 37 -150t127 -49t127 48.5t37 150.5v454q0 8 5.5 13.5 t13.5 5.5h54q8 0 13.5 -5.5t5.5 -13.5v-454z"/>
<glyph glyph-name="Uacute" horiz-adv-x="662" unicode="Ú" d="M479 943q0 -4 -4 -8l-113 -126q-14 -15 -23 -15h-54q-9 0 -9 7q0 6 4 10l98 124q12 15 24 15h66q11 0 11 -7zM587 270q0 -277 -256 -277t-256 277v454q0 8 5.5 13.5t13.5 5.5h54q8 0 13.5 -5.5t5.5 -13.5v-454q0 -101 37 -150t127 -49t127 48.5t37 150.5v454 q0 8 5.5 13.5t13.5 5.5h54q8 0 13.5 -5.5t5.5 -13.5v-454z"/>
<glyph glyph-name="Ucircumflex" horiz-adv-x="662" unicode="Û" d="M494 801q0 -7 -9 -7h-52q-9 0 -23 15l-82 97l-83 -97q-13 -15 -23 -15h-52q-9 0 -9 7q0 6 4 10l96 124q12 15 24 15h85q13 0 25 -15l95 -124q4 -4 4 -10zM587 270q0 -277 -256 -277t-256 277v454q0 8 5.5 13.5t13.5 5.5h54q8 0 13.5 -5.5t5.5 -13.5v-454q0 -101 37 -150 t127 -49t127 48.5t37 150.5v454q0 8 5.5 13.5t13.5 5.5h54q8 0 13.5 -5.5t5.5 -13.5v-454z"/>
<glyph glyph-name="Udieresis" horiz-adv-x="662" unicode="Ü" d="M281 829q0 -8 -6 -13.5t-14 -5.5h-39q-8 0 -14 5.5t-6 13.5v81q0 8 6 14t14 6h39q7 0 13.5 -6t6.5 -14v-81zM456 829q0 -8 -6 -13.5t-14 -5.5h-39q-8 0 -14 5.5t-6 13.5v81q0 8 6.5 14t13.5 6h39q8 0 14 -6t6 -14v-81zM587 270q0 -277 -256 -277t-256 277v454 q0 8 5.5 13.5t13.5 5.5h54q8 0 13.5 -5.5t5.5 -13.5v-454q0 -101 37 -150t127 -49t127 48.5t37 150.5v454q0 8 5.5 13.5t13.5 5.5h54q8 0 13.5 -5.5t5.5 -13.5v-454z"/>
<glyph glyph-name="Yacute" horiz-adv-x="583" unicode="Ý" d="M438 943q0 -4 -4 -8l-113 -126q-13 -15 -23 -15h-54q-9 0 -9 7q0 6 4 10l98 124q12 15 24 15h66q11 0 11 -7zM549 729q0 -5 -3 -11l-155 -348q-24 -52 -54 -66v-284q0 -8 -5.5 -14t-12.5 -6h-55q-7 0 -12.5 6t-5.5 14v284q-29 11 -54 66l-154 348q-3 6 -3 11q0 14 17 14 h61q12 0 18 -14l138 -324q11 -26 23 -26t23 26l139 324q6 14 17 14h61q17 0 17 -14z"/>
<glyph glyph-name="Thorn" horiz-adv-x="593" unicode="Þ" d="M457 426v14q0 76 -46.5 107.5t-143.5 31.5q-77 0 -99 -2v-296q69 -3 99 -3q98 0 144 35t46 113zM548 426q0 -226 -281 -226q-57 0 -99 3v-183q0 -20 -16 -20h-56q-7 0 -12.5 6t-5.5 14v704q0 8 5.5 13.5t12.5 5.5h55q7 0 12 -5.5t5 -13.5v-69q78 3 97 3q283 0 283 -218 v-14z"/>
<glyph glyph-name="germandbls" horiz-adv-x="581" unicode="ß" d="M527 215q0 -112 -67 -167t-170 -55q-18 0 -48 3q-20 2 -20 19v41q0 11 11 11q7 0 22.5 -0.5t20.5 -0.5q78 0 120 33t42 116v14q0 57 -40.5 92.5t-114.5 35.5h-37q-8 0 -14 6t-6 14v29q0 8 6 14t14 6h37q71 0 105.5 35t34.5 87v12q0 121 -131 121q-70 0 -104 -40.5 t-34 -126.5v-493q0 -21 -18 -21h-53q-18 0 -18 21v493q0 122 60 183t167 61q100 0 159.5 -49.5t59.5 -148.5v-12q0 -52 -30 -93t-75 -61q54 -19 87.5 -63t33.5 -102v-14z"/>
<glyph glyph-name="agrave" horiz-adv-x="519" unicode="à" d="M324 630q0 -7 -9 -7h-54q-9 0 -23 15l-113 126q-4 4 -4 8q0 7 11 7h66q13 0 25 -15l97 -124q4 -4 4 -10zM363 105v161h-74q-89 0 -121 -21.5t-32 -76.5v-12q0 -51 22.5 -71t69.5 -20q61 0 135 40zM451 20q0 -8 -6 -14t-14 -6h-46q-8 0 -14 6t-6 14v22q-84 -49 -154 -49 q-72 0 -117.5 37.5t-45.5 124.5v12q0 83 55.5 122.5t185.5 39.5h74v40q0 63 -24 88t-83 25q-73 0 -153 -8h-5q-18 0 -18 16v35q0 16 21 19q76 13 155 13q195 0 195 -188v-349z"/>
<glyph glyph-name="aacute" horiz-adv-x="519" unicode="á" d="M412 772q0 -4 -4 -8l-113 -126q-13 -15 -23 -15h-54q-9 0 -9 7q0 6 4 10l98 124q12 15 24 15h66q11 0 11 -7zM363 105v161h-74q-89 0 -121 -21.5t-32 -76.5v-12q0 -51 22.5 -71t69.5 -20q61 0 135 40zM451 20q0 -8 -6 -14t-14 -6h-46q-8 0 -14 6t-6 14v22 q-84 -49 -154 -49q-72 0 -117.5 37.5t-45.5 124.5v12q0 83 55.5 122.5t185.5 39.5h74v40q0 63 -24 88t-83 25q-73 0 -153 -8h-5q-18 0 -18 16v35q0 16 21 19q76 13 155 13q195 0 195 -188v-349z"/>
<glyph glyph-name="acircumflex" horiz-adv-x="519" unicode="â" d="M425 630q0 -7 -9 -7h-52q-10 0 -23 15l-82 97l-83 -97q-14 -15 -23 -15h-52q-9 0 -9 7q0 6 4 10l96 124q12 15 24 15h85q13 0 25 -15l95 -124q4 -4 4 -10zM363 105v161h-74q-89 0 -121 -21.5t-32 -76.5v-12q0 -51 22.5 -71t69.5 -20q61 0 135 40zM451 20q0 -8 -6 -14 t-14 -6h-46q-8 0 -14 6t-6 14v22q-84 -49 -154 -49q-72 0 -117.5 37.5t-45.5 124.5v12q0 83 55.5 122.5t185.5 39.5h74v40q0 63 -24 88t-83 25q-73 0 -153 -8h-5q-18 0 -18 16v35q0 16 21 19q76 13 155 13q195 0 195 -188v-349z"/>
<glyph glyph-name="atilde" horiz-adv-x="519" unicode="ã" d="M446 731q0 -53 -22.5 -79t-71.5 -26q-37 0 -64 21l-61 49q-28 22 -41 22q-31 0 -31 -46v-21q0 -7 -5 -12t-12 -5h-31q-7 0 -11.5 5t-4.5 12v21q0 53 25 81t70 28q29 0 60 -24l71 -56q17 -14 35 -14q16 0 23 9.5t7 34.5v23q0 7 5 12t12 5h31q7 0 11.5 -5t4.5 -12v-23z M363 105v161h-74q-89 0 -121 -21.5t-32 -76.5v-12q0 -51 22.5 -71t69.5 -20q61 0 135 40zM451 20q0 -8 -6 -14t-14 -6h-46q-8 0 -14 6t-6 14v22q-84 -49 -154 -49q-72 0 -117.5 37.5t-45.5 124.5v12q0 83 55.5 122.5t185.5 39.5h74v40q0 63 -24 88t-83 25q-73 0 -153 -8h-5 q-18 0 -18 16v35q0 16 21 19q76 13 155 13q195 0 195 -188v-349z"/>
<glyph glyph-name="adieresis" horiz-adv-x="519" unicode="ä" d="M213 660q0 -8 -6 -13.5t-14 -5.5h-39q-8 0 -14 5.5t-6 13.5v81q0 7 6 13.5t14 6.5h39q7 0 13.5 -6.5t6.5 -13.5v-81zM388 660q0 -8 -6 -13.5t-14 -5.5h-39q-8 0 -14 5.5t-6 13.5v81q0 7 6.5 13.5t13.5 6.5h39q8 0 14 -6.5t6 -13.5v-81zM363 105v161h-74q-89 0 -121 -21.5 t-32 -76.5v-12q0 -51 22.5 -71t69.5 -20q61 0 135 40zM451 20q0 -8 -6 -14t-14 -6h-46q-8 0 -14 6t-6 14v22q-84 -49 -154 -49q-72 0 -117.5 37.5t-45.5 124.5v12q0 83 55.5 122.5t185.5 39.5h74v40q0 63 -24 88t-83 25q-73 0 -153 -8h-5q-18 0 -18 16v35q0 16 21 19 q76 13 155 13q195 0 195 -188v-349z"/>
<glyph glyph-name="aring" horiz-adv-x="519" unicode="å" d="M310 704q0 22 -15.5 37t-37.5 15t-37 -15t-15 -37t15 -37.5t37 -15.5t37.5 15.5t15.5 37.5zM358 703q0 -42 -29.5 -71.5t-71.5 -29.5t-72 29.5t-30 71.5t30 72t72 30t71.5 -30t29.5 -72zM363 105v161h-74q-89 0 -121 -21.5t-32 -76.5v-12q0 -51 22.5 -71t69.5 -20 q61 0 135 40zM451 20q0 -8 -6 -14t-14 -6h-46q-8 0 -14 6t-6 14v22q-84 -49 -154 -49q-72 0 -117.5 37.5t-45.5 124.5v12q0 83 55.5 122.5t185.5 39.5h74v40q0 63 -24 88t-83 25q-73 0 -153 -8h-5q-18 0 -18 16v35q0 16 21 19q76 13 155 13q195 0 195 -188v-349z"/>
<glyph glyph-name="ae" horiz-adv-x="853" unicode="æ" d="M364 94v171h-75q-89 0 -120.5 -21.5t-31.5 -76.5v-9q0 -50 31.5 -72.5t82.5 -22.5q72 0 113 31zM716 314v5q0 163 -131 163q-64 0 -99 -42.5t-35 -120.5v-5h265zM803 269q0 -22 -19 -22h-333v-32q0 -76 35.5 -112t110.5 -36q79 0 171 14h2h3q16 0 16 -14v-34 q0 -19 -20 -23q-88 -17 -177 -17q-117 0 -173 59q-68 -59 -180 -59q-81 0 -136 41.5t-55 123.5v9q0 84 55 123t186 39h75v40q0 63 -24.5 88t-83.5 25q-73 0 -153 -8h-2h-3q-18 0 -18 16v35q0 16 21 19q76 13 155 13q119 0 166 -70q59 70 163 70q106 0 162 -67.5t56 -178.5 v-42z"/>
<glyph glyph-name="ccedilla" horiz-adv-x="452" unicode="ç" d="M322 -39q0 -4 -4 -8l-113 -126q-14 -15 -23 -15h-54q-9 0 -9 7q0 6 4 10l97 124q12 15 25 15h66q11 0 11 -7zM408 26q0 -18 -20 -22q-60 -11 -125 -11q-101 0 -157 65.5t-56 177.5v78q0 112 56 177.5t157 65.5q65 0 125 -11q12 -2 16 -6.5t4 -15.5v-36q0 -15 -17 -15h-4 q-62 7 -124 7q-125 0 -125 -166v-78q0 -166 125 -166q62 0 124 7h4q17 0 17 -15v-36z"/>
<glyph glyph-name="egrave" horiz-adv-x="544" unicode="è" d="M358 630q0 -7 -9 -7h-54q-9 0 -23 15l-113 126q-4 4 -4 8q0 7 11 7h66q13 0 25 -15l97 -124q4 -4 4 -10zM403 314v9q0 83 -32 120t-99 37q-134 0 -134 -157v-9h265zM492 269q0 -22 -19 -22h-335v-14q0 -87 34 -125t105 -38q106 0 178 11h5q16 0 16 -14v-34q0 -19 -20 -23 q-88 -17 -179 -17q-46 0 -84.5 12t-71.5 38t-52 74.5t-19 115.5v90q0 109 58 171.5t164 62.5q107 0 163.5 -62.5t56.5 -171.5v-54z"/>
<glyph glyph-name="eacute" horiz-adv-x="544" unicode="é" d="M434 772q0 -4 -4 -8l-113 -126q-13 -15 -23 -15h-54q-9 0 -9 7q0 6 4 10l98 124q12 15 24 15h66q11 0 11 -7zM403 314v9q0 83 -32 120t-99 37q-134 0 -134 -157v-9h265zM492 269q0 -22 -19 -22h-335v-14q0 -87 34 -125t105 -38q106 0 178 11h5q16 0 16 -14v-34 q0 -19 -20 -23q-88 -17 -179 -17q-46 0 -84.5 12t-71.5 38t-52 74.5t-19 115.5v90q0 109 58 171.5t164 62.5q107 0 163.5 -62.5t56.5 -171.5v-54z"/>
<glyph glyph-name="ecircumflex" horiz-adv-x="544" unicode="ê" d="M439 630q0 -7 -9 -7h-52q-10 0 -23 15l-82 97l-83 -97q-14 -15 -23 -15h-52q-9 0 -9 7q0 6 4 10l96 124q12 15 24 15h85q13 0 25 -15l95 -124q4 -4 4 -10zM403 314v9q0 83 -32 120t-99 37q-134 0 -134 -157v-9h265zM492 269q0 -22 -19 -22h-335v-14q0 -87 34 -125 t105 -38q106 0 178 11h5q16 0 16 -14v-34q0 -19 -20 -23q-88 -17 -179 -17q-46 0 -84.5 12t-71.5 38t-52 74.5t-19 115.5v90q0 109 58 171.5t164 62.5q107 0 163.5 -62.5t56.5 -171.5v-54z"/>
<glyph glyph-name="edieresis" horiz-adv-x="544" unicode="ë" d="M228 660q0 -8 -6 -13.5t-14 -5.5h-39q-8 0 -14 5.5t-6 13.5v81q0 7 6.5 13.5t13.5 6.5h39q8 0 14 -6.5t6 -13.5v-81zM403 660q0 -8 -6 -13.5t-14 -5.5h-39q-8 0 -14 5.5t-6 13.5v81q0 7 6 13.5t14 6.5h39q7 0 13.5 -6.5t6.5 -13.5v-81zM403 314v9q0 83 -32 120t-99 37 q-134 0 -134 -157v-9h265zM492 269q0 -22 -19 -22h-335v-14q0 -87 34 -125t105 -38q106 0 178 11h5q16 0 16 -14v-34q0 -19 -20 -23q-88 -17 -179 -17q-46 0 -84.5 12t-71.5 38t-52 74.5t-19 115.5v90q0 109 58 171.5t164 62.5q107 0 163.5 -62.5t56.5 -171.5v-54z"/>
<glyph glyph-name="igrave" horiz-adv-x="247" unicode="ì" d="M185 630q0 -7 -9 -7h-54q-10 0 -23 15l-113 126q-4 4 -4 8q0 7 11 7h66q13 0 25 -15l97 -124q4 -4 4 -10zM167 20q0 -8 -6 -14t-14 -6h-48q-8 0 -14 6t-6 14v510q0 8 6 14t14 6h48q8 0 14 -6t6 -14v-510z"/>
<glyph glyph-name="iacute" horiz-adv-x="247" unicode="í" d="M271 772q0 -4 -4 -8l-113 -126q-14 -15 -23 -15h-54q-9 0 -9 7q0 6 4 10l98 124q12 15 24 15h66q11 0 11 -7zM167 20q0 -8 -6 -14t-14 -6h-48q-8 0 -14 6t-6 14v510q0 8 6 14t14 6h48q8 0 14 -6t6 -14v-510z"/>
<glyph glyph-name="icircumflex" horiz-adv-x="247" unicode="î" d="M289 630q0 -7 -9 -7h-52q-10 0 -23 15l-82 97l-83 -97q-13 -15 -23 -15h-52q-9 0 -9 7q0 6 4 10l96 124q12 15 24 15h85q13 0 25 -15l95 -124q4 -4 4 -10zM167 20q0 -8 -6 -14t-14 -6h-48q-8 0 -14 6t-6 14v510q0 8 6 14t14 6h48q8 0 14 -6t6 -14v-510z"/>
<glyph glyph-name="idieresis" horiz-adv-x="247" unicode="ï" d="M75 660q0 -8 -6 -13.5t-14 -5.5h-39q-8 0 -14 5.5t-6 13.5v81q0 7 6 13.5t14 6.5h39q7 0 13.5 -6.5t6.5 -13.5v-81zM250 660q0 -8 -6 -13.5t-14 -5.5h-39q-8 0 -14 5.5t-6 13.5v81q0 7 6.5 13.5t13.5 6.5h39q8 0 14 -6.5t6 -13.5v-81zM167 20q0 -8 -6 -14t-14 -6h-48 q-8 0 -14 6t-6 14v510q0 8 6 14t14 6h48q8 0 14 -6t6 -14v-510z"/>
<glyph glyph-name="eth" horiz-adv-x="545" unicode="ð" d="M407 243v55q0 175 -134 175t-134 -175v-55q0 -174 135 -174q70 0 101.5 43.5t31.5 130.5zM495 243q0 -122 -56 -186t-165 -64q-112 0 -168 65.5t-56 184.5v55q0 121 57.5 185.5t165.5 64.5q72 0 112 -36q-32 83 -147 137l-86 -66q-8 -6 -13 -6t-11 6l-17 19q-3 3 -3 7 q0 9 10 17l61 47q-45 15 -79 22q-16 4 -16 15q0 3 1 5l12 34q4 11 14 11q5 0 8 -1q71 -17 124 -37l94 71q5 4 13 4q7 0 12 -5l17 -18q4 -4 4 -8q0 -6 -10 -14l-73 -56q111 -63 153 -153t42 -245v-55z"/>
<glyph glyph-name="ntilde" horiz-adv-x="557" unicode="ñ" d="M460 731q0 -53 -22.5 -79t-71.5 -26q-37 0 -64 21l-61 49q-28 22 -41 22q-31 0 -31 -46v-21q0 -7 -5 -12t-12 -5h-31q-7 0 -11.5 5t-4.5 12v21q0 53 25 81t70 28q29 0 60 -24l71 -56q18 -14 35 -14q16 0 23 9.5t7 34.5v23q0 7 5 12t12 5h31q7 0 11.5 -5t4.5 -12v-23z M489 20q0 -8 -6 -14t-14 -6h-48q-8 0 -14 6t-6 14v329q0 74 -25.5 103t-84.5 29q-57 0 -135 -39v-422q0 -8 -6 -14t-14 -6h-49q-8 0 -13.5 6t-5.5 14v510q0 8 5.5 14t13.5 6h50q8 0 13.5 -6t5.5 -14v-19q82 46 159 46q174 0 174 -208v-329z"/>
<glyph glyph-name="ograve" horiz-adv-x="545" unicode="ò" d="M330 630q0 -7 -9 -7h-54q-9 0 -23 15l-113 126q-4 4 -4 8q0 7 11 7h66q13 0 25 -15l97 -124q4 -4 4 -10zM407 237v76q0 167 -135 167q-134 0 -134 -167v-76q0 -167 134 -167q68 0 101.5 43.5t33.5 123.5zM495 237q0 -113 -57.5 -178.5t-165.5 -65.5t-165 65.5t-57 178.5 v76q0 113 57 178.5t165 65.5t165.5 -65.5t57.5 -178.5v-76z"/>
<glyph glyph-name="oacute" horiz-adv-x="545" unicode="ó" d="M426 772q0 -4 -4 -8l-113 -126q-13 -15 -23 -15h-54q-9 0 -9 7q0 6 4 10l98 124q12 15 24 15h66q11 0 11 -7zM407 237v76q0 167 -135 167q-134 0 -134 -167v-76q0 -167 134 -167q68 0 101.5 43.5t33.5 123.5zM495 237q0 -113 -57.5 -178.5t-165.5 -65.5t-165 65.5 t-57 178.5v76q0 113 57 178.5t165 65.5t165.5 -65.5t57.5 -178.5v-76z"/>
<glyph glyph-name="ocircumflex" horiz-adv-x="545" unicode="ô" d="M440 630q0 -7 -9 -7h-52q-9 0 -23 15l-82 97l-83 -97q-13 -15 -23 -15h-52q-9 0 -9 7q0 6 4 10l96 124q12 15 24 15h85q13 0 25 -15l95 -124q4 -4 4 -10zM407 237v76q0 167 -135 167q-134 0 -134 -167v-76q0 -167 134 -167q68 0 101.5 43.5t33.5 123.5zM495 237 q0 -113 -57.5 -178.5t-165.5 -65.5t-165 65.5t-57 178.5v76q0 113 57 178.5t165 65.5t165.5 -65.5t57.5 -178.5v-76z"/>
<glyph glyph-name="otilde" horiz-adv-x="545" unicode="õ" d="M456 731q0 -53 -22.5 -79t-71.5 -26q-37 0 -64 21l-61 49q-28 22 -41 22q-31 0 -31 -46v-21q0 -7 -5 -12t-12 -5h-31q-7 0 -11.5 5t-4.5 12v21q0 53 25 81t70 28q29 0 60 -24l71 -56q17 -14 35 -14q16 0 23 9.5t7 34.5v23q0 7 5 12t12 5h31q7 0 11.5 -5t4.5 -12v-23z M407 237v76q0 167 -135 167q-134 0 -134 -167v-76q0 -167 134 -167q68 0 101.5 43.5t33.5 123.5zM495 237q0 -113 -57.5 -178.5t-165.5 -65.5t-165 65.5t-57 178.5v76q0 113 57 178.5t165 65.5t165.5 -65.5t57.5 -178.5v-76z"/>
<glyph glyph-name="odieresis" horiz-adv-x="545" unicode="ö" d="M223 660q0 -8 -6 -13.5t-14 -5.5h-39q-8 0 -14 5.5t-6 13.5v81q0 7 6 13.5t14 6.5h39q7 0 13.5 -6.5t6.5 -13.5v-81zM398 660q0 -8 -6 -13.5t-14 -5.5h-39q-8 0 -14 5.5t-6 13.5v81q0 7 6.5 13.5t13.5 6.5h39q8 0 14 -6.5t6 -13.5v-81zM407 237v76q0 167 -135 167 q-134 0 -134 -167v-76q0 -167 134 -167q68 0 101.5 43.5t33.5 123.5zM495 237q0 -113 -57.5 -178.5t-165.5 -65.5t-165 65.5t-57 178.5v76q0 113 57 178.5t165 65.5t165.5 -65.5t57.5 -178.5v-76z"/>
<glyph glyph-name="divide" d="M345 162q0 -8 -5.5 -13.5t-13.5 -5.5h-48q-8 0 -14 5.5t-6 13.5v89q0 7 6 13t14 6h48q8 0 13.5 -6t5.5 -13v-89zM515 371q0 -16 -20 -16h-385q-20 0 -20 16v40q0 16 20 16h385q20 0 20 -16v-40zM345 527q0 -8 -5.5 -14t-13.5 -6h-48q-8 0 -14 6t-6 14v88q0 7 6 13t14 6 h48q8 0 13.5 -6t5.5 -13v-88z" unicode="÷"/>
<glyph glyph-name="oslash" horiz-adv-x="545" unicode="ø" d="M407 237v76q0 42 -11 78l-214 -290q33 -31 90 -31q135 0 135 167zM362 449q-34 31 -90 31q-134 0 -134 -167v-76q0 -46 10 -79zM528 575q0 -7 -4 -11l-70 -94q41 -62 41 -157v-76q0 -113 -57.5 -178.5t-165.5 -65.5q-85 0 -139 42l-44 -60q-8 -10 -16 -10h-49q-8 0 -8 8 q0 7 4 11l71 96q-41 62 -41 157v76q0 113 57 178.5t165 65.5q86 0 140 -42l42 58q8 10 16 10h50q8 0 8 -8z"/>
<glyph glyph-name="ugrave" horiz-adv-x="557" unicode="ù" d="M336 630q0 -7 -9 -7h-54q-9 0 -23 15l-113 126q-4 4 -4 8q0 7 11 7h66q13 0 25 -15l97 -124q4 -4 4 -10zM489 20q0 -8 -5.5 -14t-13.5 -6h-50q-8 0 -13.5 6t-5.5 14v19q-82 -46 -159 -46q-174 0 -174 208v329q0 8 6 14t14 6h48q8 0 14 -6t6 -14v-329q0 -74 25.5 -103 t84.5 -29q57 0 135 39v422q0 8 6 14t14 6h49q8 0 13.5 -6t5.5 -14v-510z"/>
<glyph glyph-name="uacute" horiz-adv-x="557" unicode="ú" d="M434 772q0 -4 -4 -8l-113 -126q-13 -15 -23 -15h-54q-9 0 -9 7q0 6 4 10l98 124q12 15 24 15h66q11 0 11 -7zM489 20q0 -8 -5.5 -14t-13.5 -6h-50q-8 0 -13.5 6t-5.5 14v19q-82 -46 -159 -46q-174 0 -174 208v329q0 8 6 14t14 6h48q8 0 14 -6t6 -14v-329q0 -74 25.5 -103 t84.5 -29q57 0 135 39v422q0 8 6 14t14 6h49q8 0 13.5 -6t5.5 -14v-510z"/>
<glyph glyph-name="ucircumflex" horiz-adv-x="557" unicode="û" d="M446 630q0 -7 -9 -7h-52q-9 0 -23 15l-82 97l-83 -97q-13 -15 -23 -15h-52q-9 0 -9 7q0 6 4 10l96 124q12 15 24 15h85q13 0 25 -15l95 -124q4 -4 4 -10zM489 20q0 -8 -5.5 -14t-13.5 -6h-50q-8 0 -13.5 6t-5.5 14v19q-82 -46 -159 -46q-174 0 -174 208v329q0 8 6 14 t14 6h48q8 0 14 -6t6 -14v-329q0 -74 25.5 -103t84.5 -29q57 0 135 39v422q0 8 6 14t14 6h49q8 0 13.5 -6t5.5 -14v-510z"/>
<glyph glyph-name="udieresis" horiz-adv-x="557" unicode="ü" d="M230 660q0 -8 -6 -13.5t-14 -5.5h-39q-8 0 -14 5.5t-6 13.5v81q0 7 6.5 13.5t13.5 6.5h39q8 0 14 -6.5t6 -13.5v-81zM405 660q0 -8 -6 -13.5t-14 -5.5h-39q-8 0 -14 5.5t-6 13.5v81q0 7 6 13.5t14 6.5h39q7 0 13.5 -6.5t6.5 -13.5v-81zM489 20q0 -8 -5.5 -14t-13.5 -6 h-50q-8 0 -13.5 6t-5.5 14v19q-82 -46 -159 -46q-174 0 -174 208v329q0 8 6 14t14 6h48q8 0 14 -6t6 -14v-329q0 -74 25.5 -103t84.5 -29q57 0 135 39v422q0 8 6 14t14 6h49q8 0 13.5 -6t5.5 -14v-510z"/>
<glyph glyph-name="yacute" horiz-adv-x="534" unicode="ý" d="M446 772q0 -4 -4 -8l-113 -126q-13 -15 -23 -15h-54q-9 0 -9 7q0 6 4 10l98 124q12 15 24 15h66q11 0 11 -7zM495 533q0 -5 -1 -7l-165 -576q-24 -84 -61.5 -116t-121.5 -32q-46 0 -84 9q-21 5 -21 16v37q0 16 19 16h3q66 -6 89 -6q44 0 65.5 17t33.5 68l10 41h-14 q-27 0 -44.5 13.5t-29.5 55.5l-133 457q-1 2 -1 7q0 17 18 17h55q13 0 17 -16l118 -434q5 -22 19 -22h16l122 457q4 15 19 15h56q16 0 16 -17z"/>
<glyph glyph-name="thorn" horiz-adv-x="541" unicode="þ" d="M403 238v72q0 84 -29.5 128.5t-100.5 44.5q-61 0 -117 -10v-396q55 -10 117 -10q70 0 100 43t30 128zM491 238q0 -119 -55 -182t-163 -63q-56 0 -117 11v-181q0 -8 -5.5 -13.5t-13.5 -5.5h-51q-8 0 -13 5.5t-5 13.5v909q0 8 6 14t14 6h48q8 0 14 -6t6 -14v-185 q65 10 117 10q109 0 163.5 -65.5t54.5 -181.5v-72z"/>
<glyph glyph-name="ydieresis" horiz-adv-x="534" unicode="ÿ" d="M229 660q0 -8 -6 -13.5t-14 -5.5h-39q-8 0 -14 5.5t-6 13.5v81q0 7 6 13.5t14 6.5h39q7 0 13.5 -6.5t6.5 -13.5v-81zM404 660q0 -8 -6 -13.5t-14 -5.5h-39q-8 0 -14 5.5t-6 13.5v81q0 7 6.5 13.5t13.5 6.5h39q8 0 14 -6.5t6 -13.5v-81zM495 533q0 -5 -1 -7l-165 -576 q-24 -84 -61.5 -116t-121.5 -32q-46 0 -84 9q-21 5 -21 16v37q0 16 19 16h3q66 -6 89 -6q44 0 65.5 17t33.5 68l10 41h-14q-27 0 -44.5 13.5t-29.5 55.5l-133 457q-1 2 -1 7q0 17 18 17h55q13 0 17 -16l118 -434q5 -22 19 -22h16l122 457q4 15 19 15h56q16 0 16 -17z"/>
<glyph glyph-name="Amacron" horiz-adv-x="633" unicode="Ā" d="M478 836q0 -17 -20 -17h-288q-20 0 -20 17v34q0 17 20 17h288q20 0 20 -17v-34zM427 324l-91 329q-5 18 -19 18q-15 0 -20 -18l-91 -329h221zM604 16q0 -16 -17 -16h-59q-13 0 -17 15l-65 230h-259l-64 -230q-4 -15 -18 -15h-59q-17 0 -17 16q0 5 1 7l185 651 q21 76 102 76q80 0 101 -75l185 -652q1 -2 1 -7z"/>
<glyph glyph-name="amacron" horiz-adv-x="519" unicode="ā" d="M424 666q0 -17 -20 -17h-288q-20 0 -20 17v34q0 17 20 17h288q20 0 20 -17v-34zM363 105v161h-74q-89 0 -121 -21.5t-32 -76.5v-12q0 -51 22.5 -71t69.5 -20q61 0 135 40zM451 20q0 -8 -6 -14t-14 -6h-46q-8 0 -14 6t-6 14v22q-84 -49 -154 -49q-72 0 -117.5 37.5 t-45.5 124.5v12q0 83 55.5 122.5t185.5 39.5h74v40q0 63 -24 88t-83 25q-73 0 -153 -8h-5q-18 0 -18 16v35q0 16 21 19q76 13 155 13q195 0 195 -188v-349z"/>
<glyph glyph-name="Abreve" horiz-adv-x="633" unicode="Ă" d="M477 937v-4q-5 -66 -52.5 -103.5t-110.5 -37.5t-110.5 37.5t-52.5 103.5v4q0 13 11 13h37q14 0 15 -16q4 -38 33 -59t67 -21t67 21t33 59q1 16 15 16h37q11 0 11 -13zM427 324l-91 329q-5 18 -19 18q-15 0 -20 -18l-91 -329h221zM604 16q0 -16 -17 -16h-59q-13 0 -17 15 l-65 230h-259l-64 -230q-4 -15 -18 -15h-59q-17 0 -17 16q0 5 1 7l185 651q21 76 102 76q80 0 101 -75l185 -652q1 -2 1 -7z"/>
<glyph glyph-name="abreve" horiz-adv-x="519" unicode="ă" d="M423 766v-4q-5 -66 -52.5 -103.5t-110.5 -37.5t-110.5 37.5t-52.5 103.5v4q0 13 11 13h37q14 0 15 -16q4 -38 33 -59t67 -21t67 21t33 59q1 16 15 16h37q11 0 11 -13zM363 105v161h-74q-89 0 -121 -21.5t-32 -76.5v-12q0 -51 22.5 -71t69.5 -20q61 0 135 40zM451 20 q0 -8 -6 -14t-14 -6h-46q-8 0 -14 6t-6 14v22q-84 -49 -154 -49q-72 0 -117.5 37.5t-45.5 124.5v12q0 83 55.5 122.5t185.5 39.5h74v40q0 63 -24 88t-83 25q-73 0 -153 -8h-5q-18 0 -18 16v35q0 16 21 19q76 13 155 13q195 0 195 -188v-349z"/>
<glyph glyph-name="Aogonek" horiz-adv-x="633" unicode="Ą" d="M427 324l-91 329q-5 18 -19 18q-15 0 -20 -18l-91 -329h221zM446 245h-259l-64 -230q-4 -15 -18 -15h-59q-17 0 -17 16q0 5 1 7l185 651q21 76 102 76q80 0 101 -75l183 -646q2 -8 2 -11q0 -9 -8 -15l-78 -45q-28 -16 -41 -30t-13 -32q0 -38 69 -38q14 0 29.5 2t25.5 3.5 t12 1.5q5 0 5 -8v-36q0 -8 -11 -11q-30 -10 -72 -10q-131 0 -131 96q0 35 17.5 54.5t58.5 43.5l44 26z"/>
<glyph glyph-name="aogonek" horiz-adv-x="519" unicode="ą" d="M363 105v161h-74q-89 0 -121 -21.5t-32 -76.5v-12q0 -51 22.5 -71t69.5 -20q61 0 135 40zM443 4l-67 -46q-30 -20 -42 -34t-12 -33q0 -17 11.5 -25t44.5 -8q14 0 28.5 2.5t24 5t11.5 2.5q5 0 5 -8v-39q0 -8 -11 -11q-30 -10 -69 -10q-119 0 -119 93q0 31 16 51.5t49 42.5 l52 33v22q-84 -49 -154 -49q-72 0 -117.5 37.5t-45.5 124.5v12q0 83 55.5 122.5t185.5 39.5h74v40q0 63 -24 88t-83 25q-73 0 -153 -8h-5q-18 0 -18 16v35q0 16 21 19q76 13 155 13q195 0 195 -188v-349q0 -10 -8 -16z"/>
<glyph glyph-name="Cacute" horiz-adv-x="545" unicode="Ć" d="M443 943q0 -4 -4 -8l-113 -126q-14 -15 -23 -15h-54q-9 0 -9 7q0 6 4 10l98 124q12 15 24 15h66q11 0 11 -7zM510 26q0 -16 -20 -20q-68 -13 -166 -13q-50 0 -94 15t-83.5 48t-63 96t-23.5 150v139q0 88 23.5 151t63.5 96t83.5 47.5t93.5 14.5q67 0 168 -16q16 -2 16 -13 v-51q0 -11 -12 -11h-3q-108 9 -168 9q-174 0 -174 -227v-139q0 -119 47 -173t127 -54q69 0 165 8h4q16 0 16 -16v-41z"/>
<glyph glyph-name="cacute" horiz-adv-x="452" unicode="ć" d="M384 772q0 -4 -4 -8l-113 -126q-13 -15 -23 -15h-54q-9 0 -9 7q0 6 4 10l98 124q12 15 24 15h66q11 0 11 -7zM408 26q0 -18 -20 -22q-60 -11 -125 -11q-101 0 -157 65.5t-56 177.5v78q0 112 56 177.5t157 65.5q65 0 125 -11q12 -2 16 -6.5t4 -15.5v-36q0 -15 -17 -15h-4 q-62 7 -124 7q-125 0 -125 -166v-78q0 -166 125 -166q62 0 124 7h4q17 0 17 -15v-36z"/>
<glyph glyph-name="Ccircumflex" horiz-adv-x="545" unicode="Ĉ" d="M473 801q0 -7 -9 -7h-52q-10 0 -23 15l-82 97l-83 -97q-13 -15 -23 -15h-52q-9 0 -9 7q0 6 4 10l96 124q12 15 24 15h85q13 0 25 -15l95 -124q4 -4 4 -10zM510 26q0 -16 -20 -20q-68 -13 -166 -13q-50 0 -94 15t-83.5 48t-63 96t-23.5 150v139q0 88 23.5 151t63.5 96 t83.5 47.5t93.5 14.5q67 0 168 -16q16 -2 16 -13v-51q0 -11 -12 -11h-3q-108 9 -168 9q-174 0 -174 -227v-139q0 -119 47 -173t127 -54q69 0 165 8h4q16 0 16 -16v-41z"/>
<glyph glyph-name="ccircumflex" horiz-adv-x="452" unicode="ĉ" d="M414 630q0 -7 -9 -7h-52q-9 0 -23 15l-82 97l-83 -97q-13 -15 -23 -15h-52q-9 0 -9 7q0 6 4 10l96 124q12 15 24 15h85q13 0 25 -15l95 -124q4 -4 4 -10zM408 26q0 -18 -20 -22q-60 -11 -125 -11q-101 0 -157 65.5t-56 177.5v78q0 112 56 177.5t157 65.5q65 0 125 -11 q12 -2 16 -6.5t4 -15.5v-36q0 -15 -17 -15h-4q-62 7 -124 7q-125 0 -125 -166v-78q0 -166 125 -166q62 0 124 7h4q17 0 17 -15v-36z"/>
<glyph glyph-name="Cdotaccent" horiz-adv-x="545" unicode="Ċ" d="M352 814q0 -8 -5.5 -14t-13.5 -6h-48q-8 0 -14 6t-6 14v84q0 7 6 13t14 6h48q7 0 13 -5.5t6 -13.5v-84zM510 26q0 -16 -20 -20q-68 -13 -166 -13q-50 0 -94 15t-83.5 48t-63 96t-23.5 150v139q0 88 23.5 151t63.5 96t83.5 47.5t93.5 14.5q67 0 168 -16q16 -2 16 -13v-51 q0 -11 -12 -11h-3q-108 9 -168 9q-174 0 -174 -227v-139q0 -119 47 -173t127 -54q69 0 165 8h4q16 0 16 -16v-41z"/>
<glyph glyph-name="cdotaccent" horiz-adv-x="452" unicode="ċ" d="M299 658q0 -8 -5.5 -14t-13.5 -6h-48q-8 0 -14 6t-6 14v84q0 7 6 13t14 6h48q8 0 13.5 -5.5t5.5 -13.5v-84zM408 26q0 -18 -20 -22q-60 -11 -125 -11q-101 0 -157 65.5t-56 177.5v78q0 112 56 177.5t157 65.5q65 0 125 -11q12 -2 16 -6.5t4 -15.5v-36q0 -15 -17 -15h-4 q-62 7 -124 7q-125 0 -125 -166v-78q0 -166 125 -166q62 0 124 7h4q17 0 17 -15v-36z"/>
<glyph glyph-name="Ccaron" horiz-adv-x="545" unicode="Č" d="M475 943q0 -6 -4 -10l-97 -124q-12 -15 -25 -15h-85q-12 0 -24 15l-98 124q-4 4 -4 10q0 7 9 7h54q9 0 23 -16l83 -96l82 96q14 16 23 16h54q9 0 9 -7zM510 26q0 -16 -20 -20q-68 -13 -166 -13q-50 0 -94 15t-83.5 48t-63 96t-23.5 150v139q0 88 23.5 151t63.5 96 t83.5 47.5t93.5 14.5q67 0 168 -16q16 -2 16 -13v-51q0 -11 -12 -11h-3q-108 9 -168 9q-174 0 -174 -227v-139q0 -119 47 -173t127 -54q69 0 165 8h4q16 0 16 -16v-41z"/>
<glyph glyph-name="ccaron" horiz-adv-x="452" unicode="č" d="M417 772q0 -6 -4 -10l-97 -124q-12 -15 -25 -15h-85q-12 0 -24 15l-98 124q-4 4 -4 10q0 7 9 7h54q9 0 23 -16l83 -96l82 96q14 16 23 16h54q9 0 9 -7zM408 26q0 -18 -20 -22q-60 -11 -125 -11q-101 0 -157 65.5t-56 177.5v78q0 112 56 177.5t157 65.5q65 0 125 -11 q12 -2 16 -6.5t4 -15.5v-36q0 -15 -17 -15h-4q-62 7 -124 7q-125 0 -125 -166v-78q0 -166 125 -166q62 0 124 7h4q17 0 17 -15v-36z"/>
<glyph glyph-name="Dcaron" horiz-adv-x="641" unicode="Ď" d="M489 943q0 -6 -4 -10l-97 -124q-12 -15 -25 -15h-85q-12 0 -24 15l-98 124q-4 4 -4 10q0 7 9 7h54q9 0 23 -16l83 -96l82 96q14 16 23 16h54q9 0 9 -7zM493 304v135q0 127 -56.5 180t-155.5 53q-61 0 -111 -3v-596q32 -2 111 -2q212 0 212 233zM584 304 q0 -156 -80 -233.5t-223 -77.5q-124 0 -182 10q-21 3 -21 25v687q0 22 21 25q58 10 182 10q144 0 223.5 -77t79.5 -234v-135z"/>
<glyph glyph-name="dcaron" horiz-adv-x="643" unicode="ď" d="M385 76v397q-39 7 -117 7q-71 0 -100.5 -42t-29.5 -126v-72q0 -86 29.5 -128t100.5 -42q49 0 117 6zM473 33q0 -11 -4 -16t-17 -7q-88 -17 -184 -17q-109 0 -163.5 65.5t-54.5 181.5v72q0 119 55 182t163 63q61 0 117 -10v186q0 8 5.5 13.5t13.5 5.5h51q8 0 13 -5.5 t5 -13.5v-700zM668 743q0 -2 -2 -8l-75 -189q-7 -19 -19 -19h-41q-12 0 -12 12q0 5 1 7l57 189q6 19 20 19h58q13 0 13 -11z"/>
<glyph glyph-name="Dcroat" horiz-adv-x="641" unicode="Đ" d="M493 304v135q0 127 -56.5 180t-155.5 53q-61 0 -111 -3v-244h103q8 0 14 -6t6 -14v-38q0 -8 -6 -14t-14 -6h-103v-274q32 -2 111 -2q212 0 212 233zM584 304q0 -156 -80 -233.5t-223 -77.5q-124 0 -182 10q-21 3 -21 25v319h-38q-8 0 -14 6t-6 14v38q0 8 6 14t14 6h38 v290q0 22 21 25q58 10 182 10q144 0 223.5 -77t79.5 -234v-135z"/>
<glyph glyph-name="dcroat" horiz-adv-x="541" unicode="đ" d="M385 76v397q-39 7 -117 7q-71 0 -100.5 -42t-29.5 -126v-72q0 -86 29.5 -128t100.5 -42q49 0 117 6zM473 33q0 -11 -4 -16t-17 -7q-88 -17 -184 -17q-109 0 -163.5 65.5t-54.5 181.5v72q0 119 55 182t163 63q61 0 117 -10v73h-160q-8 0 -14 6t-6 14v34q0 8 6 14t14 6h160 v39q0 8 5.5 13.5t13.5 5.5h51q8 0 13 -5.5t5 -13.5v-39h35q8 0 14 -6t6 -14v-34q0 -8 -6 -14t-14 -6h-35v-587z"/>
<glyph glyph-name="Emacron" horiz-adv-x="551" unicode="Ē" d="M463 836q0 -17 -20 -17h-288q-20 0 -20 17v34q0 17 20 17h288q20 0 20 -17v-34zM496 12q0 -12 -10 -14q-48 -5 -195 -5q-107 0 -160 44t-53 142v385q0 98 53 142t160 44q132 0 195 -6q10 -2 10 -14v-50q0 -12 -11 -12h-193q-76 0 -99.5 -22t-23.5 -82v-139h307q8 0 14 -6 t6 -14v-38q0 -8 -6 -14t-14 -6h-307v-168q0 -60 23.5 -82t99.5 -22h193q11 0 11 -12v-51z"/>
<glyph glyph-name="emacron" horiz-adv-x="544" unicode="ē" d="M436 666q0 -17 -20 -17h-288q-20 0 -20 17v34q0 17 20 17h288q20 0 20 -17v-34zM403 314v9q0 83 -32 120t-99 37q-134 0 -134 -157v-9h265zM492 269q0 -22 -19 -22h-335v-14q0 -87 34 -125t105 -38q106 0 178 11h5q16 0 16 -14v-34q0 -19 -20 -23q-88 -17 -179 -17 q-46 0 -84.5 12t-71.5 38t-52 74.5t-19 115.5v90q0 109 58 171.5t164 62.5q107 0 163.5 -62.5t56.5 -171.5v-54z"/>
<glyph glyph-name="Ebreve" horiz-adv-x="551" unicode="Ĕ" d="M470 939v-4q-5 -66 -52.5 -103.5t-110.5 -37.5t-110.5 37.5t-52.5 103.5v4q0 13 11 13h37q14 0 15 -16q4 -38 33 -59t67 -21t67 21t33 59q1 16 15 16h37q11 0 11 -13zM496 12q0 -12 -10 -14q-48 -5 -195 -5q-107 0 -160 44t-53 142v385q0 98 53 142t160 44q132 0 195 -6 q10 -2 10 -14v-50q0 -12 -11 -12h-193q-76 0 -99.5 -22t-23.5 -82v-139h307q8 0 14 -6t6 -14v-38q0 -8 -6 -14t-14 -6h-307v-168q0 -60 23.5 -82t99.5 -22h193q11 0 11 -12v-51z"/>
<glyph glyph-name="ebreve" horiz-adv-x="544" unicode="ĕ" d="M434 767v-4q-5 -66 -52.5 -103.5t-110.5 -37.5t-110.5 37.5t-52.5 103.5v4q0 13 11 13h37q14 0 15 -16q4 -38 33 -59t67 -21t67 21t33 59q1 16 15 16h37q11 0 11 -13zM403 314v9q0 83 -32 120t-99 37q-134 0 -134 -157v-9h265zM492 269q0 -22 -19 -22h-335v-14 q0 -87 34 -125t105 -38q106 0 178 11h5q16 0 16 -14v-34q0 -19 -20 -23q-88 -17 -179 -17q-46 0 -84.5 12t-71.5 38t-52 74.5t-19 115.5v90q0 109 58 171.5t164 62.5q107 0 163.5 -62.5t56.5 -171.5v-54z"/>
<glyph glyph-name="Edotaccent" horiz-adv-x="551" unicode="Ė" d="M343 829q0 -8 -5.5 -14t-13.5 -6h-48q-8 0 -14 6t-6 14v84q0 7 6 13t14 6h48q8 0 13.5 -6t5.5 -13v-84zM496 12q0 -12 -10 -14q-48 -5 -195 -5q-107 0 -160 44t-53 142v385q0 98 53 142t160 44q132 0 195 -6q10 -2 10 -14v-50q0 -12 -11 -12h-193q-76 0 -99.5 -22 t-23.5 -82v-139h307q8 0 14 -6t6 -14v-38q0 -8 -6 -14t-14 -6h-307v-168q0 -60 23.5 -82t99.5 -22h193q11 0 11 -12v-51z"/>
<glyph glyph-name="edotaccent" horiz-adv-x="544" unicode="ė" d="M316 658q0 -8 -5.5 -14t-13.5 -6h-48q-8 0 -14 6t-6 14v84q0 7 6 13t14 6h48q7 0 13 -5.5t6 -13.5v-84zM403 314v9q0 83 -32 120t-99 37q-134 0 -134 -157v-9h265zM492 269q0 -22 -19 -22h-335v-14q0 -87 34 -125t105 -38q106 0 178 11h5q16 0 16 -14v-34q0 -19 -20 -23 q-88 -17 -179 -17q-46 0 -84.5 12t-71.5 38t-52 74.5t-19 115.5v90q0 109 58 171.5t164 62.5q107 0 163.5 -62.5t56.5 -171.5v-54z"/>
<glyph glyph-name="Eogonek" horiz-adv-x="551" unicode="Ę" d="M496 12q0 -12 -10 -14q-20 -2 -40 -2l-54 -38q-22 -15 -30.5 -21.5t-16 -17.5t-7.5 -23q0 -38 69 -38q14 0 30.5 2.5t27.5 5t13 2.5q5 0 5 -8v-39q0 -8 -11 -11q-30 -10 -76 -10q-131 0 -131 96q0 54 64 91l10 6h-48q-107 0 -160 44t-53 142v385q0 98 53 142t160 44 q132 0 195 -6q10 -2 10 -14v-50q0 -12 -11 -12h-193q-76 0 -99.5 -22t-23.5 -82v-139h307q8 0 14 -6t6 -14v-38q0 -8 -6 -14t-14 -6h-307v-168q0 -60 23.5 -82t99.5 -22h193q11 0 11 -12v-51z"/>
<glyph glyph-name="eogonek" horiz-adv-x="544" unicode="ę" d="M337 -5q-38 -2 -60 -2q-46 0 -84.5 12t-71.5 38t-52 74.5t-19 115.5v90q0 109 58 171.5t164 62.5q107 0 163.5 -62.5t56.5 -171.5v-54q0 -22 -19 -22h-335v-14q0 -87 34 -125t105 -38q27 0 56 1t51.5 3t41.5 4t30 3t12 1q8 0 8 -15v-34q0 -14 -9 -20l-80 -55 q-22 -15 -30.5 -21.5t-16 -17.5t-7.5 -23q0 -38 69 -38q14 0 30.5 2.5t27.5 5t13 2.5q5 0 5 -8v-39q0 -8 -11 -11q-30 -10 -76 -10q-131 0 -131 96q0 52 64 91zM403 314v9q0 83 -32 120t-99 37q-134 0 -134 -157v-9h265z"/>
<glyph glyph-name="Ecaron" horiz-adv-x="551" unicode="Ě" d="M455 943q0 -6 -4 -10l-97 -124q-12 -15 -25 -15h-85q-12 0 -24 15l-98 124q-4 4 -4 10q0 7 9 7h54q9 0 23 -16l83 -96l82 96q14 16 23 16h54q9 0 9 -7zM496 12q0 -12 -10 -14q-48 -5 -195 -5q-107 0 -160 44t-53 142v385q0 98 53 142t160 44q132 0 195 -6q10 -2 10 -14 v-50q0 -12 -11 -12h-193q-76 0 -99.5 -22t-23.5 -82v-139h307q8 0 14 -6t6 -14v-38q0 -8 -6 -14t-14 -6h-307v-168q0 -60 23.5 -82t99.5 -22h193q11 0 11 -12v-51z"/>
<glyph glyph-name="ecaron" horiz-adv-x="544" unicode="ě" d="M441 772q0 -6 -4 -10l-97 -124q-12 -15 -25 -15h-85q-12 0 -24 15l-98 124q-4 4 -4 10q0 7 9 7h54q9 0 23 -16l83 -96l82 96q14 16 23 16h54q9 0 9 -7zM403 314v9q0 83 -32 120t-99 37q-134 0 -134 -157v-9h265zM492 269q0 -22 -19 -22h-335v-14q0 -87 34 -125t105 -38 q106 0 178 11h5q16 0 16 -14v-34q0 -19 -20 -23q-88 -17 -179 -17q-46 0 -84.5 12t-71.5 38t-52 74.5t-19 115.5v90q0 109 58 171.5t164 62.5q107 0 163.5 -62.5t56.5 -171.5v-54z"/>
<glyph glyph-name="Gcircumflex" horiz-adv-x="612" unicode="Ĝ" d="M486 801q0 -7 -9 -7h-52q-9 0 -23 15l-82 97l-83 -97q-13 -15 -23 -15h-52q-9 0 -9 7q0 6 4 10l96 124q12 15 24 15h85q13 0 25 -15l95 -124q4 -4 4 -10zM534 30q0 -19 -18 -22q-92 -15 -199 -15q-49 0 -93.5 17t-82.5 52t-60.5 97.5t-22.5 144.5v134q0 87 23.5 150.5 t63.5 97.5t84.5 49t96.5 15q101 0 190 -14q17 -2 17 -15v-50q0 -10 -13 -10h-4q-83 7 -190 7q-177 0 -177 -230v-134q0 -117 46.5 -173.5t121.5 -56.5q54 0 126 6v286q0 20 18 20h54q8 0 13.5 -6t5.5 -14v-336z"/>
<glyph glyph-name="gcircumflex" horiz-adv-x="559" unicode="ĝ" d="M455 630q0 -7 -9 -7h-52q-10 0 -23 15l-82 97l-83 -97q-13 -15 -23 -15h-52q-9 0 -9 7q0 6 4 10l96 124q12 15 24 15h85q13 0 25 -15l95 -124q4 -4 4 -10zM424 -45v8q0 28 -26 44t-96 34l-113 29q-25 -21 -37 -43.5t-12 -58.5v-9q0 -45 32.5 -68t111.5 -23q81 0 110.5 21 t29.5 66zM416 365v8q0 50 -30 78.5t-105 28.5q-77 0 -106 -29t-29 -78v-8q0 -102 135 -102q76 0 105.5 26.5t29.5 75.5zM523 502q0 -16 -18 -19l-36 -7q34 -36 34 -103v-8q0 -171 -222 -171q-68 0 -116 20q-25 -12 -25 -34q0 -24 31 -32l149 -38q36 -9 58.5 -16t51 -19.5 t44 -26.5t27 -36t11.5 -49v-8q0 -155 -228 -155q-116 0 -173 41.5t-57 117.5v9q0 79 63 127l-7 3q-46 20 -46 78v1q0 49 41 72q-46 43 -46 116v8q0 77 51.5 127t170.5 50h219q9 0 16 -6.5t7 -15.5v-26z"/>
<glyph glyph-name="Gbreve" horiz-adv-x="612" unicode="Ğ" d="M469 937v-4q-5 -66 -52.5 -103.5t-110.5 -37.5t-110.5 37.5t-52.5 103.5v4q0 13 11 13h37q14 0 15 -16q4 -38 33 -59t67 -21t67 21t33 59q1 16 15 16h37q11 0 11 -13zM534 30q0 -19 -18 -22q-92 -15 -199 -15q-49 0 -93.5 17t-82.5 52t-60.5 97.5t-22.5 144.5v134 q0 87 23.5 150.5t63.5 97.5t84.5 49t96.5 15q101 0 190 -14q17 -2 17 -15v-50q0 -10 -13 -10h-4q-83 7 -190 7q-177 0 -177 -230v-134q0 -117 46.5 -173.5t121.5 -56.5q54 0 126 6v286q0 20 18 20h54q8 0 13.5 -6t5.5 -14v-336z"/>
<glyph glyph-name="gbreve" horiz-adv-x="559" unicode="ğ" d="M443 766v-4q-5 -66 -52.5 -103.5t-110.5 -37.5t-110.5 37.5t-52.5 103.5v4q0 13 11 13h37q14 0 15 -16q4 -38 33 -59t67 -21t67 21t33 59q1 16 15 16h37q11 0 11 -13zM424 -45v8q0 28 -26 44t-96 34l-113 29q-25 -21 -37 -43.5t-12 -58.5v-9q0 -45 32.5 -68t111.5 -23 q81 0 110.5 21t29.5 66zM416 365v8q0 50 -30 78.5t-105 28.5q-77 0 -106 -29t-29 -78v-8q0 -102 135 -102q76 0 105.5 26.5t29.5 75.5zM523 502q0 -16 -18 -19l-36 -7q34 -36 34 -103v-8q0 -171 -222 -171q-68 0 -116 20q-25 -12 -25 -34q0 -24 31 -32l149 -38 q36 -9 58.5 -16t51 -19.5t44 -26.5t27 -36t11.5 -49v-8q0 -155 -228 -155q-116 0 -173 41.5t-57 117.5v9q0 79 63 127l-7 3q-46 20 -46 78v1q0 49 41 72q-46 43 -46 116v8q0 77 51.5 127t170.5 50h219q9 0 16 -6.5t7 -15.5v-26z"/>
<glyph glyph-name="Gdotaccent" horiz-adv-x="612" unicode="Ġ" d="M365 814q0 -8 -5.5 -14t-13.5 -6h-48q-8 0 -14 6t-6 14v84q0 7 6 13t14 6h48q8 0 13.5 -5.5t5.5 -13.5v-84zM534 30q0 -19 -18 -22q-92 -15 -199 -15q-49 0 -93.5 17t-82.5 52t-60.5 97.5t-22.5 144.5v134q0 87 23.5 150.5t63.5 97.5t84.5 49t96.5 15q101 0 190 -14 q17 -2 17 -15v-50q0 -10 -13 -10h-4q-83 7 -190 7q-177 0 -177 -230v-134q0 -117 46.5 -173.5t121.5 -56.5q54 0 126 6v286q0 20 18 20h54q8 0 13.5 -6t5.5 -14v-336z"/>
<glyph glyph-name="gdotaccent" horiz-adv-x="559" unicode="ġ" d="M334 658q0 -8 -5.5 -14t-13.5 -6h-48q-8 0 -14 6t-6 14v84q0 7 6 13t14 6h48q7 0 13 -5.5t6 -13.5v-84zM424 -45v8q0 28 -26 44t-96 34l-113 29q-25 -21 -37 -43.5t-12 -58.5v-9q0 -45 32.5 -68t111.5 -23q81 0 110.5 21t29.5 66zM416 365v8q0 50 -30 78.5t-105 28.5 q-77 0 -106 -29t-29 -78v-8q0 -102 135 -102q76 0 105.5 26.5t29.5 75.5zM523 502q0 -16 -18 -19l-36 -7q34 -36 34 -103v-8q0 -171 -222 -171q-68 0 -116 20q-25 -12 -25 -34q0 -24 31 -32l149 -38q36 -9 58.5 -16t51 -19.5t44 -26.5t27 -36t11.5 -49v-8q0 -155 -228 -155 q-116 0 -173 41.5t-57 117.5v9q0 79 63 127l-7 3q-46 20 -46 78v1q0 49 41 72q-46 43 -46 116v8q0 77 51.5 127t170.5 50h219q9 0 16 -6.5t7 -15.5v-26z"/>
<glyph glyph-name="Gcommaaccent" horiz-adv-x="612" unicode="Ģ" d="M534 30q0 -19 -18 -22q-92 -15 -199 -15q-49 0 -93.5 17t-82.5 52t-60.5 97.5t-22.5 144.5v134q0 87 23.5 150.5t63.5 97.5t84.5 49t96.5 15q101 0 190 -14q17 -2 17 -15v-50q0 -10 -13 -10h-4q-83 7 -190 7q-177 0 -177 -230v-134q0 -117 46.5 -173.5t121.5 -56.5 q54 0 126 6v286q0 20 18 20h54q8 0 13.5 -6t5.5 -14v-336zM291 -49h69q11 0 11 -11l-1 -8l-54 -109q-3 -6 -4.5 -8.5t-4 -5.5t-6 -4t-9.5 -1h-41q-9 0 -9 8q0 4 1 8l28 112q4 19 20 19z"/>
<glyph glyph-name="gcommaaccent" horiz-adv-x="559" unicode="ģ" d="M424 -45v8q0 28 -26 44t-96 34l-113 29q-25 -21 -37 -43.5t-12 -58.5v-9q0 -45 32.5 -68t111.5 -23q81 0 110.5 21t29.5 66zM416 365v8q0 50 -30 78.5t-105 28.5q-77 0 -106 -29t-29 -78v-8q0 -102 135 -102q76 0 105.5 26.5t29.5 75.5zM523 502q0 -16 -18 -19l-36 -7 q34 -36 34 -103v-8q0 -171 -222 -171q-68 0 -116 20q-25 -12 -25 -34q0 -24 31 -32l149 -38q36 -9 58.5 -16t51 -19.5t44 -26.5t27 -36t11.5 -49v-8q0 -155 -228 -155q-116 0 -173 41.5t-57 117.5v9q0 79 63 127l-7 3q-46 20 -46 78v1q0 49 41 72q-46 43 -46 116v8 q0 77 51.5 127t170.5 50h219q9 0 16 -6.5t7 -15.5v-26zM311 605h-69q-12 0 -12 11q0 5 2 8l54 109q3 6 4.5 8.5t4 5.5t6 4t9.5 1h41q9 0 9 -8q0 -4 -1 -8l-28 -112q-4 -19 -20 -19z"/>
<glyph glyph-name="Hcircumflex" horiz-adv-x="680" unicode="Ĥ" d="M507 800q0 -7 -9 -7h-52q-10 0 -23 15l-82 97l-83 -97q-14 -15 -23 -15h-52q-9 0 -9 7q0 6 4 10l96 124q12 15 24 15h85q13 0 25 -15l95 -124q4 -4 4 -10zM602 20q0 -8 -6 -14t-14 -6h-51q-8 0 -14 6t-6 14v332h-342v-332q0 -8 -6 -14t-14 -6h-51q-8 0 -14 6t-6 14v703 q0 8 6 14t14 6h51q8 0 14 -6t6 -14v-290h342v290q0 8 6 14t14 6h51q8 0 14 -6t6 -14v-703z"/>
<glyph glyph-name="hcircumflex" horiz-adv-x="557" unicode="ĥ" d="M456 800q0 -7 -9 -7h-52q-9 0 -23 15l-82 97l-83 -97q-14 -15 -23 -15h-52q-9 0 -9 7q0 6 4 10l96 124q12 15 24 15h85q13 0 25 -15l95 -124q4 -4 4 -10zM489 20q0 -8 -6 -14t-14 -6h-48q-8 0 -14 6t-6 14v329q0 71 -27.5 101t-79.5 30q-76 0 -138 -28v-432q0 -8 -6 -14 t-14 -6h-49q-8 0 -13.5 6t-5.5 14v712q0 8 5.5 14t13.5 6h50q8 0 13.5 -6t5.5 -14v-206q71 31 153 31q84 0 132 -51t48 -157v-329z"/>
<glyph glyph-name="Hbar" horiz-adv-x="680" unicode="Ħ" d="M169 433h342v109h-342v-109zM660 562q0 -8 -6 -14t-14 -6h-38v-522q0 -8 -6 -14t-14 -6h-51q-8 0 -14 6t-6 14v332h-342v-332q0 -8 -6 -14t-14 -6h-51q-8 0 -14 6t-6 14v522h-38q-8 0 -14 6t-6 14v41q0 8 6 14t14 6h38v100q0 8 6 14t14 6h51q8 0 14 -6t6 -14v-100h342 v100q0 8 6 14t14 6h51q8 0 14 -6t6 -14v-100h38q8 0 14 -6t6 -14v-41z"/>
<glyph glyph-name="hbar" horiz-adv-x="557" unicode="ħ" d="M34 697h34v35q0 8 5.5 14t13.5 6h50q8 0 13.5 -6t5.5 -14v-35h161q8 0 14 -6t6 -14v-34q0 -8 -6 -14t-14 -6h-161v-97q71 31 153 31q84 0 132 -51t48 -157v-329q0 -8 -6 -14t-14 -6h-48q-8 0 -14 6t-6 14v329q0 71 -27.5 101t-79.5 30q-76 0 -138 -28v-432q0 -8 -6 -14 t-14 -6h-49q-8 0 -13.5 6t-5.5 14v603h-34q-8 0 -14 6t-6 14v34q0 8 6 14t14 6z"/>
<glyph glyph-name="Itilde" horiz-adv-x="267" unicode="Ĩ" d="M310 891q0 -53 -22.5 -79t-71.5 -26q-37 0 -64 21l-61 49q-28 22 -41 22q-31 0 -31 -46v-21q0 -7 -5 -12t-12 -5h-31q-7 0 -11.5 5t-4.5 12v21q0 53 25 81t70 28q29 0 60 -24l71 -56q17 -14 35 -14q16 0 23 9.5t7 34.5v23q0 7 5 12t12 5h31q7 0 11.5 -5t4.5 -12v-23z M179 20q0 -8 -5 -14t-13 -6h-55q-7 0 -12.5 6t-5.5 14v704q0 19 18 19h55q8 0 13 -5.5t5 -13.5v-704z"/>
<glyph glyph-name="itilde" horiz-adv-x="247" unicode="ĩ" d="M301 731q0 -53 -22.5 -79t-71.5 -26q-37 0 -64 21l-61 49q-28 22 -41 22q-31 0 -31 -46v-21q0 -7 -5 -12t-12 -5h-31q-7 0 -11.5 5t-4.5 12v21q0 53 25 81t70 28q29 0 60 -24l71 -56q17 -14 35 -14q16 0 23 9.5t7 34.5v23q0 7 5 12t12 5h31q7 0 11.5 -5t4.5 -12v-23z M167 20q0 -8 -6 -14t-14 -6h-48q-8 0 -14 6t-6 14v510q0 8 6 14t14 6h48q8 0 14 -6t6 -14v-510z"/>
<glyph glyph-name="Imacron" horiz-adv-x="267" unicode="Ī" d="M297 837q0 -17 -20 -17h-288q-20 0 -20 17v34q0 17 20 17h288q20 0 20 -17v-34zM179 20q0 -8 -5 -14t-13 -6h-55q-7 0 -12.5 6t-5.5 14v704q0 19 18 19h55q8 0 13 -5.5t5 -13.5v-704z"/>
<glyph glyph-name="imacron" horiz-adv-x="247" unicode="ī" d="M287 666q0 -17 -20 -17h-288q-20 0 -20 17v34q0 17 20 17h288q20 0 20 -17v-34zM167 20q0 -8 -6 -14t-14 -6h-48q-8 0 -14 6t-6 14v510q0 8 6 14t14 6h48q8 0 14 -6t6 -14v-510z"/>
<glyph glyph-name="Ibreve" horiz-adv-x="267" unicode="Ĭ" d="M296 938v-4q-5 -66 -52.5 -103.5t-110.5 -37.5t-110.5 37.5t-52.5 103.5v4q0 13 11 13h37q14 0 15 -16q4 -38 33 -59t67 -21t67 21t33 59q1 16 15 16h37q11 0 11 -13zM179 20q0 -8 -5 -14t-13 -6h-55q-7 0 -12.5 6t-5.5 14v704q0 19 18 19h55q8 0 13 -5.5t5 -13.5v-704z "/>
<glyph glyph-name="ibreve" horiz-adv-x="247" unicode="ĭ" d="M286 766v-4q-5 -66 -52.5 -103.5t-110.5 -37.5t-110.5 37.5t-52.5 103.5v4q0 13 11 13h37q14 0 15 -16q4 -38 33 -59t67 -21t67 21t33 59q1 16 15 16h37q11 0 11 -13zM167 20q0 -8 -6 -14t-14 -6h-48q-8 0 -14 6t-6 14v510q0 8 6 14t14 6h48q8 0 14 -6t6 -14v-510z"/>
<glyph glyph-name="Iogonek" horiz-adv-x="267" unicode="Į" d="M8 -104q0 55 62 99l18 13v716q0 19 18 19h55q8 0 13 -5.5t5 -13.5v-707q0 -11 -8 -17l-36 -29q-35 -28 -44.5 -41.5t-9.5 -33.5q0 -38 69 -38q14 0 30.5 2.5t27.5 5t13 2.5q5 0 5 -8v-39q0 -8 -11 -11q-30 -10 -76 -10q-131 0 -131 96z"/>
<glyph glyph-name="iogonek" horiz-adv-x="247" unicode="į" d="M169 658q0 -8 -6 -14t-14 -6h-51q-8 0 -14 6t-6 14v80q0 8 6 14t14 6h51q8 0 14 -6t6 -14v-80zM-2 -104q0 55 62 99l18 13v523q0 19 18 19h53q8 0 13 -5.5t5 -13.5v-514q0 -11 -8 -17l-36 -29q-34 -28 -43 -41.5t-9 -33.5q0 -38 69 -38q14 0 30.5 2.5t27.5 5t13 2.5 q5 0 5 -8v-39q0 -8 -11 -11q-30 -10 -76 -10q-131 0 -131 96z"/>
<glyph glyph-name="Idotaccent" horiz-adv-x="267" unicode="İ" d="M177 829q0 -8 -5.5 -14t-13.5 -6h-48q-8 0 -14 6t-6 14v84q0 7 6 13t14 6h48q8 0 13.5 -6t5.5 -13v-84zM179 20q0 -8 -5 -14t-13 -6h-55q-7 0 -12.5 6t-5.5 14v704q0 19 18 19h55q8 0 13 -5.5t5 -13.5v-704z"/>
<glyph glyph-name="dotlessi" horiz-adv-x="247" unicode="ı" d="M167 20q0 -8 -6 -14t-14 -6h-48q-8 0 -14 6t-6 14v510q0 8 6 14t14 6h48q8 0 14 -6t6 -14v-510z"/>
<glyph glyph-name="Jcircumflex" horiz-adv-x="257" unicode="Ĵ" d="M301 801q0 -7 -9 -7h-52q-9 0 -23 15l-82 97l-83 -97q-14 -15 -23 -15h-52q-9 0 -9 7q0 6 4 10l96 124q12 15 24 15h85q13 0 25 -15l95 -124q4 -4 4 -10zM179 -37q0 -73 -37 -108t-118 -35q-37 0 -53 8q-6 3 -6 11v37q0 17 20 17h39q38 0 51 15.5t13 54.5v761q0 8 6 13.5 t13 5.5h53q8 0 13.5 -5.5t5.5 -13.5v-761z"/>
<glyph glyph-name="jcircumflex" horiz-adv-x="247" unicode="ĵ" d="M288 630q0 -7 -9 -7h-52q-9 0 -23 15l-82 97l-83 -97q-14 -15 -23 -15h-52q-9 0 -9 7q0 6 4 10l96 124q12 15 24 15h85q13 0 25 -15l95 -124q4 -4 4 -10zM167 -64q0 -75 -30.5 -104t-94.5 -29q-27 0 -54 4q-18 3 -18 16v37q0 14 21 14h41q28 0 37.5 12t9.5 50v594 q0 8 5 14t13 6h52q18 0 18 -20v-594z"/>
<glyph glyph-name="Kcommaaccent" horiz-adv-x="607" unicode="Ķ" d="M564 10q0 -10 -13 -10h-78q-13 0 -22 10l-282 343v-333q0 -8 -5 -14t-13 -6h-55q-7 0 -12.5 6t-5.5 14v704q0 8 5.5 13.5t13.5 5.5h53q8 0 13.5 -5.5t5.5 -13.5v-323l288 333q9 9 20 9h72q14 0 14 -11q0 -6 -4 -10l-301 -340l301 -360q5 -5 5 -12zM288 -49h69 q11 0 11 -11l-1 -8l-54 -109q-3 -6 -4.5 -8.5t-4 -5.5t-6 -4t-9.5 -1h-41q-9 0 -9 8q0 4 1 8l28 112q4 19 20 19z"/>
<glyph glyph-name="kcommaaccent" horiz-adv-x="496" unicode="ķ" d="M461 13q0 -13 -11 -13h-72q-13 0 -23 13l-199 246v-239q0 -8 -6 -14t-14 -6h-48q-8 0 -14 6t-6 14v712q0 8 6 14t14 6h48q8 0 14 -6t6 -14v-416l200 225q8 9 20 9h70q15 0 15 -11q0 -6 -5 -11l-220 -238l222 -268q3 -3 3 -9zM233 -49h69q11 0 11 -11l-1 -8l-54 -109 q-3 -6 -4.5 -8.5t-4 -5.5t-6 -4t-9.5 -1h-41q-9 0 -9 8q0 4 1 8l28 112q4 19 20 19z"/>
<glyph glyph-name="kgreenlandic" horiz-adv-x="496" unicode="ĸ" d="M461 13q0 -13 -11 -13h-72q-13 0 -23 13l-199 246v-239q0 -8 -6 -14t-14 -6h-48q-8 0 -14 6t-6 14v510q0 8 6 14t14 6h48q8 0 14 -6t6 -14v-214l200 225q8 9 20 9h70q15 0 15 -11q0 -6 -5 -11l-220 -238l222 -268q3 -3 3 -9z"/>
<glyph glyph-name="Lacute" horiz-adv-x="514" unicode="Ĺ" d="M394 943q0 -4 -4 -8l-113 -126q-13 -15 -23 -15h-54q-9 0 -9 7q0 6 4 10l98 124q12 15 24 15h66q11 0 11 -7zM496 16q0 -12 -10 -14q-58 -9 -195 -9q-36 0 -63.5 3.5t-57 15t-48.5 31t-31.5 54t-12.5 82.5v544q0 8 6 14t14 6h51q8 0 14 -6t6 -14v-544q0 -60 23.5 -82 t99.5 -22h193q11 0 11 -12v-47z"/>
<glyph glyph-name="lacute" horiz-adv-x="244" unicode="ĺ" d="M258 945q0 -4 -4 -8l-113 -126q-13 -15 -23 -15h-54q-9 0 -9 7q0 6 4 10l98 124q12 15 24 15h66q11 0 11 -7zM166 20q0 -8 -5 -14t-13 -6h-52q-7 0 -12.5 6t-5.5 14v713q0 19 18 19h52q8 0 13 -5.5t5 -13.5v-713z"/>
<glyph glyph-name="Lcommaaccent" horiz-adv-x="514" unicode="Ļ" d="M496 16q0 -12 -10 -14q-58 -9 -195 -9q-36 0 -63.5 3.5t-57 15t-48.5 31t-31.5 54t-12.5 82.5v544q0 8 6 14t14 6h51q8 0 14 -6t6 -14v-544q0 -60 23.5 -82t99.5 -22h193q11 0 11 -12v-47zM252 -49h69q11 0 11 -11l-1 -8l-54 -109q-3 -6 -4.5 -8.5t-4 -5.5t-6 -4t-9.5 -1 h-41q-9 0 -9 8q0 4 1 8l28 112q4 19 20 19z"/>
<glyph glyph-name="lcommaaccent" horiz-adv-x="244" unicode="ļ" d="M166 20q0 -8 -5 -14t-13 -6h-52q-7 0 -12.5 6t-5.5 14v713q0 19 18 19h52q8 0 13 -5.5t5 -13.5v-713zM90 -49h69q11 0 11 -11l-1 -8l-54 -109q-3 -6 -4.5 -8.5t-4 -5.5t-6 -4t-9.5 -1h-41q-9 0 -9 8q0 4 1 8l28 112q4 19 20 19z"/>
<glyph glyph-name="Lcaron" horiz-adv-x="514" unicode="Ľ" d="M496 16q0 -12 -10 -14q-58 -9 -195 -9q-36 0 -63.5 3.5t-57 15t-48.5 31t-31.5 54t-12.5 82.5v544q0 8 6 14t14 6h51q8 0 14 -6t6 -14v-544q0 -60 23.5 -82t99.5 -22h193q11 0 11 -12v-47zM428 741q0 -2 -2 -8l-75 -189q-7 -19 -19 -19h-41q-12 0 -12 12q0 5 1 7l57 189 q6 19 20 19h58q13 0 13 -11z"/>
<glyph glyph-name="lcaron" horiz-adv-x="346" unicode="ľ" d="M166 20q0 -8 -5 -14t-13 -6h-52q-7 0 -12.5 6t-5.5 14v713q0 19 18 19h52q8 0 13 -5.5t5 -13.5v-713zM371 743q0 -2 -2 -8l-75 -189q-7 -19 -19 -19h-41q-12 0 -12 12q0 5 1 7l57 189q6 19 20 19h58q13 0 13 -11z"/>
<glyph glyph-name="Ldot" horiz-adv-x="514" unicode="Ŀ" d="M402 323q0 -8 -5.5 -14t-13.5 -6h-48q-8 0 -14 6t-6 14v84q0 7 6 13t14 6h48q7 0 13 -6t6 -13v-84zM496 16q0 -12 -10 -14q-58 -9 -195 -9q-36 0 -63.5 3.5t-57 15t-48.5 31t-31.5 54t-12.5 82.5v544q0 8 6 14t14 6h51q8 0 14 -6t6 -14v-544q0 -60 23.5 -82t99.5 -22h193 q11 0 11 -12v-47z"/>
<glyph glyph-name="ldot" horiz-adv-x="369" unicode="ŀ" d="M334 326q0 -8 -5.5 -14t-13.5 -6h-48q-8 0 -14 6t-6 14v84q0 7 6 13t14 6h48q7 0 13 -5.5t6 -13.5v-84zM166 20q0 -8 -5 -14t-13 -6h-52q-7 0 -12.5 6t-5.5 14v713q0 19 18 19h52q8 0 13 -5.5t5 -13.5v-713z"/>
<glyph glyph-name="Lslash" horiz-adv-x="514" unicode="Ł" d="M496 16q0 -12 -10 -14q-58 -9 -195 -9q-107 0 -160 44t-53 142v117l-61 -75q-5 -6 -11 -6q-7 0 -7 6v63v1q0 13 7 22l72 89v327q0 8 6 14t14 6h51q8 0 14 -6t6 -14v-216l68 84q6 7 11 7q7 0 7 -7v-65q0 -13 -8 -23l-78 -96v-228q0 -60 23.5 -82t99.5 -22h193q11 0 11 -12 v-47z"/>
<glyph glyph-name="lslash" horiz-adv-x="244" unicode="ł" d="M248 522q0 -8 -6 -16l-76 -94v-392q0 -20 -18 -20h-52q-7 0 -12.5 6t-5.5 14v284l-68 -83q-4 -5 -9 -5q-9 0 -9 8v60v1q0 14 7 22l79 97v329q0 19 18 19h52q8 0 13 -5.5t5 -13.5v-221l64 79q4 5 9 5q9 0 9 -9v-65z"/>
<glyph glyph-name="Nacute" horiz-adv-x="680" unicode="Ń" d="M477 943q0 -4 -4 -8l-113 -126q-14 -15 -23 -15h-54q-9 0 -9 7q0 6 4 10l98 124q12 15 24 15h66q11 0 11 -7zM602 29q0 -12 -8.5 -20.5t-20.5 -8.5h-62q-24 0 -32 16l-309 587q-2 3 -3 3t-1 -3v-584q0 -8 -5.5 -13.5t-12.5 -5.5h-52q-18 0 -18 12v703q0 12 8.5 20t20.5 8 h55q20 0 27.5 -4t13.5 -16l307 -584l2 -3q1 0 1 3v585q0 8 5.5 13.5t12.5 5.5h53q18 0 18 -19v-695z"/>
<glyph glyph-name="nacute" horiz-adv-x="557" unicode="ń" d="M415 772q0 -4 -4 -8l-113 -126q-14 -15 -23 -15h-54q-9 0 -9 7q0 6 4 10l98 124q12 15 24 15h66q11 0 11 -7zM489 20q0 -8 -6 -14t-14 -6h-48q-8 0 -14 6t-6 14v329q0 74 -25.5 103t-84.5 29q-57 0 -135 -39v-422q0 -8 -6 -14t-14 -6h-49q-8 0 -13.5 6t-5.5 14v510 q0 8 5.5 14t13.5 6h50q8 0 13.5 -6t5.5 -14v-19q82 46 159 46q174 0 174 -208v-329z"/>
<glyph glyph-name="Ncommaaccent" horiz-adv-x="680" unicode="Ņ" d="M602 29q0 -12 -8.5 -20.5t-20.5 -8.5h-62q-24 0 -32 16l-309 587q-2 3 -3 3t-1 -3v-584q0 -8 -5.5 -13.5t-12.5 -5.5h-52q-18 0 -18 12v703q0 12 8.5 20t20.5 8h55q20 0 27.5 -4t13.5 -16l307 -584l2 -3q1 0 1 3v585q0 8 5.5 13.5t12.5 5.5h53q18 0 18 -19v-695zM315 -49 h69q11 0 11 -11l-1 -8l-54 -109q-3 -6 -4.5 -8.5t-4 -5.5t-6 -4t-9.5 -1h-41q-9 0 -9 8q0 4 1 8l28 112q4 19 20 19z"/>
<glyph glyph-name="ncommaaccent" horiz-adv-x="557" unicode="ņ" d="M489 20q0 -8 -6 -14t-14 -6h-48q-8 0 -14 6t-6 14v329q0 74 -25.5 103t-84.5 29q-57 0 -135 -39v-422q0 -8 -6 -14t-14 -6h-49q-8 0 -13.5 6t-5.5 14v510q0 8 5.5 14t13.5 6h50q8 0 13.5 -6t5.5 -14v-19q82 46 159 46q174 0 174 -208v-329zM245 -49h69q11 0 11 -11l-1 -8 l-54 -109q-3 -6 -4.5 -8.5t-4 -5.5t-6 -4t-9.5 -1h-41q-9 0 -9 8q0 4 1 8l28 112q4 19 20 19z"/>
<glyph glyph-name="Ncaron" horiz-adv-x="680" unicode="Ň" d="M509 943q0 -6 -4 -10l-97 -124q-12 -15 -25 -15h-85q-12 0 -24 15l-98 124q-4 4 -4 10q0 7 9 7h54q9 0 23 -16l83 -96l82 96q14 16 23 16h54q9 0 9 -7zM602 29q0 -12 -8.5 -20.5t-20.5 -8.5h-62q-24 0 -32 16l-309 587q-2 3 -3 3t-1 -3v-584q0 -8 -5.5 -13.5t-12.5 -5.5 h-52q-18 0 -18 12v703q0 12 8.5 20t20.5 8h55q20 0 27.5 -4t13.5 -16l307 -584l2 -3q1 0 1 3v585q0 8 5.5 13.5t12.5 5.5h53q18 0 18 -19v-695z"/>
<glyph glyph-name="ncaron" horiz-adv-x="557" unicode="ň" d="M447 772q0 -6 -4 -10l-97 -124q-12 -15 -25 -15h-85q-12 0 -24 15l-98 124q-4 4 -4 10q0 7 9 7h54q9 0 23 -16l83 -96l82 96q14 16 23 16h54q9 0 9 -7zM489 20q0 -8 -6 -14t-14 -6h-48q-8 0 -14 6t-6 14v329q0 74 -25.5 103t-84.5 29q-57 0 -135 -39v-422q0 -8 -6 -14 t-14 -6h-49q-8 0 -13.5 6t-5.5 14v510q0 8 5.5 14t13.5 6h50q8 0 13.5 -6t5.5 -14v-19q82 46 159 46q174 0 174 -208v-329z"/>
<glyph glyph-name="Eng" horiz-adv-x="680" unicode="Ŋ" d="M602 -37q0 -73 -37 -108t-118 -35q-37 0 -53 8q-6 3 -6 11v37q0 17 20 17h39q38 0 51.5 16t13.5 54v37h-1q-24 0 -32 16l-309 587q-2 3 -3 3t-1 -3v-584q0 -8 -5.5 -13.5t-12.5 -5.5h-52q-18 0 -18 12v703q0 12 8.5 20t20.5 8h55q20 0 27.5 -4t13.5 -16l307 -584l2 -3 q1 0 1 3v585q0 8 5.5 13.5t12.5 5.5h53q18 0 18 -19v-761z"/>
<glyph glyph-name="eng" horiz-adv-x="557" unicode="ŋ" d="M489 -64q0 -75 -30.5 -104t-94.5 -29q-27 0 -54 4q-18 3 -18 16v37q0 14 21 14h41q28 0 37.5 12t9.5 50v413q0 74 -25.5 103t-84.5 29q-57 0 -135 -39v-422q0 -8 -6 -14t-14 -6h-49q-8 0 -13.5 6t-5.5 14v510q0 8 5.5 14t13.5 6h50q8 0 13.5 -6t5.5 -14v-19q82 46 159 46 q174 0 174 -208v-413z"/>
<glyph glyph-name="Omacron" horiz-adv-x="661" unicode="Ō" d="M495 836q0 -17 -20 -17h-288q-20 0 -20 17v34q0 17 20 17h288q20 0 20 -17v-34zM509 307v129q0 232 -178 232q-179 0 -179 -232v-129q0 -232 179 -232q178 0 178 232zM601 307q0 -160 -73 -237t-197 -77t-197.5 77.5t-73.5 236.5v129q0 159 73.5 236.5t197.5 77.5 t197 -77t73 -237v-129z"/>
<glyph glyph-name="omacron" horiz-adv-x="545" unicode="ō" d="M435 666q0 -17 -20 -17h-288q-20 0 -20 17v34q0 17 20 17h288q20 0 20 -17v-34zM407 237v76q0 167 -135 167q-134 0 -134 -167v-76q0 -167 134 -167q68 0 101.5 43.5t33.5 123.5zM495 237q0 -113 -57.5 -178.5t-165.5 -65.5t-165 65.5t-57 178.5v76q0 113 57 178.5 t165 65.5t165.5 -65.5t57.5 -178.5v-76z"/>
<glyph glyph-name="Obreve" horiz-adv-x="661" unicode="Ŏ" d="M503 940v-4q-5 -66 -52.5 -103.5t-110.5 -37.5t-110.5 37.5t-52.5 103.5v4q0 13 11 13h37q14 0 15 -16q4 -38 33 -59t67 -21t67 21t33 59q1 16 15 16h37q11 0 11 -13zM509 307v129q0 232 -178 232q-179 0 -179 -232v-129q0 -232 179 -232q178 0 178 232zM601 307 q0 -160 -73 -237t-197 -77t-197.5 77.5t-73.5 236.5v129q0 159 73.5 236.5t197.5 77.5t197 -77t73 -237v-129z"/>
<glyph glyph-name="obreve" horiz-adv-x="545" unicode="ŏ" d="M434 766v-4q-5 -66 -52.5 -103.5t-110.5 -37.5t-110.5 37.5t-52.5 103.5v4q0 13 11 13h37q14 0 15 -16q4 -38 33 -59t67 -21t67 21t33 59q1 16 15 16h37q11 0 11 -13zM407 237v76q0 167 -135 167q-134 0 -134 -167v-76q0 -167 134 -167q68 0 101.5 43.5t33.5 123.5z M495 237q0 -113 -57.5 -178.5t-165.5 -65.5t-165 65.5t-57 178.5v76q0 113 57 178.5t165 65.5t165.5 -65.5t57.5 -178.5v-76z"/>
<glyph glyph-name="Ohungarumlaut" horiz-adv-x="661" unicode="Ő" d="M379 943q0 -4 -4 -8l-112 -126q-13 -15 -23 -15h-54q-9 0 -9 7q0 6 4 10l97 124q12 15 25 15h65q11 0 11 -7zM554 943q0 -4 -4 -8l-112 -126q-14 -15 -23 -15h-54q-9 0 -9 7q0 6 4 10l97 124q12 15 25 15h65q11 0 11 -7zM509 307v129q0 232 -178 232q-179 0 -179 -232 v-129q0 -232 179 -232q178 0 178 232zM601 307q0 -160 -73 -237t-197 -77t-197.5 77.5t-73.5 236.5v129q0 159 73.5 236.5t197.5 77.5t197 -77t73 -237v-129z"/>
<glyph glyph-name="ohungarumlaut" horiz-adv-x="545" unicode="ő" d="M322 772q0 -4 -4 -8l-112 -126q-13 -15 -23 -15h-54q-9 0 -9 7q0 6 4 10l97 124q12 15 25 15h65q11 0 11 -7zM497 772q0 -4 -4 -8l-112 -126q-13 -15 -23 -15h-54q-9 0 -9 7q0 6 4 10l97 124q12 15 25 15h65q11 0 11 -7zM407 237v76q0 167 -135 167q-134 0 -134 -167v-76 q0 -167 134 -167q68 0 101.5 43.5t33.5 123.5zM495 237q0 -113 -57.5 -178.5t-165.5 -65.5t-165 65.5t-57 178.5v76q0 113 57 178.5t165 65.5t165.5 -65.5t57.5 -178.5v-76z"/>
<glyph glyph-name="OE" horiz-adv-x="983" unicode="Œ" d="M510 306v134q0 228 -179 228t-179 -232v-129q0 -232 179 -232t179 231zM928 15q0 -12 -10 -14q-58 -9 -195 -9q-147 0 -191 83q-70 -82 -201 -82q-124 0 -197.5 77.5t-73.5 236.5v129q0 159 73.5 236.5t197.5 77.5q131 0 201 -82q45 82 191 82q137 0 195 -9q10 -2 10 -14 v-47q0 -12 -11 -12h-193q-76 0 -99.5 -22t-23.5 -82v-139h307q8 0 14 -6t6 -14v-38q0 -8 -6 -14t-14 -6h-307v-169q0 -60 23.5 -82t99.5 -22h193q11 0 11 -12v-47z"/>
<glyph glyph-name="oe" horiz-adv-x="899" unicode="œ" d="M407 237v76q0 167 -135 167q-134 0 -134 -167v-76q0 -167 134 -167q68 0 101.5 43.5t33.5 123.5zM760 314v9q0 83 -32 120t-99 37q-134 0 -134 -157v-9h265zM849 269q0 -22 -19 -22h-335v-10q0 -83 30 -125t109 -42q106 0 178 11h5q16 0 16 -14v-34q0 -19 -20 -23 q-88 -17 -179 -17q-128 0 -184 82q-58 -82 -178 -82q-108 0 -165 65.5t-57 178.5v76q0 113 57 178.5t165 65.5q121 0 179 -82q57 82 178 82q107 0 163.5 -62.5t56.5 -171.5v-54z"/>
<glyph glyph-name="Racute" horiz-adv-x="625" unicode="Ŕ" d="M449 943q0 -4 -4 -8l-113 -126q-14 -15 -23 -15h-54q-9 0 -9 7q0 6 4 10l98 124q12 15 24 15h66q11 0 11 -7zM468 528v7q0 73 -46.5 103t-143.5 30q-86 0 -110 -3v-274q88 -2 110 -2q97 0 143.5 30.5t46.5 108.5zM586 13q0 -13 -13 -13h-64q-18 0 -26 13l-179 298h-9h-17 q-30 0 -110 3v-294q0 -8 -5 -14t-13 -6h-54q-7 0 -12.5 6t-5.5 14v700q0 19 24 22q69 8 176 8q280 0 280 -215v-7q0 -81 -42.5 -132t-114.5 -70l182 -304q3 -4 3 -9z"/>
<glyph glyph-name="racute" horiz-adv-x="342" unicode="ŕ" d="M307 772q0 -4 -4 -8l-113 -126q-14 -15 -23 -15h-54q-9 0 -9 7q0 6 4 10l98 124q12 15 24 15h66q11 0 11 -7zM315 498q0 -17 -21 -17q-68 0 -138 -42v-419q0 -8 -6 -14t-14 -6h-49q-8 0 -13.5 6t-5.5 14v510q0 8 5.5 14t13.5 6h47q8 0 13.5 -6t5.5 -14v-21q69 48 141 48 q21 0 21 -18v-41z"/>
<glyph glyph-name="Rcommaaccent" horiz-adv-x="625" unicode="Ŗ" d="M468 528v7q0 73 -46.5 103t-143.5 30q-86 0 -110 -3v-274q88 -2 110 -2q97 0 143.5 30.5t46.5 108.5zM586 13q0 -13 -13 -13h-64q-18 0 -26 13l-179 298h-9h-17q-30 0 -110 3v-294q0 -8 -5 -14t-13 -6h-54q-7 0 -12.5 6t-5.5 14v700q0 19 24 22q69 8 176 8 q280 0 280 -215v-7q0 -81 -42.5 -132t-114.5 -70l182 -304q3 -4 3 -9zM297 -49h69q11 0 11 -11l-1 -8l-54 -109q-3 -6 -4.5 -8.5t-4 -5.5t-6 -4t-9.5 -1h-41q-9 0 -9 8q0 4 1 8l28 112q4 19 20 19z"/>
<glyph glyph-name="rcommaaccent" horiz-adv-x="342" unicode="ŗ" d="M315 498q0 -17 -21 -17q-68 0 -138 -42v-419q0 -8 -6 -14t-14 -6h-49q-8 0 -13.5 6t-5.5 14v510q0 8 5.5 14t13.5 6h47q8 0 13.5 -6t5.5 -14v-21q69 48 141 48q21 0 21 -18v-41zM155 -49h69q11 0 11 -11l-1 -8l-54 -109q-3 -6 -4.5 -8.5t-4 -5.5t-6 -4t-9.5 -1h-41 q-9 0 -9 8q0 4 1 8l28 112q4 19 20 19z"/>
<glyph glyph-name="Rcaron" horiz-adv-x="625" unicode="Ř" d="M481 943q0 -6 -4 -10l-97 -124q-12 -15 -25 -15h-85q-12 0 -24 15l-98 124q-4 4 -4 10q0 7 9 7h54q9 0 23 -16l83 -96l82 96q14 16 23 16h54q9 0 9 -7zM468 528v7q0 73 -46.5 103t-143.5 30q-86 0 -110 -3v-274q88 -2 110 -2q97 0 143.5 30.5t46.5 108.5zM586 13 q0 -13 -13 -13h-64q-18 0 -26 13l-179 298h-9h-17q-30 0 -110 3v-294q0 -8 -5 -14t-13 -6h-54q-7 0 -12.5 6t-5.5 14v700q0 19 24 22q69 8 176 8q280 0 280 -215v-7q0 -81 -42.5 -132t-114.5 -70l182 -304q3 -4 3 -9z"/>
<glyph glyph-name="rcaron" horiz-adv-x="342" unicode="ř" d="M339 772q0 -6 -4 -10l-97 -124q-12 -15 -25 -15h-85q-12 0 -24 15l-98 124q-4 4 -4 10q0 7 9 7h54q9 0 23 -16l83 -96l82 96q14 16 23 16h54q9 0 9 -7zM315 498q0 -17 -21 -17q-68 0 -138 -42v-419q0 -8 -6 -14t-14 -6h-49q-8 0 -13.5 6t-5.5 14v510q0 8 5.5 14t13.5 6 h47q8 0 13.5 -6t5.5 -14v-21q69 48 141 48q21 0 21 -18v-41z"/>
<glyph glyph-name="Sacute" horiz-adv-x="550" unicode="Ś" d="M412 943q0 -4 -4 -8l-113 -126q-13 -15 -23 -15h-54q-9 0 -9 7q0 6 4 10l98 124q12 15 24 15h66q11 0 11 -7zM500 193q0 -39 -11.5 -72t-37.5 -63.5t-76.5 -47.5t-121.5 -17q-78 0 -166 14q-12 2 -15.5 5.5t-3.5 12.5v40q0 16 17 16h3q69 -6 165 -6q85 0 118.5 30.5 t33.5 87.5q0 37 -25 64t-95 70l-97 59q-72 44 -105 86.5t-33 100.5q0 177 239 177q98 0 174 -12q17 -3 17 -17v-43q0 -16 -17 -16h-2q-88 6 -172 6q-79 0 -113 -20.5t-34 -74.5q0 -34 24 -59t85 -62l92 -55q87 -51 122 -97.5t35 -106.5z"/>
<glyph glyph-name="sacute" horiz-adv-x="466" unicode="ś" d="M370 772q0 -4 -4 -8l-113 -126q-14 -15 -23 -15h-54q-9 0 -9 7q0 6 4 10l98 124q12 15 24 15h66q11 0 11 -7zM416 138q0 -74 -49.5 -109.5t-137.5 -35.5q-97 0 -158 15q-21 5 -21 20v35q0 15 18 15h4q88 -11 157 -11q51 0 75 16t24 55q0 22 -16 39.5t-59 43.5l-101 60 q-102 62 -102 143q0 133 181 133q80 0 156 -13q19 -3 19 -20v-33q0 -17 -17 -17h-3q-93 8 -155 8q-48 0 -70.5 -11.5t-22.5 -46.5q0 -21 16 -37.5t53 -38.5l99 -59q61 -36 85.5 -71t24.5 -80z"/>
<glyph glyph-name="Scircumflex" horiz-adv-x="550" unicode="Ŝ" d="M428 801q0 -7 -9 -7h-52q-9 0 -23 15l-82 97l-83 -97q-13 -15 -23 -15h-52q-9 0 -9 7q0 6 4 10l96 124q12 15 24 15h85q13 0 25 -15l95 -124q4 -4 4 -10zM500 193q0 -39 -11.5 -72t-37.5 -63.5t-76.5 -47.5t-121.5 -17q-78 0 -166 14q-12 2 -15.5 5.5t-3.5 12.5v40 q0 16 17 16h3q69 -6 165 -6q85 0 118.5 30.5t33.5 87.5q0 37 -25 64t-95 70l-97 59q-72 44 -105 86.5t-33 100.5q0 177 239 177q98 0 174 -12q17 -3 17 -17v-43q0 -16 -17 -16h-2q-88 6 -172 6q-79 0 -113 -20.5t-34 -74.5q0 -34 24 -59t85 -62l92 -55q87 -51 122 -97.5 t35 -106.5z"/>
<glyph glyph-name="scircumflex" horiz-adv-x="466" unicode="ŝ" d="M396 630q0 -7 -9 -7h-52q-9 0 -23 15l-82 97l-83 -97q-13 -15 -23 -15h-52q-9 0 -9 7q0 6 4 10l96 124q12 15 24 15h85q13 0 25 -15l95 -124q4 -4 4 -10zM416 138q0 -74 -49.5 -109.5t-137.5 -35.5q-97 0 -158 15q-21 5 -21 20v35q0 15 18 15h4q88 -11 157 -11 q51 0 75 16t24 55q0 22 -16 39.5t-59 43.5l-101 60q-102 62 -102 143q0 133 181 133q80 0 156 -13q19 -3 19 -20v-33q0 -17 -17 -17h-3q-93 8 -155 8q-48 0 -70.5 -11.5t-22.5 -46.5q0 -21 16 -37.5t53 -38.5l99 -59q61 -36 85.5 -71t24.5 -80z"/>
<glyph glyph-name="Scedilla" horiz-adv-x="550" unicode="Ş" d="M327 -39q0 -4 -4 -8l-113 -126q-14 -15 -23 -15h-54q-9 0 -9 7q0 6 4 10l97 124q12 15 25 15h66q11 0 11 -7zM500 193q0 -39 -11.5 -72t-37.5 -63.5t-76.5 -47.5t-121.5 -17q-78 0 -166 14q-12 2 -15.5 5.5t-3.5 12.5v40q0 16 17 16h3q69 -6 165 -6q85 0 118.5 30.5 t33.5 87.5q0 37 -25 64t-95 70l-97 59q-72 44 -105 86.5t-33 100.5q0 177 239 177q98 0 174 -12q17 -3 17 -17v-43q0 -16 -17 -16h-2q-88 6 -172 6q-79 0 -113 -20.5t-34 -74.5q0 -34 24 -59t85 -62l92 -55q87 -51 122 -97.5t35 -106.5z"/>
<glyph glyph-name="scedilla" horiz-adv-x="466" unicode="ş" d="M285 -39q0 -4 -4 -8l-113 -126q-13 -15 -23 -15h-54q-9 0 -9 7q0 6 4 10l97 124q12 15 25 15h66q11 0 11 -7zM416 138q0 -74 -49.5 -109.5t-137.5 -35.5q-97 0 -158 15q-21 5 -21 20v35q0 15 18 15h4q88 -11 157 -11q51 0 75 16t24 55q0 22 -16 39.5t-59 43.5l-101 60 q-102 62 -102 143q0 133 181 133q80 0 156 -13q19 -3 19 -20v-33q0 -17 -17 -17h-3q-93 8 -155 8q-48 0 -70.5 -11.5t-22.5 -46.5q0 -21 16 -37.5t53 -38.5l99 -59q61 -36 85.5 -71t24.5 -80z"/>
<glyph glyph-name="Scaron" horiz-adv-x="550" unicode="Š" d="M456 943q0 -6 -4 -10l-97 -124q-12 -15 -25 -15h-85q-12 0 -24 15l-98 124q-4 4 -4 10q0 7 9 7h54q9 0 23 -16l83 -96l82 96q14 16 23 16h54q9 0 9 -7zM500 193q0 -39 -11.5 -72t-37.5 -63.5t-76.5 -47.5t-121.5 -17q-78 0 -166 14q-12 2 -15.5 5.5t-3.5 12.5v40 q0 16 17 16h3q69 -6 165 -6q85 0 118.5 30.5t33.5 87.5q0 37 -25 64t-95 70l-97 59q-72 44 -105 86.5t-33 100.5q0 177 239 177q98 0 174 -12q17 -3 17 -17v-43q0 -16 -17 -16h-2q-88 6 -172 6q-79 0 -113 -20.5t-34 -74.5q0 -34 24 -59t85 -62l92 -55q87 -51 122 -97.5 t35 -106.5z"/>
<glyph glyph-name="scaron" horiz-adv-x="466" unicode="š" d="M396 772q0 -6 -4 -10l-97 -124q-12 -15 -25 -15h-85q-12 0 -24 15l-98 124q-4 4 -4 10q0 7 9 7h54q9 0 23 -16l83 -96l82 96q14 16 23 16h54q9 0 9 -7zM416 138q0 -74 -49.5 -109.5t-137.5 -35.5q-97 0 -158 15q-21 5 -21 20v35q0 15 18 15h4q88 -11 157 -11q51 0 75 16 t24 55q0 22 -16 39.5t-59 43.5l-101 60q-102 62 -102 143q0 133 181 133q80 0 156 -13q19 -3 19 -20v-33q0 -17 -17 -17h-3q-93 8 -155 8q-48 0 -70.5 -11.5t-22.5 -46.5q0 -21 16 -37.5t53 -38.5l99 -59q61 -36 85.5 -71t24.5 -80z"/>
<glyph glyph-name="uni0162" horiz-adv-x="590" unicode="Ţ" d="M555 681q0 -16 -19 -16h-195v-645q0 -8 -5 -14t-13 -6h-55q-7 0 -12.5 6t-5.5 14v645h-195q-20 0 -20 16v44q0 7 6 12.5t14 5.5h481q19 0 19 -18v-44zM264 -49h69q11 0 11 -11l-1 -8l-54 -109q-3 -6 -4.5 -8.5t-4 -5.5t-6 -4t-9.5 -1h-41q-9 0 -9 8q0 4 1 8l28 112 q4 19 20 19z"/>
<glyph glyph-name="uni0163" horiz-adv-x="385" unicode="ţ" d="M360 15q0 -14 -18 -17q-33 -5 -65 -5q-73 0 -104.5 27.5t-31.5 106.5v349l-97 11q-19 2 -19 18v27q0 18 19 18h97v98q0 17 18 20l52 8h3q15 0 15 -17v-109h108q8 0 14 -6t6 -14v-34q0 -8 -6 -14t-14 -6h-108v-349q0 -40 11 -51.5t43 -11.5h56q21 0 21 -14v-35zM177 -49 h69q11 0 11 -11l-1 -8l-54 -109q-3 -6 -4.5 -8.5t-4 -5.5t-6 -4t-9.5 -1h-41q-9 0 -9 8q0 4 1 8l28 112q4 19 20 19z"/>
<glyph glyph-name="Tcaron" horiz-adv-x="590" unicode="Ť" d="M464 943q0 -6 -4 -10l-97 -124q-12 -15 -25 -15h-85q-12 0 -24 15l-98 124q-4 4 -4 10q0 7 9 7h54q9 0 23 -16l83 -96l82 96q14 16 23 16h54q9 0 9 -7zM555 681q0 -16 -19 -16h-195v-645q0 -8 -5 -14t-13 -6h-55q-7 0 -12.5 6t-5.5 14v645h-195q-20 0 -20 16v44 q0 7 6 12.5t14 5.5h481q19 0 19 -18v-44z"/>
<glyph glyph-name="tcaron" horiz-adv-x="513" unicode="ť" d="M360 15q0 -14 -18 -17q-33 -5 -65 -5q-73 0 -104.5 27.5t-31.5 106.5v349l-97 11q-19 2 -19 18v27q0 18 19 18h97v98q0 17 18 20l52 8h3q15 0 15 -17v-109h108q8 0 14 -6t6 -14v-34q0 -8 -6 -14t-14 -6h-108v-349q0 -40 11 -51.5t43 -11.5h56q21 0 21 -14v-35zM538 741 q0 -2 -2 -8l-75 -189q-7 -19 -19 -19h-41q-12 0 -12 12q0 5 1 7l57 189q6 19 20 19h58q13 0 13 -11z"/>
<glyph glyph-name="Tbar" horiz-adv-x="590" unicode="Ŧ" d="M536 465h-195v-445q0 -8 -5 -14t-13 -6h-55q-7 0 -12.5 6t-5.5 14v445h-195q-20 0 -20 16v44q0 7 6 12.5t14 5.5h195v122h-195q-20 0 -20 16v44q0 7 6 12.5t14 5.5h481q19 0 19 -18v-44q0 -16 -19 -16h-195v-122h195q19 0 19 -18v-44q0 -16 -19 -16z"/>
<glyph glyph-name="tbar" horiz-adv-x="385" unicode="ŧ" d="M360 15q0 -14 -18 -17q-33 -5 -65 -5q-73 0 -104.5 27.5t-31.5 106.5v179l-97 11q-19 2 -19 18v27q0 18 19 18h97v96l-97 11q-19 2 -19 18v27q0 18 19 18h97v98q0 17 18 20l52 8h3q15 0 15 -17v-109h108q8 0 14 -6t6 -14v-34q0 -8 -6 -14t-14 -6h-108v-96h108q8 0 14 -6 t6 -14v-34q0 -8 -6 -14t-14 -6h-108v-179q0 -40 11 -51.5t43 -11.5h56q21 0 21 -14v-35z"/>
<glyph glyph-name="Utilde" horiz-adv-x="662" unicode="Ũ" d="M505 892q0 -53 -22.5 -79t-71.5 -26q-37 0 -64 21l-61 49q-28 22 -41 22q-31 0 -31 -46v-21q0 -7 -5 -12t-12 -5h-31q-7 0 -11.5 5t-4.5 12v21q0 53 25 81t70 28q29 0 60 -24l71 -56q18 -14 35 -14q16 0 23 9.5t7 34.5v23q0 7 5 12t12 5h31q7 0 11.5 -5t4.5 -12v-23z M587 270q0 -277 -256 -277t-256 277v454q0 8 5.5 13.5t13.5 5.5h54q8 0 13.5 -5.5t5.5 -13.5v-454q0 -101 37 -150t127 -49t127 48.5t37 150.5v454q0 8 5.5 13.5t13.5 5.5h54q8 0 13.5 -5.5t5.5 -13.5v-454z"/>
<glyph glyph-name="utilde" horiz-adv-x="557" unicode="ũ" d="M459 721q0 -53 -22.5 -79t-71.5 -26q-37 0 -64 21l-61 49q-28 22 -41 22q-31 0 -31 -46v-21q0 -7 -5 -12t-12 -5h-31q-7 0 -11.5 5t-4.5 12v21q0 53 25 81t70 28q29 0 60 -24l71 -56q18 -14 35 -14q16 0 23 9.5t7 34.5v23q0 7 5 12t12 5h31q7 0 11.5 -5t4.5 -12v-23z M489 20q0 -8 -5.5 -14t-13.5 -6h-50q-8 0 -13.5 6t-5.5 14v19q-82 -46 -159 -46q-174 0 -174 208v329q0 8 6 14t14 6h48q8 0 14 -6t6 -14v-329q0 -74 25.5 -103t84.5 -29q57 0 135 39v422q0 8 6 14t14 6h49q8 0 13.5 -6t5.5 -14v-510z"/>
<glyph glyph-name="Umacron" horiz-adv-x="662" unicode="Ū" d="M495 837q0 -17 -20 -17h-288q-20 0 -20 17v34q0 17 20 17h288q20 0 20 -17v-34zM587 270q0 -277 -256 -277t-256 277v454q0 8 5.5 13.5t13.5 5.5h54q8 0 13.5 -5.5t5.5 -13.5v-454q0 -101 37 -150t127 -49t127 48.5t37 150.5v454q0 8 5.5 13.5t13.5 5.5h54q8 0 13.5 -5.5 t5.5 -13.5v-454z"/>
<glyph glyph-name="umacron" horiz-adv-x="557" unicode="ū" d="M443 666q0 -17 -20 -17h-288q-20 0 -20 17v34q0 17 20 17h288q20 0 20 -17v-34zM489 20q0 -8 -5.5 -14t-13.5 -6h-50q-8 0 -13.5 6t-5.5 14v19q-82 -46 -159 -46q-174 0 -174 208v329q0 8 6 14t14 6h48q8 0 14 -6t6 -14v-329q0 -74 25.5 -103t84.5 -29q57 0 135 39v422 q0 8 6 14t14 6h49q8 0 13.5 -6t5.5 -14v-510z"/>
<glyph glyph-name="Ubreve" horiz-adv-x="662" unicode="Ŭ" d="M491 940v-4q-5 -66 -52.5 -103.5t-110.5 -37.5t-110.5 37.5t-52.5 103.5v4q0 13 11 13h37q14 0 15 -16q4 -38 33 -59t67 -21t67 21t33 59q1 16 15 16h37q11 0 11 -13zM587 270q0 -277 -256 -277t-256 277v454q0 8 5.5 13.5t13.5 5.5h54q8 0 13.5 -5.5t5.5 -13.5v-454 q0 -101 37 -150t127 -49t127 48.5t37 150.5v454q0 8 5.5 13.5t13.5 5.5h54q8 0 13.5 -5.5t5.5 -13.5v-454z"/>
<glyph glyph-name="ubreve" horiz-adv-x="557" unicode="ŭ" d="M441 766v-4q-5 -66 -52.5 -103.5t-110.5 -37.5t-110.5 37.5t-52.5 103.5v4q0 13 11 13h37q14 0 15 -16q4 -38 33 -59t67 -21t67 21t33 59q1 16 15 16h37q11 0 11 -13zM489 20q0 -8 -5.5 -14t-13.5 -6h-50q-8 0 -13.5 6t-5.5 14v19q-82 -46 -159 -46q-174 0 -174 208v329 q0 8 6 14t14 6h48q8 0 14 -6t6 -14v-329q0 -74 25.5 -103t84.5 -29q57 0 135 39v422q0 8 6 14t14 6h49q8 0 13.5 -6t5.5 -14v-510z"/>
<glyph glyph-name="Uring" horiz-adv-x="662" unicode="Ů" d="M385 879q0 22 -15.5 37t-37.5 15t-37 -15t-15 -37t15 -37.5t37 -15.5t37.5 15.5t15.5 37.5zM433 878q0 -42 -29.5 -71.5t-71.5 -29.5t-72 29.5t-30 71.5t30 72t72 30t71.5 -30t29.5 -72zM587 270q0 -277 -256 -277t-256 277v454q0 8 5.5 13.5t13.5 5.5h54q8 0 13.5 -5.5 t5.5 -13.5v-454q0 -101 37 -150t127 -49t127 48.5t37 150.5v454q0 8 5.5 13.5t13.5 5.5h54q8 0 13.5 -5.5t5.5 -13.5v-454z"/>
<glyph glyph-name="uring" horiz-adv-x="557" unicode="ů" d="M332 704q0 22 -15.5 37t-37.5 15t-37 -15t-15 -37t15 -37.5t37 -15.5t37.5 15.5t15.5 37.5zM380 703q0 -42 -29.5 -71.5t-71.5 -29.5t-72 29.5t-30 71.5t30 72t72 30t71.5 -30t29.5 -72zM489 20q0 -8 -5.5 -14t-13.5 -6h-50q-8 0 -13.5 6t-5.5 14v19q-82 -46 -159 -46 q-174 0 -174 208v329q0 8 6 14t14 6h48q8 0 14 -6t6 -14v-329q0 -74 25.5 -103t84.5 -29q57 0 135 39v422q0 8 6 14t14 6h49q8 0 13.5 -6t5.5 -14v-510z"/>
<glyph glyph-name="Uhungarumlaut" horiz-adv-x="662" unicode="Ű" d="M380 943q0 -4 -4 -8l-112 -126q-13 -15 -23 -15h-54q-9 0 -9 7q0 6 4 10l97 124q12 15 25 15h65q11 0 11 -7zM555 943q0 -4 -4 -8l-112 -126q-13 -15 -23 -15h-54q-9 0 -9 7q0 6 4 10l97 124q12 15 25 15h65q11 0 11 -7zM587 270q0 -277 -256 -277t-256 277v454 q0 8 5.5 13.5t13.5 5.5h54q8 0 13.5 -5.5t5.5 -13.5v-454q0 -101 37 -150t127 -49t127 48.5t37 150.5v454q0 8 5.5 13.5t13.5 5.5h54q8 0 13.5 -5.5t5.5 -13.5v-454z"/>
<glyph glyph-name="uhungarumlaut" horiz-adv-x="557" unicode="ű" d="M327 772q0 -4 -4 -8l-112 -126q-13 -15 -23 -15h-54q-9 0 -9 7q0 6 4 10l97 124q12 15 25 15h65q11 0 11 -7zM502 772q0 -4 -4 -8l-112 -126q-14 -15 -23 -15h-54q-9 0 -9 7q0 6 4 10l97 124q12 15 25 15h65q11 0 11 -7zM489 20q0 -8 -5.5 -14t-13.5 -6h-50q-8 0 -13.5 6 t-5.5 14v19q-82 -46 -159 -46q-174 0 -174 208v329q0 8 6 14t14 6h48q8 0 14 -6t6 -14v-329q0 -74 25.5 -103t84.5 -29q57 0 135 39v422q0 8 6 14t14 6h49q8 0 13.5 -6t5.5 -14v-510z"/>
<glyph glyph-name="Uogonek" horiz-adv-x="662" unicode="Ų" d="M587 270v-6q0 -86 -25 -141t-86 -98l-96 -67q-41 -29 -49 -41q-5 -10 -5 -21q0 -38 69 -38q14 0 30.5 2.5t27.5 5t13 2.5q5 0 5 -8v-39q0 -8 -11 -11q-30 -10 -76 -10q-131 0 -131 96q0 60 64 91l11 6q-253 2 -253 277v454q0 8 5.5 13.5t13.5 5.5h54q8 0 13.5 -5.5 t5.5 -13.5v-454q0 -101 37 -150t127 -49t127 48.5t37 150.5v454q0 8 5.5 13.5t13.5 5.5h54q8 0 13.5 -5.5t5.5 -13.5v-454z"/>
<glyph glyph-name="uogonek" horiz-adv-x="557" unicode="ų" d="M403 20v20q-83 -47 -161 -47q-174 0 -174 208v329q0 8 6 14t14 6h48q8 0 14 -6t6 -14v-329q0 -74 25.5 -103t84.5 -29q57 0 135 39v422q0 8 6 14t14 6h49q8 0 13.5 -6t5.5 -14v-510q0 -10 -8 -16l-67 -46q-30 -20 -42 -34t-12 -33q0 -17 11.5 -25t44.5 -8q14 0 28.5 2.5 t24 5t11.5 2.5q5 0 5 -8v-39q0 -8 -11 -11q-30 -10 -69 -10q-119 0 -119 93q0 31 16 51.5t49 42.5z"/>
<glyph glyph-name="Wcircumflex" horiz-adv-x="825" unicode="Ŵ" d="M579 801q0 -7 -9 -7h-52q-10 0 -23 15l-82 97l-83 -97q-14 -15 -23 -15h-52q-9 0 -9 7q0 6 4 10l96 124q12 15 24 15h85q13 0 25 -15l95 -124q4 -4 4 -10zM791 726v-3l-111 -676q-9 -51 -62 -51h-43q-21 0 -36 13.5t-21 36.5l-98 370q-2 9 -6 9h-1h-1q-4 0 -6 -9 l-99 -370q-6 -23 -21 -36.5t-36 -13.5h-42q-53 0 -62 51l-111 676v3q0 17 17 17h58q14 0 17 -17l97 -637q3 -15 5 -15q4 0 7 15l98 370q10 40 47 40h64q37 0 47 -40l98 -370q3 -15 7 -15q2 0 5 15l97 637q3 17 17 17h58q17 0 17 -17z"/>
<glyph glyph-name="wcircumflex" horiz-adv-x="786" unicode="ŵ" d="M560 630q0 -7 -9 -7h-52q-9 0 -23 15l-82 97l-83 -97q-13 -15 -23 -15h-52q-9 0 -9 7q0 6 4 10l96 124q12 15 24 15h85q13 0 25 -15l95 -124q4 -4 4 -10zM748 530v-4l-97 -464q-10 -46 -24 -57.5t-60 -11.5q-40 0 -55 13t-27 59l-87 340q-2 7 -5 7t-5 -7l-87 -340 q-11 -44 -27 -58t-55 -14q-46 0 -60 11.5t-24 57.5l-97 464v4q0 8 5.5 14t13.5 6h54q15 0 17 -16l83 -456q2 -12 8 -12q5 0 8 12l98 384q8 30 40 30h56q32 0 40 -30l98 -384q3 -12 8 -12q6 0 8 12l83 456q2 16 17 16h54q8 0 13.5 -6t5.5 -14z"/>
<glyph glyph-name="Ycircumflex" horiz-adv-x="583" unicode="Ŷ" d="M460 802q0 -7 -9 -7h-52q-9 0 -23 15l-82 97l-83 -97q-13 -15 -23 -15h-52q-9 0 -9 7q0 6 4 10l96 124q12 15 24 15h85q13 0 25 -15l95 -124q4 -4 4 -10zM549 729q0 -5 -3 -11l-155 -348q-24 -52 -54 -66v-284q0 -8 -5.5 -14t-12.5 -6h-55q-7 0 -12.5 6t-5.5 14v284 q-29 11 -54 66l-154 348q-3 6 -3 11q0 14 17 14h61q12 0 18 -14l138 -324q11 -26 23 -26t23 26l139 324q6 14 17 14h61q17 0 17 -14z"/>
<glyph glyph-name="ycircumflex" horiz-adv-x="534" unicode="ŷ" d="M434 630q0 -7 -9 -7h-52q-9 0 -23 15l-82 97l-83 -97q-13 -15 -23 -15h-52q-9 0 -9 7q0 6 4 10l96 124q12 15 24 15h85q13 0 25 -15l95 -124q4 -4 4 -10zM495 533q0 -5 -1 -7l-165 -576q-24 -84 -61.5 -116t-121.5 -32q-46 0 -84 9q-21 5 -21 16v37q0 16 19 16h3 q66 -6 89 -6q44 0 65.5 17t33.5 68l10 41h-14q-27 0 -44.5 13.5t-29.5 55.5l-133 457q-1 2 -1 7q0 17 18 17h55q13 0 17 -16l118 -434q5 -22 19 -22h16l122 457q4 15 19 15h56q16 0 16 -17z"/>
<glyph glyph-name="Ydieresis" horiz-adv-x="583" unicode="Ÿ" d="M243 821q0 -8 -6 -13.5t-14 -5.5h-39q-8 0 -14 5.5t-6 13.5v81q0 8 6 14t14 6h39q7 0 13.5 -6t6.5 -14v-81zM418 821q0 -8 -6 -13.5t-14 -5.5h-39q-8 0 -14 5.5t-6 13.5v81q0 8 6.5 14t13.5 6h39q8 0 14 -6t6 -14v-81zM549 729q0 -5 -3 -11l-155 -348q-24 -52 -54 -66 v-284q0 -8 -5.5 -14t-12.5 -6h-55q-7 0 -12.5 6t-5.5 14v284q-29 11 -54 66l-154 348q-3 6 -3 11q0 14 17 14h61q12 0 18 -14l138 -324q11 -26 23 -26t23 26l139 324q6 14 17 14h61q17 0 17 -14z"/>
<glyph glyph-name="Zacute" horiz-adv-x="597" unicode="Ź" d="M435 943q0 -4 -4 -8l-113 -126q-14 -15 -23 -15h-54q-9 0 -9 7q0 6 4 10l98 124q12 15 24 15h66q11 0 11 -7zM544 18q0 -7 -6 -12.5t-14 -5.5h-385q-48 0 -65.5 14t-17.5 54q0 36 15 58l358 521q3 5 3 8q0 7 -10 7h-332q-20 0 -20 17v47q0 17 20 17h356q45 0 65 -13.5 t20 -52.5q0 -35 -16 -59l-357 -521q-3 -4 -3 -9q0 -6 10 -6h359q20 0 20 -17v-47z"/>
<glyph glyph-name="zacute" horiz-adv-x="482" unicode="ź" d="M398 772q0 -4 -4 -8l-113 -126q-13 -15 -23 -15h-54q-9 0 -9 7q0 6 4 10l98 124q12 15 24 15h66q11 0 11 -7zM432 20q0 -8 -6 -14t-14 -6h-302q-30 0 -45.5 16t-15.5 39v19q0 35 23 65l258 321q4 6 4 9q0 7 -10 7h-243q-8 0 -14 6t-6 14v34q0 8 6 14t14 6h294 q56 0 56 -49v-24q0 -28 -23 -55l-263 -329q-5 -5 -5 -11q0 -8 8 -8h264q8 0 14 -6t6 -14v-34z"/>
<glyph glyph-name="Zdotaccent" horiz-adv-x="597" unicode="Ż" d="M342 829q0 -8 -5.5 -14t-13.5 -6h-48q-8 0 -14 6t-6 14v84q0 7 6 13t14 6h48q7 0 13 -6t6 -13v-84zM544 18q0 -7 -6 -12.5t-14 -5.5h-385q-48 0 -65.5 14t-17.5 54q0 36 15 58l358 521q3 5 3 8q0 7 -10 7h-332q-20 0 -20 17v47q0 17 20 17h356q45 0 65 -13.5t20 -52.5 q0 -35 -16 -59l-357 -521q-3 -4 -3 -9q0 -6 10 -6h359q20 0 20 -17v-47z"/>
<glyph glyph-name="zdotaccent" horiz-adv-x="482" unicode="ż" d="M285 658q0 -8 -5.5 -14t-13.5 -6h-48q-8 0 -14 6t-6 14v84q0 7 6 13t14 6h48q8 0 13.5 -5.5t5.5 -13.5v-84zM432 20q0 -8 -6 -14t-14 -6h-302q-30 0 -45.5 16t-15.5 39v19q0 35 23 65l258 321q4 6 4 9q0 7 -10 7h-243q-8 0 -14 6t-6 14v34q0 8 6 14t14 6h294q56 0 56 -49 v-24q0 -28 -23 -55l-263 -329q-5 -5 -5 -11q0 -8 8 -8h264q8 0 14 -6t6 -14v-34z"/>
<glyph glyph-name="Zcaron" horiz-adv-x="597" unicode="Ž" d="M470 943q0 -6 -4 -10l-97 -124q-12 -15 -25 -15h-85q-12 0 -24 15l-98 124q-4 4 -4 10q0 7 9 7h54q9 0 23 -16l83 -96l82 96q14 16 23 16h54q9 0 9 -7zM544 18q0 -7 -6 -12.5t-14 -5.5h-385q-48 0 -65.5 14t-17.5 54q0 36 15 58l358 521q3 5 3 8q0 7 -10 7h-332 q-20 0 -20 17v47q0 17 20 17h356q45 0 65 -13.5t20 -52.5q0 -35 -16 -59l-357 -521q-3 -4 -3 -9q0 -6 10 -6h359q20 0 20 -17v-47z"/>
<glyph glyph-name="zcaron" horiz-adv-x="482" unicode="ž" d="M413 772q0 -6 -4 -10l-97 -124q-12 -15 -25 -15h-85q-12 0 -24 15l-98 124q-4 4 -4 10q0 7 9 7h54q9 0 23 -16l83 -96l82 96q14 16 23 16h54q9 0 9 -7zM432 20q0 -8 -6 -14t-14 -6h-302q-30 0 -45.5 16t-15.5 39v19q0 35 23 65l258 321q4 6 4 9q0 7 -10 7h-243 q-8 0 -14 6t-6 14v34q0 8 6 14t14 6h294q56 0 56 -49v-24q0 -28 -23 -55l-263 -329q-5 -5 -5 -11q0 -8 8 -8h264q8 0 14 -6t6 -14v-34z"/>
<glyph glyph-name="florin" d="M548 742v-3l-4 -32q-2 -15 -24 -15h-55q-36 0 -52.5 -14.5t-21.5 -53.5l-27 -196h143q17 0 17 -15v-3l-5 -37q-2 -18 -22 -18h-143l-50 -357q-20 -137 -160 -137q-32 0 -69 5q-17 3 -17 14v3l4 32q2 15 24 15h55q36 0 52.5 14.5t21.5 53.5l50 357h-128q-18 0 -18 16v2 l5 37q1 7 8 12.5t15 5.5h128l27 196q18 137 160 137q32 0 69 -5q17 -3 17 -14z" unicode="ƒ"/>
<glyph glyph-name="Scommaaccent" horiz-adv-x="550" unicode="Ș" d="M500 193q0 -39 -11.5 -72t-37.5 -63.5t-76.5 -47.5t-121.5 -17q-78 0 -166 14q-12 2 -15.5 5.5t-3.5 12.5v40q0 16 17 16h3q69 -6 165 -6q85 0 118.5 30.5t33.5 87.5q0 37 -25 64t-95 70l-97 59q-72 44 -105 86.5t-33 100.5q0 177 239 177q98 0 174 -12q17 -3 17 -17v-43 q0 -16 -17 -16h-2q-88 6 -172 6q-79 0 -113 -20.5t-34 -74.5q0 -34 24 -59t85 -62l92 -55q87 -51 122 -97.5t35 -106.5zM250 -49h69q11 0 11 -11l-1 -8l-54 -109q-3 -6 -4.5 -8.5t-4 -5.5t-6 -4t-9.5 -1h-41q-9 0 -9 8q0 4 1 8l28 112q4 19 20 19z"/>
<glyph glyph-name="scommaaccent" horiz-adv-x="466" unicode="ș" d="M416 138q0 -74 -49.5 -109.5t-137.5 -35.5q-97 0 -158 15q-21 5 -21 20v35q0 15 18 15h4q88 -11 157 -11q51 0 75 16t24 55q0 22 -16 39.5t-59 43.5l-101 60q-102 62 -102 143q0 133 181 133q80 0 156 -13q19 -3 19 -20v-33q0 -17 -17 -17h-3q-93 8 -155 8 q-48 0 -70.5 -11.5t-22.5 -46.5q0 -21 16 -37.5t53 -38.5l99 -59q61 -36 85.5 -71t24.5 -80zM197 -49h69q11 0 11 -11l-1 -8l-54 -109q-3 -6 -4.5 -8.5t-4 -5.5t-6 -4t-9.5 -1h-41q-9 0 -9 8q0 4 1 8l28 112q4 19 20 19z"/>
<glyph glyph-name="uni021A" horiz-adv-x="590" unicode="Ț" d="M555 681q0 -16 -19 -16h-195v-645q0 -8 -5 -14t-13 -6h-55q-7 0 -12.5 6t-5.5 14v645h-195q-20 0 -20 16v44q0 7 6 12.5t14 5.5h481q19 0 19 -18v-44zM264 -49h69q11 0 11 -11l-1 -8l-54 -109q-3 -6 -4.5 -8.5t-4 -5.5t-6 -4t-9.5 -1h-41q-9 0 -9 8q0 4 1 8l28 112 q4 19 20 19z"/>
<glyph glyph-name="uni021B" horiz-adv-x="385" unicode="ț" d="M360 15q0 -14 -18 -17q-33 -5 -65 -5q-73 0 -104.5 27.5t-31.5 106.5v349l-97 11q-19 2 -19 18v27q0 18 19 18h97v98q0 17 18 20l52 8h3q15 0 15 -17v-109h108q8 0 14 -6t6 -14v-34q0 -8 -6 -14t-14 -6h-108v-349q0 -40 11 -51.5t43 -11.5h56q21 0 21 -14v-35zM177 -49 h69q11 0 11 -11l-1 -8l-54 -109q-3 -6 -4.5 -8.5t-4 -5.5t-6 -4t-9.5 -1h-41q-9 0 -9 8q0 4 1 8l28 112q4 19 20 19z"/>
<glyph glyph-name="dotlessj" horiz-adv-x="247" unicode="ȷ" d="M167 -64q0 -75 -30.5 -104t-94.5 -29q-27 0 -54 4q-18 3 -18 16v37q0 14 21 14h41q28 0 37.5 12t9.5 50v594q0 8 5 14t13 6h52q18 0 18 -20v-594z"/>
<glyph glyph-name="circumflex" horiz-adv-x="373" unicode="ˆ" d="M353 630q0 -7 -9 -7h-52q-10 0 -23 15l-82 97l-83 -97q-14 -15 -23 -15h-52q-9 0 -9 7q0 6 4 10l96 124q12 15 24 15h85q13 0 25 -15l95 -124q4 -4 4 -10z"/>
<glyph glyph-name="caron" horiz-adv-x="373" unicode="ˇ" d="M355 772q0 -6 -4 -10l-97 -124q-12 -15 -25 -15h-85q-12 0 -24 15l-98 124q-4 4 -4 10q0 7 9 7h54q9 0 23 -16l83 -96l82 96q14 16 23 16h54q9 0 9 -7z"/>
<glyph glyph-name="uni02C9" horiz-adv-x="373" unicode="ˉ" d="M351 692q0 -17 -20 -17h-288q-20 0 -20 17v34q0 17 20 17h288q20 0 20 -17v-34z"/>
<glyph glyph-name="breve" horiz-adv-x="373" unicode="˘" d="M350 766v-4q-5 -66 -52.5 -103.5t-110.5 -37.5t-110.5 37.5t-52.5 103.5v4q0 13 11 13h37q14 0 15 -16q4 -38 33 -59t67 -21t67 21t33 59q1 16 15 16h37q11 0 11 -13z"/>
<glyph glyph-name="dotaccent" horiz-adv-x="373" unicode="˙" d="M230 658q0 -8 -5.5 -14t-13.5 -6h-48q-8 0 -14 6t-6 14v84q0 7 6 13t14 6h48q7 0 13 -5.5t6 -13.5v-84z"/>
<glyph glyph-name="ring" horiz-adv-x="373" unicode="˚" d="M240 704q0 22 -15.5 37t-37.5 15t-37 -15t-15 -37t15 -37.5t37 -15.5t37.5 15.5t15.5 37.5zM288 703q0 -42 -29.5 -71.5t-71.5 -29.5t-72 29.5t-30 71.5t30 72t72 30t71.5 -30t29.5 -72z"/>
<glyph glyph-name="ogonek" horiz-adv-x="366" unicode="˛" d="M297 -179q0 -8 -11 -11q-30 -10 -76 -10q-131 0 -131 96q0 54 64 91l66 40q14 10 25 10h52q12 0 12 -10q0 -6 -5 -9l-87 -60q-22 -15 -30.5 -21.5t-16 -17.5t-7.5 -23q0 -38 69 -38q14 0 30.5 2.5t27.5 5t13 2.5q5 0 5 -8v-39z"/>
<glyph glyph-name="tilde" horiz-adv-x="493" unicode="˜" d="M419 731q0 -53 -22.5 -79t-71.5 -26q-37 0 -64 21l-61 49q-28 22 -41 22q-31 0 -31 -46v-21q0 -7 -5 -12t-12 -5h-31q-7 0 -11.5 5t-4.5 12v21q0 53 25 81t70 28q29 0 60 -24l71 -56q18 -14 35 -14q16 0 23 9.5t7 34.5v23q0 7 5 12t12 5h31q7 0 11.5 -5t4.5 -12v-23z"/>
<glyph glyph-name="hungarumlaut" horiz-adv-x="373" unicode="˝" d="M237 772q0 -4 -4 -8l-112 -126q-13 -15 -23 -15h-54q-9 0 -9 7q0 6 4 10l97 124q12 15 25 15h65q11 0 11 -7zM412 772q0 -4 -4 -8l-112 -126q-14 -15 -23 -15h-54q-9 0 -9 7q0 6 4 10l97 124q12 15 25 15h65q11 0 11 -7z"/>
<glyph glyph-name="uni0400" horiz-adv-x="551" unicode="Ѐ" d="M360 800q0 -7 -9 -7h-54q-9 0 -23 15l-113 126q-4 4 -4 8q0 7 11 7h66q13 0 25 -15l97 -124q4 -4 4 -10zM496 12q0 -12 -10 -14q-48 -5 -195 -5q-107 0 -160 44t-53 142v385q0 98 53 142t160 44q132 0 195 -6q10 -2 10 -14v-50q0 -12 -11 -12h-193q-76 0 -99.5 -22 t-23.5 -82v-139h307q8 0 14 -6t6 -14v-38q0 -8 -6 -14t-14 -6h-307v-168q0 -60 23.5 -82t99.5 -22h193q11 0 11 -12v-51z"/>
<glyph glyph-name="afii10023" horiz-adv-x="551" unicode="Ё" d="M496 12q0 -12 -10 -14q-48 -5 -195 -5q-107 0 -160 44t-53 142v385q0 98 53 142t160 44q132 0 195 -6q10 -2 10 -14v-50q0 -12 -11 -12h-193q-76 0 -99.5 -22t-23.5 -82v-139h307q8 0 14 -6t6 -14v-38q0 -8 -6 -14t-14 -6h-307v-168q0 -60 23.5 -82t99.5 -22h193 q11 0 11 -12v-51zM249 829q0 -8 -6 -13.5t-14 -5.5h-39q-8 0 -14 5.5t-6 13.5v81q0 8 6 14t14 6h39q7 0 13.5 -6t6.5 -14v-81zM424 829q0 -8 -6 -13.5t-14 -5.5h-39q-8 0 -14 5.5t-6 13.5v81q0 8 6.5 14t13.5 6h39q8 0 14 -6t6 -14v-81z"/>
<glyph glyph-name="afii10051" horiz-adv-x="813" unicode="Ђ" d="M763 150q0 -173 -185 -173q-37 0 -53 8q-6 3 -6 11v37q0 17 20 17h39q94 0 94 100v91q0 77 -38 102.5t-126 25.5q-29 0 -83 -6.5t-84 -15.5v-327q0 -8 -5 -14t-13 -6h-55q-7 0 -12.5 6t-5.5 14v645h-195q-20 0 -20 16v44q0 7 6 12.5t14 5.5h481q19 0 19 -18v-44 q0 -16 -19 -16h-195v-243q81 27 184 27q113 0 175.5 -47.5t62.5 -160.5v-91z"/>
<glyph glyph-name="afii10052" horiz-adv-x="526" unicode="Ѓ" d="M496 680q0 -12 -11 -12h-193q-76 0 -99.5 -22t-23.5 -82v-544q0 -8 -6 -14t-14 -6h-51q-8 0 -14 6t-6 14v544q0 98 53 142t160 44q132 0 195 -6q10 -2 10 -14v-50zM422 935l-113 -126q-13 -15 -23 -15h-54q-9 0 -9 7q0 5 4 10l98 124q12 15 24 15h66q11 0 11 -7 q0 -4 -4 -8z"/>
<glyph glyph-name="afii10053" horiz-adv-x="598" unicode="Є" d="M151 425h330q8 0 14 -6t6 -14v-38q0 -8 -6 -14t-14 -6h-330v-13q0 -140 61.5 -199.5t158.5 -59.5q68 0 152 7q20 2 20 -16v-40q0 -16 -20 -20q-68 -13 -153 -13q-47 0 -88.5 9t-83 32.5t-71.5 60.5t-48.5 98.5t-18.5 140.5v75q0 79 18.5 140.5t48.5 98.5t71.5 60.5 t83 32.5t88.5 9q85 0 153 -13q20 -4 20 -20v-40q0 -18 -20 -16q-84 7 -152 7q-44 0 -81 -12t-68.5 -38.5t-50 -75.5t-20.5 -117z"/>
<glyph glyph-name="afii10054" horiz-adv-x="550" unicode="Ѕ" d="M500 193q0 -39 -11.5 -72t-37.5 -63.5t-76.5 -47.5t-121.5 -17q-78 0 -166 14q-12 2 -15.5 5.5t-3.5 12.5v40q0 18 20 16q69 -6 165 -6q85 0 118.5 30.5t33.5 87.5q0 37 -25 64t-95 70l-97 59q-72 44 -105 86.5t-33 100.5q0 177 239 177q98 0 174 -12q17 -3 17 -17v-43 q0 -8 -5.5 -12.5t-13.5 -3.5q-88 6 -172 6q-79 0 -113 -20.5t-34 -74.5q0 -34 24 -59t85 -62l92 -55q87 -51 122 -97.5t35 -106.5z"/>
<glyph glyph-name="afii10055" horiz-adv-x="267" unicode="І" d="M179 20q0 -8 -5 -14t-13 -6h-55q-7 0 -12.5 6t-5.5 14v704q0 19 18 19h55q8 0 13 -5.5t5 -13.5v-704z"/>
<glyph glyph-name="afii10056" horiz-adv-x="267" unicode="Ї" d="M179 20q0 -8 -5 -14t-13 -6h-55q-7 0 -12.5 6t-5.5 14v704q0 19 18 19h55q8 0 13 -5.5t5 -13.5v-704zM86 828q0 -8 -6 -13.5t-14 -5.5h-39q-8 0 -14 5.5t-6 13.5v81q0 7 6.5 13.5t13.5 6.5h39q8 0 14 -6.5t6 -13.5v-81zM261 828q0 -8 -6 -13.5t-14 -5.5h-39q-8 0 -14 5.5 t-6 13.5v81q0 7 6 13.5t14 6.5h39q7 0 13.5 -6.5t6.5 -13.5v-81z"/>
<glyph glyph-name="afii10057" horiz-adv-x="257" unicode="Ј" d="M179 -37q0 -73 -37 -108t-118 -35q-37 0 -53 8q-6 3 -6 11v37q0 17 20 17h39q38 0 51 15.5t13 54.5v761q0 8 6 13.5t13 5.5h53q8 0 13.5 -5.5t5.5 -13.5v-761z"/>
<glyph glyph-name="afii10058" horiz-adv-x="925" unicode="Љ" d="M306 743h167q8 0 14 -6t6 -14v-292q60 4 105 4q292 0 292 -213v-17q0 -212 -292 -212q-106 0 -163 9q-33 4 -33 37v622h-96q-15 0 -20 -18l-171 -628q-4 -15 -18 -15h-59q-17 0 -17 15q0 5 1 8l182 644q21 76 102 76zM799 205v18q0 77 -50 106t-151 29q-37 0 -105 -4 v-280q9 0 47 -2t58 -2q101 0 151 29t50 106z"/>
<glyph glyph-name="afii10059" horiz-adv-x="1034" unicode="Њ" d="M908 205v18q0 77 -50 106t-151 29q-37 0 -105 -4v-280q9 0 47 -2t58 -2q101 0 151 29t50 106zM999 205q0 -212 -292 -212q-93 0 -176 7q-20 2 -20 20v332h-342v-332q0 -8 -6 -14t-14 -6h-51q-8 0 -14 6t-6 14v703q0 8 6 14t14 6h51q8 0 14 -6t6 -14v-290h342v290 q0 8 6 14t14 6h51q8 0 14 -6t6 -14v-292q60 4 105 4q292 0 292 -213v-17z"/>
<glyph glyph-name="afii10060" horiz-adv-x="804" unicode="Ћ" d="M746 20q0 -8 -6 -14t-14 -6h-51q-8 0 -14 6t-6 14v221q0 80 -34.5 104t-109.5 24q-87 0 -160 -21v-328q0 -8 -5 -14t-13 -6h-55q-7 0 -12.5 6t-5.5 14v645h-195q-20 0 -20 16v44q0 7 6 12.5t14 5.5h481q19 0 19 -18v-44q0 -16 -19 -16h-195v-241q82 25 174 25 q107 0 164 -46t57 -162v-221z"/>
<glyph glyph-name="afii10061" horiz-adv-x="607" unicode="Ќ" d="M559 22q5 -7 5 -12q0 -10 -13 -10h-78q-13 0 -22 10l-282 343v-333q0 -8 -5 -14t-13 -6h-55q-7 0 -12.5 6t-5.5 14v704q0 8 5.5 13.5t13.5 5.5h53q8 0 13.5 -5.5t5.5 -13.5v-323l288 333q9 9 20 9h72q14 0 14 -11q0 -6 -4 -10l-301 -340zM435 935l-113 -126 q-14 -15 -23 -15h-54q-9 0 -9 7q0 5 4 10l98 124q12 15 24 15h66q11 0 11 -7q0 -4 -4 -8z"/>
<glyph glyph-name="uni040D" horiz-adv-x="680" unicode="Ѝ" d="M414 801q0 -7 -9 -7h-54q-9 0 -23 15l-113 126q-4 4 -4 8q0 7 11 7h66q13 0 25 -15l97 -124q4 -4 4 -10zM78 29v695q0 19 18 19h53q7 0 12.5 -5.5t5.5 -13.5v-585q0 -3 1 -3l2 3l307 584q6 12 13.5 16t27.5 4h55q12 0 20.5 -8t8.5 -20v-703q0 -12 -18 -12h-52 q-7 0 -12.5 5.5t-5.5 13.5v584q0 3 -1 3t-3 -3l-309 -587q-8 -16 -32 -16h-62q-12 0 -20.5 8.5t-8.5 20.5z"/>
<glyph glyph-name="afii10062" horiz-adv-x="588" unicode="Ў" d="M556 718l-222 -573q-32 -83 -72 -117.5t-122 -34.5q-36 0 -63 6q-21 5 -21 16v46q0 16 19 16h3q31 -3 62 -3q43 0 62.5 16t39.5 69l36 94h-5q-28 0 -43.5 13t-28.5 48l-151 404q-2 4 -2 11q0 14 16 14h61q12 0 18 -14l141 -375q4 -12 8 -15.5t12 -3.5h6l153 394 q6 14 17 14h62q16 0 16 -14q0 -7 -2 -11zM290 792q-63 0 -110.5 37.5t-52.5 103.5v4q0 13 11 13h37q14 0 15 -16q4 -38 33 -59t67 -21t67 21t33 59q1 16 15 16h37q11 0 11 -13q0 -67 -50 -106t-113 -39z"/>
<glyph glyph-name="afii10145" horiz-adv-x="680" unicode="Џ" d="M386 0v-100q0 -8 -5 -14t-13 -6h-55q-7 0 -12.5 6t-5.5 14v100h-81q-136 0 -136 125v598q0 8 6 14t14 6h51q8 0 14 -6t6 -14v-598q0 -25 8 -34t37 -9h252q29 0 37 9t8 34v598q0 8 6 14t14 6h51q8 0 14 -6t6 -14v-598q0 -125 -136 -125h-80z"/>
<glyph glyph-name="afii10017" horiz-adv-x="633" unicode="А" d="M427 324l-91 329q-5 18 -19 18q-15 0 -20 -18l-91 -329h221zM604 16q0 -16 -17 -16h-59q-13 0 -17 15l-65 230h-259l-64 -230q-4 -15 -18 -15h-59q-17 0 -17 16q0 5 1 7l185 651q21 76 102 76q80 0 101 -75l185 -652q1 -2 1 -7z"/>
<glyph glyph-name="afii10018" horiz-adv-x="616" unicode="Б" d="M475 205v18q0 77 -50 106t-151 29q-37 0 -105 -4v-280q9 0 47 -2t58 -2q101 0 151 29t50 106zM566 205q0 -212 -292 -212q-106 0 -163 9q-33 4 -33 37v685q0 19 18 19h382q8 0 14 -6t6 -14v-41q0 -8 -6 -14t-14 -6h-309v-231q60 4 105 4q292 0 292 -213v-17z"/>
<glyph glyph-name="afii10019" horiz-adv-x="616" unicode="В" d="M475 205v17q0 127 -151 127h-154v-275q10 0 47 -2t57 -2q101 0 151 29t50 106zM471 541v16q0 67 -50.5 91.5t-151.5 24.5q-15 0 -99 -3v-248h154q147 0 147 119zM566 205q0 -212 -292 -212q-106 0 -163 9q-33 4 -33 37v666q0 34 32 37q66 8 159 8q293 0 293 -193v-16 q0 -55 -28 -96t-79 -61q52 -18 81.5 -61t29.5 -101v-17z"/>
<glyph glyph-name="afii10020" horiz-adv-x="526" unicode="Г" d="M496 680q0 -12 -11 -12h-193q-76 0 -99.5 -22t-23.5 -82v-544q0 -8 -6 -14t-14 -6h-51q-8 0 -14 6t-6 14v544q0 98 53 142t160 44q132 0 195 -6q10 -2 10 -14v-50z"/>
<glyph glyph-name="afii10021" horiz-adv-x="685" unicode="Д" d="M325 653l-156 -572h352l-157 572q-5 18 -19 18q-15 0 -20 -18zM43 81h31l169 593q21 76 102 76q80 0 101 -75l168 -594h28q18 0 18 -19v-162q0 -8 -5 -14t-13 -6h-55q-7 0 -12.5 6t-5.5 14v100h-453v-100q0 -8 -5 -14t-13 -6h-55q-7 0 -12.5 6t-5.5 14v162q0 19 18 19z "/>
<glyph glyph-name="afii10022" horiz-adv-x="551" unicode="Е" d="M496 12q0 -12 -10 -14q-48 -5 -195 -5q-107 0 -160 44t-53 142v385q0 98 53 142t160 44q132 0 195 -6q10 -2 10 -14v-50q0 -12 -11 -12h-193q-76 0 -99.5 -22t-23.5 -82v-139h307q8 0 14 -6t6 -14v-38q0 -8 -6 -14t-14 -6h-307v-168q0 -60 23.5 -82t99.5 -22h193 q11 0 11 -12v-51z"/>
<glyph glyph-name="afii10024" horiz-adv-x="967" unicode="Ж" d="M919 22q5 -7 5 -12q0 -10 -13 -10h-78q-13 0 -22 10l-282 343v-333q0 -8 -5 -14t-13 -6h-55q-7 0 -12.5 6t-5.5 14v333l-282 -343q-9 -10 -22 -10h-78q-13 0 -13 10q0 5 5 12l301 360l-301 340q-4 4 -4 10q0 11 14 11h72q11 0 20 -9l288 -333v323q0 8 5.5 13.5t13.5 5.5 h53q8 0 13.5 -5.5t5.5 -13.5v-323l288 333q9 9 20 9h72q14 0 14 -11q0 -6 -4 -10l-301 -340z"/>
<glyph glyph-name="afii10025" horiz-adv-x="537" unicode="З" d="M487 207q0 -108 -67 -161t-182 -53q-82 0 -169 20q-19 4 -19 19v34q0 19 20 17q105 -14 168 -14q82 0 119 33t37 105v21q0 48 -27.5 85t-89.5 37h-182q-19 0 -19 18v35q0 19 19 19h182q65 0 91 35t26 84v14q0 62 -36 90.5t-120 28.5q-46 0 -168 -15q-20 -2 -20 17v35 q0 15 19 19q96 20 169 20q120 0 184.5 -45t64.5 -150v-14q0 -51 -24.5 -92t-70.5 -64q95 -47 95 -157v-21z"/>
<glyph glyph-name="afii10026" horiz-adv-x="680" unicode="И" d="M78 29v695q0 19 18 19h53q7 0 12.5 -5.5t5.5 -13.5v-585q0 -3 1 -3l2 3l307 584q6 12 13.5 16t27.5 4h55q12 0 20.5 -8t8.5 -20v-703q0 -12 -18 -12h-52q-7 0 -12.5 5.5t-5.5 13.5v584q0 3 -1 3t-3 -3l-309 -587q-8 -16 -32 -16h-62q-12 0 -20.5 8.5t-8.5 20.5z"/>
<glyph glyph-name="afii10027" horiz-adv-x="680" unicode="Й" d="M78 29v695q0 19 18 19h53q7 0 12.5 -5.5t5.5 -13.5v-585q0 -3 1 -3l2 3l307 584q6 12 13.5 16t27.5 4h55q12 0 20.5 -8t8.5 -20v-703q0 -12 -18 -12h-52q-7 0 -12.5 5.5t-5.5 13.5v584q0 3 -1 3t-3 -3l-309 -587q-8 -16 -32 -16h-62q-12 0 -20.5 8.5t-8.5 20.5zM341 792 q-63 0 -110.5 37.5t-52.5 103.5v4q0 13 11 13h37q14 0 15 -16q4 -38 33 -59t67 -21t67 21t33 59q1 16 15 16h37q11 0 11 -13q0 -67 -50 -106t-113 -39z"/>
<glyph glyph-name="afii10028" horiz-adv-x="607" unicode="К" d="M559 22q5 -7 5 -12q0 -10 -13 -10h-78q-13 0 -22 10l-282 343v-333q0 -8 -5 -14t-13 -6h-55q-7 0 -12.5 6t-5.5 14v704q0 8 5.5 13.5t13.5 5.5h53q8 0 13.5 -5.5t5.5 -13.5v-323l288 333q9 9 20 9h72q14 0 14 -11q0 -6 -4 -10l-301 -340z"/>
<glyph glyph-name="afii10029" horiz-adv-x="633" unicode="Л" d="M511 15l-175 638q-5 18 -19 18q-15 0 -20 -18l-174 -638q-4 -15 -18 -15h-59q-17 0 -17 16q0 5 1 7l185 651q21 76 102 76q80 0 101 -75l185 -652q1 -2 1 -7q0 -16 -17 -16h-59q-13 0 -17 15z"/>
<glyph glyph-name="afii10030" horiz-adv-x="761" unicode="М" d="M684 20q0 -8 -6 -14t-14 -6h-49q-8 0 -14 6t-6 14v593q0 7 -3 1l-143 -296q-8 -16 -17.5 -22.5t-27.5 -6.5h-46q-18 0 -27.5 6.5t-17.5 22.5l-143 296q-3 6 -3 -1v-593q0 -8 -6 -14t-14 -6h-49q-8 0 -14 6t-6 14v694q0 12 8.5 20.5t20.5 8.5h65q24 0 32 -17l165 -343 q5 -11 12 -11t12 11l165 343q8 17 32 17h65q12 0 20.5 -8.5t8.5 -20.5v-694z"/>
<glyph glyph-name="afii10031" horiz-adv-x="680" unicode="Н" d="M602 20q0 -8 -6 -14t-14 -6h-51q-8 0 -14 6t-6 14v332h-342v-332q0 -8 -6 -14t-14 -6h-51q-8 0 -14 6t-6 14v703q0 8 6 14t14 6h51q8 0 14 -6t6 -14v-290h342v290q0 8 6 14t14 6h51q8 0 14 -6t6 -14v-703z"/>
<glyph glyph-name="afii10032" horiz-adv-x="661" unicode="О" d="M509 307v129q0 232 -178 232q-179 0 -179 -232v-129q0 -232 179 -232q178 0 178 232zM601 307q0 -160 -73 -237t-197 -77t-197.5 77.5t-73.5 236.5v129q0 159 73.5 236.5t197.5 77.5t197 -77t73 -237v-129z"/>
<glyph glyph-name="afii10033" horiz-adv-x="680" unicode="П" d="M511 20v598q0 25 -8 34t-37 9h-252q-29 0 -37 -9t-8 -34v-598q0 -8 -6 -14t-14 -6h-51q-8 0 -14 6t-6 14v598q0 125 136 125h252q136 0 136 -125v-598q0 -8 -6 -14t-14 -6h-51q-8 0 -14 6t-6 14z"/>
<glyph glyph-name="afii10034" horiz-adv-x="588" unicode="Р" d="M457 520v13q0 75 -45.5 107.5t-143.5 32.5q-52 0 -100 -4v-293q92 -4 100 -4q102 0 145.5 34.5t43.5 113.5zM548 520q0 -224 -280 -224q-35 0 -100 5v-281q0 -8 -5 -14t-13 -6h-54q-7 0 -12.5 6t-5.5 14v697q0 22 24 25q69 8 166 8q280 0 280 -217v-13z"/>
<glyph glyph-name="afii10035" horiz-adv-x="545" unicode="С" d="M510 26q0 -16 -20 -20q-68 -13 -166 -13q-50 0 -94 15t-83.5 48t-63 96t-23.5 150v139q0 88 23.5 151t63.5 96t83.5 47.5t93.5 14.5q67 0 168 -16q16 -2 16 -13v-51q0 -12 -15 -11q-108 9 -168 9q-174 0 -174 -227v-139q0 -119 47 -173t127 -54q69 0 165 8q20 2 20 -16 v-41z"/>
<glyph glyph-name="afii10036" horiz-adv-x="590" unicode="Т" d="M555 681q0 -16 -19 -16h-195v-645q0 -8 -5 -14t-13 -6h-55q-7 0 -12.5 6t-5.5 14v645h-195q-20 0 -20 16v44q0 7 6 12.5t14 5.5h481q19 0 19 -18v-44z"/>
<glyph glyph-name="afii10037" horiz-adv-x="588" unicode="У" d="M556 718l-222 -573q-32 -83 -72 -117.5t-122 -34.5q-36 0 -63 6q-21 5 -21 16v46q0 16 19 16h3q31 -3 62 -3q43 0 62.5 16t39.5 69l36 94h-5q-28 0 -43.5 13t-28.5 48l-151 404q-2 4 -2 11q0 14 16 14h61q12 0 18 -14l141 -375q4 -12 8 -15.5t12 -3.5h6l153 394 q6 14 17 14h62q16 0 16 -14q0 -7 -2 -11z"/>
<glyph glyph-name="afii10038" horiz-adv-x="790" unicode="Ф" d="M312 218q23 0 38 1v340h-38q-96 0 -142.5 -37t-46.5 -113v-33q0 -80 44.5 -119t144.5 -39zM478 559h-38v-340q14 -1 38 -1q100 0 144.5 39t44.5 119v33q0 76 -46.5 113t-142.5 37zM440 730v-94h38q129 0 204.5 -55.5t75.5 -171.5v-33q0 -120 -75.5 -177t-204.5 -57 q-25 0 -38 1v-123q0 -8 -5 -14t-13 -6h-54q-7 0 -12.5 6t-5.5 14v123q-14 -1 -38 -1q-129 0 -204.5 57t-75.5 177v33q0 116 75.5 171.5t204.5 55.5h38v94q0 8 5.5 14t12.5 6h54q8 0 13 -6t5 -14z"/>
<glyph glyph-name="afii10039" horiz-adv-x="646" unicode="Х" d="M601 25q3 -4 3 -11q0 -14 -16 -14h-63q-11 0 -21 15l-183 291l-179 -291q-10 -15 -21 -15h-59q-16 0 -16 15q0 6 3 10l222 353l-220 341q-3 5 -3 10q0 14 15 14h65q12 0 18 -10l180 -285l174 285q7 10 19 10h59q7 0 11.5 -4.5t4.5 -10.5q0 -4 -3 -9l-215 -343z"/>
<glyph glyph-name="afii10040" horiz-adv-x="687" unicode="Ц" d="M576 0h-362q-136 0 -136 124v599q0 8 6 14t14 6h51q8 0 14 -6t6 -14v-599q0 -25 8 -34t37 -9h252q29 0 37 9t8 34v599q0 8 6 14t14 6h51q8 0 14 -6t6 -14v-598q0 -22 -5 -44h52q8 0 13 -5.5t5 -13.5v-162q0 -8 -5 -14t-13 -6h-55q-7 0 -12.5 6t-5.5 14v100z"/>
<glyph glyph-name="afii10041" horiz-adv-x="629" unicode="Ч" d="M551 20q0 -8 -6 -14t-14 -6h-51q-8 0 -14 6t-6 14v289q-83 -19 -178 -19q-222 0 -222 212v221q0 8 6 14t14 6h51q8 0 14 -6t6 -14v-221q0 -75 33.5 -102t118.5 -27q25 0 81 5.5t76 10.5v334q0 8 5 14t13 6h55q7 0 12.5 -6t5.5 -14v-703z"/>
<glyph glyph-name="afii10042" horiz-adv-x="933" unicode="Ш" d="M764 124v599q0 8 6 14t14 6h51q8 0 14 -6t6 -14v-599q0 -124 -136 -124h-505q-136 0 -136 124v599q0 8 6 14t14 6h51q8 0 14 -6t6 -14v-599q0 -25 8 -34t37 -9h207v642q0 8 6 14t14 6h51q8 0 14 -6t6 -14v-642h207q29 0 37 9t8 34z"/>
<glyph glyph-name="afii10043" horiz-adv-x="945" unicode="Щ" d="M512 81h207q29 0 37 9t8 34v599q0 8 6 14t14 6h51q8 0 14 -6t6 -14v-599q0 -23 -5 -43h52q18 0 18 -19v-162q0 -8 -5 -14t-13 -6h-55q-7 0 -12.5 6t-5.5 14v100h-615q-136 0 -136 124v599q0 8 6 14t14 6h51q8 0 14 -6t6 -14v-599q0 -25 8 -34t37 -9h207v642q0 8 6 14 t14 6h51q8 0 14 -6t6 -14v-642z"/>
<glyph glyph-name="afii10044" horiz-adv-x="677" unicode="Ъ" d="M551 205v18q0 77 -50 106t-151 29q-37 0 -105 -4v-280q9 0 47 -2t58 -2q101 0 151 29t50 106zM642 205q0 -212 -292 -212q-106 0 -163 9q-33 4 -33 37v623h-109q-8 0 -14 6t-6 14v41q0 8 6 14t14 6h182q8 0 13 -5.5t5 -13.5v-293q60 4 105 4q292 0 292 -213v-17z"/>
<glyph glyph-name="afii10045" horiz-adv-x="863" unicode="Ы" d="M475 205v18q0 77 -50 106t-151 29q-37 0 -105 -4v-280q9 0 47 -2t58 -2q101 0 151 29t50 106zM566 205q0 -212 -292 -212q-106 0 -163 9q-33 4 -33 37v685q0 19 18 19h55q8 0 13 -5.5t5 -13.5v-293q60 4 105 4q292 0 292 -213v-17zM785 20q0 -8 -5 -14t-13 -6h-55 q-7 0 -12.5 6t-5.5 14v704q0 19 18 19h55q8 0 13 -5.5t5 -13.5v-704z"/>
<glyph glyph-name="afii10046" horiz-adv-x="601" unicode="Ь" d="M475 205v18q0 77 -50 106t-151 29q-37 0 -105 -4v-280q9 0 47 -2t58 -2q101 0 151 29t50 106zM566 205q0 -212 -292 -212q-106 0 -163 9q-33 4 -33 37v685q0 19 18 19h55q8 0 13 -5.5t5 -13.5v-293q60 4 105 4q292 0 292 -213v-17z"/>
<glyph glyph-name="afii10047" horiz-adv-x="598" unicode="Э" d="M117 425h330q-2 68 -20.5 117t-50 75.5t-68.5 38.5t-81 12q-68 0 -152 -7q-20 -2 -20 16v40q0 16 20 20q68 13 153 13q47 0 88.5 -9t83 -32.5t71.5 -60.5t48.5 -98.5t18.5 -140.5v-75q0 -79 -18.5 -140.5t-48.5 -98.5t-71.5 -60.5t-83 -32.5t-88.5 -9q-85 0 -153 13 q-20 4 -20 20v40q0 18 20 16q84 -7 152 -7q97 0 158.5 59.5t61.5 199.5v13h-330q-8 0 -14 6t-6 14v38q0 8 6 14t14 6z"/>
<glyph glyph-name="afii10048" horiz-adv-x="928" unicode="Ю" d="M776 307v129q0 232 -178 232q-179 0 -179 -232v-129q0 -232 179 -232q178 0 178 232zM868 307q0 -160 -73 -237t-197 -77t-197.5 77.5t-73.5 236.5v25h-148v-312q0 -8 -5 -14t-13 -6h-55q-7 0 -12.5 6t-5.5 14v704q0 19 18 19h55q8 0 13 -5.5t5 -13.5v-311h148v23 q0 159 73.5 236.5t197.5 77.5t197 -77t73 -237v-129z"/>
<glyph glyph-name="afii10049" horiz-adv-x="634" unicode="Я" d="M466 391v274q-24 3 -110 3q-97 0 -143.5 -30t-46.5 -103v-7q0 -78 46.5 -108.5t143.5 -30.5q40 0 110 2zM556 20q0 -8 -5 -14t-13 -6h-54q-7 0 -12.5 6t-5.5 14v294q-60 -3 -110 -3h-26l-179 -298q-8 -13 -26 -13h-64q-13 0 -13 13q0 5 3 9l182 304q-72 19 -114.5 70 t-42.5 132v7q0 215 280 215q107 0 176 -8q14 -2 19 -6.5t5 -15.5v-700z"/>
<glyph glyph-name="afii10065" horiz-adv-x="519" unicode="а" d="M363 105v161h-74q-89 0 -121 -21.5t-32 -76.5v-12q0 -51 22.5 -71t69.5 -20q61 0 135 40zM451 20q0 -8 -6 -14t-14 -6h-46q-8 0 -14 6t-6 14v22q-84 -49 -154 -49q-72 0 -117.5 37.5t-45.5 124.5v12q0 83 55.5 122.5t185.5 39.5h74v40q0 63 -24 88t-83 25q-73 0 -153 -8 h-5q-18 0 -18 16v35q0 16 21 19q76 13 155 13q195 0 195 -188v-349z"/>
<glyph glyph-name="afii10066" horiz-adv-x="545" unicode="б" d="M406 243v46q0 176 -134 176t-134 -176v-46q0 -87 31.5 -130.5t101.5 -43.5q135 0 135 174zM495 243q0 -119 -56 -184.5t-168 -65.5q-109 0 -165 64t-56 186v46q0 55 1 85.5t5 73.5t12 67.5t23 54t37.5 47t55.5 33t76 23.5l72 14q35 7 49.5 19.5t17.5 32.5q1 13 15 13h56 q13 0 12 -13q-5 -95 -130 -121l-75 -16q-60 -13 -90 -34t-36 -67q47 39 121 39q108 0 165.5 -65t57.5 -186v-46z"/>
<glyph glyph-name="afii10067" horiz-adv-x="553" unicode="в" d="M409 161v7q0 28 -11 45.5t-32 25.5t-39.5 10t-45.5 2h-125v-185q60 -2 86 -2q90 0 128.5 23t38.5 74zM403 403v5q0 44 -37 60.5t-117 16.5q-69 0 -93 -1v-165h125q27 0 45 2.5t37.5 10.5t29.5 25.5t10 45.5zM498 161q0 -168 -253 -168q-99 0 -148 6q-29 3 -29 28v496 q0 26 28 29q48 5 159 5q38 0 68.5 -3t63.5 -12.5t55 -25t36 -43.5t14 -65v-5q0 -38 -18 -70.5t-54 -46.5q78 -32 78 -118v-7z"/>
<glyph glyph-name="afii10068" horiz-adv-x="414" unicode="г" d="M369 474h-175q-22 0 -30 -8t-8 -30v-416q0 -8 -6 -14t-14 -6h-48q-8 0 -14 6t-6 14v416q0 33 9.5 55.5t21 34t32 17t32 6.5t31.5 1h175q8 0 14 -6t6 -14v-36q0 -8 -6 -14t-14 -6z"/>
<glyph glyph-name="afii10069" horiz-adv-x="602" unicode="д" d="M276 460l-105 -384h249l-105 384q-5 18 -19 18q-15 0 -20 -18zM557 76q8 0 14 -5.5t6 -13.5v-146q0 -8 -6 -14t-14 -6h-47q-8 0 -14 6t-6 14v89h-378v-89q0 -8 -6 -14t-14 -6h-47q-8 0 -14 6t-6 14v146q0 8 6 13.5t14 5.5h33l116 405q21 76 102 76q80 0 101 -75l114 -406 h46z"/>
<glyph glyph-name="afii10070" horiz-adv-x="544" unicode="е" d="M403 314v9q0 83 -32 120t-99 37q-134 0 -134 -157v-9h265zM492 269q0 -22 -19 -22h-335v-14q0 -87 34 -125t105 -38q106 0 178 11q21 3 21 -14v-34q0 -19 -20 -23q-88 -17 -179 -17q-46 0 -84.5 12t-71.5 38t-52 74.5t-19 115.5v90q0 109 58 171.5t164 62.5 q107 0 163.5 -62.5t56.5 -171.5v-54z"/>
<glyph glyph-name="afii10072" horiz-adv-x="768" unicode="ж" d="M733 13q0 -13 -11 -13h-72q-13 0 -23 13l-199 246v-239q0 -8 -6 -14t-14 -6h-48q-8 0 -14 6t-6 14v239l-199 -246q-10 -13 -23 -13h-72q-11 0 -11 13q0 6 3 9l222 268l-220 238q-5 5 -5 11q0 11 15 11h70q12 0 20 -9l200 -225v214q0 8 6 14t14 6h48q8 0 14 -6t6 -14v-214 l200 225q8 9 20 9h70q15 0 15 -11q0 -6 -5 -11l-220 -238l222 -268q3 -3 3 -9z"/>
<glyph glyph-name="afii10073" horiz-adv-x="496" unicode="з" d="M441 159q0 -82 -60.5 -124t-159.5 -42q-79 0 -146 13q-20 5 -20 18v35q0 17 17 17h4q76 -9 145 -9t99 21t30 71v9q0 83 -97 83h-156q-19 0 -19 17v34q0 17 19 17h156q97 0 97 82v8q0 42 -28.5 58t-101.5 16q-43 0 -144 -9h-4q-17 0 -17 17v35q0 14 20 18q67 13 146 13 q105 0 162.5 -33t57.5 -115v-8q0 -34 -19.5 -66t-55.5 -50q75 -36 75 -117v-9z"/>
<glyph glyph-name="afii10074" horiz-adv-x="577" unicode="и" d="M68 29v502q0 19 18 19h52q18 0 18 -19v-392q0 -2 1 -2.5t2 1.5l227 392q8 13 16 16.5t25 3.5h58q14 0 19 -6t5 -22v-502q0 -20 -18 -20h-52q-8 0 -13 5.5t-5 13.5v390q0 7 -4 1l-226 -394q-9 -16 -32 -16h-62q-12 0 -20.5 8.5t-8.5 20.5z"/>
<glyph glyph-name="afii10075" horiz-adv-x="577" unicode="й" d="M68 29v502q0 19 18 19h52q18 0 18 -19v-392q0 -2 1 -2.5t2 1.5l227 392q8 13 16 16.5t25 3.5h58q14 0 19 -6t5 -22v-502q0 -20 -18 -20h-52q-8 0 -13 5.5t-5 13.5v390q0 7 -4 1l-226 -394q-9 -16 -32 -16h-62q-12 0 -20.5 8.5t-8.5 20.5zM283 621q-63 0 -110.5 37.5 t-52.5 103.5v4q0 13 11 13h37q14 0 15 -16q4 -38 33 -59t67 -21t67 21t33 59q1 16 15 16h37q11 0 11 -13q0 -67 -50 -106t-113 -39z"/>
<glyph glyph-name="afii10076" horiz-adv-x="496" unicode="к" d="M461 13q0 -13 -11 -13h-72q-13 0 -23 13l-199 246v-239q0 -8 -6 -14t-14 -6h-48q-8 0 -14 6t-6 14v510q0 8 6 14t14 6h48q8 0 14 -6t6 -14v-214l200 225q8 9 20 9h70q15 0 15 -11q0 -6 -5 -11l-220 -238l222 -268q3 -3 3 -9z"/>
<glyph glyph-name="afii10077" horiz-adv-x="538" unicode="л" d="M410 15l-121 445q-5 18 -19 18q-15 0 -20 -18l-121 -445q-4 -15 -18 -15h-59q-17 0 -17 16q0 5 1 7l132 458q21 76 102 76q80 0 101 -75l131 -459q1 -2 1 -7q0 -16 -17 -16h-59q-13 0 -17 15z"/>
<glyph glyph-name="afii10078" horiz-adv-x="663" unicode="м" d="M595 20q0 -8 -6 -14t-14 -6h-46q-8 0 -14 6t-6 14v421l-115 -210q-14 -24 -43 -24h-39q-30 0 -43 24l-115 210v-421q0 -8 -6 -14t-14 -6h-46q-8 0 -14 6t-6 14v510q0 8 6 14t14 6h65q25 0 32 -15l141 -256q3 -6 5 -6q3 0 6 6l141 256q8 15 32 15h65q8 0 14 -6t6 -14v-510 z"/>
<glyph glyph-name="afii10079" horiz-adv-x="577" unicode="н" d="M509 20q0 -8 -6 -14t-14 -6h-48q-8 0 -14 6t-6 14v223h-265v-223q0 -8 -6 -14t-14 -6h-48q-8 0 -14 6t-6 14v510q0 8 6 14t14 6h48q8 0 14 -6t6 -14v-212h265v212q0 8 6 14t14 6h48q8 0 14 -6t6 -14v-510z"/>
<glyph glyph-name="afii10080" horiz-adv-x="545" unicode="о" d="M407 237v76q0 167 -135 167q-134 0 -134 -167v-76q0 -167 134 -167q68 0 101.5 43.5t33.5 123.5zM495 237q0 -113 -57.5 -178.5t-165.5 -65.5t-165 65.5t-57 178.5v76q0 113 57 178.5t165 65.5t165.5 -65.5t57.5 -178.5v-76z"/>
<glyph glyph-name="afii10081" horiz-adv-x="577" unicode="п" d="M509 436v-416q0 -8 -6 -14t-14 -6h-48q-8 0 -14 6t-6 14v416q0 22 -7.5 30t-30.5 8h-189q-22 0 -30 -8t-8 -30v-416q0 -8 -6 -14t-14 -6h-48q-8 0 -14 6t-6 14v416q0 33 9.5 55.5t21 34t32 17t32 6.5t31.5 1h189q20 0 31.5 -1t32 -6.5t32 -17t21 -34t9.5 -55.5z"/>
<glyph glyph-name="afii10082" horiz-adv-x="541" unicode="р" d="M403 238v72q0 84 -29.5 128.5t-100.5 44.5q-61 0 -117 -10v-396q55 -10 117 -10q70 0 100 43t30 128zM491 238q0 -119 -55 -182t-163 -63q-56 0 -117 11v-181q0 -8 -5.5 -13.5t-13.5 -5.5h-51q-8 0 -13 5.5t-5 13.5v688q0 10 4 15t17 8q94 23 184 23q109 0 163.5 -65.5 t54.5 -181.5v-72z"/>
<glyph glyph-name="afii10083" horiz-adv-x="452" unicode="с" d="M408 26q0 -18 -20 -22q-60 -11 -125 -11q-101 0 -157 65.5t-56 177.5v78q0 112 56 177.5t157 65.5q65 0 125 -11q12 -2 16 -6.5t4 -15.5v-36q0 -17 -21 -15q-62 7 -124 7q-125 0 -125 -166v-78q0 -166 125 -166q62 0 124 7q21 2 21 -15v-36z"/>
<glyph glyph-name="afii10084" horiz-adv-x="528" unicode="т" d="M493 497q0 -8 -6 -14t-14 -6h-165v-457q0 -8 -6 -14t-14 -6h-48q-8 0 -14 6t-6 14v457h-165q-8 0 -14 6t-6 14v33q0 8 6 14t14 6h418q8 0 14 -6t6 -14v-33z"/>
<glyph glyph-name="afii10085" horiz-adv-x="534" unicode="у" d="M494 526l-165 -576q-24 -84 -61.5 -116t-121.5 -32q-46 0 -84 9q-21 5 -21 16v37q0 16 19 16h3q66 -6 89 -6q44 0 65.5 17t33.5 68l10 41h-14q-27 0 -44.5 13.5t-29.5 55.5l-133 457q-1 3 -1 8q0 16 18 16h55q13 0 17 -16l118 -434q5 -22 19 -22h16l122 457q4 15 19 15 h56q16 0 16 -17q0 -5 -1 -7z"/>
<glyph glyph-name="afii10086" horiz-adv-x="830" unicode="ф" d="M268 67q42 0 103 7v404q-45 5 -95 5q-76 0 -107 -44t-31 -129v-72q0 -85 30 -128t100 -43zM554 483q-52 0 -95 -5v-404q59 -7 103 -7q70 0 100 43t30 128v72q0 85 -31 129t-107 44zM459 732v-180q43 5 93 5q228 0 228 -247v-72q0 -119 -55 -182t-163 -63q-33 0 -103 8 v-178q0 -8 -5.5 -13.5t-13.5 -5.5h-51q-8 0 -13 5.5t-5 13.5v178q-72 -8 -103 -8q-108 0 -163 63t-55 182v72q0 247 228 247q50 0 93 -5v180q0 8 6 14t14 6h48q8 0 14 -6t6 -14z"/>
<glyph glyph-name="afii10087" horiz-adv-x="547" unicode="х" d="M507 23q4 -5 4 -12q0 -11 -13 -11h-69q-9 0 -14 8l-143 209l-143 -207q-7 -10 -17 -10h-60q-12 0 -12 10q0 5 5 13l180 257l-170 245q-5 8 -5 13q0 12 15 12h65q11 0 20 -14l127 -188l128 188q10 14 21 14h58q13 0 13 -12q0 -5 -5 -13l-168 -239z"/>
<glyph glyph-name="afii10088" horiz-adv-x="584" unicode="ц" d="M421 114v416q0 8 6 14t14 6h48q8 0 14 -6t6 -14v-417q0 -20 -4 -37h39q8 0 14 -5.5t6 -13.5v-146q0 -8 -6 -14t-14 -6h-47q-8 0 -14 6t-6 14v89h-283q-20 0 -31.5 1t-32 6.5t-32 17t-21 34t-9.5 55.5v416q0 8 6 14t14 6h48q8 0 14 -6t6 -14v-416q0 -22 8 -30t30 -8h189 q23 0 30.5 8t7.5 30z"/>
<glyph glyph-name="afii10089" horiz-adv-x="540" unicode="ч" d="M472 20q0 -8 -6 -14t-14 -6h-48q-8 0 -14 6t-6 14v205q-76 -13 -146 -13q-43 0 -75 7t-60 23.5t-43 49.5t-15 80v158q0 8 6 14t14 6h48q8 0 14 -6t6 -14v-158q0 -52 26 -70.5t97 -18.5q66 0 128 11v236q0 8 6 14t14 6h48q8 0 14 -6t6 -14v-510z"/>
<glyph glyph-name="afii10090" horiz-adv-x="810" unicode="ш" d="M742 530v-416q0 -33 -9.5 -55.5t-21 -34t-32 -17t-32 -6.5t-31.5 -1h-422q-20 0 -31.5 1t-32 6.5t-32 17t-21 34t-9.5 55.5v416q0 8 6 14t14 6h48q8 0 14 -6t6 -14v-416q0 -22 8 -30t30 -8h167v454q0 8 6 14t14 6h48q8 0 14 -6t6 -14v-454h167q22 0 30 8t8 30v416 q0 8 6 14t14 6h48q8 0 14 -6t6 -14z"/>
<glyph glyph-name="afii10091" horiz-adv-x="822" unicode="щ" d="M742 530v-417q0 -25 -4 -37h39q8 0 14 -5.5t6 -13.5v-146q0 -8 -6 -14t-14 -6h-47q-8 0 -14 6t-6 14v89h-516q-20 0 -31.5 1t-32 6.5t-32 17t-21 34t-9.5 55.5v416q0 8 6 14t14 6h48q8 0 14 -6t6 -14v-416q0 -22 8 -30t30 -8h167v454q0 8 6 14t14 6h48q8 0 14 -6t6 -14 v-454h167q22 0 30 8t8 30v416q0 8 6 14t14 6h48q8 0 14 -6t6 -14z"/>
<glyph glyph-name="afii10092" horiz-adv-x="595" unicode="ъ" d="M466 161v8q0 49 -41.5 70.5t-125.5 21.5q-4 0 -91 -3v-186q87 -3 91 -3q84 0 125.5 21.5t41.5 70.5zM555 161q0 -168 -253 -168q-104 0 -153 6q-29 4 -29 28v447h-85q-8 0 -14 6t-6 14v36q0 8 6 14t14 6h153q8 0 14 -6t6 -14v-195q58 2 94 2q253 0 253 -168v-8z"/>
<glyph glyph-name="afii10093" horiz-adv-x="747" unicode="ы" d="M414 161v8q0 49 -41.5 70.5t-125.5 21.5q-4 0 -91 -3v-186q87 -3 91 -3q84 0 125.5 21.5t41.5 70.5zM503 161q0 -168 -253 -168q-104 0 -153 6q-29 4 -29 28v503q0 8 6 14t14 6h48q8 0 14 -6t6 -14v-195q58 2 94 2q253 0 253 -168v-8zM669 20q0 -8 -6 -14t-14 -6h-48 q-8 0 -14 6t-6 14v510q0 8 6 14t14 6h48q8 0 14 -6t6 -14v-510z"/>
<glyph glyph-name="afii10094" horiz-adv-x="543" unicode="ь" d="M414 161v8q0 49 -41.5 70.5t-125.5 21.5q-4 0 -91 -3v-186q87 -3 91 -3q84 0 125.5 21.5t41.5 70.5zM503 161q0 -168 -253 -168q-104 0 -153 6q-29 4 -29 28v503q0 8 6 14t14 6h48q8 0 14 -6t6 -14v-195q58 2 94 2q253 0 253 -168v-8z"/>
<glyph glyph-name="afii10095" horiz-adv-x="452" unicode="э" d="M44 26v36q0 16 21 15q79 -7 117 -7q132 0 132 166v6h-207q-8 0 -14 6t-6 14v35q0 8 6 14t14 6h207q-1 163 -132 163q-55 0 -117 -7q-21 -2 -21 15v36q0 11 4 15.5t16 6.5q60 11 125 11q105 0 159 -64.5t54 -178.5v-78q0 -113 -54.5 -178t-158.5 -65q-65 0 -125 11 q-20 4 -20 22z"/>
<glyph glyph-name="afii10096" horiz-adv-x="772" unicode="ю" d="M634 237v76q0 167 -135 167q-134 0 -134 -167v-76q0 -167 134 -167q68 0 101.5 43.5t33.5 123.5zM722 237q0 -113 -57.5 -178.5t-165.5 -65.5t-165 65.5t-57 178.5v7h-121v-224q0 -8 -6 -14t-14 -6h-48q-8 0 -14 6t-6 14v510q0 8 6 14t14 6h48q8 0 14 -6t6 -14v-213h121 q1 111 58 175.5t164 64.5q108 0 165.5 -65.5t57.5 -178.5v-76z"/>
<glyph glyph-name="afii10097" horiz-adv-x="530" unicode="я" d="M374 296v187q-22 2 -72 2q-82 0 -119.5 -20.5t-37.5 -70.5v-5q0 -54 37.5 -74.5t119.5 -20.5q8 0 17.5 0.5t25.5 1t29 0.5zM462 20q0 -8 -6 -14t-14 -6h-48q-8 0 -14 6t-6 14v205q-18 0 -37.5 -1t-34.5 -1h-20l-149 -211q-9 -12 -26 -12h-55q-16 0 -16 15q0 5 3 9 l151 209q-61 14 -96 54.5t-35 101.5v5q0 163 243 163q80 0 135 -6q25 -3 25 -21v-510z"/>
<glyph glyph-name="uni0450" horiz-adv-x="544" unicode="ѐ" d="M358 630q0 -7 -9 -7h-54q-9 0 -23 15l-113 126q-4 4 -4 8q0 7 11 7h66q13 0 25 -15l97 -124q4 -4 4 -10zM403 314v9q0 83 -32 120t-99 37q-134 0 -134 -157v-9h265zM492 269q0 -22 -19 -22h-335v-14q0 -87 34 -125t105 -38q106 0 178 11h5q16 0 16 -14v-34q0 -19 -20 -23 q-88 -17 -179 -17q-46 0 -84.5 12t-71.5 38t-52 74.5t-19 115.5v90q0 109 58 171.5t164 62.5q107 0 163.5 -62.5t56.5 -171.5v-54z"/>
<glyph glyph-name="afii10071" horiz-adv-x="544" unicode="ё" d="M403 314v9q0 83 -32 120t-99 37q-134 0 -134 -157v-9h265zM492 269q0 -22 -19 -22h-335v-14q0 -87 34 -125t105 -38q106 0 178 11q21 4 21 -14v-34q0 -19 -20 -23q-88 -17 -179 -17q-46 0 -84.5 12t-71.5 38t-52 74.5t-19 115.5v90q0 109 58 171.5t164 62.5 q107 0 163.5 -62.5t56.5 -171.5v-54zM228 660q0 -8 -6 -13.5t-14 -5.5h-39q-8 0 -14 5.5t-6 13.5v81q0 7 6.5 13.5t13.5 6.5h39q8 0 14 -6.5t6 -13.5v-81zM403 660q0 -8 -6 -13.5t-14 -5.5h-39q-8 0 -14 5.5t-6 13.5v81q0 7 6 13.5t14 6.5h39q7 0 13.5 -6.5t6.5 -13.5v-81z "/>
<glyph glyph-name="afii10099" horiz-adv-x="557" unicode="ђ" d="M489 24q0 -110 -23 -152q-39 -70 -142 -70q-8 0 -54 4q-20 2 -20 20v30q0 20 18 20h2q9 0 22.5 -1t21.5 -1q33 0 50 8t25 28q12 31 12 114v325q0 71 -27.5 101t-79.5 30q-76 0 -138 -28v-432q0 -8 -6 -14t-14 -6h-49q-8 0 -13.5 6t-5.5 14v601h-55q-8 0 -14 6t-6 14v22 q0 8 6 14t14 6h55v49q0 8 5.5 14t13.5 6h50q8 0 13.5 -6t5.5 -14v-49h133q8 0 14 -6t6 -14v-22q0 -8 -6 -14t-14 -6h-133v-95q71 31 153 31q84 0 132 -51t48 -157v-325z"/>
<glyph glyph-name="afii10100" horiz-adv-x="414" unicode="ѓ" d="M369 474h-175q-22 0 -30 -8t-8 -30v-416q0 -8 -6 -14t-14 -6h-48q-8 0 -14 6t-6 14v416q0 33 9.5 55.5t21 34t32 17t32 6.5t31.5 1h175q8 0 14 -6t6 -14v-36q0 -8 -6 -14t-14 -6zM367 764l-113 -126q-14 -15 -23 -15h-54q-9 0 -9 7q0 5 4 10l98 124q12 15 24 15h66 q11 0 11 -7q0 -4 -4 -8z"/>
<glyph glyph-name="afii10101" horiz-adv-x="452" unicode="є" d="M408 26q0 -18 -20 -22q-60 -11 -125 -11q-104 0 -158.5 65t-54.5 178v78q0 114 54 178.5t159 64.5q65 0 125 -11q12 -2 16 -6.5t4 -15.5v-36q0 -17 -21 -15q-62 7 -117 7q-131 0 -132 -163h207q8 0 14 -6t6 -14v-35q0 -8 -6 -14t-14 -6h-207v-6q0 -166 132 -166 q55 0 117 7q21 2 21 -15v-36z"/>
<glyph glyph-name="afii10102" horiz-adv-x="466" unicode="ѕ" d="M416 138q0 -74 -49.5 -109.5t-137.5 -35.5q-97 0 -158 15q-21 5 -21 20v35q0 8 6.5 12t15.5 3q88 -11 157 -11q51 0 75 16t24 55q0 22 -16 39.5t-59 43.5l-101 60q-102 62 -102 143q0 133 181 133q80 0 156 -13q19 -3 19 -20v-33q0 -19 -20 -17q-93 8 -155 8 q-48 0 -70.5 -11.5t-22.5 -46.5q0 -21 16 -37.5t53 -38.5l99 -59q61 -36 85.5 -71t24.5 -80z"/>
<glyph glyph-name="afii10103" horiz-adv-x="247" unicode="і" d="M167 20q0 -8 -6 -14t-14 -6h-48q-8 0 -14 6t-6 14v510q0 8 6 14t14 6h48q8 0 14 -6t6 -14v-510zM169 658q0 -8 -6 -14t-14 -6h-51q-8 0 -14 6t-6 14v80q0 8 6 14t14 6h51q8 0 14 -6t6 -14v-80z"/>
<glyph glyph-name="afii10104" horiz-adv-x="247" unicode="ї" d="M167 20q0 -8 -6 -14t-14 -6h-48q-8 0 -14 6t-6 14v510q0 8 6 14t14 6h48q8 0 14 -6t6 -14v-510zM75 660q0 -8 -6 -13.5t-14 -5.5h-39q-8 0 -14 5.5t-6 13.5v81q0 7 6 13.5t14 6.5h39q7 0 13.5 -6.5t6.5 -13.5v-81zM250 660q0 -8 -6 -13.5t-14 -5.5h-39q-8 0 -14 5.5 t-6 13.5v81q0 7 6.5 13.5t13.5 6.5h39q8 0 14 -6.5t6 -13.5v-81z"/>
<glyph glyph-name="afii10105" horiz-adv-x="247" unicode="ј" d="M167 -64q0 -75 -30.5 -104t-94.5 -29q-27 0 -54 4q-18 3 -18 16v37q0 14 21 14h41q28 0 37.5 12t9.5 50v594q0 8 5 14t13 6h52q18 0 18 -20v-594zM169 657q0 -8 -6 -13.5t-14 -5.5h-51q-8 0 -14 5.5t-6 13.5v81q0 8 6 14t14 6h51q8 0 14 -6t6 -14v-81z"/>
<glyph glyph-name="afii10106" horiz-adv-x="817" unicode="љ" d="M263 550h147q8 0 14 -6t6 -14v-195q58 2 94 2q253 0 253 -168v-8q0 -168 -253 -168q-83 0 -162 7q-20 2 -20 20v451h-79q-15 0 -20 -18l-119 -438q-4 -15 -18 -15h-59q-17 0 -17 16q0 5 1 7l130 451q21 76 102 76zM688 161v8q0 49 -41.5 70.5t-125.5 21.5q-4 0 -91 -3 v-186q87 -3 91 -3q84 0 125.5 21.5t41.5 70.5z"/>
<glyph glyph-name="afii10107" horiz-adv-x="875" unicode="њ" d="M746 161v8q0 49 -41.5 70.5t-125.5 21.5q-4 0 -91 -3v-186q87 -3 91 -3q84 0 125.5 21.5t41.5 70.5zM835 161q0 -168 -253 -168q-104 0 -153 6q-29 4 -29 28v217h-244v-224q0 -8 -6 -14t-14 -6h-48q-8 0 -14 6t-6 14v510q0 8 6 14t14 6h48q8 0 14 -6t6 -14v-213h244v213 q0 8 6 14t14 6h48q8 0 14 -6t6 -14v-195q58 2 94 2q253 0 253 -168v-8z"/>
<glyph glyph-name="afii10108" horiz-adv-x="557" unicode="ћ" d="M489 20q0 -8 -6 -14t-14 -6h-48q-8 0 -14 6t-6 14v329q0 71 -27.5 101t-79.5 30q-76 0 -138 -28v-432q0 -8 -6 -14t-14 -6h-49q-8 0 -13.5 6t-5.5 14v601h-55q-8 0 -14 6t-6 14v22q0 8 6 14t14 6h55v49q0 8 5.5 14t13.5 6h50q8 0 13.5 -6t5.5 -14v-49h133q8 0 14 -6 t6 -14v-22q0 -8 -6 -14t-14 -6h-133v-95q71 31 153 31q84 0 132 -51t48 -157v-329z"/>
<glyph glyph-name="afii10109" horiz-adv-x="496" unicode="ќ" d="M461 13q0 -13 -11 -13h-72q-13 0 -23 13l-199 246v-239q0 -8 -6 -14t-14 -6h-48q-8 0 -14 6t-6 14v510q0 8 6 14t14 6h48q8 0 14 -6t6 -14v-214l200 225q8 9 20 9h70q15 0 15 -11q0 -6 -5 -11l-220 -238l222 -268q3 -3 3 -9zM387 764l-113 -126q-14 -15 -23 -15h-54 q-9 0 -9 7q0 5 4 10l98 124q12 15 24 15h66q11 0 11 -7q0 -4 -4 -8z"/>
<glyph glyph-name="uni045D" horiz-adv-x="577" unicode="ѝ" d="M358 630q0 -7 -9 -7h-54q-9 0 -23 15l-113 126q-4 4 -4 8q0 7 11 7h66q13 0 25 -15l97 -124q4 -4 4 -10zM68 29v502q0 19 18 19h52q18 0 18 -19v-392q0 -2 1 -2.5t2 1.5l227 392q8 13 16 16.5t25 3.5h58q14 0 19 -6t5 -22v-502q0 -20 -18 -20h-52q-8 0 -13 5.5t-5 13.5 v390q0 7 -4 1l-226 -394q-9 -16 -32 -16h-62q-12 0 -20.5 8.5t-8.5 20.5z"/>
<glyph glyph-name="afii10110" horiz-adv-x="534" unicode="ў" d="M494 526l-165 -576q-24 -84 -61.5 -116t-121.5 -32q-46 0 -84 9q-21 5 -21 16v37q0 16 19 16h3q66 -6 89 -6q44 0 65.5 17t33.5 68l10 41h-14q-27 0 -44.5 13.5t-29.5 55.5l-133 457q-1 3 -1 8q0 16 18 16h55q13 0 17 -16l118 -434q5 -22 19 -22h16l122 457q4 15 19 15 h56q16 0 16 -17q0 -5 -1 -7zM267 621q-63 0 -110.5 37.5t-52.5 103.5v4q0 13 11 13h37q14 0 15 -16q4 -38 33 -59t67 -21t67 21t33 59q1 16 15 16h37q11 0 11 -13q0 -67 -50 -106t-113 -39z"/>
<glyph glyph-name="afii10193" horiz-adv-x="577" unicode="џ" d="M509 530v-416q0 -33 -9.5 -55.5t-21 -34t-32 -17t-32 -6.5t-31.5 -1h-51v-89q0 -8 -6 -14t-14 -6h-47q-8 0 -14 6t-6 14v89h-51q-20 0 -31.5 1t-32 6.5t-32 17t-21 34t-9.5 55.5v416q0 8 6 14t14 6h48q8 0 14 -6t6 -14v-416q0 -22 8 -30t30 -8h189q23 0 30.5 8t7.5 30 v416q0 8 6 14t14 6h48q8 0 14 -6t6 -14z"/>
<glyph glyph-name="afii10050" horiz-adv-x="526" unicode="Ґ" d="M496 805v-125q0 -12 -11 -12h-193q-76 0 -99.5 -22t-23.5 -82v-544q0 -8 -6 -14t-14 -6h-51q-8 0 -14 6t-6 14v544q0 98 53 142t160 44q37 0 115 -2v57q0 19 18 19h54q8 0 13 -5.5t5 -13.5z"/>
<glyph glyph-name="afii10098" horiz-adv-x="414" unicode="ґ" d="M389 494q0 -8 -6 -14t-14 -6h-175q-22 0 -30 -8t-8 -30v-416q0 -8 -6 -14t-14 -6h-48q-8 0 -14 6t-6 14v416q0 33 9.5 55.5t21 34t32 17t32 6.5t31.5 1h107v62q0 8 6 14t14 6h48q8 0 14 -6t6 -14v-118z"/>
<glyph glyph-name="uni04B0" horiz-adv-x="583" unicode="Ұ" d="M246 20v134h-130q-8 0 -14 6t-6 14v38q0 8 6 14t14 6h130v72q-29 11 -54 66l-154 348q-3 6 -3 11q0 14 17 14h61q12 0 18 -14l138 -324q11 -26 23 -26t23 26l139 324q6 14 17 14h61q17 0 17 -14q0 -5 -3 -11l-155 -348q-24 -52 -54 -66v-72h130q8 0 14 -6t6 -14v-38 q0 -8 -6 -14t-14 -6h-130v-134q0 -8 -5.5 -14t-12.5 -6h-55q-7 0 -12.5 6t-5.5 14z"/>
<glyph glyph-name="uni04B1" horiz-adv-x="530" unicode="ұ" d="M309 -107v-70q0 -8 -5 -14t-13 -6h-52q-7 0 -12.5 6t-5.5 14v70h-131q-8 0 -14 6t-6 14v38q0 8 6 14t14 6h131v28q-35 11 -46 51l-135 476q-1 3 -1 7q0 17 16 17h55q13 0 19 -19l115 -436q7 -29 21 -29t21 29l115 436q6 19 19 19h55q16 0 16 -17q0 -4 -1 -7l-135 -476 q-11 -39 -46 -51v-28h131q8 0 14 -6t6 -14v-38q0 -8 -6 -14t-14 -6h-131z"/>
<glyph glyph-name="Wgrave" horiz-adv-x="825" unicode="Ẁ" d="M484 801q0 -7 -9 -7h-54q-9 0 -23 15l-113 126q-4 4 -4 8q0 7 11 7h66q13 0 25 -15l97 -124q4 -4 4 -10zM791 726v-3l-111 -676q-9 -51 -62 -51h-43q-21 0 -36 13.5t-21 36.5l-98 370q-2 9 -6 9h-1h-1q-4 0 -6 -9l-99 -370q-6 -23 -21 -36.5t-36 -13.5h-42q-53 0 -62 51 l-111 676v3q0 17 17 17h58q14 0 17 -17l97 -637q3 -15 5 -15q4 0 7 15l98 370q10 40 47 40h64q37 0 47 -40l98 -370q3 -15 7 -15q2 0 5 15l97 637q3 17 17 17h58q17 0 17 -17z"/>
<glyph glyph-name="wgrave" horiz-adv-x="786" unicode="ẁ" d="M464 630q0 -7 -9 -7h-54q-9 0 -23 15l-113 126q-4 4 -4 8q0 7 11 7h66q13 0 25 -15l97 -124q4 -4 4 -10zM748 530v-4l-97 -464q-10 -46 -24 -57.5t-60 -11.5q-40 0 -55 13t-27 59l-87 340q-2 7 -5 7t-5 -7l-87 -340q-11 -44 -27 -58t-55 -14q-46 0 -60 11.5t-24 57.5 l-97 464v4q0 8 5.5 14t13.5 6h54q15 0 17 -16l83 -456q2 -12 8 -12q5 0 8 12l98 384q8 30 40 30h56q32 0 40 -30l98 -384q3 -12 8 -12q6 0 8 12l83 456q2 16 17 16h54q8 0 13.5 -6t5.5 -14z"/>
<glyph glyph-name="Wacute" horiz-adv-x="825" unicode="Ẃ" d="M559 944q0 -4 -4 -8l-113 -126q-14 -15 -23 -15h-54q-9 0 -9 7q0 6 4 10l98 124q12 15 24 15h66q11 0 11 -7zM791 726v-3l-111 -676q-9 -51 -62 -51h-43q-21 0 -36 13.5t-21 36.5l-98 370q-2 9 -6 9h-1h-1q-4 0 -6 -9l-99 -370q-6 -23 -21 -36.5t-36 -13.5h-42 q-53 0 -62 51l-111 676v3q0 17 17 17h58q14 0 17 -17l97 -637q3 -15 5 -15q4 0 7 15l98 370q10 40 47 40h64q37 0 47 -40l98 -370q3 -15 7 -15q2 0 5 15l97 637q3 17 17 17h58q17 0 17 -17z"/>
<glyph glyph-name="wacute" horiz-adv-x="786" unicode="ẃ" d="M542 772q0 -4 -4 -8l-113 -126q-13 -15 -23 -15h-54q-9 0 -9 7q0 6 4 10l98 124q12 15 24 15h66q11 0 11 -7zM748 530v-4l-97 -464q-10 -46 -24 -57.5t-60 -11.5q-40 0 -55 13t-27 59l-87 340q-2 7 -5 7t-5 -7l-87 -340q-11 -44 -27 -58t-55 -14q-46 0 -60 11.5t-24 57.5 l-97 464v4q0 8 5.5 14t13.5 6h54q15 0 17 -16l83 -456q2 -12 8 -12q5 0 8 12l98 384q8 30 40 30h56q32 0 40 -30l98 -384q3 -12 8 -12q6 0 8 12l83 456q2 16 17 16h54q8 0 13.5 -6t5.5 -14z"/>
<glyph glyph-name="Wdieresis" horiz-adv-x="825" unicode="Ẅ" d="M364 813q0 -8 -6 -13.5t-14 -5.5h-39q-8 0 -14 5.5t-6 13.5v81q0 8 6.5 14t13.5 6h39q8 0 14 -6t6 -14v-81zM539 813q0 -8 -6 -13.5t-14 -5.5h-39q-8 0 -14 5.5t-6 13.5v81q0 8 6 14t14 6h39q7 0 13.5 -6t6.5 -14v-81zM791 726v-3l-111 -676q-9 -51 -62 -51h-43 q-21 0 -36 13.5t-21 36.5l-98 370q-2 9 -6 9h-1h-1q-4 0 -6 -9l-99 -370q-6 -23 -21 -36.5t-36 -13.5h-42q-53 0 -62 51l-111 676v3q0 17 17 17h58q14 0 17 -17l97 -637q3 -15 5 -15q4 0 7 15l98 370q10 40 47 40h64q37 0 47 -40l98 -370q3 -15 7 -15q2 0 5 15l97 637 q3 17 17 17h58q17 0 17 -17z"/>
<glyph glyph-name="wdieresis" horiz-adv-x="786" unicode="ẅ" d="M345 660q0 -8 -6 -13.5t-14 -5.5h-39q-8 0 -14 5.5t-6 13.5v81q0 7 6 13.5t14 6.5h39q7 0 13.5 -6.5t6.5 -13.5v-81zM520 660q0 -8 -6 -13.5t-14 -5.5h-39q-8 0 -14 5.5t-6 13.5v81q0 7 6.5 13.5t13.5 6.5h39q8 0 14 -6.5t6 -13.5v-81zM748 530v-4l-97 -464 q-10 -46 -24 -57.5t-60 -11.5q-40 0 -55 13t-27 59l-87 340q-2 7 -5 7t-5 -7l-87 -340q-11 -44 -27 -58t-55 -14q-46 0 -60 11.5t-24 57.5l-97 464v4q0 8 5.5 14t13.5 6h54q15 0 17 -16l83 -456q2 -12 8 -12q5 0 8 12l98 384q8 30 40 30h56q32 0 40 -30l98 -384q3 -12 8 -12 q6 0 8 12l83 456q2 16 17 16h54q8 0 13.5 -6t5.5 -14z"/>
<glyph glyph-name="Ygrave" horiz-adv-x="583" unicode="Ỳ" d="M356 801q0 -7 -9 -7h-54q-9 0 -23 15l-113 126q-4 4 -4 8q0 7 11 7h66q13 0 25 -15l97 -124q4 -4 4 -10zM549 729q0 -5 -3 -11l-155 -348q-24 -52 -54 -66v-284q0 -8 -5.5 -14t-12.5 -6h-55q-7 0 -12.5 6t-5.5 14v284q-29 11 -54 66l-154 348q-3 6 -3 11q0 14 17 14h61 q12 0 18 -14l138 -324q11 -26 23 -26t23 26l139 324q6 14 17 14h61q17 0 17 -14z"/>
<glyph glyph-name="ygrave" horiz-adv-x="534" unicode="ỳ" d="M336 630q0 -7 -9 -7h-54q-9 0 -23 15l-113 126q-4 4 -4 8q0 7 11 7h66q13 0 25 -15l97 -124q4 -4 4 -10zM495 533q0 -5 -1 -7l-165 -576q-24 -84 -61.5 -116t-121.5 -32q-46 0 -84 9q-21 5 -21 16v37q0 16 19 16h3q66 -6 89 -6q44 0 65.5 17t33.5 68l10 41h-14 q-27 0 -44.5 13.5t-29.5 55.5l-133 457q-1 2 -1 7q0 17 18 17h55q13 0 17 -16l118 -434q5 -22 19 -22h16l122 457q4 15 19 15h56q16 0 16 -17z"/>
<glyph glyph-name="endash" horiz-adv-x="310" unicode="–" d="M325 263q0 -17 -19 -17h-302q-19 0 -19 17v39q0 8 5.5 13t13.5 5h302q8 0 13.5 -5t5.5 -13v-39z"/>
<glyph glyph-name="emdash" horiz-adv-x="600" unicode="—" d="M615 263q0 -17 -19 -17h-592q-19 0 -19 17v39q0 8 5.5 13t13.5 5h592q8 0 13.5 -5t5.5 -13v-39z"/>
<glyph glyph-name="quoteleft" horiz-adv-x="186" unicode="‘" d="M157 742q0 -6 -1 -9l-37 -189q-4 -19 -20 -19h-59q-11 0 -11 11q0 5 1 8l61 189q5 19 19 19h38q9 0 9 -10z"/>
<glyph glyph-name="quoteright" horiz-adv-x="186" unicode="’" d="M157 741q0 -5 -1 -8l-61 -189q-5 -19 -19 -19h-38q-9 0 -9 10q0 6 1 9l37 189q4 19 20 19h59q11 0 11 -11z"/>
<glyph glyph-name="quotesinglbase" horiz-adv-x="186" unicode="‚" d="M169 118q0 -2 -2 -8l-75 -189q-7 -19 -19 -19h-41q-12 0 -12 12q0 5 1 7l57 189q6 19 20 19h58q13 0 13 -11z"/>
<glyph glyph-name="quotedblleft" horiz-adv-x="336" unicode="“" d="M157 742q0 -6 -1 -9l-37 -189q-4 -19 -20 -19h-59q-11 0 -11 11q0 5 1 8l61 189q5 19 19 19h38q9 0 9 -10zM307 742q0 -6 -1 -9l-37 -189q-4 -19 -20 -19h-59q-11 0 -11 11q0 5 1 8l61 189q5 19 19 19h38q9 0 9 -10z"/>
<glyph glyph-name="quotedblright" horiz-adv-x="336" unicode="”" d="M157 741q0 -5 -1 -8l-61 -189q-5 -19 -19 -19h-38q-9 0 -9 10q0 6 1 9l37 189q4 19 20 19h59q11 0 11 -11zM307 741q0 -5 -1 -8l-61 -189q-5 -19 -19 -19h-38q-9 0 -9 10q0 6 1 9l37 189q4 19 20 19h59q11 0 11 -11z"/>
<glyph glyph-name="quotedblbase" horiz-adv-x="336" unicode="„" d="M169 118q0 -2 -2 -8l-75 -189q-7 -19 -19 -19h-41q-12 0 -12 12q0 5 1 7l57 189q6 19 20 19h58q13 0 13 -11zM349 118q0 -2 -2 -8l-75 -189q-7 -19 -19 -19h-41q-12 0 -12 12q0 5 1 7l57 189q6 19 20 19h58q13 0 13 -11z"/>
<glyph glyph-name="bullet" horiz-adv-x="418" unicode="•" d="M368 367q0 -66 -46.5 -112.5t-112.5 -46.5t-112.5 46.5t-46.5 112.5t46.5 112.5t112.5 46.5t112.5 -46.5t46.5 -112.5z"/>
<glyph glyph-name="guilsinglleft" horiz-adv-x="354" unicode="‹" d="M300 79q0 -9 -11 -9h-58q-11 0 -21 10l-169 169q-11 11 -11 28t11 28l169 169q10 10 21 10h58q11 0 11 -9q0 -7 -6 -13l-178 -185l178 -185q6 -6 6 -13z"/>
<glyph glyph-name="guilsinglright" horiz-adv-x="354" unicode="›" d="M324 277q0 -17 -11 -28l-169 -169q-10 -10 -21 -10h-58q-11 0 -11 9q0 7 6 13l178 185l-178 185q-6 6 -6 13q0 9 11 9h58q11 0 21 -10l169 -169q11 -11 11 -28z"/>
<glyph glyph-name="fraction" horiz-adv-x="255" unicode="⁄" d="M369 743q11 0 11 -7q0 -5 -5 -12l-418 -708q-11 -20 -22 -20h-47q-11 0 -11 9q0 5 3 11l421 713q6 10 9 12t11 2h48z"/>
<glyph glyph-name="zero.superior" horiz-adv-x="333" unicode="⁰" d="M241 709v72q0 119 -74 119q-75 0 -75 -119v-72q0 -117 75 -117q74 0 74 117zM306 709q0 -175 -139 -175q-141 0 -141 175v72q0 176 141 176q139 0 139 -176v-72z"/>
<glyph glyph-name="four.superior" horiz-adv-x="333" unicode="⁴" d="M195 701v162l-113 -162h113zM317 662q0 -17 -19 -17h-38v-88q0 -7 -5 -13t-13 -6h-31q-17 0 -17 19v88h-147q-17 0 -24 6t-7 22v20q0 15 8 26l162 224q6 11 20 11h31q23 0 23 -20v-233h38q8 0 13.5 -5t5.5 -12v-22z"/>
<glyph glyph-name="five.superior" horiz-adv-x="333" unicode="⁵" d="M295 667q0 -63 -38 -98t-107 -35q-57 0 -96 10q-16 5 -16 18v20q0 17 19 17q47 -8 93 -8q81 0 81 76v9q0 35 -24.5 49t-80.5 14h-65q-6 0 -11 6t-5 13l14 179q3 17 19 17h186q18 0 18 -18v-24q0 -16 -18 -16h-148l-7 -100h17q84 0 126.5 -27t42.5 -93v-9z"/>
<glyph glyph-name="six.superior" horiz-adv-x="333" unicode="⁶" d="M241 678v4q0 66 -75 66q-43 0 -73 -8v-46q0 -58 18 -81t55 -23q75 0 75 88zM305 678q0 -69 -35 -106.5t-104 -37.5q-65 0 -101.5 40t-36.5 120v95q0 89 37 128.5t112 39.5q54 0 94 -9q18 -4 18 -18v-21q0 -16 -13 -16q-4 0 -18 2q-63 6 -81 6q-52 0 -68 -26.5t-16 -81.5 q34 9 73 9q62 0 100.5 -28t38.5 -92v-4z"/>
<glyph glyph-name="seven.superior" horiz-adv-x="333" unicode="⁷" d="M71 562l160 334h-177q-19 0 -19 16v23q0 7 5.5 13t13.5 6h205q39 0 39 -36q0 -21 -8 -38l-156 -333q-4 -9 -17 -9h-36q-13 0 -13 12q0 6 3 12z"/>
<glyph glyph-name="eight.superior" horiz-adv-x="333" unicode="⁸" d="M244 838v5q0 59 -75 59h-5q-74 0 -74 -59v-5q0 -24 14.5 -40.5t45.5 -16.5h34q30 0 45 16.5t15 40.5zM243 657v10q0 24 -14.5 42.5t-44.5 18.5h-34q-30 0 -45 -18.5t-15 -42.5v-10q0 -66 74 -66h5q74 0 74 66zM308 657q0 -60 -39.5 -91.5t-99.5 -31.5h-5q-60 0 -99.5 32 t-39.5 91v10q0 24 12 48t33 39q-44 33 -44 84v5q0 57 38 85.5t100 28.5h5q63 0 100.5 -28.5t37.5 -85.5v-5q0 -53 -44 -84q45 -31 45 -87v-10z"/>
<glyph glyph-name="nine.superior" horiz-adv-x="333" unicode="⁹" d="M93 814v-4q0 -66 75 -66q43 0 73 8v46q0 58 -18 81t-55 23q-75 0 -75 -88zM29 814q0 69 35 106.5t104 37.5q65 0 101.5 -40t36.5 -120v-95q0 -89 -37 -128.5t-112 -39.5q-54 0 -94 9q-18 4 -18 18v21q0 16 13 16q4 0 18 -2q63 -6 81 -6q52 0 68 26.5t16 81.5 q-34 -9 -73 -9q-62 0 -100.5 28t-38.5 92v4z"/>
<glyph glyph-name="n.superior" horiz-adv-x="326" unicode="ⁿ" d="M286 337q0 -16 -17 -16h-26q-16 0 -16 16v185q0 39 -13.5 54t-43.5 15t-71 -19v-235q0 -6 -5 -11t-11 -5h-27q-16 0 -16 16v287q0 16 16 16h27q16 0 16 -16v-2q41 21 85 21q102 0 102 -121v-185z"/>
<glyph glyph-name="zero.inferior" horiz-adv-x="333" unicode="₀" d="M241 -40v72q0 119 -74 119q-75 0 -75 -119v-72q0 -117 75 -117q74 0 74 117zM306 -40q0 -175 -139 -175q-141 0 -141 175v72q0 176 141 176q139 0 139 -176v-72z"/>
<glyph glyph-name="one.inferior" horiz-adv-x="333" unicode="₁" d="M175 134l-64 -27q-17 -6 -17 13v28q0 10 10 13l80 38q12 6 32 6h6q11 0 14 -4.5t3 -14.5v-378q0 -7 -5 -13t-12 -6h-30q-7 0 -12 5.5t-5 13.5v326z"/>
<glyph glyph-name="two.inferior" horiz-adv-x="333" unicode="₂" d="M294 104q0 -33 -17 -58t-55 -53q-39 -25 -52 -35q-42 -29 -57 -51.5t-15 -55.5v-4h173q18 0 18 -17v-23q0 -8 -5.5 -13t-12.5 -5h-214q-7 0 -12.5 5t-5.5 13v44q0 91 86 148l55 36h-1q33 24 42.5 36t9.5 33q0 48 -73 48q-38 0 -97 -9q-16 0 -16 18v19q0 13 15 18 q40 10 98 10q136 0 136 -104z"/>
<glyph glyph-name="three.inferior" horiz-adv-x="333" unicode="₃" d="M292 -92q0 -63 -38 -93t-104 -30q-38 0 -93 11q-16 4 -16 18v18q0 18 19 18q53 -8 90 -8q40 0 58 15.5t18 50.5v11q0 23 -13 41t-42 18h-98q-17 0 -17 16v20q0 17 17 17h98q55 0 55 57v7q0 30 -17.5 43.5t-58.5 13.5q-20 0 -80 -8q-1 0 -5 -0.5t-7 -0.5q-17 0 -17 18v18 q0 13 15 19q50 10 94 10q142 0 142 -113v-7q0 -56 -43 -84q43 -27 43 -85v-11z"/>
<glyph glyph-name="four.inferior" horiz-adv-x="333" unicode="₄" d="M195 -48v162l-113 -162h113zM317 -87q0 -17 -19 -17h-38v-88q0 -7 -5 -13t-13 -6h-31q-17 0 -17 19v88h-147q-17 0 -24 6t-7 22v20q0 15 8 26l162 224q6 11 20 11h31q23 0 23 -20v-233h38q8 0 13.5 -5t5.5 -12v-22z"/>
<glyph glyph-name="five.inferior" horiz-adv-x="333" unicode="₅" d="M295 -82q0 -63 -38 -98t-107 -35q-57 0 -96 10q-16 5 -16 18v20q0 17 19 17q47 -8 93 -8q81 0 81 76v9q0 35 -24.5 49t-80.5 14h-65q-6 0 -11 6t-5 13l14 179q3 17 19 17h186q18 0 18 -18v-24q0 -16 -18 -16h-148l-7 -100h17q84 0 126.5 -27t42.5 -93v-9z"/>
<glyph glyph-name="six.inferior" horiz-adv-x="333" unicode="₆" d="M241 -71v4q0 66 -75 66q-43 0 -73 -8v-46q0 -58 18 -81t55 -23q75 0 75 88zM305 -71q0 -69 -35 -106.5t-104 -37.5q-65 0 -101.5 40t-36.5 120v95q0 89 37 128.5t112 39.5q54 0 94 -9q18 -4 18 -18v-21q0 -16 -13 -16q-4 0 -18 2q-63 6 -81 6q-52 0 -68 -26.5t-16 -81.5 q34 9 73 9q62 0 100.5 -28t38.5 -92v-4z"/>
<glyph glyph-name="seven.inferior" horiz-adv-x="333" unicode="₇" d="M71 -187l160 334h-177q-19 0 -19 16v23q0 8 5.5 13.5t13.5 5.5h205q39 0 39 -36q0 -21 -8 -38l-156 -333q-4 -9 -17 -9h-36q-13 0 -13 12q0 6 3 12z"/>
<glyph glyph-name="eight.inferior" horiz-adv-x="333" unicode="₈" d="M244 89v5q0 59 -75 59h-5q-74 0 -74 -59v-5q0 -24 14.5 -40.5t45.5 -16.5h34q30 0 45 16.5t15 40.5zM243 -92v10q0 24 -14.5 42.5t-44.5 18.5h-34q-30 0 -45 -18.5t-15 -42.5v-10q0 -66 74 -66h5q74 0 74 66zM308 -92q0 -60 -39.5 -91.5t-99.5 -31.5h-5q-60 0 -99.5 32 t-39.5 91v10q0 24 12 48t33 39q-44 33 -44 84v5q0 57 38 85.5t100 28.5h5q63 0 100.5 -28.5t37.5 -85.5v-5q0 -53 -44 -84q45 -31 45 -87v-10z"/>
<glyph glyph-name="nine.inferior" horiz-adv-x="333" unicode="₉" d="M93 65v-4q0 -66 75 -66q43 0 73 8v46q0 58 -18 81t-55 23q-75 0 -75 -88zM29 65q0 69 35 106.5t104 37.5q65 0 101.5 -40t36.5 -120v-95q0 -89 -37 -128.5t-112 -39.5q-54 0 -94 9q-18 4 -18 18v21q0 16 13 16q4 0 18 -2q63 -6 81 -6q52 0 68 26.5t16 81.5q-34 -9 -73 -9 q-62 0 -100.5 28t-38.5 92v4z"/>
<glyph glyph-name="Euro" d="M554 26q0 -16 -20 -20q-68 -13 -150 -13q-48 0 -92 13.5t-85.5 43t-69 85t-32.5 130.5h-33q-8 0 -14 6t-6 14v28q0 8 6 14t14 6h32v81h-32q-8 0 -14 6t-6 14v28q0 8 6 14t14 6h33q4 61 23.5 108.5t47.5 77t64.5 48.5t71.5 26.5t72 7.5q51 0 152 -16q16 -2 16 -13v-51 q0 -11 -12 -11h-3q-108 9 -152 9q-75 0 -127 -44t-61 -142h290q17 0 17 -16v-2l-1 -2l-7 -28q-5 -20 -20 -20h-281v-81h257q15 0 15 -15l-1 -2v-3l-7 -28q-5 -20 -20 -20h-243q8 -99 60.5 -144.5t128.5 -45.5q53 0 149 8h4q16 0 16 -16v-41z" unicode="€"/>
<glyph glyph-name="uni20B4" horiz-adv-x="550" unicode="₴" d="M60 211h-39q-8 0 -14 6t-6 14v30q0 8 6 14t14 6h58q29 57 128 116l25 15h-211q-8 0 -14 6t-6 14v30q0 8 6 14t14 6h323q54 40 54 91q0 54 -29.5 74.5t-107.5 20.5q-84 0 -172 -6h-2q-17 0 -17 16v43q0 14 17 17q76 12 174 12q229 0 229 -177q0 -53 -22 -91h58q8 0 14 -6 t6 -14v-30q0 -8 -6 -14t-14 -6h-125q-9 -7 -39 -26l-97 -59q-44 -27 -67 -46h328q8 0 14 -6t6 -14v-30q0 -8 -6 -14t-14 -6h-370q-1 -6 -1 -18q0 -59 29 -88.5t113 -29.5q96 0 165 6h3q17 0 17 -16v-40q0 -9 -3.5 -12.5t-15.5 -5.5q-88 -14 -166 -14q-237 0 -237 200v18z "/>
<glyph glyph-name="afii61352" horiz-adv-x="1172" unicode="№" d="M1008 407v65q0 139 -108 139t-108 -139v-65q0 -139 108 -139t108 139zM602 29q0 -12 -8.5 -20.5t-20.5 -8.5h-62q-24 0 -32 16l-313 593v-590q0 -8 -5.5 -13.5t-12.5 -5.5h-52q-18 0 -18 12v703q0 12 8.5 20t20.5 8h55q20 0 27.5 -4t13.5 -16l310 -590v591q0 8 5.5 13.5 t12.5 5.5h53q18 0 18 -19v-695zM1094 85q0 -8 -6 -14t-14 -6h-348q-8 0 -14 6t-6 14v34q0 8 6 14t14 6h348q8 0 14 -6t6 -14v-34zM1094 407q0 -98 -50 -155.5t-144 -57.5t-144 57.5t-50 155.5v65q0 98 50 156t144 58t144 -58t50 -156v-65z"/>
<glyph glyph-name="uni2215" horiz-adv-x="255" unicode="∕" d="M369 743q11 0 11 -7q0 -5 -5 -12l-418 -708q-11 -20 -22 -20h-47q-11 0 -11 9q0 5 3 11l421 713q6 10 9 12t11 2h48z"/>
</font>
</defs>
</svg>
